<svg width="20" height="20" fill="none" xmlns="http://www.w3.org/2000/svg"><path d="M16.583 8.576l-1.04-2.122.115 2.36c.088 1.771-.73 2.752-1.392 3.251.245-1.82.46-5.69-1.505-8.568-1.228-1.799-3.1-2.9-5.565-3.272L5.706 0l1.076 1.055c1.283 1.26 1.935 2.592 1.939 3.963a4.867 4.867 0 01-.482 2.07c-.064-1-.421-2.128-1.568-2.748l-.775-.418.055.878c.127 2.002-.728 3.224-1.633 4.517-.915 1.307-1.86 2.657-1.685 4.766.297 3.601 2.51 5.588 6.575 5.906A3.6 3.6 0 009.5 20c2.084 0 5.222-1.579 6.87-4.222.956-1.534 1.77-4.03.213-7.202zm-7.082 10.45c-.023 0-.043-.003-.064-.003l.177-.003c-.037 0-.077.005-.113.005zm6.041-3.763c-1.329 2.132-3.806 3.515-5.579 3.73 1.921-.6 3.01-7.835-.92-9.004 1.037 1.798-.55 3.48-1.92 4.296-1.37.816-2.295 1.584-1.736 3.338.02.065.051.12.079.178-1.11-.83-1.718-2.081-1.86-3.798-.146-1.758.66-2.908 1.511-4.126.761-1.086 1.605-2.292 1.787-4.007.684 1.143.203 2.917.197 2.94l-.492 1.76 1.303-1.28c.073-.072 1.785-1.784 1.784-4.261 0-1.218-.411-2.394-1.224-3.512 1.491.477 2.658 1.323 3.482 2.527 2.36 3.453 1.198 8.772 1.186 8.826l-.189.837.817-.268c.023-.007 1.848-.63 2.576-2.612.393 1.904-.167 3.417-.802 4.436zM13.868 2.962c.246.366.37.684.45 1.103.079.42.305 1.321.305 1.321l.38-1.265c.322-1.15-.087-2.127-1.203-2.475l-1.776-.347s.66.55 1.033.826c.187.138.564.472.811.837z" fill="#FF512F"/></svg>