<svg width="50" height="50" fill="none" xmlns="http://www.w3.org/2000/svg"><g clip-path="url(#clip0_420_713)"><path d="M.023 37.307a.43.43 0 01.235-.255l19.761-8.646-1.937-1.118a18.364 18.364 0 01-4.958-4.178l-8.817.233h-.012a.43.43 0 01-.23-.068l-1.701-1.082a.43.43 0 01.14-.784l8.284-1.78-1.402-2.369a1.927 1.927 0 01-.19-1.563c.123-.4.368-.749.694-.997L7.295 7.993a.43.43 0 01.61-.531l4.871 2.705c.054.03.1.07.136.12l4.076 5.488 2.255-3.383a.43.43 0 01.588-.125l1.47.928a.43.43 0 01.198.407l-.528 5.236a9268.54 9268.54 0 017.959 4.587l10.022-8.874a.43.43 0 01.445-.078 2.554 2.554 0 011.455 3.274l-1.865 5.045 3.014 2.004c.38.231.61.67.63 1.213.019.489-.128 1.03-.412 1.522-.285.493-.68.89-1.112 1.119a1.681 1.681 0 01-.78.207c-.22 0-.427-.052-.61-.158l-2.318-1.61-.376 1.017a1129.76 1129.76 0 017.644 4.462c1.947 1.152 3.487 2.796 4.453 4.755.331.67.598 1.378.792 2.1a2.487 2.487 0 01-.672 2.451 2.482 2.482 0 01-2.463.614A42.147 42.147 0 0142.08 40.8a42.133 42.133 0 01-4.463-2.234l-7.855-4.536-6.948 1.317 1.351.876c.382.23.613.671.634 1.216.018.488-.128 1.029-.413 1.522-.48.83-1.225 1.327-1.893 1.327-.215 0-.421-.052-.608-.16l-5.207-3.618-13.583 2.576a2.855 2.855 0 01-3.041-1.433.428.428 0 01-.031-.346zM3.71 22.03l.705.449 10.64-.28c-.732-.564-1.987-1.315-3.167-1.926L3.71 22.03zm8.566-11.155L8.527 8.79l2.683 6.936 7.688 4.063-6.621-8.915zm7.45 2.344l-2.193 3.29.453.611 2.167 1.247.462-4.586-.89-.562zm20.366 14.695l.064.044c.132.07.33.045.548-.07.287-.15.567-.438.768-.787.202-.35.31-.735.298-1.06-.01-.25-.09-.439-.222-.515a.361.361 0 00-.182-.044.82.82 0 00-.376.11c-.287.15-.567.438-.768.787-.375.65-.373 1.313-.13 1.535zm-1.022-.711c.031-.402.165-.836.406-1.254.275-.475.651-.86 1.065-1.091L38.68 23.62l-.973 2.633 1.364.949zm.974-9.754a1.696 1.696 0 00-.736-2.064l-9.593 8.494c2.21 1.276 4.452 2.572 6.551 3.789l3.778-10.22zm8.419 23.959c.06-.046.119-.095.175-.15a1.636 1.636 0 00.442-1.608.85.85 0 00-.478-.15c-.494 0-.895.43-.895.96 0 .476.33.875.756.948zM38.047 37.82c1.41.814 2.88 1.55 4.372 2.189a41.263 41.263 0 004.6 1.653c.108.032.217.052.325.062a1.85 1.85 0 01-.497-1.264c0-1.004.788-1.82 1.756-1.82.052 0 .103.002.155.006-.122-.32-.258-.636-.41-.943l-.077-.149c-.467.558-1.377.839-2.711.839-.341 0-.71-.018-1.105-.055a.43.43 0 11.08-.857c2.138.198 2.84-.208 3.067-.468a.524.524 0 00.14-.37 10.666 10.666 0 00-3.513-3.335c-4.982-2.948-17.996-10.45-24.954-14.454l1.446 1.946a.43.43 0 01-.547.637l-9.509-5.024a.43.43 0 01-.2-.226l-.24-.62a1.13 1.13 0 00-.206.382c-.09.293-.051.603.108.873l1.548 2.617.183-.04a.432.432 0 01.287.038c.627.32 3.784 1.97 4.286 2.974a.43.43 0 01-.374.622l-1.82.048a17.506 17.506 0 004.275 3.461L21 27.977l.286-.125a.431.431 0 01.301-.016c.276.087 6.786 2.155 9.766 5.212a.43.43 0 01-.229.723l-.066.013 6.99 4.036zm-15.785 1.525l.06.041c.298.161.92-.167 1.319-.856.201-.349.31-.735.298-1.059-.01-.251-.091-.44-.223-.515a.362.362 0 00-.182-.045c-.326 0-.813.324-1.144.897-.376.652-.373 1.316-.128 1.537zm-1.024-.712a3 3 0 01.407-1.255c.281-.487.654-.859 1.05-1.083l-1.112-.715-3.72.706 3.375 2.347zm-18.304-.392l27.194-5.157c-2.775-2.364-7.72-4.07-8.648-4.378L1.087 37.628c.46.503 1.154.744 1.847.613z" fill="#fff" stroke="#fff"/></g><defs><clipPath id="clip0_420_713"><path fill="#fff" transform="matrix(-1 0 0 1 50 0)" d="M0 0h50v50H0z"/></clipPath></defs></svg>