<svg width="1920" height="635" fill="none" xmlns="http://www.w3.org/2000/svg"><path d="M775.904 443.306c-37.279 0-76.954-3.497-123.864-10.877-124.871-19.646-216.152-73.025-304.463-124.631-33.829-19.79-68.808-40.202-104.65-58.027-62.196-31.05-124.967-51.798-201.585-51.798-60.04 0-128.513 12.746-211.888 43.269l-.096-.192c47.198-17.298 89.94-29.085 130.621-36.033 38.094-6.517 73.313-8.673 107.669-6.469 31.242 1.965 61.333 7.523 91.952 16.915 26.21 8.05 53.523 19.214 83.423 34.164 35.842 17.777 70.821 38.238 104.65 58.027 88.31 51.607 179.592 104.986 304.415 124.631 75.325 11.884 174.704 21.18 275.712-12.314 64.783-21.467 128.13-55.631 188.26-101.488 70.78-53.954 143.9-97.318 217.4-128.895 68.28-29.373 136.56-48.492 203.03-56.83 27.16-3.402 53.76-5.127 79.87-5.127 63.64 0 124.3 10.207 183.86 30.811 85.43 29.564 170.01 80.979 258.46 157.166l-.14.192c-148.78-128.177-287.98-187.977-441.99-187.977-26.21 0-52.85 1.725-80.02 5.175-138.43 17.442-283.76 81.65-420.27 185.677-31.05 23.671-63.11 44.371-95.36 61.525-30.281 16.1-61.571 29.565-92.956 40.011-44.419 14.758-90.994 22.329-142.361 23.143-3.306-.096-6.468-.048-9.679-.048z" fill="#F73425"/><path d="M729.569 452.123c-18.975 0-38.956-.767-60.471-2.252-63.154-4.409-122.188-18.257-185.821-43.509-56.158-22.281-107.046-49.929-160.952-79.158-23.719-12.89-48.3-26.211-73.121-38.908-123.625-63.634-231.917-87.257-419.606-19.503l-.144-.431c48.108-17.346 91.377-28.894 132.202-35.266 38.19-5.942 73.504-7.236 108.004-3.93 31.05 2.971 61.43 9.68 92.863 20.557 26.258 9.056 53.858 21.227 86.873 38.189 24.821 12.698 49.402 26.019 73.121 38.908 106.998 58.076 208.006 112.892 346.629 122.571 74.271 5.175 171.829 5.367 267.95-39.531 61.046-28.558 122.334-66.987 182.134-114.329 71.78-56.829 147.05-99.331 223.77-126.308 35.36-12.459 70.96-21.515 105.8-26.93 33.4-5.175 66.31-7.091 97.84-5.606 93.35 4.361 175.09 21.323 257.27 53.331 83.28 32.44 167.75 80.596 265.89 151.513l-.24.335c-191.91-138.718-338.48-196.123-522.92-204.748-7.14-.335-14.32-.527-21.51-.527-132.06 0-275.23 56.015-405.57 159.275-59.8 47.342-121.131 85.867-182.224 114.377-41.64 19.455-86.107 31.817-135.94 37.759-22.904 2.779-46.431 4.121-71.827 4.121z" fill="#F73425"/><path d="M653.237 468.511c-132.968 0-240.014-57.308-352.906-117.779-14.614-7.811-29.708-15.909-44.802-23.815-116.533-61.669-221.902-103.069-425.692-30.475l-.239-.623C-76.246 262.278.708 250.921 71.721 259.93c64.016 8.146 119.887 32.439 184.096 66.412 15.093 7.906 30.187 16.004 44.802 23.815C413.415 410.532 520.412 467.84 653.237 467.84c10.83 0 21.803-.383 32.967-1.15 90.467-6.373 178.442-16.292 260.236-66.7 56.97-35.123 114.57-76.762 176-127.219 70.48-57.883 147.92-97.893 230.14-118.929 67.04-17.154 135.8-21.562 204.27-12.985 85.48 10.637 162.96 33.589 251.23 74.366 82.84 38.286 168.95 89.461 272.93 152.423l-.33.575C1872.53 242.2 1735.87 163.809 1556.8 141.48c-108.29-13.513-271.49-1.582-433.93 131.771-61.48 50.504-119.07 92.143-176.095 127.266-37.615 23.192-79.973 39.675-129.519 50.408-45.329 9.823-91.377 13.609-131.004 16.436a482.006 482.006 0 01-33.015 1.15z" fill="#F73425"/><path d="M645.81 487.917c-55.966 0-112.077-8.913-170.008-26.882-75.085-23.287-147.2-59.704-213.948-95.545-134.598-72.882-230.814-112.077-431.825-41.496l-.287-.815c95.402-33.494 172.93-43.844 244.04-32.535 67.61 10.733 125.349 39.914 188.455 74.079C398.56 437.94 534.883 502.196 703.263 483.892c103.452-11.213 186.012-41.927 252.472-93.917 54.095-42.31 107.045-86.633 169.915-140.108 71.25-60.615 150.89-98.9 236.61-113.802 84.53-14.663 158.08-3.355 204.84 8.768 124.64 32.2 221.91 85.532 345.05 153.046 52.52 28.798 112.03 61.429 179.98 95.738l-.39.766c-67.99-34.356-127.5-66.987-180.02-95.737-123.1-67.467-220.32-120.75-344.86-152.95-90.94-23.527-269.1-41.113-440.69 104.842-62.91 53.522-115.86 97.797-169.955 140.156-66.557 52.085-149.309 82.848-252.905 94.108-19.166 2.061-38.333 3.115-57.5 3.115z" fill="#F73425"/><path d="M620.127 512.259c-42.454 0-85.244-5.366-129.087-16.1-67.707-16.579-138.527-45.808-222.909-92.095-131.819-72.882-227.077-125.542-437.91-52.469l-.336-1.006c97.942-33.973 173.794-42.982 245.957-29.23 68.568 13.034 128.943 46.432 192.816 81.746 176.238 96.648 311.267 125.973 451.615 98.038 99.954-19.886 182.323-60.663 244.71-121.086 48.207-46.718 104.607-100.864 163.827-152.998 72.26-63.585 154-100.098 243.08-108.483 86.44-8.146 159.47 12.027 205.52 30.379 84.23 33.59 153.76 74.223 227.36 117.252 80.69 47.15 172.12 100.625 298.57 153.477l-.43 1.007c-126.55-52.9-218.02-106.375-298.71-153.525-73.56-42.982-143.04-83.615-227.22-117.157-74.28-29.612-266.61-81.314-447.45 77.913-59.18 52.133-115.58 106.279-163.78 152.998-62.579 60.566-145.092 101.391-245.285 121.373-33.446 6.66-66.796 9.966-100.338 9.966z" fill="#F73425"/><path d="M598.852 539.858c-102.062 0-207.814-32.008-324.396-97.127l-10.254-5.798c-136.994-77.241-227.46-128.273-433.789-57.644l-.432-1.245c206.857-70.821 297.563-19.694 434.844 57.739l10.254 5.798c169.721 94.875 316.586 119.313 462.252 76.906 98.038-28.558 177.771-78.439 236.996-148.254 56.683-66.796 106.803-119.552 157.743-165.935 73.31-66.748 157.21-101.44 249.41-103.069 2.25-.048 4.5-.048 6.7-.048 90.61 0 163.64 32.344 199.53 51.942 59.94 32.727 111.4 67.658 161.14 101.439 96.55 65.55 196.36 133.305 365.65 191.188l-.43 1.246c-169.43-57.932-269.34-125.782-365.98-191.332-49.74-33.733-101.11-68.664-161-101.343-58.42-31.865-263.69-122.427-454.16 50.983-50.93 46.383-101.01 99.044-157.644 165.84-59.369 70.006-139.342 120.031-237.619 148.637-45.904 13.321-91.952 20.029-138.815 20.077z" fill="#F73425"/><path d="M581.362 569.759c-19.885 0-39.818-1.246-59.895-3.69-77.721-9.583-158.7-38.094-240.686-84.764-8.816-5.032-17.393-10.015-25.827-14.855-133.544-77.098-221.758-128.033-424.35-59.56l-.479-1.438c95.546-32.295 168.954-40.106 238.05-25.348 64.017 13.705 118.546 45.186 187.546 85.005 8.385 4.839 16.962 9.823 25.779 14.854 165.408 94.108 324.492 112.844 472.794 55.775 94.923-36.561 174.225-97.175 229.281-175.375 50.745-72.067 100.385-130.573 151.705-178.873 74.46-70.054 160.42-102.877 255.63-97.606 70.83 3.977 146.34 30.714 207.15 73.36 45.66 32.008 85 63.873 123.05 94.636 104.6 84.668 203.45 164.641 404.61 219.889l-.39 1.485c-201.44-55.343-300.39-135.412-405.13-220.177-38-30.762-77.34-62.579-122.96-94.587-115.04-80.692-304.79-122.81-460.86 24.102-51.22 48.204-100.82 106.663-151.463 178.633-55.248 78.44-134.742 139.294-229.952 175.902-56.398 21.707-114.569 32.632-173.603 32.632z" fill="#F73425"/><path d="M568.186 601.862c-10.494 0-21.036-.335-31.578-1.054-82.272-5.558-166.222-32.775-249.502-80.883-13.991-8.146-27.36-16.052-40.25-23.719-134.981-80.021-216.487-128.321-415.964-61.669l-.575-1.677c94.204-31.481 166.319-38.812 233.785-23.814 62.675 13.943 116.054 45.568 183.617 85.627 12.937 7.666 26.258 15.573 40.25 23.671 164.929 95.306 332.11 107.285 483.383 34.643 93.39-44.85 169.961-114.856 221.567-202.543 46.481-79.015 94.111-141.738 145.621-191.811 74.56-72.498 165.07-104.362 261.72-92.096 104.31 13.177 180.36 70.725 208.24 94.827 37.14 32.153 69.29 63.107 100.34 93.055 112.85 108.818 201.97 194.733 428.09 243.368l-.38 1.725c-103.89-22.329-185.87-54.145-257.94-100.145-65.07-41.496-116.53-91.138-171.01-143.655-31.05-29.948-63.16-60.854-100.25-93.006-92.43-80.02-294.92-170.631-467.57-2.827-51.41 49.977-98.94 112.604-145.328 191.427-51.75 87.975-128.608 158.221-222.285 203.215-65.502 31.481-133.927 47.341-203.981 47.341z" fill="#F73425"/><path d="M558.171 635.5c-2.204 0-4.408 0-6.565-.048-86.346-1.246-173.219-27.169-258.223-77.002-19.023-11.165-36.704-21.946-53.762-32.392-131.963-80.404-211.6-128.991-408.586-63.968l-.623-1.869c197.848-65.311 277.773-16.579 410.215 64.16 17.106 10.398 34.74 21.179 53.763 32.344 165.504 97.031 340.927 101.823 493.925 13.513 92-53.092 165.935-132.538 213.855-229.665 42.5-86.202 88.12-153.19 139.53-204.748 61.76-62.004 133.11-93.054 211.74-92.383 109.92.958 209.11 63.681 265.32 122.091 31.96 33.207 59.56 64.64 86.25 95.019 113.9 129.663 196.17 223.388 442.99 263.254l-.29 1.917c-113.95-18.4-200.63-49.929-272.93-99.188-66.13-45.041-114.81-100.529-171.21-164.737-26.69-30.379-54.29-61.812-86.2-94.971-55.92-58.123-154.63-120.558-263.93-121.517h-2.49c-77.19 0-147.1 30.907-207.81 91.809-51.23 51.414-96.75 118.258-139.15 204.269-48.063 97.51-122.286 177.195-214.621 230.527-73.073 42.214-150.794 63.585-231.198 63.585z" fill="#F73425"/><path d="M550.792 670.384c-84.813 0-169.194-24.629-251.132-73.312-23.91-14.232-45.568-27.792-66.508-40.969-129.087-81.027-207.048-129.95-401.973-66.365l-.671-2.06c195.884-63.921 274.18-14.806 403.794 66.556 20.94 13.129 42.55 26.69 66.461 40.921 169.289 100.625 348.45 97.942 504.514-7.571 89.509-60.519 162.725-151.752 206.133-256.833 38.63-93.485 82.28-164.69 133.45-217.733 61.24-63.442 132.25-93.965 210.98-90.755 116.63 4.792 220.08 82.417 273.22 147.44 28.65 35.027 53.33 67.898 77.19 99.667 109.16 145.379 188.08 250.412 452.82 280.456l-.24 2.156c-265.7-30.139-344.81-135.508-454.35-281.319-23.86-31.768-48.54-64.591-77.14-99.618-52.86-64.64-155.73-141.882-271.64-146.625-78.16-3.21-148.55 27.073-209.3 90.083-50.99 52.804-94.5 123.817-133.02 217.063-43.605 105.512-117.109 197.081-206.953 257.791-74.702 50.504-155.441 77.625-240.014 80.692-5.127.239-10.35.335-15.621.335z" fill="#F73425"/><path d="M546.335 706.321c-80.979 0-162.246-23.718-240.302-70.677-28.702-17.25-54.002-33.637-78.487-49.45-126.5-81.793-202.831-131.147-396.079-68.808l-.719-2.3c194.35-62.675 271.064-13.081 398.139 69.096 24.438 15.812 49.738 32.152 78.392 49.402 124.631 74.99 257.408 90.371 384.004 44.419 147.584-53.571 270.777-187.067 329.527-357.075 35.31-102.206 79.59-181.317 131.62-235.175 45.72-47.342 97.56-75.373 154.01-83.375 61.57-8.721 128.61 6.804 193.87 44.946 54 31.529 104.74 77.673 139.24 126.595 26.5 37.567 49.17 72.594 71.11 106.423 107.67 166.127 178.78 275.904 459.71 295.55l-.19 2.396c-282.13-19.742-353.48-129.902-461.53-296.652-21.9-33.829-44.56-68.808-71.06-106.375-67.08-95.162-199.24-189.127-330.82-170.535-119.79 16.962-217.87 126.548-283.66 316.92-58.989 170.728-182.71 304.75-330.964 358.561-48.061 17.441-96.888 26.114-145.811 26.114z" fill="#F73425"/></svg>