<svg viewBox="0 0 612.043 612.043" xmlns="http://www.w3.org/2000/svg" xmlns:xlink="http://www.w3.org/1999/xlink"><style>:root&gt;svg{display:none}:root&gt;svg:target{display:block}</style><svg viewBox="0 0 12 20" id="arrow-left" xmlns="http://www.w3.org/2000/svg"><path d="M12 1.788L10.18 0 0 10l10.18 10L12 18.212 3.64 10 12 1.788z"/></svg><svg viewBox="0 0 12 20" id="arrow-right" xmlns="http://www.w3.org/2000/svg"><path d="M0 2.12L7.802 10 0 17.88 2.099 20 12 10 2.099 0 0 2.12z"/></svg><svg fill="none" viewBox="0 0 20 18" id="basket" xmlns="http://www.w3.org/2000/svg"><path d="M13.366 0l3.211 5.7H20v2.05h-1.167l-.757 9.31c-.02.256-.135.495-.32.67a.986.986 0 01-.676.27H2.92a.986.986 0 01-.677-.27 1.035 1.035 0 01-.319-.67l-.758-9.31H0V5.7h3.422L6.634 0l1.732 1.025L5.732 5.7h8.535l-2.633-4.676L13.366 0zm3.46 7.75H3.173l.667 8.2h12.319l.667-8.2zM11 9.8v4.1H9V9.8h2zm-4 0v4.1H5V9.8h2zm8 0v4.1h-2V9.8h2z" fill="#fff"/></svg><svg fill="none" viewBox="0 0 30 30" id="box" xmlns="http://www.w3.org/2000/svg"><g clip-path="url(#dclip0_310_2)" fill="#fff"><path d="M9.14 21.68a.586.586 0 10.001 1.172.586.586 0 000-1.172z"/><path d="M26.375 11.133l3.453-3.453a.586.586 0 00-.241-.974L21.179 4.11A5.847 5.847 0 0015.586 0a5.861 5.861 0 00-5.436 3.67L.411 6.706a.586.586 0 00-.24.974l3.544 3.544-2.235 3.725a.586.586 0 00.317.857l3.242 1.08V25.9c0 .244.151.462.38.548l9.386 3.52a.584.584 0 00.375.005l.005-.002 10.547-3.515c.24-.08.4-.304.4-.556v-9.254l3.458-1.086a.586.586 0 00.238-.973l-3.453-3.453zm-4.93-5.273c0-.15-.006-.298-.017-.446l6.884 2.125-2.924 2.924-4.777-1.593a5.873 5.873 0 00.834-3.01zM11.152 4.334a4.689 4.689 0 014.434-3.162 4.678 4.678 0 014.687 4.688 4.63 4.63 0 01-1.044 2.95 4.67 4.67 0 01-3.643 1.737 4.692 4.692 0 01-4.434-6.213zM1.685 7.537L9.79 5.01a5.824 5.824 0 00.587 3.531L4.61 10.463 1.685 7.537zm1.176 7.388l1.853-3.088 9.408 3.136-1.853 3.088-9.408-3.136zM14.414 28.57l-8.203-3.076v-8.216c6.454 2.14 6.139 2.075 6.319 2.075a.586.586 0 00.502-.285l1.382-2.303V28.57zM15 14.03l-8.694-2.898 4.734-1.578a5.863 5.863 0 004.546 2.164 5.834 5.834 0 004.283-1.86l3.825 1.274L15 14.031zm9.96 11.445L15.586 28.6V16.32l2.077 2.596a.586.586 0 00.633.193l6.665-2.094v8.462zm-6.632-7.606l-2.346-2.931 9.407-3.136 2.927 2.928-9.988 3.139z"/><path d="M12.862 22.98l-1.303-.488a.586.586 0 00-.412 1.097l1.303.489a.586.586 0 00.412-1.098zm0 2.503l-3.516-1.318a.586.586 0 00-.411 1.097l3.515 1.319a.585.585 0 10.412-1.098zM18.93 3.687a.586.586 0 00-.829 0L15 6.79l-.758-.758a.586.586 0 00-.828.829l1.172 1.172c.228.228.6.228.828 0l3.516-3.516a.586.586 0 000-.829z"/></g><defs><clipPath id="dclip0_310_2"><path fill="#fff" d="M0 0h30v30H0z"/></clipPath></defs></svg><svg viewBox="0 0 612.043 612.043" id="close-btn" xmlns="http://www.w3.org/2000/svg"><path d="M397.503 306.011L593.08 110.434c25.27-25.269 25.27-66.213 0-91.482-25.269-25.269-66.213-25.269-91.481 0L306.022 214.551 110.445 18.974c-25.269-25.269-66.213-25.269-91.482 0s-25.269 66.213 0 91.482L214.54 306.033 18.963 501.61c-25.269 25.269-25.269 66.213 0 91.481 25.269 25.27 66.213 25.27 91.482 0l195.577-195.576 195.577 195.576c25.269 25.27 66.213 25.27 91.481 0 25.27-25.269 25.27-66.213 0-91.481L397.503 306.011z"/></svg><svg viewBox="0 0 40 40" id="delivery" xmlns="http://www.w3.org/2000/svg"><g clip-path="url(#fclip0_22_13)"><path d="M37.358 19.342h-.596l-2.938-6.591a3.849 3.849 0 00-3.498-2.279l-3.168-.01v-.898a3.046 3.046 0 00-3.039-3.046H12.547a6.806 6.806 0 00-5.744-3.159C3.053 3.36 0 6.41 0 10.157c0 3.011 1.97 5.572 4.69 6.462v16.012c0 .432.35.782.781.782h2.103a4.525 4.525 0 004.34 3.264 4.525 4.525 0 004.34-3.264h11.078a4.525 4.525 0 004.34 3.264 4.525 4.525 0 004.34-3.264h3.207c.431 0 .781-.35.781-.782V21.985a2.646 2.646 0 00-2.642-2.643zm1.08 2.643v5.659h-11.28v-6.74h10.2c.595 0 1.08.485 1.08 1.08zM27.166 31.85H16.421a4.499 4.499 0 00-1.092-2.644h12.93a4.496 4.496 0 00-1.093 2.644zM6.253 27.644V24.63h19.343v3.014H6.253zm24.068-15.61a2.284 2.284 0 012.076 1.353l2.655 5.955h-7.893v-7.318l3.162.01zM1.562 10.158a5.244 5.244 0 015.241-5.235 5.244 5.244 0 015.241 5.235 5.244 5.244 0 01-5.24 5.235 5.244 5.244 0 01-5.242-5.235zm5.241 6.797c3.752 0 6.804-3.049 6.804-6.797 0-.724-.114-1.422-.325-2.077h10.837c.814 0 1.477.666 1.477 1.484v13.503H6.253v-6.135c.181.015.365.022.55.022zm-.55 12.252H8.5a4.496 4.496 0 00-1.093 2.644H6.253v-2.644zm5.662 5.908A2.957 2.957 0 018.96 32.16a2.957 2.957 0 012.955-2.953 2.957 2.957 0 012.954 2.953 2.957 2.957 0 01-2.954 2.954zm19.758 0a2.957 2.957 0 01-2.955-2.954 2.957 2.957 0 012.955-2.953 2.957 2.957 0 012.954 2.953 2.957 2.957 0 01-2.954 2.954zm6.765-3.264h-2.26a4.499 4.499 0 00-1.091-2.644h3.35v2.644z"/><path d="M8.685 10.938H6.803a.781.781 0 01-.781-.781v-2.39a.781.781 0 111.563 0v1.609h1.1a.781.781 0 110 1.562zm7.225 9.967a.789.789 0 01-.735-.519.788.788 0 01.23-.859.79.79 0 01.917-.067c.274.17.416.5.354.816a.79.79 0 01-.766.629zm-3.532-.001H8.837a.781.781 0 110-1.562h3.54a.781.781 0 010 1.562zm10.634 0h-3.54a.781.781 0 010-1.562h3.54a.781.781 0 010 1.562z"/></g><defs><clipPath id="fclip0_22_13"><path d="M0 0h40v40H0z"/></clipPath></defs></svg><svg viewBox="0 0 50 50" id="icno-1" xmlns="http://www.w3.org/2000/svg"><path d="M.023 37.307a.43.43 0 01.235-.255l19.762-8.646-1.938-1.118a18.368 18.368 0 01-4.957-4.177l-8.818.232h-.011a.43.43 0 01-.231-.067l-1.701-1.083a.43.43 0 01.14-.784l8.284-1.78-1.402-2.369a1.927 1.927 0 01-.19-1.563c.123-.4.368-.748.694-.997L7.296 7.993a.43.43 0 01.61-.531l4.87 2.705c.054.03.1.07.137.12l4.076 5.488 2.255-3.382a.43.43 0 01.587-.126l1.47.928a.43.43 0 01.198.407l-.527 5.236c2.303 1.326 5.085 2.93 7.958 4.587l10.022-8.874a.43.43 0 01.446-.078 2.554 2.554 0 011.454 3.274l-1.865 5.045 3.015 2.004c.38.231.61.67.63 1.213.018.489-.128 1.03-.413 1.522-.285.493-.68.89-1.112 1.119a1.68 1.68 0 01-.78.207c-.219 0-.427-.052-.61-.158l-2.318-1.61-.376 1.017c3.134 1.817 5.888 3.422 7.644 4.462 1.948 1.152 3.487 2.796 4.453 4.755.332.67.598 1.378.792 2.1a2.487 2.487 0 01-.672 2.451 2.482 2.482 0 01-2.463.614 42.154 42.154 0 01-4.696-1.688 42.143 42.143 0 01-4.464-2.234l-7.855-4.536-6.947 1.317 1.35.876c.382.23.614.671.634 1.216.019.488-.128 1.029-.412 1.522-.48.83-1.226 1.327-1.894 1.327-.214 0-.421-.052-.608-.16l-5.207-3.618-13.583 2.576a2.855 2.855 0 01-3.041-1.433.428.428 0 01-.031-.346zM3.71 22.03l.705.449 10.64-.28c-.732-.564-1.986-1.315-3.167-1.926L3.71 22.031zm8.566-11.155L8.527 8.79l2.683 6.936 7.688 4.063-6.62-8.915zm7.45 2.344l-2.193 3.29.454.611 2.166 1.247.462-4.586-.889-.562zm20.367 14.695l.064.044c.132.07.33.045.547-.07.287-.15.567-.438.768-.787.202-.35.31-.735.299-1.06-.01-.25-.091-.439-.223-.515a.36.36 0 00-.181-.044c-.11 0-.24.037-.377.11-.286.15-.566.438-.768.787-.375.65-.373 1.313-.13 1.535zm-1.023-.711c.032-.402.165-.836.407-1.254.274-.475.65-.86 1.064-1.091l-1.861-1.237-.974 2.634 1.364.948zm.974-9.754a1.696 1.696 0 00-.736-2.064l-9.593 8.494a4630.67 4630.67 0 016.551 3.789l3.778-10.22zm8.419 23.959c.06-.046.12-.095.175-.15a1.636 1.636 0 00.442-1.608.85.85 0 00-.478-.15c-.494 0-.895.43-.895.96 0 .476.33.875.756.948zM38.047 37.82a41.257 41.257 0 008.972 3.842c.108.032.217.052.325.062a1.851 1.851 0 01-.497-1.264c0-1.004.788-1.82 1.756-1.82.052 0 .103.002.155.006-.122-.32-.258-.636-.41-.943-.024-.05-.051-.099-.077-.149-.467.558-1.376.839-2.711.839-.34 0-.71-.018-1.105-.055a.43.43 0 11.08-.857c2.139.199 2.84-.208 3.067-.468a.525.525 0 00.14-.37 10.668 10.668 0 00-3.513-3.335c-4.982-2.948-17.996-10.45-24.953-14.454L20.72 20.8a.43.43 0 01-.547.637l-9.508-5.024a.429.429 0 01-.2-.226l-.24-.62a1.127 1.127 0 00-.207.382c-.09.293-.051.603.108.873l1.548 2.617.184-.04a.431.431 0 01.286.038c.627.32 3.784 1.97 4.286 2.974a.43.43 0 01-.373.622l-1.821.048a17.507 17.507 0 004.275 3.461L21 27.977l.286-.125a.43.43 0 01.302-.016c.275.087 6.786 2.155 9.765 5.212a.43.43 0 01-.228.723l-.067.013 6.99 4.036zm-15.784 1.525l.06.042c.297.16.92-.167 1.318-.856.202-.35.31-.736.298-1.06-.01-.251-.09-.44-.223-.515a.362.362 0 00-.182-.045c-.326 0-.813.324-1.144.898-.376.65-.372 1.315-.128 1.536zm-1.024-.712c.03-.402.164-.836.406-1.255.281-.487.654-.859 1.05-1.083l-1.112-.715-3.72.706 3.376 2.347zm-18.305-.392l27.194-5.157c-2.774-2.364-7.72-4.07-8.648-4.378L1.087 37.63c.46.502 1.154.743 1.847.612z"/><defs><clipPath id="gclip0_18_93"><path transform="matrix(-1 0 0 1 50 0)" d="M0 0h50v50H0z"/></clipPath></defs></svg><svg viewBox="0 0 50 50" id="icno-2" xmlns="http://www.w3.org/2000/svg"><g clip-path="url(#hclip0_18_110)"><path d="M0 9.339c0-.15.08-.29.21-.365l8.923-5.151a.422.422 0 01.421 0l33.667 19.41a.42.42 0 01.211.364v2.77l5.367 3.06a.421.421 0 01.207.297l.973 5.862a.42.42 0 01.021.128v4.948c0 .15-.08.29-.21.365l-8.922 5.15a.421.421 0 01-.422 0l-3.908-2.22c-.072.536-.321.98-.743 1.223-.218.126-.46.186-.711.186-.8 0-1.703-.607-2.288-1.62-.349-.604-.528-1.265-.506-1.86.005-.123.02-.24.042-.351l-7.166-4.137c-.084.505-.33.92-.735 1.153-.218.126-.46.186-.71.186-.801 0-1.704-.607-2.288-1.619a3.808 3.808 0 01-.466-1.28 1.4 1.4 0 01-.49.485 1.41 1.41 0 01-.712.186c-.8 0-1.703-.607-2.287-1.62-.35-.603-.529-1.264-.507-1.86.005-.118.02-.23.04-.338l-.462-.266a.422.422 0 01-.21-.366v-2.758l-2.6-1.5-2.43 1.396a.421.421 0 01-.423-.002l-.807-.473c-.086.519-.339.922-.732 1.149a1.406 1.406 0 01-.712.187 2 2 0 01-.928-.252c-.527-.278-1.01-.764-1.359-1.369a3.815 3.815 0 01-.467-1.275 1.4 1.4 0 01-.489.48 1.406 1.406 0 01-.711.188 2 2 0 01-.93-.252c-.526-.278-1.009-.764-1.358-1.369-.437-.758-.588-1.556-.468-2.2l-.46-.265a.422.422 0 01-.21-.365v-2.774L.21 20.003a.422.422 0 01-.21-.365v-10.3zm9.344-4.665L1.265 9.34 34.09 28.26l8.078-4.663L9.344 4.674zm33.245 19.654l-8.078 4.663v2.045l8.078-4.665v-2.043zm.425 2.772l-8.075 4.662 4.729 2.695 8.075-4.662-4.73-2.695zm.302 16.69l3.603-2.08v-1.576l-3.603 2.08v1.577zm-.632-2.184l4.446-2.567a.422.422 0 01.633.365v.017l1.394-.838v-2.14l-8.078 4.665v2.227l1.394-.839v-.525c0-.15.08-.29.21-.365zm-2.39-5.424l8.149-4.705-.168-1.015-8.143 4.7.162 1.02zm.143.891l.501 3.142 8.172-4.718-.52-3.131-8.153 4.707zm-1.152-1.864l-1.14-.65v4.371l1.91 1.103-.77-4.824zm9.872 4.358l-1.394.838v.818l1.394-.804v-.852zm-6.684 4.71v-.797l-1.394.839v.763l1.394-.805zm-6.42-2.41c.209.36.35.73.43 1.09l3.752 2.13V41.11l-2.722-1.571a.421.421 0 01-.211-.366V34.08l-2.79-1.59v7.92c.06.027.121.055.183.088.527.278 1.01.764 1.358 1.368zm-2.526 1.458c.559.968 1.422 1.37 1.846 1.125.425-.246.509-1.194-.05-2.162-.267-.462-.64-.843-1.022-1.044-.188-.1-.545-.242-.825-.08-.28.16-.335.542-.343.754-.016.432.127.945.394 1.407zm-.473-2.892a1.41 1.41 0 01.614-.183v-.96l-4.48-2.582v2.038l3.488 2.014a1.41 1.41 0 01.378-.327zm-10.89-3.737c.558.968 1.421 1.37 1.846 1.125.425-.245.508-1.194-.05-2.162-.267-.462-.64-.842-1.022-1.044a1.211 1.211 0 00-.535-.154c-.1 0-.199.02-.29.074-.28.161-.335.542-.343.754-.017.433.126.946.393 1.407zm-3.956-2.228c.56.968 1.422 1.37 1.847 1.125.425-.246.509-1.194-.05-2.162-.267-.462-.64-.842-1.022-1.044a1.211 1.211 0 00-.535-.154c-.1 0-.199.02-.29.073-.28.162-.335.543-.344.755-.016.433.127.945.394 1.407zm-1.026-2.652l.168.097a1.37 1.37 0 01.386-.337c.467-.27 1.05-.247 1.64.065.527.278 1.01.764 1.359 1.368.212.367.354.744.434 1.108l.105.06c.114-.15.252-.278.417-.373.467-.27 1.05-.247 1.64.065.527.278 1.01.764 1.358 1.368.225.389.371.787.448 1.17l3.207 1.852V36.22l-11.162-6.435v2.03zm-4.287-4.5l-1.374-.793v1.586l1.374-.794zm-5.816.7c.266.462.639.842 1.021 1.044.188.1.546.242.825.08.28-.161.336-.542.344-.754.016-.433-.127-.945-.394-1.407-.56-.968-1.422-1.37-1.847-1.125-.425.245-.508 1.194.05 2.162zm-3.955-2.228c.266.462.639.842 1.021 1.044.188.1.546.242.826.08.28-.161.335-.542.343-.754.016-.433-.127-.946-.394-1.407-.56-.969-1.422-1.37-1.847-1.125-.425.245-.508 1.194.05 2.162zm-1.027-2.653l.168.097c.107-.134.235-.249.386-.336.914-.527 2.23.102 3 1.433.206.358.351.735.432 1.107l.106.061a1.38 1.38 0 01.417-.373c.914-.527 2.23.103 2.999 1.433.219.379.37.78.448 1.173l.624.365v-2.058l-8.58-4.946v2.044zm31.571 15.182v-9.326L.843 10.07v9.325l32.825 18.923z"/></g><defs><clipPath id="hclip0_18_110"><path transform="matrix(-1 0 0 1 50 0)" d="M0 0h50v50H0z"/></clipPath></defs></svg><svg viewBox="0 0 50 50" id="icno-3" xmlns="http://www.w3.org/2000/svg"><g clip-path="url(#iclip0_8_405)"><path d="M38.481 47.612a1.038 1.038 0 01-1.006-1.306l3.93-14.948L25 25.123 8.598 31.358l3.93 14.948a1.039 1.039 0 01-.743 1.271 1.035 1.035 0 01-1.27-.742L6.348 30.981a1.04 1.04 0 01.637-1.237l17.646-6.709c.238-.091.502-.091.74 0l17.646 6.709c.498.19.773.723.637 1.237l-4.167 15.854a1.041 1.041 0 01-1.006.777z"/><path d="M48.958 50c-3.093 0-5.94-1.494-7.608-3.998-.167-.25-.587-.248-.754 0C38.925 48.506 36.08 50 32.986 50c-3.096 0-5.94-1.494-7.611-3.998-.165-.248-.587-.248-.752 0C22.954 48.506 20.108 50 17.015 50c-3.094 0-5.94-1.494-7.609-3.998-.166-.248-.585-.25-.754 0C6.982 48.506 4.135 50 1.042 50a1.042 1.042 0 010-2.084c2.396 0 4.593-1.147 5.875-3.07.916-1.375 3.304-1.373 4.22 0 1.284 1.923 3.48 3.07 5.878 3.07s4.593-1.147 5.877-3.07c.914-1.373 3.304-1.373 4.218 0 1.282 1.923 3.48 3.07 5.875 3.07 2.396 0 4.594-1.147 5.875-3.07.915-1.373 3.305-1.375 4.221 0 1.284 1.923 3.481 3.07 5.877 3.07a1.042 1.042 0 010 2.084zm-37.5-19.813a1.042 1.042 0 01-1.041-1.041V17.708a1.04 1.04 0 011.041-1.041H25c.575 0 1.042.466 1.042 1.041V24a1.042 1.042 0 01-2.084 0v-5.25H12.5v10.396a1.04 1.04 0 01-1.042 1.041z"/><path d="M38.542 30.187a1.042 1.042 0 01-1.042-1.041V18.75H26.042V24a1.042 1.042 0 01-2.084 0v-6.292c0-.575.467-1.041 1.042-1.041h13.542a1.04 1.04 0 011.041 1.041v11.438a1.04 1.04 0 01-1.041 1.041z"/><path d="M32.292 18.75a1.042 1.042 0 01-1.042-1.042V8.333h-12.5v9.375a1.042 1.042 0 01-2.083 0V7.292c0-.575.466-1.042 1.041-1.042h14.584c.575 0 1.041.467 1.041 1.042v10.416c0 .575-.466 1.042-1.041 1.042z"/><path d="M25 8.333a1.042 1.042 0 01-1.042-1.041v-6.25a1.042 1.042 0 012.084 0v6.25c0 .575-.467 1.041-1.042 1.041z"/></g><defs><clipPath id="iclip0_8_405"><path d="M0 0h50v50H0z"/></clipPath></defs></svg><svg viewBox="0 0 50 50" id="icno-4" xmlns="http://www.w3.org/2000/svg"><path d="M21.694 34.886a1.755 1.755 0 002.123 1.297l24.398-5.894a1.762 1.762 0 001.297-2.123l-4.47-18.507a1.754 1.754 0 00-2.124-1.297L18.52 14.255c-.456.11-.843.392-1.088.793a1.75 1.75 0 00-.209 1.33l4.47 18.508zm11.599-21.801l2.59 10.718-4.342 1.049-2.59-10.718 4.342-1.05zm-6.608 1.596l2.863 11.851a1.166 1.166 0 001.407.86l6.608-1.596a1.166 1.166 0 00.859-1.407l-2.863-11.852 7.35-1.776 4.203 17.396-23.286 5.625-4.203-17.395 7.062-1.706z"/><path d="M49.967 35.246a1.166 1.166 0 00-1.407-.86l-23.736 5.735a6.363 6.363 0 00-6.174-3.77L10.298 1.773A1.165 1.165 0 008.89.915L.892 2.847a1.166 1.166 0 10.548 2.266l6.866-1.658 8.078 33.442a6.34 6.34 0 00-2.843 2.502 6.346 6.346 0 00-.758 4.83 6.368 6.368 0 006.205 4.889c.504 0 1.01-.06 1.504-.18 3.037-.733 5.04-3.537 4.877-6.55l23.739-5.735a1.166 1.166 0 00.86-1.407zM19.944 46.672a4.043 4.043 0 01-4.896-2.99 4.03 4.03 0 01.482-3.068 4.03 4.03 0 012.51-1.828 4.043 4.043 0 014.896 2.99 4.061 4.061 0 01-2.992 4.896z"/></svg><svg viewBox="0 0 50 50" id="icno-5" xmlns="http://www.w3.org/2000/svg"><g clip-path="url(#kclip0_8_575)"><path d="M49.863 19.342L45.26 10.67a1.17 1.17 0 00-.724-.58l-.005-.001L25.353 4.91a1.175 1.175 0 00-.609 0L5.471 10.087l-.006.002a1.169 1.169 0 00-.725.58L.137 19.342A1.171 1.171 0 00.67 20.95l4.005 1.893v11.848c0 .45.257.86.662 1.055l19.201 9.267a1.17 1.17 0 001.01.001c.003 0 .006 0 .008-.002l19.201-9.267a1.17 1.17 0 00.663-1.054V22.844l-.003-.045 3.912-1.849a1.172 1.172 0 00.533-1.608zM25.047 7.255l15.335 4.139L25 17.094 9.625 11.398l15.422-4.142zM6.328 12.673l17.097 6.336-3.765 8.327-16.88-7.98 3.548-6.683zm.69 21.283V23.95l12.717 6.011a1.172 1.172 0 001.568-.576l2.574-5.692v18.399l-16.86-8.137zm36.06 0L26.22 42.092V23.908l2.478 5.48a1.171 1.171 0 001.568.575l12.813-6.057v10.05zm-12.738-6.62l-3.765-8.327 17.097-6.337 3.547 6.685-16.879 7.979z"/></g><defs><clipPath id="kclip0_8_575"><path d="M0 0h50v50H0z"/></clipPath></defs></svg><svg viewBox="0 0 50 50" id="icno-6" xmlns="http://www.w3.org/2000/svg"><path d="M32.818 3.906a.977.977 0 100 1.954.977.977 0 000-1.954zm-15.625 0a.977.977 0 100 1.954.977.977 0 000-1.954z"/><path d="M45.316 48.348l-6.462-6.75a4.888 4.888 0 004.706-4.88V7.742a6.855 6.855 0 00-1.553-4.338 6.85 6.85 0 00-3.953-2.367A54.318 54.318 0 0027.506 0h-5.159c-3.36 0-6.86.322-10.401 1.03A6.855 6.855 0 006.45 7.733V36.72c0 2.655 2.13 4.82 4.772 4.88l-6.535 6.745A.976.976 0 005.389 50h6.983c.313 0 .607-.15.79-.404l2.963-4.088h17.848l2.962 4.088a.977.977 0 00.791.404h6.885a.977.977 0 00.705-1.652zM8.404 36.718V7.734c0-2.32 1.65-4.333 3.925-4.788a51.22 51.22 0 0110.018-.992h5.16c3.405 0 6.826.336 10.167.999a4.894 4.894 0 012.824 1.69 4.897 4.897 0 011.109 3.1V36.72a2.933 2.933 0 01-2.93 2.93H11.333a2.933 2.933 0 01-2.93-2.93zm3.47 11.329h-4.18l6.245-6.445h2.603l-4.67 6.445zm5.666-4.492l1.415-1.953h12.188l1.415 1.953H17.54zm20.684 4.492l-4.67-6.445h2.6l6.17 6.445h-4.1z"/><path d="M38.677 7.813H11.334a.977.977 0 00-.977.976V25c0 .54.437.977.977.977h27.343c.54 0 .977-.438.977-.977V8.79a.977.977 0 00-.977-.977zM24.03 24.023H12.31V9.766h11.72v14.257zm13.672 0H25.98V9.766H37.7v14.257zm-8.79-20.117h-7.813a.977.977 0 000 1.953h7.813a.977.977 0 000-1.953zm6.836 25a3.91 3.91 0 00-3.907 3.907 3.91 3.91 0 003.907 3.906 3.91 3.91 0 003.906-3.907 3.91 3.91 0 00-3.906-3.906zm0 5.86a1.955 1.955 0 01-1.954-1.953c0-1.078.877-1.954 1.954-1.954s1.953.876 1.953 1.953a1.955 1.955 0 01-1.953 1.954zm-21.485-5.86a3.91 3.91 0 00-3.906 3.907 3.91 3.91 0 003.906 3.906 3.91 3.91 0 003.906-3.907 3.91 3.91 0 00-3.906-3.906zm0 5.86a1.955 1.955 0 01-1.953-1.953c0-1.078.876-1.954 1.953-1.954s1.953.876 1.953 1.953a1.955 1.955 0 01-1.953 1.954zm14.649-4.883h-7.813a.977.977 0 000 1.953h7.813a.977.977 0 000-1.953zm0 3.907h-7.813a.977.977 0 000 1.952h7.813a.977.977 0 000-1.953z"/></svg><svg viewBox="0 0 40 40" id="location" xmlns="http://www.w3.org/2000/svg"><g clip-path="url(#mclip0_22_19)"><path d="M36.494 40H25.125a.781.781 0 010-1.562h11.37a1.945 1.945 0 001.943-1.944 1.945 1.945 0 00-1.944-1.943H23.028a4.201 4.201 0 01-4.197-4.196 4.201 4.201 0 014.197-4.197h9.649a2.698 2.698 0 002.695-2.695 2.698 2.698 0 00-2.695-2.695H22.036a.781.781 0 010-1.563h10.64a4.263 4.263 0 014.258 4.258 4.263 4.263 0 01-4.257 4.258h-9.649a2.637 2.637 0 00-2.634 2.634 2.637 2.637 0 002.634 2.634h13.466A3.51 3.51 0 0140 36.495 3.51 3.51 0 0136.494 40zm-18.435-1.563h-7.325a23.014 23.014 0 001.98-1.836c2.62-2.742 4.006-5.697 4.006-8.546 0-4.61-3.75-8.36-8.36-8.36-4.61 0-8.36 3.75-8.36 8.36 0 2.812 1.385 5.755 4.004 8.511 1.897 1.997 3.774 3.209 3.93 3.308a.778.778 0 00.36.123h.01l.01.001.01.001h9.735a.781.781 0 000-1.562zM1.562 28.055a6.805 6.805 0 016.798-6.797 6.805 6.805 0 016.798 6.797c0 5.105-5.26 9.15-6.795 10.22-1.534-1.086-6.8-5.183-6.8-10.22z"/><path d="M8.36 31.88a3.93 3.93 0 01-3.926-3.925 3.93 3.93 0 013.926-3.926 3.93 3.93 0 013.926 3.926A3.93 3.93 0 018.36 31.88zm0-6.289a2.366 2.366 0 00-2.363 2.364 2.366 2.366 0 002.363 2.363 2.366 2.366 0 002.363-2.363A2.366 2.366 0 008.36 25.59zM37.755 0H23.867a2.247 2.247 0 00-2.244 2.245v12.334a2.247 2.247 0 002.244 2.244h13.888A2.247 2.247 0 0040 14.58V2.245A2.247 2.247 0 0037.755 0zm-4.978 1.563V6.99l-1.6-.85a.783.783 0 00-.732 0l-1.6.85V1.563h3.932zm5.66 13.016a.683.683 0 01-.682.682H23.867a.683.683 0 01-.682-.682V2.245c0-.376.306-.683.682-.683h3.416V8.29a.782.782 0 001.147.69l2.381-1.264 2.381 1.264a.78.78 0 001.148-.69V1.563h3.415c.377 0 .683.306.683.682v12.334zM21.577 40a.79.79 0 01-.738-.528.788.788 0 01.249-.861.79.79 0 01.88-.068c.285.164.439.5.376.822a.79.79 0 01-.767.635z"/></g><defs><clipPath id="mclip0_22_19"><path d="M0 0h40v40H0z"/></clipPath></defs></svg><svg fill="none" viewBox="0 0 60 60" id="mobile" xmlns="http://www.w3.org/2000/svg"><path d="M22.103 4.843l2.74 5.99a8.081 8.081 0 01.57 4.99 8.175 8.175 0 01-2.492 4.382l-4.54 4.16a.742.742 0 00-.236.462c-.134 1.185.683 3.493 2.567 6.703 1.37 2.332 2.613 3.971 3.667 4.888.735.642 1.14.78 1.312.731l6.107-1.836a8.494 8.494 0 015.108.068 8.346 8.346 0 014.113 2.978l3.888 5.302a8.107 8.107 0 011.542 5.572 8.157 8.157 0 01-2.572 5.192l-2.691 2.508a11.453 11.453 0 01-5.093 2.738c-1.91.465-3.91.437-5.805-.084C21.921 57.291 14.42 50.352 7.7 38.915.97 27.46-1.39 17.595.785 9.316a11.139 11.139 0 012.59-4.718A11.406 11.406 0 017.9 1.604l.626-.206L12.07.35a8.49 8.49 0 015.877.39 8.283 8.283 0 014.155 4.103zm-8.716-.209L9.84 5.688l-.48.161a6.84 6.84 0 00-2.646 1.8 6.682 6.682 0 00-1.516 2.79c-1.832 6.96.261 15.705 6.447 26.236 6.177 10.516 12.827 16.666 19.87 18.601a6.95 6.95 0 003.48.048 6.872 6.872 0 003.054-1.642l2.695-2.508a3.685 3.685 0 00.468-4.894l-3.889-5.3a3.794 3.794 0 00-1.87-1.354 3.86 3.86 0 00-2.322-.031l-6.122 1.842c-3.555 1.039-6.781-1.77-10.245-7.667-2.333-3.972-3.42-7.047-3.15-9.439a5.205 5.205 0 011.659-3.242l4.539-4.16a3.716 3.716 0 001.133-1.992 3.673 3.673 0 00-.259-2.268l-2.74-5.99a3.765 3.765 0 00-1.887-1.864 3.86 3.86 0 00-2.67-.178l-.003-.003zm41.3 22.388H34.775l-.303-.042-.307-.087-.146-.06a2.182 2.182 0 01-1.033-.883l-.146-.284-.076-.2-.073-.284-.033-.313V5.359a2.22 2.22 0 01.62-1.514 2.306 2.306 0 013.088-.207c.447.353.741.86.825 1.417l.02.305v14.018L56.11.798A2.307 2.307 0 0159.077.58l.255.218a2.212 2.212 0 01.222 2.914l-.222.25L40.435 22.54l14.25.003c.55 0 1.083.195 1.499.55.415.356.686.848.76 1.385l.022.304c0 .541-.2 1.064-.562 1.472a2.29 2.29 0 01-1.407.747l-.31.02z" fill="#fff"/></svg><svg viewBox="0 0 40 40" id="package" xmlns="http://www.w3.org/2000/svg"><g clip-path="url(#oclip0_22_9)"><path d="M36.585 1.328h-19.45a2.294 2.294 0 00-2.291 2.292v3.122c0 .431.35.781.781.781h.044v13.74a2.294 2.294 0 002.291 2.293h17.8a2.294 2.294 0 002.292-2.292V7.524h.044c.431 0 .781-.35.781-.782V3.62a2.294 2.294 0 00-2.292-2.292zM16.406 3.62a.73.73 0 01.73-.73h19.45a.73.73 0 01.729.73v2.34H16.406V3.62zm7.834 3.903h5.24v7.217l-2.253-1.197a.781.781 0 00-.733 0L24.24 14.74V7.523zm12.25 13.74a.73.73 0 01-.73.73h-17.8a.73.73 0 01-.729-.73V7.524h5.447v8.517a.78.78 0 001.147.69l3.036-1.613 3.035 1.612a.78.78 0 001.147-.69V7.524h5.447v13.74zm3.28 6.589a2.739 2.739 0 00-3.561-1.422l-5.404 2.282a2.677 2.677 0 00-.616-1.142c-.515-.561-1.264-.87-2.108-.87l-.033.001c-3.996.172-8.464.262-9.365.129-1.825-1.57-3.795-2.24-5.71-1.939-1.646.26-3.154 1.217-4.425 2.798a.778.778 0 00-.323-.07H.781A.781.781 0 000 28.4v9.525c0 .431.35.781.781.781h7.444a.78.78 0 00.781-.781v-2.553c.576.348 1.067.718 1.548 1.08 1.315.99 2.558 1.925 4.909 1.925h10.41a6.748 6.748 0 003.72-1.115l9.177-6.04a2.722 2.722 0 001-3.37zM7.444 37.144H1.563V29.18h5.88v7.963zm30.467-7.227l-9.176 6.04a5.193 5.193 0 01-2.862.857h-10.41c-1.83 0-2.727-.676-3.97-1.61-.69-.52-1.46-1.1-2.487-1.617V29.75c1.182-1.923 2.634-3.068 4.21-3.316 1.483-.233 3.06.347 4.559 1.677a.93.93 0 00.015.013c.285.24.49.413 5.574.294 2.263-.053 4.507-.147 4.733-.156.282.002.67.068.942.364.19.208.295.505.306.87a7.664 7.664 0 01-5.192 2.046h-6.368a.781.781 0 100 1.562h6.368c2.367 0 4.68-.938 6.38-2.582l6.284-2.653a1.17 1.17 0 011.522.607 1.164 1.164 0 01-.428 1.44z"/><path d="M14.257 33.105a.787.787 0 01-.735-.518.787.787 0 01.23-.859.79.79 0 01.917-.067c.273.17.417.5.354.816a.79.79 0 01-.766.628z"/></g><defs><clipPath id="oclip0_22_9"><path d="M0 0h40v40H0z"/></clipPath></defs></svg><svg viewBox="0 0 10 16" id="pagination-left" xmlns="http://www.w3.org/2000/svg"><path d="M10 14.12L3.82 8 10 1.88 8.097 0 0 8l8.097 8L10 14.12z"/></svg><svg viewBox="0 0 10 16" id="pagination-right" xmlns="http://www.w3.org/2000/svg"><path d="M0 14.12L6.18 8 0 1.88 1.903 0 10 8l-8.097 8L0 14.12z"/></svg><svg fill="none" viewBox="0 0 72 50" id="plane" xmlns="http://www.w3.org/2000/svg"><path d="M5.151 33.895a17.525 17.525 0 015.304-3.645l9.422-4.07 8.207-21.13 5.593-3.735v18.899l15.799-6.827.011.027L56.185 0h4.202v13.166L72 17.817v5.79l-11.015-2.94.047.068-15.257 10.184 22.868 9.54-5.686 3.796-28.884-5.598A85.54 85.54 0 015.851 49.78c-.725.147-1.466.22-2.203.22A3.654 3.654 0 010 46.348c0-4.704 1.829-9.127 5.151-12.453zM31.355 5.662l-1.374.916-7.11 18.307 8.484-3.666V5.662zm26.71-3.336h-.444L51.097 15.39v.888h2l4.968-2.984V2.325zm11.612 18.253v-1.187L59.33 15.248l-2.96 1.778 13.308 3.553zm-7.215 21.212l1.282-.855L38.418 30.37l-8.511 5.113 32.555 6.308zM3.648 47.674c.584 0 1.173-.058 1.747-.173a83.23 83.23 0 0025.238-9.51l-7.12-1.38 14.714-8.841 4.97 2.073 14.905-9.948-4.835-1.29h-4.493v-2.382L11.388 32.38a15.223 15.223 0 00-4.594 3.16 15.195 15.195 0 00-4.471 10.809c0 .731.594 1.326 1.325 1.326z" fill="#F73425"/><path d="M8.436 37.184a12.878 12.878 0 013.895-2.678l.943 2.124a10.555 10.555 0 00-3.196 2.198 10.583 10.583 0 00-2.862 5.215l-2.268-.499a12.896 12.896 0 013.488-6.36zM46.452 20.93h2.322v2.326h-2.322V20.93zm-5.807 2.326h2.323v2.325h-2.323v-2.325z" fill="#F73425"/></svg><svg fill="none" viewBox="0 0 19 22" id="play" xmlns="http://www.w3.org/2000/svg"><path d="M3.029.817C1.696.017 0 .977 0 2.532v16.936c0 1.554 1.696 2.514 3.029 1.715l14.113-8.468c1.294-.777 1.294-2.653 0-3.43L3.029.817z" fill="#F73425"/></svg><svg fill="none" viewBox="0 0 16 16" id="reviews-star" xmlns="http://www.w3.org/2000/svg"><path d="M8 12.243L12.947 16l-1.894-6.066L16 6.26H9.933L8 0 6.067 6.26H0l4.947 3.674L3.053 16 8 12.243z" fill="#FBA94A"/></svg><svg fill="none" viewBox="0 0 20 21" id="search" xmlns="http://www.w3.org/2000/svg"><path d="M17.863 15.716c-.492-.471-.97-.955-1.435-1.453-.39-.396-.625-.685-.625-.685l-2.938-1.403a7.305 7.305 0 001.825-4.83C14.69 3.295 11.396 0 7.346 0 3.295 0 0 3.296 0 7.345c0 4.05 3.295 7.346 7.345 7.346a7.31 7.31 0 004.83-1.825l1.403 2.938s.289.235.685.625c.406.381.94.896 1.453 1.435l1.425 1.46.633.678L20 17.776l-.678-.633c-.398-.39-.928-.909-1.46-1.427zM7.345 12.592A5.253 5.253 0 012.1 7.345 5.253 5.253 0 017.345 2.1a5.253 5.253 0 015.247 5.246 5.253 5.253 0 01-5.247 5.247z" fill="#fff"/></svg><svg fill="none" viewBox="0 0 50 50" id="ship" xmlns="http://www.w3.org/2000/svg"><g clip-path="url(#vclip0_6_107)" fill="#F73425"><path d="M42.708 50h-37.5c-.348 0-.673-.175-.866-.465l-4.167-6.25a1.046 1.046 0 01-.052-1.07c.181-.336.533-.548.919-.548h28.125a5.214 5.214 0 005.208-5.209c0-.575.467-1.041 1.042-1.041h13.541a1.043 1.043 0 01.932 1.506l-6.25 12.5a1.041 1.041 0 01-.932.577zM5.767 47.917h36.298L47.273 37.5h-10.89c-.506 3.53-3.55 6.25-7.216 6.25H2.987l2.78 4.167z"/><path d="M29.167 43.75h-9.375a1.042 1.042 0 01-1.042-1.042V28.125c0-.575.467-1.042 1.042-1.042h16.666c.575 0 1.042.467 1.042 1.042v8.333a1.042 1.042 0 01-2.083 0v-7.291H20.833v12.5h8.334a1.042 1.042 0 010 2.083z"/><path d="M25 39.583a1.042 1.042 0 01-1.042-1.041v-6.25a1.042 1.042 0 012.084 0v6.25c0 .575-.467 1.041-1.042 1.041z"/><path d="M29.167 43.75h-9.375a1.042 1.042 0 01-1.042-1.042V28.125c0-.575.467-1.042 1.042-1.042h16.666c.575 0 1.042.467 1.042 1.042v8.333a1.042 1.042 0 01-2.083 0v-7.291H20.833v12.5h8.334a1.042 1.042 0 010 2.083z"/><path d="M31.25 39.583a1.042 1.042 0 01-1.042-1.041v-6.25a1.042 1.042 0 012.084 0v6.25c0 .575-.467 1.041-1.042 1.041zm-6.25 0a1.042 1.042 0 01-1.042-1.041v-6.25a1.042 1.042 0 012.084 0v6.25c0 .575-.467 1.041-1.042 1.041zm-5.208 4.167H3.125a1.042 1.042 0 01-1.042-1.042V28.125c0-.575.467-1.042 1.042-1.042h16.667c.575 0 1.041.467 1.041 1.042v14.583c0 .575-.466 1.042-1.041 1.042zM4.167 41.667H18.75v-12.5H4.167v12.5z"/><path d="M8.333 39.583a1.042 1.042 0 01-1.041-1.041v-6.25a1.042 1.042 0 012.083 0v6.25c0 .575-.467 1.041-1.042 1.041z"/><path d="M19.792 43.75H3.125a1.042 1.042 0 01-1.042-1.042V28.125c0-.575.467-1.042 1.042-1.042h16.667c.575 0 1.041.467 1.041 1.042v14.583c0 .575-.466 1.042-1.041 1.042zM4.167 41.667H18.75v-12.5H4.167v12.5z"/><path d="M14.583 39.583a1.042 1.042 0 01-1.041-1.041v-6.25a1.042 1.042 0 012.083 0v6.25c0 .575-.467 1.041-1.042 1.041zm-6.25 0a1.042 1.042 0 01-1.041-1.041v-6.25a1.042 1.042 0 012.083 0v6.25c0 .575-.467 1.041-1.042 1.041zm11.459-10.416H3.125a1.042 1.042 0 01-1.042-1.042v-12.5c0-.575.467-1.042 1.042-1.042h16.667c.575 0 1.041.467 1.041 1.042v12.5c0 .575-.466 1.042-1.041 1.042zM4.167 27.083H18.75V16.667H4.167v10.416z"/><path d="M8.333 25a1.042 1.042 0 01-1.041-1.042v-4.166a1.042 1.042 0 012.083 0v4.166c0 .575-.467 1.042-1.042 1.042z"/><path d="M19.792 29.167H3.125a1.042 1.042 0 01-1.042-1.042v-12.5c0-.575.467-1.042 1.042-1.042h16.667c.575 0 1.041.467 1.041 1.042v12.5c0 .575-.466 1.042-1.041 1.042zM4.167 27.083H18.75V16.667H4.167v10.416z"/><path d="M14.583 25a1.042 1.042 0 01-1.041-1.042v-4.166a1.042 1.042 0 012.083 0v4.166c0 .575-.467 1.042-1.042 1.042zm-6.25 0a1.042 1.042 0 01-1.041-1.042v-4.166a1.042 1.042 0 012.083 0v4.166c0 .575-.467 1.042-1.042 1.042zm11.459-8.333H3.125a1.042 1.042 0 01-1.042-1.042v-12.5c0-.575.467-1.042 1.042-1.042h16.667c.575 0 1.041.467 1.041 1.042v12.5c0 .575-.466 1.042-1.041 1.042zM4.167 14.583H18.75V4.167H4.167v10.416z"/><path d="M8.333 12.5a1.042 1.042 0 01-1.041-1.042V7.292a1.042 1.042 0 012.083 0v4.166c0 .575-.467 1.042-1.042 1.042z"/><path d="M19.792 16.667H3.125a1.042 1.042 0 01-1.042-1.042v-12.5c0-.575.467-1.042 1.042-1.042h16.667c.575 0 1.041.467 1.041 1.042v12.5c0 .575-.466 1.042-1.041 1.042zM4.167 14.583H18.75V4.167H4.167v10.416z"/><path d="M14.583 12.5a1.042 1.042 0 01-1.041-1.042V7.292a1.042 1.042 0 012.083 0v4.166c0 .575-.467 1.042-1.042 1.042zm-6.25 0a1.042 1.042 0 01-1.041-1.042V7.292a1.042 1.042 0 012.083 0v4.166c0 .575-.467 1.042-1.042 1.042zm28.125 16.667H19.792a1.042 1.042 0 01-1.042-1.042v-12.5c0-.575.467-1.042 1.042-1.042h16.666c.575 0 1.042.467 1.042 1.042v12.5c0 .575-.467 1.042-1.042 1.042zm-15.625-2.084h14.584V16.667H20.833v10.416z"/><path d="M31.25 25a1.042 1.042 0 01-1.042-1.042v-4.166a1.042 1.042 0 012.084 0v4.166c0 .575-.467 1.042-1.042 1.042zM25 25a1.042 1.042 0 01-1.042-1.042v-4.166a1.042 1.042 0 012.084 0v4.166c0 .575-.467 1.042-1.042 1.042zm19.792 12.5a1.042 1.042 0 01-1.042-1.042V26.042a1.042 1.042 0 012.083 0v10.416c0 .575-.466 1.042-1.041 1.042z"/></g><defs><clipPath id="vclip0_6_107"><path fill="#fff" d="M0 0h50v50H0z"/></clipPath></defs></svg><svg fill="none" viewBox="0 0 12 13" id="star" xmlns="http://www.w3.org/2000/svg"><path d="M11.968 4.309a.6.6 0 00-.52-.406l-3.421-.272L6.547.355A.599.599 0 005.453.354l-1.48 3.277-3.42.272A.6.6 0 00.18 4.931l2.53 2.464-.894 3.871a.6.6 0 00.918.634L6 9.723 9.267 11.9a.602.602 0 00.91-.663L9.08 7.397l2.722-2.45a.601.601 0 00.166-.638z" fill="#FFC444"/></svg><svg fill="none" viewBox="0 0 50 44" id="storage" xmlns="http://www.w3.org/2000/svg"><path d="M49.344 12.584L25.519.862a1.175 1.175 0 00-1.038 0L.656 12.584A1.175 1.175 0 000 13.638v27.365a2.259 2.259 0 002.256 2.256h45.488A2.259 2.259 0 0050 41.003V13.638c0-.448-.255-.857-.656-1.054zm-9.985 15.602H10.641v-4.038h28.718v4.038zm-28.718 2.35h28.718v4.038H10.641v-4.038zm28.718-8.739H10.641v-4.19h28.718v4.19zM10.641 36.925h28.718v3.983H10.641v-3.983zm37.008 3.983h-5.94V16.431c0-.649-.525-1.175-1.174-1.175H9.465c-.649 0-1.175.526-1.175 1.175v24.477H2.35V14.37L25 3.226 47.65 14.37v26.538z" fill="#F73425"/></svg><svg viewBox="0 0 40 40" id="support" xmlns="http://www.w3.org/2000/svg"><g clip-path="url(#yclip0_22_25)"><path d="M25.894 8.574c1.002 0 2.013.63 2.013 1.788 0 1.875-2.67 2.488-2.67 3.274v.078h2.264c.216 0 .406.268.406.579 0 .31-.19.596-.406.596h-3.076c-.242 0-.587-.164-.587-.414v-.838c0-1.357 2.721-2.134 2.721-3.231 0-.277-.173-.614-.657-.614-.345 0-.648.173-.648.648 0 .25-.267.492-.708.492-.345 0-.605-.155-.605-.7 0-1.053.968-1.658 1.953-1.658zm4.492 4.985h-2.021c-.25 0-.45-.164-.45-.467 0-.069.018-.164.07-.259L29.98 8.92a.607.607 0 01.562-.346c.233 0 .674.199.674.51a.421.421 0 01-.044.164l-1.528 3.067h.742v-.605c0-.285.337-.406.674-.406s.674.12.674.406v.604h.371c.277 0 .415.312.415.623 0 .31-.207.622-.415.622h-.371v.915c0 .277-.337.415-.674.415s-.674-.138-.674-.415v-.915zm5.317-.879a.781.781 0 01-.78-.78 6.75 6.75 0 00-6.744-6.744.781.781 0 110-1.562c4.58 0 8.305 3.725 8.305 8.305a.78.78 0 01-.78.781z"/><path d="M28.18 23.72c-1.918 0-3.811-.467-5.497-1.353l-3.022.927a.782.782 0 01-1-.87l.466-2.922a11.801 11.801 0 01-2.769-7.603C16.358 5.381 21.661.08 28.18.08S40 5.38 40 11.898s-5.303 11.821-11.82 11.821zm-5.413-2.977c.133 0 .266.034.384.1a10.26 10.26 0 005.028 1.315c5.657 0 10.259-4.602 10.259-10.259 0-5.656-4.602-10.258-10.259-10.258S17.92 6.242 17.92 11.899c0 2.53.93 4.962 2.617 6.844a.781.781 0 01.19.645l-.326 2.045 2.137-.656a.786.786 0 01.23-.035zm-11.544 8.873a.787.787 0 01-.735-.517.787.787 0 01.23-.86.789.789 0 01.916-.067.79.79 0 01.355.816.79.79 0 01-.767.628z"/><path d="M32.297 31.183l-4.738-4.738a3.434 3.434 0 00-4.851 0l-2.617 2.617a.252.252 0 01-.338.021c-1.066-.857-2.768-2.43-4.55-4.207-1.777-1.783-3.35-3.485-4.208-4.551a.252.252 0 01.02-.338l2.618-2.617a3.435 3.435 0 000-4.851L8.895 7.78a3.435 3.435 0 00-4.851 0l-2.311 2.311c-2.03 2.03-2.278 4.928-.737 8.614.238.567.75 1.355 1.568 2.408a.732.732 0 00.04.047l1.611 1.77.026.027 3.954 3.955a.781.781 0 001.106-1.105l-3.942-3.942-1.58-1.734c-.884-1.142-1.218-1.734-1.341-2.03-1.291-3.086-1.16-5.345.4-6.905l.84-.84 7.379 7.38-1.146 1.145a1.812 1.812 0 00-.134 2.422c.89 1.107 2.506 2.855 4.322 4.677 1.82 1.814 3.568 3.429 4.674 4.32a1.813 1.813 0 002.422-.134l1.146-1.146 7.38 7.38-.84.839c-1.56 1.56-3.819 1.69-6.906.4-.31-.13-1.086-.556-2.796-1.953l-4.91-4.91a.782.782 0 00-1.104 1.105l4.937 4.938a.794.794 0 00.058.052c1.457 1.192 2.508 1.915 3.212 2.21 1.59.664 3.031.996 4.321.996 1.702 0 3.138-.578 4.293-1.733l2.31-2.311a3.434 3.434 0 000-4.851zM7.79 8.886l4.738 4.738a1.87 1.87 0 010 2.641l-.366.367-7.38-7.38.367-.366a1.87 1.87 0 012.641 0zM31.192 34.93l-.366.367-7.38-7.38.367-.366a1.87 1.87 0 012.641 0l4.738 4.738a1.87 1.87 0 010 2.641z"/></g><defs><clipPath id="yclip0_22_25"><path d="M0 0h40v40H0z"/></clipPath></defs></svg><svg fill="none" viewBox="0 0 20 12" id="up-arrow" xmlns="http://www.w3.org/2000/svg"><path d="M18.212 12L20 10.18 10 0 0 10.18 1.788 12 10 3.64 18.212 12z" fill="#F73425"/></svg></svg>