<svg width="30" height="30" fill="none" xmlns="http://www.w3.org/2000/svg"><g clip-path="url(#clip0_310_2)" fill="#fff"><path d="M9.14 21.68a.586.586 0 10.001 1.172.586.586 0 000-1.172z"/><path d="M26.375 11.133l3.453-3.453a.586.586 0 00-.241-.974L21.179 4.11A5.847 5.847 0 0015.586 0a5.861 5.861 0 00-5.436 3.67L.411 6.706a.586.586 0 00-.24.974l3.544 3.544-2.235 3.725a.586.586 0 00.317.857l3.242 1.08V25.9c0 .244.151.462.38.548l9.386 3.52a.584.584 0 00.375.005l.005-.002 10.547-3.515c.24-.08.4-.304.4-.556v-9.254l3.458-1.086a.586.586 0 00.238-.973l-3.453-3.453zm-4.93-5.273c0-.15-.006-.298-.017-.446l6.884 2.125-2.924 2.924-4.777-1.593a5.873 5.873 0 00.834-3.01zM11.152 4.334a4.689 4.689 0 014.434-3.162 4.678 4.678 0 014.687 4.688 4.63 4.63 0 01-1.044 2.95 4.67 4.67 0 01-3.643 1.737 4.692 4.692 0 01-4.434-6.213zM1.685 7.537L9.79 5.01a5.824 5.824 0 00.587 3.531L4.61 10.463 1.685 7.537zm1.176 7.388l1.853-3.088 9.408 3.136-1.853 3.088-9.408-3.136zM14.414 28.57l-8.203-3.076v-8.216c6.454 2.14 6.139 2.075 6.319 2.075a.586.586 0 00.502-.285l1.382-2.303V28.57zM15 14.03l-8.694-2.898 4.734-1.578a5.863 5.863 0 004.546 2.164 5.834 5.834 0 004.283-1.86l3.825 1.274L15 14.031zm9.96 11.445L15.586 28.6V16.32l2.077 2.596a.586.586 0 00.633.193l6.665-2.094v8.462zm-6.632-7.606l-2.346-2.931 9.407-3.136 2.927 2.928-9.988 3.139z"/><path d="M12.862 22.98l-1.303-.488a.586.586 0 00-.412 1.097l1.303.489a.586.586 0 00.412-1.098zm0 2.503l-3.516-1.318a.586.586 0 00-.411 1.097l3.515 1.319a.585.585 0 10.412-1.098zM18.93 3.687a.586.586 0 00-.829 0L15 6.79l-.758-.758a.586.586 0 00-.828.829l1.172 1.172c.228.228.6.228.828 0l3.516-3.516a.586.586 0 000-.829z"/></g><defs><clipPath id="clip0_310_2"><path fill="#fff" d="M0 0h30v30H0z"/></clipPath></defs></svg>