<svg version="1.1" id="Capa_1" xmlns="http://www.w3.org/2000/svg" x="0" y="0" width="612.043" height="612.043" xml:space="preserve"><path d="M397.503 306.011L593.08 110.434c25.27-25.269 25.27-66.213 0-91.482-25.269-25.269-66.213-25.269-91.481 0L306.022 214.551 110.445 18.974c-25.269-25.269-66.213-25.269-91.482 0s-25.269 66.213 0 91.482L214.54 306.033 18.963 501.61c-25.269 25.269-25.269 66.213 0 91.481 25.269 25.27 66.213 25.27 91.482 0l195.577-195.576 195.577 195.576c25.269 25.27 66.213 25.27 91.481 0 25.27-25.269 25.27-66.213 0-91.481L397.503 306.011z" id="cross"/></svg>