<svg width="40" height="40" xmlns="http://www.w3.org/2000/svg"><g clip-path="url(#clip0_22_13)"><path d="M37.358 19.342h-.596l-2.938-6.591a3.849 3.849 0 00-3.498-2.279l-3.168-.01v-.898a3.046 3.046 0 00-3.039-3.046H12.547a6.806 6.806 0 00-5.744-3.159C3.053 3.36 0 6.41 0 10.157c0 3.011 1.97 5.572 4.69 6.462v16.012c0 .432.35.782.781.782h2.103a4.525 4.525 0 004.34 3.264 4.525 4.525 0 004.34-3.264h11.078a4.525 4.525 0 004.34 3.264 4.525 4.525 0 004.34-3.264h3.207c.431 0 .781-.35.781-.782V21.985a2.646 2.646 0 00-2.642-2.643zm1.08 2.643v5.659h-11.28v-6.74h10.2c.595 0 1.08.485 1.08 1.08zM27.166 31.85H16.421a4.499 4.499 0 00-1.092-2.644h12.93a4.496 4.496 0 00-1.093 2.644zM6.253 27.644V24.63h19.343v3.014H6.253zm24.068-15.61a2.284 2.284 0 012.076 1.353l2.655 5.955h-7.893v-7.318l3.162.01zM1.562 10.158a5.244 5.244 0 015.241-5.235 5.244 5.244 0 015.241 5.235 5.244 5.244 0 01-5.24 5.235 5.244 5.244 0 01-5.242-5.235zm5.241 6.797c3.752 0 6.804-3.049 6.804-6.797 0-.724-.114-1.422-.325-2.077h10.837c.814 0 1.477.666 1.477 1.484v13.503H6.253v-6.135c.181.015.365.022.55.022zm-.55 12.252H8.5a4.496 4.496 0 00-1.093 2.644H6.253v-2.644zm5.662 5.908A2.957 2.957 0 018.96 32.16a2.957 2.957 0 012.955-2.953 2.957 2.957 0 012.954 2.953 2.957 2.957 0 01-2.954 2.954zm19.758 0a2.957 2.957 0 01-2.955-2.954 2.957 2.957 0 012.955-2.953 2.957 2.957 0 012.954 2.953 2.957 2.957 0 01-2.954 2.954zm6.765-3.264h-2.26a4.499 4.499 0 00-1.091-2.644h3.35v2.644z"/><path d="M8.685 10.938H6.803a.781.781 0 01-.781-.781v-2.39a.781.781 0 111.563 0v1.609h1.1a.781.781 0 110 1.562zm7.225 9.967a.789.789 0 01-.735-.519.788.788 0 01.23-.859.79.79 0 01.917-.067c.274.17.416.5.354.816a.79.79 0 01-.766.629zm-3.532-.001H8.837a.781.781 0 110-1.562h3.54a.781.781 0 010 1.562zm10.634 0h-3.54a.781.781 0 010-1.562h3.54a.781.781 0 010 1.562z"/></g><defs><clipPath id="clip0_22_13"><path d="M0 0h40v40H0z"/></clipPath></defs></svg>