<svg width="50" height="50" xmlns="http://www.w3.org/2000/svg"><path d="M32.818 3.906a.977.977 0 100 1.954.977.977 0 000-1.954zm-15.625 0a.977.977 0 100 1.954.977.977 0 000-1.954z"/><path d="M45.316 48.348l-6.462-6.75a4.888 4.888 0 004.706-4.88V7.742a6.855 6.855 0 00-1.553-4.338 6.85 6.85 0 00-3.953-2.367A54.318 54.318 0 0027.506 0h-5.159c-3.36 0-6.86.322-10.401 1.03A6.855 6.855 0 006.45 7.733V36.72c0 2.655 2.13 4.82 4.772 4.88l-6.535 6.745A.976.976 0 005.389 50h6.983c.313 0 .607-.15.79-.404l2.963-4.088h17.848l2.962 4.088a.977.977 0 00.791.404h6.885a.977.977 0 00.705-1.652zM8.404 36.718V7.734c0-2.32 1.65-4.333 3.925-4.788a51.22 51.22 0 0110.018-.992h5.16c3.405 0 6.826.336 10.167.999a4.894 4.894 0 012.824 1.69 4.897 4.897 0 011.109 3.1V36.72a2.933 2.933 0 01-2.93 2.93H11.333a2.933 2.933 0 01-2.93-2.93zm3.47 11.329h-4.18l6.245-6.445h2.603l-4.67 6.445zm5.666-4.492l1.415-1.953h12.188l1.415 1.953H17.54zm20.684 4.492l-4.67-6.445h2.6l6.17 6.445h-4.1z"/><path d="M38.677 7.813H11.334a.977.977 0 00-.977.976V25c0 .54.437.977.977.977h27.343c.54 0 .977-.438.977-.977V8.79a.977.977 0 00-.977-.977zM24.03 24.023H12.31V9.766h11.72v14.257zm13.672 0H25.98V9.766H37.7v14.257zm-8.79-20.117h-7.813a.977.977 0 000 1.953h7.813a.977.977 0 000-1.953zm6.836 25a3.91 3.91 0 00-3.907 3.907 3.91 3.91 0 003.907 3.906 3.91 3.91 0 003.906-3.907 3.91 3.91 0 00-3.906-3.906zm0 5.86a1.955 1.955 0 01-1.954-1.953c0-1.078.877-1.954 1.954-1.954s1.953.876 1.953 1.953a1.955 1.955 0 01-1.953 1.954zm-21.485-5.86a3.91 3.91 0 00-3.906 3.907 3.91 3.91 0 003.906 3.906 3.91 3.91 0 003.906-3.907 3.91 3.91 0 00-3.906-3.906zm0 5.86a1.955 1.955 0 01-1.953-1.953c0-1.078.876-1.954 1.953-1.954s1.953.876 1.953 1.953a1.955 1.955 0 01-1.953 1.954zm14.649-4.883h-7.813a.977.977 0 000 1.953h7.813a.977.977 0 000-1.953zm0 3.907h-7.813a.977.977 0 000 1.952h7.813a.977.977 0 000-1.953z"/></svg>