<svg width="50" height="50" xmlns="http://www.w3.org/2000/svg"><path d="M21.694 34.886a1.755 1.755 0 002.123 1.297l24.398-5.894a1.762 1.762 0 001.297-2.123l-4.47-18.507a1.754 1.754 0 00-2.124-1.297L18.52 14.255c-.456.11-.843.392-1.088.793a1.75 1.75 0 00-.209 1.33l4.47 18.508zm11.599-21.801l2.59 10.718-4.342 1.049-2.59-10.718 4.342-1.05zm-6.608 1.596l2.863 11.851a1.166 1.166 0 001.407.86l6.608-1.596a1.166 1.166 0 00.859-1.407l-2.863-11.852 7.35-1.776 4.203 17.396-23.286 5.625-4.203-17.395 7.062-1.706z"/><path d="M49.967 35.246a1.166 1.166 0 00-1.407-.86l-23.736 5.735a6.363 6.363 0 00-6.174-3.77L10.298 1.773A1.165 1.165 0 008.89.915L.892 2.847a1.166 1.166 0 10.548 2.266l6.866-1.658 8.078 33.442a6.34 6.34 0 00-2.843 2.502 6.346 6.346 0 00-.758 4.83 6.368 6.368 0 006.205 4.889c.504 0 1.01-.06 1.504-.18 3.037-.733 5.04-3.537 4.877-6.55l23.739-5.735a1.166 1.166 0 00.86-1.407zM19.944 46.672a4.043 4.043 0 01-4.896-2.99 4.03 4.03 0 01.482-3.068 4.03 4.03 0 012.51-1.828 4.043 4.043 0 014.896 2.99 4.061 4.061 0 01-2.992 4.896z"/></svg>