<svg width="50" height="50" xmlns="http://www.w3.org/2000/svg"><g clip-path="url(#clip0_8_405)"><path d="M38.481 47.612a1.038 1.038 0 01-1.006-1.306l3.93-14.948L25 25.123 8.598 31.358l3.93 14.948a1.039 1.039 0 01-.743 1.271 1.035 1.035 0 01-1.27-.742L6.348 30.981a1.04 1.04 0 01.637-1.237l17.646-6.709c.238-.091.502-.091.74 0l17.646 6.709c.498.19.773.723.637 1.237l-4.167 15.854a1.041 1.041 0 01-1.006.777z"/><path d="M48.958 50c-3.093 0-5.94-1.494-7.608-3.998-.167-.25-.587-.248-.754 0C38.925 48.506 36.08 50 32.986 50c-3.096 0-5.94-1.494-7.611-3.998-.165-.248-.587-.248-.752 0C22.954 48.506 20.108 50 17.015 50c-3.094 0-5.94-1.494-7.609-3.998-.166-.248-.585-.25-.754 0C6.982 48.506 4.135 50 1.042 50a1.042 1.042 0 010-2.084c2.396 0 4.593-1.147 5.875-3.07.916-1.375 3.304-1.373 4.22 0 1.284 1.923 3.48 3.07 5.878 3.07s4.593-1.147 5.877-3.07c.914-1.373 3.304-1.373 4.218 0 1.282 1.923 3.48 3.07 5.875 3.07 2.396 0 4.594-1.147 5.875-3.07.915-1.373 3.305-1.375 4.221 0 1.284 1.923 3.481 3.07 5.877 3.07a1.042 1.042 0 010 2.084zm-37.5-19.813a1.042 1.042 0 01-1.041-1.041V17.708a1.04 1.04 0 011.041-1.041H25c.575 0 1.042.466 1.042 1.041V24a1.042 1.042 0 01-2.084 0v-5.25H12.5v10.396a1.04 1.04 0 01-1.042 1.041z"/><path d="M38.542 30.187a1.042 1.042 0 01-1.042-1.041V18.75H26.042V24a1.042 1.042 0 01-2.084 0v-6.292c0-.575.467-1.041 1.042-1.041h13.542a1.04 1.04 0 011.041 1.041v11.438a1.04 1.04 0 01-1.041 1.041z"/><path d="M32.292 18.75a1.042 1.042 0 01-1.042-1.042V8.333h-12.5v9.375a1.042 1.042 0 01-2.083 0V7.292c0-.575.466-1.042 1.041-1.042h14.584c.575 0 1.041.467 1.041 1.042v10.416c0 .575-.466 1.042-1.041 1.042z"/><path d="M25 8.333a1.042 1.042 0 01-1.042-1.041v-6.25a1.042 1.042 0 012.084 0v6.25c0 .575-.467 1.041-1.042 1.041z"/></g><defs><clipPath id="clip0_8_405"><path d="M0 0h50v50H0z"/></clipPath></defs></svg>