<svg width="50" height="50" xmlns="http://www.w3.org/2000/svg"><g clip-path="url(#clip0_8_575)"><path d="M49.863 19.342L45.26 10.67a1.17 1.17 0 00-.724-.58l-.005-.001L25.353 4.91a1.175 1.175 0 00-.609 0L5.471 10.087l-.006.002a1.169 1.169 0 00-.725.58L.137 19.342A1.171 1.171 0 00.67 20.95l4.005 1.893v11.848c0 .45.257.86.662 1.055l19.201 9.267a1.17 1.17 0 001.01.001c.003 0 .006 0 .008-.002l19.201-9.267a1.17 1.17 0 00.663-1.054V22.844l-.003-.045 3.912-1.849a1.172 1.172 0 00.533-1.608zM25.047 7.255l15.335 4.139L25 17.094 9.625 11.398l15.422-4.142zM6.328 12.673l17.097 6.336-3.765 8.327-16.88-7.98 3.548-6.683zm.69 21.283V23.95l12.717 6.011a1.172 1.172 0 001.568-.576l2.574-5.692v18.399l-16.86-8.137zm36.06 0L26.22 42.092V23.908l2.478 5.48a1.171 1.171 0 001.568.575l12.813-6.057v10.05zm-12.738-6.62l-3.765-8.327 17.097-6.337 3.547 6.685-16.879 7.979z"/></g><defs><clipPath id="clip0_8_575"><path d="M0 0h50v50H0z"/></clipPath></defs></svg>