<svg width="50" height="50" xmlns="http://www.w3.org/2000/svg"><g clip-path="url(#clip0_18_110)"><path d="M0 9.339c0-.15.08-.29.21-.365l8.923-5.151a.422.422 0 01.421 0l33.667 19.41a.42.42 0 01.211.364v2.77l5.367 3.06a.421.421 0 01.207.297l.973 5.862a.42.42 0 01.021.128v4.948c0 .15-.08.29-.21.365l-8.922 5.15a.421.421 0 01-.422 0l-3.908-2.22c-.072.536-.321.98-.743 1.223-.218.126-.46.186-.711.186-.8 0-1.703-.607-2.288-1.62-.349-.604-.528-1.265-.506-1.86.005-.123.02-.24.042-.351l-7.166-4.137c-.084.505-.33.92-.735 1.153-.218.126-.46.186-.71.186-.801 0-1.704-.607-2.288-1.619a3.808 3.808 0 01-.466-1.28 1.4 1.4 0 01-.49.485 1.41 1.41 0 01-.712.186c-.8 0-1.703-.607-2.287-1.62-.35-.603-.529-1.264-.507-1.86.005-.118.02-.23.04-.338l-.462-.266a.422.422 0 01-.21-.366v-2.758l-2.6-1.5-2.43 1.396a.421.421 0 01-.423-.002l-.807-.473c-.086.519-.339.922-.732 1.149a1.406 1.406 0 01-.712.187 2 2 0 01-.928-.252c-.527-.278-1.01-.764-1.359-1.369a3.815 3.815 0 01-.467-1.275 1.4 1.4 0 01-.489.48 1.406 1.406 0 01-.711.188 2 2 0 01-.93-.252c-.526-.278-1.009-.764-1.358-1.369-.437-.758-.588-1.556-.468-2.2l-.46-.265a.422.422 0 01-.21-.365v-2.774L.21 20.003a.422.422 0 01-.21-.365v-10.3zm9.344-4.665L1.265 9.34 34.09 28.26l8.078-4.663L9.344 4.674zm33.245 19.654l-8.078 4.663v2.045l8.078-4.665v-2.043zm.425 2.772l-8.075 4.662 4.729 2.695 8.075-4.662-4.73-2.695zm.302 16.69l3.603-2.08v-1.576l-3.603 2.08v1.577zm-.632-2.184l4.446-2.567a.422.422 0 01.633.365v.017l1.394-.838v-2.14l-8.078 4.665v2.227l1.394-.839v-.525c0-.15.08-.29.21-.365zm-2.39-5.424l8.149-4.705-.168-1.015-8.143 4.7.162 1.02zm.143.891l.501 3.142 8.172-4.718-.52-3.131-8.153 4.707zm-1.152-1.864l-1.14-.65v4.371l1.91 1.103-.77-4.824zm9.872 4.358l-1.394.838v.818l1.394-.804v-.852zm-6.684 4.71v-.797l-1.394.839v.763l1.394-.805zm-6.42-2.41c.209.36.35.73.43 1.09l3.752 2.13V41.11l-2.722-1.571a.421.421 0 01-.211-.366V34.08l-2.79-1.59v7.92c.06.027.121.055.183.088.527.278 1.01.764 1.358 1.368zm-2.526 1.458c.559.968 1.422 1.37 1.846 1.125.425-.246.509-1.194-.05-2.162-.267-.462-.64-.843-1.022-1.044-.188-.1-.545-.242-.825-.08-.28.16-.335.542-.343.754-.016.432.127.945.394 1.407zm-.473-2.892a1.41 1.41 0 01.614-.183v-.96l-4.48-2.582v2.038l3.488 2.014a1.41 1.41 0 01.378-.327zm-10.89-3.737c.558.968 1.421 1.37 1.846 1.125.425-.245.508-1.194-.05-2.162-.267-.462-.64-.842-1.022-1.044a1.211 1.211 0 00-.535-.154c-.1 0-.199.02-.29.074-.28.161-.335.542-.343.754-.017.433.126.946.393 1.407zm-3.956-2.228c.56.968 1.422 1.37 1.847 1.125.425-.246.509-1.194-.05-2.162-.267-.462-.64-.842-1.022-1.044a1.211 1.211 0 00-.535-.154c-.1 0-.199.02-.29.073-.28.162-.335.543-.344.755-.016.433.127.945.394 1.407zm-1.026-2.652l.168.097a1.37 1.37 0 01.386-.337c.467-.27 1.05-.247 1.64.065.527.278 1.01.764 1.359 1.368.212.367.354.744.434 1.108l.105.06c.114-.15.252-.278.417-.373.467-.27 1.05-.247 1.64.065.527.278 1.01.764 1.358 1.368.225.389.371.787.448 1.17l3.207 1.852V36.22l-11.162-6.435v2.03zm-4.287-4.5l-1.374-.793v1.586l1.374-.794zm-5.816.7c.266.462.639.842 1.021 1.044.188.1.546.242.825.08.28-.161.336-.542.344-.754.016-.433-.127-.945-.394-1.407-.56-.968-1.422-1.37-1.847-1.125-.425.245-.508 1.194.05 2.162zm-3.955-2.228c.266.462.639.842 1.021 1.044.188.1.546.242.826.08.28-.161.335-.542.343-.754.016-.433-.127-.946-.394-1.407-.56-.969-1.422-1.37-1.847-1.125-.425.245-.508 1.194.05 2.162zm-1.027-2.653l.168.097c.107-.134.235-.249.386-.336.914-.527 2.23.102 3 1.433.206.358.351.735.432 1.107l.106.061a1.38 1.38 0 01.417-.373c.914-.527 2.23.103 2.999 1.433.219.379.37.78.448 1.173l.624.365v-2.058l-8.58-4.946v2.044zm31.571 15.182v-9.326L.843 10.07v9.325l32.825 18.923z"/></g><defs><clipPath id="clip0_18_110"><path transform="matrix(-1 0 0 1 50 0)" d="M0 0h50v50H0z"/></clipPath></defs></svg>