<svg width="50" height="50" xmlns="http://www.w3.org/2000/svg"><path d="M.023 37.307a.43.43 0 01.235-.255l19.762-8.646-1.938-1.118a18.368 18.368 0 01-4.957-4.177l-8.818.232h-.011a.43.43 0 01-.231-.067l-1.701-1.083a.43.43 0 01.14-.784l8.284-1.78-1.402-2.369a1.927 1.927 0 01-.19-1.563c.123-.4.368-.748.694-.997L7.296 7.993a.43.43 0 01.61-.531l4.87 2.705c.054.03.1.07.137.12l4.076 5.488 2.255-3.382a.43.43 0 01.587-.126l1.47.928a.43.43 0 01.198.407l-.527 5.236c2.303 1.326 5.085 2.93 7.958 4.587l10.022-8.874a.43.43 0 01.446-.078 2.554 2.554 0 011.454 3.274l-1.865 5.045 3.015 2.004c.38.231.61.67.63 1.213.018.489-.128 1.03-.413 1.522-.285.493-.68.89-1.112 1.119a1.68 1.68 0 01-.78.207c-.219 0-.427-.052-.61-.158l-2.318-1.61-.376 1.017c3.134 1.817 5.888 3.422 7.644 4.462 1.948 1.152 3.487 2.796 4.453 4.755.332.67.598 1.378.792 2.1a2.487 2.487 0 01-.672 2.451 2.482 2.482 0 01-2.463.614 42.154 42.154 0 01-4.696-1.688 42.143 42.143 0 01-4.464-2.234l-7.855-4.536-6.947 1.317 1.35.876c.382.23.614.671.634 1.216.019.488-.128 1.029-.412 1.522-.48.83-1.226 1.327-1.894 1.327-.214 0-.421-.052-.608-.16l-5.207-3.618-13.583 2.576a2.855 2.855 0 01-3.041-1.433.428.428 0 01-.031-.346zM3.71 22.03l.705.449 10.64-.28c-.732-.564-1.986-1.315-3.167-1.926L3.71 22.031zm8.566-11.155L8.527 8.79l2.683 6.936 7.688 4.063-6.62-8.915zm7.45 2.344l-2.193 3.29.454.611 2.166 1.247.462-4.586-.889-.562zm20.367 14.695l.064.044c.132.07.33.045.547-.07.287-.15.567-.438.768-.787.202-.35.31-.735.299-1.06-.01-.25-.091-.439-.223-.515a.36.36 0 00-.181-.044c-.11 0-.24.037-.377.11-.286.15-.566.438-.768.787-.375.65-.373 1.313-.13 1.535zm-1.023-.711c.032-.402.165-.836.407-1.254.274-.475.65-.86 1.064-1.091l-1.861-1.237-.974 2.634 1.364.948zm.974-9.754a1.696 1.696 0 00-.736-2.064l-9.593 8.494a4630.67 4630.67 0 016.551 3.789l3.778-10.22zm8.419 23.959c.06-.046.12-.095.175-.15a1.636 1.636 0 00.442-1.608.85.85 0 00-.478-.15c-.494 0-.895.43-.895.96 0 .476.33.875.756.948zM38.047 37.82a41.257 41.257 0 008.972 3.842c.108.032.217.052.325.062a1.851 1.851 0 01-.497-1.264c0-1.004.788-1.82 1.756-1.82.052 0 .103.002.155.006-.122-.32-.258-.636-.41-.943-.024-.05-.051-.099-.077-.149-.467.558-1.376.839-2.711.839-.34 0-.71-.018-1.105-.055a.43.43 0 11.08-.857c2.139.199 2.84-.208 3.067-.468a.525.525 0 00.14-.37 10.668 10.668 0 00-3.513-3.335c-4.982-2.948-17.996-10.45-24.953-14.454L20.72 20.8a.43.43 0 01-.547.637l-9.508-5.024a.429.429 0 01-.2-.226l-.24-.62a1.127 1.127 0 00-.207.382c-.09.293-.051.603.108.873l1.548 2.617.184-.04a.431.431 0 01.286.038c.627.32 3.784 1.97 4.286 2.974a.43.43 0 01-.373.622l-1.821.048a17.507 17.507 0 004.275 3.461L21 27.977l.286-.125a.43.43 0 01.302-.016c.275.087 6.786 2.155 9.765 5.212a.43.43 0 01-.228.723l-.067.013 6.99 4.036zm-15.784 1.525l.06.042c.297.16.92-.167 1.318-.856.202-.35.31-.736.298-1.06-.01-.251-.09-.44-.223-.515a.362.362 0 00-.182-.045c-.326 0-.813.324-1.144.898-.376.65-.372 1.315-.128 1.536zm-1.024-.712c.03-.402.164-.836.406-1.255.281-.487.654-.859 1.05-1.083l-1.112-.715-3.72.706 3.376 2.347zm-18.305-.392l27.194-5.157c-2.774-2.364-7.72-4.07-8.648-4.378L1.087 37.63c.46.502 1.154.743 1.847.612z"/><defs><clipPath id="clip0_18_93"><path transform="matrix(-1 0 0 1 50 0)" d="M0 0h50v50H0z"/></clipPath></defs></svg>