<svg width="40" height="40" xmlns="http://www.w3.org/2000/svg"><g clip-path="url(#clip0_22_19)"><path d="M36.494 40H25.125a.781.781 0 010-1.562h11.37a1.945 1.945 0 001.943-1.944 1.945 1.945 0 00-1.944-1.943H23.028a4.201 4.201 0 01-4.197-4.196 4.201 4.201 0 014.197-4.197h9.649a2.698 2.698 0 002.695-2.695 2.698 2.698 0 00-2.695-2.695H22.036a.781.781 0 010-1.563h10.64a4.263 4.263 0 014.258 4.258 4.263 4.263 0 01-4.257 4.258h-9.649a2.637 2.637 0 00-2.634 2.634 2.637 2.637 0 002.634 2.634h13.466A3.51 3.51 0 0140 36.495 3.51 3.51 0 0136.494 40zm-18.435-1.563h-7.325a23.014 23.014 0 001.98-1.836c2.62-2.742 4.006-5.697 4.006-8.546 0-4.61-3.75-8.36-8.36-8.36-4.61 0-8.36 3.75-8.36 8.36 0 2.812 1.385 5.755 4.004 8.511 1.897 1.997 3.774 3.209 3.93 3.308a.778.778 0 00.36.123h.01l.01.001.01.001h9.735a.781.781 0 000-1.562zM1.562 28.055a6.805 6.805 0 016.798-6.797 6.805 6.805 0 016.798 6.797c0 5.105-5.26 9.15-6.795 10.22-1.534-1.086-6.8-5.183-6.8-10.22z"/><path d="M8.36 31.88a3.93 3.93 0 01-3.926-3.925 3.93 3.93 0 013.926-3.926 3.93 3.93 0 013.926 3.926A3.93 3.93 0 018.36 31.88zm0-6.289a2.366 2.366 0 00-2.363 2.364 2.366 2.366 0 002.363 2.363 2.366 2.366 0 002.363-2.363A2.366 2.366 0 008.36 25.59zM37.755 0H23.867a2.247 2.247 0 00-2.244 2.245v12.334a2.247 2.247 0 002.244 2.244h13.888A2.247 2.247 0 0040 14.58V2.245A2.247 2.247 0 0037.755 0zm-4.978 1.563V6.99l-1.6-.85a.783.783 0 00-.732 0l-1.6.85V1.563h3.932zm5.66 13.016a.683.683 0 01-.682.682H23.867a.683.683 0 01-.682-.682V2.245c0-.376.306-.683.682-.683h3.416V8.29a.782.782 0 001.147.69l2.381-1.264 2.381 1.264a.78.78 0 001.148-.69V1.563h3.415c.377 0 .683.306.683.682v12.334zM21.577 40a.79.79 0 01-.738-.528.788.788 0 01.249-.861.79.79 0 01.88-.068c.285.164.439.5.376.822a.79.79 0 01-.767.635z"/></g><defs><clipPath id="clip0_22_19"><path d="M0 0h40v40H0z"/></clipPath></defs></svg>