<svg width="60" height="60" fill="none" xmlns="http://www.w3.org/2000/svg"><path d="M22.103 4.843l2.74 5.99a8.081 8.081 0 01.57 4.99 8.175 8.175 0 01-2.492 4.382l-4.54 4.16a.742.742 0 00-.236.462c-.134 1.185.683 3.493 2.567 6.703 1.37 2.332 2.613 3.971 3.667 4.888.735.642 1.14.78 1.312.731l6.107-1.836a8.494 8.494 0 015.108.068 8.346 8.346 0 014.113 2.978l3.888 5.302a8.107 8.107 0 011.542 5.572 8.157 8.157 0 01-2.572 5.192l-2.691 2.508a11.453 11.453 0 01-5.093 2.738c-1.91.465-3.91.437-5.805-.084C21.921 57.291 14.42 50.352 7.7 38.915.97 27.46-1.39 17.595.785 9.316a11.139 11.139 0 012.59-4.718A11.406 11.406 0 017.9 1.604l.626-.206L12.07.35a8.49 8.49 0 015.877.39 8.283 8.283 0 014.155 4.103zm-8.716-.209L9.84 5.688l-.48.161a6.84 6.84 0 00-2.646 1.8 6.682 6.682 0 00-1.516 2.79c-1.832 6.96.261 15.705 6.447 26.236 6.177 10.516 12.827 16.666 19.87 18.601a6.95 6.95 0 003.48.048 6.872 6.872 0 003.054-1.642l2.695-2.508a3.685 3.685 0 00.468-4.894l-3.889-5.3a3.794 3.794 0 00-1.87-1.354 3.86 3.86 0 00-2.322-.031l-6.122 1.842c-3.555 1.039-6.781-1.77-10.245-7.667-2.333-3.972-3.42-7.047-3.15-9.439a5.205 5.205 0 011.659-3.242l4.539-4.16a3.716 3.716 0 001.133-1.992 3.673 3.673 0 00-.259-2.268l-2.74-5.99a3.765 3.765 0 00-1.887-1.864 3.86 3.86 0 00-2.67-.178l-.003-.003zm41.3 22.388H34.775l-.303-.042-.307-.087-.146-.06a2.182 2.182 0 01-1.033-.883l-.146-.284-.076-.2-.073-.284-.033-.313V5.359a2.22 2.22 0 01.62-1.514 2.306 2.306 0 013.088-.207c.447.353.741.86.825 1.417l.02.305v14.018L56.11.798A2.307 2.307 0 0159.077.58l.255.218a2.212 2.212 0 01.222 2.914l-.222.25L40.435 22.54l14.25.003c.55 0 1.083.195 1.499.55.415.356.686.848.76 1.385l.022.304c0 .541-.2 1.064-.562 1.472a2.29 2.29 0 01-1.407.747l-.31.02z" fill="#fff"/></svg>