<svg width="40" height="40" xmlns="http://www.w3.org/2000/svg"><g clip-path="url(#clip0_22_9)"><path d="M36.585 1.328h-19.45a2.294 2.294 0 00-2.291 2.292v3.122c0 .431.35.781.781.781h.044v13.74a2.294 2.294 0 002.291 2.293h17.8a2.294 2.294 0 002.292-2.292V7.524h.044c.431 0 .781-.35.781-.782V3.62a2.294 2.294 0 00-2.292-2.292zM16.406 3.62a.73.73 0 01.73-.73h19.45a.73.73 0 01.729.73v2.34H16.406V3.62zm7.834 3.903h5.24v7.217l-2.253-1.197a.781.781 0 00-.733 0L24.24 14.74V7.523zm12.25 13.74a.73.73 0 01-.73.73h-17.8a.73.73 0 01-.729-.73V7.524h5.447v8.517a.78.78 0 001.147.69l3.036-1.613 3.035 1.612a.78.78 0 001.147-.69V7.524h5.447v13.74zm3.28 6.589a2.739 2.739 0 00-3.561-1.422l-5.404 2.282a2.677 2.677 0 00-.616-1.142c-.515-.561-1.264-.87-2.108-.87l-.033.001c-3.996.172-8.464.262-9.365.129-1.825-1.57-3.795-2.24-5.71-1.939-1.646.26-3.154 1.217-4.425 2.798a.778.778 0 00-.323-.07H.781A.781.781 0 000 28.4v9.525c0 .431.35.781.781.781h7.444a.78.78 0 00.781-.781v-2.553c.576.348 1.067.718 1.548 1.08 1.315.99 2.558 1.925 4.909 1.925h10.41a6.748 6.748 0 003.72-1.115l9.177-6.04a2.722 2.722 0 001-3.37zM7.444 37.144H1.563V29.18h5.88v7.963zm30.467-7.227l-9.176 6.04a5.193 5.193 0 01-2.862.857h-10.41c-1.83 0-2.727-.676-3.97-1.61-.69-.52-1.46-1.1-2.487-1.617V29.75c1.182-1.923 2.634-3.068 4.21-3.316 1.483-.233 3.06.347 4.559 1.677a.93.93 0 00.015.013c.285.24.49.413 5.574.294 2.263-.053 4.507-.147 4.733-.156.282.002.67.068.942.364.19.208.295.505.306.87a7.664 7.664 0 01-5.192 2.046h-6.368a.781.781 0 100 1.562h6.368c2.367 0 4.68-.938 6.38-2.582l6.284-2.653a1.17 1.17 0 011.522.607 1.164 1.164 0 01-.428 1.44z"/><path d="M14.257 33.105a.787.787 0 01-.735-.518.787.787 0 01.23-.859.79.79 0 01.917-.067c.273.17.417.5.354.816a.79.79 0 01-.766.628z"/></g><defs><clipPath id="clip0_22_9"><path d="M0 0h40v40H0z"/></clipPath></defs></svg>