<svg width="72" height="50" fill="none" xmlns="http://www.w3.org/2000/svg"><path d="M5.151 33.895a17.525 17.525 0 015.304-3.645l9.422-4.07 8.207-21.13 5.593-3.735v18.899l15.799-6.827.011.027L56.185 0h4.202v13.166L72 17.817v5.79l-11.015-2.94.047.068-15.257 10.184 22.868 9.54-5.686 3.796-28.884-5.598A85.54 85.54 0 015.851 49.78c-.725.147-1.466.22-2.203.22A3.654 3.654 0 010 46.348c0-4.704 1.829-9.127 5.151-12.453zM31.355 5.662l-1.374.916-7.11 18.307 8.484-3.666V5.662zm26.71-3.336h-.444L51.097 15.39v.888h2l4.968-2.984V2.325zm11.612 18.253v-1.187L59.33 15.248l-2.96 1.778 13.308 3.553zm-7.215 21.212l1.282-.855L38.418 30.37l-8.511 5.113 32.555 6.308zM3.648 47.674c.584 0 1.173-.058 1.747-.173a83.23 83.23 0 0025.238-9.51l-7.12-1.38 14.714-8.841 4.97 2.073 14.905-9.948-4.835-1.29h-4.493v-2.382L11.388 32.38a15.223 15.223 0 00-4.594 3.16 15.195 15.195 0 00-4.471 10.809c0 .731.594 1.326 1.325 1.326z" fill="#F73425"/><path d="M8.436 37.184a12.878 12.878 0 013.895-2.678l.943 2.124a10.555 10.555 0 00-3.196 2.198 10.583 10.583 0 00-2.862 5.215l-2.268-.499a12.896 12.896 0 013.488-6.36zM46.452 20.93h2.322v2.326h-2.322V20.93zm-5.807 2.326h2.323v2.325h-2.323v-2.325z" fill="#F73425"/></svg>