<svg width="20" height="21" fill="none" xmlns="http://www.w3.org/2000/svg"><path d="M17.863 15.716c-.492-.471-.97-.955-1.435-1.453-.39-.396-.625-.685-.625-.685l-2.938-1.403a7.305 7.305 0 001.825-4.83C14.69 3.295 11.396 0 7.346 0 3.295 0 0 3.296 0 7.345c0 4.05 3.295 7.346 7.345 7.346a7.31 7.31 0 004.83-1.825l1.403 2.938s.289.235.685.625c.406.381.94.896 1.453 1.435l1.425 1.46.633.678L20 17.776l-.678-.633c-.398-.39-.928-.909-1.46-1.427zM7.345 12.592A5.253 5.253 0 012.1 7.345 5.253 5.253 0 017.345 2.1a5.253 5.253 0 015.247 5.246 5.253 5.253 0 01-5.247 5.247z" fill="#fff"/></svg>