<svg width="50" height="50" fill="none" xmlns="http://www.w3.org/2000/svg"><g clip-path="url(#clip0_6_107)" fill="#F73425"><path d="M42.708 50h-37.5c-.348 0-.673-.175-.866-.465l-4.167-6.25a1.046 1.046 0 01-.052-1.07c.181-.336.533-.548.919-.548h28.125a5.214 5.214 0 005.208-5.209c0-.575.467-1.041 1.042-1.041h13.541a1.043 1.043 0 01.932 1.506l-6.25 12.5a1.041 1.041 0 01-.932.577zM5.767 47.917h36.298L47.273 37.5h-10.89c-.506 3.53-3.55 6.25-7.216 6.25H2.987l2.78 4.167z"/><path d="M29.167 43.75h-9.375a1.042 1.042 0 01-1.042-1.042V28.125c0-.575.467-1.042 1.042-1.042h16.666c.575 0 1.042.467 1.042 1.042v8.333a1.042 1.042 0 01-2.083 0v-7.291H20.833v12.5h8.334a1.042 1.042 0 010 2.083z"/><path d="M25 39.583a1.042 1.042 0 01-1.042-1.041v-6.25a1.042 1.042 0 012.084 0v6.25c0 .575-.467 1.041-1.042 1.041z"/><path d="M29.167 43.75h-9.375a1.042 1.042 0 01-1.042-1.042V28.125c0-.575.467-1.042 1.042-1.042h16.666c.575 0 1.042.467 1.042 1.042v8.333a1.042 1.042 0 01-2.083 0v-7.291H20.833v12.5h8.334a1.042 1.042 0 010 2.083z"/><path d="M31.25 39.583a1.042 1.042 0 01-1.042-1.041v-6.25a1.042 1.042 0 012.084 0v6.25c0 .575-.467 1.041-1.042 1.041zm-6.25 0a1.042 1.042 0 01-1.042-1.041v-6.25a1.042 1.042 0 012.084 0v6.25c0 .575-.467 1.041-1.042 1.041zm-5.208 4.167H3.125a1.042 1.042 0 01-1.042-1.042V28.125c0-.575.467-1.042 1.042-1.042h16.667c.575 0 1.041.467 1.041 1.042v14.583c0 .575-.466 1.042-1.041 1.042zM4.167 41.667H18.75v-12.5H4.167v12.5z"/><path d="M8.333 39.583a1.042 1.042 0 01-1.041-1.041v-6.25a1.042 1.042 0 012.083 0v6.25c0 .575-.467 1.041-1.042 1.041z"/><path d="M19.792 43.75H3.125a1.042 1.042 0 01-1.042-1.042V28.125c0-.575.467-1.042 1.042-1.042h16.667c.575 0 1.041.467 1.041 1.042v14.583c0 .575-.466 1.042-1.041 1.042zM4.167 41.667H18.75v-12.5H4.167v12.5z"/><path d="M14.583 39.583a1.042 1.042 0 01-1.041-1.041v-6.25a1.042 1.042 0 012.083 0v6.25c0 .575-.467 1.041-1.042 1.041zm-6.25 0a1.042 1.042 0 01-1.041-1.041v-6.25a1.042 1.042 0 012.083 0v6.25c0 .575-.467 1.041-1.042 1.041zm11.459-10.416H3.125a1.042 1.042 0 01-1.042-1.042v-12.5c0-.575.467-1.042 1.042-1.042h16.667c.575 0 1.041.467 1.041 1.042v12.5c0 .575-.466 1.042-1.041 1.042zM4.167 27.083H18.75V16.667H4.167v10.416z"/><path d="M8.333 25a1.042 1.042 0 01-1.041-1.042v-4.166a1.042 1.042 0 012.083 0v4.166c0 .575-.467 1.042-1.042 1.042z"/><path d="M19.792 29.167H3.125a1.042 1.042 0 01-1.042-1.042v-12.5c0-.575.467-1.042 1.042-1.042h16.667c.575 0 1.041.467 1.041 1.042v12.5c0 .575-.466 1.042-1.041 1.042zM4.167 27.083H18.75V16.667H4.167v10.416z"/><path d="M14.583 25a1.042 1.042 0 01-1.041-1.042v-4.166a1.042 1.042 0 012.083 0v4.166c0 .575-.467 1.042-1.042 1.042zm-6.25 0a1.042 1.042 0 01-1.041-1.042v-4.166a1.042 1.042 0 012.083 0v4.166c0 .575-.467 1.042-1.042 1.042zm11.459-8.333H3.125a1.042 1.042 0 01-1.042-1.042v-12.5c0-.575.467-1.042 1.042-1.042h16.667c.575 0 1.041.467 1.041 1.042v12.5c0 .575-.466 1.042-1.041 1.042zM4.167 14.583H18.75V4.167H4.167v10.416z"/><path d="M8.333 12.5a1.042 1.042 0 01-1.041-1.042V7.292a1.042 1.042 0 012.083 0v4.166c0 .575-.467 1.042-1.042 1.042z"/><path d="M19.792 16.667H3.125a1.042 1.042 0 01-1.042-1.042v-12.5c0-.575.467-1.042 1.042-1.042h16.667c.575 0 1.041.467 1.041 1.042v12.5c0 .575-.466 1.042-1.041 1.042zM4.167 14.583H18.75V4.167H4.167v10.416z"/><path d="M14.583 12.5a1.042 1.042 0 01-1.041-1.042V7.292a1.042 1.042 0 012.083 0v4.166c0 .575-.467 1.042-1.042 1.042zm-6.25 0a1.042 1.042 0 01-1.041-1.042V7.292a1.042 1.042 0 012.083 0v4.166c0 .575-.467 1.042-1.042 1.042zm28.125 16.667H19.792a1.042 1.042 0 01-1.042-1.042v-12.5c0-.575.467-1.042 1.042-1.042h16.666c.575 0 1.042.467 1.042 1.042v12.5c0 .575-.467 1.042-1.042 1.042zm-15.625-2.084h14.584V16.667H20.833v10.416z"/><path d="M31.25 25a1.042 1.042 0 01-1.042-1.042v-4.166a1.042 1.042 0 012.084 0v4.166c0 .575-.467 1.042-1.042 1.042zM25 25a1.042 1.042 0 01-1.042-1.042v-4.166a1.042 1.042 0 012.084 0v4.166c0 .575-.467 1.042-1.042 1.042zm19.792 12.5a1.042 1.042 0 01-1.042-1.042V26.042a1.042 1.042 0 012.083 0v10.416c0 .575-.466 1.042-1.041 1.042z"/></g><defs><clipPath id="clip0_6_107"><path fill="#fff" d="M0 0h50v50H0z"/></clipPath></defs></svg>