<svg width="50" height="44" fill="none" xmlns="http://www.w3.org/2000/svg"><path d="M49.344 12.584L25.519.862a1.175 1.175 0 00-1.038 0L.656 12.584A1.175 1.175 0 000 13.638v27.365a2.259 2.259 0 002.256 2.256h45.488A2.259 2.259 0 0050 41.003V13.638c0-.448-.255-.857-.656-1.054zm-9.985 15.602H10.641v-4.038h28.718v4.038zm-28.718 2.35h28.718v4.038H10.641v-4.038zm28.718-8.739H10.641v-4.19h28.718v4.19zM10.641 36.925h28.718v3.983H10.641v-3.983zm37.008 3.983h-5.94V16.431c0-.649-.525-1.175-1.174-1.175H9.465c-.649 0-1.175.526-1.175 1.175v24.477H2.35V14.37L25 3.226 47.65 14.37v26.538z" fill="#F73425"/></svg>