<svg width="40" height="40" xmlns="http://www.w3.org/2000/svg"><g clip-path="url(#clip0_22_25)"><path d="M25.894 8.574c1.002 0 2.013.63 2.013 1.788 0 1.875-2.67 2.488-2.67 3.274v.078h2.264c.216 0 .406.268.406.579 0 .31-.19.596-.406.596h-3.076c-.242 0-.587-.164-.587-.414v-.838c0-1.357 2.721-2.134 2.721-3.231 0-.277-.173-.614-.657-.614-.345 0-.648.173-.648.648 0 .25-.267.492-.708.492-.345 0-.605-.155-.605-.7 0-1.053.968-1.658 1.953-1.658zm4.492 4.985h-2.021c-.25 0-.45-.164-.45-.467 0-.069.018-.164.07-.259L29.98 8.92a.607.607 0 01.562-.346c.233 0 .674.199.674.51a.421.421 0 01-.044.164l-1.528 3.067h.742v-.605c0-.285.337-.406.674-.406s.674.12.674.406v.604h.371c.277 0 .415.312.415.623 0 .31-.207.622-.415.622h-.371v.915c0 .277-.337.415-.674.415s-.674-.138-.674-.415v-.915zm5.317-.879a.781.781 0 01-.78-.78 6.75 6.75 0 00-6.744-6.744.781.781 0 110-1.562c4.58 0 8.305 3.725 8.305 8.305a.78.78 0 01-.78.781z"/><path d="M28.18 23.72c-1.918 0-3.811-.467-5.497-1.353l-3.022.927a.782.782 0 01-1-.87l.466-2.922a11.801 11.801 0 01-2.769-7.603C16.358 5.381 21.661.08 28.18.08S40 5.38 40 11.898s-5.303 11.821-11.82 11.821zm-5.413-2.977c.133 0 .266.034.384.1a10.26 10.26 0 005.028 1.315c5.657 0 10.259-4.602 10.259-10.259 0-5.656-4.602-10.258-10.259-10.258S17.92 6.242 17.92 11.899c0 2.53.93 4.962 2.617 6.844a.781.781 0 01.19.645l-.326 2.045 2.137-.656a.786.786 0 01.23-.035zm-11.544 8.873a.787.787 0 01-.735-.517.787.787 0 01.23-.86.789.789 0 01.916-.067.79.79 0 01.355.816.79.79 0 01-.767.628z"/><path d="M32.297 31.183l-4.738-4.738a3.434 3.434 0 00-4.851 0l-2.617 2.617a.252.252 0 01-.338.021c-1.066-.857-2.768-2.43-4.55-4.207-1.777-1.783-3.35-3.485-4.208-4.551a.252.252 0 01.02-.338l2.618-2.617a3.435 3.435 0 000-4.851L8.895 7.78a3.435 3.435 0 00-4.851 0l-2.311 2.311c-2.03 2.03-2.278 4.928-.737 8.614.238.567.75 1.355 1.568 2.408a.732.732 0 00.04.047l1.611 1.77.026.027 3.954 3.955a.781.781 0 001.106-1.105l-3.942-3.942-1.58-1.734c-.884-1.142-1.218-1.734-1.341-2.03-1.291-3.086-1.16-5.345.4-6.905l.84-.84 7.379 7.38-1.146 1.145a1.812 1.812 0 00-.134 2.422c.89 1.107 2.506 2.855 4.322 4.677 1.82 1.814 3.568 3.429 4.674 4.32a1.813 1.813 0 002.422-.134l1.146-1.146 7.38 7.38-.84.839c-1.56 1.56-3.819 1.69-6.906.4-.31-.13-1.086-.556-2.796-1.953l-4.91-4.91a.782.782 0 00-1.104 1.105l4.937 4.938a.794.794 0 00.058.052c1.457 1.192 2.508 1.915 3.212 2.21 1.59.664 3.031.996 4.321.996 1.702 0 3.138-.578 4.293-1.733l2.31-2.311a3.434 3.434 0 000-4.851zM7.79 8.886l4.738 4.738a1.87 1.87 0 010 2.641l-.366.367-7.38-7.38.367-.366a1.87 1.87 0 012.641 0zM31.192 34.93l-.366.367-7.38-7.38.367-.366a1.87 1.87 0 012.641 0l4.738 4.738a1.87 1.87 0 010 2.641z"/></g><defs><clipPath id="clip0_22_25"><path d="M0 0h40v40H0z"/></clipPath></defs></svg>