<svg width="115" height="92" fill="none" xmlns="http://www.w3.org/2000/svg"><circle cx="77" cy="38" r="30" fill="#D2DFE6"/><circle cx="37" cy="7" r="7" fill="#D2DFE6"/><circle cx="5" cy="83" r="5" fill="#D2DFE6"/><circle cx="111" cy="4" r="4" fill="#D2DFE6"/><g clip-path="url(#a)" fill="#121218"><path d="M73.906 81.449c.583 0 1.055-.472 1.055-1.055V59.431a5.596 5.596 0 00-4.721-5.52V43.24C70.24 30.425 59.814 20 47 20c-12.815 0-23.24 10.425-23.24 23.24v6.727a1.055 1.055 0 102.11 0V43.24c0-11.652 9.478-21.13 21.13-21.13 11.651 0 21.13 9.479 21.13 21.13v10.603h-6.658s-4.901.068-14.045.068c-9.143 0-9.648-.068-9.648-.068H24.626a5.594 5.594 0 00-5.588 5.588v26.981A5.594 5.594 0 0024.627 92h44.747a5.594 5.594 0 005.588-5.588v-1.087a1.055 1.055 0 10-2.11 0v1.087a3.482 3.482 0 01-3.478 3.479H24.626a3.482 3.482 0 01-3.478-3.479v-26.98a3.482 3.482 0 013.478-3.48h44.747a3.482 3.482 0 013.479 3.48v20.962c0 .583.472 1.055 1.054 1.055zM61.472 53.844H32.528h3.378s3.541.067 11.521.067S56.6 53.6 61.472 55.24v-1.397z"/><path d="M32.792 72.922c0 7.833 6.373 14.206 14.206 14.206 7.834 0 14.207-6.373 14.207-14.206 0-7.834-6.373-14.207-14.206-14.207-7.834 0-14.207 6.373-14.207 14.207zm26.304 0c0 6.67-5.427 12.097-12.097 12.097-6.671 0-12.098-5.427-12.098-12.097 0-6.671 5.427-12.098 12.097-12.098 6.671 0 12.098 5.427 12.098 12.098z"/><path d="M46.68 65.058a4.95 4.95 0 00-4.629 4.672 4.97 4.97 0 001.402 3.733l-.939 4.921a2.03 2.03 0 001.995 2.411h4.98a2.03 2.03 0 001.995-2.41l-.938-4.92a4.92 4.92 0 001.409-3.462c0-2.782-2.336-5.13-5.275-4.945zm3.166 4.945c0 .882-.4 1.7-1.097 2.244-.311.243-.46.64-.386 1.029l1.032 5.41h-4.79l1.031-5.41a1.055 1.055 0 00-.386-1.029 2.856 2.856 0 01-1.093-2.403c.077-1.414 1.243-2.592 2.656-2.681a2.845 2.845 0 013.033 2.84z"/></g><defs><clipPath id="a"><path fill="#fff" transform="translate(11 20)" d="M0 0h72v72H0z"/></clipPath></defs></svg>