<svg width="115" height="92" fill="none" xmlns="http://www.w3.org/2000/svg"><circle cx="77" cy="38" r="30" fill="#D2DFE6"/><circle cx="37" cy="7" r="7" fill="#D2DFE6"/><circle cx="5" cy="83" r="5" fill="#D2DFE6"/><circle cx="111" cy="4" r="4" fill="#D2DFE6"/><path d="M76.147 90.054H17.854a4.384 4.384 0 01-4.378-4.378V30.464a4.396 4.396 0 014.39-4.39h5.22a.973.973 0 01.973.972v5.06h4.066v-5.06a.973.973 0 01.973-.973H62.71a.973.973 0 01.973.973v5.06h4.061v-5.06a.973.973 0 01.973-.973h7.43a4.385 4.385 0 014.378 4.379v55.224a4.384 4.384 0 01-4.378 4.378zm-58.28-62.035a2.448 2.448 0 00-2.446 2.445v55.212a2.432 2.432 0 002.432 2.432h58.294a2.432 2.432 0 002.432-2.432V30.453a2.432 2.432 0 00-2.432-2.433H69.69v4.216a1.82 1.82 0 01-1.817 1.818h-4.318a1.82 1.82 0 01-1.818-1.818V28.02H30.071v4.216a1.82 1.82 0 01-1.818 1.818h-4.322a1.82 1.82 0 01-1.818-1.818V28.02h-4.246z" fill="#121218"/><path d="M79.55 42.505H14.446a.973.973 0 01-.973-.973V30.464a4.396 4.396 0 014.392-4.39h5.22a.973.973 0 01.972.972v5.06h4.066v-5.06a.973.973 0 01.973-.973h33.613a.973.973 0 01.973.973v5.06h4.06v-5.06a.973.973 0 01.974-.973h7.43a4.385 4.385 0 014.378 4.379v11.08a.973.973 0 01-.972.973zm-64.132-1.946h63.16V30.453a2.432 2.432 0 00-2.433-2.433h-6.457v4.216a1.82 1.82 0 01-1.818 1.818h-4.317a1.82 1.82 0 01-1.818-1.818V28.02H30.068v4.216a1.82 1.82 0 01-1.817 1.818h-4.322a1.82 1.82 0 01-1.819-1.818V28.02h-4.246a2.448 2.448 0 00-2.446 2.445V40.56z" fill="#121218"/><path d="M28.247 34.053H23.93a1.82 1.82 0 01-1.819-1.818v-8.472a1.82 1.82 0 011.819-1.817h4.317a1.818 1.818 0 011.822 1.817v8.472a1.82 1.82 0 01-1.822 1.818zm-4.19-1.946h4.066v-8.215h-4.066v8.215zm43.817 1.946h-4.317a1.82 1.82 0 01-1.818-1.818v-8.472a1.82 1.82 0 011.818-1.817h4.317a1.82 1.82 0 011.818 1.817v8.472a1.819 1.819 0 01-1.818 1.818zm-4.19-1.946h4.062v-8.215h-4.061v8.215zM55.77 63.4V76h-1.782V64.966h-2.844V63.4h4.626zm13.718 9.504h-2.394V76h-1.746v-3.096h-7.002v-1.26L64.79 63.4h1.944l-6.174 7.956h4.842V68.62h1.692v2.736h2.394v1.548z" fill="#121218"/></svg>