<svg width="30" height="24" fill="none" xmlns="http://www.w3.org/2000/svg"><path d="M20.302 21.69a.406.406 0 01-.14-.787l1.118-.413a.406.406 0 01.282.76l-1.12.414a.41.41 0 01-.14.025zM15 23.643a.405.405 0 01-.406-.405V9.507a.41.41 0 01.261-.383l10.788-4.097a.405.405 0 11.288.758L15.405 9.782v12.875l2.093-.773a.406.406 0 01.28.761l-2.639.973a.412.412 0 01-.14.025zm9.085-3.348a.406.406 0 01-.14-.786l1.437-.53v-8.114a.406.406 0 01.811 0v8.396a.406.406 0 01-.265.38l-1.703.629a.405.405 0 01-.14.025z" fill="#121218"/><path d="M17.998 14.143a.406.406 0 01-.332-.172L14.67 9.739a.405.405 0 01.187-.613l10.787-4.1a.405.405 0 01.478.15l2.997 4.359a.406.406 0 01-.194.608l-10.788 3.973a.4.4 0 01-.14.027zm-2.364-4.445l2.514 3.551 10.007-3.686-2.52-3.666-10 3.801z" fill="#121218"/><path d="M12.004 14.143a.4.4 0 01-.14-.026L1.077 10.144a.406.406 0 01-.194-.608l2.996-4.361a.405.405 0 01.479-.15l10.787 4.101a.405.405 0 01.186.613l-2.996 4.232a.407.407 0 01-.331.172zM1.846 9.563l10.007 3.686 2.513-3.55-9.999-3.802-2.52 3.667z" fill="#121218"/><path d="M15 23.643a.412.412 0 01-.14-.025L4.072 19.643a.406.406 0 01-.265-.381v-8.397a.406.406 0 01.81 0v8.114l9.977 3.677V9.782L4.069 5.781a.405.405 0 01.288-.758l10.788 4.101a.406.406 0 01.261.379v13.734a.405.405 0 01-.405.406z" fill="#121218"/><path d="M25.787 5.81a.4.4 0 01-.16-.033L15 1.204 4.373 5.777a.405.405 0 01-.32-.745L14.838.39a.41.41 0 01.322 0l10.786 4.642a.405.405 0 01-.162.778h.004z" fill="#121218"/></svg>