<svg width="30" height="18" fill="none" xmlns="http://www.w3.org/2000/svg"><path d="M3.75 10.863c.259 0 .469.21.469.469v3.284h.746a2.963 2.963 0 015.887 0h9.773V1.022H4.219v1.475a.469.469 0 01-.938 0V.554c0-.26.21-.47.469-.47h17.344c.259 0 .468.21.468.47v.468h5.369a2.135 2.135 0 012.131 2.132v.68c0 .26-.21.47-.468.47h-.545l.357 4.296A2.13 2.13 0 0130 10.654v3.962c0 .259-.21.469-.469.469h-.949a3.044 3.044 0 01-6.07 0l-.012.002h-.938c0 .26-.21.469-.468.469H10.809a2.963 2.963 0 01-5.802 0H3.75a.469.469 0 01-.469-.469v-3.755c0-.26.21-.47.469-.47zm21.797 6.097a2.11 2.11 0 100-4.219 2.11 2.11 0 000 4.219zm-3.985-2.813h.938a.423.423 0 01.081.017 3.043 3.043 0 015.927-.017h.555v-3.493a1.196 1.196 0 00-1.195-1.194h-6.305v4.687zm0-5.625h5.897l-.351-4.218h-5.546v4.218zm0-5.156h6.563v-.212c0-.66-.535-1.193-1.194-1.194h-5.369v1.406zm-15.677 11.7a2.022 2.022 0 002.023 1.909 2.026 2.026 0 001.992-1.68.422.422 0 01.023-.456 2.022 2.022 0 00-4.038.227z" fill="#54BA79"/><path d="M4.219 3.835h6.562a.469.469 0 110 .937H4.22a.469.469 0 010-.937zm-.938 5.156h10.313a.469.469 0 010 .938H3.28a.469.469 0 010-.938zm.938-2.812h5.156a.469.469 0 010 .937H4.219a.469.469 0 010-.937zM2.344 4.772h-.938a.469.469 0 010-.937h.938a.469.469 0 010 .937zM.938 8.991h.937a.469.469 0 010 .938H.937a.469.469 0 010-.938zM.469 6.179h1.875a.469.469 0 010 .937H.469a.469.469 0 010-.937z" fill="#54BA79"/></svg>