<svg width="50" height="50" fill="none" xmlns="http://www.w3.org/2000/svg"><path d="M28.005 19.53h-5.85c-.373.708-.62 1.243-.69 1.376h7.094c-.16-.473-.345-.93-.554-1.375zm-8.815 3.406c-.561 0-1.05.072-1.812.265l-.2 1.133.127-.033.218-.055a5.35 5.35 0 011.25-.14c.707 0 .98.125.98.457 0 .092-.019.16-.055.326a6.247 6.247 0 00-.616-.038c-1.686 0-2.665.716-2.665 1.937 0 .813.563 1.373 1.379 1.373.688 0 1.215-.194 1.595-.607l-.036.52h1.268l.018-.136.019-.172.036-.255.054-.319.326-1.787c.092-.559.11-.748.11-.995 0-.962-.69-1.474-1.995-1.474zm-.76 4.16c-.344 0-.543-.202-.543-.513 0-.508.435-.765 1.287-.765.109 0 .181.003.345.02-.037.743-.472 1.258-1.089 1.258zm-4.006-5.201l-1.687 3.828-.109-3.828h-2.375l-1.179 6.182h1.377l.907-4.724.254 4.724h1.378l2.085-4.754-.906 4.754h1.522l1.197-6.183h-2.464zm27.686 5.719a.142.142 0 00-.036-.087.209.209 0 00-.09-.02h-.145v.348h.072v-.136h.054l.055.136h.09l-.053-.15c.036-.016.053-.053.053-.091zm-.108.039c-.018.007-.037.007-.037.007h-.055v-.09h.039c.017 0 .053 0 .053.008.02.007.02.021.02.034 0 .015-.003.033-.02.041zm3.292 4.382a.138.138 0 00-.037-.086.21.21 0 00-.091-.02h-.145v.347h.073v-.136h.054l.055.136h.09l-.054-.151c.036-.013.055-.05.055-.09zm-.11.04c-.018.006-.036.006-.036.006h-.055v-.089h.036c.019 0 .055 0 .055.007.019.007.019.022.019.035 0 .016 0 .032-.019.04z" fill="#fff"/><path d="M48.713 8.799H1.287C.575 8.799 0 9.375 0 10.086v29.83c0 .71.575 1.286 1.287 1.286h47.426c.712 0 1.287-.576 1.287-1.287V10.086c0-.71-.575-1.287-1.287-1.287zm-3.202 23.53a.385.385 0 01-.153.154.42.42 0 01-.413 0 .415.415 0 01.002-.721.438.438 0 01.204-.053.43.43 0 01.203.053.422.422 0 01.157.567zM46.439 25c.001 7.087-5.74 12.834-12.828 12.835a12.78 12.78 0 01-8.614-3.318 12.779 12.779 0 01-8.602 3.315C9.312 37.832 3.563 32.084 3.563 25c0-7.056 5.704-12.787 12.75-12.833h.082a12.78 12.78 0 018.603 3.316 12.786 12.786 0 018.607-3.319c7.087-.002 12.834 5.742 12.835 12.83V25z" fill="#fff"/><path d="M26.269 16.809H23.83c-.328.442-.636.913-.915 1.373h4.35a12.99 12.99 0 00-.997-1.373zm2.696 7.315c.31 0 .707.026 1.107.073l.218-1.162c-.4-.055-.998-.1-1.361-.1-1.703 0-2.304.774-2.303 1.7 0 .633.363 1.071 1.178 1.4.616.251.708.326.708.556 0 .311-.271.453-.87.453-.472 0-.888-.062-1.379-.198l-.217 1.16.073.013.272.05c.09.017.235.032.417.044.362.027.633.042.833.042 1.632 0 2.376-.53 2.376-1.677 0-.69-.308-1.093-1.088-1.4-.635-.253-.707-.31-.707-.546 0-.27.253-.408.743-.408zm7.945-1.087c-.074-.018-.129-.027-.129-.03a1.134 1.134 0 00-.164-.012c-.49 0-.852.223-1.323.817l.145-.763h-1.378l-.925 5.028h1.523c.545-3.075.78-3.615 1.504-3.615.055 0 .11.005.182.013l.181.037.546-1.42c-.126-.049-.145-.049-.163-.055zm-4.573 1.234h.78l.218-1.223h-.78l.219-1.154h-1.505l-.708 3.838-.072.398-.091.494c-.02.16-.037.31-.037.451 0 .714.417 1.105 1.197 1.105.345 0 .671-.05 1.088-.164l.2-1.115a1.356 1.356 0 01-.4.048c-.361 0-.526-.111-.526-.372 0-.046 0-.116.019-.208l.398-2.098zm9.628 3.02a.397.397 0 00-.399.391c0 .218.181.394.4.394a.398.398 0 00.399-.394.398.398 0 00-.4-.391zm0 .691a.308.308 0 01-.308-.3c0-.164.145-.297.308-.297a.29.29 0 01.29.297c0 .167-.125.3-.29.3zm-2.538-5.077c-1.813 0-2.991 1.209-2.991 2.989 0 1.276.688 2.319 2.412 2.319 1.558 0 2.719-.743 2.955-2.415.037-.292.037-.312.037-.624 0-1.276-.834-2.269-2.413-2.269zm.744 2.85c-.127.783-.833 1.232-1.16 1.232-.544.01-.87-.449-.87-1.131 0-.808.47-1.724 1.25-1.724.617 0 .834.499.834 1.023 0 .217-.018.416-.054.6zm-14.2.237c.128-.51.183-.87.183-1.243 0-1.114-.798-1.825-2.048-1.825-1.524 0-2.647 1.27-2.647 2.994-.001 1.483.888 2.254 2.592 2.254.526 0 1.033-.067 1.541-.203l.253-1.259a4.017 4.017 0 01-1.577.32c-.87 0-1.324-.297-1.324-.88 0-.046 0-.08.019-.158h3.008zm-1.884-1.917c.454 0 .708.238.708.646v.258l-1.687-.001c.145-.585.49-.903.98-.903zM21.97 30.42c.223.476.482.93.758 1.373h4.553c.277-.441.526-.9.748-1.374H21.97zm1.714 2.692c.406.498.836.974 1.312 1.402l.032-.028h.002c.467-.426.904-.885 1.303-1.374h-2.65z" fill="#fff"/></svg>