<svg width="50" height="50" fill="none" xmlns="http://www.w3.org/2000/svg"><path d="M48.713 8.799H1.287C.575 8.799 0 9.375 0 10.086v29.83c0 .71.575 1.286 1.287 1.286h47.426c.712 0 1.287-.576 1.287-1.287V10.086c0-.71-.575-1.287-1.287-1.287zm-2.516 14.443l-.69.622-.622-.691.69-.622.622.691zm-3.552-.603l-.934-1.037 1.038-.934.934 1.037-1.038.934zm1.059.114l.935 1.037-1.038.934-.934-1.037 1.037-.934zm-1.903-.343l-1.382 1.244-1.244-1.382 1.383-1.245L41.8 22.41zm-.255.976l1.244 1.383-1.382 1.244-1.245-1.383 1.383-1.244zm.983 2.39l1.245 1.383-1.383 1.247-1.245-1.383 1.383-1.247zm1.024.102l1.038-.934.935 1.037-1.038.934-.934-1.037zm1.762-4.692l-.691.623-.623-.692.692-.622.622.691zM7.25 27.307h-.717l-.902-3.31h-.047l-.875 3.31h-.717l-1.075-4.702h.744l.742 3.509h.047l.862-3.51h.591l.922 3.51h.047l.678-3.51h.776L7.25 27.308zm4.115-1.53H9.203c0 .794.325 1.148 1.009 1.148.357 0 .69-.127 1.054-.346v.504a2.347 2.347 0 01-1.174.306c-1.114 0-1.572-.69-1.572-1.74 0-1.007.51-1.736 1.506-1.736.83 0 1.34.537 1.34 1.62v.243zm1.897 1.61a3.09 3.09 0 01-1.294-.324v-4.63l.69-.166v1.891c.2-.106.537-.245.896-.245.823 0 1.267.571 1.267 1.633 0 1.24-.596 1.842-1.559 1.842zm6.855-.08h-.718v-3.41h-.06l-1.353 3.41h-.424l-1.354-3.33h-.059v3.33h-.597v-4.702h.803l1.486 3.708h.034l1.42-3.708h.822v4.702zm2.241.08c-.908 0-1.513-.604-1.513-1.738 0-1.161.638-1.737 1.513-1.737.876 0 1.513.577 1.513 1.737 0 1.137-.604 1.739-1.513 1.739zm4.93-.08h-.69v-2.25c0-.522-.258-.615-.598-.615-.265 0-.603.119-.809.239v2.626h-.69v-2.905c.299-.18.93-.49 1.692-.49.796 0 1.095.31 1.095.994v2.401zm3.463-1.53h-2.163c0 .794.325 1.148 1.01 1.148.358 0 .69-.127 1.054-.346v.504c-.3.172-.696.306-1.175.306-1.115 0-1.57-.69-1.57-1.74 0-1.007.51-1.736 1.504-1.736.83 0 1.341.537 1.341 1.62l-.001.243zm2.089 1.565c-.332.914-.737 1.392-1.498 1.392v-.543c.452 0 .729-.358.889-.85l-1.273-3.317h.73l.848 2.441h.04l.756-2.441h.71l-1.202 3.318zm11.25 2.715a5.769 5.769 0 01-2.867.758 5.826 5.826 0 01-5.814-5.814 5.826 5.826 0 015.814-5.814 5.78 5.78 0 012.91.78l-.535.478-.804-.83-1.357 1.21-.805-.88-2.53 2.279 1.622 1.787-.638.56 1.597 1.789-.633.56 2.282 2.54 1.352-1.247 1.17 1.336a6.41 6.41 0 01-.765.508zm1.31-1.048l-.935-1.036 1.038-.935.934 1.037-1.037.934zm.99-3.092l-.623-.691.692-.622.622.69-.691.623z" fill="#fff"/><path d="M22.358 24.377c-.437 0-.816.377-.816 1.273 0 .91.345 1.274.816 1.274s.817-.365.817-1.274c0-.897-.366-1.273-.817-1.273zm-8.983.053c-.264 0-.457.072-.723.218v2.17c.213.093.444.106.61.106.492 0 .863-.305.863-1.38 0-.843-.306-1.114-.75-1.114zm16.015-.074c-.405 0-.716.312-.79.975h1.52c-.032-.696-.371-.975-.73-.975zm-19.385 0c-.404 0-.717.312-.79.975h1.52c-.033-.696-.371-.975-.73-.975z" fill="#fff"/></svg>