<svg width="50" height="50" fill="none" xmlns="http://www.w3.org/2000/svg"><path d="M48.713 8.799H1.287C.575 8.799 0 9.375 0 10.086v29.83c0 .71.575 1.286 1.287 1.286h47.426c.712 0 1.287-.576 1.287-1.287V10.086c0-.71-.575-1.287-1.287-1.287zM3.87 18.59h5.337c.72.027 1.3.256 1.5 1.026l1.16 5.581c-1.14-2.92-3.888-5.348-8.041-6.354l.044-.253zm6.457 12.73L7.246 20.79c2.216 1.418 4.103 3.668 4.768 5.234l.36 1.3 3.37-8.612h3.648l-5.42 12.606-3.644.003zm11.744.009H18.63l2.152-12.631h3.443l-2.154 12.63zm5.99.19c-1.543-.017-3.03-.322-3.835-.675l.484-2.827.444.201c1.13.472 1.862.663 3.24.663.99 0 2.05-.387 2.06-1.233.005-.553-.444-.948-1.785-1.568-1.306-.604-3.036-1.616-3.015-3.43.019-2.455 2.416-4.168 5.818-4.168 1.333 0 2.402.274 3.084.53l-.465 2.738-.311-.146a6.353 6.353 0 00-2.576-.483c-1.347 0-1.972.561-1.972 1.086-.008.591.729.98 1.933 1.567 1.986.901 2.904 1.994 2.891 3.431-.026 2.62-2.375 4.313-5.995 4.313zm14.917-.185s-.314-1.452-.419-1.893l-4.408-.005c-.134.34-.724 1.898-.724 1.898h-3.614l5.11-11.575c.363-.822.979-1.048 1.804-1.048h2.659l2.786 12.622-3.194.001z" fill="#fff"/><path d="M41.202 23.207l-.232-1.088c-.175.475-.477 1.239-.457 1.205 0 0-1.088 2.804-1.372 3.53H42l-.798-3.646z" fill="#fff"/></svg>