<svg width="50" height="50" fill="none" xmlns="http://www.w3.org/2000/svg"><path d="M48.713 8.799H1.287C.575 8.799 0 9.375 0 10.086v29.828c0 .711.575 1.288 1.287 1.288h47.426c.712 0 1.287-.576 1.287-1.287V10.086c0-.71-.575-1.287-1.287-1.287zM12.3 23.604l-.149-.337v.018a.785.785 0 01-.784.785h-2.31a.785.785 0 01-.726-.486l-.236-.574H6.779l-.24.577a.783.783 0 01-.722.484H4.583a.786.786 0 01-.72-1.094l2.032-4.75a.785.785 0 01.722-.476h1.685c.314 0 .597.186.722.474l.425.993v-.682c0-.433.35-.784.785-.784h1.854a.79.79 0 01.713.456l.743 1.612.674-1.59a.783.783 0 01.72-.478h1.894c.159 0 .298.059.423.14a.764.764 0 01.423-.14h3.792c.147 0 .277.05.393.12a.765.765 0 01.394-.12h2.612c.675 0 1.234.024 1.768.332.054.032.093.074.142.11a.78.78 0 01.698-.442h1.159c.392 0 .704.292.761.666.508-.44 1.2-.666 2.132-.666h1.098c.175 0 .339.057.469.155a.78.78 0 01.469-.155h1.7c.314 0 .596.187.721.475l.417.976v-.667c0-.433.352-.784.785-.784h1.73a.78.78 0 01.67.378l.54.896v-.491c0-.433.353-.784.786-.784h1.162c.434 0 .784.351.784.784v4.751a.785.785 0 01-.784.785h-1.608a.785.785 0 01-.673-.38l-.697-1.155v.75a.785.785 0 01-.784.785h-2.312c-.316 0-.6-.19-.724-.483l-.24-.577H33.73l-.232.57a.78.78 0 01-.724.49h-1.33c-.506 0-1.41-.09-2.056-.632a.774.774 0 01-.754.633h-1.16a.776.776 0 01-.355-.095.756.756 0 01-.352.095h-1.145a.785.785 0 01-.786-.779l-.004-.599.002-.104c0-.064.001-.16-.004-.24a3.298 3.298 0 00-.22-.007h-.433v.944a.785.785 0 01-.785.785h-1.136a.768.768 0 01-.394-.122.757.757 0 01-.393.122h-3.793a.77.77 0 01-.423-.141.775.775 0 01-.423.14h-1.164a.783.783 0 01-.785-.783v-.02l-.15.337a.783.783 0 01-.717.467h-.998a.784.784 0 01-.716-.468zm31.336 8.644h-2.212a.786.786 0 01-.721-.477c-.431.305-1.001.477-1.707.477h-2.211a.774.774 0 01-.341-.085.77.77 0 01-.34.085h-3.789a.75.75 0 01-.347-.089.772.772 0 01-.345.089h-1.14a.784.784 0 01-.785-.784v-.691c.002-.067.002-.17-.003-.254a3.36 3.36 0 00-.23-.007h-.43v.951a.784.784 0 01-.783.785H27.11a.784.784 0 01-.785-.784v-1.208c-.403.24-.959.398-1.725.398h-.631v.81a.784.784 0 01-.786.784h-2.206a.786.786 0 01-.587-.263l-.823-.926-.867.938a.785.785 0 01-.575.253h-4.498a.785.785 0 01-.784-.786v-4.75c0-.435.351-.786.784-.786h4.566a.78.78 0 01.584.26l.825.918.86-.928a.784.784 0 01.575-.25h3.628c.794 0 1.354.176 1.751.436a.776.776 0 01.694-.436h2.623c.603 0 1.188.023 1.736.316.059.035.097.08.152.117a.775.775 0 01.691-.433h3.79c.293 0 .541.169.676.409.373-.253.869-.41 1.494-.41h2.275c.343 0 .624.221.733.525.39-.316.922-.524 1.63-.524h2.278c.433 0 .783.351.783.785v1.011c0 .277-.141.52-.358.66a.167.167 0 00.023.023c.39.4.566.895.566 1.559 0 1.428-.959 2.284-2.566 2.282z" fill="#fff"/><path d="M26.016 21.082c.296-.117.8-.51.8-1.266 0-.53-.215-.84-.573-1.053-.368-.212-.796-.227-1.376-.227h-2.611v4.75h1.136V21.56h1.218c.409 0 .662.036.827.203.207.228.18.639.18.925l.005.599h1.145v-.934c0-.424-.027-.635-.189-.871a1.312 1.312 0 00-.562-.4zm-.683-.599c-.158.095-.342.098-.562.098h-1.38v-1.055h1.4c.196 0 .403.01.537.086.147.07.239.216.239.42 0 .207-.088.374-.234.451zm3.305-1.946h-1.16v4.75h1.16v-4.75zm12.276 0v3.309l-1.997-3.31h-1.729v4.494l-1.922-4.493h-1.701l-1.604 3.736h-.51c-.296 0-.616-.057-.79-.246-.214-.239-.313-.606-.313-1.114 0-.5.132-.877.326-1.077.224-.22.457-.281.874-.281h1.076v-1.018h-1.099c-.782 0-1.359.174-1.724.553-.487.509-.612 1.153-.612 1.858 0 .863.209 1.41.61 1.814.394.403 1.093.525 1.646.526h1.33l.426-1.06h2.358l.443 1.06h2.312v-3.566l2.154 3.566h1.608v-4.751h-1.162zm-7.306 2.7l.78-1.894.786 1.894h-1.566z" fill="#fff"/><path d="M31.551 20.338c-.267 0-.295.028-.328.059-.01.015-.09.186-.09.515 0 .326.052.483.09.553a.89.89 0 00.224.023l.492-1.15h-.388zm4.552 7.357v-.983h-3.789v4.752h3.789v-.985l-2.66-.006v-.944h2.595v-.97h-2.594v-.864h2.659zm-11.438-.981h-3.628l-1.445 1.556-1.399-1.556h-4.566v4.751h4.498l1.454-1.573 1.398 1.573h2.207v-1.593h1.417c.992 0 1.977-.273 1.977-1.593 0-1.316-1.012-1.567-1.913-1.565zm-7.114 3.762h-2.79v-.945h2.491v-.97H14.76v-.864h2.846l1.242 1.383-1.297 1.396zm4.502.557l-1.744-1.937 1.744-1.873v3.81zm2.597-2.128h-1.466v-1.21h1.48c.411 0 .694.167.694.583 0 .412-.27.629-.708.627zm6.23.35c.297-.118.804-.504.806-1.265 0-.541-.226-.839-.583-1.055-.375-.2-.793-.223-1.368-.223h-2.621v4.751h1.14v-1.735h1.213c.414 0 .667.04.833.21.21.222.183.645.183.931v.594h1.14v-.942c-.004-.419-.027-.634-.189-.866a1.23 1.23 0 00-.555-.4zm-.685-.59c-.152.09-.341.098-.562.098h-1.38v-1.068h1.398c.2 0 .404.005.542.086.147.077.235.225.235.428a.515.515 0 01-.233.456zm10.248.291c-.261-.259-.685-.365-1.3-.38l-.61-.017c-.195 0-.322-.012-.443-.054a.365.365 0 01-.248-.354c0-.15.046-.265.172-.343.113-.077.246-.086.454-.086h2.083v-1.01h-2.276c-1.191 0-1.623.724-1.623 1.414 0 1.502 1.33 1.435 2.391 1.47.2 0 .318.032.405.105a.4.4 0 01.138.314.42.42 0 01-.133.31c-.096.09-.249.118-.463.118h-2.203v1.019H39c1.144 0 1.784-.477 1.784-1.5 0-.488-.119-.778-.34-1.006zM14.938 18.535l-1.364 3.223-1.486-3.223h-1.854v4.499l-1.933-4.5H6.616l-2.034 4.752h1.233l.441-1.06H8.62l.436 1.06h2.31v-3.724l1.65 3.723h1l1.646-3.72.005 3.72h1.164v-4.75h-1.893zm-8.277 2.701l.772-1.893.776 1.893H6.661zm14.807-1.712v-.99h-3.793v4.753h3.793v-.983H18.81v-.95h2.595v-.973H18.81v-.857h2.658zm23.613 9.432c-.259-.259-.683-.365-1.3-.38l-.61-.017c-.192 0-.32-.012-.443-.054a.366.366 0 01-.247-.354c0-.15.046-.265.171-.343.114-.077.249-.086.456-.086h2.083v-1.01h-2.277c-1.19 0-1.623.724-1.623 1.414 0 1.502 1.331 1.435 2.393 1.47.198 0 .316.032.404.105a.408.408 0 01.137.314c0 .13-.055.238-.132.31-.096.09-.25.118-.463.118h-2.202v1.019h2.211c1.145 0 1.783-.477 1.783-1.5 0-.488-.117-.778-.34-1.006z" fill="#fff"/></svg>