<svg width="50" height="50" fill="none" xmlns="http://www.w3.org/2000/svg"><path d="M10.73 22.009c-.202-.133-.504-.2-.9-.2l-.34.001a.523.523 0 00-.493.393l-.312 1.346c-.05.218.09.396.315.396h.253c.562 0 .998-.114 1.31-.345.313-.228.473-.553.466-.973.002-.278-.099-.486-.299-.618zm5.533 3.101c-.06.002-.53.055-.766.084a3.906 3.906 0 00-.683.154l-.439.3c-.103.128-.151.293-.151.505l.2.388c.135.076.335.113.59.113.168 0 .35-.04.542-.119l.407-.21.161-.214c.064-.25.196-.805.211-.874l-.072-.127z" fill="#fff"/><path d="M48.713 8.799H1.287C.575 8.799 0 9.375 0 10.086v29.828c0 .711.575 1.288 1.287 1.288h47.426c.712 0 1.287-.576 1.287-1.287V10.086c0-.71-.575-1.287-1.287-1.287zM11.937 24.518c-.705.518-1.686.777-2.953.779h-.296a.53.53 0 00-.497.393l-.355 1.538a.532.532 0 01-.498.395H6.302c-.225 0-.365-.18-.312-.395l1.456-6.34a.543.543 0 01.498-.397h2.164c.467.004.872.032 1.223.096.345.066.646.175.9.331.245.154.443.36.566.61.139.25.2.562.2.934 0 .85-.35 1.537-1.06 2.056zm6.429-.81l-.04.267-.755 3.268a.536.536 0 01-.446.388l-.014.006h-.963l-.003-.004c-.198-.019-.32-.186-.277-.388v-.002l.001-.006.04-.166-.006-.006-.39.257-.425.238-.501.171c-.155.037-.371.06-.651.06-.442 0-.812-.122-1.092-.372a1.278 1.278 0 01-.421-.983c0-.425.098-.784.296-1.084.204-.297.496-.529.891-.702a4.74 4.74 0 011.314-.362c.515-.074.94-.128 1.529-.165l.149-.092.018-.146a.477.477 0 00-.313-.471c-.21-.089-.527-.133-.941-.133-.282-.004-.636.054-.971.13-.352.08-.448.132-.62.183-.08.028-.272.041-.2-.292l.126-.521s.062-.394.456-.48c.19-.042.22-.05.531-.098a8.18 8.18 0 011.254-.098c.844 0 1.462.11 1.852.33.392.22.592.564.59 1.025l-.018.248zm1.665 6.44l-1.073.002c-.223 0-.296-.177-.16-.395l.918-1.6s.073-.092.008-.614c-.142-.944-.846-4.956-.846-4.956-.052-.217.086-.395.31-.395l.928-.002c.284 0 .512.187.564.407l.462 2.782.172.002c.144-.256 1.628-2.802 1.628-2.802.141-.214.428-.396.651-.396 0 0 .998.003 1.243 0 .369-.005-.028.592-.028.592l-4.129 6.982c-.133.218-.427.393-.648.393zm10.727-5.603c-.707.516-1.693.777-2.96.777h-.296a.534.534 0 00-.498.393l-.35 1.54a.535.535 0 01-.498.39l-1.038.003c-.22 0-.366-.178-.313-.393l1.457-6.345a.541.541 0 01.496-.394l2.166-.001c.465.001.874.034 1.218.095.35.064.65.174.902.33.247.159.44.361.57.613.133.248.197.561.199.933 0 .849-.355 1.534-1.055 2.06zm6.425-.832l-.038.268-.758 3.266a.534.534 0 01-.441.39l-.015.005h-.963l-.002-.005a.302.302 0 01-.276-.388l-.002-.003.005-.003.034-.167-.006-.008-.388.261-.427.237-.5.169c-.154.04-.372.056-.65.06-.442 0-.808-.125-1.09-.374a1.27 1.27 0 01-.424-.983c0-.422.098-.784.297-1.081.202-.297.499-.529.89-.704a4.83 4.83 0 011.317-.361c.511-.074.936-.128 1.53-.165l.148-.094.016-.146a.474.474 0 00-.313-.47c-.211-.09-.528-.133-.94-.133a4.624 4.624 0 00-.973.13c-.35.081-.445.132-.616.183-.087.026-.273.04-.203-.292l.127-.52s.06-.395.455-.48c.192-.042.223-.052.533-.097a7.92 7.92 0 011.254-.1c.84 0 1.457.111 1.85.332.396.22.593.561.593 1.022l-.024.251zm3.32-2.75l-1.388 6.286-.049.074c-.082.177-.258.32-.448.32h-.963l-.018-.022c-.183-.028-.303-.176-.26-.369v-.004l.04-.182 1.298-5.897.046-.206.053-.08c.084-.174.256-.314.446-.314h.927c.226 0 .361.176.313.392l.003.001zm1.84-.68h-.348v.46l.003.125.024.083.055.053.106.017.087-.012.064-.02h.008v.151l-.103.02-.098.009-.236-.084-.08-.266v-.537h-.117v-.143h.117v-.288h.17v.288h.347v.143zm1.677.211v.653h-.167v-.576l-.01-.123-.023-.097-.059-.058-.112-.02-.14.036-.145.091.003.05.001.053v.645H43.2v-.575l-.007-.125-.024-.096-.056-.058-.115-.02-.139.034-.14.088v.752h-.167V20.14h.167v.112l.16-.102.167-.037.175.041.109.12.185-.124.182-.037.245.1.08.281h-.002z" fill="#fff"/><path d="M35.081 25.115c-.06 0-.527.054-.76.084-.27.038-.498.09-.683.154-.19.075-.344.175-.444.3-.1.129-.149.294-.149.506l.203.387c.13.077.327.114.59.114.165 0 .348-.04.538-.118l.405-.21.166-.214c.062-.252.196-.805.207-.874l-.073-.129zm-5.538-3.083c-.204-.133-.502-.199-.9-.2l-.337.001a.53.53 0 00-.495.394l-.314 1.345c-.05.216.094.397.318.395h.258c.56 0 .995-.115 1.308-.34.31-.231.468-.553.466-.977-.005-.277-.102-.485-.304-.617z" fill="#fff"/></svg>