<svg width="23" height="23" fill="none" xmlns="http://www.w3.org/2000/svg"><g clip-path="url(#clip0)" fill="#F75283"><path d="M2.514 21.607a2.5 2.5 0 01-1.01-.209 2.473 2.473 0 01-.798-.555A2.533 2.533 0 010 19.103c0-.46.131-.913.38-1.313L9.36 2.58l.006-.01a2.508 2.508 0 012.127-1.177h.014a2.508 2.508 0 012.127 1.177l.006.01 5.726 9.7a.447.447 0 01-.386.678.451.451 0 01-.388-.222l-5.721-9.692a1.598 1.598 0 00-1.371-.753 1.6 1.6 0 00-1.37.75L1.152 18.253l-.006.01a1.57 1.57 0 00-.247.84c0 .41.166.817.455 1.117.31.319.712.488 1.165.489h17.964c.453 0 .855-.17 1.165-.49.29-.3.455-.706.455-1.116 0-.296-.084-.579-.247-.84l-.006-.01-1.202-2.035a.445.445 0 01-.048-.34.445.445 0 01.435-.338c.158 0 .307.085.387.22l1.199 2.032a2.469 2.469 0 01.194 2.253 2.527 2.527 0 01-1.317 1.353 2.518 2.518 0 01-1.01.21H2.513z"/><path d="M11.5 17.52a1.35 1.35 0 01-1.348-1.348 1.35 1.35 0 011.348-1.348 1.35 1.35 0 011.348 1.348A1.35 1.35 0 0111.5 17.52zm0-1.797a.45.45 0 10.001.9.45.45 0 00-.001-.9zm0-1.797c-.492 0-.69-.572-.774-.815a8.971 8.971 0 01-.303-1.23c-.168-.898-.27-1.848-.27-2.133A1.35 1.35 0 0111.5 8.4a1.35 1.35 0 011.348 1.348c0 .286-.103 1.235-.271 2.133a8.971 8.971 0 01-.303 1.23c-.084.243-.282.815-.774.815zm0-4.627a.45.45 0 00-.45.449c0 .172.074.915.213 1.724.087.506.168.86.237 1.104.069-.244.15-.598.237-1.104.14-.81.212-1.552.212-1.724a.45.45 0 00-.449-.45z"/></g><defs><clipPath id="clip0"><path fill="#fff" d="M0 0h23v23H0z"/></clipPath></defs></svg>