<svg width="30" height="30" fill="none" xmlns="http://www.w3.org/2000/svg"><path d="M15 .6C7.049.6.6 7.047.6 15S7.049 29.4 15 29.4c7.954 0 14.4-6.447 14.4-14.4S22.955.6 15 .6zm-3.524 20.368H8.56v-9.384h2.916v9.384zM10 10.432c-.921 0-1.517-.652-1.517-1.46 0-.823.614-1.456 1.554-1.456.94 0 1.517.633 1.535 1.457 0 .807-.594 1.46-1.572 1.46zm12.126 10.536H19.21v-5.2c0-1.21-.423-2.033-1.478-2.033-.805 0-1.284.557-1.495 1.092-.078.19-.098.46-.098.73v5.41h-2.917v-6.39c0-1.172-.038-2.151-.077-2.994h2.534l.133 1.303h.059c.384-.612 1.324-1.515 2.898-1.515 1.918 0 3.357 1.286 3.357 4.049v5.548z" fill="#717174"/></svg>