<svg width="30" height="30" fill="none" xmlns="http://www.w3.org/2000/svg"><g opacity=".4"><circle cx="15" cy="15" r="15" fill="#fff"/><path d="M8.311 6H21.69C22.96 6 24 7.04 24 8.31v13.38c0 1.271-1.04 2.31-2.31 2.31H8.31A2.317 2.317 0 016 21.69V8.31C6 7.04 7.04 6 8.311 6zm10.802 2a.813.813 0 00-.81.81v1.94c0 .446.363.81.81.81h2.034c.446 0 .81-.364.81-.81V8.81a.814.814 0 00-.81-.81h-2.034zm2.852 5.612h-1.584c.15.49.232 1.008.232 1.546 0 2.993-2.506 5.42-5.596 5.42-3.09 0-5.595-2.427-5.595-5.42 0-.538.082-1.056.231-1.546H8.001v7.604c0 .394.322.715.715.715H21.25c.394 0 .715-.32.715-.715v-7.604zm-6.948-2.154c-1.996 0-3.614 1.568-3.614 3.504 0 1.934 1.618 3.503 3.614 3.503 1.997 0 3.616-1.57 3.616-3.503 0-1.936-1.62-3.504-3.616-3.504z" fill="#121218"/></g></svg>