<svg width="24" height="24" fill="none" xmlns="http://www.w3.org/2000/svg"><path d="M19.5 21.75h-.128C4.635 20.902 2.543 8.467 2.25 4.672A2.25 2.25 0 014.32 2.25h4.133a1.5 1.5 0 011.395.945L10.988 6a1.5 1.5 0 01-.33 1.62L9.06 9.232a7.027 7.027 0 005.685 5.7l1.627-1.612A1.499 1.499 0 0118 13.012l2.828 1.133a1.5 1.5 0 01.922 1.395v3.96a2.25 2.25 0 01-2.25 2.25zm-15-18a.75.75 0 00-.75.75v.06C4.095 9 6.308 19.5 19.455 20.25a.749.749 0 00.795-.705V15.54l-2.828-1.132-2.152 2.137-.36-.045C8.385 15.682 7.5 9.158 7.5 9.09l-.045-.36 2.13-2.153L8.46 3.75H4.5z" fill="#DF949D"/></svg>