<svg width="16" height="16" fill="none" xmlns="http://www.w3.org/2000/svg"><path fill-rule="evenodd" clip-rule="evenodd" d="M2.167 2.667A.167.167 0 002 2.833v8.334c0 .092.075.166.167.166h1.666a.5.5 0 01.5.5v2.127l2.48-2.48a.5.5 0 01.354-.147h6.666a.167.167 0 00.167-.166V2.833a.167.167 0 00-.167-.166H2.167zM1 2.833c0-.644.523-1.166 1.167-1.166h11.666c.644 0 1.167.522 1.167 1.166v8.334a1.166 1.166 0 01-1.167 1.166h-6.46l-2.382 2.382a.971.971 0 01-1.658-.686v-1.696H2.167A1.167 1.167 0 011 11.167V2.833z" fill="#868C96"/></svg>