<svg width="20" height="20" fill="none" xmlns="http://www.w3.org/2000/svg"><path fill-rule="evenodd" clip-rule="evenodd" d="M18.864 1.136a.75.75 0 010 1.061l-9.167 9.167a.75.75 0 11-1.06-1.061l9.166-9.167a.75.75 0 011.061 0z" fill="#868C96"/><path fill-rule="evenodd" clip-rule="evenodd" d="M18.864 1.136a.75.75 0 01.178.778l-5.834 16.667a.75.75 0 01-1.393.057L8.599 11.4 1.362 8.186a.75.75 0 01.057-1.393L18.086.96a.75.75 0 01.778.177zM3.7 7.583l5.772 2.565a.75.75 0 01.38.38l2.565 5.772 4.694-13.41-13.41 4.693z" fill="#868C96"/></svg>