<svg width="30" height="30" fill="none" xmlns="http://www.w3.org/2000/svg"><path d="M15 0C6.716 0 0 6.716 0 15c0 8.284 6.716 15 15 15 8.284 0 15-6.716 15-15 0-8.284-6.716-15-15-15zm6.102 12.287a7.9 7.9 0 01.007.382c0 3.906-2.97 8.408-8.404 8.408a8.337 8.337 0 01-4.528-1.329c.23.029.465.04.704.04a5.91 5.91 0 003.669-1.265 2.961 2.961 0 01-2.76-2.05c.443.085.899.067 1.333-.051a2.956 2.956 0 01-2.37-2.897v-.036c.399.22.855.355 1.34.37a2.953 2.953 0 01-.915-3.947 8.4 8.4 0 006.09 3.09 2.954 2.954 0 015.034-2.696 5.933 5.933 0 001.875-.717 2.969 2.969 0 01-1.299 1.636 5.934 5.934 0 001.697-.467 5.991 5.991 0 01-1.473 1.53z" fill="#717174"/></svg>