<svg width="20" height="20" fill="none" xmlns="http://www.w3.org/2000/svg"><path d="M16.914 20a.781.781 0 01-.781-.781 5.553 5.553 0 00-5.547-5.547H9.414a5.553 5.553 0 00-5.547 5.547.781.781 0 01-1.562 0c0-3.92 3.189-7.11 7.11-7.11h1.17c3.921 0 7.11 3.19 7.11 7.11 0 .431-.35.781-.78.781zm-6.992-9.453a5.28 5.28 0 01-5.274-5.274A5.28 5.28 0 019.922 0a5.28 5.28 0 015.273 5.273 5.28 5.28 0 01-5.273 5.274zm0-8.985A3.715 3.715 0 006.21 5.274a3.715 3.715 0 003.71 3.711 3.715 3.715 0 003.712-3.71 3.715 3.715 0 00-3.711-3.712z" fill="#121218"/></svg>