<svg width="81" height="80" fill="none" xmlns="http://www.w3.org/2000/svg"><g clip-path="url(#clip0_2_410)" fill="#FF3568"><path d="M25.84 44.678a1.668 1.668 0 010-2.432 1.852 1.852 0 012.54 0l12.695 12.158a1.667 1.667 0 010 2.433 1.852 1.852 0 01-2.539 0L25.84 44.678z"/><path fill-rule="evenodd" clip-rule="evenodd" d="M24.087 32.25l6.49-6.215c4.297-4.114 9.204-3.793 13.043-.116.488.466 1.097 1.284 1.463 1.81.152.203.243.35.365.465.244.234.488.293 1.006.147 3.2-.847 6.003.088 8.684 2.655 3.748 3.59 4.145 8.404-.61 12.957l-9.11 8.726c-.488.466-.884.437-1.372-.03L24.119 33.565c-.488-.466-.519-.846-.03-1.313h-.002zm13.316 3.299l1.555-1.488c.792-.76.914-1.81-.031-2.714-.914-.876-2.041-.788-2.834-.03l-1.554 1.49c-.488.465-.457.845.031 1.312l1.462 1.4c.488.467.884.497 1.371.03zm7.436 7.12l4.083-3.91c1.188-1.138 1.433-2.19.427-3.152-.976-.934-2.103-.73-3.292.409l-4.082 3.91c-.488.467-.457.847.03 1.313l1.463 1.4c.487.468.883.497 1.371.03z"/><path d="M40.44 79.394c22.159 0 40.122-17.742 40.122-39.628 0-21.887-17.963-39.63-40.122-39.63C18.28.137.317 17.88.317 39.767c0 21.886 17.964 39.628 40.123 39.628z" fill-opacity=".2"/></g><defs><clipPath id="clip0_2_410"><path fill="#fff" d="M0 0h80.879v80H0z"/></clipPath></defs></svg>