<svg width="80" height="80" fill="none" xmlns="http://www.w3.org/2000/svg"><path d="M40 79.258c21.919 0 39.687-17.743 39.687-39.63C79.687 17.743 61.919 0 40 0S.314 17.742.314 39.629c0 21.886 17.768 39.629 39.687 39.629z" fill="#F6851B" fill-opacity=".2"/><path d="M57.04 21.977L42.3 33.035l2.739-6.523 12.001-4.534z" fill="#E2761B" stroke="#E2761B" stroke-linecap="round" stroke-linejoin="round"/><path d="M23.049 21.977L37.655 33.14l-2.604-6.628-12.002-4.534zm28.695 25.629l-3.922 6.075 8.391 2.334 2.398-8.274-6.867-.135zm-30.25.135l2.383 8.274 8.39-2.334-3.906-6.075-6.867.135z" fill="#E4761B" stroke="#E4761B" stroke-linecap="round" stroke-linejoin="round"/><path d="M31.809 37.343l-2.338 3.576 8.317.374-.282-9.052-5.697 5.102zm16.471 0l-5.787-5.206-.192 9.156 8.317-.374-2.339-3.576zM32.269 53.682l5.016-2.469-4.32-3.411-.696 5.88zm10.536-2.469l5.017 2.469-.696-5.88-4.321 3.411z" fill="#E4761B" stroke="#E4761B" stroke-linecap="round" stroke-linejoin="round"/><path d="M47.822 53.681l-5.017-2.468.4 3.306-.045 1.392 4.662-2.23zm-15.553 0l4.661 2.23-.03-1.392.385-3.306-5.016 2.468z" fill="#D7C1B3" stroke="#D7C1B3" stroke-linecap="round" stroke-linejoin="round"/><path d="M37.018 45.617l-4.173-1.242 2.945-1.361 1.228 2.603zm6.052 0l1.229-2.603 2.96 1.361-4.189 1.242z" fill="#233447" stroke="#233447" stroke-linecap="round" stroke-linejoin="round"/><path d="M32.268 53.68l.725-6.074-4.632.135 3.907 5.94zm14.829-6.074l.725 6.075 3.921-5.94-4.646-.135zm3.521-6.687l-8.317.374.77 4.324 1.228-2.603 2.96 1.361 3.359-3.456zm-17.773 3.456l2.945-1.361 1.228 2.603.77-4.324-8.317-.374 3.374 3.456z" fill="#CD6116" stroke="#CD6116" stroke-linecap="round" stroke-linejoin="round"/><path d="M29.47 40.919l3.493 6.882-.118-3.426-3.374-3.456zm17.79 3.456l-.134 3.426 3.492-6.882-3.359 3.456zm-9.472-3.082l-.77 4.324.977 5.102.208-6.718-.415-2.708zm4.514 0l-.4 2.693.193 6.733.977-5.102-.77-4.324z" fill="#E4751F" stroke="#E4751F" stroke-linecap="round" stroke-linejoin="round"/><path d="M43.07 45.617l-.976 5.102.71.493 4.321-3.41.133-3.427-4.188 1.242zm-10.225-1.242l.118 3.426 4.321 3.411.71-.493-.976-5.102-4.173-1.242z" fill="#F6851B" stroke="#F6851B" stroke-linecap="round" stroke-linejoin="round"/><path d="M43.16 55.91l.045-1.39-.37-.33h-5.58l-.354.33.03 1.39-4.662-2.228 1.627 1.346 3.315 2.32h5.668l3.315-2.32 1.628-1.346-4.662 2.229z" fill="#C0AD9E" stroke="#C0AD9E" stroke-linecap="round" stroke-linejoin="round"/><path d="M42.805 51.213l-.71-.494h-4.1l-.71.494-.385 3.306.356-.33h5.579l.37.33-.4-3.306z" fill="#161616" stroke="#161616" stroke-linecap="round" stroke-linejoin="round"/><path d="M57.663 33.752l1.243-6.104-1.865-5.67L42.805 32.66l5.475 4.683 7.74 2.289 1.702-2.02-.74-.538 1.184-1.093-.903-.718 1.184-.912-.784-.599zm-36.479-6.104l1.258 6.104-.8.599 1.184.912-.902.718 1.183 1.093-.74.538 1.702 2.02 7.74-2.29 5.476-4.682-14.237-10.682-1.864 5.67z" fill="#763D16" stroke="#763D16" stroke-linecap="round" stroke-linejoin="round"/><path d="M56.02 39.633l-7.74-2.29 2.338 3.577-3.492 6.882 4.617-.06h6.867l-2.59-8.11zm-24.211-2.289l-7.74 2.289-2.575 8.109h6.867l4.602.06-3.492-6.882 2.338-3.576zm10.492 3.95l.503-8.633 2.235-6.15h-9.99l2.235 6.15.504 8.633.192 2.723.015 6.702h4.1l.014-6.702.192-2.723z" fill="#F6851B" stroke="#F6851B" stroke-linecap="round" stroke-linejoin="round"/></svg>