<svg width="80" height="80" fill="none" xmlns="http://www.w3.org/2000/svg"><path d="M40 79.394c21.919 0 39.687-17.742 39.687-39.628C79.687 17.879 61.919.136 40 .136S.314 17.88.314 39.767c0 21.886 17.768 39.628 39.687 39.628z" fill="#3C99FC" fill-opacity=".2"/><path d="M26.966 31.144c7.372-7.282 19.324-7.282 26.696 0l.888.877a.924.924 0 010 1.318l-3.035 2.998a.476.476 0 01-.668 0l-1.22-1.206c-5.144-5.08-13.482-5.08-18.625 0l-1.308 1.292a.476.476 0 01-.667 0l-3.035-2.998a.924.924 0 010-1.319l.974-.962zm32.973 6.2l2.702 2.669a.924.924 0 010 1.318L50.46 53.363a.952.952 0 01-1.335 0l-8.645-8.54a.238.238 0 00-.334 0l-8.644 8.54a.952.952 0 01-1.335 0L17.988 41.33a.924.924 0 010-1.319l2.7-2.668a.952.952 0 011.335 0l8.645 8.54a.238.238 0 00.334 0l8.644-8.54a.952.952 0 011.335 0l8.645 8.54a.238.238 0 00.334 0l8.645-8.54a.952.952 0 011.334 0z" fill="#3C99FC"/></svg>