<svg width="80" height="80" fill="none" xmlns="http://www.w3.org/2000/svg"><path d="M40 79.258c21.919 0 39.687-17.743 39.687-39.63C79.687 17.743 61.919 0 40 0S.314 17.742.314 39.629c0 21.886 17.768 39.629 39.687 39.629z" fill="#0052FF" fill-opacity=".2"/><path d="M60 39.758c0 11.167-8.954 20.22-20 20.22s-20-9.053-20-20.22c0-11.167 8.954-20.22 20-20.22s20 9.053 20 20.22z" fill="#0052FF"/><path d="M40.005 32.65c-3.885 0-7.031 3.18-7.031 7.108 0 3.927 3.146 7.109 7.03 7.109 3.481 0 6.37-2.566 6.927-5.924h7.084c-.598 7.298-6.639 13.032-14.01 13.032-7.764 0-14.063-6.368-14.063-14.217s6.3-14.217 14.063-14.217c7.371 0 13.412 5.734 14.01 13.032h-7.09c-.557-3.358-3.44-5.923-6.92-5.923z" fill="#fff"/></svg>