<svg width="243" height="150" fill="none" xmlns="http://www.w3.org/2000/svg"><path d="M84.587 32.196c-22.59 10.636-45.838 22.021-62.913 40.772C10.173 85.598-1.782 104.663.401 122.569c2.654 21.758 26.771 27.826 45.183 26.826 25.795-1.401 51.7-8.114 75.786-17.175a347.11 347.11 0 0069.814-36.088c16.703-11.11 34.409-23.595 44.452-41.469 7.83-13.934 10.072-34.263-2.673-46.257-13.723-12.914-39.374-7.156-55.776-4.252A227.513 227.513 0 0042.618 82.715c-1.883 2.27 1.478 5.418 3.376 3.129a223.133 223.133 0 0194.893-67.168 216.6 216.6 0 0156.358-12.582c10.095-.842 21.508-1.989 30.254 3.994 10.656 7.289 11.742 22.416 8.037 33.764-5.642 17.285-21.007 30.198-35.246 40.465a359.62 359.62 0 01-53.225 31.951 303.53 303.53 0 01-63.249 22.696c-20.05 4.687-49.58 12.332-68.106-.219-24.374-16.513-3.934-50.097 10.93-65.843 16.346-17.313 37.783-28.624 58.398-39.99.486-.269.028-.942-.451-.716z" fill="#FF512F"/></svg>