<svg width="145" height="134" fill="none" xmlns="http://www.w3.org/2000/svg"><path d="M71.295 100.826c-2.521 3.758-3.761 8.273-3.451 12.567.19 2.56 1.023 4.902 2.406 6.767 1.382 1.864 3.26 3.178 5.425 3.794 6.118 1.5 13.277-3.951 15.819-11.308 2.267-6.547-.01-12.06-.401-12.987l-19.798 1.167z" fill="#A1748D"/><path opacity=".2" d="M90.25 115.612c.463-.865.857-1.766 1.176-2.689 2.335-6.681-.009-12.308-.412-13.254l-20.39 1.191c-2.596 3.835-3.873 8.443-3.554 12.825a15 15 0 00.332 2.078c7.703-1.669 15.384-1.324 22.848-.151z" fill="#231F20"/><path d="M49.557 83.042c-2.437.282-4.866 1.272-7.059 2.878-2.193 1.606-4.078 3.775-5.48 6.306a23.2 23.2 0 00-2.7 9.058c-.254 3.123.174 6.151 1.246 8.805l3.304-1.541c.258-3.854.522-7.709.79-11.563l12.573-3.591c-.887-3.466-1.778-6.917-2.674-10.352z" fill="#507BAD"/><path d="M35.743 109.605l3.413-1.556.295-4.223c-1.651.409-3.278 1.02-4.898 1.275a17.489 17.489 0 001.19 4.504z" fill="#231F20"/><path d="M108.403 124.708l-4.136-12.647 6.749-17.499-9.822-.811c-2.151 6.703-2.726 13.744-1.653 20.252.858 5.051 2.784 9.563 5.602 13.123l3.26-2.418z" fill="#507BAD"/><path d="M106.863 127.159l3.646-2.513a151.851 151.851 0 01-1.345-3.783c-1.553.982-3.126 1.937-4.701 3.01a25.309 25.309 0 002.4 3.286z" fill="#231F20"/><path d="M132.503 52.344l-1.365-1.877c.208-.272 4.991-6.716 4.236-14.857-.213-2.22-.825-4.283-1.793-6.044-.967-1.761-2.268-3.178-3.812-4.153l1.114-2.655c1.822 1.15 3.357 2.825 4.498 4.906 1.141 2.081 1.859 4.518 2.105 7.141.894 9.424-4.372 16.705-4.983 17.54z" fill="#FCDBFF"/><path opacity=".3" d="M132.503 52.344l-1.365-1.877c.208-.272 4.991-6.716 4.236-14.857-.213-2.22-.825-4.283-1.793-6.044-.967-1.761-2.268-3.178-3.812-4.153l1.114-2.655c1.822 1.15 3.357 2.825 4.498 4.906 1.141 2.081 1.859 4.518 2.105 7.141.894 9.424-4.372 16.705-4.983 17.54z" fill="#131E32"/><path d="M130.351 25.52c-1.679 2.607-4.86 3.102-6.879 2.45-3.307-1.087-5.282-5.844-4.53-11.824l3.809 1.925c.183-.253 2.772-3.674 5.319-3.266 3.274.498 4.627 7.096 2.281 10.715z" fill="#944E74"/><path opacity=".2" d="M119.509 22.663c.293 1.227.826 2.332 1.563 3.24a6.793 6.793 0 002.716 2.026c2.119.686 5.463.127 7.219-2.57a7.48 7.48 0 001.016-2.552c-4.279 1.576-8.693 1.525-12.514-.144z" fill="#231F20"/><path d="M40.88 37.872c-11.08 38.082 7.482 72.142 34.13 73.701 25.816 1.522 54.949-27.708 58.713-65.168a10746.567 10746.567 0 01-49.004-4.414c-14.617-1.345-29.23-2.718-43.839-4.12z" fill="#FCDBFF"/><path d="M29.358 19.54c-.21 10.667-.417 21.334-.622 32.002l19.622-6.884 5.696-26.074-24.696.956z" fill="#FCDBFF"/><path opacity=".2" d="M35.259 45.159c-1.756 9.584-1.737 19.192.054 28.15 6.758-1.498 12.156-7.728 13.008-13.59 1.029-7.094-4.411-14.966-13.062-14.56zm5.133 30.615c5.26 20.221 19.18 34.43 36.347 35.469 17.167 1.039 35.697-11.241 47.78-30.526-14.435 6.08-29.4 8.784-43.906 7.932-14.506-.853-28.22-5.241-40.238-12.876h.017z" fill="#231F20"/><path opacity=".2" d="M54.1 98.433c6.507 7.039 14.656 11.381 23.697 11.942 7.416.391 15.082-1.56 22.237-5.66-16.085 2.141-31.926.34-45.933-6.282z" fill="#231F20"/><path opacity=".3" d="M81.03 60.847c-2.342-4.208-6.152-6.373-9.96-5.33-5.605 1.524-9.018 9.386-9.734 14.479-1.562 11.102 7.459 23.505 18.45 21.269 10.751-2.187 19.91-17.672 18.22-26.387-.414-1.912-1.262-3.607-2.47-4.934a8.883 8.883 0 00-4.45-2.67c-5.05-1.1-9.463 3.008-10.055 3.573zm53.167-11.951c-7.807-.71-15.609-1.427-23.404-2.149-.642 2.318-.722 4.702-.231 6.876.524 2.058 1.593 3.798 3.074 5.002 1.481 1.205 3.306 1.82 5.248 1.767-2.225 3.781-3.274 8.174-2.949 12.342.442 4.616 2.866 9.84 7.013 10.41 6.245-10.487 10.133-22.323 11.249-34.248z" fill="#131E32"/><path d="M71.9 116.751a21.72 21.72 0 00-3.356 6.35c-.298.892-1.204 3.65-.59 4.16.614.509 2.537-1.63 2.716-1.841 1.622-1.955 2.737-4.399 3.173-6.957l-1.943-1.712zm7.518 3.181a23.17 23.17 0 00-1.095 7.123c.008.938.039 3.683.767 3.773.727.091 1.822-2.751 1.922-3.016.873-2.463 1.132-5.095.739-7.516l-2.333-.364zm6.453-.109c.452 2.213 1.33 4.217 2.575 5.879.49.647 1.93 2.514 2.69 1.951.762-.563.38-3.485.343-3.758-.387-2.399-1.494-4.456-3.142-5.838l-2.466 1.766z" fill="#A1748D"/><path d="M55.526 93.417c-2.144 1.537-4.03 3.583-5.514 5.981a23.135 23.135 0 00-3.05 7.855c-.563 3.065-.449 6.132.332 8.896.782 2.764 2.203 5.128 4.123 6.858a471.926 471.926 0 012.708-3.028l-3.023-10.119c3.172-1.083 6.137-3.208 8.521-6.108 2.195-2.695 3.877-5.881 4.903-9.288l-9-1.047z" fill="#8CA8DE"/><path opacity=".2" d="M55.526 93.417c-2.144 1.537-4.03 3.583-5.514 5.981a23.135 23.135 0 00-3.05 7.855c-.563 3.065-.449 6.132.332 8.896.782 2.764 2.203 5.128 4.123 6.858a471.926 471.926 0 012.708-3.028l-3.023-10.119c3.172-1.083 6.137-3.208 8.521-6.108 2.195-2.695 3.877-5.881 4.903-9.288l-9-1.047z" fill="#231F20"/><path d="M52.25 122.711c.939-1.021 1.89-2.045 2.85-3.071l-.871-2.764c-1.47 1.026-2.94 2.062-4.407 3.071a12.55 12.55 0 002.427 2.764z" fill="#231F20"/><path d="M127.192 90.201l-9.268 11.79c-1.244-3.043-2.48-6.086-3.707-9.129l-11.237.078c-.061.398-1.228 9.75 4.635 14.406.417.336 5.548 4.231 11.988.769 5.056-2.676 8.834-8.86 9.573-15.598l-1.984-2.316z" fill="#9BAFE2"/><path opacity=".2" d="M127.192 90.201l-9.268 11.79c-1.244-3.043-2.48-6.086-3.707-9.129l-11.237.078c-.061.398-1.228 9.75 4.635 14.406.417.336 5.548 4.231 11.988.769 5.056-2.676 8.834-8.86 9.573-15.598l-1.984-2.316z" fill="#231F20"/><path d="M129.196 93.357l-1.851-2.279-2.151 2.843c1.036 1.282 2.085 2.474 3.13 3.693a22.04 22.04 0 00.872-4.257z" fill="#231F20"/><path d="M23.926 14.905l-5.16-9.617c-2.318 2.81-3.2 6.454-2.216 9.089 1.34 3.605 5.908 4.611 7.138 3.171.485-.605.43-1.668.238-2.642z" fill="#FDE3FF"/><path opacity=".2" d="M16.565 14.31c1.4 3.667 6.168 4.69 7.451 3.225.176-.246.305-.525.378-.817.073-.292.09-.59.046-.87-3.073-1.336-5.801-3.359-8.04-5.96-.386 1.527-.328 3.08.165 4.422z" fill="#231F20"/><path d="M51.264 22.457l13.946-1.39a12.027 12.027 0 01-1.953 3.622 10.98 10.98 0 01-2.988 2.646c-3.378 1.825-7.412.99-9.845-2.243.282-.878.565-1.756.84-2.634z" fill="#FDE3FF"/><path opacity=".2" d="M50.739 23.904l-.307.986c2.479 3.377 6.586 4.27 10.03 2.344 1.073-.608 2.049-1.468 2.854-2.516-4.324.714-8.6.437-12.577-.814z" fill="#231F20"/><path d="M27.972 13.3c-5.204 10.949-8.221 22.771-8.806 34.504l19.768 5.017a653.029 653.029 0 018.375-20.254 682.338 682.338 0 016.313-14.075L27.972 13.3z" fill="#FDE3FF"/><path opacity=".3" d="M24.113 20.552a92.72 92.72 0 00-2.265 7.288 91.981 91.981 0 00-3.038 19.366l3.952 1.05c5.137-2.623 8.968-7.787 9.713-12.82.875-5.902-2.39-12.3-8.362-14.884z" fill="#131E32"/><path opacity=".2" d="M36.637 19.376c-3.604-.473-9.376.862-10.884 4.886-1.508 4.024 1.906 8.71 5.691 10.106 5.274 1.979 12.87-1.998 13.769-6.333.804-3.929-3.9-8.05-8.576-8.659z" fill="#fff"/><path d="M31.951 37.643c-6.4-.847-15.052 3.547-17.274 11.611-2.147 7.826 3.006 14.692 8.779 16.498 7.052 2.204 17.05-2.509 19.464-10.88 2.368-8.226-3.654-16.242-10.969-17.23z" fill="#A1748D"/><path opacity=".2" d="M14.533 49.732c-1.509 7.64 3.627 14.19 9.32 15.971 6.846 2.131 16.365-1.994 19.62-9.612-.6.09-1.204.162-1.798.215-9.677.488-19.53-1.19-27.142-6.574z" fill="#231F20"/><path d="M26.13 15.126c-.066-4.898 1.385-9.922 4.06-14.059.132 5.148.261 10.293.39 15.434l-4.45-1.375zm25.621 5.667c2.64-4.137 4.014-9.06 3.854-13.818L46.938 19.09l4.813 1.704z" fill="#944E74"/><path opacity=".2" d="M30.161 11.664a6.528 6.528 0 01-3.592-1.137 23.426 23.426 0 00-.401 4.573l5.035 1.409a993.439 993.439 0 01-.13-4.879c-.307.034-.61.046-.912.034zM52.499 16.4a6.827 6.827 0 01-2.978-.741l-2.529 3.351 5.253 1.765a25.045 25.045 0 002.463-4.67c-.736.21-1.48.31-2.21.295z" fill="#231F20"/><path d="M27.527 20.143c-.702-.17-1.861 1.656-2.383 3.283-.624 1.948-.54 4.387.161 4.566.701.18 1.997-1.85 2.494-3.72.498-1.869.404-3.977-.272-4.129zm17.739 3.573c-.665-.178-1.86 1.647-2.384 3.283-.624 1.947-.54 4.387.163 4.557.702.17 1.996-1.841 2.493-3.71.498-1.87.401-3.961-.272-4.13z" fill="#131E32"/><path d="M37.261 18.409c-.773-1.033-1.23-2.348-1.314-3.785-.084-1.438.208-2.935.84-4.309.452 1.132.9 2.261 1.347 3.387.887-1.607 1.783-3.213 2.671-4.828-.255 1.74-.47 3.47-.71 5.201l3.139-2.18a7.735 7.735 0 01-1.11 3.383 7.812 7.812 0 01-2.195 2.16c-.843.542-1.755.874-2.668.97z" fill="#FDE3FF"/><path d="M21.475 40.59c-1.056-2.616-3.12-3.577-4.165-2.944-1.046.632-1.852 3.505-.667 6.325l4.832-3.381zm18.36 4.007c2.318-1.98 4.67-2.1 5.292-1.154.622.946-.139 3.83-2.668 5.952l-2.624-4.798z" fill="#A1748D"/><path d="M28.503 52.632c-2.845-.473-6.883 1.174-7.732 4.164-.85 2.989 1.854 5.875 4.516 6.584 3.02.83 7.36-.756 8.317-3.705.958-2.95-1.858-6.496-5.1-7.043z" fill="#AB7B96"/><path opacity=".2" d="M20.917 56.268c-.018.114-.085.226-.119.34-.859 3.041 1.903 6.033 4.636 6.762 3.1.85 7.554-.777 8.537-3.806a.21.21 0 00.011-.076c-4.71.298-9.218-.813-13.065-3.22z" fill="#231F20"/><path d="M27.87 55.075c-1.83-.302-4.42.687-4.969 2.483-.549 1.796 1.247 3.906 3.164 4.34 1.918.434 4.69-.625 5.284-2.448.593-1.823-1.368-4.03-3.479-4.375z" fill="#291822"/><path d="M17.915 39.248c-.577.314-1.01 1.8-.442 3.362l2.532-1.764c-.536-1.352-1.546-1.905-2.09-1.598zm26.06 5.223c.335.464-.017 1.878-1.235 2.998l-1.278-2.382c1.08-.932 2.207-1.06 2.513-.616z" fill="#824A6C"/><defs><linearGradient id="paint0_linear_132_5756" x1="84.249" y1="60.196" x2="82.609" y2="131.692" gradientUnits="userSpaceOnUse"><stop stop-color="#FCDBFF"/><stop offset="1" stop-color="#1C75BC"/></linearGradient></defs></svg>