<svg width="16" height="21" fill="none" xmlns="http://www.w3.org/2000/svg"><path d="M14.458 6.97a1.913 1.913 0 00-.546-1.201 1.683 1.683 0 00-1.209-.504H11.67v-.89c0-.97-.39-1.841-1.034-2.46A3.504 3.504 0 008.16.886c-.974 0-1.852.387-2.476 1.027a3.394 3.394 0 00-1.034 2.46v.89H3.617c-.488 0-.897.195-1.209.505-.312.31-.507.736-.546 1.201L.83 18.438v.135c0 .427.175.833.487 1.124.293.272.683.465 1.092.504h11.484a1.898 1.898 0 001.112-.504c.312-.29.488-.697.488-1.142v-.136L14.458 6.97zM5.723 4.374c0-.678.273-1.279.722-1.724a2.434 2.434 0 011.734-.716c.683 0 1.288.27 1.736.716.448.445.721 1.046.721 1.724v.89H5.723v-.89zm8.677 14.2a.49.49 0 01-.176.387.808.808 0 01-.448.213H2.505a.751.751 0 01-.448-.213.485.485 0 01-.175-.388v-.057L2.914 7.067a.887.887 0 01.253-.543.635.635 0 01.449-.193H4.65v2.363c0 .29.234.523.527.523a.523.523 0 00.526-.523V6.33h4.875v2.363c0 .29.234.523.526.523a.523.523 0 00.527-.523V6.33h1.033a.64.64 0 01.449.193c.136.136.234.33.253.543L14.4 18.535v.038z" fill="#fff"/></svg>