<svg width="44" height="44" fill="none" xmlns="http://www.w3.org/2000/svg"><g clip-path="url(#clip0_161_9196)" fill="#FF512F"><path d="M15.193 0H5.088A5.094 5.094 0 000 5.088v10.105a5.094 5.094 0 005.088 5.088h10.105a5.094 5.094 0 005.088-5.088V5.088A5.094 5.094 0 0015.193 0zm1.65 15.193c0 .91-.74 1.65-1.65 1.65H5.088c-.91 0-1.65-.74-1.65-1.65V5.088c0-.91.74-1.65 1.65-1.65h10.105c.91 0 1.65.74 1.65 1.65v10.105zM38.844 0h-9.969a5.162 5.162 0 00-5.156 5.156v9.969a5.162 5.162 0 005.156 5.156h9.969A5.162 5.162 0 0044 15.125V5.156A5.162 5.162 0 0038.844 0zm1.718 15.125a1.72 1.72 0 01-1.718 1.719h-9.969a1.72 1.72 0 01-1.719-1.719V5.156a1.72 1.72 0 011.719-1.718h9.969a1.72 1.72 0 011.718 1.718v9.969zm-25.369 8.594H5.088A5.094 5.094 0 000 28.807v10.105A5.094 5.094 0 005.088 44h10.105a5.094 5.094 0 005.088-5.088V28.807a5.094 5.094 0 00-5.088-5.088zm1.65 15.193c0 .91-.74 1.65-1.65 1.65H5.088c-.91 0-1.65-.74-1.65-1.65V28.807c0-.91.74-1.65 1.65-1.65h10.105c.91 0 1.65.74 1.65 1.65v10.105zm22.001-15.193h-9.969a5.162 5.162 0 00-5.156 5.156v9.969A5.162 5.162 0 0028.875 44h9.969A5.162 5.162 0 0044 38.844v-9.969a5.162 5.162 0 00-5.156-5.156zm1.718 15.125a1.72 1.72 0 01-1.718 1.718h-9.969a1.72 1.72 0 01-1.719-1.718v-9.969a1.72 1.72 0 011.719-1.719h9.969a1.72 1.72 0 011.718 1.719v9.969z"/></g><defs><clipPath id="clip0_161_9196"><path fill="#fff" d="M0 0h44v44H0z"/></clipPath></defs></svg>