<svg width="44" height="44" fill="none" xmlns="http://www.w3.org/2000/svg"><g clip-path="url(#clip0_161_9212)" fill="#FF512F"><path d="M37.583 11.82H6.417A6.424 6.424 0 000 18.235v18.333a6.424 6.424 0 006.417 6.417h31.166A6.424 6.424 0 0044 36.569V18.236a6.424 6.424 0 00-6.417-6.417zm4.584 24.75a4.589 4.589 0 01-4.584 4.583H6.417a4.588 4.588 0 01-4.584-4.584V18.236a4.589 4.589 0 014.584-4.583h31.166a4.588 4.588 0 014.584 4.583v18.333z"/><path d="M35.75 24.652a2.753 2.753 0 00-2.75 2.75 2.753 2.753 0 002.75 2.75 2.753 2.753 0 002.75-2.75 2.753 2.753 0 00-2.75-2.75zm0 3.667a.918.918 0 01-.917-.917.918.918 0 011.834 0 .918.918 0 01-.917.917z"/><path d="M43.084 20.986H35.75a6.424 6.424 0 00-6.416 6.416 6.424 6.424 0 006.416 6.417h7.334c.505 0 .916-.41.916-.916v-11a.917.917 0 00-.916-.917zm-.917 11H35.75a4.588 4.588 0 01-4.583-4.584 4.589 4.589 0 014.583-4.583h6.417v9.167zm-4.681-19.661l-3.881-7.762a6.364 6.364 0 00-3.802-3.247 6.383 6.383 0 00-4.98.468L5.982 11.929a.916.916 0 10.869 1.614L25.696 3.4a4.539 4.539 0 013.555-.336 4.54 4.54 0 012.715 2.32l3.881 7.762a.917.917 0 101.639-.822z"/><path d="M33.809 4.97a.92.92 0 00-1.243-.374l-13.62 7.333a.916.916 0 10.87 1.615l13.62-7.333a.916.916 0 00.373-1.241zM16.5 6.32h-6.417C4.525 6.32 0 10.841 0 16.402v1.833a.917.917 0 001.833 0v-1.833c0-4.549 3.702-8.25 8.25-8.25H16.5a.917.917 0 000-1.834zm17.417 0a.917.917 0 000 1.833c4.548 0 8.25 3.701 8.25 8.25v1.833a.917.917 0 001.833 0v-1.833c0-5.56-4.525-10.084-10.083-10.084z"/></g><defs><clipPath id="clip0_161_9212"><path fill="#fff" d="M0 0h44v44H0z"/></clipPath></defs></svg>