<svg width="20" height="18" fill="none" xmlns="http://www.w3.org/2000/svg"><path d="M10 18a1.16 1.16 0 01-.773-.294 231.793 231.793 0 00-2.274-1.979l-.004-.003c-2.015-1.737-3.755-3.237-4.965-4.714C.63 9.358 0 7.79 0 6.08c0-1.662.564-3.196 1.587-4.318a5.35 5.35 0 014-1.762C6.742 0 7.8.37 8.73 1.097c.47.368.895.818 1.27 1.342.375-.524.8-.974 1.27-1.342C12.202.37 13.26 0 14.414 0a5.35 5.35 0 014 1.762C19.438 2.884 20 4.418 20 6.08c0 1.711-.63 3.278-1.983 4.93-1.211 1.477-2.951 2.977-4.966 4.714-.688.593-1.468 1.266-2.278 1.982-.214.19-.488.294-.773.294zM5.587 1.185a4.2 4.2 0 00-3.14 1.38c-.822.903-1.276 2.151-1.276 3.515 0 1.44.53 2.726 1.715 4.173 1.145 1.399 2.85 2.868 4.823 4.57l.004.002c.69.595 1.471 1.27 2.285 1.99a293.16 293.16 0 012.293-1.993c1.974-1.701 3.678-3.17 4.823-4.569C18.3 8.806 18.828 7.52 18.828 6.08c0-1.364-.453-2.612-1.276-3.515a4.197 4.197 0 00-3.139-1.38c-.889 0-1.705.286-2.426.85-.642.502-1.09 1.138-1.352 1.582a.732.732 0 01-.635.365.732.732 0 01-.635-.365c-.262-.444-.71-1.08-1.352-1.582a3.857 3.857 0 00-2.426-.85z" fill="#A1A1A1"/></svg>