<svg width="32" height="32" xmlns="http://www.w3.org/2000/svg"><path d="M16 31.963c-.456 0-.895-.183-1.237-.514a384.15 384.15 0 00-3.639-3.46l-.005-.006c-3.224-3.038-6.008-5.662-7.945-8.246C1.009 16.847 0 14.108 0 11.116c0-2.908.902-5.59 2.539-7.554 1.656-1.986 3.929-3.08 6.4-3.08 1.848 0 3.54.645 5.028 1.919.752.642 1.433 1.43 2.033 2.347a10.92 10.92 0 012.033-2.347c1.489-1.274 3.18-1.92 5.028-1.92 2.471 0 4.744 1.095 6.4 3.081C31.1 5.526 32 8.208 32 11.116c0 2.992-1.008 5.732-3.174 8.62-1.937 2.585-4.72 5.209-7.944 8.246a380.994 380.994 0 00-3.645 3.467 1.777 1.777 0 01-1.237.514zM8.94 2.554c-1.942 0-3.726.857-5.023 2.413C2.6 6.547 1.873 8.73 1.873 11.116c0 2.517.846 4.768 2.743 7.298 1.833 2.446 4.56 5.016 7.717 7.991l.006.006c1.104 1.04 2.355 2.22 3.657 3.478a452.27 452.27 0 013.67-3.484c3.156-2.976 5.883-5.545 7.716-7.99 1.897-2.531 2.743-4.782 2.743-7.3 0-2.385-.726-4.568-2.043-6.148-1.297-1.556-3.08-2.413-5.022-2.413-1.423 0-2.729.5-3.882 1.486-1.027.88-1.743 1.99-2.163 2.768-.215.4-.595.638-1.016.638-.42 0-.8-.238-1.016-.638-.42-.778-1.136-1.889-2.163-2.768-1.153-.986-2.46-1.486-3.882-1.486z"/></svg>