<svg width="42" height="41" fill="none" xmlns="http://www.w3.org/2000/svg"><path d="M41.5 20.5c0 11.034-9.167 20-20.5 20S.5 31.534.5 20.5 9.667.5 21 .5s20.5 8.966 20.5 20z" stroke="#A1A1A1"/><path d="M25.584 11.551h-9.167c-2.532 0-4.584 2.003-4.584 4.475v8.948c0 2.47 2.053 4.474 4.584 4.474h9.166c2.532 0 4.584-2.003 4.584-4.474v-8.948c0-2.472-2.052-4.475-4.584-4.475z" stroke="#A1A1A1" stroke-linecap="round" stroke-linejoin="round"/><path d="M24.667 19.936a3.505 3.505 0 01-.373 2.174 3.626 3.626 0 01-1.606 1.548 3.746 3.746 0 01-2.23.337 3.7 3.7 0 01-2.011-1.003 3.55 3.55 0 01-1.027-1.962 3.505 3.505 0 01.345-2.178 3.623 3.623 0 011.586-1.568 3.745 3.745 0 012.227-.364 3.7 3.7 0 012.054 1.01 3.549 3.549 0 011.035 2.006z" stroke="#A1A1A1" stroke-linecap="round" stroke-linejoin="round"/><path d="M26.041 15.578h.01" stroke="#A1A1A1" stroke-width="2" stroke-linecap="round" stroke-linejoin="round"/></svg>