<svg width="42" height="41" fill="none" xmlns="http://www.w3.org/2000/svg"><path d="M41.5 20.5c0 11.034-9.167 20-20.5 20S.5 31.534.5 20.5 9.667.5 21 .5s20.5 8.966 20.5 20z" stroke="#A1A1A1"/><path d="M24.666 17.246c1.46 0 2.858.591 3.89 1.644a5.673 5.673 0 011.61 3.969v6.548H26.5V22.86a1.89 1.89 0 00-.537-1.323 1.815 1.815 0 00-1.297-.548c-.486 0-.952.197-1.296.548a1.89 1.89 0 00-.537 1.323v6.548h-3.666V22.86c0-1.489.579-2.917 1.61-3.97a5.445 5.445 0 013.89-1.643v0zm-9.166.935h-3.666v11.226H15.5V18.181zm-1.833-2.806c1.012 0 1.833-.838 1.833-1.871 0-1.034-.82-1.871-1.833-1.871s-1.833.837-1.833 1.87c0 1.034.82 1.872 1.833 1.872z" stroke="#A1A1A1" stroke-linecap="round" stroke-linejoin="round"/></svg>