<svg width="44" height="44" fill="none" xmlns="http://www.w3.org/2000/svg"><path d="M39.263 0H22.565c-.342 0-.67.136-.912.378L1.386 20.646a4.742 4.742 0 000 6.698l15.27 15.27a4.704 4.704 0 003.35 1.384 4.703 4.703 0 003.349-1.384l20.268-20.268a1.29 1.29 0 00.377-.912V4.736A4.742 4.742 0 0039.264 0zm2.158 20.9l-19.89 19.891a2.141 2.141 0 01-1.526.628c-.58 0-1.122-.222-1.526-.627L3.207 25.52a2.161 2.161 0 010-3.052l19.89-19.89h16.165a2.16 2.16 0 012.159 2.157V20.9z" fill="#FF512F"/><path d="M32.638 7.312c-1.082 0-2.1.421-2.864 1.186a4.023 4.023 0 00-1.187 2.864c0 1.082.422 2.1 1.187 2.864a4.024 4.024 0 002.864 1.186 4.024 4.024 0 002.864-1.186 4.024 4.024 0 001.186-2.864c0-1.082-.421-2.1-1.186-2.864a4.024 4.024 0 00-2.864-1.186zm1.04 5.091a1.462 1.462 0 01-1.04.431c-.394 0-.763-.153-1.041-.431a1.462 1.462 0 01-.431-1.041c0-.393.153-.763.43-1.041a1.462 1.462 0 011.042-.431c.393 0 .763.153 1.04.431.28.278.432.648.432 1.041 0 .393-.153.763-.431 1.041z" fill="#FF512F"/></svg>