<svg width="42" height="41" fill="none" xmlns="http://www.w3.org/2000/svg"><path d="M41.5 20.5c0 11.034-9.167 20-20.5 20S.5 31.534.5 20.5 9.667.5 21 .5s20.5 8.966 20.5 20z" stroke="#A1A1A1"/><g clip-path="url(#clip0_322_10611)"><path d="M31.167 12.7a10.139 10.139 0 01-2.879 1.355 4.131 4.131 0 00-2.102-1.246 4.24 4.24 0 00-2.46.142 4.082 4.082 0 00-1.934 1.48 3.878 3.878 0 00-.709 2.283v.886a10.05 10.05 0 01-4.646-1.005 9.687 9.687 0 01-3.604-3.01s-3.666 7.977 4.584 11.523A10.94 10.94 0 0111 26.88c8.25 4.432 18.333 0 18.333-10.192a3.86 3.86 0 00-.073-.736 6.789 6.789 0 001.907-3.253v0z" stroke="#A1A1A1" stroke-linecap="round" stroke-linejoin="round"/></g><defs><clipPath id="clip0_322_10611"><path fill="#fff" transform="translate(10 11.714)" d="M0 0h22v17.571H0z"/></clipPath></defs></svg>