<svg width="70" height="70" fill="none" xmlns="http://www.w3.org/2000/svg"><path d="M59.749 10.251C53.139 3.641 44.349 0 35 0c-9.349 0-18.138 3.64-24.749 10.251C3.641 16.861 0 25.651 0 35c0 9.349 3.64 18.138 10.251 24.749C16.861 66.359 25.651 70 35 70c9.349 0 18.138-3.64 24.749-10.251C66.359 53.139 70 44.349 70 35c0-9.349-3.64-18.138-10.251-24.749zM35 67.266C17.209 67.266 2.734 52.79 2.734 35 2.734 17.209 17.21 2.734 35 2.734 52.791 2.734 67.266 17.21 67.266 35c0 17.791-14.475 32.266-32.266 32.266z" fill="#A9AFC3"/><path d="M29.266 61.182l-.084-.018a1.368 1.368 0 00-.593 2.67l.095.02a1.368 1.368 0 00.582-2.672zm5.712-3.423c-.754 0-1.367.612-1.367 1.367v4.038a1.367 1.367 0 002.735 0v-4.038c0-.755-.612-1.367-1.367-1.367zM62.81 39.688a1.368 1.368 0 00-1.627 1.045 26.727 26.727 0 01-21.087 20.58 1.367 1.367 0 10.516 2.685 29.395 29.395 0 0015.024-7.873 29.41 29.41 0 008.218-14.81 1.367 1.367 0 00-1.044-1.627zM24.67 59.734c-8.31-3.476-14.286-10.817-15.983-19.639A1.366 1.366 0 106 40.612a29.533 29.533 0 006.144 13.09 29.7 29.7 0 0011.47 8.554 1.367 1.367 0 001.055-2.523zm38.494-26.08h-3.691a1.367 1.367 0 000 2.734h3.691a1.367 1.367 0 000-2.734zM10.8 33.612H6.837a1.367 1.367 0 000 2.734H10.8a1.367 1.367 0 000-2.734zm24.2-3.26A4.654 4.654 0 0030.352 35 4.654 4.654 0 0035 39.648 4.654 4.654 0 0039.648 35 4.654 4.654 0 0035 30.352zm0 6.562A1.916 1.916 0 0133.086 35c0-1.056.858-1.914 1.914-1.914s1.914.858 1.914 1.914A1.916 1.916 0 0135 36.914z" fill="#A9AFC3"/><path d="M31.718 33.633h-6.243a1.367 1.367 0 000 2.734h6.243a1.367 1.367 0 000-2.734zM35 17.546c-.755 0-1.367.612-1.367 1.367v12.806a1.367 1.367 0 002.734 0V18.913c0-.755-.612-1.367-1.367-1.367zm28.998 11.842a29.502 29.502 0 00-17.273-21.5 1.367 1.367 0 00-1.086 2.51 26.77 26.77 0 0115.674 19.507 1.368 1.368 0 002.685-.517zM41.347 6.153l-.035-.008a1.367 1.367 0 10-.576 2.673l.016.004a1.368 1.368 0 00.596-2.669zm-10.359.933a1.367 1.367 0 00-1.6-1.084 29.395 29.395 0 00-15.025 7.874 29.41 29.41 0 00-8.218 14.809 1.367 1.367 0 002.672.582 26.727 26.727 0 0121.087-20.58 1.367 1.367 0 001.084-1.601zm4.034-1.617c-.755 0-1.368.612-1.368 1.367V9.9a1.367 1.367 0 002.735 0V6.836c0-.755-.613-1.367-1.367-1.367z" fill="#A9AFC3"/></svg>