<svg width="70" height="70" fill="none" xmlns="http://www.w3.org/2000/svg"><g clip-path="url(#clip0)" fill="#A9AFC3"><path d="M67.321 29.454h-1.25c-1.134-6.31-4.152-12.118-8.782-16.747-5.99-5.99-13.954-9.289-22.426-9.289-8.47 0-16.436 3.299-22.426 9.29C7.775 17.37 4.745 23.227 3.63 29.59H2.405a2.545 2.545 0 00-2.542 2.542v9.238a2.545 2.545 0 002.542 2.542h1.983A31.71 31.71 0 0014.207 59.2a1.027 1.027 0 001.337-1.557 29.728 29.728 0 01-3.383-3.42 39.363 39.363 0 014.787-1.653 34.032 34.032 0 002.581 3.906c2.091 2.733 4.452 5.137 6.969 7.12a29.42 29.42 0 01-6.02-2.515 1.026 1.026 0 00-.997 1.795 31.746 31.746 0 0015.382 3.973c8.472 0 16.436-3.299 22.426-9.29 3.848-3.847 6.582-8.51 8.048-13.598h1.984a2.545 2.545 0 002.542-2.543v-9.422a2.545 2.545 0 00-2.542-2.542zm-3.34 0h-7.14a36.172 36.172 0 00-3.134-10.005c.19-.052.38-.102.567-.156 1.307-.373 2.97-.882 4.605-1.581a29.34 29.34 0 015.103 11.742zm-9.197.137H44.177a73.405 73.405 0 00-1.01-8.19 66.445 66.445 0 008.511-1.431 34.09 34.09 0 013.106 9.621zm1.054-15.433a30.366 30.366 0 011.724 1.878c-1.367.549-2.743.966-3.852 1.284-.322.091-.645.18-.97.266a36.08 36.08 0 00-2.143-3.387 35.262 35.262 0 00-7.242-7.5 29.515 29.515 0 0112.483 7.46zm-17.81-8.52c4.36 2.45 8.027 5.731 10.899 9.754a33.95 33.95 0 011.741 2.705 64.899 64.899 0 01-7.901 1.283c-1.188-5.532-2.988-10.297-5.242-13.79.168.014.336.03.504.049zm-3.165-.167h.075c2.494 3.292 4.488 8.208 5.773 14.088-2.193.158-4.44.223-6.735.189a106.656 106.656 0 01-4.963-.177c1.285-5.885 3.28-10.806 5.776-14.1h.074zm-2.66.119c-2.261 3.5-4.063 8.28-5.252 13.829-2.577-.224-5.267-.596-7.959-1.209a33.938 33.938 0 011.808-2.819c2.872-4.022 6.539-7.302 10.898-9.753.168-.018.336-.034.504-.048zM26.55 21.445a73.32 73.32 0 00-1.001 8.146H14.942a34.118 34.118 0 013.05-9.506c2.898.696 5.793 1.11 8.559 1.36zm-12.662-7.287a29.515 29.515 0 0112.483-7.46 35.235 35.235 0 00-7.243 7.5 35.917 35.917 0 00-2.2 3.494 39.297 39.297 0 01-4.77-1.65 30.51 30.51 0 011.73-1.884zm-3.042 3.556a40.698 40.698 0 005.123 1.838 36.184 36.184 0 00-3.107 10.04H5.718a29.338 29.338 0 015.129-11.878zM2.405 41.861a.49.49 0 01-.489-.49v-9.238c0-.27.22-.49.49-.49h29.629a1.026 1.026 0 100-2.052h-4.428a71.506 71.506 0 011-7.988 107.4 107.4 0 006.55.206c2.026 0 4.013-.076 5.96-.223a71.68 71.68 0 011.004 8.005h-3.677a1.027 1.027 0 000 2.052h15.921V41.86H2.405zm51.714 2.052a32.665 32.665 0 01-2.447 6.382 66.481 66.481 0 00-8.494-1.431c.295-1.605.537-3.26.724-4.95h10.217v-.001zm-12.28 0a67.306 67.306 0 01-.713 4.769 79.535 79.535 0 00-7.18-.216c-1.675.024-3.473.078-5.349.198a67.508 67.508 0 01-.709-4.751h13.95zM10.853 52.55a29.638 29.638 0 01-4.323-8.637h6.96a34.794 34.794 0 002.48 6.802 40.637 40.637 0 00-5.117 1.835zm4.757-8.637h10.213c.186 1.677.426 3.318.718 4.91-2.762.249-5.652.664-8.544 1.357a32.67 32.67 0 01-2.387-6.267zm16.078 20.71c-3.84-2.164-7.48-5.41-10.528-9.394a31.858 31.858 0 01-2.14-3.18c2.68-.608 5.36-.977 7.925-1.2a52.684 52.684 0 001.442 5.326c.818 2.472 2.102 5.77 3.83 8.5a25.579 25.579 0 01-.53-.053zm3.175.173h-.074c-1.617-2.142-3.154-5.338-4.453-9.266a50.359 50.359 0 01-1.322-4.834c1.736-.106 3.403-.155 4.962-.177a78.243 78.243 0 016.734.19 50.418 50.418 0 01-1.32 4.821c-1.298 3.928-2.836 7.124-4.452 9.265l-.075.001zm2.645-.117c1.728-2.731 3.014-6.03 3.831-8.504a52.475 52.475 0 001.433-5.287c2.717.275 5.343.7 7.867 1.275a31.847 31.847 0 01-2.072 3.066c-3.052 3.989-6.695 7.236-10.539 9.4-.173.018-.346.034-.52.05zm18.33-8.57c-3.576 3.575-7.905 6.124-12.628 7.501 2.523-1.984 4.891-4.394 6.987-7.134a33.906 33.906 0 002.521-3.801c.332.088.663.179.992.272 1.108.317 2.483.735 3.85 1.283a30.099 30.099 0 01-1.722 1.878zm3.038-3.556c-1.633-.697-3.296-1.206-4.602-1.58-.188-.053-.378-.103-.567-.155a34.78 34.78 0 002.518-6.857h6.966a29.336 29.336 0 01-4.315 8.593zm8.935-11.182c0 .27-.22.49-.49.49H56.417V31.644h10.904c.27 0 .49.22.49.49v9.237z"/><path d="M26.214 36.363a.525.525 0 01-.508.516.516.516 0 010-1.032.52.52 0 01.508.516zm0 2.215a.525.525 0 01-.508.515.516.516 0 010-1.03.52.52 0 01.508.515zm22.429.379c-.053.13-.22.174-.386.174-.19 0-.357-.06-.403-.174l-.583-1.654-.577 1.646c-.046.122-.228.182-.417.182-.16 0-.326-.045-.38-.182l-1.167-2.995a.31.31 0 01-.038-.144c0-.235.379-.403.637-.403.129 0 .242.053.28.16l.76 2.154.568-1.874c.053-.174.181-.197.333-.197.144 0 .281.023.334.197l.561 1.88.767-2.16c.037-.1.144-.16.28-.16.242 0 .63.167.63.41a.278.278 0 01-.03.137l-1.169 3.003zm-5.712 0c-.052.13-.22.174-.386.174-.19 0-.357-.06-.402-.174l-.584-1.654-.577 1.646c-.045.122-.227.182-.417.182-.16 0-.326-.045-.38-.182l-1.167-2.995a.31.31 0 01-.038-.144c0-.235.379-.403.637-.403.129 0 .242.053.28.16l.76 2.154.568-1.874c.053-.174.182-.197.334-.197.144 0 .28.023.333.197l.561 1.88.767-2.16c.038-.1.144-.16.28-.16.243 0 .63.167.63.41a.278.278 0 01-.03.137l-1.169 3.003zm-5.711 0c-.053.13-.22.174-.386.174-.19 0-.357-.06-.403-.174l-.584-1.654-.576 1.646c-.046.122-.228.182-.417.182-.16 0-.326-.045-.38-.182l-1.167-2.995a.312.312 0 01-.038-.144c0-.235.379-.403.637-.403.129 0 .242.053.28.16l.758 2.154.57-1.874c.053-.174.181-.197.333-.197.144 0 .281.023.334.197l.561 1.88.766-2.16c.038-.1.144-.16.28-.16.243 0 .63.167.63.41a.278.278 0 01-.03.137l-1.168 3.003zm-13.88-.91c0-.667-1.798-.25-1.798-1.517 0-.538.341-1.13 1.357-1.13.615 0 1.206.213 1.206.493 0 .137-.128.47-.356.47-.182 0-.417-.22-.834-.22-.38 0-.531.19-.531.342 0 .553 1.82.174 1.82 1.524 0 .675-.5 1.108-1.395 1.108-.774 0-1.373-.32-1.373-.653 0-.16.136-.432.326-.432.22 0 .387.341 1.024.341.447 0 .553-.174.553-.326zm-5.166-2.298v.227a1.192 1.192 0 011.024-.576c.758 0 1.357.698 1.357 1.54v.621c0 .812-.621 1.556-1.327 1.556-.455 0-.85-.289-.993-.6v1.896c0 .16-.228.311-.501.311-.28 0-.478-.152-.478-.31v-4.665c0-.182.205-.304.463-.304.265 0 .455.122.455.304zm1.403 1.19a.712.712 0 00-.69-.682.663.663 0 00-.652.683v.758c0 .16.28.561.667.561.357 0 .675-.348.675-.698v-.621zm-4.444.881c0 .295.105.401.424.401h.296c.28 0 .417.206.417.41 0 .213-.137.417-.417.417h-.296c-.91 0-1.403-.372-1.403-1.229v-3.678c0-.182.258-.303.486-.303.25 0 .493.121.493.303v1.304h.895c.159 0 .25.182.25.357 0 .182-.091.356-.25.356h-.895v1.661zm-3.088 0c0 .295.107.401.425.401h.296c.28 0 .417.206.417.41 0 .213-.136.417-.417.417h-.296c-.91 0-1.403-.372-1.403-1.229v-3.678c0-.182.258-.303.486-.303.25 0 .493.121.493.303v1.304h.895c.159 0 .25.182.25.357 0 .182-.091.356-.25.356h-.895v1.661zm-4.414.917c0 .152-.228.311-.493.311-.288 0-.486-.16-.486-.31v-5.09c0-.182.198-.304.486-.304.265 0 .493.122.493.304v2.328a1.04 1.04 0 01.956-.576c.697 0 1.304.698 1.304 1.54v1.797c0 .205-.25.311-.493.311-.228 0-.486-.106-.486-.311V36.94c0-.342-.303-.683-.66-.683-.31 0-.621.258-.621.683v1.797zm22.914-5.195c0 .045-.008.09-.03.136l-2.723 5.507a.33.33 0 01-.296.167c-.22 0-.364-.175-.364-.334 0-.046.015-.091.038-.129l2.722-5.529a.296.296 0 01.274-.16c.182 0 .379.137.379.342zm2.291 0a.3.3 0 01-.03.136l-2.723 5.507c-.053.106-.175.167-.296.167-.22 0-.364-.175-.364-.334 0-.046.015-.091.038-.129l2.723-5.529a.295.295 0 01.273-.16c.181 0 .38.137.38.342zm32.261 1.021l-1.107-.161-.495-1.004a1.53 1.53 0 00-1.38-.858c-.591 0-1.12.329-1.382.858l-.495 1.004-1.107.16a1.53 1.53 0 00-1.243 1.048 1.53 1.53 0 00.39 1.58l.8.78-.188 1.103c-.1.582.134 1.16.612 1.506a1.53 1.53 0 001.622.118l.99-.521.99.52a1.535 1.535 0 001.622-.117 1.53 1.53 0 00.613-1.506l-.19-1.103.802-.78a1.532 1.532 0 00.39-1.58 1.531 1.531 0 00-1.243-1.047zm-1.573 2.126a1.541 1.541 0 00-.443 1.362l.06.345-.31-.162a1.54 1.54 0 00-1.434 0l-.309.162.059-.345a1.538 1.538 0 00-.443-1.362l-.25-.245.346-.05a1.541 1.541 0 001.16-.842l.154-.313.155.313c.224.455.658.77 1.16.842l.345.05-.25.245z"/></g><defs><clipPath id="clip0"><path fill="#fff" d="M0 0h70v70H0z"/></clipPath></defs></svg>