<svg width="70" height="70" fill="none" xmlns="http://www.w3.org/2000/svg"><g clip-path="url(#clip0)" fill="#A9AFC3"><path d="M60.161 0h-3.01c-1.322 0-1.322 2.051 0 2.051h3.01c3.108 0 5.637 2.52 5.637 5.616v23.734c0 3.097-2.529 5.617-5.637 5.617h-3.413c-.225 0-.444.074-.623.211L49.86 42.02v-3.977c0-.566-.459-1.025-1.025-1.025H36.354a5.609 5.609 0 01-2.87-.783V24.723a6.258 6.258 0 00-2.767-5.189V7.667c0-3.096 2.53-5.616 5.637-5.616h14.37c1.324 0 1.324-2.051 0-2.051h-14.37c-4.239 0-7.688 3.44-7.688 7.667v10.966a6.29 6.29 0 00-1.462-.173H8.43c-3.462 0-6.279 2.81-6.279 6.263v2.215c0 1.322 2.051 1.322 2.051 0v-2.215c0-2.323 1.897-4.212 4.228-4.212h18.774c2.332 0 4.229 1.89 4.229 4.212v11.92a.991.991 0 000 .272v6.524c0 .13-.008.258-.02.385h-2.115a4.758 4.758 0 00-4.676 3.893 1.026 1.026 0 00-.266.148l-4.587 3.542v-2.73c0-.566-.459-1.026-1.025-1.026H8.43c-2.331 0-4.228-1.89-4.228-4.212V33.091c0-1.323-2.051-1.323-2.051 0v10.348c0 3.454 2.817 6.264 6.28 6.264h9.287v3.791c0 .823 1 1.316 1.653.812l5.173-3.994v11.537c0 2.615 2.133 4.742 4.754 4.742h6.294v2.394c0 .822.998 1.316 1.652.811l4.15-3.205h1.227c2.621 0 4.754-2.127 4.754-4.742v-1.82c0-1.324-2.051-1.324-2.051 0v1.82a2.7 2.7 0 01-2.703 2.691h-1.576c-.227 0-.448.076-.627.214l-2.775 2.143v-1.331c0-.567-.46-1.026-1.026-1.026h-7.319a2.7 2.7 0 01-2.703-2.691V48.567a2.7 2.7 0 012.703-2.691h13.323a2.7 2.7 0 012.703 2.69v5.035c0 1.323 2.051 1.323 2.051 0v-5.034c0-2.615-2.133-4.742-4.754-4.742h-9.15c.009-.129.013-5.308.013-5.308a7.675 7.675 0 002.87.552H47.81v5.027c0 .82.995 1.314 1.649.814l7.636-5.84h3.066c4.24 0 7.688-3.44 7.688-7.668V7.667C67.85 3.44 64.4 0 60.161 0z"/><path d="M35.947 51.167a3.449 3.449 0 00-3.035-.682c-1.416.344-2.845 1.668-2.845 3.85 0 1.358.496 2.537 1.515 3.604.833.872 2.035 1.701 3.897 2.688a1.024 1.024 0 00.961 0c3.249-1.722 5.412-3.451 5.412-6.292 0-2.194-1.48-3.504-2.946-3.83-1.102-.244-2.17.015-2.959.662zm3.854 3.168c0 1.532-1.017 2.666-3.842 4.22-2.825-1.555-3.841-2.688-3.841-4.22 0-1.14.66-1.707 1.278-1.857.114-.028.236-.043.361-.043.465 0 .976.215 1.291.825a1.027 1.027 0 001.84-.036c.333-.711 1.03-.837 1.573-.716.648.143 1.34.699 1.34 1.827zM10.932 35.62a1.026 1.026 0 100 2.051h3.023l-.564 3.416a1.026 1.026 0 002.023.334l.62-3.75h2.474l-.564 3.416a1.026 1.026 0 002.023.334l.62-3.75h4.115a1.026 1.026 0 100-2.05h-3.776l.414-2.502h3.362a1.026 1.026 0 100-2.052h-3.023l.565-3.415a1.026 1.026 0 00-2.024-.335l-.62 3.75h-2.474l.565-3.415a1.026 1.026 0 00-2.024-.335l-.62 3.75h-4.115a1.025 1.025 0 100 2.051h3.776l-.414 2.502h-3.362zm5.855-2.502h2.474l-.413 2.502h-2.474l.413-2.502zM50.82 7.577c-1.302-.333-2.629.696-2.629 2.042 0 1.47-.536 2.887-1.508 3.988l-2.825 3.198a1.025 1.025 0 00-.86-.467h-5.515c-.567 0-1.026.46-1.026 1.026v12.41c0 .567.46 1.026 1.026 1.026h5.516c.414 0 .77-.246.932-.6a7.166 7.166 0 003.727 1.052h9.749c1.49 0 2.718-1.293 2.648-2.779-.03-.658.003-9.493.003-9.689a2.654 2.654 0 00-2.648-2.652l-5.07-.015.21-.497a8.007 8.007 0 00-.422-7.047 2.09 2.09 0 00-1.308-.996c.558.143-.558-.143 0 0s-1.302-.333 0 0zm-8.847 21.172h-3.465V18.39h3.465v10.36zm15.434-10.566c.331 0 .6.27.6.6l-.004 1.444c-.016 3.964-.026 7.718.004 8.343a.598.598 0 01-.6.63h-9.749a5.104 5.104 0 01-3.202-1.133l-.432-.35v-8.003l4.197-4.75a8.075 8.075 0 002.021-5.345c0-.058.08-.073.106-.028a5.944 5.944 0 01.313 5.231l-.81 1.917a1.026 1.026 0 00.942 1.424l6.614.02z"/></g><defs><clipPath id="clip0"><path fill="#fff" d="M0 0h70v70H0z"/></clipPath></defs></svg>