<svg width="70" height="70" fill="none" xmlns="http://www.w3.org/2000/svg"><g clip-path="url(#clip0)" fill="#A9AFC3"><path d="M66.338 26.622a16.212 16.212 0 003.485-12.653C68.515 5.046 60.223-1.127 51.3.18a16.328 16.328 0 00-10.26 5.802 8.364 8.364 0 01-8.61 2.959 20.939 20.939 0 00-8.28-.593A21.17 21.17 0 006.03 26.303c-.58 4.18.12 8.436 2.008 12.208a8.156 8.156 0 00-.933 16.243l1.259 12.907a2.333 2.333 0 002.332 2.333h6.806c.68 0 1.327-.299 1.77-.816.46-.55.65-1.279.513-1.983l-3.119-12.363h.584c1.29.007 2.578.1 3.855.278a25.612 25.612 0 0023.262 14.884c.77 0 1.547-.035 2.333-.104 12.373-1.221 22.123-11.079 23.209-23.465a25.465 25.465 0 00-3.817-15.662 3.558 3.558 0 01.246-4.141zM7.005 52.382a5.831 5.831 0 010-11.429v11.43zm10.497 15.28l-6.812-.117-1.236-12.713h4.804l3.244 12.83zM9.338 52.5V40.837h2.332V52.5H9.338zm7.908 0h-3.243V40.837h3.243a31.408 31.408 0 009.958-1.617l5.46-1.82v18.535l-5.46-1.819a31.414 31.414 0 00-9.958-1.616zm50.33-6.262c-1.03 12.82-12.258 22.378-25.079 21.348a23.289 23.289 0 01-18.523-11.958c.838.199 1.67.426 2.493.7l12.83 4.275a1.166 1.166 0 001.531-1.106v-5.831A4.665 4.665 0 0045.492 49v-4.665a4.665 4.665 0 00-4.666-4.666V33.84a1.166 1.166 0 00-1.534-1.107l-12.83 4.276a29.121 29.121 0 01-9.217 1.496h-6.55A18.532 18.532 0 018.34 26.609C9.75 16.406 19.163 9.278 29.366 10.687c.821.114 1.634.282 2.433.503a10.691 10.691 0 0011.043-3.725c4.883-5.986 13.694-6.88 19.68-1.998 5.987 4.882 6.882 13.694 1.999 19.68A5.893 5.893 0 0064.108 32a23.152 23.152 0 013.468 14.238zm-32.58 10.475v-20.09l3.499-1.166V57.88l-3.499-1.167zm5.831-5.38v-9.33a2.332 2.332 0 012.333 2.333V49a2.333 2.333 0 01-2.332 2.332z"/><path d="M46.619 58.047l-2.262.566 1.166 4.665 2.262-.566-1.166-4.665zm1.726-3.093l-1.043 2.087 4.665 2.332 1.043-2.086-4.665-2.333zM21 47.834h-4.665v2.333h4.666v-2.333zm0-4.664h-4.665v2.332h4.666v-2.333zm43.293-.815l-.497-.499a3.511 3.511 0 00-4.414-.436l-1.26.84-1.262-.84a3.51 3.51 0 00-4.414.436l-.5.5a3.499 3.499 0 000 4.947l5.35 5.347a1.166 1.166 0 001.648 0l5.35-5.347a3.5 3.5 0 000-4.948zm-1.647 3.298l-4.525 4.523-4.523-4.518a1.166 1.166 0 010-1.649l.498-.498a1.166 1.166 0 011.472-.146l1.907 1.271c.392.262.903.262 1.295 0l1.908-1.27a1.166 1.166 0 011.47.144v-.005l.497.498a1.166 1.166 0 01.001 1.65zM45.53 31.225l-1.167 4.665 2.261.566 1.168-4.665-2.262-.566zm6.438 3.903l-4.665 2.333 1.043 2.086 4.665-2.333-1.043-2.086zM30.33 21.01h-1.165a1.166 1.166 0 01-1.167-1.167v-3.499a3.499 3.499 0 10-6.998 0v3.5c0 .643-.522 1.166-1.166 1.166 0-.645-.522-1.167-1.166-1.167h-4.665c-.644 0-1.167.523-1.167 1.167v12.829c0 .644.523 1.166 1.167 1.166h4.665c.644 0 1.166-.522 1.166-1.166h10.497a3.499 3.499 0 003.499-3.499v-5.831a3.499 3.499 0 00-3.5-3.5zM17.503 32.672H15.17V22.176h2.333v10.497zm13.995-2.332c0 .644-.522 1.166-1.166 1.166H19.834v-8.164a3.499 3.499 0 003.5-3.499v-3.499a1.166 1.166 0 012.332 0v3.5a3.499 3.499 0 003.499 3.498h1.166c.644 0 1.166.522 1.166 1.167v5.831zm27.794-14.643a1.168 1.168 0 00-.323-.323l-6.998-4.665a1.166 1.166 0 00-1.813.97v9.33a1.167 1.167 0 001.813.971l6.998-4.665c.536-.358.68-1.082.323-1.618zM52.49 18.83v-4.97l3.732 2.485-3.732 2.485z"/><path d="M53.657 5.848c-5.797 0-10.497 4.7-10.497 10.496.007 5.795 4.702 10.49 10.497 10.497 5.797 0 10.496-4.7 10.496-10.497s-4.7-10.496-10.496-10.496zm0 18.66a8.164 8.164 0 01-8.164-8.164 8.173 8.173 0 018.164-8.164 8.164 8.164 0 110 16.329zM1.173 31.506h2.333c0-15.826 9.385-25.658 24.492-25.658V3.515c-16.546 0-26.825 10.73-26.825 27.991z"/></g><defs><clipPath id="clip0"><path fill="#fff" d="M0 0h70v70H0z"/></clipPath></defs></svg>