<svg width="70" height="70" fill="none" xmlns="http://www.w3.org/2000/svg"><path d="M54.194 5.744v-.099A5.652 5.652 0 0048.548 0h-33.87a5.652 5.652 0 00-5.646 5.645v5.9A34.875 34.875 0 00.916 42.903H0v5.645a5.652 5.652 0 005.645 5.646h.1C12.25 64.097 23.13 70 35 70c19.298 0 35-15.702 35-35 0-11.87-5.903-22.751-15.806-29.256zm-2.259-.099v14.678h-6.774V5.645a3.392 3.392 0 013.387-3.387 3.392 3.392 0 013.387 3.387zM14.677 2.258h29.385a5.588 5.588 0 00-1.159 3.387v19.592a6.716 6.716 0 00-2.258-.398 6.78 6.78 0 00-6.774 6.774c0 .131.013.26.02.389a6.755 6.755 0 00-4.536 6.385c0 .539.07 1.06.19 1.563a6.758 6.758 0 00-2.049 2.953H11.29V5.645a3.392 3.392 0 013.387-3.387zm43.507 31.967a4.504 4.504 0 012.784 4.162 4.52 4.52 0 01-4.516 4.516v2.258a6.772 6.772 0 005.623-3.002 4.499 4.499 0 011.149 2.875c.04 1.475-.78 2.923-2.195 3.871-1.383.926-2.493.838-3.303.657l-1.151-.256-.206 1.162a4.498 4.498 0 01-2.631 3.33l-.673.297v2.357h-3.388v-9.033h1.13a3.392 3.392 0 003.387-3.387 3.392 3.392 0 00-3.388-3.387 3.391 3.391 0 00-3.387 3.387v1.13h-2.258v-1.13a3.392 3.392 0 00-3.387-3.387 3.392 3.392 0 00-3.387 3.387 3.392 3.392 0 003.387 3.387h1.13v9.033h-3.388v-2.357l-.673-.298a4.5 4.5 0 01-2.631-3.33l-.206-1.162-1.151.256c-.811.18-1.921.267-3.303-.657-1.415-.948-2.236-2.396-2.195-3.871a4.506 4.506 0 011.15-2.875 6.767 6.767 0 005.622 3.003v-2.258a4.52 4.52 0 01-4.516-4.516 4.5 4.5 0 012.783-4.16 6.785 6.785 0 006.25 4.16V36.13a4.52 4.52 0 01-4.517-4.516 4.52 4.52 0 014.516-4.516 4.52 4.52 0 014.516 4.516h2.258a4.52 4.52 0 014.517-4.516 4.52 4.52 0 014.516 4.516 4.52 4.52 0 01-4.517 4.516v2.258a6.783 6.783 0 006.249-4.162zm-18.26 29h11.64a32.501 32.501 0 01-8.712 3.558 6.788 6.788 0 01-2.928-3.557zm-2.666-2.257a1.131 1.131 0 01-1.129-1.13c0-.621.507-1.128 1.13-1.128h18.064c.581 0 1.045.448 1.105 1.015-.495.428-.999.844-1.519 1.243H37.26zm5.645-15.807h-1.129a1.131 1.131 0 01-1.129-1.129c0-.622.507-1.129 1.13-1.129.621 0 1.128.507 1.128 1.13v1.128zm4.516 11.29h-2.258V47.42h2.258v9.033zm2.258-11.29v-1.129c0-.622.508-1.129 1.13-1.129.621 0 1.128.507 1.128 1.13a1.13 1.13 0 01-1.129 1.128h-1.129zM2.258 35a32.615 32.615 0 016.774-19.943v27.846H3.236A32.826 32.826 0 012.258 35zm0 13.548v-3.387h24.849c.01 2.186 1.182 4.276 3.187 5.62 1.27.85 2.574 1.23 3.972 1.14l.007.014H5.645a3.392 3.392 0 01-3.387-3.387zm6.212 5.646h27.173c.467.514 1 .971 1.614 1.327v.93a3.392 3.392 0 00-3.387 3.388 3.392 3.392 0 003.387 3.387h.3a9.034 9.034 0 002.393 4.141 32.775 32.775 0 01-4.95.375c-10.603 0-20.371-5.028-26.53-13.548zm49.731 3.883a3.377 3.377 0 00-2.878-1.625v-.931a6.747 6.747 0 002.991-3.6c1.402.091 2.703-.29 3.972-1.14 2.063-1.383 3.258-3.555 3.196-5.81a6.763 6.763 0 00-2.445-5.02 6.804 6.804 0 00.189-1.564 6.755 6.755 0 00-4.536-6.385c.007-.13.02-.258.02-.39a6.78 6.78 0 00-6.775-6.773 6.773 6.773 0 00-5.645 3.033 6.849 6.849 0 00-1.129-1.297v-3.994h9.033V8.47c8.52 6.158 13.548 15.927 13.548 26.53 0 8.995-3.648 17.153-9.54 23.077z" fill="#A9AFC3"/><path d="M24.839 36.129h2.258v2.258h-2.258V36.13zm-11.291 0h9.033v2.258h-9.033V36.13zm0-4.516h13.549v2.258H13.548v-2.258zm0-4.516h13.549v2.258H13.548v-2.258zm0-4.517h13.549v2.259H13.548V22.58zM40.645 4.516H13.548v15.807h27.097V4.516zm-2.258 13.548h-22.58V6.774h22.58v11.29z" fill="#A9AFC3"/></svg>