<svg width="70" height="70" fill="none" xmlns="http://www.w3.org/2000/svg"><path d="M25.156 56.875H9.844a1.093 1.093 0 00-1.094 1.094v4.375a1.094 1.094 0 001.094 1.093h15.312a1.093 1.093 0 001.094-1.093v-4.375a1.093 1.093 0 00-1.094-1.094zm-1.093 4.375H10.938v-2.188h13.124v2.188zm17.5-6.562a4.36 4.36 0 00-2.746.977 4.375 4.375 0 100 6.795 4.375 4.375 0 102.746-7.773zm-5.47 6.562a2.188 2.188 0 110-4.375 2.188 2.188 0 010 4.375zm5.47 0a2.153 2.153 0 01-1.422-.532 4.316 4.316 0 000-3.311 2.153 2.153 0 011.422-.532 2.188 2.188 0 010 4.375zm4.375-53.594h2.187a1.094 1.094 0 100-2.187h-2.188a1.094 1.094 0 100 2.187z" fill="#A9AFC3"/><path d="M62.344 2.188H31.719a5.475 5.475 0 00-5.469 5.468v29.532H7.656a5.475 5.475 0 00-5.468 5.468v19.688a5.475 5.475 0 005.468 5.468h54.688a5.475 5.475 0 005.468-5.468V7.656a5.475 5.475 0 00-5.468-5.468zM31.719 4.374h30.625a3.281 3.281 0 013.281 3.281V8.75H28.437V7.656a3.281 3.281 0 013.282-3.281zm-3.282 6.563h37.188v45.937H50.312V42.656a5.475 5.475 0 00-5.468-5.468H28.437v-26.25zm-24.062 35h43.75v2.187H4.375v-2.188zm3.281-6.563h37.188a3.28 3.28 0 013.281 3.281v1.094H4.375v-1.094a3.281 3.281 0 013.281-3.281zm-3.281 22.97V50.312h43.75v12.032a3.28 3.28 0 01-3.281 3.281H7.656a3.281 3.281 0 01-3.281-3.281zm57.969 3.281H49.19a5.411 5.411 0 001.123-3.281v-3.282h15.312v3.282a3.28 3.28 0 01-3.281 3.281z" fill="#A9AFC3"/><path d="M56.875 30.625V19.687a1.093 1.093 0 00-1.094-1.093H52.5a5.468 5.468 0 10-10.938 0h-3.28a1.094 1.094 0 00-1.094 1.093v10.938a5.475 5.475 0 005.468 5.469h8.75a5.476 5.476 0 005.469-5.469zm-9.844-15.313a3.28 3.28 0 013.282 3.282H43.75a3.28 3.28 0 013.281-3.282zm-7.656 15.313v-9.844h2.188v2.188a1.093 1.093 0 102.187 0V20.78h6.563v2.188a1.093 1.093 0 102.187 0V20.78h2.188v9.844a3.281 3.281 0 01-3.282 3.281h-8.75a3.281 3.281 0 01-3.281-3.281z" fill="#A9AFC3"/></svg>