<svg width="70" height="70" fill="none" xmlns="http://www.w3.org/2000/svg"><g clip-path="url(#clip0)" fill="#A9AFC3"><path d="M54.763 64.237v-10.57H52.43v4.666H17.519l-.02-2.343-2.333.02.069 8.227A5.77 5.77 0 0020.998 70h28a5.77 5.77 0 005.764-5.763zM49 67.667H21a3.437 3.437 0 01-3.431-3.441l-.03-3.56H52.43v3.57a3.434 3.434 0 01-3.431 3.43z"/><path d="M33.832 63h2.334v2.333h-2.334V63zm8.167-51.333V14h10.43v2.333h2.334V10.43A5.77 5.77 0 0049 4.667h-7V7h7a3.434 3.434 0 013.43 3.43v1.237H42zm-35-7v14a4.667 4.667 0 004.667 4.666h7.816l6.707 4.471a1.166 1.166 0 001.81-.97v-3.5h7a4.666 4.666 0 004.666-4.667v-14A4.666 4.666 0 0035 0H11.665A4.667 4.667 0 007 4.667zm30.333 0v14A2.333 2.333 0 0135 21h-8.167c-.644 0-1.166.522-1.166 1.167v2.487l-5.186-3.458a1.175 1.175 0 00-.648-.196h-8.167a2.333 2.333 0 01-2.333-2.333v-14a2.333 2.333 0 012.333-2.334H35a2.333 2.333 0 012.333 2.334z"/><path d="M13.999 53.667a14.034 14.034 0 008.317-2.744l5.367 1.532a1.167 1.167 0 001.365-1.643L26.56 45.85A14 14 0 1014 53.667zm0-25.667a11.666 11.666 0 0110.23 17.276c-.185.336-.193.74-.022 1.082l1.563 3.125-3.384-.966a1.167 1.167 0 00-1.05.216 11.535 11.535 0 01-7.337 2.6c-6.444 0-11.667-5.223-11.667-11.666C2.332 33.223 7.555 28 14 28z"/><path d="M6.599 42.117l6.66 5.455a1.17 1.17 0 001.48 0l6.66-5.455a5.213 5.213 0 001.911-3.557 5.132 5.132 0 00-1.195-3.8A5.61 5.61 0 0014 34.32a5.644 5.644 0 00-4.17-1.517 5.563 5.563 0 00-3.947 1.957 5.132 5.132 0 00-1.194 3.8A5.212 5.212 0 006.6 42.117zm1.073-5.86a3.215 3.215 0 012.288-1.124h.186a3.253 3.253 0 012.243.884l.804.768a1.166 1.166 0 001.612 0l.804-.768a3.279 3.279 0 014.717.245c.492.578.73 1.33.662 2.086a2.89 2.89 0 01-1.068 1.97l-5.921 4.84-5.92-4.85a2.885 2.885 0 01-1.068-1.97 2.824 2.824 0 01.661-2.085v.004zm45.994-17.59a16.31 16.31 0 00-14.233 24.31l-3.113 5.44a1.166 1.166 0 001.296 1.71l6.787-1.697a16.17 16.17 0 009.263 2.903c9.02 0 16.333-7.312 16.333-16.333 0-9.02-7.313-16.333-16.333-16.333zm0 30.333a13.866 13.866 0 01-8.325-2.765 1.167 1.167 0 00-.984-.198l-4.66 1.166 2.09-3.657a1.169 1.169 0 00-.021-1.196 13.988 13.988 0 1111.9 6.65z"/><path d="M60.199 31.5h-1.867v-2.333a4.667 4.667 0 00-4.666-4.667 2.333 2.333 0 00-2.334 2.333v3.017l-1.65 1.65H45.5c-.644 0-1.167.522-1.167 1.167V42c0 .644.523 1.167 1.167 1.167h14.7a2.8 2.8 0 002.8-2.8V34.3a2.8 2.8 0 00-2.8-2.8zm-13.533 2.333h2.333v7h-2.334v-7zm14 6.534a.467.467 0 01-.467.466h-8.867V33.15l1.992-1.992a1.17 1.17 0 00.342-.825v-3.5a2.334 2.334 0 012.333 2.334V31.5a1.167 1.167 0 000 2.333h4.2c.258 0 .467.21.467.467v6.067zm-46.667-21.7h11.667c.644 0 1.166-.523 1.166-1.167v-1.612l5.312 2.662a1.167 1.167 0 001.688-1.05V5.833a1.167 1.167 0 00-1.688-1.044l-5.312 2.657V5.833c0-.644-.522-1.166-1.166-1.166H13.999c-.644 0-1.167.522-1.167 1.166V17.5c0 .644.523 1.167 1.167 1.167zM15.165 7H24.5v2.333a1.167 1.167 0 001.688 1.045L31.5 7.72v7.891l-5.312-2.656A1.168 1.168 0 0024.5 14v2.333h-9.333V7z"/></g><defs><clipPath id="clip0"><path fill="#fff" d="M0 0h70v70H0z"/></clipPath></defs></svg>