<svg width="100" height="100" fill="none" xmlns="http://www.w3.org/2000/svg"><g opacity=".15" fill="#fff"><path d="M90.234 5.273H63.281c-5.384 0-9.765 4.381-9.765 9.766v23.435c0 5.385 4.38 9.766 9.765 9.766h12.635c-.444 14.59-5.98 22.176-16.886 23.168a1.953 1.953 0 00-1.776 1.945v19.42a1.953 1.953 0 002.062 1.95c13.459-.757 23.733-5.388 30.537-13.767C96.586 72.666 100 60.552 100 44.952V15.039c0-5.385-4.38-9.766-9.766-9.766zm5.86 39.679c0 28.641-11.433 43.619-34.934 45.722V75.08c5.94-.924 10.534-3.689 13.673-8.235 3.33-4.822 5.019-11.74 5.019-20.56a1.953 1.953 0 00-1.954-1.952H63.281a5.866 5.866 0 01-5.86-5.86V15.04c0-3.23 2.63-5.86 5.86-5.86H86.72v14.46a1.953 1.953 0 003.906 0V9.195a5.866 5.866 0 015.469 5.845v29.913z"/><path d="M88.672 28.467a1.961 1.961 0 00-1.953 1.963 1.953 1.953 0 003.906 0v-.02a1.945 1.945 0 00-1.953-1.943zm-44.141-5.225a1.953 1.953 0 001.953-1.953v-6.25c0-5.385-4.38-9.766-9.765-9.766H9.766C4.38 5.273 0 9.654 0 15.04v23.435c0 5.385 4.38 9.766 9.766 9.766H22.4c-.445 14.59-5.98 22.176-16.887 23.168a1.953 1.953 0 00-1.776 1.945v19.42a1.953 1.953 0 002.063 1.95c13.458-.757 23.732-5.388 30.537-13.767 6.733-8.29 10.146-20.404 10.146-36.004v-6.996a1.953 1.953 0 00-3.906 0v6.996c0 28.641-11.433 43.619-34.933 45.722V75.08c5.94-.924 10.534-3.689 13.673-8.235 3.33-4.822 5.018-11.74 5.018-20.56a1.953 1.953 0 00-1.953-1.952H9.766a5.866 5.866 0 01-5.86-5.86V15.04c0-3.23 2.629-5.86 5.86-5.86h26.953c3.23 0 5.86 2.63 5.86 5.86v6.25c0 1.079.873 1.953 1.952 1.953z"/><path d="M44.531 27.669a1.953 1.953 0 00-1.953 1.953v.04a1.953 1.953 0 003.906 0v-.04a1.953 1.953 0 00-1.953-1.953z"/></g></svg>