<svg width="70" height="70" fill="none" xmlns="http://www.w3.org/2000/svg"><path d="M12.305 41.836a1.368 1.368 0 10-.001-2.736 1.368 1.368 0 000 2.736zM35 17.227a1.368 1.368 0 10.001 2.735A1.368 1.368 0 0035 17.227z" fill="#A9AFC3"/><path d="M45.938 3.555c-12.309 0-22.411 8.486-23.193 19.175C11.024 23.318 0 31.77 0 43.203c0 4.778 1.89 9.407 5.332 13.075a8.315 8.315 0 01-2.197 7.834 1.368 1.368 0 00.967 2.333 15.08 15.08 0 0010.448-4.223c2.72.927 6.27 1.489 9.512 1.489 12.307 0 22.409-8.484 23.192-19.171 2.863-.127 5.84-.656 8.196-1.459a15.081 15.081 0 0010.448 4.224 1.367 1.367 0 00.967-2.334 8.315 8.315 0 01-2.197-7.834C68.109 33.47 70 28.84 70 24.062 70 12.184 58.127 3.555 45.937 3.555zM24.061 60.977c-3.226 0-6.903-.634-9.366-1.614a1.367 1.367 0 00-1.515.347 12.336 12.336 0 01-6.136 3.642 11.057 11.057 0 00.834-8.138 1.364 1.364 0 00-.334-.578c-3.102-3.195-4.81-7.255-4.81-11.433 0-9.634 9.766-17.773 21.327-17.773 10.918 0 20.508 7.591 20.508 17.773 0 9.8-9.2 17.774-20.508 17.774zm38.393-25.481a1.371 1.371 0 00-.334.578 11.057 11.057 0 00.834 8.137 12.333 12.333 0 01-6.136-3.641 1.368 1.368 0 00-1.515-.348c-2.134.85-5.18 1.438-8.054 1.58-.4-5.17-2.979-10.03-7.388-13.638h17.833a1.367 1.367 0 100-2.734H35.662c-3.104-1.58-6.588-2.501-10.175-2.695.785-9.182 9.658-16.446 20.45-16.446 11.562 0 21.329 8.14 21.329 17.773 0 4.178-1.709 8.239-4.81 11.434z" fill="#A9AFC3"/><path d="M35 47.305H12.305a1.367 1.367 0 100 2.734H35a1.367 1.367 0 100-2.734zm0-8.203H17.773a1.367 1.367 0 100 2.734H35a1.367 1.367 0 100-2.734zm22.695-21.875H40.47a1.367 1.367 0 100 2.734h17.226a1.367 1.367 0 100-2.734z" fill="#A9AFC3"/></svg>