<svg width="16" height="16" fill="none" xmlns="http://www.w3.org/2000/svg"><path d="M12.719 9.438a3.28 3.28 0 00-2.694 1.41l-3.63-1.815a3.269 3.269 0 000-2.066l3.63-1.815A3.28 3.28 0 0016 3.282 3.285 3.285 0 0012.719 0a3.285 3.285 0 00-3.115 4.314L5.975 6.13A3.28 3.28 0 000 8a3.28 3.28 0 005.975 1.871l3.63 1.815A3.285 3.285 0 0012.72 16 3.285 3.285 0 0016 12.719a3.285 3.285 0 00-3.281-3.281zm0-8.5a2.346 2.346 0 012.344 2.343 2.346 2.346 0 01-2.344 2.344 2.346 2.346 0 01-2.344-2.344A2.346 2.346 0 0112.719.937zM3.28 10.344A2.346 2.346 0 01.937 8a2.346 2.346 0 012.344-2.344A2.346 2.346 0 015.625 8a2.346 2.346 0 01-2.344 2.344zm9.438 4.719a2.346 2.346 0 01-2.344-2.344 2.346 2.346 0 012.344-2.344 2.346 2.346 0 012.344 2.344 2.346 2.346 0 01-2.344 2.344z" fill="#DD4242"/></svg>