<svg width="70" height="70" fill="none" xmlns="http://www.w3.org/2000/svg"><g clip-path="url(#clip0)" fill="#A9AFC3"><path d="M53 63.44a1.367 1.367 0 00-1.868-.496l-.052.03a1.367 1.367 0 001.372 2.365l.052-.03a1.367 1.367 0 00.497-1.87z"/><path d="M65.31 17.512C60.636 9.417 53.09 3.627 44.063 1.208 35.035-1.21 25.605.031 17.51 4.704 9.416 9.377 3.626 16.923 1.207 25.95-1.212 34.979.03 44.409 4.703 52.503a34.984 34.984 0 0018.76 15.537A35.11 35.11 0 0035.03 70c4.247 0 8.487-.771 12.494-2.311a1.367 1.367 0 10-.98-2.552c-10.667 4.1-22.215 2.237-30.842-4.24l1.224-6.393.59-.191a4.258 4.258 0 002.732-5.36l-.433-1.333c-.1-.308-.1-.634 0-.942a4.255 4.255 0 00-3.225-5.5l-3.085-.603-5.954-4.527a1.367 1.367 0 00-1.25-.212L2.814 36.97a32.231 32.231 0 01-.005-3.733c.138.128.227.215.283.272.068.114.152.218.251.308.285.26.543.377 1.084.377.498 0 1.234-.1 2.45-.28a133.45 133.45 0 002.312-.364 1.367 1.367 0 00.904-2.118l-1.677-2.459 2.402-1.716a1.37 1.37 0 00.39-.433l3.723-6.498 1.5-1.607a5.775 5.775 0 001.114-6.125 6.287 6.287 0 00-2.49-2.933 32.36 32.36 0 013.823-2.588A32.056 32.056 0 0134.632 2.76l-2.44 3.063-9.054 3.173a1.367 1.367 0 00-.811.769l-2.528 6.129c-.18.435-.123.932.15 1.315l3.693 5.173c-.529.482-1.043 1.185-1.658 2.057-.27.383-.524.744-.7.947-.153.176-.306.349-.458.52-.794.893-1.616 1.817-2.199 3.051-1.283 2.715-1.024 5.871.676 8.236 1.644 2.287 4.353 3.449 7.245 3.109.471-.055.91-.164 1.336-.27 1.172-.29 1.543-.318 1.919.034.183.17.2.203.196.784-.003.37-.006.83.122 1.355.204.84.732 1.42 1.155 1.887.211.232.429.472.496.633.427 1.021.24 1.587-.166 2.827l-.106.326c-.618 1.913.243 3.811 1.004 5.485.247.544.48 1.057.632 1.511 1.23 3.648 2.151 4.483 2.89 4.82a2.85 2.85 0 001.194.252c1.97 0 4.027-1.83 4.972-2.99.593-.728.74-1.458.846-1.99.053-.265.095-.474.175-.611.122-.21.266-.371.448-.577.367-.413.823-.926 1.118-1.857.225-.707.388-.88.928-1.456l.302-.324c1.821-1.981 1.352-3.495.855-5.097-.417-1.349.314-2.211 2.081-3.857.766-.714 1.558-1.451 2.17-2.338.269-.388 1.084-1.568.58-2.738-.495-1.147-1.752-1.34-2.762-1.495-.399-.061-1.001-.153-1.193-.279-.846-.553-1.363-1.707-1.864-2.823-.1-.223-.198-.442-.298-.655a22.71 22.71 0 01-.543-1.325c-.497-1.288-1.061-2.747-2.02-3.764-.863-.914-2.49-1.354-3.924-1.743-.482-.13-.938-.254-1.238-.365a1.366 1.366 0 00-.785-.048c-.699.163-1.134.344-1.458.603a1.698 1.698 0 00-.486.655c-.501-.24-1.19-.699-1.613-.981l-.026-.018a1.938 1.938 0 00-.122-1.316c-.764-1.615-3.299-1.489-3.799-1.446a23.13 23.13 0 01-1.024.05c-.597.02-1.257.044-1.91.118l.034-.094a3.496 3.496 0 013.282-2.31h.777a1.367 1.367 0 000-2.733h-.777a6.24 6.24 0 00-5.292 2.951l-2.04-2.856 2.007-4.863 8.846-3.102c.242-.085.456-.236.617-.438l3.932-4.932c10.048.956 19.506 6.59 24.926 15.976a31.906 31.906 0 013.222 7.826l-.58.517a3.651 3.651 0 00-1.217 2.689l-.945-2.597a3.414 3.414 0 00-.615-1.056l-1.684-1.972a3.426 3.426 0 00-2.61-1.202h-2.06c-.733 0-1.402.4-1.747 1.046a1.977 1.977 0 00.099 2.032l.208.313a15.15 15.15 0 01-4.513 2.681l-2.826-5.413v-1.208c0-.373-.153-.73-.423-.988l-2.545-2.43a1.37 1.37 0 00-.49-.3l-2.292-.806a1.367 1.367 0 10-.906 2.58l2.013.707 1.909 1.822v.958c0 .22.053.438.155.633l3.538 6.777c.318.61 1.04.888 1.685.65l1.03-.38a17.89 17.89 0 006.415-4.106c.46-.46.532-1.182.17-1.725l-.072-.109h.653c.204 0 .397.089.53.244l1.684 1.972a.696.696 0 01.125.215l1.859 5.11a1.367 1.367 0 002.25.5l.885-.885a4.26 4.26 0 001.13-2.055c1.37 10.965-2.93 22.309-12.019 29.442a1.367 1.367 0 101.688 2.15 34.967 34.967 0 0012.693-20.74 34.967 34.967 0 00-4.03-24.258zM6.464 38.658l5.638 4.286c.166.127.36.213.565.253l3.398.664a1.5 1.5 0 011.019.723 1.5 1.5 0 01.133 1.241 4.226 4.226 0 00-.004 2.64l.433 1.333a1.521 1.521 0 01-.975 1.914l-1.359.441a1.367 1.367 0 00-.92 1.043L13.3 58.904a32.618 32.618 0 01-6.228-7.768A32.087 32.087 0 013.1 39.751l3.365-1.093zm7.968-21.806l-1.608 1.724a1.372 1.372 0 00-.187.253l-3.652 6.376-3.246 2.32a1.367 1.367 0 00-.335 1.883l1.214 1.78c-.7.105-1.327.19-1.745.236-.08-.077-.164-.155-.25-.235a69.187 69.187 0 00-1.45-1.295c1.11-6.871 4.421-13.345 9.629-18.287a3.555 3.555 0 012.215 2.028 3.034 3.034 0 01-.585 3.217zm11.146 7.471c.61-.343 2.026-.393 3.059-.43.414-.014.805-.028 1.155-.058.184-.015.389-.012.582.003a1.365 1.365 0 00.63 1.7c.256.138.613.376.99.628 1.069.712 2.28 1.52 3.418 1.592 1.035.067 1.61-.522 1.857-.773l.058-.059c.139-.113.269-.265.366-.448.218.063.448.125.684.189.809.219 2.316.627 2.649.98.591.627 1.052 1.82 1.459 2.872.205.532.4 1.034.617 1.5.094.2.186.405.28.614.63 1.407 1.345 3.002 2.862 3.993.688.45 1.53.58 2.275.693l.298.047c-.442.616-1.07 1.202-1.735 1.82-1.693 1.576-3.799 3.538-2.829 6.667.458 1.478.48 1.638-.257 2.439-.1.109-.194.208-.281.302-.63.671-1.129 1.201-1.541 2.5-.12.377-.275.552-.557.87a6.1 6.1 0 00-.765 1.012c-.31.53-.412 1.042-.495 1.452-.08.404-.127.607-.285.802a7.969 7.969 0 01-1.726 1.526c-.643.408-1.018.464-1.146.456-.146-.156-.674-.841-1.472-3.211-.197-.585-.47-1.186-.735-1.768-.582-1.282-1.184-2.608-.891-3.515l.102-.313c.468-1.426.91-2.773.092-4.733-.25-.597-.646-1.034-.996-1.419-.226-.249-.482-.53-.522-.693-.048-.198-.046-.427-.045-.692.005-.714.012-1.794-1.06-2.799-1.514-1.416-3.278-.98-4.446-.69-.358.088-.697.172-.997.207-1.92.225-3.636-.5-4.706-1.99-1.12-1.557-1.283-3.654-.424-5.471.415-.88 1.043-1.586 1.77-2.403.158-.18.319-.36.479-.544.267-.307.56-.723.87-1.164.37-.526 1.06-1.505 1.36-1.69z"/><path d="M56.059 47.07l-.658-2.48a1.367 1.367 0 00-2.523-.301c-.15.276-.285.569-.415.851-.22.476-.447.968-.683 1.24-.132.153-.473.317-.802.476-.787.38-1.865.9-2.277 2.213-.256.814-.16 1.458-.09 1.929.06.408.074.549-.036.805l-.013.032c-.436 1.021-1.245 2.922-.11 4.539.81 1.153 1.662 1.45 2.324 1.45.129 0 .251-.011.364-.03 1.395-.228 2.443-1.678 3.3-4.565l1.608-5.42c.071-.241.075-.497.01-.74zm-4.24 5.38c-.437 1.473-.823 2.16-1.046 2.465a2.633 2.633 0 01-.084-.113c-.26-.372.13-1.289.388-1.895l.014-.032c.416-.978.305-1.73.224-2.278-.052-.351-.07-.502-.005-.71.053-.17.373-.336.856-.569.214-.103.45-.216.687-.354l-1.034 3.487zm-14.901-36.2l-.092-.032a1.368 1.368 0 00-.905 2.58l.092.032a1.365 1.365 0 001.743-.837 1.367 1.367 0 00-.838-1.743z"/></g><defs><clipPath id="clip0"><path fill="#fff" d="M0 0h70v70H0z"/></clipPath></defs></svg>