<svg width="30" height="30" fill="none" xmlns="http://www.w3.org/2000/svg"><g opacity=".3" clip-path="url(#clip0)" fill-rule="evenodd" clip-rule="evenodd" fill="#fff"><path d="M15.966 1.91A13.121 13.121 0 0015 1.876V0a15 15 0 011.104.041l-.138 1.87zm3.757.844a13.13 13.13 0 00-1.847-.56l.41-1.83c.719.161 1.426.375 2.112.641l-.675 1.75zm2.569 1.332a13.148 13.148 0 00-.823-.507l.924-1.63c.641.362 1.255.772 1.836 1.225l-1.153 1.48a13.12 13.12 0 00-.784-.566v-.002zm3.439 3.356a13.068 13.068 0 00-1.225-1.493l1.358-1.293c.506.534.975 1.106 1.4 1.706l-1.533 1.08zm1.395 2.535c-.123-.297-.257-.59-.402-.878l1.675-.843c.33.658.613 1.34.843 2.04l-1.78.587a13.855 13.855 0 00-.336-.906zm.993 4.7a13.123 13.123 0 00-.187-1.921l1.847-.32c.125.725.198 1.46.217 2.195l-1.875.046h-.002zm-.245 2.884c.062-.319.112-.635.152-.956l1.861.23c-.09.732-.234 1.456-.43 2.166l-1.808-.5c.086-.31.161-.623.225-.94zm-1.785 4.46A13.11 13.11 0 0027 20.319l1.714.76c-.3.675-.647 1.323-1.04 1.946l-1.585-1.003zm-1.808 2.26c.229-.229.448-.465.657-.708l1.42 1.224c-.24.279-.49.55-.751.81L24.28 24.28z"/><path d="M15 1.875a13.125 13.125 0 109.28 22.406l1.326 1.326A15.003 15.003 0 1115 0v1.875z"/><path d="M14.063 5.625a.937.937 0 01.937.938v9.768l6.09 3.48a.938.938 0 01-.93 1.628l-6.563-3.75a.937.937 0 01-.472-.814V6.562a.938.938 0 01.938-.937z"/></g><defs><clipPath id="clip0"><path d="M0 0h30v30H0z" fill="#fff"/></clipPath></defs></svg>