<svg width="31" height="45" fill="none" xmlns="http://www.w3.org/2000/svg"><path d="M29.664 16.57c-.076-.078-3.005-1.815-3.005-1.815l.168-.385c.262-.597.031-1.278-.548-1.618a1.434 1.434 0 00-1.76.243l-.281.3-4.064-2.451c-.342-.196-.472-.574-.476-.95a3.06 3.06 0 00-2.994-2.456h-.57V5.66a2.854 2.854 0 002.209-2.88 2.876 2.876 0 00-2.75-2.779 2.88 2.88 0 00-2.67 1.558.658.658 0 001.17.6 1.56 1.56 0 011.448-.843c.81.033 1.462.693 1.486 1.503a1.545 1.545 0 01-1.36 1.589.964.964 0 00-.85.953v2.076h-.5a3.07 3.07 0 00-2.982 2.4c-.09.492-.386.933-.816 1.19l-3.757 2.266-.28-.3a1.433 1.433 0 00-1.762-.242c-.578.34-.809 1.02-.547 1.618l.168.385-2.927 1.765a2.016 2.016 0 00-.97 1.717.658.658 0 101.316 0c0-.217.105-.422.277-.551h3.586l1.899 4.34a25.555 25.555 0 001.713 3.25l.552.888a32.507 32.507 0 00-7.44 13.46l-1.055 3.881c-.097.36-.024.734.202 1.03.226.295.569.465.94.465H6.43a.658.658 0 000-1.316H2.607l1.009-3.715a31.184 31.184 0 017.259-13.044c.33-.354.382-.888.126-1.3l-.65-1.043a24.24 24.24 0 01-1.624-3.083l-3.332-7.617c.046-.021.107-.008.126.013l4.522 4.826c1.365 1.456 3.354 2.292 5.457 2.292 2.103 0 4.092-.836 5.457-2.292l4.522-4.826c.02-.021.08-.034.126-.013L22.273 21.5a24.23 24.23 0 01-1.625 3.082l-.65 1.044c-.254.41-.204.94.122 1.294l.006.006a31.15 31.15 0 013.117 3.94.658.658 0 001.095-.731 32.49 32.49 0 00-3.125-3.97l.552-.888a25.535 25.535 0 001.713-3.25l1.899-4.34h3.586a.69.69 0 01.277.55.658.658 0 101.316 0c0-.667-.34-1.297-.892-1.666zm-25.454-.2l.663-.4.175.4H4.21zm6.988-4.214a3.066 3.066 0 001.406-1.962l.016-.075a1.747 1.747 0 011.697-1.365h2.387a1.74 1.74 0 011.692 1.345 2.287 2.287 0 001.098 1.871l3.824 2.306-1.963 2.096-.018-.001H9.644l-1.962-2.094 3.516-2.121zm4.302 7.541c-1.74 0-3.38-.684-4.497-1.876l-.126-.135h9.246l-.126.135c-1.117 1.192-2.756 1.876-4.497 1.876zm10.627-3.726l.663.4h-.838l.175-.4zm2.527 23.653a32.424 32.424 0 00-2.771-6.924.658.658 0 10-1.157.626 31.11 31.11 0 012.658 6.643l1.01 3.716H9.596a.658.658 0 000 1.315h18.968c.372 0 .715-.17.94-.465.227-.295.3-.67.203-1.03l-1.054-3.88z" fill="#fff"/></svg>