<svg width="45" height="45" fill="none" xmlns="http://www.w3.org/2000/svg"><path opacity=".3" d="M21.743 0c2.647 0 5.133.498 7.458 1.495a18.813 18.813 0 016.17 4.273c1.788 1.815 3.183 3.97 4.184 6.462 1.038 2.456 1.556 5.162 1.556 8.117 0 .605-.053 1.442-.16 2.51a19.853 19.853 0 01-.537 3.311 14.44 14.44 0 01-1.288 3.311 7.07 7.07 0 01-2.253 2.564c-.93.676-2.093 1.014-3.487 1.014-1.18 0-2.075-.231-2.683-.694-.572-.463-.966-1.086-1.18-1.869a17.36 17.36 0 01-.483-2.51c-.966 1.032-2.253 1.922-3.863 2.67-1.574.748-3.29 1.122-5.15 1.122-2.468 0-4.418-.659-5.848-1.976-1.431-1.318-2.146-2.99-2.146-5.02 0-1.78.5-3.169 1.502-4.166 1.001-1.032 2.253-1.762 3.755-2.19 1.503-.427 3.04-.64 4.614-.64 1.574 0 2.987.16 4.239.48 1.252.285 2.164.534 2.736.748 0-1.78-.197-3.347-.59-4.7-.394-1.388-1.091-2.474-2.093-3.257-.965-.784-2.342-1.175-4.13-1.175-1.36 0-2.701.231-4.024.694a14 14 0 00-3.542 1.87l-.858-1.656a17.068 17.068 0 014.024-2.03 14.238 14.238 0 014.614-.747c1.895 0 3.416.32 4.56.961 1.145.64 1.985 1.495 2.522 2.563.572 1.033.948 2.19 1.126 3.472.215 1.281.322 2.58.322 3.898v7.37c0 1.567.161 2.813.483 3.738.322.926 1.091 1.389 2.307 1.389 1.145 0 2.092-.374 2.843-1.122.787-.747 1.395-1.709 1.825-2.884a15.97 15.97 0 00.965-3.684c.18-1.282.269-2.421.269-3.418 0-2.635-.465-5.074-1.395-7.317-.895-2.278-2.164-4.272-3.81-5.981a17.479 17.479 0 00-5.633-4.005c-2.146-.962-4.47-1.442-6.974-1.442-2.433 0-4.74.463-6.921 1.388a18.09 18.09 0 00-5.74 3.792c-1.682 1.638-3.005 3.578-3.97 5.821-.967 2.243-1.45 4.7-1.45 7.37 0 2.563.448 4.966 1.342 7.21.93 2.242 2.2 4.2 3.809 5.874a18.094 18.094 0 005.687 4.005c2.182.962 4.524 1.442 7.028 1.442 1.466 0 2.88-.178 4.238-.534a16.78 16.78 0 003.97-1.495l.644 1.442a20.42 20.42 0 01-4.399 1.602 18.81 18.81 0 01-4.453.534c-2.682 0-5.204-.516-7.565-1.549a19.208 19.208 0 01-6.17-4.219c-1.788-1.815-3.2-3.934-4.238-6.355C2.501 25.421 2 22.768 2 19.92c0-2.99.537-5.697 1.61-8.118 1.073-2.456 2.539-4.557 4.399-6.301a19.234 19.234 0 016.33-4.06A19.446 19.446 0 0121.744 0zm3.434 28.785c1.61-.748 2.61-1.638 3.004-2.67.43-1.068.644-2.119.644-3.151v-2.243c-.429-.036-1.27-.25-2.521-.64-1.216-.392-2.737-.588-4.56-.588-1.324 0-2.576.16-3.756.48-1.18.285-2.146.82-2.897 1.602-.716.748-1.073 1.78-1.073 3.098 0 1.638.59 2.937 1.77 3.898 1.18.926 2.629 1.389 4.346 1.389.894 0 1.788-.107 2.682-.32.93-.25 1.717-.535 2.361-.855z" fill="#fff"/></svg>