<svg width="45" height="45" fill="none" xmlns="http://www.w3.org/2000/svg"><g opacity=".3" clip-path="url(#clip0)" fill="#fff"><path d="M44.848 21.35L37.79 10.985a11.744 11.744 0 00-6.168-4.577 11.744 11.744 0 00-7.678.236L17.5 9.108a.879.879 0 10.628 1.642l6.444-2.465a9.903 9.903 0 0111.765 3.69l4.334 6.365-7.778-5.478a6.27 6.27 0 00-5.618-.806L3.872 20.038a1.58 1.58 0 01-1.995-.969 2.008 2.008 0 011.183-2.555l8.053-3.08a.879.879 0 00-.628-1.642l-8.053 3.08a3.757 3.757 0 00-2.214 4.78 3.344 3.344 0 004.222 2.05l23.404-7.982a4.507 4.507 0 014.038.58l11.733 8.263a.876.876 0 001.123-.092.88.88 0 00.11-1.121z"/><path d="M15.147 10.566a.882.882 0 00-1.243 0 .885.885 0 00-.257.621c0 .232.094.458.257.622.164.163.39.257.622.257a.885.885 0 00.62-.257.886.886 0 00.258-.622.884.884 0 00-.257-.62zm22.774 19.203l-.033-.01a5.068 5.068 0 01-2.611-1.875 23.86 23.86 0 001.902-1.707.879.879 0 00-1.242-1.243c-3.447 3.446-7.85 5.59-12.61 6.183a22.031 22.031 0 01-2.724.169h-.005a22.034 22.034 0 01-2.724-.17c-4.76-.592-9.163-2.736-12.61-6.182a.88.88 0 00-1.243 1.243 23.854 23.854 0 001.903 1.707 5.065 5.065 0 01-2.61 1.874l-.034.01a.879.879 0 00.518 1.68l.036-.01a6.819 6.819 0 003.499-2.504c.3.208.605.407.914.6a4.724 4.724 0 01-2.766 2.963l-.272.108a.879.879 0 00.648 1.634l.272-.108A6.477 6.477 0 009.8 30.419c.338.175.68.343 1.024.501A4.33 4.33 0 018.5 34.478l-.053.027a.879.879 0 00.813 1.559l.052-.027a6.08 6.08 0 003.2-4.421c.372.136.748.264 1.128.381a5.851 5.851 0 01-1.537 3.752.879.879 0 101.296 1.187 7.604 7.604 0 001.973-4.475c.505.115 1.016.212 1.53.293a9.082 9.082 0 01-1.218 3.836l-.118.2a.879.879 0 101.516.891l.118-.201a10.842 10.842 0 001.448-4.518c.356.03.714.05 1.073.063v5.222a.879.879 0 001.758 0v-5.221c.359-.014.716-.035 1.073-.064A10.84 10.84 0 0024 37.48l.118.201a.878.878 0 101.516-.89l-.119-.202a9.082 9.082 0 01-1.217-3.835 23.415 23.415 0 001.53-.293 7.604 7.604 0 001.973 4.475.877.877 0 001.242.054.879.879 0 00.054-1.241 5.852 5.852 0 01-1.537-3.752c.38-.117.756-.245 1.128-.381a6.08 6.08 0 003.2 4.42l.052.028a.879.879 0 00.812-1.559l-.052-.027a4.33 4.33 0 01-2.325-3.558c.346-.159.687-.326 1.025-.501a6.476 6.476 0 003.67 3.712l.273.108a.878.878 0 10.648-1.634l-.272-.108a4.724 4.724 0 01-2.766-2.963c.309-.193.613-.392.914-.6a6.819 6.819 0 003.5 2.503l.034.011a.878.878 0 10.519-1.68z"/></g><defs><clipPath id="clip0"><path d="M0 0h45v45H0z" fill="#fff"/></clipPath></defs></svg>