<svg width="20" height="21" fill="none" xmlns="http://www.w3.org/2000/svg"><path d="M18.333 14.6v2.5a1.666 1.666 0 01-1.816 1.667 16.492 16.492 0 01-7.192-2.559 16.251 16.251 0 01-5-5 16.492 16.492 0 01-2.558-7.225 1.667 1.667 0 011.658-1.816h2.5A1.667 1.667 0 017.592 3.6c.105.8.3 1.586.583 2.342A1.667 1.667 0 017.8 7.7L6.742 8.758a13.334 13.334 0 005 5L12.8 12.7a1.667 1.667 0 011.758-.375 10.68 10.68 0 002.342.583 1.667 1.667 0 011.433 1.692z" stroke="#fff" stroke-width="2" stroke-linecap="round" stroke-linejoin="round" opacity=".5"/></svg>