<svg width="45" height="45" fill="none" xmlns="http://www.w3.org/2000/svg"><g opacity=".3" fill="#fff"><path d="M22.5 0C14.469 0 7.935 6.534 7.935 14.565c0 7.182 4.982 16.596 9.16 23.228a.916.916 0 101.55-.976c-7.338-11.647-8.878-18.53-8.878-22.252C9.767 7.544 15.479 1.83 22.5 1.83c7.021 0 12.733 5.713 12.733 12.734 0 11.402-13.323 28.785-13.457 28.96a.916.916 0 101.449 1.12c.565-.732 13.84-18.053 13.84-30.08C37.065 6.534 30.531 0 22.5 0z"/><path d="M22.5 9.92a.916.916 0 000-1.831 6.483 6.483 0 00-6.476 6.476A6.483 6.483 0 0022.5 21.04a6.483 6.483 0 006.476-6.476 6.419 6.419 0 00-1.315-3.913.916.916 0 00-1.46 1.108c.617.812.943 1.782.943 2.805a4.65 4.65 0 01-4.644 4.644 4.65 4.65 0 01-4.644-4.644A4.65 4.65 0 0122.5 9.92z"/></g></svg>