<svg width="20" height="21" fill="none" xmlns="http://www.w3.org/2000/svg"><path d="M18.335 14.6v2.5a1.665 1.665 0 01-1.817 1.667 16.49 16.49 0 01-7.191-2.559 16.25 16.25 0 01-5-5 16.492 16.492 0 01-2.559-7.225 1.667 1.667 0 011.659-1.816h2.5A1.667 1.667 0 017.593 3.6c.106.8.302 1.586.584 2.342A1.667 1.667 0 017.802 7.7L6.743 8.758a13.333 13.333 0 005 5l1.059-1.058a1.666 1.666 0 011.758-.375 10.68 10.68 0 002.342.583 1.667 1.667 0 011.433 1.692z" stroke="#fff" stroke-width="2" stroke-linecap="round" stroke-linejoin="round" opacity=".5"/></svg>