<svg width="80" height="80" fill="none" xmlns="http://www.w3.org/2000/svg"><g fill="#fff"><path d="M71.115 23.362a1.082 1.082 0 01-.964-.59 36.957 36.957 0 00-1.65-2.878 1.082 1.082 0 011.83-1.15 39.002 39.002 0 011.746 3.045 1.08 1.08 0 01-.962 1.573zm3.825 16.282H5.06a1.08 1.08 0 01-1.081-1.082v-.378A36.023 36.023 0 0156.35 6.087a1.08 1.08 0 11-.983 1.924 33.867 33.867 0 00-49.22 29.47h67.704a33.561 33.561 0 00-.82-6.755 1.081 1.081 0 112.11-.478c.587 2.604.882 5.266.88 7.936v.378a1.08 1.08 0 01-1.081 1.082zM64.562 14.422a1.08 1.08 0 01-.757-.312 35.09 35.09 0 00-2.265-2.044 1.08 1.08 0 111.379-1.667 36.805 36.805 0 012.406 2.172 1.081 1.081 0 01-.757 1.85h-.006z"/><path d="M55.06 39.646H24.94a1.081 1.081 0 01-1.082-1.08v-.383c0-20.198 7.091-36.02 16.142-36.02 9.05 0 16.141 15.822 16.141 36.02v.382a1.081 1.081 0 01-1.08 1.081zm-29.036-2.162h27.952C53.816 19.438 47.481 4.324 40 4.324c-7.481 0-13.816 15.114-13.976 33.16z"/><path d="M33.54 77.838a7.55 7.55 0 01-7.541-7.542v-1.034a1.08 1.08 0 112.162 0v1.034a5.378 5.378 0 1010.757 0v-31.73a1.08 1.08 0 112.162 0v31.73a7.55 7.55 0 01-7.54 7.542zm25.825-7.211a1.08 1.08 0 01-.66-.226c-.433-.332-10.507-8.191-10.507-14.772a7.189 7.189 0 017.014-7.337 6.76 6.76 0 014.153 1.426 6.758 6.758 0 014.154-1.426 7.19 7.19 0 017.014 7.337c0 6.582-10.078 14.44-10.507 14.772-.19.147-.422.226-.66.226zm-4.153-20.173a5.028 5.028 0 00-4.852 5.175c0 4.245 5.986 10.047 9.005 12.532 3.021-2.486 9.006-8.287 9.006-12.532a5.028 5.028 0 00-4.852-5.175 4.676 4.676 0 00-3.376 1.463 1.111 1.111 0 01-1.555 0 4.673 4.673 0 00-3.376-1.463zM20.178 64.865a1.08 1.08 0 01-.66-.225c-.356-.275-8.707-6.79-8.707-12.29a6.1 6.1 0 015.956-6.22c1.227 0 2.423.393 3.411 1.122a5.747 5.747 0 013.412-1.122 6.1 6.1 0 015.956 6.22c0 5.5-8.351 12.015-8.707 12.29a1.074 1.074 0 01-.66.225zm-3.412-16.573a3.937 3.937 0 00-3.793 4.058c0 3.36 4.711 7.972 7.205 10.047 2.494-2.075 7.206-6.688 7.206-10.047a3.937 3.937 0 00-3.794-4.058 3.648 3.648 0 00-2.634 1.144 1.116 1.116 0 01-1.555 0 3.646 3.646 0 00-2.634-1.144z"/></g></svg>