<svg width="80" height="80" fill="none" xmlns="http://www.w3.org/2000/svg"><g fill="#fff"><path d="M73.33 52.26a1.081 1.081 0 01-1.057-1.31 30.3 30.3 0 00.501-3.09 1.08 1.08 0 012.15.236 32.748 32.748 0 01-.541 3.31 1.082 1.082 0 01-1.052.853zM41.72 77.838A33.42 33.42 0 0114.691 24.78a1.08 1.08 0 01.875-.445h10.605a1.082 1.082 0 01.933.534l6.049 10.33 6.03-10.328a1.081 1.081 0 01.934-.536H67.86a1.082 1.082 0 01.872.443 33.154 33.154 0 016.07 15.055 1.08 1.08 0 01-1.347 1.191 1.082 1.082 0 01-.796-.9 30.993 30.993 0 00-5.354-13.621H40.74l-6.65 11.388a1.082 1.082 0 01-1.472.397 1.081 1.081 0 01-.395-.391l-6.67-11.4h-9.43A31.244 31.244 0 0063.61 66.722a1.08 1.08 0 011.514 1.542 33.19 33.19 0 01-23.405 9.575zm27.662-15.6a1.081 1.081 0 01-.923-1.642 27.84 27.84 0 001.459-2.703 1.082 1.082 0 111.958.914 29.849 29.849 0 01-1.568 2.92 1.082 1.082 0 01-.926.51z"/><path d="M27.158 65.838c-.19 0-.377-.05-.54-.146a26.096 26.096 0 01-12-15.568 1.08 1.08 0 112.086-.566A23.912 23.912 0 0027.7 63.828a1.082 1.082 0 01-.541 2.015l-.002-.005zM47.12 56.96a4.706 4.706 0 11-.022-9.414 4.706 4.706 0 01.022 9.415zm-.015-7.253a2.51 2.51 0 10-.004 5.022 2.51 2.51 0 00.004-5.023v.001zm10.496 11.987a4.707 4.707 0 01-.638-9.37 4.705 4.705 0 11.64 9.37h-.002zm-.014-7.252a2.533 2.533 0 00-2.447 1.889 2.532 2.532 0 102.447-1.89v.001zm-9.803 14a4.707 4.707 0 111.528-9.152 4.707 4.707 0 01-1.528 9.152zm-.011-7.253a2.545 2.545 0 10.008 5.09 2.545 2.545 0 00-.008-5.09zm-27.31-34.694a1.08 1.08 0 01-1.064-.894L17.47 14.615a1.078 1.078 0 01.472-1.125 1.08 1.08 0 011.657.751l1.929 10.986a1.083 1.083 0 01-1.066 1.268z"/><path d="M5.956 17.614a1.08 1.08 0 01-.847-1.753L15.652 2.57a1.081 1.081 0 011.427-.239l14.305 9.118a1.081 1.081 0 01-.402 1.977L6.134 17.6a.994.994 0 01-.18.015zM16.739 4.68L8.551 15.001l19.299-3.243L16.74 4.68zm33.147 21.815a1.08 1.08 0 01-1.05-1.346L52.72 9.774a1.081 1.081 0 01.75-.775l11.493-3.294a1.081 1.081 0 01.596 2.079l-10.895 3.122-3.731 14.772a1.081 1.081 0 01-1.047.817z"/></g></svg>