<svg width="80" height="80" fill="none" xmlns="http://www.w3.org/2000/svg"><g opacity=".8" fill="#fff"><path d="M32.087 71.796a1.11 1.11 0 01-.276-.037A32.09 32.09 0 019 48.923a1.081 1.081 0 112.09-.549 29.922 29.922 0 0021.275 21.297 1.081 1.081 0 01-.275 2.128l-.003-.003zm35.967-16.748a1.081 1.081 0 01-.975-1.55 29.15 29.15 0 001.876-5.126 1.082 1.082 0 012.09.549 31.368 31.368 0 01-2.015 5.513 1.08 1.08 0 01-.976.614zm-20.12 16.748a1.081 1.081 0 01-.272-2.128 29.121 29.121 0 007.505-3.135 1.081 1.081 0 011.105 1.857 31.186 31.186 0 01-8.063 3.371c-.09.024-.182.035-.275.035zm13.882-7.947a1.08 1.08 0 01-.757-1.851 28.08 28.08 0 002.04-2.237 1.081 1.081 0 111.677 1.366 30.1 30.1 0 01-2.199 2.41c-.202.2-.476.312-.76.312zM10.033 33.892a1.081 1.081 0 01-1.045-1.351A32.128 32.128 0 0131.81 9.7a1.081 1.081 0 11.553 2.09 29.96 29.96 0 00-21.285 21.3 1.081 1.081 0 01-1.045.803zm59.957-.011a1.081 1.081 0 01-1.046-.805A29.946 29.946 0 0047.658 11.79a1.082 1.082 0 11.558-2.09 32.117 32.117 0 0122.819 22.823 1.081 1.081 0 01-1.046 1.357zM40.01 55.514a14.787 14.787 0 01-6.405-28.108 15.04 15.04 0 0112.81 0 14.782 14.782 0 01-6.404 28.108zm0-27.406a12.628 12.628 0 10-.002 25.256 12.628 12.628 0 00.003-25.256z"/><path d="M45.946 29.46a1.08 1.08 0 01-1.076-1.202l2.422-21.496a1.263 1.263 0 00-1.254-1.405H33.984a1.263 1.263 0 00-1.254 1.405l2.42 21.495a1.082 1.082 0 01-2.149.243l-2.42-21.496a3.424 3.424 0 013.403-3.806h12.054a3.425 3.425 0 013.402 3.806L47.02 28.5a1.08 1.08 0 01-1.074.96zM5.905 50.18a3.425 3.425 0 01-3.425-3.423V34.702a3.423 3.423 0 013.806-3.4l21.498 2.418a1.081 1.081 0 01-.241 2.149l-21.498-2.42a1.261 1.261 0 00-1.405 1.253v12.055a1.264 1.264 0 001.405 1.254l21.495-2.42a1.08 1.08 0 011.183 1.377 1.081 1.081 0 01-.941.771L6.286 50.162a3.45 3.45 0 01-.381.018zm40.134 28.08H33.986a3.424 3.424 0 01-3.402-3.806l2.42-21.495a1.08 1.08 0 112.147.242l-2.42 21.495a1.264 1.264 0 001.255 1.406h12.053a1.26 1.26 0 001.254-1.406l-2.42-21.495a1.083 1.083 0 01.951-1.217 1.08 1.08 0 011.198.975l2.42 21.495a3.423 3.423 0 01-3.403 3.806zm28.079-28.08a3.48 3.48 0 01-.382-.022l-21.495-2.42a1.082 1.082 0 11.242-2.149l21.495 2.42a1.259 1.259 0 001.406-1.253V34.703a1.26 1.26 0 00-1.406-1.254l-21.495 2.418a1.081 1.081 0 11-.242-2.148l21.495-2.42a3.425 3.425 0 013.807 3.404v12.054a3.423 3.423 0 01-3.425 3.424v-.002zm-43.79-18.056c-.286 0-.561-.114-.764-.316l-4.076-4.076a1.08 1.08 0 111.53-1.529l4.075 4.076a1.08 1.08 0 01-.765 1.845zM26.25 55.568a1.081 1.081 0 01-.765-1.846l4.076-4.075a1.08 1.08 0 111.529 1.528l-4.076 4.076a1.081 1.081 0 01-.764.317zm27.52 0c-.287 0-.562-.114-.765-.317l-4.074-4.076a1.08 1.08 0 011.529-1.528l4.074 4.075a1.081 1.081 0 01-.764 1.846zm-4.073-23.44a1.08 1.08 0 01-.764-1.846l4.075-4.076a1.081 1.081 0 011.53 1.53L50.46 31.81a1.081 1.081 0 01-.764.317z"/></g></svg>