<svg width="45" height="45" fill="none" xmlns="http://www.w3.org/2000/svg"><g opacity=".3" clip-path="url(#clip0)" fill="#fff"><path d="M36.104 34.27l-.968-.342V12.637C35.136 5.668 29.468 0 22.5 0 15.532 0 9.864 5.669 9.864 12.636v8.572c0 5.216 1.734 9.073 3.353 11.536l-4.32 1.525a4.894 4.894 0 00-3.26 4.608v5.464a.66.66 0 101.318 0v-5.464c0-1.51.956-2.862 2.38-3.364l7.082-2.5a6.959 6.959 0 004.192 3.274c.374 1.303 1.222 2.602 1.343 2.783a.66.66 0 001.096 0c.121-.18.97-1.48 1.343-2.784a6.923 6.923 0 002.639-1.404c.482 1.126 1.09 2.134 1.69 3.125.2.329.396.655.587.982a4.192 4.192 0 00-1.73.488l-4.724 2.52a.748.748 0 01-.706 0l-4.724-2.52a4.148 4.148 0 00-4.12.104 4.148 4.148 0 00-2.03 3.585v1.175a.66.66 0 101.318 0v-1.175a2.84 2.84 0 011.39-2.455 2.841 2.841 0 012.821-.071l4.725 2.52c.61.325 1.337.325 1.946 0l4.725-2.52a2.809 2.809 0 011.834-.298c.57 1.19.968 2.463.968 3.999a.66.66 0 001.318 0c0-2.933-1.255-5.009-2.47-7.017-1.266-2.093-2.462-4.07-2.462-7.074v-.705a.66.66 0 00-1.318 0v.705c0 1.231.18 2.31.472 3.289a5.633 5.633 0 01-1.999 1.31 2.071 2.071 0 00-2.041-1.735 2.07 2.07 0 00-2.04 1.733 5.755 5.755 0 01-2.867-2.44 3.483 3.483 0 001.339-2.742V27.42a9.77 9.77 0 003.568.67c4.95 0 9.057-3.684 9.723-8.454h.392c.432 0 .843-.108 1.203-.297V44.34a.66.66 0 101.318 0v-9.015l.529.187a3.573 3.573 0 012.38 3.364v5.464a.66.66 0 001.319 0v-5.464c0-2.068-1.31-3.92-3.26-4.608zm-13.604.162a.75.75 0 01.75.75c0 .63-.38 1.518-.75 2.22-.37-.702-.75-1.59-.75-2.22a.75.75 0 01.75-.75zm11.297-22.473a14.708 14.708 0 01-9.693-2.994A14.971 14.971 0 0119 1.873a11.255 11.255 0 013.5-.555c6.013 0 10.946 4.714 11.297 10.64zM17.614 29.665c0 .914-.58 1.732-1.44 2.036l-1.674.59c-1.562-2.287-3.318-5.99-3.318-11.083V19.37c.338.173.716.266 1.102.266h.492a9.84 9.84 0 004.838 7.15v2.88zm16.198-12.333c-.055.553-.581.986-1.197.986h-.297v-.039a.66.66 0 00-1.318 0c-.004 4.683-3.817 8.494-8.5 8.494-4.687 0-8.5-3.813-8.5-8.5a.66.66 0 00-1.318 0v.045h-.398a1.105 1.105 0 01-1.096-1.218c.055-.553.581-.986 1.197-.986h.251a2.776 2.776 0 002.773-2.773v-.705a2.84 2.84 0 011.146-2.29.66.66 0 10-.792-1.055 4.15 4.15 0 00-1.672 3.345v.705c0 .802-.652 1.454-1.454 1.454h-.252c-.432 0-.843.109-1.203.298v-2.457c0-3.487 1.586-6.611 4.075-8.689 1.566 3.472 3.882 6.442 6.734 8.626 2.982 2.283 6.416 3.54 9.668 3.54h1.057a1.105 1.105 0 011.096 1.219zm-1.096-2.537h-1.057c-2.964 0-6.113-1.16-8.867-3.269-2.75-2.105-4.972-4.996-6.449-8.382.455-.296.932-.56 1.428-.789a16.302 16.302 0 005.536 7.66 16.015 16.015 0 0010.511 3.263v1.784a2.422 2.422 0 00-1.102-.267z"/><path d="M19.603 13.133a.66.66 0 00-.834-.417l-2.114.704a.66.66 0 00.417 1.25l2.114-.704a.66.66 0 00.417-.833zm-.671 3.731v-.705a.66.66 0 10-1.318 0v.705a.66.66 0 101.318 0zm7.795-1.364a.66.66 0 00-.659.66v.704a.66.66 0 101.318 0v-.705a.66.66 0 00-.659-.659zm-1.057 4.166h-6.34a.66.66 0 00-.66.66c0 1.917 1.718 3.476 3.83 3.476s3.83-1.56 3.83-3.477a.66.66 0 00-.66-.659zm-3.17 2.818c-1.117 0-2.067-.63-2.392-1.5h4.784c-.325.87-1.275 1.5-2.392 1.5z"/></g><defs><clipPath id="clip0"><path d="M0 0h45v45H0z" fill="#fff"/></clipPath></defs></svg>