<?xml version="1.0" encoding="utf-8"?><svg viewBox="0 0 1920 1030" xmlns="http://www.w3.org/2000/svg" xmlns:xlink="http://www.w3.org/1999/xlink"><style>:root>svg{display:none}:root>svg:target{display:block}</style><svg class="a-not-active" viewBox="0 0 133 130" id="eye" xmlns="http://www.w3.org/2000/svg"><path d="M71.981 43.672a6.55 6.55 0 00.462-.862c.658-1.55.438-4.072.327-4.999a.429.429 0 01.297-.461.405.405 0 01.514.28c.261.98.882 3.532.786 5.326-.03.547-.136 1.222-.245 1.803-.131.698-.857 1.091-1.526.854-.777-.276-1.05-1.24-.615-1.94z"/><path d="M71.981 43.672a6.55 6.55 0 00.462-.862c.658-1.55.438-4.072.327-4.999a.429.429 0 01.297-.461.405.405 0 01.514.28c.261.98.882 3.532.786 5.326-.03.547-.136 1.222-.245 1.803-.131.698-.857 1.091-1.526.854-.777-.276-1.05-1.24-.615-1.94z"/><path d="M71.981 43.672a6.55 6.55 0 00.462-.862c.658-1.55.438-4.072.327-4.999a.429.429 0 01.297-.461.405.405 0 01.514.28c.261.98.882 3.532.786 5.326-.03.547-.136 1.222-.245 1.803-.131.698-.857 1.091-1.526.854-.777-.276-1.05-1.24-.615-1.94z"/><path d="M71.981 43.672a6.55 6.55 0 00.462-.862c.658-1.55.438-4.072.327-4.999a.429.429 0 01.297-.461.405.405 0 01.514.28c.261.98.882 3.532.786 5.326-.03.547-.136 1.222-.245 1.803-.131.698-.857 1.091-1.526.854-.777-.276-1.05-1.24-.615-1.94zm23.936 9.402c.314-.131.623-.279.876-.434 1.436-.882 2.72-3.063 3.167-3.882a.428.428 0 01.51-.203c.22.073.337.31.256.526-.356.95-1.331 3.389-2.45 4.794-.342.428-.82.917-1.246 1.326-.512.492-1.332.392-1.739-.19-.473-.675-.135-1.62.626-1.937z"/><path d="M95.917 53.074c.314-.131.623-.279.876-.434 1.436-.882 2.72-3.063 3.167-3.882a.428.428 0 01.51-.203c.22.073.337.31.256.526-.356.95-1.331 3.389-2.45 4.794-.342.428-.82.917-1.246 1.326-.512.492-1.332.392-1.739-.19-.473-.675-.135-1.62.626-1.937z"/><path d="M95.917 53.074c.314-.131.623-.279.876-.434 1.436-.882 2.72-3.063 3.167-3.882a.428.428 0 01.51-.203c.22.073.337.31.256.526-.356.95-1.331 3.389-2.45 4.794-.342.428-.82.917-1.246 1.326-.512.492-1.332.392-1.739-.19-.473-.675-.135-1.62.626-1.937z"/><path d="M95.917 53.074c.314-.131.623-.279.876-.434 1.436-.882 2.72-3.063 3.167-3.882a.428.428 0 01.51-.203c.22.073.337.31.256.526-.356.95-1.331 3.389-2.45 4.794-.342.428-.82.917-1.246 1.326-.512.492-1.332.392-1.739-.19-.473-.675-.135-1.62.626-1.937zm-37.084-8.692a5.098 5.098 0 01-.361-.674c-.514-1.213-.343-3.185-.256-3.91a.335.335 0 00-.232-.36.317.317 0 00-.402.219c-.204.765-.69 2.762-.615 4.165.023.427.107.956.192 1.41a.897.897 0 001.193.668c.608-.216.822-.97.481-1.518z"/><path d="M58.833 44.382a5.098 5.098 0 01-.361-.674c-.514-1.213-.343-3.185-.256-3.91a.335.335 0 00-.232-.36.317.317 0 00-.402.219c-.204.765-.69 2.762-.615 4.165.023.427.107.956.192 1.41a.897.897 0 001.193.668c.608-.216.822-.97.481-1.518z"/><path d="M58.833 44.382a5.098 5.098 0 01-.361-.674c-.514-1.213-.343-3.185-.256-3.91a.335.335 0 00-.232-.36.317.317 0 00-.402.219c-.204.765-.69 2.762-.615 4.165.023.427.107.956.192 1.41a.897.897 0 001.193.668c.608-.216.822-.97.481-1.518z"/><path d="M58.833 44.382a5.098 5.098 0 01-.361-.674c-.514-1.213-.343-3.185-.256-3.91a.335.335 0 00-.232-.36.317.317 0 00-.402.219c-.204.765-.69 2.762-.615 4.165.023.427.107.956.192 1.41a.897.897 0 001.193.668c.608-.216.822-.97.481-1.518zm26.02 3.318c.21-.162.415-.336.574-.504.906-.957 1.435-2.864 1.607-3.574a.335.335 0 01.344-.257c.18.011.317.166.3.346-.077.79-.32 2.83-.881 4.117a11.56 11.56 0 01-.673 1.255.897.897 0 01-1.351.208c-.494-.415-.43-1.196.08-1.59z"/><path d="M84.853 47.7c.21-.162.415-.336.574-.504.906-.957 1.435-2.864 1.607-3.574a.335.335 0 01.344-.257c.18.011.317.166.3.346-.077.79-.32 2.83-.881 4.117a11.56 11.56 0 01-.673 1.255.897.897 0 01-1.351.208c-.494-.415-.43-1.196.08-1.59z"/><path d="M84.853 47.7c.21-.162.415-.336.574-.504.906-.957 1.435-2.864 1.607-3.574a.335.335 0 01.344-.257c.18.011.317.166.3.346-.077.79-.32 2.83-.881 4.117a11.56 11.56 0 01-.673 1.255.897.897 0 01-1.351.208c-.494-.415-.43-1.196.08-1.59z"/><path d="M84.853 47.7c.21-.162.415-.336.574-.504.906-.957 1.435-2.864 1.607-3.574a.335.335 0 01.344-.257c.18.011.317.166.3.346-.077.79-.32 2.83-.881 4.117a11.56 11.56 0 01-.673 1.255.897.897 0 01-1.351.208c-.494-.415-.43-1.196.08-1.59zm-39.63 1.942a6.933 6.933 0 01-.576-.864c-.851-1.573-.874-4.26-.85-5.25a.455.455 0 00-.362-.458.43.43 0 00-.514.348c-.177 1.061-.575 3.823-.292 5.71.086.574.267 1.277.441 1.88.21.724 1.017 1.067 1.7.748.793-.37.984-1.417.453-2.114z"/><path d="M45.223 49.642a6.933 6.933 0 01-.576-.864c-.851-1.573-.874-4.26-.85-5.25a.455.455 0 00-.362-.458.43.43 0 00-.514.348c-.177 1.061-.575 3.823-.292 5.71.086.574.267 1.277.441 1.88.21.724 1.017 1.067 1.7.748.793-.37.984-1.417.453-2.114z"/><path d="M45.223 49.642a6.933 6.933 0 01-.576-.864c-.851-1.573-.874-4.26-.85-5.25a.455.455 0 00-.362-.458.43.43 0 00-.514.348c-.177 1.061-.575 3.823-.292 5.71.086.574.267 1.277.441 1.88.21.724 1.017 1.067 1.7.748.793-.37.984-1.417.453-2.114z"/><path d="M45.223 49.642a6.933 6.933 0 01-.576-.864c-.851-1.573-.874-4.26-.85-5.25a.455.455 0 00-.362-.458.43.43 0 00-.514.348c-.177 1.061-.575 3.823-.292 5.71.086.574.267 1.277.441 1.88.21.724 1.017 1.067 1.7.748.793-.37.984-1.417.453-2.114zm-9.739 6.86a5.114 5.114 0 01-.68-.332c-1.122-.68-2.124-2.36-2.473-2.99a.334.334 0 00-.396-.157.316.316 0 00-.2.412c.28.735 1.04 2.606 1.911 3.686.27.333.65.715.985 1.032a.888.888 0 001.337-.146c.371-.524.11-1.26-.484-1.505z"/><path d="M35.484 56.502a5.114 5.114 0 01-.68-.332c-1.122-.68-2.124-2.36-2.473-2.99a.334.334 0 00-.396-.157.316.316 0 00-.2.412c.28.735 1.04 2.606 1.911 3.686.27.333.65.715.985 1.032a.888.888 0 001.337-.146c.371-.524.11-1.26-.484-1.505z"/><path d="M35.484 56.502a5.114 5.114 0 01-.68-.332c-1.122-.68-2.124-2.36-2.473-2.99a.334.334 0 00-.396-.157.316.316 0 00-.2.412c.28.735 1.04 2.606 1.911 3.686.27.333.65.715.985 1.032a.888.888 0 001.337-.146c.371-.524.11-1.26-.484-1.505z"/><path d="M35.484 56.502a5.114 5.114 0 01-.68-.332c-1.122-.68-2.124-2.36-2.473-2.99a.334.334 0 00-.396-.157.316.316 0 00-.2.412c.28.735 1.04 2.606 1.911 3.686.27.333.65.715.985 1.032a.888.888 0 001.337-.146c.371-.524.11-1.26-.484-1.505z"/><path class="alolR" d="M66.789 49.027c-13.911.324-30.262 13.627-30.262 18.811 0 5.184 16.729 16.604 30.262 16.903 14.094.311 31.897-11.719 31.897-16.903 0-5.184-17.44-19.148-31.897-18.811z"/><circle class="acircle-eye aeye" cx="67.334" cy="66.741" r="11.178"/><circle class="aeye-dot aeye" cx="62.886" cy="62.532" r="1.646"/><path class="aeye-top" d="M66.434 49.027c-13.912.325-30.262 13.627-30.262 18.811 0 5.184 3.695-6.338 30.262-6.338C93 61.5 98.33 73.022 98.33 67.838S80.89 48.69 66.434 49.027z"/><path class="aeye-bottom" d="M66.434 76c-24.067 0-30.262-13.346-30.262-8.162 0 5.185 16.729 16.604 30.262 16.903 14.094.312 31.897-11.719 31.897-16.903C98.33 62.654 90.5 76 66.434 76z"/><defs><image id="aa" width="1214" height="1202" xmlns:xlink="http://www.w3.org/1999/xlink" xlink:href="/images/main/text.webp"/></defs></svg><svg viewBox="0 0 502.664 502.664" id="icon" xmlns="http://www.w3.org/2000/svg"><path d="M153.821 358.226L0 274.337v-46.463l153.821-83.414v54.574L46.636 250.523l107.185 53.431v54.272zm26.273 29.358L282.103 115.08h32.227L212.084 387.584h-31.99zm168.749-29.358v-54.272l107.164-52.999-107.164-52.59v-53.927l153.821 83.522v46.183l-153.821 84.083z"/></svg><svg viewBox="0 0 1920 1030" id="line" xmlns="http://www.w3.org/2000/svg"><path d="M-23 608.509S397.804 875.42 499 721c56.47-86.17-23.224-234.79-125-275.5-175-70-127.255 218.502-138.516 394.809-26.753 418.831 532.94 28.886 852.666-93.643C1549.34 569.926 2107.46-129 2107.46-129"/></svg></svg>