<svg width="1805" height="318" fill="none" xmlns="http://www.w3.org/2000/svg"><path d="M989.086 225.724a8.131 8.131 0 00-6.072.903 8.207 8.207 0 00-3.734 4.897 12.662 12.662 0 00-.374-8.673 12.575 12.575 0 00-5.864-6.372 12.474 12.474 0 00-8.573-1.048 12.535 12.535 0 00-7.214 4.773c7.096-11.38 4.086-26.356-6.258-33.639-9.727-6.842-23.758-5.329-32.319 4.067a36.347 36.347 0 00-18.568-18.478 36.084 36.084 0 00-26.104-1.132 36.3 36.3 0 00-20.082 16.802 36.614 36.614 0 00-3.631 26.009c-3.787-9.016-13.952-11.871-19.931-8.124-4.634 2.905-6.896 9.857-4.614 16.539-5.561-2.705-11.879-1.282-15.009 2.895-3.268 4.378-1.624 9.857-1.445 10.448h185.542a7.965 7.965 0 00-.782-6.166 7.88 7.88 0 00-4.968-3.701zm647.304 0a8.13 8.13 0 00-6.07.903 8.243 8.243 0 00-3.74 4.897c.91-2.844.77-5.918-.37-8.673a12.575 12.575 0 00-5.86-6.372 12.499 12.499 0 00-8.58-1.048 12.542 12.542 0 00-7.21 4.773c7.1-11.38 4.09-26.356-6.26-33.639-9.73-6.842-23.76-5.329-32.32 4.067a36.35 36.35 0 00-18.57-18.478 36.071 36.071 0 00-26.1-1.132 36.28 36.28 0 00-20.08 16.802 36.567 36.567 0 00-3.63 26.009c-3.79-9.016-13.95-11.871-19.93-8.124-4.64 2.905-6.9 9.857-4.62 16.539-5.56-2.705-11.87-1.282-15.01 2.895-3.26 4.378-1.62 9.857-1.43 10.448h185.54a8.04 8.04 0 00.23-3.163 8.173 8.173 0 00-1.02-3.001 8.013 8.013 0 00-2.11-2.36 7.893 7.893 0 00-2.86-1.343z" fill="#16274D"/><path d="M1203.95 294.394c-5.83-1.232-11.79 2.174-15.08 8.625 2.71-12.211-2.57-25.044-11.88-29.311-9.06-4.148-19.38 1.002-23.76 12.021 2.65-6.011.31-13.073-3.66-14.936-3.96-1.864-9.28 1.462-10.5 8.014.92-10.108-3.69-19.444-10.51-22.42-8.14-3.546-18.06 2.555-21.02 14.376-10.78-10.128-25.12-11.921-37-4.598-17.21 10.568-19.53 34.139-19.66 35.632-.48-.561-5.24-5.73-11.42-4.007-5.22 1.443-9.29 7.193-10.05 14.365h186.87c-.77-8.445-5.87-16.399-12.33-17.761zM174.976 246.149c-5.83-1.232-11.799 2.164-15.078 8.616 2.711-12.202-2.571-25.044-11.879-29.312-9.059-4.137-19.383 1.002-23.758 12.021 2.651-6.01.309-13.083-3.658-14.946-3.966-1.863-9.288 1.473-10.504 8.014.917-10.108-3.687-19.444-10.514-22.419-8.141-3.547-18.057 2.544-21.017 14.365-10.783-10.118-25.114-11.911-37.013-4.598-17.19 10.689-19.543 34.24-19.642 35.733-.499-.561-5.242-5.74-11.421-4.007-5.222 1.442-9.288 7.182-10.055 14.365h186.877c-.778-8.515-5.85-16.469-12.338-17.832z" fill="#264473"/><path d="M760.662 124.226c-4.325-5.259-13.145-6.241-19.573-1.152 4.485-8.846 2.641-19.034-3.299-23.942-7.633-6.371-22.213-4.328-29.149 7.383-6.339-15.768-21.277-26.196-37.511-26.196-18.507-.09-35.259 13.263-39.794 32.357a16.246 16.246 0 00-10.528-4.373 16.236 16.236 0 00-10.804 3.628 16.392 16.392 0 00-5.8 9.855 16.448 16.448 0 002.039 11.265 8.028 8.028 0 00-4.378-2.797 7.99 7.99 0 00-5.165.476 8.046 8.046 0 00-3.799 3.549 8.11 8.11 0 00-.849 5.144l169.566.13c2.741-5.209 2.342-11.33-.956-15.327zM446.173 68.819c-4.325-5.26-13.145-6.241-19.582-1.152 4.494-8.846 2.65-19.034-3.289-23.942-7.634-6.371-22.224-4.338-29.15 7.383-6.348-15.768-21.287-26.166-37.511-26.246-18.506-.08-35.259 13.273-39.793 32.356a16.25 16.25 0 00-10.534-4.384 16.242 16.242 0 00-10.815 3.63 16.397 16.397 0 00-5.8 9.867 16.452 16.452 0 002.055 11.273 8.026 8.026 0 00-4.379-2.81 7.993 7.993 0 00-5.174.472 8.054 8.054 0 00-3.805 3.556 8.116 8.116 0 00-.843 5.153l169.567.13c2.751-5.168 2.342-11.29-.947-15.286zM1725.44 44.886c-4.32-5.25-13.14-6.231-19.58-1.142 4.5-8.846 2.65-19.033-3.29-23.952-7.63-6.361-22.22-4.328-29.15 7.393-6.35-15.778-21.28-26.176-37.51-26.246-18.5-.08-35.26 13.273-39.79 32.357a16.62 16.62 0 00-9.88-4.238c-3.67-.277-7.33.674-10.4 2.705-6.76 4.658-9.03 14.215-4.82 21.918a8.003 8.003 0 00-4.37-2.81 8.013 8.013 0 00-5.18.472 8.057 8.057 0 00-3.8 3.556 8.153 8.153 0 00-.85 5.154l169.57.12c2.75-5.17 2.34-11.29-.95-15.287z" fill="#0E1A32"/><path d="M506.663 309.511a10.136 10.136 0 00-10.653.621c1.993-5.89.11-12.191-4.265-15.317-5.551-3.947-14.451-2.344-18.935 4.598 3.368-12.612-1.993-25.584-12.188-31.234-12.218-6.772-29.329-1.874-36.873 12.251a22.767 22.767 0 00-12.833-7.315 22.688 22.688 0 00-14.601 2.117 22.859 22.859 0 00-10.253 10.663 23.016 23.016 0 00-1.608 14.741c-.638-.131-6.309-1.193-10.664 2.754a12.581 12.581 0 00-3.596 6.432 12.628 12.628 0 00.617 7.353l141.035-.211a9.846 9.846 0 00-1.68-4.367 9.785 9.785 0 00-3.503-3.086zm1293.097 0a10.154 10.154 0 00-5.42-1.205c-1.88.109-3.7.742-5.25 1.826 2-5.89.11-12.191-4.26-15.317-5.55-3.947-14.45-2.344-18.94 4.598 3.38-12.612-1.99-25.584-12.18-31.234-12.22-6.772-29.33-1.874-36.88 12.251a22.736 22.736 0 00-12.83-7.315 22.682 22.682 0 00-14.6 2.117 22.815 22.815 0 00-10.25 10.663 22.963 22.963 0 00-1.61 14.741c-.64-.131-6.3-1.193-10.66 2.754a12.528 12.528 0 00-3.6 6.432 12.66 12.66 0 00.61 7.353l141.03-.211a9.829 9.829 0 00-1.67-4.362 9.828 9.828 0 00-3.49-3.091z" fill="#264473"/><path d="M1339.71 209.395a6.41 6.41 0 00-3.32-.609 6.43 6.43 0 00-3.18 1.16c4.64-3.907 4.88-10.018.61-14.085-4.28-4.067-11.96-4.818-17.46-1.643 5.69-3.616 6.66-9.877 3.25-13.614-3.86-4.217-13.08-4.948-18.94-.16-.1-10.017-9.55-18.242-21.52-19.123-12.55-.912-24.31 6.531-26.19 16.919a10.158 10.158 0 00-10.15-1.753c-3.66 1.413-5.67 4.809-4.67 8.014-8.97-2.845-19.24-.831-25.59 5.009-6.14 5.6-7.48 13.704-3.35 20.396a7.027 7.027 0 00-5.17 0c-.92.35-1.7 1.004-2.2 1.854a4.35 4.35 0 00-.55 2.824l140.63-.24c.34-.952.29-1.996-.12-2.916a3.912 3.912 0 00-2.08-2.033z" fill="#16274D"/></svg>