<svg viewBox="0 0 183 156" xmlns="http://www.w3.org/2000/svg" xmlns:xlink="http://www.w3.org/1999/xlink"><style>:root&gt;svg{display:none}:root&gt;svg:target{display:block}</style><svg fill="none" viewBox="0 0 183 94" id="cow-left" xmlns="http://www.w3.org/2000/svg"><path d="M169.379 26.23a23.81 23.81 0 01-14.6-5.24c-8.65-7.09-8.64-17.74-8.55-19.8l3.33.15c-.08 1.78-.09 11 7.33 17.07a20.4 20.4 0 0012.54 4.49l-.05 3.33z" fill="#004A68"/><path d="M166.87 29.32a7.457 7.457 0 006.08 1.81 8.308 8.308 0 005.88-4.2l3.32 2.44c1-5.33-2-10.28-6.38-11.54-4.75-1.38-10.51 1.81-11.12 5.87a6.713 6.713 0 002.22 5.62z" fill="#116C9C"/><path opacity=".1" d="M168.869 25.5a13.625 13.625 0 01-4.26-1.35 6.867 6.867 0 002.26 5.2 7.457 7.457 0 006.08 1.81 8.317 8.317 0 005.88-4.2l3.32 2.44a10.875 10.875 0 00-.63-6.14 23.18 23.18 0 01-12.65 2.24z" fill="#231F20"/><path d="M50.25 55.5s9.1 16.64 10.26 32.86l4.14.14-.32-27.44-14.08-5.56z" fill="#004A68"/><path d="M60.62 92.59h4.08l-.05-4.05-4.14-.14c.1 1.4.14 2.8.11 4.19z" fill="#060D0F" opacity=".3"/><path d="M126.799 54.81l-15.39 10 10.42 16.55-.38 7.59 5.15.06 3.56-13.33-3.36-20.87z" fill="#004A68"/><path d="M100.269 84.19a17.375 17.375 0 01-2.52-1.25c-.1-.06-3.25 6.81-3 7.76a.9.9 0 00.73.7c1.18.18 2.89-2.77 3.47-3.53a39.557 39.557 0 012.44-3.28c-.42-.09-.78-.26-1.12-.4zm4.851.22a17.53 17.53 0 01-2.801.31c-.12 0 1 7.48 1.65 8.17a.914.914 0 001 .2c1.08-.5.92-3.9 1-4.85.013-1.364.1-2.725.26-4.08-.38.09-.719.18-1.109.25zm5.72-1.91a16.43 16.43 0 01-2.561 1.18c-.12 0 3.27 6.8 4.14 7.24a.912.912 0 001-.13c.87-.81-.349-4-.579-4.92a38.761 38.761 0 01-1-4c-.33.23-.68.42-1 .63z" fill="#295769"/><path d="M120.22 56.78L89.15 69.36c-.07 5.62 1 11.74 5.14 15.54 4.14 3.8 10.82 4.27 15.9 1.76s8.6-7.58 10.1-13 1.15-11.34-.07-16.88z" fill="#295769"/><path opacity=".2" d="M89.15 69.36c0 4.22.53 8.72 2.58 12.31a49.998 49.998 0 0027.199-4.37 22.038 22.038 0 001.361-3.69c1.5-5.46 1.149-11.29-.071-16.83l-31.07 12.58z" fill="#231F20"/><path d="M147.139 28.17a17.698 17.698 0 01-4.33-12.39 17.64 17.64 0 01-22.18-6.9 17 17 0 01-2.42-8.63l-51.3-.17a13.91 13.91 0 01-6.1 9c-6 3.59-13.22.37-14 0-.86 7.16-6.62 12.53-13.21 12.82a13.2 13.2 0 01-4.51-.62l-6.3 20.13a114.561 114.561 0 0024.35 20.71c12 7.62 30.21 19.33 53.42 16.23 5-.67 24.32-3.21 38.33-19.58a54.765 54.765 0 0012.38-27.37 16.376 16.376 0 01-4.13-3.23z" fill="#116C9C"/><path d="M98.35 59.55c11.719-2.44 19.269-14 18.719-24.33-.33-6.28-3.9-16.52-11.36-17.15-5-.41-10.25 3.54-13.21 9.71-5.84-3.58-12.6-3.94-17-.8-6.68 4.76-5.06 15.5-2.1 21.34 4.43 8.75 15.3 13.25 24.95 11.23zM149.349.35l-31.14-.1a17 17 0 002.42 8.63 17.641 17.641 0 0022.18 6.9 17.698 17.698 0 004.33 12.39 16.378 16.378 0 004.12 3.26 73.93 73.93 0 00-1.91-31.08zM33.59 21.93c6.59-.29 12.35-5.66 13.21-12.82.79.37 8.05 3.59 14 0a13.91 13.91 0 006.1-9L35.76 0l-6.69 21.34a13.2 13.2 0 004.52.59z" fill="#58BBE0"/><path opacity=".05" d="M152.099 19.33c-.16-.25-.29-.47-.4-.65a67.375 67.375 0 01-25.27 32.76c-4.41 3-17.53 11.63-35.57 11.23-29.52-.64-47.17-24.95-49.31-28-1.44 0-2.89-.07-4.35-.22-3.28-.47-6.24-.94-9.36-1.41-.782-.116-1.57-.19-2.36-.22l-2.7 8.63a114.563 114.563 0 0024.35 20.71c12 7.62 30.21 19.33 53.42 16.23 5-.67 24.32-3.21 38.33-19.58a54.748 54.748 0 0012.38-27.37c.636-4.004.918-8.057.84-12.11z" fill="#231F20"/><path opacity=".1" d="M90.24 69.85a109.81 109.81 0 01-54.83-16.21 112.05 112.05 0 0011.72 8.51c12 7.62 30.21 19.33 53.419 16.23 4.86-.65 23.3-3.08 37.2-18.31a109.147 109.147 0 01-47.51 9.78z" fill="#231F20"/><path d="M121.25 92.88h4.32l1-3.87-5.15-.06-.17 3.93zm-50.26.31h4.08l.37-3.8h-4.45c.03 1.24.03 2.53 0 3.8z" fill="#060D0F" opacity=".3"/><path d="M66.79 56.14a183.232 183.232 0 014.199 33.2h4.45l2.71-27.69-11.36-5.51z" fill="#116C9C"/><path opacity=".05" d="M66.79 56.14a183.232 183.232 0 014.199 33.2h4.45l2.71-27.69-11.36-5.51z" fill="#231F20"/><path d="M146.069 92.88h3.52l.15-4.66a144 144 0 01-4.12.45l.45 4.21z" fill="#060D0F" opacity=".3"/><path d="M143.51 35.32L125.22 57.5l19 18.64 1.36 12.5a144 144 0 004.12-.45l.4-12.49c-2.193-13.466-4.39-26.926-6.59-40.38z" fill="#116C9C"/><path opacity=".05" d="M143.51 35.32L125.22 57.5l19 18.64 1.36 12.5a144 144 0 004.12-.45l.4-12.49c-2.193-13.466-4.39-26.926-6.59-40.38z" fill="#231F20"/><path d="M128.439 36.27c12-11.78 13.93-27.15 14-35.94l-24.19-.08-51.3-.17L43.41 0c.53 7.46 3.6 28 21.42 40.48 18.76 13.21 46.68 12.44 63.61-4.21z" fill="#fff" opacity=".15"/><path d="M21.29 82.15l12.78-4.75a7.09 7.09 0 01-3.121 8.64 7.17 7.17 0 01-9.66-3.89z" fill="#29477A"/><path d="M31.77 79.58l10.37 3.86a6.71 6.71 0 00-2.37-3.94 6.84 6.84 0 00-4.78-1.44 9.093 9.093 0 002.2-.47 9.55 9.55 0 004.2-3.05c-1.73.38-3.47.78-5.24 1.2-1.49.36-3 .72-4.43 1.09l.05 2.75zm-6.5 2.17l-7.41 8.23a6.67 6.67 0 013.85-8.09 8.86 8.86 0 01-2.17.6 9.52 9.52 0 01-5.13-.76 415 415 0 015.2-1.36l4.43-1.09 1.23 2.47z" fill="#131E32"/><path d="M13.75 31.75L.25 25.19a9.2 9.2 0 0013.31 10.23l.19-3.67z" fill="#1271A3"/><path d="M16.33 12.97A17.7 17.7 0 0011 28.36l6.62 2.1-1.29-17.49zm26.81.69a19.229 19.229 0 013.58 9.07 18.82 18.82 0 01-.5 7l-6.79 1.47 3.71-17.54z" fill="#29477A"/><path opacity=".1" d="M10.89 24.2a17.998 17.998 0 00.11 4.16l6.62 2.1c-.13-1.83-.27-3.67-.4-5.51a6.08 6.08 0 01-.61 0c-1.91-.26-3.83-.45-5.72-.75zm28.54 6.97l6.79-1.47c.52-1.982.716-4.035.58-6.08-2 .32-4 .56-5.93.74l-1.44 6.81z" fill="#231F20"/><path d="M45.35 33.87l13.51-6.56A9.21 9.21 0 0145.51 37.5l-.16-3.63z" fill="#1271A3"/><path opacity=".3" d="M60.42 37.3l-10.07 4.89a13.25 13.25 0 00-3.51-4.77 12.57 12.57 0 00-7.79-2.32 27.11 27.11 0 00-16 5.55l-.24.79a114.558 114.558 0 0024.35 20.71c1.62 1 3.35 2.12 5.19 3.25a34.9 34.9 0 00.27-16.87 8.998 8.998 0 004.16-1.59 9.3 9.3 0 003.64-9.64z" fill="#231F20"/><path d="M27.74 63a13.58 13.58 0 0112.95-5c.24-.58.49-1.17.73-1.76a147.64 147.64 0 008.13-26.86L10.67 28.3c.06.8.13 1.61.19 2.42a16.22 16.22 0 016.21 4.16c.84.9 5.91 6.4 4 13.46a13.75 13.75 0 01-8.56 9.16c.267 5.72.473 11.343.62 16.87l12.78 1A13.33 13.33 0 0127.74 63z" fill="#1271A3"/><path d="M21.09 48.32c1.89-7.06-3.18-12.56-4-13.46a16.22 16.22 0 00-6.21-4.16c.52 6.58.97 13.297 1.35 20.15.12 2.23.23 4.44.34 6.65a13.75 13.75 0 008.52-9.18zm19.6 9.66a13.579 13.579 0 00-12.95 5 13.33 13.33 0 00-1.79 12.41l5.65.46a149.653 149.653 0 009.09-17.87z" fill="#50ACC6"/><path d="M10.67 28.28c.6 7.334 1.113 14.857 1.54 22.57.44 8 .773 15.84 1 23.52l9.16.75c2.41-5.83 4.76-12.22 6.93-19.14a233.322 233.322 0 006.7-27l-25.33-.7z" fill="#fff" opacity=".15"/><path d="M9.18 66.09a82.401 82.401 0 0029.7-.39c.65 7.47-3.31 14.27-9.5 16.76-7 2.8-13.3-1.22-13.57-1.4a15.42 15.42 0 01-6.63-14.97z" fill="#29477A"/><path opacity=".1" d="M11.39 76.5a14.72 14.72 0 004.42 4.54c.27.18 6.61 4.2 13.57 1.4a15 15 0 007.89-7.62 34.25 34.25 0 01-25.88 1.68z" fill="#231F20"/><path opacity=".1" d="M29.35 71.24a8.6 8.6 0 01-9.68 6 8.41 8.41 0 01-6.25-6.78 11.79 11.79 0 017.12-2.78 12.118 12.118 0 018.81 3.56z" fill="#58BBE0"/><path d="M12.51 67.58c0 1.63.07 3.26.11 4.89a2.55 2.55 0 01-2.06-2.83 2.41 2.41 0 011.95-2.06zm19.92.72c0 1.63.08 3.25.11 4.88a2.56 2.56 0 01-2.06-2.83 2.42 2.42 0 011.95-2.05z" fill="#191B1F"/><path d="M27.74 30.3c-2.44.36-5.06-1.44-6.27-3.76a7.57 7.57 0 010-6.56l3.57 6.18c.42-1.84.83-3.67 1.25-5.5.68 2 1.35 4 2 6 1.48-2 3-4 4.43-6.08 1.12 5.05-1.78 9.25-4.98 9.72z" fill="#1271A3"/><path d="M27.74 30.3c-2.44.36-5.06-1.44-6.27-3.76a7.57 7.57 0 010-6.56l3.57 6.18c.42-1.84.83-3.67 1.25-5.5.68 2 1.35 4 2 6 1.48-2 3-4 4.43-6.08 1.12 5.05-1.78 9.25-4.98 9.72z" fill="#fff" opacity=".15"/><path d="M14.51 46.15l24.31-.29a12.91 12.91 0 00-24.31.29z" fill="#fff" opacity=".2"/><path d="M15.51 47h-.23c-1.38-.19-2.48-2.13-2.44-4.33h1.09c0 1.84.87 3.14 1.5 3.22a1.392 1.392 0 001-.38 4.41 4.41 0 001.38-3.13l1.09.07a5.48 5.48 0 01-1.78 3.9 2.52 2.52 0 01-1.61.65zm18.24.5h-.24c-1.37-.16-2.81-1.86-2.77-4.32h1.1c0 1.86.999 3.14 1.799 3.23a2.09 2.09 0 001.4-.56 4.14 4.14 0 001.41-3l1.09.07a5.199 5.199 0 01-1.81 3.73 3.18 3.18 0 01-1.98.85z" fill="#1D1D16"/></svg><svg fill="none" viewBox="0 0 126 156" id="cow-right" xmlns="http://www.w3.org/2000/svg"><path opacity=".2" d="M122.74 143.021H0s56.6 27.31 122.74 0z" fill="#231F20"/><path d="M4.8 48.821a14.87 14.87 0 017.07-10.09 3.33 3.33 0 011.76-.58c1.39.06 1.41 1.27.81 2-.73 1-1.83 1.71-2.64 2.62a16.23 16.23 0 00-3.67 6.27c-1.05 3.76.16 8.4 3.63 10.18.77.4.93 3.74.94 4.47a6.72 6.72 0 01-4.41-2.37 14.2 14.2 0 01-3.49-12.5z" fill="#131E32"/><path d="M12.56 30.891c-8 5.56 3.8 15.11 8.74 8.11 2.07-3 0-7 3.87-9.08-2.22-1.61-5.27-1.33-8-.77a12.512 12.512 0 00-4.43 1.59l-.18.15z" fill="#131E32"/><path opacity=".1" d="M12.75 35.121a9.49 9.49 0 004.9 1.09h.32a12.57 12.57 0 004.45-.8 7.56 7.56 0 01-1.12 3.59c-4.15 5.88-13.13.09-11.17-5.21a9.508 9.508 0 002.62 1.33z" fill="#231F20"/><path d="M109.041 1.471a1.766 1.766 0 01.59-1.34 1.158 1.158 0 011.27.13c.343.292.617.658.799 1.07a17.3 17.3 0 011.181 12.86l-7.74.36c2.9-3.59 3.35-8.5 3.9-13.08z" fill="#29477A"/><path d="M85.65 11.331a10.983 10.983 0 00-.65-1 9.21 9.21 0 00-5.85-3.63 10.77 10.77 0 00.11 3.92 9.14 9.14 0 001.6 3.7 9.43 9.43 0 002.48 2.4 8.11 8.11 0 004.07.71 19.844 19.844 0 00-.67-3.67 13.381 13.381 0 00-1.09-2.43z" fill="#58BBE0"/><path d="M90.45 2.002a1.75 1.75 0 00-.59-1.33 1.18 1.18 0 00-1.27.12 3.08 3.08 0 00-.8 1.08 17.27 17.27 0 00-1.18 12.85l7.74.36c-2.9-3.59-3.35-8.5-3.9-13.08z" fill="#29477A"/><path opacity=".1" d="M113.601 9.771a17.035 17.035 0 01-.72 4.42l-7.74.36a12.805 12.805 0 001.72-2.85 26.568 26.568 0 006.74-1.93zm-21.561.91a13.76 13.76 0 002.31 4.36l-7.74-.36a17.09 17.09 0 01-.68-6.2 35.612 35.612 0 006.11 2.2z" fill="#231F20"/><path d="M32.02 113.562l14 8.64-7.9 14.3.85 6.56h-4.45l-4-11.52 1.5-17.98z" fill="#3B7E96"/><path opacity=".1" d="M42.51 127.381l.13.06c-3.78-1.67-7.6-3.27-11.36-5l.74-8.91 14 8.64-3 5.41-.51-.2z" fill="#231F20"/><path d="M39.39 146.451h-3.74l-1.15-3.34h4.45l.44 3.34z" fill="#060D0F" opacity=".3"/><path d="M41.08 112.472l26.84 10.87c.07 4.86-.85 10.14-4.43 13.43-3.58 3.29-9.35 3.69-13.74 1.52-4.39-2.17-7.43-6.55-8.73-11.27a30.47 30.47 0 01.06-14.55z" fill="#295769"/><path opacity=".2" d="M56.82 132.212a111.408 111.408 0 01-15.21-3.39c-.23-.6-.42-1.2-.59-1.8a30.47 30.47 0 01.06-14.55l26.84 10.87a22.503 22.503 0 01-1.68 9.58c-3.146-.1-6.286-.337-9.42-.71z" fill="#231F20"/><path d="M108.64 114.411s-7.86 14.37-8.87 28.39l-3.57.12.27-23.71 12.17-4.8z" fill="#3B7E96"/><path opacity=".1" d="M100.19 129.791c-.58.35-1.17.67-1.78 1-.61.33-1.39.52-2.08.76l.14-12.3 12.17-4.8a89.98 89.98 0 00-5.69 13.45 13.703 13.703 0 00-2.76 1.89z" fill="#231F20"/><path opacity=".05" d="M63.35 64.122c-.77-.17-1.54-.38-2.3-.61-.39-.21-.77-.44-1.15-.67-.38-.23-.77-.76-1.14-1.15-.61-1-1.18-2-1.71-3-.14-.41-.26-.83-.39-1.24 1.6-.1 3.2-.21 4.8-.33a9.529 9.529 0 003.14-.62 7.822 7.822 0 002.22-1.66c.07 1.11.11 2.22.12 3.32.01 1.1-.09 2-.17 3-.08 1-.43 2-.69 3-.91.02-1.79.01-2.73-.04z" fill="#231F20"/><path d="M14.44 81.982c4.94-1 9.42-5.15 11.67-9.55 2.47 3.32 7.8 3.49 11.13 1 3.33-2.49 4.8-6.82 4.77-10.95a21.574 21.574 0 00-.47-4.44c6.67-.19 13.27-.41 19.92-.93a9.531 9.531 0 003.14-.62 8.712 8.712 0 002.44-1.88 62.905 62.905 0 008.45-10.52c1.112.421 2.276.69 3.46.8 3.92.34 9.43-.08 11.3-4.22 2.41-5.34-2.45-10.45-7.44-13.23a37.368 37.368 0 001-13.15l29.08-.69a206.91 206.91 0 017.72 22c-6 2.12-9.89 9.23-9.64 16.51.14 4.08 1.52 8.41 4.84 10.78-6.6-1.18-13 4.87-13.74 11.54-1.16 10.49 9.32 21.61 19.24 24.31a45.736 45.736 0 01-4.7 10.07c-15 23.33-50.37 24.38-73.48 15.15-11.28-4.51-21.49-12.64-26.47-23.72a63.874 63.874 0 01-4-13.94c-.26-1.36-.48-2.75-.67-4.15a9.875 9.875 0 002.45-.17z" fill="#58BBE0"/><path d="M81.601 111.192a22.591 22.591 0 01-14.35 4.73c-9.93-.17-18.48-7.22-23.23-15.55-4.2-7.37-7.72-20.79 4.93-21.31a14.41 14.41 0 0113.78 9.27c8.64-3.78 20.13.85 22.81 10.16a11.542 11.542 0 01-3.94 12.7zM11.04 58.962c0-.13 27.62-.8 30.13-.88h.37c.31 1.46.468 2.948.47 4.44 0 4.13-1.45 8.49-4.77 10.95-3.32 2.46-8.66 2.29-11.13-1-2.25 4.4-6.73 8.5-11.67 9.55a9.866 9.866 0 01-2.47.21c-1.06-7.65-.98-15.75-.93-23.27zm91 15.5c.75-6.67 7.14-12.72 13.74-11.54-3.32-2.37-4.7-6.7-4.84-10.78-.25-7.28 3.67-14.39 9.64-16.51a141.007 141.007 0 014.09 19c2 14.14 1.44 28.77-2.83 42.39-.18.57-.36 1.13-.56 1.7-9.92-2.65-20.4-13.77-19.24-24.26zM90.291 40.681c-1.87 4.14-7.38 4.56-11.3 4.22a13.188 13.188 0 01-3.46-.8 55.678 55.678 0 007.32-16.65c4.95 2.8 9.81 7.91 7.44 13.23z" fill="#131E32"/><path opacity=".05" d="M17.47 92.202a79.076 79.076 0 0013.2 11.36c4.79 3.45 10.21 5.71 15.69 7.84 15.07 5.84 33.64 4.56 47.09-4.53 28.841-19.49 26.891-63.5 15.221-92.06-.14-.35-.29-.71-.43-1.07l4.62-.11c5.42 13.21 9.83 26.91 11.81 41 1.98 14.09 1.44 28.77-2.83 42.39a48.615 48.615 0 01-5.26 11.77c-15 23.33-50.37 24.38-73.48 15.15-11.28-4.51-21.49-12.64-26.47-23.72a63.858 63.858 0 01-4-13.94v-.07c1.51 2.09 3.16 4.08 4.84 5.99z" fill="#231F20"/><path d="M99.68 146.422h-3.53v-3.5l3.57-.12c-.03 1.22-.07 2.43-.04 3.62z" fill="#060D0F" opacity=".3"/><path opacity=".05" d="M115.591 110.301c-15.48 21.91-49.87 22.73-72.49 13.69-9.64-3.85-18.49-10.35-24-19.08 0 0 14.42 17.82 46.43 17.82s50.06-12.43 50.06-12.43z" fill="#231F20"/><path d="M113.29 10.051c.2-.35.42-.69.65-1a9.258 9.258 0 015.85-3.64 10.82 10.82 0 01-.1 3.93 9.629 9.629 0 01-4.09 6.1 8 8 0 01-4.06.71c.102-1.242.327-2.471.67-3.67.276-.845.638-1.659 1.08-2.43zm-14.51 2.5a10.575 10.575 0 012.45-4.55 13.55 13.55 0 01-.37 4.16 12.624 12.624 0 013.67-4.12 26.008 26.008 0 01-3.11 6.73l-3.9.1a11.86 11.86 0 01-2.1-6.92l3.36 4.6z" fill="#58BBE0"/><path opacity=".2" d="M66.55 55.122l.49-.48a62.9 62.9 0 008.45-10.52c1.113.421 2.277.69 3.46.8 3.92.34 9.43-.08 11.3-4.22 2.41-5.34-2.45-10.45-7.44-13.23a37.37 37.37 0 001-13.15l19.741-.47c.237.716.407 1.452.51 2.2 1 7.47.92 15.33-1.76 22.46a31.122 31.122 0 01-1.8 3.93 28.402 28.402 0 01-25.14 14.5 23.191 23.191 0 01-8.43-1.67c-.15-.04-.26-.1-.38-.15zm-44.02 3.45c8.19-.22 16.39-.38 24.58-.67 18.46-.66 21-.32 24.38.94 11.51 4.27 24.09 18.3 20.75 31.24-3.52 13.61-22.6 18.16-34.58 17.29-17.34-1.26-33.48-14.89-36.49-31.65a35.241 35.241 0 011.36-17.15z" fill="#EC87C3"/><path opacity=".1" d="M61.7 74.752c1.18-3.47 5.49-5.92 8.56-7.54l.16-.08a8.58 8.58 0 01-2.91-5.62l.69.19a58.002 58.002 0 009.36 1.55 45.9 45.9 0 0016.08-1.44 40.815 40.815 0 004.1-1.34 14.94 14.94 0 01-5.75 9.21c2.63 1.65 5.19 3.77 6.1 6.44a23.72 23.72 0 01-7.76-4.06 16 16 0 013.66 7.58 26.87 26.87 0 01-6.42-5.93c-.14-.17-.61-.84-1.17-1.68-.35.06-.71.12-1.07.16a21.58 21.58 0 01-12-2.89c-.9 1.44-2 3-2.2 3.29a23.643 23.643 0 01-3.39 3.54 23.006 23.006 0 01-2.38 1.78 14.32 14.32 0 013.29-6.81 21.202 21.202 0 01-6.95 3.65z" fill="#231F20"/><path d="M20.76 146.962h-3l-.56-4c1.21.16 2.41.29 3.6.4l-.04 3.6z" fill="#060D0F" opacity=".3"/><path d="M19.8 102.252l15.67 13.65-14.71 16.12v11.31a92.1 92.1 0 01-3.6-.4l-1.52-11.3 4.16-29.38z" fill="#58BBE0"/><path d="M58.29 136.161a15.795 15.795 0 002.18-1.079c.09-.06 2.81 5.879 2.63 6.699a.792.792 0 01-.63.611c-1 .15-2.5-2.401-3-3.051a33.433 33.433 0 00-2.11-2.84c.35-.11.67-.22.93-.34zm-4.16.18a15.14 15.14 0 002.42.28c.1 0-.84 6.46-1.43 7a.77.77 0 01-.86.18c-.94-.43-.8-3.37-.86-4.2a33.174 33.174 0 00-.23-3.52l.96.26zm-4.94-1.66a15.18 15.18 0 002.21 1c.1 0-2.83 5.87-3.58 6.25a.789.789 0 01-.87-.1c-.75-.71.3-3.45.5-4.26.359-1.123.66-2.265.9-3.42.27.192.551.369.84.53z" fill="#295769"/><path d="M88.58 146.561h-3.52l-.33-3.28 3.84-.05c-.02 1.12-.02 2.23.01 3.33z" fill="#060D0F" opacity=".3"/><path d="M92.21 114.411a161.136 161.136 0 00-3.64 28.82l-3.84.05-2.34-24.07 9.82-4.8z" fill="#58BBE0"/><path class="bcow-right__bottom" d="M66.77 56.312c2-1.32 6.17-.24 8.17-.14 1.51.09 3.32-.28 4.2 1.14.88 1.42.32 3.74-.35 5-2 3.75-8.56 4.34-11.42 1.31-1.36-1.45-2.48-4.79-1.28-6.63.178-.27.41-.501.68-.68z" fill="#29477A"/><path class="bcow-right__trava-right" d="M84.18 67.931a26.932 26.932 0 01-3.77-3.93c-.44-.57-4.23-6.13-3.81-6.43 1.39-1 3.31-.34 4.81.45 3.41 1.8 8.21 4.52 9.52 8.38a23.54 23.54 0 01-7.76-4.06 16 16 0 013.66 7.58 25.813 25.813 0 01-2.65-1.99z" fill="#131E32"/><path class="bcow-right__trava-left" d="M60.61 66.412a23.64 23.64 0 003.39-3.54c.4-.51 3.8-5.51 3.42-5.78-1.24-.87-3-.3-4.32.41-3.07 1.61-7.38 4.06-8.56 7.54a21.222 21.222 0 007-3.66 14.36 14.36 0 00-3.29 6.82 24.646 24.646 0 002.36-1.79z" fill="#131E32"/><path class="bcow-right__top" d="M60.64 40.742a42.809 42.809 0 0012.31 1.48 44.67 44.67 0 0012.5-1.5 17.17 17.17 0 01-.13 11.47 15 15 0 01-9.54 9.24 12 12 0 01-12.47-3.67c-2.24-2.79-2.91-6.53-3-10.11-.09-2.309.02-4.62.33-6.91z" fill="#29477A"/><path opacity=".05" d="M61.58 54.682a35 35 0 0011.88 2.22 27.273 27.273 0 0010.38-1.76 14.5 14.5 0 01-8.06 6.28 12 12 0 01-12.47-3.67 11.474 11.474 0 01-1.75-3.08l.02.01z" fill="#231F20"/><path class="bcow-right__top" d="M83.63 44.071c.84.82 1.12 3.05-.36 3.64a1.46 1.46 0 01-1.78-.94 2.561 2.561 0 01.35-2.14c.64-1.04 1.31-1.03 1.79-.56zm-21.01-.649a4.15 4.15 0 01.79 2.38c.06 1.39-1.51 1.47-2.15.34-.38-.66-.39-2.83.7-3a.78.78 0 01.66.28z" fill="#191B1F"/><path opacity=".05" d="M114.19 12.042a8.19 8.19 0 011.27-1.77 8.637 8.637 0 014.42-2.26c0 .43-.1.87-.18 1.31a9.628 9.628 0 01-4.09 6.1 6.3 6.3 0 01-2.7.69c.157-1.427.592-2.81 1.28-4.07z" fill="#231F20"/><path d="M103.861 18.932c1 .2 1.48 1.72 1.25 2.88-.23 1.16-1.54 2.52-2.5 2.25s-1.35-1.92-1-3.13c.31-1.03 1.31-2.19 2.25-2zm-14.371-2.87c1 .19 1.48 1.72 1.25 2.87-.23 1.15-1.55 2.52-2.5 2.25s-1.36-1.92-1-3.12c.3-1.04 1.3-2.2 2.25-2z" fill="#131E32"/><path class="bcow-right__top" opacity=".1" d="M69.53 44.532c-3.92.67-8.91 2.58-5.23 6.69a10.7 10.7 0 005.53 3.11 15.92 15.92 0 007.36.14c2.14-.55 4.11-2 4.13-4.44 0-4.72-5.11-5.81-8.88-5.79-.975.027-1.948.124-2.91.29z" fill="#58BBE0"/></svg><svg fill="none" viewBox="0 0 145 134" id="cow-ufo" xmlns="http://www.w3.org/2000/svg"><path d="M71.295 100.826c-2.521 3.758-3.761 8.273-3.451 12.567.19 2.56 1.023 4.902 2.406 6.767 1.382 1.864 3.26 3.178 5.425 3.794 6.118 1.5 13.277-3.951 15.819-11.308 2.267-6.547-.01-12.06-.401-12.987l-19.798 1.167z" fill="#A1748D"/><path opacity=".2" d="M90.25 115.612c.463-.865.857-1.766 1.176-2.689 2.335-6.681-.009-12.308-.412-13.254l-20.39 1.191c-2.596 3.835-3.873 8.443-3.554 12.825a15 15 0 00.332 2.078c7.703-1.669 15.384-1.324 22.848-.151z" fill="#231F20"/><path d="M49.557 83.042c-2.437.282-4.866 1.272-7.059 2.878-2.193 1.606-4.078 3.775-5.48 6.306a23.2 23.2 0 00-2.7 9.058c-.254 3.123.174 6.151 1.246 8.805l3.304-1.541c.258-3.854.522-7.709.79-11.563l12.573-3.591c-.887-3.466-1.778-6.917-2.674-10.352z" fill="#507BAD"/><path d="M35.743 109.605l3.413-1.556.295-4.223c-1.651.409-3.278 1.02-4.898 1.275a17.489 17.489 0 001.19 4.504z" fill="#231F20"/><path d="M108.403 124.708l-4.136-12.647 6.749-17.499-9.822-.811c-2.151 6.703-2.726 13.744-1.653 20.252.858 5.051 2.784 9.563 5.602 13.123l3.26-2.418z" fill="#507BAD"/><path d="M106.863 127.159l3.646-2.513a151.851 151.851 0 01-1.345-3.783c-1.553.982-3.126 1.937-4.701 3.01a25.309 25.309 0 002.4 3.286z" fill="#231F20"/><path d="M132.503 52.344l-1.365-1.877c.208-.272 4.991-6.716 4.236-14.857-.213-2.22-.825-4.283-1.793-6.044-.967-1.761-2.268-3.178-3.812-4.153l1.114-2.655c1.822 1.15 3.357 2.825 4.498 4.906 1.141 2.081 1.859 4.518 2.105 7.141.894 9.424-4.372 16.705-4.983 17.54z" fill="#FCDBFF"/><path opacity=".3" d="M132.503 52.344l-1.365-1.877c.208-.272 4.991-6.716 4.236-14.857-.213-2.22-.825-4.283-1.793-6.044-.967-1.761-2.268-3.178-3.812-4.153l1.114-2.655c1.822 1.15 3.357 2.825 4.498 4.906 1.141 2.081 1.859 4.518 2.105 7.141.894 9.424-4.372 16.705-4.983 17.54z" fill="#131E32"/><path d="M130.351 25.52c-1.679 2.607-4.86 3.102-6.879 2.45-3.307-1.087-5.282-5.844-4.53-11.824l3.809 1.925c.183-.253 2.772-3.674 5.319-3.266 3.274.498 4.627 7.096 2.281 10.715z" fill="#944E74"/><path opacity=".2" d="M119.509 22.663c.293 1.227.826 2.332 1.563 3.24a6.793 6.793 0 002.716 2.026c2.119.686 5.463.127 7.219-2.57a7.48 7.48 0 001.016-2.552c-4.279 1.576-8.693 1.525-12.514-.144z" fill="#231F20"/><path d="M40.88 37.872c-11.08 38.082 7.482 72.142 34.13 73.701 25.816 1.522 54.949-27.708 58.713-65.168a10746.567 10746.567 0 01-49.004-4.414c-14.617-1.345-29.23-2.718-43.839-4.12z" fill="#FCDBFF"/><path d="M29.358 19.54c-.21 10.667-.417 21.334-.622 32.002l19.622-6.884 5.696-26.074-24.696.956z" fill="#FCDBFF"/><path opacity=".2" d="M35.259 45.159c-1.756 9.584-1.737 19.192.054 28.15 6.758-1.498 12.156-7.728 13.008-13.59 1.029-7.094-4.411-14.966-13.062-14.56zm5.133 30.615c5.26 20.221 19.18 34.43 36.347 35.469 17.167 1.039 35.697-11.241 47.78-30.526-14.435 6.08-29.4 8.784-43.906 7.932-14.506-.853-28.22-5.241-40.238-12.876h.017z" fill="#231F20"/><path opacity=".2" d="M54.1 98.433c6.507 7.039 14.656 11.381 23.697 11.942 7.416.391 15.082-1.56 22.237-5.66-16.085 2.141-31.926.34-45.933-6.282z" fill="#231F20"/><path opacity=".3" d="M81.03 60.847c-2.342-4.208-6.152-6.373-9.96-5.33-5.605 1.524-9.018 9.386-9.734 14.479-1.562 11.102 7.459 23.505 18.45 21.269 10.751-2.187 19.91-17.672 18.22-26.387-.414-1.912-1.262-3.607-2.47-4.934a8.883 8.883 0 00-4.45-2.67c-5.05-1.1-9.463 3.008-10.055 3.573zm53.167-11.951c-7.807-.71-15.609-1.427-23.404-2.149-.642 2.318-.722 4.702-.231 6.876.524 2.058 1.593 3.798 3.074 5.002 1.481 1.205 3.306 1.82 5.248 1.767-2.225 3.781-3.274 8.174-2.949 12.342.442 4.616 2.866 9.84 7.013 10.41 6.245-10.487 10.133-22.323 11.249-34.248z" fill="#131E32"/><path d="M71.9 116.751a21.72 21.72 0 00-3.356 6.35c-.298.892-1.204 3.65-.59 4.16.614.509 2.537-1.63 2.716-1.841 1.622-1.955 2.737-4.399 3.173-6.957l-1.943-1.712zm7.518 3.181a23.17 23.17 0 00-1.095 7.123c.008.938.039 3.683.767 3.773.727.091 1.822-2.751 1.922-3.016.873-2.463 1.132-5.095.739-7.516l-2.333-.364zm6.453-.109c.452 2.213 1.33 4.217 2.575 5.879.49.647 1.93 2.514 2.69 1.951.762-.563.38-3.485.343-3.758-.387-2.399-1.494-4.456-3.142-5.838l-2.466 1.766z" fill="#A1748D"/><path d="M55.526 93.417c-2.144 1.537-4.03 3.583-5.514 5.981a23.135 23.135 0 00-3.05 7.855c-.563 3.065-.449 6.132.332 8.896.782 2.764 2.203 5.128 4.123 6.858a471.926 471.926 0 012.708-3.028l-3.023-10.119c3.172-1.083 6.137-3.208 8.521-6.108 2.195-2.695 3.877-5.881 4.903-9.288l-9-1.047z" fill="#8CA8DE"/><path opacity=".2" d="M55.526 93.417c-2.144 1.537-4.03 3.583-5.514 5.981a23.135 23.135 0 00-3.05 7.855c-.563 3.065-.449 6.132.332 8.896.782 2.764 2.203 5.128 4.123 6.858a471.926 471.926 0 012.708-3.028l-3.023-10.119c3.172-1.083 6.137-3.208 8.521-6.108 2.195-2.695 3.877-5.881 4.903-9.288l-9-1.047z" fill="#231F20"/><path d="M52.25 122.711c.939-1.021 1.89-2.045 2.85-3.071l-.871-2.764c-1.47 1.026-2.94 2.062-4.407 3.071a12.55 12.55 0 002.427 2.764z" fill="#231F20"/><path d="M127.192 90.201l-9.268 11.79c-1.244-3.043-2.48-6.086-3.707-9.129l-11.237.078c-.061.398-1.228 9.75 4.635 14.406.417.336 5.548 4.231 11.988.769 5.056-2.676 8.834-8.86 9.573-15.598l-1.984-2.316z" fill="#9BAFE2"/><path opacity=".2" d="M127.192 90.201l-9.268 11.79c-1.244-3.043-2.48-6.086-3.707-9.129l-11.237.078c-.061.398-1.228 9.75 4.635 14.406.417.336 5.548 4.231 11.988.769 5.056-2.676 8.834-8.86 9.573-15.598l-1.984-2.316z" fill="#231F20"/><path d="M129.196 93.357l-1.851-2.279-2.151 2.843c1.036 1.282 2.085 2.474 3.13 3.693a22.04 22.04 0 00.872-4.257z" fill="#231F20"/><path d="M23.926 14.905l-5.16-9.617c-2.318 2.81-3.2 6.454-2.216 9.089 1.34 3.605 5.908 4.611 7.138 3.171.485-.605.43-1.668.238-2.642z" fill="#FDE3FF"/><path opacity=".2" d="M16.565 14.31c1.4 3.667 6.168 4.69 7.451 3.225.176-.246.305-.525.378-.817.073-.292.09-.59.046-.87-3.073-1.336-5.801-3.359-8.04-5.96-.386 1.527-.328 3.08.165 4.422z" fill="#231F20"/><path d="M51.264 22.457l13.946-1.39a12.027 12.027 0 01-1.953 3.622 10.98 10.98 0 01-2.988 2.646c-3.378 1.825-7.412.99-9.845-2.243.282-.878.565-1.756.84-2.634z" fill="#FDE3FF"/><path opacity=".2" d="M50.739 23.904l-.307.986c2.479 3.377 6.586 4.27 10.03 2.344 1.073-.608 2.049-1.468 2.854-2.516-4.324.714-8.6.437-12.577-.814z" fill="#231F20"/><path d="M27.972 13.3c-5.204 10.949-8.221 22.771-8.806 34.504l19.768 5.017a653.029 653.029 0 018.375-20.254 682.338 682.338 0 016.313-14.075L27.972 13.3z" fill="#FDE3FF"/><path opacity=".3" d="M24.113 20.552a92.72 92.72 0 00-2.265 7.288 91.981 91.981 0 00-3.038 19.366l3.952 1.05c5.137-2.623 8.968-7.787 9.713-12.82.875-5.902-2.39-12.3-8.362-14.884z" fill="#131E32"/><path opacity=".2" d="M36.637 19.376c-3.604-.473-9.376.862-10.884 4.886-1.508 4.024 1.906 8.71 5.691 10.106 5.274 1.979 12.87-1.998 13.769-6.333.804-3.929-3.9-8.05-8.576-8.659z" fill="#fff"/><path d="M31.951 37.643c-6.4-.847-15.052 3.547-17.274 11.611-2.147 7.826 3.006 14.692 8.779 16.498 7.052 2.204 17.05-2.509 19.464-10.88 2.368-8.226-3.654-16.242-10.969-17.23z" fill="#A1748D"/><path opacity=".2" d="M14.533 49.732c-1.509 7.64 3.627 14.19 9.32 15.971 6.846 2.131 16.365-1.994 19.62-9.612-.6.09-1.204.162-1.798.215-9.677.488-19.53-1.19-27.142-6.574z" fill="#231F20"/><path d="M26.13 15.126c-.066-4.898 1.385-9.922 4.06-14.059.132 5.148.261 10.293.39 15.434l-4.45-1.375zm25.621 5.667c2.64-4.137 4.014-9.06 3.854-13.818L46.938 19.09l4.813 1.704z" fill="#944E74"/><path opacity=".2" d="M30.161 11.664a6.528 6.528 0 01-3.592-1.137 23.426 23.426 0 00-.401 4.573l5.035 1.409a993.439 993.439 0 01-.13-4.879c-.307.034-.61.046-.912.034zM52.499 16.4a6.827 6.827 0 01-2.978-.741l-2.529 3.351 5.253 1.765a25.045 25.045 0 002.463-4.67c-.736.21-1.48.31-2.21.295z" fill="#231F20"/><path d="M27.527 20.143c-.702-.17-1.861 1.656-2.383 3.283-.624 1.948-.54 4.387.161 4.566.701.18 1.997-1.85 2.494-3.72.498-1.869.404-3.977-.272-4.129zm17.739 3.573c-.665-.178-1.86 1.647-2.384 3.283-.624 1.947-.54 4.387.163 4.557.702.17 1.996-1.841 2.493-3.71.498-1.87.401-3.961-.272-4.13z" fill="#131E32"/><path d="M37.261 18.409c-.773-1.033-1.23-2.348-1.314-3.785-.084-1.438.208-2.935.84-4.309.452 1.132.9 2.261 1.347 3.387.887-1.607 1.783-3.213 2.671-4.828-.255 1.74-.47 3.47-.71 5.201l3.139-2.18a7.735 7.735 0 01-1.11 3.383 7.812 7.812 0 01-2.195 2.16c-.843.542-1.755.874-2.668.97z" fill="#FDE3FF"/><path d="M21.475 40.59c-1.056-2.616-3.12-3.577-4.165-2.944-1.046.632-1.852 3.505-.667 6.325l4.832-3.381zm18.36 4.007c2.318-1.98 4.67-2.1 5.292-1.154.622.946-.139 3.83-2.668 5.952l-2.624-4.798z" fill="#A1748D"/><path d="M28.503 52.632c-2.845-.473-6.883 1.174-7.732 4.164-.85 2.989 1.854 5.875 4.516 6.584 3.02.83 7.36-.756 8.317-3.705.958-2.95-1.858-6.496-5.1-7.043z" fill="#AB7B96"/><path opacity=".2" d="M20.917 56.268c-.018.114-.085.226-.119.34-.859 3.041 1.903 6.033 4.636 6.762 3.1.85 7.554-.777 8.537-3.806a.21.21 0 00.011-.076c-4.71.298-9.218-.813-13.065-3.22z" fill="#231F20"/><path d="M27.87 55.075c-1.83-.302-4.42.687-4.969 2.483-.549 1.796 1.247 3.906 3.164 4.34 1.918.434 4.69-.625 5.284-2.448.593-1.823-1.368-4.03-3.479-4.375z" fill="#291822"/><path d="M17.915 39.248c-.577.314-1.01 1.8-.442 3.362l2.532-1.764c-.536-1.352-1.546-1.905-2.09-1.598zm26.06 5.223c.335.464-.017 1.878-1.235 2.998l-1.278-2.382c1.08-.932 2.207-1.06 2.513-.616z" fill="#824A6C"/><defs><linearGradient id="cpaint0_linear_132_5756" x1="84.249" y1="60.196" x2="82.609" y2="131.692" gradientUnits="userSpaceOnUse"><stop stop-color="#FCDBFF"/><stop offset="1" stop-color="#1C75BC"/></linearGradient></defs></svg><svg fill="none" viewBox="0 0 66 84" id="red" xmlns="http://www.w3.org/2000/svg"><path fill-rule="evenodd" clip-rule="evenodd" d="M9.726 56.395a33.158 33.158 0 004.946 4.051l.445.348c3.036 2.373 6.297 4.922 7.883 6.706 2.995 3.37 3.881 7.682 4.426 10.333.208 1.014.367 1.784.574 2.167.038.07.087.14.148.212a5.002 5.002 0 009.645.216c.077-.134.146-.276.207-.428.21-.524.412-1.232.652-2.074.756-2.65 1.891-6.632 4.848-10.426 1.77-2.272 4.4-4.224 6.746-5.965 1.638-1.216 3.137-2.329 4.11-3.377C61.48 52.105 66 43.08 66 33 66 14.775 51.225 0 33 0S0 14.775 0 33a32.883 32.883 0 008.775 22.41c.225.279.549.61.95.985z" fill="#FF003D"/><path d="M51.201 30.242a10.26 10.26 0 00-1.09-1.06c-.211-.212-.458-.353-.74-.389-.914 0-1.406-.6-1.899-1.236a16.137 16.137 0 00-7.774-6.077 11.106 11.106 0 01-1.758-.778 4.85 4.85 0 00-6.543 1.449c-2.427 3.498-5.734 5.406-9.99 5.653-.915.035-1.794.495-2.674.742-.351.106-.703.177-1.09.141-2.603-.424-4.749 1.202-4.995 3.78a2.23 2.23 0 01-.281.814c-.563 1.06-.528 1.2.457 2.155.105-.636 1.055-.954.457-1.731-.598-.778-.316-1.484.176-2.156.915-1.236 2.11-1.696 3.694-1.448a174.575 174.575 0 01-1.513 5.087c-.105.354-.246.848-.528.99-.985.6-1.125 1.59-1.512 2.544-.844 1.978-.704 4.098-.985 6.147.352 0 .668.106.985.283a7.102 7.102 0 002.533.813 2.443 2.443 0 01-.106-.283c-.035-.212-.14-.389-.246-.565-1.161-1.696-.422-3.039.914-4.275-1.618 1.978-.105 3.497.598 5.158.07 0 .106-.035.176-.035.246-.036.528-.071.774-.142l-.176-.176c-1.266-1.555-.914-3.25-.598-4.982.14-.777.457-1.413 1.161-1.767 1.231-.636 2.462-1.201 3.729-1.802 1.055-.494 2.18-.954 3.341-1.484-.527.742-1.055 1.484-1.688 2.368l4.221.706c-.281 1.59-.598 3.215-.88 4.84.704.495.669.778 2.533 1.732-.422-.53-.738-1.413-.492-1.979.88-2.155 2.216-4.063 3.975-5.582.281-.247.668-.53.985-.495 1.125.177 2.25.46 3.412.707-1.196.99-2.357.777-3.553.035l-1.9 3.074c.493.035.704.035.95.035 1.055 0 2.11.036 3.166-.07a4.071 4.071 0 001.513-.636c.738-.389 1.372-.883 2.145-1.201.915-.389 1.372-.919 1.407-1.908.036-.99-.562-1.308-1.301-1.555a27.24 27.24 0 00-1.583-.495c-.528-.14-1.196-.247-1.688-.353l.562-4.028.106-.07c.176 1.095.387 2.19.633 3.604.211-.354.352-.566.493-.778.598-1.236 1.688-1.13 2.743-1.024 1.267.106 1.654.742 1.267 1.943-.141.46-.387.918-.598 1.413.738.177 1.407.389 2.11.53a.643.643 0 00.598-.212c1.407-1.696 2.744-3.427 4.256-5.335.563.283 1.126.636 1.689.99 1.688 1.271 1.723 1.271 3.482.14l.739-.53c-1.794.99-2.779-.14-3.799-1.236z" fill="#fff"/></svg><svg fill="none" viewBox="0 0 28 28" id="user" xmlns="http://www.w3.org/2000/svg"><path fill-rule="evenodd" clip-rule="evenodd" d="M6.73 15.348A10.07 10.07 0 006.593 17v10h10c5.523 0 10-4.477 10-10a9.994 9.994 0 00-.597-3.412 10.005 10.005 0 00-2.306-3.633L6.729 15.348zM16.593 26a9 9 0 008.683-11.374c-.501.169-1.43.375-2.686.375-1.6 0-4.092-.5-5.092-1-.097.225-.209.514-.334.836-.521 1.34-1.268 3.26-2.074 3.664-.669.334-1.069-.277-1.435-.837-.327-.498-.626-.956-1.065-.663-1.16.773-.825 1.845-.614 2.522.063.2.114.364.114.478l.501 5-.063.031a8.95 8.95 0 004.065.968zm3.502-7.001a1.5 1.5 0 100-3 1.5 1.5 0 000 3z" fill="#363D4D"/><path d="M.303 14.63a1 1 0 01.65-1.256l25.493-8.106a1 1 0 11.606 1.906L1.559 15.28a1 1 0 01-1.256-.65z" fill="#363D4D"/><path fill-rule="evenodd" clip-rule="evenodd" d="M13.983 3.079L9.874 4.385a6 6 0 00-3.94 7.406L21.477 6.85a6 6 0 00-7.493-3.77zm8.446 3.467a7 7 0 00-8.75-4.42L9.572 3.432a7 7 0 00-4.55 8.792l.262.823L22.733 7.5l-.261-.824a6.819 6.819 0 00-.043-.129z" fill="#363D4D"/></svg></svg>