<svg width="1424" height="289" fill="none" xmlns="http://www.w3.org/2000/svg"><path d="M383.657 276.37l5.082-4.157.748 6.221 5.212 1.583-6.448 2.123-.717 6.422-3.209-5.34-6.598 1.232 3.528-3.926-3.567-6.091 5.969 1.933zM6.473 87.708l5.083-4.157.747 6.22 5.212 1.584-6.447 2.123-.718 6.422-3.209-5.34-6.597 1.232 3.538-3.927-3.578-6.09 5.97 1.933zM1260.04 4.303l5.08-4.148.75 6.211 5.21 1.583-6.44 2.124-.72 6.421-3.21-5.34-6.6 1.233 3.54-3.927-3.58-6.09 5.97 1.933zM1412 256.615l5.07-4.157.76 6.211 5.21 1.593-6.45 2.123-.72 6.422-3.21-5.34-6.59 1.233 3.53-3.937-3.57-6.091 5.97 1.943zM774.082 16.002l.489-6.571 5.002 3.726 4.734-2.715-2.9 6.161 4.146 4.939-6.069-1.322-3.638 5.66-.408-5.28-6.867-1.583 5.511-3.015z" fill="#fff"/></svg>