<svg width="268" height="781" fill="none" xmlns="http://www.w3.org/2000/svg"><path d="M103.806.881C77.74 5.787 66.003 29.075 64.685 31.74l96.978-3.86C148.994 7.432 125.829-3.258 103.806.882z" fill="url(#paint0_radial_132_5597)"/><path opacity=".4" d="M113.459 3.625a131.298 131.298 0 0136.81 21.284 36.751 36.751 0 00-36.81-21.284z" fill="#F9FF8A"/><path opacity=".3" d="M96.668 21.154a125.395 125.395 0 01-21.803-3.912 61.652 61.652 0 00-10.19 14.497l96.979-3.86a60.71 60.71 0 00-11.693-13.784c-5.371 1.688-10.848 3.06-16.238 4.21a130.406 130.406 0 01-37.055 2.85z" fill="#231F20"/><path d="M105.793 19.044C47.26 24.24 13.483 63.74 7.329 71.204L218.191 58.72c-6.33-6.066-48.836-45.329-112.398-39.676z" fill="#0A0D2A"/><path opacity=".1" d="M96.326 24.715l37.249-.527 4.097 13.714 2.136.185a7766.565 7766.565 0 00-4.993-15.508l-36.59-.238-.334-2.373-1.916.299c.096 1.485.22 2.945.351 4.448zM45.89 42.913l19.341-7.13a403.426 403.426 0 001.68-7.57c-.677.265-1.346.537-2.005.81-.448 1.925-.879 3.86-1.327 5.784L44.238 42.06l-4.449 13.856 2.145-.572 3.956-12.43zm127.52-8.457l15.209 5.591c1.506 3.042 3.013 6.09 4.519 9.143l2.848 1.187-6.655-11.64-14.611-5.468a2269.47 2269.47 0 01-1.943-3.719c-.782-.325-1.582-.642-2.382-.958 1.011 1.952 2.013 3.912 3.015 5.864z" fill="#231F20"/><path d="M7.339 78.492A199.811 199.811 0 01218.2 66.008a188.122 188.122 0 01-94.068 38.198C65.467 110.677 21.598 87.019 7.339 78.492z" fill="#153F66"/><path d="M59.11 96.004a15.5 15.5 0 0116.256-.809 17.443 17.443 0 01-16.256.81zm46.964 5.257a15.502 15.502 0 0116.256-.809 17.447 17.447 0 01-16.256.809zm42.841-7.138a15.48 15.48 0 0116.247-.809 17.43 17.43 0 01-16.247.809z" fill="#fff"/><path d="M7.338 78.492C19.46 68.452 54.6 42.017 107.314 37.885c56.845-4.466 98.067 19.842 110.885 28.132.627-2.297 1.249-4.589 1.864-6.875-14.013-8.642-56.203-32.15-113.84-27.622A190.01 190.01 0 004.243 71.538c1.02 2.315 2.052 4.633 3.095 6.954z" fill="#1B2B48"/><path d="M7.339 78.491A199.811 199.811 0 01218.2 66.008c.627-2.298 1.249-4.59 1.864-6.875A205.534 205.534 0 004.218 71.563c1.037 2.298 2.078 4.608 3.12 6.928z" fill="#20355A"/><path d="M43.813 79.389a137.593 137.593 0 0160.169-20.58c39.561-3.737 69.452 11.059 80.749 17.415a145.73 145.73 0 01-140.917 3.165z" fill="#1C75BC"/><path opacity=".5" d="M78.69 74.94a117.804 117.804 0 0134.198-5.275 115.477 115.477 0 0134.533 4.853c37.029 216.767 83.062 487.994 120.086 704.725l-54.507.378-31.266-261.163-115.765 6.743C63.624 592.601 54.399 713.1 52 780.5l-51.79-.879c23.877-217.188 54.607-487.48 78.479-704.68z" fill="url(#paint1_linear_132_5597)"/><path opacity=".7" d="M90.735 71.345a101.77 101.77 0 0122.154-3.112 104.39 104.39 0 0124.396 2.074c10.119 88.459 24.687 215.741 47.474 414.585H63.525c13.02-198.132 21.372-325.159 27.21-413.547z" fill="url(#paint2_linear_132_5597)"/><path opacity=".7" d="M103.358 70.14c2.822-.282 6.154-.51 9.926-.572 4.044-.052 7.622.097 10.611.326 6.655 86.481 16.387 212.857 31.948 414.998H99.842c1.679-201.957 2.752-328.28 3.516-414.752z" fill="url(#paint3_linear_132_5597)"/><path d="M74.205 78.413a78.076 78.076 0 0134.216-11.71 79.245 79.245 0 0145.926 9.908 82.903 82.903 0 01-80.142 1.758v.044z" fill="#FCDBFF"/><path d="M85.512 54.412a14.805 14.805 0 0118.163-.88 17.233 17.233 0 01-9.337 2.92c-3.07.102-6.113-.6-8.826-2.04z" fill="#fff"/><path d="M98.726 32.398c-13.767-2.47-28.968 6.62-30.963 20.22-2.154 14.62 11.903 27.86 26.277 28.476 11.262.483 24.071-6.734 26.699-18.875 2.954-13.671-8.325-27.368-22.013-29.82z" fill="#00AEEF" opacity=".5"/><path d="M96.08 44.082c-6.788-1.213-14.269 3.262-15.254 9.96-1.063 7.201 5.864 13.724 12.941 14.067 5.548.238 11.86-3.323 13.187-9.301 1.425-6.77-4.132-13.521-10.875-14.726z" fill="#00AEEF"/><path d="M143.376 55.353a14.76 14.76 0 0118.154-.88 17.097 17.097 0 01-9.327 2.91 17.45 17.45 0 01-8.827-2.03z" fill="#fff"/><path d="M156.581 33.34c-13.759-2.47-28.959 6.62-30.964 20.22-2.145 14.62 11.913 27.86 26.286 28.475 11.262.484 24.063-6.734 26.691-18.884 3.007-13.662-8.316-27.359-22.013-29.812z" fill="#00AEEF" opacity=".5"/><path d="M153.935 45.024c-6.778-1.214-14.268 3.261-15.253 9.96-1.055 7.2 5.864 13.724 12.95 14.067 5.547.237 11.851-3.315 13.187-9.293 1.415-6.778-4.141-13.53-10.884-14.734z" fill="#00AEEF"/><path d="M190.155 71.133a14.76 14.76 0 0118.154-.879 17.129 17.129 0 01-9.327 2.91 17.427 17.427 0 01-8.827-2.03z" fill="#fff"/><path d="M203.361 49.12c-13.768-2.47-28.959 6.62-30.963 20.22-2.146 14.62 11.912 27.86 26.277 28.475 11.271.484 24.071-6.734 26.7-18.884 2.953-13.661-8.317-27.358-22.014-29.811z" fill="#00AEEF" opacity=".5"/><path d="M200.714 60.804c-6.778-1.213-14.268 3.262-15.253 9.96-1.064 7.2 5.864 13.724 12.95 14.023 5.547.237 11.851-3.315 13.187-9.293 1.416-6.734-4.141-13.486-10.884-14.69z" fill="#00AEEF"/><path d="M28.966 71.89a14.77 14.77 0 0118.163-.88 17.258 17.258 0 01-9.337 2.91c-3.07.11-6.113-.59-8.826-2.03z" fill="#fff"/><path d="M42.179 49.867c-13.767-2.461-28.968 6.629-30.963 20.22-2.154 14.62 11.903 27.87 26.277 28.476 11.262.483 24.071-6.734 26.7-18.875 2.954-13.671-8.308-27.368-22.014-29.82z" fill="#00AEEF" opacity=".5"/><path d="M39.532 61.551c-6.786-1.213-14.268 3.262-15.252 9.96-1.064 7.2 5.863 13.724 12.94 14.067 5.548.237 11.86-3.314 13.188-9.301 1.424-6.77-4.133-13.504-10.876-14.726z" fill="#00AEEF"/><path d="M90.927 114.941a3.736 3.736 0 00-2.572 1.219 3.72 3.72 0 002.941 6.21 3.79 3.79 0 002.972-4.457 3.685 3.685 0 00-3.341-2.972zm26.665 9.662a2.098 2.098 0 00-1.591 3.66 2.098 2.098 0 002.45.251 2.107 2.107 0 001.005-2.25 2.057 2.057 0 00-1.864-1.661zm2.778 122.007a2.088 2.088 0 00-2.135 2.189c.015.286.088.567.216.824a2.097 2.097 0 001.28 1.07c.276.08.565.103.85.067a2.101 2.101 0 001.655-1.664 2.097 2.097 0 00-.002-.824 2.058 2.058 0 00-1.864-1.662zm15.393-114.165a2.091 2.091 0 00-1.545.628 2.081 2.081 0 00.155 3.053 2.074 2.074 0 001.601.469 2.122 2.122 0 001.662-2.488 2.065 2.065 0 00-1.873-1.662zm31.544 87.949a2.068 2.068 0 00-1.909 1.37 2.07 2.07 0 00.09 1.618 2.071 2.071 0 002.048 1.152 2.116 2.116 0 001.662-2.488 2.065 2.065 0 00-1.891-1.652zm-57.557-76.898a2.092 2.092 0 101.863 1.661 2.043 2.043 0 00-1.863-1.661zm19.604-29.584a2.084 2.084 0 10.202 4.15 2.13 2.13 0 001.661-2.488 2.07 2.07 0 00-1.863-1.662zm23.052 24.555a3.718 3.718 0 10.369 7.42 3.793 3.793 0 002.972-4.458 3.684 3.684 0 00-3.341-2.962zm-44.836 65.056a3.736 3.736 0 00-2.689 1.159 3.726 3.726 0 00-1.017 2.745 3.713 3.713 0 001.285 2.631 3.72 3.72 0 002.79.885 3.79 3.79 0 002.972-4.457 3.684 3.684 0 00-3.341-2.963zM91.5 161.992a2.593 2.593 0 00-1.842.82 2.584 2.584 0 002.096 4.341 2.637 2.637 0 002.066-3.095 2.546 2.546 0 00-2.32-2.066zm-27.545 56.942a2.643 2.643 0 00-2.673 1.568 2.637 2.637 0 104.994.498 2.57 2.57 0 00-2.321-2.066zm75.447-45.038a2.6 2.6 0 00-1.842.82 2.59 2.59 0 00-.439 2.889 2.583 2.583 0 002.536 1.452 2.637 2.637 0 002.065-3.095 2.568 2.568 0 00-2.32-2.066zm14.419-59.333a2.589 2.589 0 00-1.901.787 2.572 2.572 0 00-.723 1.925 2.577 2.577 0 00.91 1.844 2.586 2.586 0 001.969.596 2.637 2.637 0 002.066-3.095 2.57 2.57 0 00-2.321-2.057z" fill="#FCDBFF"/><path opacity=".2" d="M130.436 25.47c-.879.088-1.996.651-2.049 1.434-.052.782 1.258 1.828 2.471 1.758 1.081-.07 2.241-.958 2.162-1.758-.079-.8-1.485-1.53-2.584-1.433zm-69.532 6.612c-.94.105-1.996.879-1.899 1.661.097.783 1.081 1.222 1.9 1.187 1.116-.044 2.206-1.108 2.021-1.899-.184-.791-1.213-1.028-2.022-.95zm125.919 7.974c.774.079 1.653.712 1.574 1.371-.079.66-.879 1.011-1.574.985-.923-.044-1.819-.923-1.67-1.574.15-.65 1.002-.861 1.67-.782z" fill="#231F20"/><defs><linearGradient id="paint1_linear_132_5597" x1="133.859" y1="69.657" x2="133.859" y2="780.5" gradientUnits="userSpaceOnUse"><stop offset=".375" stop-color="#EC87C3"/><stop offset="1" stop-color="#EC87C3" stop-opacity="0"/></linearGradient><linearGradient id="paint2_linear_132_5597" x1="124.142" y1="68.177" x2="124.142" y2="484.892" gradientUnits="userSpaceOnUse"><stop offset=".375" stop-color="#EC87C3"/><stop offset="1" stop-color="#EC87C3" stop-opacity="0"/></linearGradient><linearGradient id="paint3_linear_132_5597" x1="127.842" y1="69.558" x2="127.842" y2="484.892" gradientUnits="userSpaceOnUse"><stop offset=".375" stop-color="#EC87C3"/><stop offset="1" stop-color="#EC87C3" stop-opacity="0"/></linearGradient><radialGradient id="paint0_radial_132_5597" cx="0" cy="0" r="1" gradientUnits="userSpaceOnUse" gradientTransform="translate(112.044 51.186) scale(50.5506)"><stop offset=".36" stop-color="#313D42"/><stop offset=".44" stop-color="#324543"/><stop offset=".56" stop-color="#335A44"/><stop offset=".71" stop-color="#357D46"/><stop offset=".88" stop-color="#38AD49"/><stop offset=".91" stop-color="#39B54A"/><stop offset="1" stop-color="#39674A"/></radialGradient></defs></svg>