<svg width="441" height="608" fill="none" xmlns="http://www.w3.org/2000/svg"><path opacity=".5" d="M237 389c-24.8.8-36.333 24.333-39 36 0 7 1.8 24.4 9 38 9 17 42 37 83 39 32.8 1.6 64.333-42 76-64-32.667-16.667-104.2-49.8-129-49zM126 79c33.6 4 57.333 36.333 65 52-18.333 2-60.4 6.4-82 8-21.6 1.6-51.667-15.333-64-24 13-13.667 47.4-40 81-36zm221-29c25.6-3.2 22.666 48.667 18 75 3.667-20.333 16.2-63.8 37-75 26-14 43 38 55 56s-8 48-24 52c-12.8 3.2-43.333-13.333-57-22 15 10 45.4 33.8 47 49 2 19-40 21-58 26s-42-1-58-17c-12.8-12.8 21.333-44 40-58-19 6-59.6 14.4-70 0-13-18 6-30 13-55s25-27 57-31z" fill="#D2DFE6"/><path d="M327.328 406.74c10.034 6.544 37.992 21.45 49.627 26.722-16.906 2-50.269 10.859-58.898 6.544-11.998-5.999-20.723-15.815-32.176-15.815-19.18 0-15.815 6.544-31.63 6.544s-17.451-8.18-29.994-6.544c-10.035 1.309-19.269 5.999-23.45 6.544-3.636 0-11.016-3.926-11.453-19.632-.545-19.633 16.361-27.268 29.449-27.268 13.089 0 11.453 5.999 19.633 5.999s4.908-3.817 20.723-5.999c15.815-2.181 55.626 14.725 68.169 22.905z" stroke="#868C96" stroke-linecap="round" stroke-linejoin="round"/><path d="M214.853 153.976c2.545-25.086-4.145-80.712-51.263-102.526C104.693 24.182 27.253-1.994 10.893 1.278c-16.361 3.272-9.817 49.081 0 59.988 7.586 8.43 13.87 44.874 35.466 66.533m0 0c6.347 6.365 14.017 11.454 23.431 14.179 33.158 9.598 87.983 3.999 111.252 0-7.272-13.452-28.577-40.356-55.626-40.356-33.812 0-58.86 28.358-79.056 26.177zM1.076 101.622c12.361 3.636 43.41 8.726 68.714 0 31.631-10.907 45.81-19.633 69.805-9.816 19.196 7.853 44.355 27.267 54.535 35.993-7.999-22.178-34.03-66.533-74.168-66.533-50.172 0-103.61 43.574-93.8 92.71 20.197 101.157 98.613 179.522 113.433 261.49 15.826 87.533 86.345 183.118 137.428 190.059 62.17 8.448 103.616-20.723 97.072-53.444-6.544-32.721-50.172-21.814-80.711-39.266-30.54-17.451-26.177-16.36-29.449-42.537-3.272-26.177-22.905-32.721-30.54-33.811m0 0c-7.635-1.091-39.265-11.998-39.265 0 0 11.997 18.542 68.714 69.805 66.532 19.996 0 56.181 5.438 75.258-21.814 12.509-17.869 18.178-37.084 19.633-44.718-23.269 4.653-74.822 12.696-94.891 7.634-20.069-5.061-28.722-7.198-30.54-7.634z" stroke="#868C96" stroke-linecap="round" stroke-linejoin="round"/><path d="M257.523 384.381c2.181-1.818 7.635-5.018 7.635-9.817 0-9.271-10.362-9.816-14.725-31.63-4.363-21.814 1.636-51.808 20.723-61.624 19.088-9.817 42.177-6.598 53.445 7.634 10.362 13.089 11.452 35.994-1.636 31.085-13.089-4.908-21.269-15.815-34.903-15.269-13.633.545-20.177 11.997-10.907 17.996 9.271 5.999 17.452 4.908 20.178-2.727 3.348-9.372-13.633-23.45-23.995-19.087-11.723 4.936-14.935 31.63-31.085 31.63-4.363 0-13.088-.545-18.542-9.816-5.453-9.271-12.543-13.634-16.36-7.635-3.818 5.999 7.089 10.907 10.361 7.635 9.142-9.142 1.636-20.723-9.271-19.087-10.907 1.636-14.179 13.634-18.542 1.091-4.362-12.543 10.907-67.624 17.452-96.527 4.256-18.8 5.998-30.54 7.634-55.081m164.651-28.253c5.569 3.435 10.798 13.765 20.724 13.765 19.859 0 29.39-13.736 35.552-34.526m-56.276 20.761c-.575-4.906-5.353-14.719-19.86-14.719-18.133 0-31.948 5.179-25.904 20.716 6.045 15.537 21.587 35.389 33.676 21.579 9.671-11.049 12.088-22.987 12.088-27.576zm56.276-20.761c1.509-5.093 1.576-9.338 1.576-18.989 0-20.3-19.587-39.152-40.901-36.703-18.981 2.18-25.873 25.194-29.039 36.703-3.742-11.22-6.61-38.613-27.132-44.884-19.633-5.999-61.079 8.18-47.445 40.356 6.071 14.328 20.178 30.423 30.54 37.328-6.908-3.453-23.832-9.84-36.266-7.769-15.543 2.59-28.086 11.888-25.905 34.527 2.811 29.173 25.905 35.168 41.447 31.936 10.145-2.109 24.177-12.659 26.767-18.989-3.741 10.645-15.023 36.597-6.043 55.241 11.225 23.306 44.037 20.716 56.125-4.315 9.671-20.025 1.152-42.295-4.317-50.926 3.166 12.084 25.404 28.765 45.263 28.765 27.114 0 54.446-8.56 50.718-46.355-2.181-22.115-26.228-31.322-35.388-35.926z" stroke="#868C96" stroke-linecap="round" stroke-linejoin="round"/></svg>