<svg width="417" height="417" fill="none" xmlns="http://www.w3.org/2000/svg"><g opacity=".3" stroke="#fff"><circle opacity=".1" cx="208.585" cy="208.584" r="32.409" stroke-width="2"/><path opacity=".1" d="M287.296 245.022c5.137-11.078 8.004-23.423 8.004-36.438 0-47.892-38.824-86.715-86.716-86.715-47.891 0-86.715 38.823-86.715 86.715s38.824 86.715 86.715 86.715c20.064 0 38.536-6.814 53.229-18.254" stroke-width="5"/><path opacity=".1" d="M114.48 103.551c24.96-22.378 57.943-35.989 94.104-35.989 77.885 0 141.022 63.138 141.022 141.022 0 77.884-63.137 141.022-141.022 141.022-77.884 0-141.022-63.138-141.022-141.022 0-33.391 11.606-64.072 31.003-88.229" stroke-width="10"/><circle opacity=".1" cx="208.147" cy="209.022" r="163.358" stroke-width="5"/><path opacity=".1" d="M42.907 321.689C20.882 289.489 8 250.541 8 208.584 8 127.708 55.865 58.011 124.813 26.277M69.146 352.775c36.094 34.911 85.257 56.393 139.438 56.393 110.779 0 200.584-89.805 200.584-200.584C409.168 97.804 319.363 8 208.584 8c-24.034 0-47.081 4.227-68.438 11.978" stroke-width="15"/></g></svg>