<svg width="52" height="40" fill="none" xmlns="http://www.w3.org/2000/svg"><g opacity=".8" fill="#fff"><path d="M40.714 20.665a1.084 1.084 0 10-1.876-1.087C36.19 24.152 31.272 26.992 26 26.992c-5.06 0-9.796-2.616-12.508-6.87C16.204 15.867 20.939 13.25 26 13.25c3.169 0 6.192.986 8.74 2.853a1.084 1.084 0 001.281-1.75A16.852 16.852 0 0026 11.083c-6.043 0-11.681 3.255-14.714 8.496-.194.335-.194.75 0 1.086 3.033 5.24 8.67 8.495 14.714 8.495 6.043 0 11.681-3.255 14.714-8.495z"/><path d="M26 23.93a1.084 1.084 0 000 2.168 5.983 5.983 0 005.976-5.977A5.983 5.983 0 0026 14.145a5.983 5.983 0 00-5.977 5.976 1.084 1.084 0 002.168 0c0-2.1 1.709-3.808 3.809-3.808s3.809 1.708 3.809 3.808c0 2.1-1.709 3.81-3.81 3.81z"/></g><path d="M6 5H3a2 2 0 00-2 2v3m5 25H3a2 2 0 01-2-2v-3M46 5h3a2 2 0 012 2v3m-5 25h3a2 2 0 002-2v-3" stroke="#8AAEE6" stroke-width="2" stroke-linecap="round"/></svg>