<svg width="764" height="764" fill="none" xmlns="http://www.w3.org/2000/svg"><g opacity=".3" stroke="#fff"><circle opacity=".1" cx="381.465" cy="382.501" r="38.348" transform="rotate(179.837 381.465 382.501)" stroke-width="2"/><path opacity=".1" d="M288.208 339.65c-6.041 13.126-9.392 27.743-9.349 43.142.161 56.668 46.23 102.476 102.897 102.315 56.668-.161 102.476-46.23 102.315-102.897-.161-56.668-46.23-102.475-102.897-102.314-23.741.067-45.575 8.192-62.922 21.777" stroke-width="5"/><path opacity=".1" d="M493.167 506.465c-29.459 26.562-68.44 42.778-111.228 42.9-92.156.261-167.076-74.234-167.338-166.39-.261-92.156 74.234-167.076 166.39-167.337 92.156-.262 167.076 74.233 167.338 166.389.112 39.51-13.517 75.852-36.387 104.501" stroke-width="10"/><circle opacity=".1" cx="381.982" cy="381.981" r="193.293" transform="rotate(179.837 381.982 381.981)" stroke-width="5"/><path opacity=".1" d="M577.122 248.114c26.169 38.026 41.542 84.068 41.683 133.713.272 95.697-56.13 178.326-137.606 216.107m64.771-386.515c-42.825-41.187-101.07-66.44-165.179-66.258-131.079.372-237.038 106.935-236.666 238.014.372 131.079 106.934 237.039 238.014 236.666 28.438-.08 55.694-5.159 80.939-14.403" stroke-width="15"/><path opacity=".1" d="M696.897 545.954c-59.06 113.192-177.372 190.614-313.907 191.001-64.007.182-124.104-16.588-176.042-46.082m510.42-192.307c12.8-36.823 19.704-76.398 19.588-117.592-.557-196.047-159.936-354.523-355.982-353.966-196.047.556-354.523 159.935-353.966 355.981.16 56.672 13.593 110.204 37.346 157.662" stroke-width="50"/><path opacity=".1" d="M736.956 380.974c.556 196.046-157.92 355.425-353.966 355.981" stroke-width="10"/></g></svg>