<svg width="923" height="820" fill="none" xmlns="http://www.w3.org/2000/svg"><g opacity=".3" stroke="#fff"><circle opacity=".1" cx="448.657" cy="474.343" r="48.613" stroke-width="2"/><path opacity=".1" d="M566.724 529c7.705-16.617 12.006-35.135 12.006-54.657 0-71.837-58.236-130.073-130.073-130.073-71.837 0-130.073 58.236-130.073 130.073 0 71.837 58.236 130.073 130.073 130.073 30.096 0 57.804-10.221 79.843-27.381" stroke-width="5"/><path opacity=".1" d="M307.5 316.794c37.44-33.568 86.914-53.984 141.157-53.984 116.826 0 211.533 94.707 211.533 211.533s-94.707 211.533-211.533 211.533-211.533-94.707-211.533-211.533c0-50.087 17.408-96.108 46.504-132.343" stroke-width="10"/><circle opacity=".1" cx="448" cy="475" r="245.036" stroke-width="5"/><path opacity=".1" d="M200.141 644c-33.037-48.3-52.36-106.722-52.36-169.657 0-121.314 71.798-225.859 175.219-273.46M239.5 690.63c54.14 52.366 127.886 84.589 209.157 84.589 166.169 0 300.876-134.707 300.876-300.876 0-166.169-134.707-300.876-300.876-300.876-36.051 0-70.622 6.341-102.657 17.968" stroke-width="15"/><path opacity=".1" d="M49.376 266C124.653 122.72 274.914 25 448 25c81.14 0 157.265 21.475 223 59.052M23.254 326C6.895 372.634-2 422.778-2 475c0 248.528 201.472 450 450 450s450-201.472 450-450c0-71.842-16.835-139.752-46.776-200" stroke-width="50"/><path opacity=".1" d="M-2 475C-2 226.472 199.472 25 448 25" stroke-width="10"/></g></svg>