<svg width="192" height="196" viewBox="0 0 192 196" fill="none" xmlns="http://www.w3.org/2000/svg">
<path d="M133.682 185.471L132.199 181.796L127.562 183.668L126.796 181.771L131.433 179.899L129.92 176.151L124.037 178.526L123.242 176.556L131.599 173.182L136.948 186.433L128.591 189.807L127.799 187.846L133.682 185.471Z" fill="white"/>
<path d="M156.895 154.352L158.526 152.265C158.64 152.12 158.767 152.031 158.909 152C159.047 151.974 159.182 151.971 159.316 151.992L165.676 152.762C165.579 152.619 165.506 152.483 165.457 152.353L163.425 146.737C163.385 146.606 163.359 146.468 163.346 146.324C163.334 146.19 163.379 146.058 163.481 145.928L165.008 143.974L167.879 152.239L176.15 152.923L174.519 155.009C174.406 155.155 174.304 155.242 174.214 155.272C174.124 155.311 174.013 155.325 173.881 155.313L167.752 154.648C167.841 154.802 167.922 154.965 167.995 155.139L169.855 160.382C169.909 160.516 169.933 160.635 169.927 160.739C169.921 160.843 169.877 160.947 169.796 161.051L168.232 163.052L165.682 155.226L156.895 154.352Z" fill="white"/>
<path d="M86.8671 180.816L89.5093 181.188L87.5162 195.339L84.8741 194.966L86.8671 180.816Z" fill="white"/>
<path d="M183.927 133.122L180.28 131.572L178.325 136.175L176.442 135.375L178.397 130.772L174.677 129.192L172.196 135.031L170.241 134.2L173.765 125.905L186.917 131.493L183.393 139.788L181.447 138.961L183.927 133.122Z" fill="white"/>
<path d="M107.705 187.916C107.209 187.977 106.785 188.092 106.434 188.261C106.076 188.431 105.793 188.638 105.584 188.883C105.369 189.135 105.221 189.418 105.14 189.734C105.059 190.049 105.041 190.386 105.085 190.746C105.173 191.465 105.48 191.989 106.004 192.316C106.522 192.644 107.269 192.749 108.243 192.629L109.93 192.423L109.353 187.714L107.705 187.916ZM100.007 181.312L102.391 181.02C102.842 180.965 103.19 181.101 103.436 181.43L106.975 185.606C107.107 185.763 107.246 185.868 107.392 185.923C107.531 185.979 107.732 185.991 107.994 185.959L109.122 185.821L108.443 180.279L111.081 179.956L112.819 194.14L108.493 194.67C107.532 194.787 106.695 194.787 105.984 194.668C105.266 194.557 104.667 194.348 104.185 194.042C103.696 193.737 103.316 193.345 103.045 192.868C102.775 192.396 102.603 191.86 102.529 191.258C102.471 190.781 102.488 190.321 102.579 189.878C102.665 189.436 102.82 189.026 103.046 188.646C103.265 188.267 103.555 187.923 103.915 187.614C104.269 187.305 104.685 187.045 105.164 186.834C104.981 186.756 104.81 186.658 104.649 186.538C104.49 186.425 104.34 186.284 104.199 186.115L100.007 181.312Z" fill="white"/>
<path d="M150.229 169.799C149.839 170.092 149.535 170.395 149.317 170.708C149.103 171.026 148.969 171.346 148.914 171.667C148.858 171.998 148.88 172.328 148.979 172.657C149.083 172.992 149.255 173.319 149.497 173.64C149.727 173.946 149.982 174.186 150.263 174.362C150.544 174.538 150.845 174.642 151.165 174.673C151.486 174.704 151.824 174.655 152.181 174.527C152.542 174.403 152.919 174.193 153.314 173.896L154.901 172.701L151.815 168.604L150.229 169.799ZM154.551 175.538C153.788 176.113 153.06 176.52 152.367 176.762C151.674 177.003 151.026 177.1 150.421 177.052C149.816 177.004 149.258 176.822 148.748 176.506C148.232 176.193 147.774 175.771 147.374 175.24C146.957 174.687 146.667 174.11 146.502 173.508C146.342 172.911 146.321 172.309 146.44 171.7C146.558 171.091 146.827 170.484 147.246 169.88C147.66 169.279 148.238 168.7 148.98 168.141L150.567 166.946L147.541 162.928L149.665 161.329L158.261 172.744L154.551 175.538Z" fill="white"/>
<path d="M61.1373 186.958L62.6868 183.311L58.0844 181.356L58.8843 179.473L63.4867 181.428L65.0671 177.708L59.2277 175.228L60.0585 173.272L68.3537 176.796L62.7662 189.948L54.471 186.424L55.2979 184.478L61.1373 186.958Z" fill="white"/>
<path d="M30.7636 170.916L39.5647 159.658L40.6391 160.498C40.8052 160.628 40.9251 160.763 40.9987 160.904C41.0631 161.047 41.0964 161.223 41.0988 161.434L41.1094 173.535C41.3461 173.168 41.578 172.839 41.8053 172.548L47.2101 165.635L49.0553 167.077L40.2542 178.335L39.1564 177.477C39.0682 177.408 38.997 177.344 38.9428 177.285C38.8794 177.227 38.8344 177.167 38.808 177.104C38.7723 177.043 38.7494 176.971 38.7392 176.888C38.725 176.81 38.7177 176.712 38.7174 176.595L38.7078 164.445C38.5813 164.638 38.4543 164.828 38.3267 165.012C38.1991 165.197 38.0765 165.364 37.9588 165.515L32.6087 172.358L30.7636 170.916Z" fill="white"/>
<path d="M8.78811 136.713L12.4628 135.23L10.591 130.593L12.488 129.827L14.3598 134.464L18.1078 132.951L15.7329 127.068L17.7031 126.273L21.0768 134.63L7.82582 139.979L4.45215 131.622L6.41322 130.83L8.78811 136.713Z" fill="white"/>
<path d="M24.3351 146.884C24.2479 146.768 24.2153 146.632 24.2374 146.475L24.5151 144.954C25.4375 144.985 26.307 145.226 27.1235 145.675C27.936 146.118 28.699 146.814 29.4124 147.761C30.0505 148.608 30.4804 149.481 30.7022 150.377C30.9201 151.269 30.9514 152.149 30.7963 153.016C30.6413 153.883 30.3029 154.715 29.7814 155.512C29.2559 156.304 28.5695 157.019 27.7222 157.657C26.8643 158.303 25.9771 158.756 25.0606 159.018C24.1387 159.283 23.2337 159.363 22.3453 159.256C21.4531 159.145 20.6053 158.851 19.8019 158.376C18.9932 157.904 18.2738 157.25 17.6437 156.414C17.0175 155.582 16.5994 154.742 16.3896 153.894C16.1758 153.041 16.1195 152.221 16.2207 151.436L17.7425 151.403C17.8374 151.398 17.9342 151.411 18.0331 151.444C18.1281 151.471 18.2191 151.543 18.3063 151.659C18.3658 151.738 18.4061 151.835 18.4275 151.951C18.4435 152.071 18.4576 152.205 18.4697 152.352C18.4766 152.504 18.4901 152.675 18.5103 152.866C18.5304 153.057 18.5743 153.263 18.6419 153.484C18.7043 153.71 18.8016 153.954 18.9339 154.217C19.057 154.479 19.2315 154.76 19.4574 155.06C19.8418 155.571 20.2866 155.97 20.7919 156.257C21.2879 156.543 21.8245 156.708 22.4017 156.752C22.9737 156.8 23.573 156.719 24.1998 156.511C24.8213 156.307 25.4505 155.965 26.0873 155.486C26.7294 155.002 27.233 154.483 27.5982 153.927C27.9595 153.367 28.1942 152.802 28.3025 152.234C28.4107 151.666 28.3984 151.102 28.2656 150.542C28.1274 149.987 27.876 149.467 27.5114 148.982C27.2934 148.693 27.0815 148.444 26.8755 148.237C26.6656 148.023 26.4531 147.845 26.238 147.702C26.019 147.554 25.7915 147.432 25.5554 147.338C25.3102 147.242 25.0432 147.167 24.7545 147.112C24.6675 147.095 24.5891 147.068 24.5192 147.03C24.444 146.995 24.3826 146.947 24.3351 146.884Z" fill="white"/>
<path d="M53.7085 19.4643L56.3883 24.3064L54.071 25.5888L51.3912 20.7468L42.5947 15.6079L44.6439 14.4738C44.8457 14.3621 45.0313 14.3234 45.2008 14.3576C45.3761 14.3886 45.5456 14.4567 45.7092 14.5619L50.3032 17.4748C50.573 17.6493 50.8175 17.819 51.0367 17.9838C51.2617 18.1454 51.4751 18.3134 51.6771 18.4878C51.6308 18.2272 51.596 17.9604 51.5728 17.6871C51.5495 17.4138 51.5327 17.1181 51.5224 16.8001L51.4851 11.3653C51.4783 11.2034 51.508 11.0326 51.5742 10.8529C51.6404 10.6732 51.7715 10.5291 51.9675 10.4206L54.0254 9.2817L53.7085 19.4643Z" fill="white"/>
<path d="M70.2134 5.60186L71.1696 9.4476L76.0223 8.24109L76.5159 10.2263L71.6631 11.4328L72.6384 15.3553L78.7954 13.8245L79.308 15.8864L70.5616 18.061L67.1137 4.1933L75.8602 2.01872L76.3704 4.07106L70.2134 5.60186Z" fill="white"/>
<path d="M119.577 9.99955C120.058 10.1379 120.493 10.1979 120.882 10.1795C121.278 10.1629 121.619 10.0829 121.907 9.93952C122.204 9.79158 122.451 9.58836 122.648 9.32986C122.846 9.07136 122.995 8.76799 123.095 8.41974C123.295 7.72324 123.218 7.12176 122.863 6.61531C122.515 6.11069 121.869 5.72277 120.925 5.45157L119.292 4.98197L117.981 9.54087L119.577 9.99955ZM124.08 19.0881L121.772 18.4247C121.335 18.2991 121.067 18.0371 120.969 17.6388L119.346 12.4114C119.286 12.2158 119.199 12.0641 119.086 11.9562C118.98 11.8501 118.8 11.7607 118.546 11.6879L117.454 11.3739L115.912 16.7401L113.357 16.0057L117.305 2.27201L121.493 3.47604C122.424 3.7436 123.193 4.07109 123.802 4.45849C124.418 4.84138 124.889 5.26793 125.213 5.73813C125.543 6.21015 125.74 6.71905 125.802 7.26485C125.867 7.80431 125.815 8.36531 125.647 8.94783C125.515 9.41006 125.319 9.82693 125.062 10.1985C124.81 10.5718 124.507 10.889 124.151 11.1499C123.801 11.4127 123.4 11.6161 122.947 11.7602C122.501 11.9061 122.016 11.9827 121.493 11.99C121.63 12.1323 121.749 12.2899 121.85 12.4629C121.953 12.6296 122.036 12.818 122.099 13.028L124.08 19.0881Z" fill="white"/>
<path d="M99.4701 8.95834L97.8172 4.1742C97.7354 3.96186 97.651 3.70994 97.5641 3.41843C97.4771 3.12693 97.3905 2.81237 97.3044 2.47475C97.2127 2.80915 97.118 3.12372 97.0204 3.41847C96.923 3.70663 96.8295 3.95863 96.7399 4.17445L94.925 8.876L99.4701 8.95834ZM104.066 14.4383L102.011 14.401C101.78 14.3968 101.593 14.3374 101.45 14.2228C101.308 14.1016 101.202 13.9548 101.132 13.7822L100.118 10.848L94.1993 10.7408L93.0794 13.6363C93.024 13.7868 92.9194 13.9233 92.7656 14.0457C92.6118 14.1681 92.423 14.2273 92.199 14.2233L90.124 14.1857L96.005 -1.52588e-05L98.7123 0.0490346L104.066 14.4383Z" fill="white"/>
<path d="M146.24 17.2136C146.101 17.2914 145.975 17.3348 145.862 17.3437C145.758 17.3503 145.65 17.3197 145.537 17.2517C145.418 17.1804 145.314 17.0599 145.224 16.8903C145.143 16.7185 145.038 16.5212 144.911 16.2984C144.784 16.0757 144.616 15.8438 144.407 15.6029C144.207 15.3597 143.932 15.1328 143.582 14.9222C143.266 14.732 142.966 14.605 142.681 14.5414C142.4 14.4721 142.137 14.456 141.891 14.4929C141.652 14.5333 141.435 14.6257 141.24 14.77C141.049 14.9088 140.886 15.091 140.75 15.3168C140.577 15.6047 140.511 15.8922 140.554 16.1792C140.602 16.4697 140.718 16.7625 140.902 17.0576C141.086 17.3527 141.315 17.6558 141.589 17.9669C141.863 18.278 142.14 18.6026 142.421 18.9408C142.706 19.2733 142.968 19.6234 143.208 19.9909C143.452 20.3528 143.631 20.7377 143.747 21.1458C143.866 21.5482 143.898 21.9747 143.842 22.4255C143.792 22.8796 143.614 23.3607 143.308 23.8688C142.975 24.422 142.567 24.8836 142.083 25.2535C141.608 25.6213 141.078 25.8754 140.494 26.0158C139.918 26.1541 139.305 26.1696 138.655 26.0626C138.007 25.9499 137.345 25.6897 136.668 25.2821C136.278 25.0477 135.918 24.7772 135.587 24.4706C135.253 24.1696 134.954 23.8433 134.689 23.4915C134.429 23.1432 134.207 22.7785 134.021 22.3975C133.835 22.0165 133.696 21.6333 133.605 21.2479L134.932 20.5581C135.036 20.5131 135.148 20.4923 135.269 20.4958C135.393 20.4937 135.506 20.5233 135.608 20.5844C135.749 20.6693 135.866 20.8203 135.958 21.0374C136.054 21.2488 136.172 21.493 136.313 21.77C136.454 22.047 136.638 22.3348 136.866 22.6334C137.103 22.9297 137.433 23.2053 137.856 23.46C138.506 23.8507 139.1 24.0006 139.639 23.9098C140.181 23.8133 140.626 23.4772 140.972 22.9014C141.166 22.5796 141.242 22.2679 141.201 21.9661C141.165 21.6678 141.055 21.3711 140.871 21.0759C140.691 20.7752 140.46 20.4749 140.179 20.1751C139.898 19.8753 139.617 19.5637 139.335 19.2402C139.053 18.9167 138.79 18.574 138.546 18.2121C138.303 17.8502 138.125 17.4624 138.012 17.0488C137.9 16.6351 137.875 16.1899 137.939 15.7132C138.012 15.2342 138.217 14.7153 138.553 14.1564C138.822 13.7105 139.171 13.3285 139.6 13.0104C140.036 12.6957 140.521 12.4766 141.057 12.353C141.593 12.2294 142.168 12.2183 142.784 12.3196C143.4 12.421 144.029 12.6653 144.673 13.0525C145.395 13.4874 145.994 14.0011 146.467 14.5938C146.941 15.1864 147.27 15.8151 147.455 16.4797L146.24 17.2136Z" fill="white"/>
<path d="M20.4705 39.4438L21.6816 42.718L25.1698 42.8581L22.4301 45.0217L23.3748 48.3825L20.4705 46.4454L17.5661 48.3825L18.5108 45.0217L15.7711 42.8581L19.2594 42.718L20.4705 39.4438Z" fill="white"/>
<path d="M171.53 39.4438L170.318 42.718L166.83 42.8581L169.57 45.0217L168.625 48.3825L171.53 46.4454L174.434 48.3825L173.489 45.0217L176.229 42.8581L172.741 42.718L171.53 39.4438Z" fill="white"/>
<path d="M9.17653 60.6202L10.3876 63.8944L13.8759 64.0344L11.1362 66.1981L12.0809 69.5589L9.17653 67.6218L6.27218 69.5589L7.2169 66.1981L4.47719 64.0344L7.96541 63.8944L9.17653 60.6202Z" fill="white"/>
<path d="M182.823 60.6202L181.612 63.8944L178.124 64.0344L180.864 66.1981L179.919 69.5589L182.823 67.6218L185.728 69.5589L184.783 66.1981L187.523 64.0344L184.035 63.8944L182.823 60.6202Z" fill="white"/>
<path d="M4.94118 84.6202L6.15229 87.8944L9.64051 88.0344L6.9008 90.1981L7.84553 93.5589L4.94118 91.6218L2.03683 93.5589L2.98155 90.1981L0.241838 88.0344L3.73006 87.8944L4.94118 84.6202Z" fill="white"/>
<path d="M187.059 84.6202L185.848 87.8944L182.359 88.0344L185.099 90.1981L184.154 93.5589L187.059 91.6218L189.963 93.5589L189.018 90.1981L191.758 88.0344L188.27 87.8944L187.059 84.6202Z" fill="white"/>
</svg>
