<svg width="24" height="24" viewBox="0 0 24 24" fill="none" xmlns="http://www.w3.org/2000/svg">
<path d="M21.7504 12.0656V12C21.7494 10.5531 21.4268 9.12448 20.8058 7.81762C20.1848 6.51075 19.2809 5.35831 18.1597 4.44374L18.1035 4.39687L18.0379 4.34999C16.6065 3.21893 14.8865 2.51212 13.0735 2.30993C11.2604 2.10775 9.42697 2.41828 7.78161 3.20624L7.65974 3.27187C6.32965 3.93537 5.16816 4.89311 4.26338 6.07241C3.3586 7.2517 2.7343 8.62159 2.43786 10.0781V10.0969C2.07752 11.8983 2.23501 13.7651 2.89206 15.4807C3.54912 17.1963 4.67885 18.6907 6.15036 19.7906L6.27224 19.8844H6.28161C7.55462 20.8074 9.03198 21.4088 10.5877 21.6373C12.1434 21.8659 13.7313 21.7147 15.216 21.1969L15.3191 21.1594C17.187 20.4805 18.8033 19.2481 19.9524 17.6266C21.1016 16.0051 21.7288 14.0716 21.7504 12.0844V12.0656ZM20.2129 11.2687L19.5004 11.25C18.1107 11.2511 16.7271 11.4339 15.3847 11.7937C15.0558 10.8231 14.6318 9.88736 14.1191 8.99999C15.4535 8.19606 16.6606 7.19757 17.7004 6.0375C19.1466 7.41737 20.0399 9.27733 20.2129 11.2687ZM16.5285 5.10937C15.592 6.13822 14.5084 7.0228 13.3129 7.73437C12.3091 6.3275 11.0838 5.09272 9.68474 4.07812C10.8322 3.74474 12.0383 3.66429 13.2198 3.84233C14.4014 4.02037 15.5302 4.45266 16.5285 5.10937ZM8.02536 4.77187C9.56179 5.73594 10.9011 6.98304 11.9722 8.44687C10.0981 9.30443 8.0614 9.74885 6.00036 9.74999C5.36377 9.74861 4.72799 9.70476 4.09724 9.61874C4.72619 7.55361 6.13529 5.81493 8.02536 4.77187ZM3.75036 12C3.75036 11.6906 3.76911 11.3906 3.79724 11.1C4.52766 11.1969 5.26354 11.247 6.00036 11.25C8.35258 11.2533 10.6755 10.7279 12.7972 9.71249C13.2647 10.5191 13.651 11.3702 13.9504 12.2531C13.155 12.5562 12.384 12.9198 11.6441 13.3406C9.58812 14.531 7.82594 16.1682 6.48786 18.1312C5.62675 17.3587 4.93796 16.4135 4.46631 15.3571C3.99466 14.3007 3.75072 13.1569 3.75036 12ZM7.68786 19.0312C9.31265 16.6124 11.6434 14.753 14.3629 13.7062C14.5913 14.7376 14.7076 15.7906 14.7097 16.8469C14.7093 17.8713 14.5993 18.8927 14.3816 19.8937C13.6104 20.132 12.8075 20.2521 12.0004 20.25C10.4779 20.2494 8.98537 19.8276 7.68786 19.0312ZM16.041 19.1906C16.1538 18.4145 16.2102 17.6312 16.2097 16.8469C16.209 15.632 16.0706 14.4212 15.7972 13.2375C17.0053 12.9153 18.2501 12.7515 19.5004 12.75L20.2129 12.7687C20.0876 14.0964 19.6427 15.3741 18.9162 16.4924C18.1897 17.6107 17.2032 18.5365 16.041 19.1906Z" fill="white"/>
</svg>
