<svg width="32" height="32" viewBox="0 0 32 32" fill="none" xmlns="http://www.w3.org/2000/svg">
<g clip-path="url(#clip0_99_274)">
<path d="M10.3368 32C13.2808 32 15.6701 29.6107 15.6701 26.6667V21.3334H10.3368C7.39275 21.3334 5.00342 23.7227 5.00342 26.6667C5.00342 29.6107 7.39275 32 10.3368 32Z" fill="#0ACF83"/>
<path d="M5.00342 16C5.00342 13.056 7.39275 10.6666 10.3368 10.6666H15.6701V21.3333H10.3368C7.39275 21.3333 5.00342 18.944 5.00342 16Z" fill="#A259FF"/>
<path d="M5.00342 5.33333C5.00342 2.38933 7.39275 0 10.3368 0H15.6701V10.6667H10.3368C7.39275 10.6667 5.00342 8.27733 5.00342 5.33333Z" fill="#F24E1E"/>
<path d="M15.6699 0H21.0033C23.9473 0 26.3366 2.38933 26.3366 5.33333C26.3366 8.27733 23.9473 10.6667 21.0033 10.6667H15.6699V0Z" fill="#FF7262"/>
<path d="M26.3366 16C26.3366 18.944 23.9473 21.3333 21.0033 21.3333C18.0593 21.3333 15.6699 18.944 15.6699 16C15.6699 13.056 18.0593 10.6666 21.0033 10.6666C23.9473 10.6666 26.3366 13.056 26.3366 16Z" fill="#1ABCFE"/>
</g>
<defs>
<clipPath id="clip0_99_274">
<rect width="32" height="32" fill="white"/>
</clipPath>
</defs>
</svg>
