<svg width="36" height="36" viewBox="0 0 36 36" fill="none" xmlns="http://www.w3.org/2000/svg">
<path d="M9 2.25C13.9725 2.25 18 6.19875 18 11.07C18 6.19875 22.0275 2.25 27 2.25C31.9725 2.25 36 6.19875 36 11.07C36 18.4118 28.7235 21.0015 18.882 32.688C18.7736 32.8164 18.6386 32.9195 18.4863 32.9903C18.3339 33.061 18.168 33.0977 18 33.0977C17.832 33.0977 17.6661 33.061 17.5137 32.9903C17.3614 32.9195 17.2264 32.8164 17.118 32.688C7.2765 21.0015 0 18.4118 0 11.07C0 6.19875 4.0275 2.25 9 2.25Z" fill="#F21967"/>
</svg>
