<svg width="82" height="77" viewBox="0 0 82 77" fill="none" xmlns="http://www.w3.org/2000/svg">
<path d="M41 51C54.8071 51 66 39.8071 66 26C66 12.1929 54.8071 1 41 1C27.1929 1 16 12.1929 16 26C16 39.8071 27.1929 51 41 51Z" stroke="white" stroke-width="2" stroke-linecap="square"/>
<path d="M26 76C39.8071 76 51 64.8071 51 51C51 37.1929 39.8071 26 26 26C12.1929 26 1 37.1929 1 51C1 64.8071 12.1929 76 26 76Z" stroke="white" stroke-width="2" stroke-linecap="square"/>
<path d="M56 76C69.8071 76 81 64.8071 81 51C81 37.1929 69.8071 26 56 26C42.1929 26 31 37.1929 31 51C31 64.8071 42.1929 76 56 76Z" stroke="white" stroke-width="2" stroke-linecap="square"/>
</svg>
