<svg width="104" height="24" viewBox="0 0 104 24" fill="none" xmlns="http://www.w3.org/2000/svg">
<path d="M0 23.6923V23.3846H1.29177C1.59933 23.3846 1.86589 23.3436 2.09144 23.2615C2.33749 23.159 2.52203 22.9641 2.64505 22.6769C2.78858 22.3897 2.86035 21.959 2.86035 21.3846V3.90769C2.86035 3.35385 2.78858 2.94359 2.64505 2.67692C2.50152 2.41026 2.30673 2.2359 2.06068 2.15385C1.83513 2.07179 1.57883 2.03077 1.29177 2.03077H0V1.72308H10.1496C12.4256 1.72308 14.3735 2.12308 15.9933 2.92308C17.6132 3.70256 18.8537 4.88205 19.7149 6.46154C20.5966 8.02051 21.0374 9.96923 21.0374 12.3077C21.0374 14.5436 20.6273 16.5231 19.8071 18.2462C18.987 19.9487 17.767 21.2821 16.1471 22.2462C14.5478 23.2103 12.5486 23.6923 10.1496 23.6923H0ZM9.44223 23.3846C10.98 23.3846 12.2206 23.0154 13.1638 22.2769C14.107 21.5385 14.7836 20.359 15.1937 18.7385C15.6243 17.0974 15.8396 14.9436 15.8396 12.2769C15.8396 9.8359 15.6243 7.86667 15.1937 6.36923C14.7836 4.85128 14.107 3.75385 13.1638 3.07692C12.2411 2.37949 11.0108 2.03077 9.47298 2.03077H7.71987V23.3846H9.44223Z" fill="white"/>
<path d="M23.2396 23.6923V23.3846H23.6087C23.9163 23.3846 24.2341 23.3436 24.5621 23.2615C24.9107 23.159 25.1978 22.9641 25.4233 22.6769C25.6694 22.3897 25.7924 21.959 25.7924 21.3846V9.38461C25.7924 8.83077 25.6694 8.42051 25.4233 8.15385C25.1773 7.88718 24.88 7.71282 24.5314 7.63077C24.2033 7.54872 23.8957 7.50769 23.6087 7.50769H23.2396V7.2H30.4674V21.3846C30.4674 21.959 30.5801 22.3897 30.8057 22.6769C31.0517 22.9641 31.3491 23.159 31.6976 23.2615C32.0462 23.3436 32.364 23.3846 32.6511 23.3846H33.0202V23.6923H23.2396ZM27.9761 4.43077C27.3815 4.43077 26.8689 4.25641 26.4383 3.90769C26.0282 3.53846 25.8232 2.97436 25.8232 2.21539C25.8232 1.4359 26.0384 0.871795 26.469 0.523077C26.8996 0.174359 27.4122 0 28.0069 0C28.581 0 29.0833 0.174359 29.5139 0.523077C29.9445 0.871795 30.1598 1.4359 30.1598 2.21539C30.1598 2.97436 29.9445 3.53846 29.5139 3.90769C29.0833 4.25641 28.5707 4.43077 27.9761 4.43077Z" fill="white"/>
<path d="M34.0524 23.6923V23.3846H34.4215C34.7291 23.3846 35.0469 23.3436 35.3749 23.2615C35.7235 23.159 36.0106 22.9641 36.2361 22.6769C36.4822 22.3897 36.6052 21.959 36.6052 21.3846V9.38461C36.6052 8.83077 36.4822 8.42051 36.2361 8.15385C35.9901 7.88718 35.6928 7.71282 35.3442 7.63077C35.0161 7.54872 34.7086 7.50769 34.4215 7.50769H34.0524V7.2H41.2802V10H41.3417C41.5877 9.07692 41.9363 8.38974 42.3874 7.93846C42.8385 7.48718 43.3614 7.18974 43.956 7.04615C44.5506 6.88205 45.1452 6.8 45.7399 6.8C46.7446 6.8 47.5955 6.94359 48.2926 7.23077C49.0103 7.49744 49.5844 7.90769 50.015 8.46154C50.4661 8.99487 50.7737 9.6718 50.9377 10.4923H50.9992C51.1632 9.71282 51.4093 9.05641 51.7374 8.52308C52.0859 7.96923 52.5678 7.54872 53.1829 7.26154C53.7981 6.95385 54.5875 6.8 55.5512 6.8C57.3555 6.8 58.6986 7.2718 59.5803 8.21539C60.4619 9.15898 60.9028 10.6667 60.9028 12.7385V21.2C60.9028 21.8359 60.9745 22.3077 61.1181 22.6154C61.2821 22.9231 61.5179 23.1282 61.8255 23.2308C62.133 23.3333 62.5124 23.3846 62.9635 23.3846H63.0557V23.6923H56.2278V11.7231C56.2278 10.3897 56.0535 9.39487 55.7049 8.73846C55.3564 8.06154 54.7617 7.72308 53.9211 7.72308C53.2034 7.72308 52.6293 7.96923 52.1987 8.46154C51.7886 8.93333 51.5016 9.58974 51.3375 10.4308C51.1735 11.2718 51.0915 12.2154 51.0915 13.2615V21.2C51.0915 21.8359 51.1632 22.3077 51.3068 22.6154C51.4708 22.9231 51.7066 23.1282 52.0142 23.2308C52.3217 23.3333 52.7011 23.3846 53.1522 23.3846H53.2444V23.6923H46.4165V11.7231C46.4165 10.3897 46.2422 9.39487 45.8936 8.73846C45.5451 8.06154 44.9504 7.72308 44.1098 7.72308C43.3921 7.72308 42.818 7.96923 42.3874 8.46154C41.9773 8.95385 41.6903 9.64103 41.5262 10.5231C41.3622 11.4051 41.2802 12.4205 41.2802 13.5692V21.3846C41.2802 21.959 41.393 22.3897 41.6185 22.6769C41.8646 22.9641 42.1619 23.159 42.5104 23.2615C42.859 23.3436 43.1768 23.3846 43.4639 23.3846H43.833V23.6923H34.0524Z" fill="white"/>
<path d="M70.1706 24C69.1453 24 68.2637 23.8051 67.5255 23.4154C66.7874 23.0256 66.2235 22.4718 65.8339 21.7538C65.4443 21.0154 65.2495 20.1641 65.2495 19.2C65.2495 17.6205 65.8237 16.4821 66.9719 15.7846C68.1201 15.0872 69.8425 14.6974 72.139 14.6154L74.661 14.5231V10.6154C74.661 9.71282 74.5995 9.01539 74.4765 8.52308C74.3534 8.01026 74.1587 7.65128 73.8921 7.44616C73.6255 7.22051 73.2565 7.10769 72.7849 7.10769C72.2517 7.10769 71.8314 7.26154 71.5238 7.56923C71.2163 7.85641 71.001 8.35897 70.878 9.07692C70.7549 9.77436 70.6934 10.7487 70.6934 12C69.3196 12 68.2842 11.8462 67.587 11.5385C66.8899 11.2103 66.5413 10.6667 66.5413 9.90769C66.5413 9.16923 66.8284 8.57436 67.4025 8.12308C67.9766 7.65128 68.7455 7.31282 69.7092 7.10769C70.6729 6.90256 71.7289 6.8 72.8771 6.8C75.0301 6.8 76.6397 7.18974 77.7059 7.96923C78.7926 8.74872 79.336 10.1026 79.336 12.0308V21.2C79.336 21.7538 79.3872 22.1949 79.4898 22.5231C79.6128 22.8308 79.8076 23.0564 80.0741 23.2C80.3612 23.3231 80.7303 23.3846 81.1814 23.3846H81.3044V23.6923H74.7225V20.5846H74.661C74.3944 21.4667 74.0356 22.1538 73.5845 22.6462C73.1334 23.1385 72.6106 23.4872 72.0159 23.6923C71.4418 23.8974 70.8267 24 70.1706 24ZM71.7391 23.1385C72.3338 23.1385 72.8464 22.9128 73.277 22.4615C73.7281 22.0103 74.0664 21.4256 74.2919 20.7077C74.538 19.9897 74.661 19.2308 74.661 18.4308V14.8308L73.277 14.8923C72.4568 14.9333 71.8109 15.1077 71.3393 15.4154C70.8677 15.7026 70.5294 16.1538 70.3243 16.7692C70.1193 17.3641 70.0168 18.1436 70.0168 19.1077C70.0168 20.0923 70.0783 20.8821 70.2013 21.4769C70.3243 22.0718 70.5089 22.5026 70.7549 22.7692C71.0215 23.0154 71.3496 23.1385 71.7391 23.1385Z" fill="white"/>
<path d="M89.0745 24C87.7417 24 86.6345 23.8462 85.7528 23.5385C84.8916 23.2103 84.2457 22.7795 83.8151 22.2462C83.405 21.6923 83.2 21.0769 83.2 20.4C83.2 19.7231 83.364 19.2205 83.6921 18.8923C84.0202 18.5641 84.4098 18.3487 84.8608 18.2462C85.3119 18.1231 85.7118 18.0615 86.0603 18.0615C86.0603 19.4564 86.1731 20.5744 86.3987 21.4154C86.6447 22.2359 87.0138 22.8205 87.5059 23.1692C88.0185 23.5179 88.6644 23.6923 89.4436 23.6923C90.4278 23.6923 91.2172 23.4462 91.8118 22.9538C92.4269 22.4615 92.7345 21.6923 92.7345 20.6462C92.7345 19.9487 92.591 19.4051 92.3039 19.0154C92.0168 18.6256 91.5657 18.2872 90.9506 18C90.356 17.6923 89.5871 17.3641 88.6439 17.0154C87.7212 16.6667 86.8703 16.2872 86.0911 15.8769C85.3119 15.4667 84.6866 14.9436 84.215 14.3077C83.7434 13.6513 83.5076 12.8 83.5076 11.7538C83.5076 10.0923 84.1022 8.86154 85.2914 8.06154C86.5012 7.24103 88.121 6.83077 90.1509 6.83077C91.4427 6.83077 92.4782 6.97436 93.2573 7.26154C94.0365 7.52821 94.6004 7.88718 94.949 8.33846C95.318 8.78974 95.5026 9.28205 95.5026 9.81538C95.5026 10.4103 95.2565 10.8923 94.7644 11.2615C94.2928 11.6308 93.4931 11.8154 92.3654 11.8154C92.3654 10.0718 92.1399 8.86154 91.6888 8.18462C91.2377 7.48718 90.561 7.13846 89.6588 7.13846C89.2283 7.13846 88.7977 7.22051 88.3671 7.38462C87.9365 7.54872 87.5777 7.8359 87.2906 8.24615C87.0035 8.6359 86.86 9.2 86.86 9.93846C86.86 10.5949 87.0035 11.1179 87.2906 11.5077C87.5982 11.8974 88.08 12.2462 88.7362 12.5538C89.3923 12.8615 90.274 13.2205 91.3812 13.6308C92.3244 13.9795 93.1446 14.3692 93.8417 14.8C94.5389 15.2103 95.0822 15.7333 95.4718 16.3692C95.8614 16.9846 96.0562 17.7744 96.0562 18.7385C96.0562 20.359 95.4616 21.641 94.2723 22.5846C93.1036 23.5282 91.371 24 89.0745 24Z" fill="white"/>
<path d="M101.816 23.9385C101.201 23.9385 100.678 23.7641 100.248 23.4154C99.8376 23.0462 99.6326 22.4 99.6326 21.4769C99.6326 20.5333 99.8376 19.8872 100.248 19.5385C100.678 19.1897 101.201 19.0154 101.816 19.0154C102.411 19.0154 102.924 19.1897 103.354 19.5385C103.785 19.8872 104 20.5333 104 21.4769C104 22.4 103.785 23.0462 103.354 23.4154C102.924 23.7641 102.411 23.9385 101.816 23.9385Z" fill="white"/>
</svg>
