<svg width="32" height="32" viewBox="0 0 32 32" fill="none" xmlns="http://www.w3.org/2000/svg">
<path d="M2.6665 8.00016C2.6665 7.29292 2.94746 6.61464 3.44755 6.11454C3.94765 5.61445 4.62593 5.3335 5.33317 5.3335H26.6665C27.3737 5.3335 28.052 5.61445 28.5521 6.11454C29.0522 6.61464 29.3332 7.29292 29.3332 8.00016V24.0002C29.3332 24.7074 29.0522 25.3857 28.5521 25.8858C28.052 26.3859 27.3737 26.6668 26.6665 26.6668H5.33317C4.62593 26.6668 3.94765 26.3859 3.44755 25.8858C2.94746 25.3857 2.6665 24.7074 2.6665 24.0002V8.00016Z" stroke="white" stroke-width="2.66667" stroke-linecap="round" stroke-linejoin="round"/>
<path d="M2.6665 10.667L12.6678 18.6683C13.6136 19.425 14.7887 19.8373 15.9998 19.8373C17.211 19.8373 18.3861 19.425 19.3318 18.6683L29.3332 10.667" stroke="white" stroke-width="2.66667" stroke-linejoin="round"/>
</svg>
