<svg width="32" height="32" viewBox="0 0 32 32" fill="none" xmlns="http://www.w3.org/2000/svg">
<path d="M22 28C12.075 28 4 19.925 4 10C4.00375 8.29758 4.62559 6.65444 5.7499 5.37608C6.87421 4.09773 8.42449 3.27114 10.1125 3.05001C10.5428 3.0023 10.9771 3.0929 11.3525 3.30866C11.7278 3.52443 12.0247 3.85415 12.2 4.25001L14.7125 10.1125C14.8428 10.4168 14.8951 10.7488 14.8645 11.0785C14.834 11.4081 14.7216 11.7249 14.5375 12L12.4625 15.175C13.4021 17.0819 14.9503 18.6213 16.8625 19.55L20 17.4625C20.2749 17.2772 20.5924 17.1651 20.9227 17.1366C21.253 17.1082 21.585 17.1644 21.8875 17.3L27.75 19.8C28.1459 19.9753 28.4756 20.2722 28.6913 20.6475C28.9071 21.0229 28.9977 21.4572 28.95 21.8875C28.7289 23.5755 27.9023 25.1258 26.6239 26.2501C25.3456 27.3744 23.7024 27.9963 22 28ZM10.3625 5.03751C9.15619 5.19258 8.04776 5.78203 7.24474 6.69548C6.44173 7.60894 5.9992 8.78377 6 10C6.00331 14.2425 7.69008 18.3102 10.6899 21.3101C13.6898 24.3099 17.7576 25.9967 22 26C23.2162 26.0008 24.3911 25.5583 25.3045 24.7553C26.218 23.9523 26.8074 22.8438 26.9625 21.6375L21.1 19.1375L17.975 21.225C17.6875 21.4151 17.3557 21.5277 17.0118 21.5517C16.668 21.5758 16.3237 21.5106 16.0125 21.3625C13.6837 20.236 11.7999 18.361 10.6625 16.0375C10.5125 15.7273 10.4452 15.3837 10.4671 15.0398C10.489 14.696 10.5994 14.3637 10.7875 14.075L12.875 10.9L10.3625 5.03751Z" fill="white"/>
</svg>
