<svg width="48" height="48" viewBox="0 0 48 48" fill="none" xmlns="http://www.w3.org/2000/svg">
<g clip-path="url(#clip0_99_265)">
<path d="M12 18H16V22H20V26H16V30H12V26H8V22H12V18ZM37 18C37.7957 18 38.5587 18.3161 39.1213 18.8787C39.6839 19.4413 40 20.2044 40 21C40 21.7957 39.6839 22.5587 39.1213 23.1213C38.5587 23.6839 37.7957 24 37 24C36.2043 24 35.4413 23.6839 34.8787 23.1213C34.3161 22.5587 34 21.7957 34 21C34 20.2044 34.3161 19.4413 34.8787 18.8787C35.4413 18.3161 36.2043 18 37 18ZM31 24C31.7956 24 32.5587 24.3161 33.1213 24.8787C33.6839 25.4413 34 26.2044 34 27C34 27.7957 33.6839 28.5587 33.1213 29.1213C32.5587 29.6839 31.7956 30 31 30C30.2044 30 29.4413 29.6839 28.8787 29.1213C28.3161 28.5587 28 27.7957 28 27C28 26.2044 28.3161 25.4413 28.8787 24.8787C29.4413 24.3161 30.2044 24 31 24ZM34 10C37.713 10 41.274 11.475 43.8995 14.1005C46.525 16.726 48 20.287 48 24C48 27.713 46.525 31.274 43.8995 33.8995C41.274 36.525 37.713 38 34 38C30.08 38 26.54 36.4 24 33.8C22.6991 35.1337 21.1436 36.1926 19.4259 36.914C17.7082 37.6355 15.8631 38.0048 14 38C10.287 38 6.72601 36.525 4.1005 33.8995C1.475 31.274 0 27.713 0 24C0 20.287 1.475 16.726 4.1005 14.1005C6.72601 11.475 10.287 10 14 10H34ZM14 14C11.3478 14 8.8043 15.0536 6.92893 16.9289C5.05357 18.8043 4 21.3478 4 24C4 26.6522 5.05357 29.1957 6.92893 31.0711C8.8043 32.9464 11.3478 34 14 34C17.28 34 20.18 32.42 22 30H26C27.82 32.42 30.72 34 34 34C36.6522 34 39.1957 32.9464 41.0711 31.0711C42.9464 29.1957 44 26.6522 44 24C44 21.3478 42.9464 18.8043 41.0711 16.9289C39.1957 15.0536 36.6522 14 34 14H14Z" fill="#F21967"/>
</g>
<defs>
<clipPath id="clip0_99_265">
<rect width="48" height="48" fill="white"/>
</clipPath>
</defs>
</svg>
