<svg width="32" height="32" viewBox="0 0 32 32" fill="none" xmlns="http://www.w3.org/2000/svg">
<path d="M2 2H30V30H2V2Z" fill="#0C0824"/>
<path d="M2.25036 2.28242H29.7496V29.7176H2.25036V2.28242ZM1 31H31V1H1V31ZM21.2254 13.3077C20.2375 13.3077 19.9 13.8209 19.9 14.244C19.9 14.7055 20.125 15.0264 21.4504 15.7308C23.4132 16.7055 24.0218 17.6407 24.0218 19.0132C24.0218 21.0648 22.4971 22.167 20.4346 22.167C19.5495 22.2007 18.6697 22.0121 17.8718 21.6176C17.7839 21.5791 17.7721 21.5154 17.7721 21.4121V19.5253C17.7721 19.3967 17.8343 19.3582 17.9221 19.4231C18.6715 19.9173 19.5437 20.1798 20.4346 20.1791C21.4225 20.1791 21.835 19.756 21.835 19.1791C21.835 18.7176 21.5479 18.3077 20.2846 17.6407C18.5093 16.7692 17.7721 15.8824 17.7721 14.4099C17.7721 12.756 19.0343 11.3846 21.2221 11.3846C21.9837 11.3511 22.7442 11.4732 23.4593 11.744C23.5005 11.7714 23.5338 11.8095 23.5558 11.8545C23.5779 11.8995 23.5878 11.9497 23.5846 12V13.7582C23.5846 13.8604 23.5225 13.9253 23.3971 13.8868C22.7362 13.4966 21.9846 13.2972 21.2221 13.3099L21.2254 13.3077ZM10.4746 14.833C10.7618 14.8582 10.9868 14.8582 11.4871 14.8582C12.9496 14.8582 14.3243 14.333 14.3243 12.2945C14.3243 10.6659 13.3364 9.84615 11.6746 9.84615C11.1743 9.84615 10.6996 9.87143 10.4746 9.88462V14.833ZM8.24929 8.01978C8.24929 7.92967 8.42393 7.86593 8.52464 7.86593C9.59907 7.8209 10.6743 7.79965 11.7496 7.8022C15.2125 7.8022 16.5625 9.75055 16.5625 12.2385C16.5625 15.4945 14.2621 16.8923 11.4379 16.8923C10.9632 16.8923 10.8004 16.867 10.4629 16.867V21.7901C10.4629 21.8923 10.4254 21.944 10.3129 21.944H8.40036C8.30071 21.944 8.25036 21.9055 8.25036 21.7901V8.02528L8.24929 8.01978Z" fill="#31C5F0"/>
</svg>
