<svg width="32" height="32" viewBox="0 0 32 32" fill="none" xmlns="http://www.w3.org/2000/svg">
<path d="M16 1L6.98436 1.9535L0.00439453 11.3259L16 29.9578L31.9956 11.3259L25.0158 1.9535L16 1Z" fill="#FDB300"/>
<path d="M0.00439453 11.326L16 29.9578L6.48337 11.326H0.00439453ZM25.5165 11.326L16 29.9578L31.9955 11.326H25.5165Z" fill="#EB6C00"/>
<path d="M6.4834 11.326L16 29.9578L25.5167 11.326H6.4834Z" fill="#FDAD00"/>
<path d="M6.98439 1.9535L6.4834 11.3259L16 1L6.98439 1.9535ZM25.5166 11.326L25.0157 1.9535L16 1.00012L25.5166 11.326Z" fill="#FDD231"/>
<path d="M25.5167 11.326H31.9955L25.0157 1.95349L25.5167 11.326ZM0.00439453 11.326H6.48337L6.98436 1.95349L0.00439453 11.326Z" fill="#FDAD00"/>
<path d="M16 1L6.4834 11.3259H25.5167L16 1Z" fill="#FEEEB7"/>
</svg>
