<?xml version="1.0" encoding="utf-8"?><svg viewBox="0 0 88 88" xmlns="http://www.w3.org/2000/svg" xmlns:xlink="http://www.w3.org/1999/xlink"><style>:root>svg{display:none}:root>svg:target{display:block}</style><svg viewBox="0 0 28 16" id="arr-down" xmlns="http://www.w3.org/2000/svg"><path d="M2 2l12 12L26 2"/></svg><svg viewBox="0 0 28 16" id="arr-up" xmlns="http://www.w3.org/2000/svg"><path d="M2 14L14 2l12 12"/></svg><svg viewBox="0 0 20 36" id="arrow-next" xmlns="http://www.w3.org/2000/svg"><path d="M1.667 34l16-16-16-16"/></svg><svg viewBox="0 0 20 36" id="arrow-prev" xmlns="http://www.w3.org/2000/svg"><path d="M18 34L2 18 18 2"/></svg><svg viewBox="0 0 24 24" id="dr" xmlns="http://www.w3.org/2000/svg"><path d="M21.75 12.066V12a9.76 9.76 0 00-3.59-7.556l-.056-.047-.066-.047A9.75 9.75 0 007.782 3.206l-.122.066a9.787 9.787 0 00-5.222 6.806v.019A9.722 9.722 0 006.15 19.79l.122.093h.01a9.75 9.75 0 008.934 1.313l.103-.038a9.768 9.768 0 006.431-9.075v-.018zm-1.537-.797l-.713-.019c-1.39.001-2.773.184-4.115.544A15.578 15.578 0 0014.119 9 15.666 15.666 0 0017.7 6.037a8.213 8.213 0 012.513 5.232zm-3.684-6.16a14.1 14.1 0 01-3.216 2.625 15.986 15.986 0 00-3.628-3.656 8.26 8.26 0 016.844 1.031zm-8.504-.337a14.325 14.325 0 013.947 3.675A14.371 14.371 0 016 9.75a14.314 14.314 0 01-1.903-.131 8.297 8.297 0 013.928-4.847zM3.75 12c0-.31.02-.61.047-.9.73.097 1.467.147 2.203.15a15.694 15.694 0 006.797-1.538 14.04 14.04 0 011.153 2.541 16.67 16.67 0 00-2.306 1.088 15.854 15.854 0 00-5.156 4.79A8.24 8.24 0 013.75 12zm3.938 7.031a14.176 14.176 0 016.675-5.325 14.363 14.363 0 01.019 6.187A7.995 7.995 0 0112 20.25a8.25 8.25 0 01-4.312-1.219zm8.353.16a16.08 16.08 0 00-.244-5.953 14.438 14.438 0 013.703-.488l.713.019a8.26 8.26 0 01-4.172 6.422z"/></svg><svg viewBox="0 0 24 24" id="fb" xmlns="http://www.w3.org/2000/svg"><path fill-rule="evenodd" clip-rule="evenodd" d="M9.934 2.934A5.75 5.75 0 0114 1.25h3a.75.75 0 01.75.75v4a.75.75 0 01-.75.75h-3a.25.25 0 00-.25.25v2.25H17a.75.75 0 01.728.932l-1 4a.75.75 0 01-.728.568h-2.25V22a.75.75 0 01-.75.75H9a.75.75 0 01-.75-.75v-7.25H6a.75.75 0 01-.75-.75v-4A.75.75 0 016 9.25h2.25V7a5.75 5.75 0 011.684-4.066zM14 2.75A4.25 4.25 0 009.75 7v3a.75.75 0 01-.75.75H6.75v2.5H9a.75.75 0 01.75.75v7.25h2.5V14a.75.75 0 01.75-.75h2.414l.625-2.5H13a.75.75 0 01-.75-.75V7A1.75 1.75 0 0114 5.25h2.25v-2.5H14z"/></svg><svg viewBox="0 0 32 32" id="message" xmlns="http://www.w3.org/2000/svg"><path d="M2.667 8a2.667 2.667 0 012.666-2.667h21.334A2.667 2.667 0 0129.332 8v16a2.667 2.667 0 01-2.666 2.667H5.332A2.667 2.667 0 012.666 24V8z"/><path d="M2.667 10.667l10 8.001a5.334 5.334 0 006.665 0l10.001-8.001"/></svg><svg viewBox="0 0 32 32" id="phone" xmlns="http://www.w3.org/2000/svg"><path d="M22 28c-9.925 0-18-8.075-18-18a7.025 7.025 0 016.113-6.95 2.038 2.038 0 012.087 1.2l2.513 5.863A1.987 1.987 0 0114.537 12l-2.075 3.175a9.562 9.562 0 004.4 4.375L20 17.462a1.95 1.95 0 011.887-.162l5.863 2.5a2.037 2.037 0 011.2 2.087A7.025 7.025 0 0122 28zM10.363 5.038A5 5 0 006 10a16.013 16.013 0 0016 16 5 5 0 004.962-4.363l-5.862-2.5-3.125 2.088a1.999 1.999 0 01-1.963.137 11.563 11.563 0 01-5.35-5.324 2 2 0 01.125-1.963l2.088-3.175-2.512-5.862z"/></svg><svg viewBox="0 0 88 88" id="play-button" xmlns="http://www.w3.org/2000/svg"><g filter="url(#ia)" stroke-width="2"><circle cx="44" cy="40" r="39"/><path d="M37 27.876L58 40 37 52.124V27.876z"/></g><defs><filter id="ia" x="0" y="0" width="88" height="88" filterUnits="userSpaceOnUse" color-interpolation-filters="sRGB"><feFlood flood-opacity="0" result="BackgroundImageFix"/><feColorMatrix in="SourceAlpha" values="0 0 0 0 0 0 0 0 0 0 0 0 0 0 0 0 0 0 127 0" result="hardAlpha"/><feOffset dy="4"/><feGaussianBlur stdDeviation="2"/><feComposite in2="hardAlpha" operator="out"/><feColorMatrix values="0 0 0 0 0 0 0 0 0 0 0 0 0 0 0 0 0 0 0.25 0"/><feBlend in2="BackgroundImageFix" result="effect1_dropShadow_99_643"/><feBlend in="SourceGraphic" in2="effect1_dropShadow_99_643" result="shape"/></filter></defs></svg><svg viewBox="0 0 24 24" id="tw" xmlns="http://www.w3.org/2000/svg"><path d="M23.194 6.46A.75.75 0 0022.5 6h-2.85a4.48 4.48 0 00-7.05-.947 4.473 4.473 0 00-1.35 3.197v.572c-3.815-.994-6.937-4.069-6.965-4.106a.75.75 0 00-.76-.179.76.76 0 00-.515.582c-.816 4.518.543 7.547 1.828 9.29a10.183 10.183 0 002.315 2.288c-1.434 1.622-3.646 2.466-3.665 2.475a.75.75 0 00-.366 1.116c.075.112.356.478 1.04.825.854.421 1.979.637 3.338.637 6.61 0 12.14-5.09 12.703-11.644l2.832-2.822a.787.787 0 00.159-.825zm-4.247 2.784a.732.732 0 00-.215.487C18.346 15.628 13.416 20.25 7.5 20.25c-.994 0-1.687-.131-2.175-.29 1.078-.582 2.578-1.594 3.553-3.047a.75.75 0 00-.048-.88.76.76 0 00-.242-.199c-.01-.009-1.397-.73-2.588-2.371-1.35-1.857-1.922-4.116-1.697-6.722 1.482 1.218 4.313 3.206 7.575 3.75a.76.76 0 00.61-.17.768.768 0 00.262-.571v-1.5a3 3 0 015.747-1.2.76.76 0 00.694.45h1.5l-1.744 1.744z"/></svg></svg>