<svg width="24" height="24" viewBox="0 0 24 24" fill="none" xmlns="http://www.w3.org/2000/svg">
<path d="M23.194 6.45938C23.1366 6.32288 23.0401 6.20641 22.9167 6.12466C22.7932 6.04292 22.6483 5.99954 22.5002 6H19.6502C19.3082 5.4033 18.8335 4.89333 18.2627 4.50959C17.692 4.12584 17.0405 3.87862 16.3589 3.78707C15.6772 3.69552 14.9837 3.7621 14.3319 3.98164C13.6801 4.20119 13.0876 4.56782 12.6002 5.05313C12.1736 5.46916 11.8343 5.96628 11.6025 6.51527C11.3707 7.06427 11.2509 7.65406 11.2502 8.25V8.82188C7.43462 7.82813 4.31275 4.75313 4.28462 4.71563C4.18656 4.61915 4.06385 4.5515 3.92991 4.52008C3.79598 4.48867 3.65599 4.49469 3.52525 4.5375C3.39493 4.57898 3.27822 4.65488 3.18747 4.75718C3.09671 4.85949 3.03526 4.98441 3.00962 5.11875C2.194 9.6375 3.55337 12.6656 4.83775 14.4094C5.48195 15.2911 6.26382 16.0635 7.15337 16.6969C5.719 18.3188 3.5065 19.1625 3.48775 19.1719C3.38195 19.2111 3.28636 19.2737 3.20812 19.355C3.12988 19.4363 3.07099 19.5343 3.03584 19.6415C3.0007 19.7487 2.99021 19.8625 3.00515 19.9744C3.02009 20.0862 3.06007 20.1933 3.12212 20.2875C3.19712 20.4 3.47837 20.7656 4.16275 21.1125C5.01587 21.5344 6.14087 21.75 7.50025 21.75C14.1096 21.75 19.6409 16.6594 20.2034 10.1063L23.0346 7.28438C23.1364 7.17594 23.2053 7.04091 23.2335 6.89491C23.2617 6.74891 23.248 6.59791 23.194 6.45938ZM18.9471 9.24375C18.8165 9.37333 18.7395 9.54741 18.7315 9.73125C18.3471 15.6281 13.4159 20.25 7.50025 20.25C6.5065 20.25 5.81275 20.1188 5.32525 19.9594C6.40337 19.3781 7.90337 18.3656 8.87837 16.9125C8.93497 16.8246 8.97255 16.7257 8.98869 16.6224C9.00484 16.5191 8.99919 16.4135 8.97212 16.3125C8.94483 16.2105 8.89655 16.1152 8.83037 16.0329C8.76418 15.9506 8.68155 15.883 8.58775 15.8344C8.57837 15.825 7.19087 15.1031 6.00025 13.4625C4.65025 11.6063 4.07837 9.34688 4.30337 6.74063C5.78462 7.95938 8.61587 9.94688 11.8784 10.4906C11.9861 10.5079 12.0963 10.5018 12.2015 10.4727C12.3066 10.4436 12.4043 10.3921 12.4877 10.3219C12.5694 10.2505 12.6349 10.1626 12.6802 10.064C12.7254 9.96547 12.7493 9.85845 12.7502 9.75V8.25C12.7516 7.56187 12.9896 6.89514 13.4241 6.36159C13.8587 5.82803 14.4634 5.46008 15.137 5.31943C15.8106 5.17877 16.5121 5.27396 17.1239 5.58904C17.7356 5.90412 18.2205 6.41993 18.4971 7.05C18.5569 7.18402 18.6543 7.29785 18.7774 7.37771C18.9005 7.45758 19.0441 7.50005 19.1909 7.5H20.6909L18.9471 9.24375Z" fill="white"/>
</svg>
