<svg width="126" height="122" fill="none" xmlns="http://www.w3.org/2000/svg"><g clip-path="url(#clip0)"><circle opacity=".5" cx="62.2" cy="63.227" r="47" transform="rotate(-45 62.2 63.227)" fill="#030304" fill-opacity=".5" stroke="#fff" stroke-width="2" stroke-linecap="round"/><g filter="url(#filter0_d)"><path d="M78.2 62.001c1.334.77 1.334 2.695 0 3.464l-22.5 12.99c-1.333.77-3-.192-3-1.731V50.743c0-1.54 1.667-2.502 3-1.732l22.5 12.99z" fill="#fff"/></g><path opacity=".3" d="M15.098 30.55C-.175 52.344-.077 81.616 17.146 101.755c17.223 20.139 46.125 24.777 70.025 13.07" stroke="#fff" stroke-linecap="round"/><path d="M22.606 24.71c-.448.459-.953.78-1.516.96a3.207 3.207 0 01-1.685.066 3.247 3.247 0 01-1.513-.859 3.2 3.2 0 01-.89-1.484 3.12 3.12 0 01.022-1.687c.163-.57.47-1.088.923-1.552a3.638 3.638 0 011.236-.856 2.956 2.956 0 011.372-.22l-.035 1.272c-.65-.038-1.194.168-1.634.62a2.069 2.069 0 00-.542.93c-.093.335-.09.673.007 1.01.102.335.292.638.571.91.28.272.587.455.924.549.34.089.68.084 1.018-.013.334-.102.637-.293.91-.572.439-.451.63-1.003.57-1.655l1.272-.068a2.91 2.91 0 01-.18 1.384 3.697 3.697 0 01-.83 1.264zm9.017-7.92l-2.14-3.105.227 3.61-.534.366-3.244-1.454 2.091 3.051-1.128.774-3.562-5.197.994-.681 4.159 1.895-.299-4.542.995-.681 3.57 5.19-1.129.774zm7.397-4.093a3.703 3.703 0 01-1.788.355 3.19 3.19 0 01-1.605-.541 3.23 3.23 0 01-1.099-1.338 3.183 3.183 0 01-.293-1.697 3.17 3.17 0 01.633-1.578c.362-.476.84-.85 1.435-1.123a3.656 3.656 0 011.78-.352 3.17 3.17 0 012.712 1.875 3.19 3.19 0 01.289 1.71 3.191 3.191 0 01-.637 1.569c-.357.474-.833.847-1.427 1.12zm-.518-1.129c.338-.155.609-.371.811-.65.2-.282.313-.598.338-.946a2.076 2.076 0 00-.198-1.058 2.074 2.074 0 00-.673-.84 1.779 1.779 0 00-.934-.354 1.972 1.972 0 00-1.025.183 1.973 1.973 0 00-.807.658 1.84 1.84 0 00-.35.943c-.025.348.043.7.206 1.054.163.354.384.635.664.844.286.205.602.324.947.357.343.028.683-.036 1.021-.19zM48.63 3.969l-1.942.542 1.376 4.924-1.387.387L45.301 4.9l-1.932.54-.32-1.144 5.261-1.47.32 1.144zm6.81-2.242c.555-.064 1.045-.027 1.472.11.433.138.779.364 1.038.679.26.314.417.703.47 1.168a2.21 2.21 0 01-.191 1.246 2.156 2.156 0 01-.858.896c-.384.225-.854.37-1.408.434l-1.26.145.198 1.726-1.448.166-.722-6.258 2.71-.312zm.306 3.362c.436-.05.756-.18.961-.392.204-.217.287-.498.247-.844-.04-.351-.185-.606-.432-.765-.249-.165-.59-.222-1.026-.172l-1.18.136.25 2.173 1.18-.136zM67.19 6.724l-.066 1.169-4.87-.274.353-6.29 4.753.267-.065 1.168-3.307-.186-.077 1.366 2.92.164-.063 1.132-2.92-.164-.082 1.456 3.423.192zm9.096-2.29l-1.951-.507-1.287 4.947-1.394-.362 1.287-4.948-1.942-.505.299-1.15 5.287 1.375-.3 1.15zm6.402 2.476c.723.258 1.22.617 1.489 1.076.275.461.3 1.009.073 1.641-.24.673-.638 1.11-1.194 1.313-.55.2-1.21.16-1.985-.116l-2.678-.956 2.117-5.933 1.365.487-.696 1.95 1.509.538zm-1.33 2.87c.356.127.664.138.924.034.266-.103.459-.32.578-.654.22-.616-.05-1.06-.806-1.33l-1.238-.441-.696 1.95 1.238.441zm16.715 5.288c.224.332.334.662.328.99-.007.33-.13.64-.37.932-.353.432-.794.633-1.321.604-.523-.026-1.088-.288-1.695-.786l-2.4-1.97 3.997-4.87 2.268 1.862c.566.464.917.935 1.053 1.412.136.476.04.916-.292 1.32a1.485 1.485 0 01-.706.492 1.628 1.628 0 01-.862.014zm-1.997-2.163l1.05.862c.246.202.472.305.677.31.209.002.393-.095.553-.29.156-.19.211-.39.165-.598-.041-.205-.183-.407-.424-.605l-1.05-.862-.971 1.183zm-.418 3.034c.529.434.965.442 1.307.024.331-.403.233-.822-.296-1.256l-1.238-1.016-1.011 1.231 1.238 1.017zm8.929 1.295l.969 1.078-3.051 2.744 5.061-.509.915 1.017-4.685 4.212-.963-1.07 3.045-2.738-5.055.503-.92-1.024 4.684-4.213zm6.601 15.511l-2.071 1.388-.752-1.121 1.084-.727-2.476-3.693-1.083.727-.752-1.121 2.075-1.381.141.21c.22.307.598.375 1.134.204.535-.172 1.229-.521 2.081-1.05l1.677-1.037 2.697 4.022-4.246 2.846.491.733zm-.014-5.42a13.37 13.37 0 01-1.675.896c-.472.201-.863.286-1.173.256l1.569 2.34 3.259-2.186-1.203-1.794-.777.489zm1.827 13.077l-1.079.453-1.888-4.499 5.81-2.437 1.842 4.39-1.079.453-1.281-3.054-1.262.53 1.132 2.696-1.046.439-1.132-2.697-1.344.564 1.327 3.162zm1.076 6.16a3.7 3.7 0 01.027-1.822 3.185 3.185 0 01.864-1.457 3.23 3.23 0 011.537-.795 3.183 3.183 0 011.721.067c.552.184 1.022.5 1.411.948.39.454.657 1 .8 1.638.142.638.133 1.243-.029 1.814a3.17 3.17 0 01-.872 1.458 3.14 3.14 0 01-1.527.803 3.18 3.18 0 01-1.732-.075 3.187 3.187 0 01-1.402-.95c-.389-.448-.655-.99-.798-1.629zm1.213-.27c.081.362.236.672.465.928.236.255.521.43.856.528.337.103.695.112 1.076.027.38-.085.701-.246.962-.482.262-.231.442-.511.541-.84.104-.331.116-.678.034-1.041a1.972 1.972 0 00-.474-.927 1.841 1.841 0 00-.849-.539 2.135 2.135 0 00-1.074-.018 2.132 2.132 0 00-.964.474c-.26.236-.443.52-.547.85-.099.33-.108.676-.026 1.04zm-3.195 53.727l-5.038-3.784.876-1.165 2.065 1.55 1.719-2.288-2.065-1.55.875-1.166 5.038 3.783-.876 1.166-1.986-1.492-1.719 2.288 1.986 1.492-.875 1.166zm-9.503 2.663l2.142-1.992-.511-1.369 1.094-1.017 2.234 6.525-1.054.981-6.353-2.695 1.12-1.042 1.328.609zm1.09.498l2.374 1.085-.911-2.446-1.463 1.361zm-7.934 3.539a3.677 3.677 0 011.68-.63c.585-.054 1.14.04 1.663.281.522.25.957.633 1.305 1.151s.537 1.063.567 1.636a3.122 3.122 0 01-.368 1.646 3.649 3.649 0 01-1.221 1.33 3.65 3.65 0 01-1.386.584 2.967 2.967 0 01-1.388-.065l.295-1.239c.628.17 1.203.08 1.726-.271a2.08 2.08 0 00.721-.799c.16-.31.228-.641.202-.992a2.136 2.136 0 00-.373-1.007 2.136 2.136 0 00-.792-.726 1.888 1.888 0 00-.999-.196 2.126 2.126 0 00-1.007.373c-.523.351-.822.852-.898 1.503l-1.26-.195c.046-.471.2-.91.46-1.317a3.698 3.698 0 011.073-1.067zm28.273-41.239l-6.288-.384.088-1.446 5.103.31.172-2.838-5.102-.31.088-1.447 6.288.383-.349 5.731zm-1.466 7.554c-.132.542-.336.99-.613 1.342-.278.359-.61.605-.995.74-.384.135-.804.148-1.259.037a2.21 2.21 0 01-1.102-.61 2.155 2.155 0 01-.545-1.114c-.078-.439-.052-.93.08-1.472l.299-1.233-1.688-.41.344-1.417 6.123 1.487-.644 2.65zm-3.261-.875c-.103.425-.091.771.036 1.036.133.267.368.442.706.524.344.084.634.037.868-.141.241-.177.412-.477.516-.903l.28-1.154-2.125-.517-.281 1.155zm-5.13 8.047a3.719 3.719 0 011.074-1.473 3.193 3.193 0 011.547-.69 3.22 3.22 0 011.715.24c.57.237 1.025.587 1.366 1.048.344.469.545.999.604 1.589a3.702 3.702 0 01-.294 1.799 3.653 3.653 0 01-1.07 1.464 3.172 3.172 0 01-3.265.46 3.183 3.183 0 01-1.371-1.06 3.195 3.195 0 01-.596-1.586 3.648 3.648 0 01.29-1.79zm1.146.48a2.035 2.035 0 00-.156 1.026c.045.344.176.653.394.926.215.278.502.493.862.643.36.15.715.204 1.064.162.347-.037.656-.162.927-.374a1.97 1.97 0 00.629-.829c.144-.343.193-.687.148-1.03a1.839 1.839 0 00-.381-.93 2.139 2.139 0 00-.867-.636 2.13 2.13 0 00-1.06-.17 1.905 1.905 0 00-.938.378c-.271.212-.478.49-.622.833z" fill="#fff"/></g><defs><clipPath id="clip0"><path fill="#fff" d="M0 0h126v122H0z"/></clipPath><filter id="filter0_d" x="22.7" y="18.74" width="86.5" height="89.987" filterUnits="userSpaceOnUse" color-interpolation-filters="sRGB"><feFlood flood-opacity="0" result="BackgroundImageFix"/><feColorMatrix in="SourceAlpha" values="0 0 0 0 0 0 0 0 0 0 0 0 0 0 0 0 0 0 127 0" result="hardAlpha"/><feOffset/><feGaussianBlur stdDeviation="15"/><feColorMatrix values="0 0 0 0 0 0 0 0 0 0 0 0 0 0 0 0 0 0 1 0"/><feBlend in2="BackgroundImageFix" result="effect1_dropShadow"/><feBlend in="SourceGraphic" in2="effect1_dropShadow" result="shape"/></filter></defs></svg>