<svg width="54" height="28" fill="none" xmlns="http://www.w3.org/2000/svg"><circle cx="26" cy="14" r="9" stroke="#fff" stroke-opacity=".15" stroke-width="10"/><path d="M.5 23.096V5.384h5.712c1.92 0 3.352.408 4.296 1.224.944.8 1.416 1.96 1.416 3.48v.336c0 .912-.176 1.664-.528 2.256a3.604 3.604 0 01-1.464 1.344c.832.288 1.488.752 1.968 1.392.496.624.744 1.472.744 2.544v.336c0 1.536-.472 2.72-1.416 3.552-.944.832-2.376 1.248-4.296 1.248H.5zM6.62 7.448H2.852v5.736H6.62c.992 0 1.72-.264 2.184-.792.48-.544.72-1.232.72-2.064 0-.848-.24-1.536-.72-2.064-.464-.544-1.192-.816-2.184-.816zm.648 7.704H2.852v5.88h4.416c.944 0 1.672-.264 2.184-.792.528-.544.792-1.264.792-2.16 0-.912-.256-1.624-.768-2.136-.512-.528-1.248-.792-2.208-.792zm38.822 8.664c-1.456 0-2.696-.24-3.72-.72-1.023-.48-1.807-1.144-2.351-1.992-.544-.848-.816-1.808-.816-2.88h2.351c0 .528.136 1.056.408 1.584.288.528.76.968 1.416 1.32.672.352 1.577.528 2.712.528 1.056 0 1.92-.152 2.592-.456.672-.32 1.168-.728 1.488-1.224.32-.512.48-1.064.48-1.656 0-.72-.311-1.312-.935-1.776-.625-.48-1.537-.776-2.737-.888l-1.944-.168c-1.551-.128-2.791-.608-3.72-1.44-.928-.832-1.392-1.928-1.392-3.288 0-1.072.257-2.008.769-2.808.527-.8 1.255-1.424 2.183-1.872.928-.464 2.008-.696 3.24-.696 1.217 0 2.289.224 3.217.672.927.448 1.647 1.08 2.16 1.896.528.8.791 1.76.791 2.88h-2.351c0-.56-.136-1.088-.408-1.584-.257-.496-.665-.904-1.225-1.224-.56-.32-1.288-.48-2.184-.48-.863 0-1.583.152-2.16.456-.56.304-.983.704-1.272 1.2-.272.48-.407 1-.407 1.56 0 .64.248 1.208.744 1.704.495.496 1.232.784 2.208.864l1.944.168c1.791.16 3.208.656 4.248 1.488 1.056.816 1.584 1.928 1.584 3.336 0 1.072-.288 2.024-.864 2.856-.577.832-1.385 1.48-2.425 1.944-1.04.464-2.247.696-3.623.696z" fill="#fff"/><circle opacity=".6" cx="26" cy="14" r="8" stroke="#fff" stroke-width="2"/></svg>