<svg width="89" height="28" fill="none" xmlns="http://www.w3.org/2000/svg"><circle cx="41" cy="14" r="9" stroke="#fff" stroke-opacity=".15" stroke-width="10"/><path d="M0 23.096V5.384h5.712c1.92 0 3.352.408 4.296 1.224.944.8 1.416 1.96 1.416 3.48v.336c0 .912-.176 1.664-.528 2.256a3.604 3.604 0 01-1.464 1.344c.832.288 1.488.752 1.968 1.392.496.624.744 1.472.744 2.544v.336c0 1.536-.472 2.72-1.416 3.552-.944.832-2.376 1.248-4.296 1.248H0zM6.12 7.448H2.352v5.736H6.12c.992 0 1.72-.264 2.184-.792.48-.544.72-1.232.72-2.064 0-.848-.24-1.536-.72-2.064-.464-.544-1.192-.816-2.184-.816zm.648 7.704H2.352v5.88h4.416c.944 0 1.672-.264 2.184-.792.528-.544.792-1.264.792-2.16 0-.912-.256-1.624-.768-2.136-.512-.528-1.248-.792-2.208-.792zM16.313 23V5.384h5.736c1.28 0 2.4.192 3.36.576.96.384 1.704.976 2.232 1.776.528.8.792 1.832.792 3.096v.384c0 1.376-.32 2.48-.96 3.312-.624.816-1.48 1.4-2.569 1.752L29.992 23h-2.855l-4.729-6.336h-3.743V23h-2.352zM22.48 7.448h-3.817v7.128h3.816c1.088 0 1.953-.336 2.593-1.008.64-.672.96-1.52.96-2.544 0-1.04-.32-1.896-.96-2.568-.64-.672-1.505-1.008-2.593-1.008zM53.602 23V5.48h3.12l5.184 11.688h.384L67.45 5.48h3.144V23h-2.352V8.48l-4.8 10.896h-2.88l-4.8-10.848V23h-2.16zm27.766.432c-1.456 0-2.696-.24-3.72-.72s-1.808-1.144-2.352-1.992c-.544-.848-.816-1.808-.816-2.88h2.352c0 .528.136 1.056.408 1.584.288.528.76.968 1.416 1.32.672.352 1.576.528 2.712.528 1.056 0 1.92-.152 2.592-.456.672-.32 1.168-.728 1.488-1.224.32-.512.48-1.064.48-1.656 0-.72-.312-1.312-.936-1.776-.624-.48-1.536-.776-2.736-.888l-1.944-.168c-1.552-.128-2.792-.608-3.72-1.44-.928-.832-1.392-1.928-1.392-3.288 0-1.072.256-2.008.768-2.808.528-.8 1.256-1.424 2.184-1.872C79.08 5.232 80.16 5 81.392 5c1.216 0 2.288.224 3.216.672.928.448 1.648 1.08 2.16 1.896.528.8.792 1.76.792 2.88h-2.352c0-.56-.136-1.088-.408-1.584-.256-.496-.664-.904-1.224-1.224-.56-.32-1.288-.48-2.184-.48-.864 0-1.584.152-2.16.456-.56.304-.984.704-1.272 1.2-.272.48-.408 1-.408 1.56 0 .64.248 1.208.744 1.704s1.232.784 2.208.864l1.944.168c1.792.16 3.208.656 4.248 1.488 1.056.816 1.584 1.928 1.584 3.336 0 1.072-.288 2.024-.864 2.856-.576.832-1.384 1.48-2.424 1.944-1.04.464-2.248.696-3.624.696z" fill="#fff"/><circle opacity=".6" cx="41" cy="14" r="8" stroke="#fff" stroke-width="2"/></svg>