<svg width="35" height="24" viewBox="0 0 35 24" fill="none" xmlns="http://www.w3.org/2000/svg">
<path d="M0 23.6923V23.3846H1.29177C1.59933 23.3846 1.86589 23.3436 2.09144 23.2615C2.33749 23.159 2.52203 22.9641 2.64505 22.6769C2.78858 22.3897 2.86035 21.959 2.86035 21.3846V3.90769C2.86035 3.35385 2.78858 2.94359 2.64505 2.67692C2.50152 2.41026 2.30673 2.2359 2.06068 2.15385C1.83513 2.07179 1.57883 2.03077 1.29177 2.03077H0V1.72308H10.1496C12.4256 1.72308 14.3735 2.12308 15.9933 2.92308C17.6132 3.70256 18.8537 4.88205 19.7149 6.46154C20.5966 8.02051 21.0374 9.96923 21.0374 12.3077C21.0374 14.5436 20.6273 16.5231 19.8071 18.2462C18.987 19.9487 17.767 21.2821 16.1471 22.2462C14.5478 23.2103 12.5486 23.6923 10.1496 23.6923H0ZM9.44223 23.3846C10.98 23.3846 12.2206 23.0154 13.1638 22.2769C14.107 21.5385 14.7836 20.359 15.1937 18.7385C15.6243 17.0974 15.8396 14.9436 15.8396 12.2769C15.8396 9.8359 15.6243 7.86667 15.1937 6.36923C14.7836 4.85128 14.107 3.75385 13.1638 3.07692C12.2411 2.37949 11.0108 2.03077 9.47298 2.03077H7.71987V23.3846H9.44223Z" fill="white"/>
<path d="M23.2396 23.6923V23.3846H23.6087C23.9163 23.3846 24.2341 23.3436 24.5621 23.2615C24.9107 23.159 25.1978 22.9641 25.4233 22.6769C25.6694 22.3897 25.7924 21.959 25.7924 21.3846V9.38461C25.7924 8.83077 25.6694 8.42051 25.4233 8.15385C25.1773 7.88718 24.88 7.71282 24.5314 7.63077C24.2033 7.54872 23.8957 7.50769 23.6087 7.50769H23.2396V7.2H30.4674V21.3846C30.4674 21.959 30.5801 22.3897 30.8057 22.6769C31.0517 22.9641 31.3491 23.159 31.6976 23.2615C32.0462 23.3436 32.364 23.3846 32.6511 23.3846H33.0202V23.6923H23.2396ZM27.9761 4.43077C27.3815 4.43077 26.8689 4.25641 26.4383 3.90769C26.0282 3.53846 25.8232 2.97436 25.8232 2.21539C25.8232 1.4359 26.0384 0.871795 26.469 0.523077C26.8996 0.174359 27.4122 0 28.0069 0C28.581 0 29.0833 0.174359 29.5139 0.523077C29.9445 0.871795 30.1598 1.4359 30.1598 2.21539C30.1598 2.97436 29.9445 3.53846 29.5139 3.90769C29.0833 4.25641 28.5707 4.43077 27.9761 4.43077Z" fill="white"/>
</svg>
