<svg width="14" height="14" fill="none" xmlns="http://www.w3.org/2000/svg"><path d="M12.425 12.25c.525-.438 1.575-1.4 1.575-2.8 0-1.225-1.05-2.275-2.45-2.887.438-.526.7-1.313.7-2.1C12.25 2.013 9.713 0 6.475 0 3.413 0 0 1.837 0 4.463 0 6.3 1.4 7.613 2.013 8.136c-.088 1.05-.525 1.488-.525 1.488l-1.05.875H1.75a5.81 5.81 0 002.625-.613c.263 1.663 2.188 2.976 4.637 2.976h.438C9.975 13.3 11.025 14 12.513 14h1.225l-.963-.787s-.263-.263-.35-.963zm-3.413-.262C7 11.988 5.25 10.85 5.25 9.538v-.175c.175-.175.35-.263.438-.438H6.3c1.837 0 3.5-.613 4.55-1.663 1.313.438 2.275 1.313 2.275 2.188 0 .875-.787 1.75-1.488 2.188l-.262.175v.262c0 .438.175.7.262.963-.875-.175-1.487-.613-1.662-.876l-.088-.175h-.875zM6.475.875c2.713 0 4.9 1.663 4.9 3.588S9.1 8.05 6.3 8.05h-.962l-.088.175c-.263.35-1.313 1.05-2.712 1.313.087-.35.087-.876.087-1.575V7.7C1.75 7 .788 5.775.788 4.55c0-1.925 2.8-3.675 5.687-3.675z" fill="#F73425"/></svg>