<svg width="30" height="40" fill="none" xmlns="http://www.w3.org/2000/svg"><path d="M15 9.404c-1.091 0-2.159.32-3.066.922A5.482 5.482 0 009.9 12.781c-.418 1-.527 2.1-.314 3.162a5.456 5.456 0 001.51 2.801 5.535 5.535 0 002.827 1.497c1.07.212 2.18.103 3.189-.31a5.51 5.51 0 002.477-2.016c.607-.9.93-1.958.93-3.04a5.453 5.453 0 00-1.618-3.867A5.551 5.551 0 0015 9.404zm0 8.207c-.545 0-1.08-.16-1.533-.461a2.741 2.741 0 01-1.017-1.228 2.713 2.713 0 01.599-2.981 2.784 2.784 0 013.008-.593c.504.207.935.558 1.238 1.007a2.719 2.719 0 01-.344 3.454 2.775 2.775 0 01-1.95.802z" fill="#F73425"/><path d="M25.606 4.354A15.062 15.062 0 0015.78.02a15.089 15.089 0 00-10.227 3.3 14.84 14.84 0 00-5.37 9.237 14.762 14.762 0 002.249 10.425L12.859 38.85c.232.353.55.643.923.844a2.573 2.573 0 003.358-.844l10.428-15.868a14.766 14.766 0 00-1.962-18.628zm-.35 17.135L14.999 37.095 4.743 21.489c-3.14-4.777-2.466-11.17 1.6-15.201a12.248 12.248 0 013.972-2.63 12.335 12.335 0 019.369 0 12.25 12.25 0 013.97 2.63c4.068 4.031 4.741 10.424 1.602 15.201z" fill="#F73425"/></svg>