<svg width="30" height="40" fill="none" xmlns="http://www.w3.org/2000/svg"><path d="M5.502.932L7.79.233a5.317 5.317 0 013.793.26 5.434 5.434 0 012.681 2.736l1.769 3.993a5.55 5.55 0 01.368 3.326 5.496 5.496 0 01-1.61 2.922l-2.928 2.773a.5.5 0 00-.153.308c-.087.79.44 2.33 1.656 4.47.885 1.554 1.687 2.646 2.367 3.258.474.427.735.52.847.487l3.94-1.224a5.315 5.315 0 013.296.046 5.398 5.398 0 012.654 1.984l2.511 3.536a5.535 5.535 0 01-.665 7.175l-1.737 1.672a7.321 7.321 0 01-3.287 1.826 7.246 7.246 0 01-3.745-.056c-5.4-1.53-10.241-6.157-14.578-13.782C.626 18.307-.897 11.73.506 6.21a7.496 7.496 0 011.817-3.304A7.335 7.335 0 015.503.932zm.85 2.86a4.401 4.401 0 00-1.908 1.184 4.498 4.498 0 00-1.09 1.981C2.172 11.6 3.523 17.43 7.515 24.45c3.986 7.01 8.278 11.11 12.823 12.4a4.348 4.348 0 002.246.033 4.394 4.394 0 001.971-1.095l1.74-1.672a2.515 2.515 0 00.302-3.262l-2.51-3.534a2.454 2.454 0 00-1.207-.903 2.415 2.415 0 00-1.5-.02l-3.95 1.228c-2.294.692-4.376-1.18-6.612-5.112-1.505-2.647-2.207-4.698-2.033-6.292a3.51 3.51 0 011.07-2.162l2.93-2.773c.375-.354.63-.818.732-1.328a2.522 2.522 0 00-.167-1.512l-1.769-3.993a2.47 2.47 0 00-1.218-1.243 2.417 2.417 0 00-1.723-.119l-2.29.701z" fill="#F73425"/></svg>