<svg width="14" height="10" fill="none" xmlns="http://www.w3.org/2000/svg"><path d="M13.973 4.845a7.618 7.618 0 00-2.741-3.44A7.926 7.926 0 007 0a7.926 7.926 0 00-4.23 1.405 7.618 7.618 0 00-2.742 3.44.443.443 0 000 .31 7.618 7.618 0 002.741 3.44A7.926 7.926 0 007 10a7.926 7.926 0 004.232-1.405 7.618 7.618 0 002.74-3.44.443.443 0 000-.31zM7 9.091C4.527 9.09 1.914 7.305.966 5 1.914 2.695 4.527.91 7 .91c2.474 0 5.087 1.785 6.035 4.09C12.087 7.305 9.474 9.09 7 9.09z" fill="#F73425"/><path d="M7 2.273c-.554 0-1.095.16-1.555.46-.46.299-.82.725-1.032 1.223a2.661 2.661 0 00-.159 1.576c.108.53.375 1.015.766 1.396.392.382.89.642 1.434.747a2.87 2.87 0 001.618-.155 2.786 2.786 0 001.256-1.005 2.672 2.672 0 00-.348-3.444A2.838 2.838 0 007 2.273zm0 4.545a1.9 1.9 0 01-1.037-.306 1.83 1.83 0 01-.687-.816 1.774 1.774 0 01-.107-1.05 1.81 1.81 0 01.511-.932c.261-.254.594-.427.956-.497s.738-.034 1.079.103c.34.138.632.37.837.67a1.785 1.785 0 01-.232 2.296c-.35.34-.825.532-1.32.532z" fill="#F73425"/></svg>