<svg width="200" height="166" fill="none" xmlns="http://www.w3.org/2000/svg"><path opacity=".05" d="M181.25 83H150V59.286c0-13.08 11.211-23.715 25-23.715h3.125c5.195 0 9.375-3.964 9.375-8.892V8.893c0-4.928-4.18-8.893-9.375-8.893H175c-34.531 0-62.5 26.53-62.5 59.286v88.928c0 9.819 8.398 17.786 18.75 17.786h50c10.352 0 18.75-7.967 18.75-17.786v-47.428C200 90.966 191.602 83 181.25 83zm-112.5 0H37.5V59.286c0-13.08 11.21-23.715 25-23.715h3.125c5.195 0 9.375-3.964 9.375-8.892V8.893C75 3.965 70.82 0 65.625 0H62.5C27.969 0 0 26.53 0 59.286v88.928C0 158.033 8.398 166 18.75 166h50c10.352 0 18.75-7.967 18.75-17.786v-47.428C87.5 90.966 79.102 83 68.75 83z" fill="#000C23"/></svg>