<svg width="18" height="15" fill="none" xmlns="http://www.w3.org/2000/svg"><path d="M16.15 3.738c.013.165.013.328.013.492C16.163 9.234 12.45 15 5.666 15c-2.09 0-4.032-.621-5.666-1.7.297.035.583.047.891.047a7.273 7.273 0 004.58-1.617 3.636 3.636 0 01-2.134-.746 3.791 3.791 0 01-1.316-1.879c.229.035.458.058.698.058.33 0 .663-.047.971-.128A3.673 3.673 0 011.564 7.72a3.846 3.846 0 01-.832-2.4v-.047a3.652 3.652 0 001.667.48A3.747 3.747 0 011.19 4.389a3.858 3.858 0 01-.436-1.788c0-.703.182-1.347.502-1.91a10.55 10.55 0 003.394 2.81 10.287 10.287 0 004.214 1.152 4.408 4.408 0 01-.092-.868c0-.497.095-.99.28-1.449.186-.459.457-.876.8-1.228.343-.351.75-.63 1.197-.82a3.636 3.636 0 014.108.908A7.177 7.177 0 0017.498.28a3.762 3.762 0 01-1.622 2.086A7.247 7.247 0 0018 1.781a8.034 8.034 0 01-1.85 1.957z" fill="#fff"/></svg>