<svg width="467" height="793" fill="none" xmlns="http://www.w3.org/2000/svg"><path opacity=".5" d="M294 530c31.2-2.4 65 47 78 72-14.333 4.667-52.2 14-89 14s-60-9.333-67-14c-2.334 2-3.2-2 12-34 19-40 27-35 66-38zm80-153c-20 4-34.333 29-39 41h55c12.8 0 39.333-8.667 51-13-14-11-47-32-67-28zm-88-262c17 32 26 56 26 66h-61c-25 0-10 5-62-8s-3-21-9-35-27-17-15-51 20 0 36 0 20-2 50-16 18 12 35 44zM37 356c0 35.2 26.666 94 40 119-18.667 11.667-56 43-56 75 0 40-3 56 34 83s17-114 22-83c4 24.8 59.666 69 87 88 3.333-17.667 8-58.6 0-81-10-28-80-64-71-62s22 11 61 24 28-5 20-32c-6.4-21.6-52.667-23.667-75-22 9.333-23.667 28.2-77 29-101 .8-24-8.334-99.333-13-134-4 4-15.8 16-31 32-19 20-47 50-47 94z" fill="#D2DFE6"/><path d="M405.607 412.184c4.021.619 21.529 3.9 33.407-2.786 11.879-6.685 20.109-17.642 25.986-20.428-4.64 8.048-17.632 24.885-32.48 27.857-18.561 3.714-30.625 0-55.682 0-20.045 0-36.812 3.714-42.689 5.571 6.496-7.738 22.191-14.757 37.121-13 15.775 1.857 28.769 2.786 34.337 2.786zm0 0c8.971-3.714 26.913-15.228 26.913-31.571 0-20.428-2.785-61.285-43.618-61.285s-117.859 19.5-111.363 61.285c6.497 41.785 66.818 73.356 56.61 96.57-10.209 23.214-38.977 24.143-41.761 6.5-2.784-17.642 8.351-25.071 14.848-13 8.407 15.619-13.92 28.786-29.697 27.857-15.776-.928-32.481-1.857-31.553-14.857.928-13 14.849-14.373 19.489 0 4.64 14.373-5.568 26.928-27.841 22.286-22.272-4.643-22.733-45.725 12.993-39.928 34.335 5.571 27.67 32.464 32.861 58.499m0 0c.427 2.143-2.235 14.857 3.332 25.071 5.568 10.214 17.632 8.543 47.329 24.143 29.697 15.599 40.833 20.118 42.689 22.285-5.259-19.19-24.128-45.499-44.545-60.356-21.492-15.64-30.793-12.072-48.805-11.143zm0 0c-6.623-1.857-21.724 0-37.502 11.143-11.588 8.184-26.293 46.428-35.264 65.927 18.869-12.071 52.898-34.356 81.666-36.213 28.783-1.859 60.94 24.142 78.882 36.213-12.374 7.738-38.977 19.5-78.882 26-45.945 7.484-77.026-13-77.026-13s70.468-52.655 98.371-30.642c48.257 38.071-29.851 54.109-33.409 74.285-5.568 31.571 55.586 20.428 41.761 64.999-8.352 26.928-53.825 9.506-111.363 24.142-37.582 9.561-38.977 22.695-59.394 12.072-23.2-12.072-69.602-114.213-72.386-144.856-2.227-24.514-.928-65.928 0-83.57-12.992 2.785-39.348 19.685-40.833 64.999-1.485 45.314 0 116.999 0 116.999s17.447-19.5 12.993-60.357c-5.568-51.071-14.85-148.569 27.84-168.998 42.69-20.428 76.099-27.857 96.515-6.5 16.333 17.086 24.747 24.452 26.913 26-1.856 9.595-13.735 27.3-46.401 21.357-32.667-5.943-70.53-21.357-70.53-21.357s5.011-7.8 36.193-13c38.977-6.5 33.6 7.72 45.473 13 8.352 3.714 19.798 0 23.201 0M22.333 791.037c23.82-21.357 71.83-71.499 73.314-101.213 1.856-37.143-32.762-37.503-25.057-119.785 2.783-29.714 38.05-81.49 67.747-59.428 29.696 22.063 22.272 28.786 37.12 73.357 11.879 35.656 28.459 60.666 35.265 68.713-21.035 6.191-61.144 4.17-89.09-28.785-25.985-30.643-41.253-92.104-25.477-92.104 15.777 0 37.121 16.714 51.042 37.142 11.136 16.343 23.311 43.2 28.26 54.962-11.755-3.405-37.121-16.157-44.545-39.928-9.28-29.714-26.537-73.357-51.97-69.642-25.433 3.714-58.465 8.357-40.833-11.143 17.84-19.73 42.953-6.5 57.538-19.5 14.585-13 18.561-47.356 9.28-90.07-7.424-34.171-3.093-84.19 0-104.927-1.856 12.38-3.341 41.413 5.568 58.499 11.137 21.357 23.066 36.214 11.137 58.499-11.93 22.286-28.77 80.785-42.69 64.999-13.92-15.785-48.257-188.497-8.352-222.854 31.924-27.486 64.034-34.357 76.098-34.357-8.971 1.548-25.799 10.029-21.344 31.571 5.568 26.928 39.904 71.499 25.984 124.427-13.92 52.928-73.313 79.856-80.738 133.713-7.424 53.856-41.448 35.138-72.386 77.999-24.13 33.428-24.128 64.999 0 121.641 19.303 45.314 24.13 77.69 24.13 88.214z" stroke="#868C96"/><path d="M308.134 157.671c1.499-9.731 2.255-36.131-6.708-63.878-11.204-34.683-56.372-60.477-73.156-53.91-16.783 6.566-3.807 12.896-.523 28.311 3.284 15.416-12.871 18.456-9.044 27.844 3.826 9.388 32.741 6.425 46.166 11.238 10.739 3.85 30.699 36.623 39.337 52.529-5.637-13.501-20.152-44.603-33.126-60.999-16.217-20.494-42.979-27.618-80.502-27.625-37.524-.007-54.787 36.122-51.856 48.544 2.93 12.423 33.629 10.402 40.04 22.208 6.412 11.807-7.571 27.044-2.098 40.634 5.472 13.59 25.348-4.848 53.065-13.53 27.717-8.682 34.56 15.629 56.42 18.409 21.859 2.78 15.801-6.033-4.542-8.362-20.343-2.33-119.048 7.957-113.926 54.861 6.457 59.129 49.599 52.689 91.601 37.524 33.602-12.133 44.929-51.153 46.392-69.146-3.501 4.873-14.645 21.575-33.764 29.164-13.079 5.192-25.669-.387-45.173 17.525-28.853 26.498 35.77 50.644 67.216 19.553 23.066-22.805 14.273-79.924 20.463-102.839 4.436-16.423 18.171-9.868 15.518 7.497-2.652 17.365-70.62 341.077-184.669 261.222-40.847-28.601 16.908-117.634 54.755-74.263 44.56 51.066-58.107 81.38-92.807 110.464m200.921-312.975c8.05-3.522 22.561-14.798 28.853-26.498 8.227-15.296 5.338-26.738 1.549-27.594-5.799-1.31-5.301 5.851-4.471 8.161m-25.931 45.931c9.624-1.404 28.78-9.896 40.71-16.375 12.277-6.667 18.39-13.171 16.352-19.071-2.224-6.437-7.539-1.002-8.211 1.274" stroke="#868C96"/></svg>