<svg width="398" height="743" fill="none" xmlns="http://www.w3.org/2000/svg"><circle opacity=".5" cx="363.5" cy="226.5" r="15.5" fill="#D2DFE6"/><path opacity=".5" d="M295 289c-5.6-19.2-65-50.667-94-64-6.666 21.333-18.4 70.6-12 97 8 33 55 36 73 46 14.4 8 10.667 33.333 7 45 11-33.333 31.6-104.8 26-124zm-176-18c2.4 4-17.666 33-28 47-9.666 10.667-30.8 32.4-38 34-9 2-14 1-20-9-4.8-8 11.334-23.333 20-30-6.666 1.667-23 4-35 0-15-5-8-5-9-18s9-7 24-12c12-4 18.334 6.333 20 12v-17c0-6.4 6-13.333 9-16 2.667 5.333 9.6 16 16 16 8 0 13-13 28-16s10 4 13 9zm98-123c-6-18-19-27 0-36s24.999-33 33.999-14c2.591 5.471 6.177 9.946 9.613 14-2.538-4.667-3.813-12.6 11.387-7 19 7 31 19 31 31s-3 31-11 35-20.612 11-26 11c-5.387 0-2 3 6 16s11.388 40 0 41c-11.387 1-23 8-39-5C217 221 210 214 217 203c5.599-8.8 8.999-21 9.999-26-5 13.667-17 39-25 31-10-10-21-25-30-31s-49-17-15-29S180 136 195 148c12 9.6 19.666 4 22 0z" fill="#D2DFE6"/><ellipse opacity=".5" cx="314.5" cy="486" rx="47.5" ry="25" fill="#D2DFE6"/><path d="M202.253 234.145c-1.084 8.852 2.275 32.953 11.375 58.536 11.375 31.978 27.084 44.444 43.876 63.414 13.434 15.176 16.972 21.861 15.708 33.062m-70.959-155.012c1.263 3.794 20.042 10.731 39.543 18.97 24.375 10.298 23.833 22.222 44.417 60.162 16.467 30.352-.903 56.729-13.001 75.88m-70.959-155.012c12.097 9.394 34.233 40.108 39.543 71.544 5.31 31.436 34.125 30.352 33.584 50.406-.434 16.043-.723 22.222-2.168 33.062" stroke="#868C96"/><path d="M312.583 312.694l-.5.004.5-.004zm-14.669 47.466l.419.272-.419-.272zm-5.241 66.01l-.301-.399.301.399zm16.006-16.694l.471-.17-.471.17zm1.574 11.652l-.074.495.074-.495zm28.661-4.943l.099.49-.099-.49zm7.115 17.736l-.279-.415.279.415zm-30.828 2.982l.348.359-.348-.359zm3.279 20.868l-.209.454.209-.454zm22.442 2.388l-.249.434.249-.434zm-9.279 16.583l.082-.494-.082.494zm-30.85 0l.115.486-.036.007-.079-.493zm-30.831 17.563l.339-.367-.339.367zm22.711-227.64l.34-.366-.34.366zm-94.212-46.071l-.455-.207a.5.5 0 01.793-.161l-.338.368zm-14.626 69.377l.499-.039-.499.039zm76.236 79.674l.046.498-.046-.498zm2.308 116.53l-.43.256.43-.256zm50.704-173.484c.082 11.914-.93 19.737-3.316 26.654-2.382 6.909-6.124 12.881-11.434 21.087l-.839-.544c5.317-8.218 8.992-14.093 11.328-20.869 2.334-6.767 3.343-14.464 3.261-26.321l1-.007zm-14.75 47.741c-5.238 8.096-11.875 18.436-17.202 28.035-2.664 4.799-4.994 9.404-6.658 13.443-1.67 4.054-2.643 7.483-2.643 9.951h-1c0-2.676 1.041-6.258 2.719-10.332 1.684-4.089 4.035-8.732 6.708-13.548 5.345-9.632 12-19.999 17.237-28.093l.839.544zm-26.503 51.429c0 13.816 13.811 18.987 20.542 13.91l.602.799c-7.498 5.655-22.144-.208-22.144-14.709h1zm20.542 13.91c1.931-1.457 4.035-2.873 6.053-4.255 2.025-1.387 3.964-2.74 5.595-4.088 1.636-1.352 2.928-2.67 3.686-3.976.749-1.29.962-2.537.503-3.806l.941-.34c.584 1.615.278 3.172-.579 4.648-.848 1.46-2.248 2.869-3.914 4.245-1.671 1.38-3.644 2.757-5.667 4.142-2.029 1.39-4.108 2.789-6.016 4.229l-.602-.799zm15.837-16.125c-2.204-6.096-11.458-6.974-15.092.059l-.889-.459c3.983-7.708 14.383-6.961 16.922.06l-.941.34zm-15.092.059c-.442.855-.6 1.622-.553 2.314.046.691.299 1.342.733 1.961.879 1.252 2.482 2.34 4.479 3.261 3.983 1.838 9.272 2.9 12.552 3.393l-.149.989c-3.302-.496-8.706-1.575-12.822-3.474-2.051-.946-3.847-2.126-4.879-3.595-.521-.742-.852-1.566-.912-2.469-.061-.902.152-1.85.662-2.839l.889.459zm17.211 10.929c5.044.758 10.077-.048 14.905-1.265 2.414-.608 4.763-1.316 7.039-1.979 2.269-.662 4.464-1.279 6.544-1.695l.197.98c-2.034.408-4.192 1.013-6.462 1.675-2.263.66-4.637 1.374-7.074 1.989-4.875 1.229-10.059 2.071-15.298 1.284l.149-.989zm28.488-4.939c2.753-.552 5.04.065 6.798 1.395 1.746 1.32 2.937 3.316 3.581 5.481.643 2.165.75 4.535.29 6.643-.459 2.105-1.495 3.994-3.178 5.123l-.557-.831c1.406-.943 2.335-2.568 2.758-4.505.422-1.934.327-4.133-.272-6.145-.598-2.014-1.689-3.807-3.225-4.968-1.522-1.152-3.516-1.71-5.998-1.213l-.197-.98zm7.491 18.642c-1.896 1.271-4.518 1.76-7.381 1.891-2.874.132-6.074-.094-9.168-.317-3.111-.225-6.11-.445-8.638-.316-2.553.129-4.482.612-5.571 1.667l-.696-.719c1.373-1.33 3.639-1.816 6.216-1.947 2.603-.132 5.67.094 8.761.317 3.107.224 6.246.445 9.05.316 2.815-.129 5.209-.609 6.87-1.723l.557.831zm-30.758 2.925c-2.579 2.497-3.327 6.797-2.616 10.906.712 4.117 2.848 7.811 5.756 9.149l-.418.908c-3.336-1.534-5.584-5.616-6.323-9.886-.741-4.277-.007-8.976 2.905-11.796l.696.719zm3.14 20.055c3.76 1.729 6.626.896 10.013.294 1.687-.3 3.489-.535 5.532-.309 2.047.227 4.311.914 6.937 2.424l-.498.867c-2.519-1.448-4.652-2.086-6.549-2.297-1.901-.21-3.592.005-5.247.299-3.295.586-6.505 1.517-10.606-.37l.418-.908zm22.482 2.409c2.341 1.345 10.05 5.586 17.094 9.731 3.525 2.075 6.899 4.134 9.369 5.806 1.232.835 2.254 1.583 2.958 2.193.35.304.639.588.838.844.099.128.188.264.249.405a.891.891 0 01.068.522l-.981-.196c-.014.073.009.104-.007.067a.897.897 0 00-.119-.185c-.139-.179-.372-.414-.703-.701-.659-.571-1.641-1.292-2.864-2.121-2.443-1.654-5.794-3.7-9.315-5.772-7.046-4.147-14.71-8.361-17.085-9.726l.498-.867zm30.576 19.501c-.079.393-.315.734-.61 1.02-.298.289-.686.552-1.128.789-.885.475-2.051.878-3.327 1.171-2.545.586-5.646.762-8.016.115l.263-.965c2.155.589 5.077.44 7.528-.124 1.222-.281 2.297-.658 3.079-1.078.392-.21.694-.422.904-.626.213-.206.302-.375.326-.498l.981.196zm-13.081 3.095c-4.493-1.228-24.135-4.591-27.106-5.087l.165-.987c2.937.491 22.648 3.865 27.204 5.109l-.263.965zm-27.106-5.087c-2.429-.406-8.362-.817-14.579-.92-6.228-.103-12.646.106-16.073.913l-.23-.973c3.566-.84 10.104-1.043 16.319-.94 6.226.103 12.221.515 14.728.933l-.165.987zm-23.138 6.834c9.414 0 33.773-.413 41.195 0l-.056.999c-7.385-.411-31.67.001-41.139.001v-1zm41.195 0c3.723.208 8.957.807 13.369 1.666 2.205.429 4.222.926 5.749 1.478.762.276 1.421.572 1.925.89.487.308.912.688 1.071 1.167l-.949.315c-.047-.139-.222-.362-.656-.637-.418-.264-1.002-.531-1.731-.794-1.456-.527-3.416-1.012-5.6-1.438-4.364-.849-9.552-1.443-13.234-1.648l.056-.999zm22.114 5.201a.935.935 0 01-.014.59 1.979 1.979 0 01-.256.495c-.217.317-.549.674-.965 1.058-.838.772-2.089 1.72-3.666 2.776-3.158 2.113-7.673 4.69-12.92 7.186-10.479 4.986-23.96 9.69-35.43 9.69v-1c11.247 0 24.565-4.628 35.001-9.593 5.21-2.479 9.682-5.033 12.793-7.115 1.557-1.042 2.761-1.957 3.544-2.679.393-.363.663-.661.818-.888.078-.114.115-.193.13-.239.016-.047-.004-.024.016.034l.949-.315zm-53.251 21.795c-17.737 0-33.262-2.018-48.857-16.392l.678-.735c15.323 14.124 30.542 16.127 48.179 16.127v1zm-6.397-198.367c-.153-22.102-8.594-35.28-19.751-45.667l.681-.732c11.323 10.541 19.915 23.969 20.07 46.392l-1 .007zm-19.751-45.667c-4.217-3.927-10.146-6.912-17.227-9.644-7.084-2.734-15.249-5.189-23.943-8.094-17.358-5.799-36.707-13.35-53.039-28.33l.676-.737c16.168 14.83 35.346 22.328 52.68 28.119 8.652 2.89 16.874 5.364 23.986 8.109 7.113 2.745 13.187 5.785 17.548 9.845l-.681.732zm-93.416-46.229c-2.782 6.113-6.863 17.905-10.031 30.931-3.17 13.032-5.412 27.239-4.551 38.199l-.997.078c-.873-11.121 1.399-25.453 4.576-38.514 3.179-13.067 7.277-24.923 10.093-31.109l.91.415zm-14.582 69.13c1.075 13.7 8.215 34.612 21.008 51.551 12.788 16.932 31.155 29.811 54.684 27.664l.091.996c-23.999 2.189-42.666-10.968-55.573-28.057-12.901-17.082-20.116-38.175-21.207-52.076l.997-.078zm75.692 79.215c2.1-.191 3.81.145 5.184.946 1.374.801 2.363 2.039 3.072 3.565 1.406 3.025 1.753 7.282 1.782 11.871.015 2.305-.051 4.719-.112 7.129-.061 2.413-.117 4.824-.084 7.141.067 4.652.496 8.843 1.915 11.848l-.905.427c-1.518-3.217-1.943-7.6-2.01-12.26-.033-2.34.023-4.77.084-7.182.062-2.415.127-4.811.112-7.097-.029-4.593-.384-8.649-1.689-11.456-.646-1.39-1.513-2.448-2.669-3.122-1.154-.674-2.646-.991-4.589-.814l-.091-.996zm40.767 107.595l.078.493-.001.001-.006.001-.023.003-.089.014-.348.055-1.316.204c-1.13.174-2.739.417-4.654.695-3.83.557-8.885 1.255-13.784 1.82-4.893.565-9.65 1-12.875 1.024-1.589.012-2.884-.073-3.632-.33a1.768 1.768 0 01-.536-.28.892.892 0 01-.339-.565.948.948 0 01.151-.643c.108-.174.264-.336.443-.487l.644.765a1.147 1.147 0 00-.236.248c-.03.049-.004.031-.013-.029-.01-.065-.045-.086-.021-.066a.816.816 0 00.233.111c.563.194 1.693.288 3.299.276 3.166-.024 7.876-.453 12.767-1.017 4.886-.564 9.93-1.26 13.755-1.817a622.166 622.166 0 006.306-.951l.088-.014.023-.004.005-.001h.002l.079.494zm-36.931 2.005c2.539-2.138 9.278-7.487 16.266-12.305 3.494-2.408 7.061-4.691 10.202-6.373 1.57-.841 3.043-1.537 4.352-2.024 1.302-.483 2.479-.774 3.447-.774v1c-.792 0-1.838.243-3.098.712-1.253.465-2.682 1.139-4.229 1.967-3.094 1.657-6.626 3.916-10.106 6.315-6.959 4.798-13.672 10.128-16.19 12.247l-.644-.765zm34.267-21.476c3.64 0 6.223 1.183 8.495 2.258 2.286 1.083 4.191 2.013 6.621 1.759l.104.995c-2.754.288-4.912-.789-7.153-1.85-2.255-1.067-4.665-2.162-8.067-2.162v-1zm10.293 27.798c-4.759 0-16.619-.28-27.169-.219-5.265.031-10.171.146-13.654.423-1.747.139-3.108.316-3.973.536-.444.112-.696.222-.806.303-.052.038-.023.034-.003-.028a.221.221 0 00-.009-.165l-.859.512a.789.789 0 01-.084-.653.964.964 0 01.364-.473c.275-.202.688-.348 1.152-.466.951-.241 2.384-.423 4.139-.563 3.522-.28 8.459-.395 13.727-.426 10.517-.061 22.491.219 27.175.219v1zm-38.799 9.604c-3.151-2.904-5.401-4.431-7.674-8.242l.859-.512c2.176 3.649 4.26 5.038 7.493 8.019l-.678.735z" fill="#868C96"/><path d="M191.764 428.723c0 6.504-3.439 34.924 11.375 53.116 9.737 11.957 19.514 23.794 29.43 34.688m-40.805-87.804c2.057-9.575 9.634-28.943 23.488-29.81 13.854-.867 45.496 2.53 59.585 4.336m-83.073 25.474h23.488c18.417 0 14.084 10.298 38.459 8.13 19.501-1.734 22.209-23.125 21.126-33.604m-83.073 25.474c8.19-17.524 22.513-56.368 14.28-71.544-10.292-18.97-35.751-22.764-48.752-37.94-10.4-12.141-21.306-24.209-25.459-28.726-3.791 7.407-9.1 30.135 0 61.788 9.101 31.653 43.746 64.137 59.931 76.422zm0 0c5.301 8.672 9.404 29.919-16.596 45.528-26.001 15.61-57.418 34.688-69.877 42.276-.18-3.071-1.083-13.55-3.25-30.894-2.167-17.344 58.913-45.166 89.723-56.91zm0 0c-8.241-8.491-31.222-25.474-57.222-25.474-26.001 0-48.751 12.286-56.877 18.428 1.445-1.264 8.992-.542 27.626 12.466 23.292 16.26 29.251 16.26 37.376 8.13 6.5-6.504 35.44-11.743 49.097-13.55zm0 0c-24.13-.542-75.206-10.515-86.473-46.07-11.267-35.555-16.611-61.065-17.875-69.376m104.348 115.446c-16.807 3.252-51.782-3.577-57.222-56.91-5.44-53.333-2.267-80.397 0-87.262m57.222 144.172a406.445 406.445 0 00-16.596 10.592M445.27 338.209c0 40.108 5.694 111.592-19.501 143.63-8.136 10.347-17.546 22.657-27.98 34.688m47.481-178.318l-47.481 22.222c-4.336-6.685-10.407-22.764 0-33.604 13.009-13.55 27.635-24.39 44.427-18.97 13.433 4.336 21.486 12.647 23.834 16.26m-20.78 14.092l20.78-14.092m-68.261 192.41c-22.907 26.417-50.752 51.491-80.897 51.491-30.35 0-57.831-22.384-84.323-51.491m165.22 0c-3.253 5.421-8.289 38.546-3.241 75.881 8.134 60.162 28.89 71.183 36.834 90.514M232.569 516.527c1.45 10.299-6.055 54.694-9.192 75.881-8.667 58.536-31.613 82.926-68.793 105.69C133.512 711 96.264 732.063 79.291 742m195.546-338.751c21.486-21.149 62.943-67.346 56.876-82.943-7.583-19.495-53.43-71.527-34.126-112.719 19.305-41.192 28.168-31.436 42.793-65.582 11.7-27.317 16.07-44.264 16.792-49.323 14.625 14.454 45.501 50.081 52.001 76.965 8.125 33.604 5.417 66.666-2.166 95.392-7.584 28.726-7.584 68.292-25.459 81.842-14.301 10.84-77.099 42.095-106.711 56.368zm0 0c26-19.151 78.868-61.246 82.335-76.422 3.467-15.176 1.445-30.533 0-36.314M87.416 313.277c-1.986-7.407-5.742-24.282-4.875-32.52.866-8.239 15.528-27.281 22.75-35.772 5.778 4.155 15.601 16.368 8.667 31.978-6.933 15.609-20.584 30.713-26.542 36.314zm0 0c1.083 9.395-2.817 28.726-27.084 30.894-24.267 2.168-42.251-3.071-48.21-5.962 1.986-5.601 10.617-18.428 29.251-24.932 18.634-6.504 38.46-2.71 46.043 0zm0 0c-4.875-2.529-15.492-10.081-18.959-20.054-4.333-12.466 4.333-20.054 0-34.146-3.467-11.274-3.972-23.848-3.792-28.726 7.584-.362 22.75 2.925 22.75 18.97v58.536m0 5.42v-5.42m0 5.42c-9.027-7.588-28.6-24.715-34.667-32.52-6.066-7.805-4.333-24.21-2.708-31.436 6.139 3.252 19.825 12.791 25.459 24.932 5.633 12.141 10.292 27.461 11.917 33.604m0 5.42c-2.709-12.105-11.917-37.615-27.084-42.818-15.167-5.203-44.418 0-44.418 0s.975 16.477 15.709 28.184c18.417 14.634 20.042 26.558 33.042 20.596 10.4-4.77 19.5-5.962 22.75-5.962zm0 0c-4.695-5.781-19.826-17.886-42.793-20.054-22.967-2.168-38.82-.903-43.876 0 4.153 8.853 16.142 26.992 30.876 28.726 14.733 1.734 43.334-5.059 55.793-8.672zm47.126-28.726c-7.764-5.42-22.751-20.054-20.584-35.23 2.708-18.97 7.042-47.154 17.875-41.734 10.834 5.42 29.251 12.466 25.459 22.764-3.791 10.298-6.5 17.344-14.625 28.726-6.5 9.105-8.125 20.777-8.125 25.474zm0 0c1.083 4.697 6.392 11.274 18.959 0 15.708-14.092 35.75-24.39 30.875-35.23-4.875-10.84-23.834-7.588-30.875 4.878-5.634 9.973-14.987 24.39-18.959 30.352zm0 0c4.875 5.962 17.225 18.97 27.626 23.306 13 5.42 41.709-20.033 18.417-23.306-18.634-2.618-38.46-1.091-46.043 0zm0 0c15.282-3.794 48.122-14.201 57.222-25.474 11.375-14.092 1.279-41.192-16.596-43.36-14.301-1.735-17.876 16.621-17.876 26.016 9.209-7.408 23.726-24.607 8.126-34.146-8.385-5.128-16.069-9.353-22.751-11.599m-8.125 88.563c-6.841-9.575-21.294-31.542-24.376-42.818-3.851-14.095-4.875-50.948 0-55.284 3.9-3.469 23.293 4.914 32.501 9.539m0 0c-8.857-2.977-15.952-2.477-20.584 4.011-8.125 11.382-12.458 36.856 0 30.352 12.459-6.504 34.668-14.526 20.584-34.363zM466.05 324.117c-7.584-18.609-21.234-59.62-15.167-74.796m15.167 74.796c6.861-10.298 22.858-32.628 31.959-39.566 11.375-8.672 15.708-14.092 9.208-60.162-5.2-36.856-4.333-37.037-3.25-32.52-15.167 12.827-47.018 42.276-53.084 57.452m15.167 74.796a146.317 146.317 0 010-3.811m0 3.811c-16.07-11.974-48.318-41.095-48.752-61.788-.433-20.693 11.737-29.941 17.876-31.978-.181 4.878-.433 21.029 0 46.612.433 25.582 20.764 39.555 30.876 43.343m-15.167-70.985c-2.348-10.479-10.076-35.013-22.209-49.322-15.167-17.886-6.5-73.713 0-86.179 5.2-9.972 13.23-27.642 16.596-35.23 3.496 6.685 12.546 22.439 20.78 31.978 10.292 11.924 26.542 30.353 21.125 51.491-4.333 16.91-26.001 65.22-36.292 87.262zm0 0c2.113-11.86 5.133-30.963 7.248-49.322m10.899 84.552c1.583-10.348 3.922-21.027 7.312-30.352 10.833-29.81 28.709-26.016 16.25-4.878-9.967 16.91-19.861 30.533-23.562 35.23zm0 0c-2.12 13.865-2.88 27.135-2.98 35.755m0 0c-7.581-7.763-27.294-22.53-45.501-19.495-18.208 3.035-38.282 4.155-46.043 4.336 1.69-6.865 9.69-20.596 28.167-20.596 18.477 0 49.95 23.837 63.377 35.755zm-7.919-120.307c2.04-17.719 3.237-34.746 1.96-43.902-3.25-23.307-23.834-61.247-17.875-24.933 4.766 29.052 12.596 57.995 15.915 68.835zM175.168 439.315c-18.26 12.277-38.57 28.099-36.293 34.936 3.792 11.382 2.709 15.718 14.626 0 9.533-12.574 18.417-28.53 21.667-34.936zm182.004-148.802c7.764-1.265 24.267-7.046 28.167-20.054 4.876-16.26-5.416-24.932-10.833-32.52-1.541-2.159-2.951-4.888-4.366-7.588m-12.968 60.162c-3.431-4.878-10.292-16.802-10.292-25.474s6.861-24.571 10.292-31.436m0 0c-5.16.397-7.121-4.736-4.602-9.214m4.602 9.214c2.889-.181 4.875 2.71-10.292 15.718-18.959 16.26-38.459 39.024-40.626 15.718-2.167-23.306-15.167-35.23 6.5-37.94 17.334-2.168 33.766-2.71 39.816-2.71m4.602 9.214c2.414-.186 7.499-4.701 12.968-10.927m-17.57 1.713c.918-1.633 2.431-3.178 4.602-4.336 5.814-3.103 9.409 3.507 12.968 10.298m-17.57-5.962c-8.939-1.446-29.415-5.203-39.816-8.672-13-4.336-1.625-23.848 9.209-35.772 10.833-11.924 9.75-3.252 15.167 6.504s22.312 32.851 20.042 25.474c-2.27-7.378-8.667-15.935 0-31.978 8.667-16.044 28.167-2.71 32.501 6.504 2.848 6.056-9.046 24.287-19.533 36.227m0 7.675c4.158 6.323 15.509 18.97 27.649 18.97 12.141 0 27.98-22.222 27.98-22.222s-5.22-19.512-18.762-24.39c-16.331-5.883-31.801 12.941-36.867 19.967m-154.027-68.07c-4.581-3.598-15.613-5.596-23.094 15.198-3.113 8.652-5.264 16.373-6.718 22.807m29.812-38.005c-3.397-4.377-9.008-17.675-4.279-35.843 4.729-18.169 29.255-19.76 37.531-22.663m-33.252 58.506c.261-11.192-4.962-31.935-27.936-25.362m-4.596 81.869c4.318 1.398 16.296 1.688 29.662-8.328m-29.662 8.328c4.234-4.652 15.42-18.489 26.283-36.626 10.864-18.136 15.336-13.313 16.214-8.635 2.331-1.873 6.61-8.826 5.079-21.654l-1.802-15.092c3.111-.691 10.573-4.517 15.537-14.294 4.964-9.778 5.53-17.882 4.473-18.712m-65.784 115.013c.017-2.981.681-9.475 2.72-18.502m26.942 10.174c13.365-10.017 20.364-19.336 22.192-22.744 1.988 3.271 9.171 13.044 20.783 17.607 6.534 2.568 13.865-.222 27.11-5.632m-70.085 10.769c-2.294 2.187-3.287 9.385 11.09 20.678 14.377 11.293 34.652 20.095 42.992 23.085m16.003-54.532c13.245-5.41 16.693-6.544 13.345-12.597-3.789-6.851-6.376-10.034-9.095-11.987m-4.25 24.584c.679 1.673 1.418 7.867-1.054 19.26s-10.996 28.262-14.949 35.272M249.365 96.1c2.161 2.394 5.255 6.287 8.294 10.967m-6.236 62.453c2.19 2.29 8.071 8.22 14.081 13.624m-77.327-53.9c-22.974 6.573-36.961 19.406-41.083 25.001m41.083-25.001c-7.725-.512-12.967-12.323-19.075-27.378-4.887-12.045-14.693-20.089-17.174-19.473-.338-2.83.309-8.648 5.598-9.28 5.29-.632 12.154 2.055 14.925 3.478m15.726 52.653c3.907.259 7.905-.778 11.374-1.023m-52.457 26.024c-.72 2 1.414 8.633 15.7 19.171 14.287 10.538 21.625 17.187 23.507 19.195m-39.207-38.366c-.338-2.83 25.99-3.776 44.18.938m76.051 91.365c-2.88-5.396-9.471-19.15-12.802-30.998-3.33-11.848-8.758-15.855-11.056-16.378m44.111-31.74c-2.979-2.141-6.114-2.806-11.159-5.205-16.169-7.687-29.435-.468-33.34 1.593 6.184-1.695 19.636-8.852 23.969-23.912 2.92-10.147-3.115-23.175-9.389-32.841m29.919 60.365c-.118-2.325 1.367-8.615 8.247-15.178 6.881-6.562 11.216-18.402 12.523-23.501m0 0c-5.124-1.46-17.63-5.642-26.663-10.685-9.032-5.044-19.781-9.435-24.026-11.001m50.689 21.686c-1.889.226-7.466 1.658-14.662 5.579-7.196 3.922-9.61 2.425-9.918 1.186m-77.057-59.673l11.412-4.713c-.633 4.062 2.467 14.247 1.039 24.75-1.786 13.13-6.383 22.768-8.879 25.936-1.234 1.566-7.342 6.162-10.732 6.403m7.16-52.376l8.341-14.39c-.338-2.83-3.804-5.382-10.199-1.173-6.396 4.208-7.844 6.518-7.657 8.09-.843-.378-4.087-5.348-8.963-10.888-4.877-5.54-12.877-7.55-12.877-7.55s-3.574 6.168-4.594 12.509c-1.02 6.34 1.483 12.419 1.689 14.148m34.26-.746c-.832 1.056-3.517 4.247-7.6 8.562-4.084 4.315-5.651 11.518-5.924 14.58m-20.736-22.396c.494 1.855 4.926 3.908 12.492 9.51 7.566 5.6 8.132 11.943 8.244 12.886m0 0l1.352 11.319 5.012 17.915m30.629-40.352c-.432-3.616-2.518-11.466-7.412-13.943-6.118-3.096-10.147-20.792-11.892-35.412-1.396-11.696 5.359-25.993 7.484-29.596 4.078 2.064 13.396 9.497 18.04 22.719 4.644 13.221 4.511 27.09 3.865 32.371m-10.085 23.86l-8.285 14.863m8.285-14.862a1584.615 1584.615 0 0110.085-23.86m-18.37 38.722c6.694-1.437 22.502-6.516 32.18-15.326s30.285-16.465 29.927-34.192c-.129-6.373-4.276-15.753-4.276-15.753m-57.831 65.271c8.312-9.284 19.227-25.049 30.451-40.167 11.224-15.118 27.38-25.104 27.38-25.104m0 0s-22.007-1.246-30.719 7.499c-5.779 5.801-5.209 10.898-8.742 19.05" stroke="#868C96"/><path d="M339.155 357.248c2.528-8.31 5.525-27.425-2.708-37.398-10.292-12.466-45.501-10.298-28.709 10.84 13.433 16.911 26.542 24.752 31.417 26.558zm0 0c-1.625-8.31-1.408-27.425 12.459-37.398 17.334-12.466 42.792 8.672 19.5 23.848-18.634 12.141-27.806 11.021-31.959 13.55zm0 0c1.084-5.781 7.834-5.37 24.376-3.793 22.75 2.168 9.208 41.734-11.917 27.1-13.393-9.278-15.889-18.79-12.459-23.307zm0 0c2.709 5.421 3.392 17.574-5.958 29.269-13.001 16.26-44.418-2.168-33.584-16.26 8.666-11.274 29.973-13.37 39.542-13.009zm0 0c-5.778-7.768-17.961-19.944-32.501-24.932-18.958-6.504-37.375 25.474-7.041 32.521 24.267 5.636 36.473-5.24 39.542-7.589z" stroke="#868C96"/></svg>