<svg width="55" height="46" fill="none" xmlns="http://www.w3.org/2000/svg"><g filter="url(#a)"><mask id="b" maskUnits="userSpaceOnUse" x="4" y="-7" width="47" height="45" fill="#000"><path fill="#fff" d="M4-7h47v45H4z"/><path d="M18.733 27.283c.942 0 2.01-.205 3.205-.616 1.215-.411 2.451-1.027 3.708-1.85 1.278-.82 2.472-1.848 3.582-3.08a64.118 64.118 0 003.017-3.264 182.14 182.14 0 003.174-3.843 496.778 496.778 0 003.205-4.025 319.407 319.407 0 013.08-3.843 82.694 82.694 0 012.765-3.3c1.11-1.256 2.053-2.138 2.828-2.646C48.074.31 48.68.055 49.12.055c.587 0 .88.41.88 1.233 0 1.063-.293 2.235-.88 3.516-.587 1.281-1.403 2.599-2.451 3.952a37.153 37.153 0 01-3.645 4.025 44.266 44.266 0 01-4.494 3.77 42.249 42.249 0 01-4.965 3.119 31.506 31.506 0 01-5.122 2.139c-1.697.507-3.331.761-4.902.761-2.64 0-4.819-.46-6.537-1.378-1.718-.918-3.006-2.139-3.865-3.662-.838-1.547-1.257-3.263-1.257-5.148 0-1.644.325-3.154.974-4.532a11.242 11.242 0 012.797-3.662c1.194-1.04 2.587-1.849 4.18-2.43 1.613-.58 3.362-.87 5.247-.87 2.032 0 3.656.351 4.871 1.052 1.215.701 2.095 1.607 2.64 2.72a7.364 7.364 0 01.848 3.444 6.445 6.445 0 01-.785 3.118 7.953 7.953 0 01-2.106 2.538c-.88.725-1.917 1.293-3.11 1.704a11.36 11.36 0 01-3.772.616c-1.613 0-2.922-.35-3.928-1.051-1.005-.701-1.508-1.632-1.508-2.792 0-1.04.398-1.97 1.194-2.792.817-.822 1.906-1.474 3.268-1.958 1.383-.483 2.933-.725 4.65-.725 1.51 0 3.07.194 4.683.58a25.17 25.17 0 014.745 1.56 23.568 23.568 0 014.18 2.284c1.257.87 2.262 1.8 3.017 2.791l-.126.145c-.754-.967-1.75-1.873-2.986-2.719a22.563 22.563 0 00-4.148-2.284 24.57 24.57 0 00-4.682-1.56c-1.613-.386-3.174-.58-4.682-.58-1.676 0-3.195.242-4.557.726-1.34.46-2.409 1.088-3.205 1.885-.775.774-1.163 1.656-1.163 2.647 0 1.088.482 1.97 1.446 2.647.963.652 2.231.979 3.802.979 1.78 0 3.394-.35 4.84-1.052 1.445-.7 2.597-1.631 3.456-2.792.86-1.184 1.289-2.49 1.289-3.915 0-2.151-.733-3.856-2.2-5.112-1.446-1.257-3.436-1.886-5.97-1.886-1.865 0-3.594.29-5.186.87-1.571.556-2.943 1.342-4.116 2.357a10.782 10.782 0 00-2.734 3.59c-.65 1.377-.975 2.864-.975 4.459 0 2.055.461 3.831 1.383 5.33.922 1.474 2.242 2.622 3.96 3.444 1.718.798 3.76 1.196 6.128 1.196 1.822 0 3.718-.338 5.687-1.015a33.887 33.887 0 005.94-2.791 44.02 44.02 0 005.593-3.989c1.76-1.474 3.31-2.997 4.651-4.568 1.362-1.571 2.43-3.106 3.205-4.605.796-1.522 1.195-2.888 1.195-4.096 0-.677-.231-1.016-.692-1.016-.419 0-.995.266-1.728.798-.713.532-1.613 1.402-2.703 2.61-1.068 1.257-2.158 2.744-3.268 4.46a561.207 561.207 0 00-3.362 5.366 110.609 110.609 0 01-3.614 5.402c-1.257 1.74-2.577 3.287-3.96 4.64a18.134 18.134 0 01-4.62 3.264c-1.654.822-3.32 1.233-4.996 1.233-1.424 0-2.493-.121-3.205-.363-.691-.217-1.152-.495-1.383-.834-.23-.338-.345-.665-.345-.979 0-.338.157-.664.471-.979.335-.314.838-.47 1.509-.47 1.424 0 2.796.29 4.116.87a22.84 22.84 0 013.96 2.138c1.299.895 2.608 1.837 3.928 2.828a64.92 64.92 0 004.022 2.792 22.27 22.27 0 004.305 2.175c1.488.58 3.048.87 4.682.87 1.74 0 3.101-.326 4.086-.978.984-.653 1.477-1.56 1.477-2.72 0-.604-.189-1.232-.566-1.885l.157-.109c.44.798.66 1.535.66 2.212 0 1.33-.576 2.393-1.728 3.19-1.153.798-2.713 1.197-4.683 1.197-.984 0-1.937-.12-2.86-.363-.921-.217-1.895-.604-2.922-1.16-1.026-.556-2.2-1.317-3.52-2.284-1.32-.967-2.88-2.2-4.681-3.698-1.844-1.547-3.688-2.744-5.531-3.59-1.823-.87-3.447-1.293-4.871-1.268-.524 0-.964.108-1.32.326-.335.217-.503.495-.503.834 0 .459.241.822.723 1.087.482.266 1.11.4 1.886.4z"/></mask><path d="M18.733 27.283c.942 0 2.01-.205 3.205-.616 1.215-.411 2.451-1.027 3.708-1.85 1.278-.82 2.472-1.848 3.582-3.08a64.118 64.118 0 003.017-3.264 182.14 182.14 0 003.174-3.843 496.778 496.778 0 003.205-4.025 319.407 319.407 0 013.08-3.843 82.694 82.694 0 012.765-3.3c1.11-1.256 2.053-2.138 2.828-2.646C48.074.31 48.68.055 49.12.055c.587 0 .88.41.88 1.233 0 1.063-.293 2.235-.88 3.516-.587 1.281-1.403 2.599-2.451 3.952a37.153 37.153 0 01-3.645 4.025 44.266 44.266 0 01-4.494 3.77 42.249 42.249 0 01-4.965 3.119 31.506 31.506 0 01-5.122 2.139c-1.697.507-3.331.761-4.902.761-2.64 0-4.819-.46-6.537-1.378-1.718-.918-3.006-2.139-3.865-3.662-.838-1.547-1.257-3.263-1.257-5.148 0-1.644.325-3.154.974-4.532a11.242 11.242 0 012.797-3.662c1.194-1.04 2.587-1.849 4.18-2.43 1.613-.58 3.362-.87 5.247-.87 2.032 0 3.656.351 4.871 1.052 1.215.701 2.095 1.607 2.64 2.72a7.364 7.364 0 01.848 3.444 6.445 6.445 0 01-.785 3.118 7.953 7.953 0 01-2.106 2.538c-.88.725-1.917 1.293-3.11 1.704a11.36 11.36 0 01-3.772.616c-1.613 0-2.922-.35-3.928-1.051-1.005-.701-1.508-1.632-1.508-2.792 0-1.04.398-1.97 1.194-2.792.817-.822 1.906-1.474 3.268-1.958 1.383-.483 2.933-.725 4.65-.725 1.51 0 3.07.194 4.683.58a25.17 25.17 0 014.745 1.56 23.568 23.568 0 014.18 2.284c1.257.87 2.262 1.8 3.017 2.791l-.126.145c-.754-.967-1.75-1.873-2.986-2.719a22.563 22.563 0 00-4.148-2.284 24.57 24.57 0 00-4.682-1.56c-1.613-.386-3.174-.58-4.682-.58-1.676 0-3.195.242-4.557.726-1.34.46-2.409 1.088-3.205 1.885-.775.774-1.163 1.656-1.163 2.647 0 1.088.482 1.97 1.446 2.647.963.652 2.231.979 3.802.979 1.78 0 3.394-.35 4.84-1.052 1.445-.7 2.597-1.631 3.456-2.792.86-1.184 1.289-2.49 1.289-3.915 0-2.151-.733-3.856-2.2-5.112-1.446-1.257-3.436-1.886-5.97-1.886-1.865 0-3.594.29-5.186.87-1.571.556-2.943 1.342-4.116 2.357a10.782 10.782 0 00-2.734 3.59c-.65 1.377-.975 2.864-.975 4.459 0 2.055.461 3.831 1.383 5.33.922 1.474 2.242 2.622 3.96 3.444 1.718.798 3.76 1.196 6.128 1.196 1.822 0 3.718-.338 5.687-1.015a33.887 33.887 0 005.94-2.791 44.02 44.02 0 005.593-3.989c1.76-1.474 3.31-2.997 4.651-4.568 1.362-1.571 2.43-3.106 3.205-4.605.796-1.522 1.195-2.888 1.195-4.096 0-.677-.231-1.016-.692-1.016-.419 0-.995.266-1.728.798-.713.532-1.613 1.402-2.703 2.61-1.068 1.257-2.158 2.744-3.268 4.46a561.207 561.207 0 00-3.362 5.366 110.609 110.609 0 01-3.614 5.402c-1.257 1.74-2.577 3.287-3.96 4.64a18.134 18.134 0 01-4.62 3.264c-1.654.822-3.32 1.233-4.996 1.233-1.424 0-2.493-.121-3.205-.363-.691-.217-1.152-.495-1.383-.834-.23-.338-.345-.665-.345-.979 0-.338.157-.664.471-.979.335-.314.838-.47 1.509-.47 1.424 0 2.796.29 4.116.87a22.84 22.84 0 013.96 2.138c1.299.895 2.608 1.837 3.928 2.828a64.92 64.92 0 004.022 2.792 22.27 22.27 0 004.305 2.175c1.488.58 3.048.87 4.682.87 1.74 0 3.101-.326 4.086-.978.984-.653 1.477-1.56 1.477-2.72 0-.604-.189-1.232-.566-1.885l.157-.109c.44.798.66 1.535.66 2.212 0 1.33-.576 2.393-1.728 3.19-1.153.798-2.713 1.197-4.683 1.197-.984 0-1.937-.12-2.86-.363-.921-.217-1.895-.604-2.922-1.16-1.026-.556-2.2-1.317-3.52-2.284-1.32-.967-2.88-2.2-4.681-3.698-1.844-1.547-3.688-2.744-5.531-3.59-1.823-.87-3.447-1.293-4.871-1.268-.524 0-.964.108-1.32.326-.335.217-.503.495-.503.834 0 .459.241.822.723 1.087.482.266 1.11.4 1.886.4z" fill="#F6F8FC"/><path d="M31.617 28.407l-.226-.446-.002.001.228.445zm-5.123 1.958l-.126-.484-.006.002.132.482zm-11.69-.544l-.195.46.196-.46zM9.62 26.268l-.36.347.36-.347zm-3.393-5.402l.466-.179v-.002l-.466.18zm.25-14.756l.463.188v-.001l-.463-.187zm4.117-6.382l-.357-.35-.002.002.359.348zm6.222-4.205l.193.461.002-.001-.195-.46zM28.85-5.565l.101-.49-.1.49zm3.897 1.233l-.203.457h.002l.2-.457zm3.142 1.849l-.311.391.004.003.307-.394zM37.84-.235l.284.41.357-.246-.194-.388-.447.224zm-.157.109l-.448.223.258.516.474-.328-.284-.411zm-1.917-2.212l-.31.393.005.003.305-.396zm-3.08-1.777l-.203.457.008.003.195-.46zm-3.897-1.232l-.102.489h.001l.101-.49zm-11.91 1.051l-.193-.461h-.001l.194.461zM10.72-.126l-.356-.351-.002.002.358.349zM6.634 6.182l-.463-.189v.002l.463.187zm-.251 14.575l.466-.18-.466.18zm3.362 5.33l.363-.344-.003-.003-.36.347zm5.122 3.517l.198-.46-.005-.002-.193.462zm11.565.58l-.123-.485-.007.002.13.483zm5.027-1.886l-.224-.446.224.447zm4.527-3.29a26.119 26.119 0 01-4.595 2.953l.45.893a27.126 27.126 0 004.77-3.066l-.625-.78zm-4.597 2.954a24.714 24.714 0 01-5.02 1.92l.252.967a25.719 25.719 0 005.223-1.997l-.455-.89zm-5.027 1.921c-1.72.473-3.394.707-5.021.707v1c1.724 0 3.487-.248 5.286-.743l-.265-.964zm-5.021.707c-2.307 0-4.418-.412-6.34-1.229l-.392.92c2.058.875 4.304 1.31 6.732 1.31v-1zM15 29.361a15.075 15.075 0 01-5.021-3.44l-.72.694a16.076 16.076 0 005.349 3.666l.391-.92zm-5.021-3.44c-1.418-1.472-2.514-3.214-3.288-5.234l-.933.358c.818 2.138 1.985 3.996 3.5 5.57l.72-.694zm-3.288-5.236c-.793-2.04-1.192-4.262-1.192-6.671h-1c0 2.521.418 4.867 1.26 7.033l.932-.362zM5.5 14.014c0-2.794.482-5.364 1.44-7.716l-.926-.377C5.003 8.403 4.5 11.103 4.5 14.014h1zm1.44-7.717c.962-2.384 2.3-4.456 4.012-6.22l-.717-.697C8.428 1.241 7.02 3.424 6.013 5.923l.928.374zM10.95.079a18.315 18.315 0 016.059-4.095l-.386-.922a19.315 19.315 0 00-6.386 4.316l.713.7zm6.061-4.096c2.322-.987 4.842-1.483 7.567-1.483v-1c-2.849 0-5.503.52-7.958 1.563l.391.92zM24.578-5.5c1.411 0 2.802.142 4.172.425l.202-.98a21.563 21.563 0 00-4.375-.445v1zm4.172.425c1.372.283 2.636.684 3.794 1.2l.407-.914a19.505 19.505 0 00-3.999-1.266l-.202.98zm3.797 1.2c1.183.518 2.191 1.113 3.032 1.783l.623-.782c-.92-.733-2.006-1.37-3.254-1.916l-.4.916zm3.036 1.786c.858.668 1.452 1.362 1.808 2.077l.895-.447c-.44-.88-1.145-1.684-2.089-2.419l-.614.79zm1.971 1.443l-.157.108.57.823.156-.11-.569-.821zm.575.296c-.44-.88-1.134-1.673-2.06-2.384l-.61.792c.835.642 1.418 1.323 1.775 2.039l.895-.447zm-2.055-2.38c-.9-.71-1.966-1.323-3.193-1.845l-.392.92c1.161.494 2.148 1.065 2.966 1.71l.62-.786zM32.89-4.572a19.506 19.506 0 00-4-1.266l-.202.98a18.42 18.42 0 013.795 1.2l.407-.914zm-4-1.265a20.956 20.956 0 00-4.313-.445v1c1.39 0 2.76.141 4.108.424l.205-.979zm-4.313-.445c-2.827 0-5.46.506-7.893 1.525l.387.922c2.301-.963 4.801-1.447 7.506-1.447v-1zm-7.894 1.525a19.322 19.322 0 00-6.321 4.28l.713.701a18.324 18.324 0 015.997-4.06l-.389-.92zM10.361-.475C8.575 1.362 7.179 3.52 6.17 5.993l.926.378c.962-2.36 2.289-4.409 3.98-6.149l-.716-.697zm-4.19 6.47c-.99 2.458-1.482 5.133-1.482 8.019h1c0-2.77.471-5.317 1.409-7.645l-.928-.374zm-1.482 8.019c0 2.496.407 4.806 1.227 6.924l.933-.361c-.772-1.992-1.16-4.177-1.16-6.564h-1zm1.227 6.924c.82 2.113 1.975 3.947 3.47 5.496l.719-.694c-1.397-1.448-2.483-3.167-3.256-5.163l-.933.36zm3.466 5.493a15.38 15.38 0 005.293 3.634l.385-.923a14.383 14.383 0 01-4.952-3.4l-.726.69zm5.288 3.632c2.037.875 4.263 1.31 6.67 1.31v-1c-2.284 0-4.374-.412-6.275-1.229l-.395.92zm6.67 1.31c1.723 0 3.463-.236 5.22-.706l-.258-.966a19.154 19.154 0 01-4.961.672v1zm5.214-.704a25.12 25.12 0 005.13-1.924l-.45-.893a24.121 24.121 0 01-4.925 1.847l.245.97zm5.13-1.924a26.764 26.764 0 004.675-2.992l-.623-.782a25.76 25.76 0 01-4.501 2.88l.45.894zm-9.746-2.078l-.32-.947-.005.001.325.946zm3.708-1.85l-.541-.84-.006.004.547.837zm3.582-3.08l-.708-.707-.018.018-.017.019.743.67zm3.017-3.264l.756.655.006-.008-.762-.647zm3.174-3.843l-.779-.627.779.627zm3.205-4.025l-.785-.62v.001l.785.62zm3.08-3.843l.775.632.006-.008-.781-.624zm2.765-3.3l.748.665.002-.002-.75-.662zM47.297.817l.548.837-.547-.837zm1.823 3.988l-.91-.416.91.416zm-2.45 3.951l.79.612-.79-.612zm-8.139 7.795l.589.809.003-.002-.592-.807zm-4.965 3.119l.462.886.01-.005-.472-.881zm-5.122 2.139l.286.958.013-.004-.3-.954zm-11.439-.617l.472-.882-.472.882zM13.14 17.53l-.88.477.005.007.004.008.871-.492zm-.283-9.68l-.902-.431-.002.005.904.426zm2.797-3.662l-.657-.754.657.754zm4.18-2.43l-.339-.94-.004.001.342.94zm10.118.182l-.5.866.5-.866zm2.64 2.72l-.898.44.005.01.006.01.887-.46zm.063 6.562l-.88-.477-.004.008-.004.007.888.462zm-2.106 2.538l-.627-.78-.009.008.636.772zm-3.11 1.704l-.326-.946-.005.002.33.944zm-7.7-.435l-.572.82.572-.82zm-.314-5.584l-.71-.705-.008.01.718.695zm3.268-1.958l-.33-.944-.004.002.334.942zm9.333-.145l-.233.973.008.002.008.002.217-.977zm4.745 1.56l-.405.914.013.005.392-.92zm4.18 2.284l-.57.822.57-.822zm3.017 2.791l.755.655.532-.614-.492-.646-.795.605zm-.126.145l-.789.615.748.959.797-.919-.756-.655zm-2.986-2.719l-.575.818.01.007.565-.825zm-4.148-2.284l-.409.912.008.004.009.004.392-.92zm-4.682-1.56l-.233.973.007.002.007.002.22-.976zm-9.239.146l.324.946.01-.004-.334-.942zM19.581 9.59l.706.708.002-.001-.708-.707zm.283 5.294l-.575.818.007.005.007.005.56-.828zm12.098-2.865l.804.595.006-.008-.81-.587zm-.911-9.027l-.656.754.005.005.651-.76zM19.895 1.976l.334.943.009-.003-.343-.94zM15.78 4.333l.654.756-.654-.756zm-2.734 3.59l.904.426-.904-.427zm.408 9.789l-.852.524.004.006.848-.53zm3.96 3.444l-.432.902.01.005.422-.907zm11.815.181l.325.946.008-.003-.333-.943zm5.94-2.791l.507.861.008-.005-.515-.857zm5.593-3.989l-.642-.766.642.766zm4.651-4.568l-.756-.655-.005.006.761.649zm3.205-4.605l-.886-.463-.002.004.888.46zM47.392 1.07l-.587-.81-.011.009.598.801zm-2.703 2.61l-.742-.67-.01.012-.01.01.762.648zm-3.268 4.46l-.84-.543-.004.007.844.536zm-3.362 5.366l.847.531.003-.005-.85-.526zm-3.614 5.402l.81.586.004-.006-.814-.58zm-3.96 4.64l.695.72.005-.005-.7-.714zm-4.62 3.264l-.44-.898-.004.002.445.896zm-8.2.87l.32-.947-.01-.003-.01-.004-.3.954zm-1.384-.834l-.826.563.826-.563zm.126-1.958l-.684-.73-.012.012-.011.011.707.707zm5.625.4l-.402.915.01.004.01.004.382-.924zm3.96 2.138l.567-.823-.01-.008-.557.831zm7.95 5.62l.543-.84-.005-.003-.538.843zm4.305 2.175l.364-.931-.007-.003-.007-.002-.35.936zm8.768-.108l-.553-.834.553.834zm.911-4.605l-.57-.822-.757.524.461.798.866-.5zm.157-.109l.876-.483-.535-.969-.91.63.57.822zm-1.068 5.402l-.57-.822.57.822zm-7.542.834l.253-.967-.011-.003-.013-.003-.23.973zm-6.442-3.444L32.44 34l.59-.807zm-4.682-3.698l-.643.766.003.003.64-.77zm-5.531-3.59l-.431.903.007.003.007.003.417-.908zm-4.871-1.268v1h.017l-.017-1zm-1.32.326l-.521-.854-.012.008-.011.007.544.839zm2.106 3.32c1.083 0 2.265-.235 3.53-.67l-.65-1.892c-1.123.387-2.079.562-2.88.562v2zm3.525-.669c1.308-.442 2.62-1.099 3.935-1.96L25.1 23.982c-1.198.783-2.359 1.359-3.482 1.739l.641 1.894zm3.929-1.955c1.359-.874 2.62-1.96 3.784-3.254l-1.486-1.338c-1.056 1.172-2.183 2.14-3.38 2.91l1.082 1.682zm3.75-3.217A65.059 65.059 0 0033 19.128l-1.512-1.31a63.116 63.116 0 01-2.969 3.212l1.417 1.412zm3.07-3.322a183.499 183.499 0 003.192-3.864l-1.56-1.253a181.389 181.389 0 01-3.156 3.823l1.524 1.294zm3.191-3.863c1.091-1.356 2.162-2.7 3.212-4.033l-1.571-1.238a499.849 499.849 0 01-3.199 4.017l1.558 1.254zm3.211-4.032a318.132 318.132 0 013.07-3.831L40.93 6.13a320.61 320.61 0 00-3.09 3.855l1.57 1.239zm3.076-3.839a81.743 81.743 0 012.732-3.259L43.722 2.8a83.733 83.733 0 00-2.8 3.34l1.563 1.247zm2.734-3.261c1.09-1.235 1.963-2.038 2.626-2.472L46.75-.02c-.888.58-1.9 1.542-3.03 2.82l1.499 1.325zm2.626-2.472c.757-.496 1.15-.598 1.275-.598v-2c-.755 0-1.577.405-2.37.925l1.095 1.673zm1.275-.598c.03 0 .01.005-.038-.017a.306.306 0 01-.116-.094c-.018-.026-.008-.024.006.036s.028.158.028.308h2c0-.5-.084-1.054-.406-1.506-.367-.514-.918-.727-1.474-.727v2zm-.12.233c0 .88-.244 1.91-.79 3.1l1.82.833c.627-1.372.97-2.688.97-3.933h-2zm-.79 3.1c-.548 1.199-1.322 2.45-2.332 3.756l1.582 1.224c1.084-1.401 1.945-2.784 2.57-4.147l-1.82-.833zm-2.332 3.756a36.146 36.146 0 01-3.547 3.916l1.386 1.442a38.142 38.142 0 003.743-4.134l-1.582-1.224zm-3.547 3.916a43.294 43.294 0 01-4.393 3.685l1.184 1.613a45.288 45.288 0 004.595-3.856L42.33 12.06zm-4.39 3.683a41.23 41.23 0 01-4.848 3.045l.943 1.763a43.223 43.223 0 005.083-3.191l-1.178-1.617zm-4.838 3.04a30.449 30.449 0 01-4.96 2.071l.599 1.909a32.505 32.505 0 005.285-2.207l-.924-1.774zm-4.947 2.067c-1.615.484-3.153.72-4.615.72v2c1.68 0 3.41-.271 5.188-.803l-.573-1.916zm-4.615.72c-2.532 0-4.535-.441-6.065-1.26l-.943 1.764c1.905 1.019 4.26 1.496 7.008 1.496v-2zm-6.065-1.26c-1.57-.84-2.71-1.932-3.466-3.27l-1.742.982c.963 1.706 2.399 3.055 4.265 4.052l.943-1.764zm-3.458-3.256c-.753-1.39-1.136-2.94-1.136-4.672h-2c0 2.04.455 3.921 1.378 5.625l1.758-.953zm-1.136-4.672c0-1.508.297-2.872.879-4.106l-1.81-.852c-.717 1.521-1.069 3.179-1.069 4.958h2zm.876-4.1a10.24 10.24 0 012.552-3.34l-1.314-1.508a12.242 12.242 0 00-3.042 3.984l1.804.863zm2.552-3.34c1.095-.953 2.38-1.702 3.865-2.244L19.49.82c-1.7.62-3.2 1.49-4.494 2.615l1.313 1.508zM20.17 2.7c1.495-.538 3.129-.811 4.91-.811v-2c-1.989 0-3.854.306-5.586.929l.677 1.882zm4.91-.811c1.93 0 3.362.335 4.371.917l1-1.732c-1.42-.82-3.237-1.185-5.37-1.185v2zm4.371.917c1.067.616 1.796 1.383 2.242 2.293l1.796-.88c-.644-1.313-1.675-2.358-3.038-3.145l-1 1.732zm2.253 2.315c.492.947.735 1.937.735 2.983h2a8.364 8.364 0 00-.961-3.906l-1.774.923zm.735 2.983c0 .947-.221 1.823-.665 2.641l1.759.953a7.445 7.445 0 00.906-3.594h-2zm-.673 2.656a6.953 6.953 0 01-1.845 2.22l1.254 1.559a8.951 8.951 0 002.366-2.856l-1.775-.923zm-1.854 2.228c-.778.641-1.707 1.154-2.8 1.53l.65 1.891c1.296-.445 2.44-1.069 3.422-1.878l-1.272-1.543zm-2.805 1.532c-1.06.37-2.204.56-3.44.56v2c1.444 0 2.813-.221 4.1-.672l-.66-1.888zm-3.44.56c-1.473 0-2.565-.32-3.357-.872l-1.144 1.641c1.22.85 2.747 1.231 4.5 1.231v-2zm-3.357-.872c-.755-.526-1.08-1.16-1.08-1.971h-2c0 1.508.68 2.737 1.936 3.612l1.144-1.64zm-1.08-1.971c0-.752.277-1.44.912-2.096l-1.436-1.392c-.957.988-1.476 2.162-1.476 3.488h2zm.903-2.087c.689-.693 1.639-1.275 2.894-1.72l-.67-1.885c-1.468.521-2.697 1.244-3.642 2.195l1.418 1.41zm2.89-1.719c1.26-.44 2.695-.669 4.32-.669v-2c-1.811 0-3.476.255-4.981.781l.66 1.888zm4.32-.669c1.422 0 2.905.183 4.449.553l.466-1.945c-1.682-.403-3.32-.608-4.915-.608v2zm4.465.557c1.57.348 3.089.847 4.558 1.497l.809-1.83a26.164 26.164 0 00-4.933-1.62l-.433 1.953zm4.57 1.502a22.568 22.568 0 014.002 2.187l1.139-1.645a24.567 24.567 0 00-4.356-2.381l-.785 1.84zm4.002 2.187c1.19.823 2.113 1.684 2.79 2.575l1.592-1.211c-.83-1.092-1.919-2.092-3.243-3.009l-1.139 1.645zm2.83 1.314l-.125.145 1.511 1.31.126-.145-1.511-1.31zm1.42.185c-.83-1.063-1.907-2.037-3.21-2.93l-1.13 1.651c1.17.8 2.084 1.64 2.762 2.51l1.577-1.23zm-3.199-2.922A23.563 23.563 0 0037.1 8.2l-.785 1.84a21.571 21.571 0 013.965 2.182l1.151-1.636zm-4.314-2.378a25.572 25.572 0 00-4.873-1.623l-.438 1.952c1.548.347 3.045.846 4.492 1.495l.819-1.824zm-4.859-1.62c-1.682-.403-3.32-.607-4.915-.607v2c1.422 0 2.905.182 4.449.552l.466-1.945zm-4.915-.607c-1.772 0-3.406.255-4.891.783l.669 1.884c1.239-.44 2.642-.667 4.222-.667v-2zm-4.88.779c-1.45.496-2.662 1.195-3.59 2.125l1.416 1.413c.664-.666 1.589-1.224 2.821-1.646l-.648-1.892zm-3.588 2.123c-.942.94-1.457 2.07-1.457 3.355h2c0-.696.26-1.331.87-1.939l-1.413-1.416zm-1.457 3.355c0 1.444.667 2.62 1.871 3.465l1.15-1.637c-.723-.507-1.02-1.096-1.02-1.828h-2zm1.885 3.475c1.178.797 2.66 1.15 4.363 1.15v-2c-1.44 0-2.492-.299-3.241-.806l-1.122 1.656zm4.363 1.15c1.915 0 3.68-.377 5.276-1.151l-.873-1.8c-1.295.629-2.757.952-4.403.952v2zm5.276-1.151c1.574-.763 2.859-1.793 3.824-3.097l-1.607-1.19c-.753 1.017-1.773 1.849-3.09 2.487l.873 1.8zm3.83-3.104c.98-1.35 1.479-2.86 1.479-4.503h-2c0 1.21-.36 2.31-1.098 3.328l1.619 1.175zm1.479-4.503c0-2.406-.834-4.402-2.55-5.872l-1.3 1.519c1.217 1.044 1.85 2.456 1.85 4.353h2zm-2.544-5.867c-1.68-1.46-3.93-2.13-6.627-2.13v2c2.373 0 4.103.586 5.315 1.64l1.312-1.51zM25.08.107c-1.97 0-3.815.306-5.527.93l.685 1.879c1.472-.536 3.083-.81 4.842-.81v-2zm-5.518.927c-1.68.594-3.163 1.44-4.438 2.543l1.309 1.512c1.072-.927 2.333-1.652 3.796-2.17l-.667-1.885zm-4.438 2.543a11.783 11.783 0 00-2.984 3.919l1.81.853a9.785 9.785 0 012.483-3.26l-1.309-1.512zM12.14 7.496c-.715 1.517-1.07 3.15-1.07 4.886h2c0-1.455.296-2.795.88-4.033l-1.81-.853zm-1.07 4.886c0 2.208.498 4.173 1.531 5.854l1.704-1.048c-.81-1.316-1.235-2.905-1.235-4.806h-2zm1.535 5.86c1.032 1.65 2.504 2.92 4.376 3.816l.863-1.804c-1.563-.748-2.731-1.774-3.543-3.073l-1.696 1.06zm4.387 3.821c1.878.872 4.071 1.29 6.549 1.29v-2c-2.258 0-4.15-.381-5.707-1.104l-.842 1.814zm6.549 1.29c1.947 0 3.953-.362 6.012-1.07l-.65-1.891c-1.879.645-3.665.96-5.362.96v2zm6.02-1.073a34.878 34.878 0 006.114-2.873l-1.015-1.723a32.886 32.886 0 01-5.764 2.71l.665 1.887zm6.122-2.878a45.046 45.046 0 005.72-4.078L40.12 13.79a43.026 43.026 0 01-5.467 3.898l1.031 1.713zm5.72-4.078c1.798-1.506 3.389-3.068 4.77-4.686L44.65 9.34c-1.3 1.524-2.81 3.008-4.532 4.45l1.284 1.534zm4.765-4.68c1.402-1.618 2.519-3.217 3.337-4.8l-1.776-.919c-.731 1.414-1.751 2.884-3.073 4.41l1.512 1.309zm3.336-4.796c.84-1.61 1.308-3.137 1.308-4.56h-2c0 .993-.33 2.197-1.08 3.633l1.772.927zm1.308-4.56c0-.421-.066-.913-.347-1.325-.327-.48-.832-.69-1.345-.69v2a.338.338 0 01-.137-.039.448.448 0 01-.17-.145c-.03-.043-.028-.06-.02-.024s.019.107.019.223h2zM49.12-.728c-.41 0-.807.127-1.165.292a7.01 7.01 0 00-1.15.696l1.174 1.62a5.02 5.02 0 01.814-.5c.103-.048.183-.076.242-.092a.571.571 0 01.064-.014l.021-.002v-2zM46.794.27c-.791.59-1.744 1.518-2.847 2.742l1.485 1.339c1.075-1.193 1.924-2.006 2.558-2.479L46.793.27zm-2.867 2.764c-1.102 1.296-2.217 2.82-3.346 4.564l1.68 1.086c1.092-1.688 2.156-3.138 3.19-4.355l-1.524-1.295zm-3.35 4.571a565.473 565.473 0 00-3.369 5.375l1.7 1.053a584.524 584.524 0 013.357-5.356l-1.688-1.072zm-3.365 5.37a109.547 109.547 0 01-3.582 5.354l1.63 1.16a111.523 111.523 0 003.646-5.45l-1.694-1.063zm-3.578 5.349c-1.227 1.699-2.51 3.202-3.848 4.511l1.399 1.43a36.875 36.875 0 004.07-4.77l-1.62-1.171zm-3.843 4.506a17.137 17.137 0 01-4.365 3.085l.88 1.796a19.136 19.136 0 004.873-3.441l-1.388-1.44zm-4.37 3.087c-1.531.76-3.045 1.129-4.552 1.129v2c1.846 0 3.663-.454 5.442-1.337l-.89-1.792zm-4.552 1.129c-1.394 0-2.33-.122-2.884-.31l-.642 1.894c.87.296 2.072.416 3.526.416v-2zm-2.905-.317c-.624-.196-.818-.387-.856-.443l-1.653 1.126c.423.62 1.15.986 1.909 1.225l.6-1.908zm-.856-.443c-.151-.222-.172-.355-.172-.416h-2c0 .568.21 1.087.519 1.542l1.653-1.126zm-.172-.416c0-.008 0-.027.019-.064a.802.802 0 01.16-.207L15.7 24.183c-.44.441-.764 1.007-.764 1.686h2zm.155-.25c.08-.074.293-.2.825-.2v-2c-.81 0-1.602.188-2.193.742l1.368 1.459zm.825-.2c1.284 0 2.52.26 3.714.786l.805-1.831a11.126 11.126 0 00-4.52-.955v2zm3.733.794a21.826 21.826 0 013.786 2.046l1.113-1.662a23.827 23.827 0 00-4.133-2.232l-.766 1.848zm3.775 2.039a114.14 114.14 0 013.895 2.804l1.201-1.6a118.82 118.82 0 00-3.961-2.851l-1.135 1.647zm3.895 2.804a66.222 66.222 0 004.085 2.835l1.076-1.686a63.91 63.91 0 01-3.96-2.748l-1.2 1.599zm4.08 2.832c1.441.932 2.94 1.69 4.498 2.272l.7-1.873a21.272 21.272 0 01-4.112-2.079l-1.086 1.68zm4.485 2.267c1.606.626 3.29.939 5.045.939v-2c-1.512 0-2.95-.268-4.318-.802l-.727 1.863zm5.045.939c1.848 0 3.43-.345 4.638-1.146l-1.105-1.667c-.76.504-1.903.813-3.533.813v2zm4.638-1.146c1.258-.834 1.925-2.05 1.925-3.553h-2c0 .818-.319 1.415-1.03 1.886l1.105 1.667zm1.925-3.553c0-.818-.257-1.618-.7-2.385l-1.732 1c.31.538.432.995.432 1.385h2zm-.997-1.063l.157-.108-1.138-1.645-.157.109 1.138 1.644zm-1.287-.448c.385.7.535 1.27.535 1.729h2c0-.894-.29-1.798-.784-2.695l-1.752.966zm.535 1.729c0 .98-.398 1.745-1.297 2.368l1.138 1.645c1.405-.973 2.159-2.335 2.159-4.013h-2zm-1.297 2.368c-.93.644-2.268 1.019-4.114 1.019v2c2.093 0 3.877-.423 5.252-1.374l-1.139-1.645zM42.332 36a10.2 10.2 0 01-2.606-.33l-.507 1.935c1.007.264 2.046.395 3.113.395v-2zm-2.63-.336c-.818-.193-1.71-.543-2.675-1.066l-.953 1.759c1.087.588 2.144 1.012 3.17 1.254l.458-1.947zm-2.675-1.066c-.975-.528-2.109-1.262-3.405-2.212L32.44 34c1.343.984 2.555 1.772 3.634 2.357l.953-1.76zm-3.405-2.212c-1.298-.95-2.842-2.17-4.634-3.66l-1.279 1.538c1.811 1.506 3.389 2.753 4.73 3.736l1.183-1.614zm-4.63-3.657c-1.9-1.594-3.819-2.843-5.757-3.732l-.834 1.817c1.748.803 3.517 1.947 5.305 3.447l1.285-1.532zm-5.743-3.726c-1.908-.91-3.689-1.394-5.319-1.366l.034 2c1.219-.021 2.685.341 4.423 1.171l.862-1.805zm-5.302-1.366c-.661 0-1.293.137-1.841.473l1.042 1.706c.164-.1.413-.18.799-.18v-2zm-1.864.487c-.56.363-.959.93-.959 1.673h2l-.003.02a.138.138 0 01-.015.034c-.01.017-.004-.004.066-.05l-1.09-1.677zm-.959 1.673c0 .902.515 1.563 1.24 1.963l.966-1.751a.542.542 0 01-.192-.15.06.06 0 01-.009-.017.16.16 0 01-.005-.045h-2zm1.24 1.963c.678.374 1.49.523 2.369.523v-2c-.672 0-1.117-.116-1.403-.274l-.966 1.751z" fill="#fff" mask="url(#b)"/></g><defs><filter id="a" x=".5" y="-6.5" width="54.5" height="52.5" filterUnits="userSpaceOnUse" color-interpolation-filters="sRGB"><feFlood flood-opacity="0" result="BackgroundImageFix"/><feColorMatrix in="SourceAlpha" values="0 0 0 0 0 0 0 0 0 0 0 0 0 0 0 0 0 0 127 0" result="hardAlpha"/><feOffset dy="4"/><feGaussianBlur stdDeviation="2"/><feComposite in2="hardAlpha" operator="out"/><feColorMatrix values="0 0 0 0 0 0 0 0 0 0 0 0 0 0 0 0 0 0 0.25 0"/><feBlend in2="BackgroundImageFix" result="effect1_dropShadow"/><feBlend in="SourceGraphic" in2="effect1_dropShadow" result="shape"/></filter></defs></svg>