<svg width="159" height="92" fill="none" xmlns="http://www.w3.org/2000/svg"><path d="M72.782 50.94h.496l-.434.496c-2.067 2.356-4.526 4.526-7.378 6.51a54.097 54.097 0 01-9.238 5.146 54.676 54.676 0 01-10.106 3.348c-3.472.827-6.861 1.24-10.168 1.24-4.67 0-8.97-.723-12.896-2.17-3.927-1.447-7.337-3.472-10.23-6.076a26.945 26.945 0 01-6.696-9.238C4.52 46.6 3.714 42.694 3.714 38.478c0-4.877.971-9.383 2.914-13.516 1.943-4.175 4.65-7.812 8.122-10.912 3.513-3.1 7.605-5.497 12.276-7.192 4.712-1.736 9.817-2.604 15.314-2.604 2.852 0 5.662.248 8.432.744 2.77.496 5.332 1.199 7.688 2.108 2.397.91 4.464 1.963 6.2 3.162 1.777 1.199 3.059 2.48 3.844 3.844l-.31.186c-.785-1.364-2.046-2.625-3.782-3.782-1.695-1.157-3.72-2.17-6.076-3.038-2.356-.91-4.919-1.612-7.688-2.108a46.35 46.35 0 00-8.308-.744c-5.456 0-10.52.847-15.19 2.542-4.63 1.695-8.68 4.071-12.152 7.13a33.28 33.28 0 00-8.06 10.788c-1.901 4.092-2.852 8.556-2.852 13.392 0 4.175.785 8.019 2.356 11.532a26.85 26.85 0 006.634 9.114c2.852 2.604 6.22 4.609 10.106 6.014 3.885 1.447 8.143 2.17 12.772 2.17 3.306 0 6.654-.393 10.044-1.178a53.46 53.46 0 009.92-3.224 53.416 53.416 0 009.052-5.022c2.81-1.943 5.27-4.092 7.378-6.448l.434-.496zM30.808 61.17c1.86 0 3.968-.351 6.324-1.054 2.397-.703 4.836-1.757 7.316-3.162 2.521-1.405 4.877-3.162 7.068-5.27a117.691 117.691 0 005.952-5.58 326.75 326.75 0 006.262-6.572 887.49 887.49 0 006.324-6.882 567.222 567.222 0 016.076-6.572 148.605 148.605 0 015.456-5.642c2.19-2.15 4.05-3.658 5.58-4.526 1.53-.868 2.728-1.302 3.596-1.302 1.157 0 1.736.703 1.736 2.108 0 1.819-.579 3.823-1.736 6.014-1.157 2.19-2.77 4.443-4.836 6.758-2.067 2.315-4.464 4.609-7.192 6.882a85.692 85.692 0 01-8.866 6.448 86.2 86.2 0 01-9.796 5.332c-3.39 1.53-6.758 2.749-10.106 3.658-3.348.868-6.572 1.302-9.672 1.302-5.208 0-9.507-.785-12.896-2.356-3.39-1.57-5.931-3.658-7.626-6.262-1.653-2.645-2.48-5.58-2.48-8.804 0-2.81.64-5.394 1.922-7.75 1.323-2.397 3.162-4.485 5.518-6.262 2.356-1.777 5.105-3.162 8.246-4.154 3.182-.992 6.634-1.488 10.354-1.488 4.01 0 7.212.6 9.61 1.798 2.397 1.199 4.133 2.749 5.208 4.65 1.116 1.86 1.674 3.823 1.674 5.89 0 1.901-.517 3.679-1.55 5.332-.992 1.653-2.377 3.1-4.154 4.34-1.736 1.24-3.782 2.211-6.138 2.914-2.315.703-4.795 1.054-7.44 1.054-3.183 0-5.766-.6-7.75-1.798-1.984-1.199-2.976-2.79-2.976-4.774 0-1.777.785-3.369 2.356-4.774 1.612-1.405 3.761-2.521 6.448-3.348 2.728-.827 5.787-1.24 9.176-1.24 2.976 0 6.055.33 9.238.992a55.187 55.187 0 019.362 2.666c3.017 1.116 5.766 2.418 8.246 3.906 2.48 1.488 4.464 3.08 5.952 4.774l-.248.248c-1.488-1.653-3.452-3.203-5.89-4.65-2.439-1.488-5.167-2.79-8.184-3.906a53.83 53.83 0 00-9.238-2.666c-3.183-.661-6.262-.992-9.238-.992-3.307 0-6.303.413-8.99 1.24-2.645.785-4.753 1.86-6.324 3.224-1.53 1.323-2.294 2.831-2.294 4.526 0 1.86.95 3.369 2.852 4.526 1.901 1.116 4.402 1.674 7.502 1.674 3.513 0 6.696-.6 9.548-1.798 2.852-1.199 5.125-2.79 6.82-4.774 1.695-2.025 2.542-4.257 2.542-6.696 0-3.679-1.447-6.593-4.34-8.742-2.852-2.15-6.779-3.224-11.78-3.224-3.679 0-7.089.496-10.23 1.488-3.1.95-5.807 2.294-8.122 4.03-2.315 1.736-4.113 3.782-5.394 6.138-1.281 2.356-1.922 4.898-1.922 7.626 0 3.513.91 6.551 2.728 9.114 1.819 2.521 4.422 4.485 7.812 5.89 3.39 1.364 7.42 2.046 12.09 2.046 3.596 0 7.337-.579 11.222-1.736 3.927-1.199 7.833-2.79 11.718-4.774a87.898 87.898 0 0011.036-6.82c3.472-2.521 6.53-5.125 9.176-7.812 2.686-2.687 4.794-5.311 6.324-7.874 1.57-2.604 2.356-4.94 2.356-7.006 0-1.157-.455-1.736-1.364-1.736-.827 0-1.963.455-3.41 1.364-1.406.91-3.183 2.397-5.332 4.464-2.108 2.15-4.257 4.691-6.448 7.626a950.405 950.405 0 00-6.634 9.176 189.77 189.77 0 01-7.13 9.238c-2.48 2.976-5.084 5.621-7.812 7.936a36.25 36.25 0 01-9.114 5.58c-3.265 1.405-6.551 2.108-9.858 2.108-2.81 0-4.919-.207-6.324-.62-1.364-.372-2.273-.847-2.728-1.426-.455-.579-.682-1.137-.682-1.674 0-.579.31-1.137.93-1.674.661-.537 1.653-.806 2.976-.806 2.81 0 5.518.496 8.122 1.488a47.63 47.63 0 017.812 3.658 234.924 234.924 0 017.75 4.836 130.194 130.194 0 007.936 4.774 46.878 46.878 0 008.494 3.72c2.934.992 6.014 1.488 9.238 1.488 3.43 0 6.117-.558 8.06-1.674 1.942-1.116 2.914-2.666 2.914-4.65 0-1.033-.372-2.108-1.116-3.224l.31-.186c.868 1.364 1.302 2.625 1.302 3.782 0 2.273-1.137 4.092-3.41 5.456-2.273 1.364-5.353 2.046-9.238 2.046-1.943 0-3.824-.207-5.642-.62-1.819-.372-3.74-1.033-5.766-1.984-2.026-.95-4.34-2.253-6.944-3.906s-5.684-3.761-9.238-6.324c-3.638-2.645-7.275-4.691-10.912-6.138-3.596-1.488-6.8-2.211-9.61-2.17-1.034 0-1.901.186-2.604.558-.662.372-.992.847-.992 1.426 0 .785.475 1.405 1.426 1.86.95.455 2.19.682 3.72.682z" fill="#121218"/><path d="M71.68 59.434c-.495 0-.867-.227-1.115-.682-.29-.455-.434-1.075-.434-1.86 0-1.075.33-2.211.992-3.41.62-1.199 1.467-2.356 2.542-3.472a21.539 21.539 0 013.596-3.1 18.058 18.058 0 014.092-2.232c1.447-.537 2.81-.806 4.092-.806 1.075 0 1.612.413 1.612 1.24 0 .785-.496 1.777-1.488 2.976a113.79 113.79 0 01-3.72 4.092 51.01 51.01 0 01-3.782 3.534c-1.281 1.075-2.48 1.963-3.596 2.666-1.116.703-2.046 1.054-2.79 1.054zm.063-.31c.62 0 1.426-.31 2.418-.93 1.033-.62 2.19-1.467 3.472-2.542a53.364 53.364 0 003.968-3.72c1.488-1.57 2.687-2.914 3.596-4.03.95-1.116 1.426-2.025 1.426-2.728 0-.537-.351-.806-1.054-.806-.62 0-1.426.248-2.418.744-.95.496-1.984 1.178-3.1 2.046a33.619 33.619 0 00-3.286 2.79 51.561 51.561 0 00-2.976 3.1c-.868 1.033-1.57 2.005-2.108 2.914-.537.91-.806 1.674-.806 2.294 0 .579.29.868.868.868zm15.5-7.688c-1.033 1.157-2.025 2.067-2.976 2.728-.95.661-1.777.992-2.48.992-1.116 0-1.674-.579-1.674-1.736 0-.661.165-1.302.496-1.922.33-.661.91-1.467 1.736-2.418h2.294l-2.914 3.224c-.496.496-.744 1.054-.744 1.674 0 .579.29.868.868.868.579 0 1.281-.29 2.108-.868.868-.579 1.757-1.385 2.666-2.418l.558-.62h.496l-.434.496z" fill="#121218"/><path d="M85.595 59.434c-1.116 0-1.674-.62-1.674-1.86 0-1.943 1.095-4.154 3.286-6.634l40.734-46.128h3.906c-.661.33-1.674 1.116-3.038 2.356-1.323 1.199-2.873 2.707-4.65 4.526a162.816 162.816 0 00-5.456 5.89L89.935 50.196c-1.901 2.108-3.224 3.74-3.968 4.898-.744 1.157-1.116 2.15-1.116 2.976 0 .703.29 1.054.868 1.054 1.075 0 2.542-.661 4.402-1.984 1.86-1.364 3.823-3.224 5.89-5.58l.558-.62h.496l-.434.496c-2.273 2.563-4.36 4.547-6.262 5.952-1.86 1.364-3.451 2.046-4.774 2.046zm9.362 0c-1.116 0-1.674-.62-1.674-1.86 0-1.943 1.095-4.154 3.286-6.634l42.16-47.74c.579 0 1.24-.041 1.984-.124a30.647 30.647 0 002.232-.434c-.661.33-1.757 1.22-3.286 2.666-1.529 1.447-3.307 3.245-5.332 5.394a296.422 296.422 0 00-6.262 6.882L99.297 50.196c-1.901 2.108-3.224 3.74-3.968 4.898-.744 1.157-1.116 2.15-1.116 2.976 0 .703.29 1.054.868 1.054 1.075 0 2.542-.661 4.402-1.984 1.86-1.364 3.823-3.224 5.89-5.58l.558-.62h.496l-.434.496c-2.273 2.563-4.361 4.547-6.262 5.952-1.86 1.364-3.451 2.046-4.774 2.046z" fill="#121218"/><path d="M78.016 91.426c-2.232 0-3.947-.413-5.146-1.24-1.199-.827-1.798-2.025-1.798-3.596 0-.992.33-1.84.992-2.542.62-.703 1.426-1.178 2.418-1.426v.31c-.91.207-1.633.64-2.17 1.302-.579.661-.868 1.447-.868 2.356 0 1.405.537 2.5 1.612 3.286 1.075.785 2.542 1.178 4.402 1.178 2.397 0 4.857-.682 7.378-2.046 2.48-1.323 5.043-3.183 7.688-5.58 2.645-2.397 5.373-5.229 8.184-8.494a229.036 229.036 0 008.494-10.54 739.439 739.439 0 008.99-11.904l.124.682h-1.24l5.208-5.332 2.728-3.286h3.472a69.628 69.628 0 00-3.472 2.728 88.91 88.91 0 00-3.658 3.224 46.198 46.198 0 00-3.162 3.224 585.332 585.332 0 01-8.184 11.966c-2.604 3.803-5.187 7.275-7.75 10.416-2.563 3.141-5.125 5.849-7.688 8.122-2.604 2.315-5.27 4.092-7.998 5.332a20.448 20.448 0 01-8.556 1.86zm29.946-31.992c-1.033 0-1.55-.579-1.55-1.736 0-1.033.31-2.005.93-2.914a14.82 14.82 0 012.294-2.604 136.95 136.95 0 012.79-2.48c.951-.785 1.736-1.53 2.356-2.232.62-.744.93-1.467.93-2.17 0-.455-.248-.682-.744-.682s-1.199.269-2.108.806c-.868.496-1.839 1.178-2.914 2.046a32.18 32.18 0 00-2.976 2.852l-.558.62h-.496l.558-.62c1.653-1.819 3.245-3.265 4.774-4.34 1.571-1.116 2.831-1.674 3.782-1.674.372 0 .765.165 1.178.496.455.33.682.889.682 1.674 0 .91-.331 1.819-.992 2.728-.661.868-1.488 1.715-2.48 2.542a52.018 52.018 0 01-2.914 2.356c-.992.744-1.819 1.467-2.48 2.17-.661.703-.992 1.364-.992 1.984 0 .29.103.517.31.682.207.124.434.186.682.186.579 0 1.364-.269 2.356-.806 1.033-.579 2.149-1.323 3.348-2.232a32.474 32.474 0 003.348-2.914h.434a31.011 31.011 0 01-3.472 3.1c-1.24.95-2.397 1.715-3.472 2.294-1.075.579-1.943.868-2.604.868z" fill="#121218"/></svg>