<svg width="75" height="50" fill="none" xmlns="http://www.w3.org/2000/svg"><path d="M37.205 27.2h.267l-.234.28c-1.113 1.326-2.438 2.548-3.974 3.665a28.798 28.798 0 01-4.976 2.898 28.56 28.56 0 01-5.444 1.886c-1.87.465-3.696.698-5.477.698-2.516 0-4.832-.407-6.947-1.222s-3.952-1.955-5.51-3.422a15.166 15.166 0 01-3.607-5.202C.434 24.756 0 22.556 0 20.18c0-2.746.523-5.283 1.57-7.611a18.75 18.75 0 014.375-6.145c1.892-1.746 4.097-3.096 6.612-4.05 2.539-.978 5.289-1.467 8.25-1.467 1.536 0 3.05.14 4.542.419 1.492.28 2.872.675 4.141 1.187 1.292.512 2.405 1.106 3.34 1.78.957.676 1.648 1.397 2.07 2.166l-.166.104c-.423-.768-1.102-1.478-2.038-2.13-.912-.651-2.003-1.222-3.273-1.71a21.739 21.739 0 00-4.14-1.188 23.912 23.912 0 00-4.476-.419c-2.94 0-5.667.478-8.183 1.432-2.493.954-4.675 2.293-6.546 4.015a18.7 18.7 0 00-4.341 6.076C.712 14.944.2 17.458.2 20.182c0 2.35.423 4.515 1.27 6.494a15.109 15.109 0 003.573 5.133c1.536 1.466 3.351 2.595 5.444 3.387 2.093.814 4.386 1.222 6.88 1.222a22.92 22.92 0 005.41-.664 27.911 27.911 0 005.344-1.816 28.424 28.424 0 004.876-2.828 22.684 22.684 0 003.974-3.63l.234-.28zm-22.61 5.76c1.002 0 2.137-.197 3.406-.593 1.292-.395 2.605-.989 3.941-1.78a18.494 18.494 0 003.808-2.968 64.635 64.635 0 003.206-3.143 180.795 180.795 0 003.373-3.7 488.07 488.07 0 003.407-3.877 316.006 316.006 0 013.273-3.7 82.172 82.172 0 012.938-3.178c1.18-1.21 2.182-2.06 3.006-2.549.824-.489 1.47-.733 1.937-.733.624 0 .935.396.935 1.187 0 1.024-.311 2.153-.935 3.387-.623 1.234-1.491 2.502-2.605 3.806a37.287 37.287 0 01-3.874 3.875 46.278 46.278 0 01-4.776 3.632 45.843 45.843 0 01-5.276 3.002 35.477 35.477 0 01-5.444 2.06c-1.804.49-3.54.734-5.21.734-2.806 0-5.121-.442-6.947-1.327-1.826-.885-3.195-2.06-4.108-3.527-.89-1.49-1.336-3.142-1.336-4.958 0-1.582.345-3.037 1.035-4.364.713-1.35 1.704-2.526 2.973-3.527 1.269-1 2.75-1.78 4.442-2.34 1.714-.558 3.573-.837 5.577-.837 2.16 0 3.885.337 5.177 1.012 1.291.676 2.226 1.548 2.805 2.62a6.565 6.565 0 01.902 3.316 5.748 5.748 0 01-.835 3.003c-.534.931-1.28 1.746-2.238 2.444-.935.698-2.037 1.245-3.306 1.641-1.247.396-2.583.594-4.008.594-1.714 0-3.106-.338-4.175-1.013-1.068-.675-1.603-1.571-1.603-2.688 0-1.001.423-1.897 1.27-2.689.868-.791 2.026-1.42 3.473-1.885 1.47-.466 3.117-.699 4.943-.699 1.603 0 3.262.186 4.976.559 1.737.35 3.418.85 5.043 1.501a25.946 25.946 0 014.442 2.2c1.336.838 2.405 1.734 3.206 2.689l-.133.14c-.802-.932-1.86-1.805-3.173-2.62-1.314-.837-2.783-1.57-4.409-2.2a28.034 28.034 0 00-4.976-1.5 23.419 23.419 0 00-4.976-.56c-1.781 0-3.396.234-4.843.7-1.425.441-2.56 1.047-3.406 1.815-.824.745-1.236 1.594-1.236 2.549 0 1.047.512 1.897 1.536 2.549 1.024.628 2.371.942 4.041.942 1.893 0 3.607-.337 5.143-1.012 1.537-.675 2.761-1.572 3.674-2.689.913-1.14 1.37-2.397 1.37-3.77 0-2.072-.78-3.713-2.338-4.924-1.537-1.21-3.652-1.816-6.346-1.816-1.982 0-3.818.28-5.51.838-1.67.536-3.129 1.292-4.376 2.27-1.246.978-2.215 2.13-2.905 3.457a9.169 9.169 0 00-1.036 4.294c0 1.979.49 3.69 1.47 5.133.98 1.42 2.382 2.526 4.208 3.317 1.826.768 3.997 1.152 6.513 1.152 1.937 0 3.952-.326 6.045-.977a37.816 37.816 0 006.312-2.689 47.049 47.049 0 005.945-3.84c1.87-1.42 3.518-2.887 4.942-4.4 1.448-1.513 2.583-2.991 3.407-4.435.846-1.466 1.27-2.781 1.27-3.945 0-.652-.246-.978-.736-.978-.445 0-1.057.256-1.837.768-.756.513-1.714 1.35-2.872 2.514-1.135 1.21-2.293 2.642-3.473 4.295a537.811 537.811 0 00-3.574 5.168 106.434 106.434 0 01-3.84 5.202 35.676 35.676 0 01-4.209 4.47 19.392 19.392 0 01-4.909 3.142c-1.759.791-3.529 1.187-5.31 1.187-1.514 0-2.65-.116-3.407-.349-.734-.21-1.224-.477-1.47-.803-.244-.326-.367-.64-.367-.943 0-.326.167-.64.501-.943.357-.302.891-.453 1.604-.453 1.514 0 2.972.279 4.375.838a25.169 25.169 0 014.208 2.06c1.38.86 2.772 1.769 4.174 2.723a69.545 69.545 0 004.275 2.689c1.47.86 2.995 1.56 4.576 2.095 1.58.558 3.24.838 4.976.838 1.848 0 3.295-.315 4.342-.943 1.046-.629 1.57-1.502 1.57-2.619 0-.582-.201-1.187-.602-1.816l.167-.104c.468.768.702 1.478.702 2.13 0 1.28-.613 2.304-1.837 3.072-1.225.768-2.884 1.152-4.977 1.152-1.046 0-2.06-.116-3.039-.349-.98-.21-2.015-.582-3.106-1.117-1.09-.535-2.338-1.269-3.74-2.2-1.403-.93-3.062-2.118-4.977-3.561-1.959-1.49-3.918-2.642-5.878-3.457-1.937-.838-3.662-1.245-5.176-1.222-.557 0-1.024.105-1.403.314-.356.21-.534.477-.534.803 0 .443.256.792.768 1.048s1.18.384 2.004.384z" fill="#121218"/><path d="M36.612 31.983c-.267 0-.468-.128-.601-.384-.156-.256-.234-.605-.234-1.047 0-.605.178-1.246.534-1.92a8.39 8.39 0 011.37-1.956 11.771 11.771 0 011.937-1.746 9.607 9.607 0 012.204-1.257c.78-.302 1.514-.454 2.204-.454.58 0 .869.233.869.699 0 .442-.268 1-.802 1.676a63.138 63.138 0 01-2.004 2.304 27.986 27.986 0 01-2.037 1.99 18.004 18.004 0 01-1.937 1.502c-.601.395-1.102.593-1.503.593zm.033-.174c.334 0 .768-.175 1.303-.524.556-.35 1.18-.826 1.87-1.432a29.315 29.315 0 002.138-2.095 41.542 41.542 0 001.937-2.27c.512-.628.768-1.14.768-1.535 0-.303-.19-.454-.568-.454-.334 0-.768.14-1.303.419-.512.279-1.068.663-1.67 1.152-.6.465-1.19.99-1.77 1.571a28.506 28.506 0 00-1.602 1.746 12.402 12.402 0 00-1.136 1.64c-.29.513-.434.944-.434 1.293 0 .326.156.489.467.489zm8.35-4.33c-.557.652-1.091 1.164-1.603 1.536-.512.373-.958.559-1.336.559-.601 0-.902-.326-.902-.978 0-.372.09-.733.267-1.082.178-.372.49-.826.935-1.362h1.236l-1.57 1.816c-.267.28-.4.593-.4.943 0 .325.156.488.467.488.312 0 .69-.163 1.136-.488.467-.326.946-.78 1.436-1.362l.3-.35h.268l-.234.28z" fill="#121218"/><path d="M44.107 31.983c-.601 0-.902-.349-.902-1.047 0-1.094.59-2.34 1.77-3.736L66.918 1.222h2.104c-.356.186-.902.629-1.637 1.327a60.305 60.305 0 00-2.505 2.549 90.52 90.52 0 00-2.938 3.317L46.444 26.78c-1.024 1.187-1.737 2.106-2.138 2.758-.4.652-.6 1.21-.6 1.676 0 .396.155.594.467.594.579 0 1.37-.373 2.371-1.118 1.002-.768 2.06-1.815 3.173-3.142l.3-.35h.268l-.234.28c-1.225 1.443-2.349 2.56-3.373 3.352-1.002.768-1.86 1.152-2.572 1.152zm5.043 0c-.601 0-.902-.349-.902-1.047 0-1.094.59-2.34 1.77-3.736L72.73.314a9.28 9.28 0 001.069-.07A15.8 15.8 0 0075 0c-.356.186-.946.687-1.77 1.501a74.438 74.438 0 00-2.872 3.038 164.072 164.072 0 00-3.373 3.876L51.488 26.78c-1.024 1.187-1.737 2.106-2.137 2.758-.401.652-.602 1.21-.602 1.676 0 .396.156.594.468.594.579 0 1.37-.373 2.371-1.118 1.002-.768 2.06-1.815 3.173-3.142l.3-.35h.268l-.234.28c-1.225 1.443-2.349 2.56-3.373 3.352-1.002.768-1.86 1.152-2.572 1.152z" fill="#121218"/><path d="M40.025 50c-1.203 0-2.127-.233-2.773-.698-.645-.466-.968-1.14-.968-2.026 0-.558.178-1.035.534-1.431a2.476 2.476 0 011.303-.803v.175c-.49.116-.88.36-1.17.733a2.001 2.001 0 00-.467 1.326c0 .792.29 1.409.869 1.851.579.442 1.369.663 2.37.663 1.292 0 2.617-.384 3.975-1.152 1.336-.745 2.717-1.792 4.142-3.142 1.425-1.35 2.894-2.945 4.408-4.784a128.17 128.17 0 004.576-5.936 414.842 414.842 0 004.842-6.703l.067.384h-.668l2.806-3.003 1.469-1.85h1.87c-.579.442-1.202.954-1.87 1.536a48.47 48.47 0 00-1.97 1.815 25.432 25.432 0 00-1.704 1.816 328.967 328.967 0 01-4.408 6.739 87.279 87.279 0 01-4.175 5.866c-1.38 1.769-2.76 3.294-4.141 4.574-1.403 1.303-2.84 2.304-4.309 3.002A10.613 10.613 0 0140.025 50zm16.13-18.017c-.556 0-.834-.326-.834-.977 0-.582.167-1.13.5-1.642.335-.512.747-1 1.236-1.466a74.284 74.284 0 011.503-1.397 11.5 11.5 0 001.27-1.257c.333-.419.5-.826.5-1.222 0-.256-.133-.384-.4-.384-.268 0-.646.152-1.136.454-.467.28-.99.664-1.57 1.152a17.652 17.652 0 00-1.603 1.607l-.3.349h-.267l.3-.35c.89-1.024 1.748-1.838 2.572-2.444.846-.628 1.525-.942 2.037-.942.2 0 .412.093.634.279.245.186.368.5.368.943 0 .512-.178 1.024-.535 1.536a8.756 8.756 0 01-1.335 1.432 28.54 28.54 0 01-1.57 1.326c-.534.42-.98.827-1.336 1.223-.356.395-.534.768-.534 1.117 0 .163.055.29.167.384.111.07.233.105.367.105.312 0 .735-.152 1.27-.454a15.768 15.768 0 001.803-1.257 17.792 17.792 0 001.803-1.641h.234a16.966 16.966 0 01-1.87 1.745c-.668.536-1.292.966-1.87 1.292-.58.326-1.047.49-1.403.49z" fill="#121218"/></svg>