<svg width="471" height="1030" fill="none" xmlns="http://www.w3.org/2000/svg"><path opacity=".5" d="M12.358 414.716c1.92-11.925 32.835 11.821 48.053 25.185-7.886 10.893-26.455 31.255-37.646 25.561-11.19-5.694-1.36-17.553 4.954-22.77-5.92-4.356-17.28-16.05-15.36-27.976zM205 803c14 18 16 58 18 80 2 22.001-30.6 12.4-41 6-13-8-53-69-72-86-19-16.999-31-46-9-71s43 10 51 14 39 39 53 57zm80.999-736c-1.6 9.6-11 26 8 30C313 101 339 54 339 54l-26 13V38c-4 9.667-12.2 26.4-13 16-.8-10.4-9.667-15-14.001-16 .667 5.667 1.6 19.4 0 29zM176 68c12.8 13.6-13.333 47-28 62-10-9-34.8-30.2-54-43-24-16-15-35-5-30s17 0 29 11c9.6 8.8 24 35 30 47-3.333-12.333-10-41.2-10-58 0-21 22-6 38 11zM84 290c27 26 26-91 17-111s-51 0-67 0c-20 0-19 35-21 55s44 30 71 56zm211-60c8.667-9.333 31-25.2 51-14 25 14 43 56 44 67s12 85-11 88c-15.039 1.962-31.789 1.358-46.334.705-5.883 3.111-9.716 2.162-12.91-.551A230.693 230.693 0 00312 371c-17 0-21 6-35 12s-28-13-45-31-52-31-54-50-25-58-6-72 40-21 54-14 50 30 33 44c-27 42-36 44-6 68s17.001 24 42 24c14.153 0 18.05 13.461 24.756 19.154 4.006.137 8.349.346 12.91.551 3.579-1.893 7.918-5.289 13.334-10.705 33-33 41.001-40 33-59-8-19 1-68-33-55s-49 26-59 13c-8-10.4 2-24.333 8-30z" fill="#D2DFE6"/><path d="M67 317.5c-2.863 2.049-8.323 9.379-31.638 29.189C12.047 366.5-4 372 2.23 379.883c6.23 7.883 12.271 12.021 25.77 17.211 13.498 5.19 13.498-11.064 4.908-11.064s-8.372 12.437-9.816 19.67c-1.227 6.147-8.59 13.523-8.59 18.441m0 0c0 6.147 1.226 8.606 13.498 9.835m-13.498-9.835c2.454-3.688 8.59-11.065 18.406-7.376 6.5 2.442 14.317 14.342 17.18 20.899M28 433.976c8.748.877 18.816 2.869 22.089 3.688m-22.09-3.688c-7.362 6.147-15.176 10.486-13.497 17.212.754 3.023 2.983 5.066 6.135 5.841m29.452-19.365c-2.455 4.918-9.606 12.904-14.727 15.982-5.62 3.379-10.865 4.331-14.725 3.383m0 0c1.227 2.151 3.436 7.682 2.455 12.599-1.227 6.147-11.045 18.441-11.045 23.359 0 14.457 10.005 18.891 26.998 19.562M286.93 409.388c-2.045 4.918-8.835 14.261-14.726 22.129-7.363 9.835-89.582 61.47-103.081 71.305-7.157 5.214-31.906 4.917-78.538 7.376-20.52 1.082-38.188 2.878-51.541 2.351m0 0c27.406 9.051 79.765 23.466 107.99 56.66 19.628 23.084 30.328 43.694 36.345 62.699m10.287 82.369c-3.02-25.713-.67-51.989-10.287-82.369m0 0c-29.705 2.459-92.794 7.376-119.792 43.029-47.479 62.698-17.18 147.526-8.59 188.096 6.872 32.456 17.59 115.153 22.089 152.447m94.491-279.074c0 7.376 1.718 24.096 8.59 31.964 8.59 9.835 20.862 17.212 26.998 20.9m-103.082 17.211c14.317 13.524 40.321 31.964 42.951 62.699 3.681 43.029-2.454 82.369 3.681 114.334 4.909 25.566 17.999 31.146 25.771 45.486M360.56 631.908c-15.544-7.376-51.05-18.933-68.721-6.147-22.089 15.982-53.995 33.194-58.904 154.903-3.927 97.368-6.545 199.571-7.363 238.506m184.074-195.477c-.409 17.621-.599 72.638-2.454 99.58-2.454 35.653-16.771 68.027-19.635 92.207m-74.856-564.292c2.454 28.276 10.799 89.745 24.543 109.415 17.18 24.588 78.869 55.682 107.99 87.287 29.452 31.964 84.674 132.774 100.627 196.702 15.389 61.667 9.817 140.151 9.817 170.888M294.78 122.429c-1.647-4.147-8.176-9.721-21.115 1.167-5.385 4.531-9.775 8.815-13.209 12.515m34.324-13.682c-.564-4.207.835-15.175 10.945-25.385s26.944-1.815 33.533-.549M294.78 122.43c4.474-7.312 8.991-23.06-8.73-27.557m-34.504 52.444c2.319 2.589 10.13 7.396 22.819 5.912m-22.819-5.912c4.589-1.449 17.305-6.304 31.46-14.129 14.156-7.825 15.26-2.908 14.042.528 2.262-.342 7.765-3.298 11.682-12.383l4.608-10.688c2.323.741 8.73 1.082 15.77-3.48 7.041-4.563 10.53-9.712 10.15-10.669m-87.712 50.821c1.157-1.968 4.092-6.012 8.91-11.205m13.909 17.117c12.69-1.484 20.901-4.959 23.42-6.512.057 2.932 1.052 12.171 6.979 19.666 3.335 4.218 9.255 5.195 20.095 6.715m-50.494-19.869c-2.357.565-5.78 4.949-.611 17.966 5.169 13.017 15.196 26.657 19.563 31.849m31.542-29.946c10.84 1.52 13.556 2.097 13.668-3.201.127-5.996-.362-9.101-1.409-11.442m-12.259 14.643c-.194 1.369-2.085 5.756-8.099 12.348-6.013 6.593-18.134 14.479-23.443 17.598m45.941-106.548c.509 2.418 1.06 6.188 1.27 10.458m-28.125 38.955c.568 2.36 2.179 8.553 4.077 14.447m-30.43-65.483c-17.721-4.498-31.905-1.389-36.781.729m36.781-.73c-4.913-3.314-3.841-13.155-2.095-25.478 1.397-9.859-1.997-18.964-3.875-19.512.864-2.004 3.528-5.607 7.269-3.988 3.742 1.619 7.249 6.043 8.535 8.053m-9.834 40.926c2.485 1.676 5.527 2.53 7.916 3.704M249.269 95.6c-1.245 1.046-2.383 6.261 3.016 18.744 5.4 12.482 7.697 19.712 8.171 21.766M249.269 95.6c.864-2.004 18.641 7.512 28.86 17.641m15.188 89.801c.169-4.682 1.095-16.33 3.446-25.459 2.351-9.129.3-13.873-1.018-15.105m41.373-4.025c-1.147-2.565-2.965-4.214-5.38-7.746-7.741-11.319-19.289-11.649-22.664-11.789 4.742 1.26 16.39 1.703 25.044-6.601 5.83-5.594 6.846-16.547 6.41-25.365m-3.41 51.501c.816-1.585 4.215-5.179 11.288-6.874 7.073-1.695 14.49-7.865 17.314-10.738m0 0c-2.827-2.941-9.492-10.528-13.528-17.348-4.036-6.819-9.457-13.869-11.664-16.541m25.192 33.889c-1.336-.578-5.575-1.779-11.841-1.954-6.267-.175-7.288-2.097-7.015-3.036M318.83 66.65l9.36 1.276c-1.98 2.446-3.844 10.385-8.825 16.79-6.227 8.006-12.972 12.618-15.84 13.754-1.418.562-7.224 1.253-9.559.106M318.83 66.65l11.048-6.317c.864-2.004-.448-5.029-6.295-4.705-5.848.323-7.693 1.294-8.173 2.408-.413-.575-.649-5.116-1.745-10.663-1.096-5.548-5.615-9.96-5.615-9.96s-4.735 2.707-7.846 6.513c-3.111 3.805-3.792 8.795-4.32 10.02M318.83 66.65c-.956.379-3.958 1.458-8.317 2.742s-8.164 5.45-9.521 7.373m-5.108-22.82c-.386 1.42 1.756 4.486 4.608 11.11 2.851 6.624.788 11.042.5 11.71m0 0l-3.457 8.016-3.569 13.795m35.766-14.922c1.104-2.56 2.741-8.564.456-12.09-2.856-4.406 1.28-17.676 5.744-28.03 3.572-8.284 13.535-15.15 16.324-16.716 1.905 2.938 5.211 11.45 3.201 21.994-2.009 10.545-7.427 19.678-9.885 22.926m-15.84 11.916l-11.191 6.65m11.191-6.65a1213.036 1213.036 0 0115.84-11.916m-27.031 18.566c4.98 1.627 17.387 4.354 27.174 2.248 9.787-2.106 26.358.764 32.934-11.113 2.364-4.27 3.226-12.08 3.226-12.08m-63.334 20.945c9.066-2.946 22.343-9.18 35.577-14.868 13.234-5.688 27.757-6.076 27.757-6.076m0 0s-14.077-9.304-23.199-6.869c-6.052 1.615-7.634 5.21-13.104 9.247M166.587 183.6c-6.174-.688-17.297 3.708-12.404 26.793 2.036 9.606 4.421 17.825 6.716 24.483m5.688-51.276c-5.538-2.062-18.091-10.974-24.006-30.127-5.914-19.153 15.428-34.403 21.3-41.696m2.706 71.823c-6.049-10.306-22.43-26.195-39.568-7.298m41.802 76.9c4.7-1.162 15.722-7.64 22.215-24.255m-22.215 24.255c1.228-6.606 3.598-25.462 3.264-48.039-.335-22.577 6.427-20.716 9.85-16.963 1.062-3.013 1.037-11.733-7.554-22.515L164.273 153c2.433-2.378 7.05-10.051 6.061-21.72-.99-11.67-5.028-19.344-6.453-19.503m4.94 141.425c-1.658-2.715-4.702-8.984-7.922-18.326m30.137-5.929c6.493-16.615 7.606-29.013 7.35-33.135 3.638 1.85 15.638 6.677 28.728 4.284 7.365-1.347 12.445-8.005 21.415-20.371m-57.493 49.222c-.851 3.277 2.291 10.37 21.666 12.528 19.375 2.159 42.698-1.263 51.938-3.244m-16.111-58.506c8.971-12.366 11.459-15.336 5.026-18.946-7.282-4.086-11.415-5.518-14.977-5.762m9.951 24.708c1.555 1.137 5.703 6.343 9.859 18.076s5.9 31.842 6.252 40.43M163.881 111.777c3.304.958 8.295 2.749 13.678 5.287m29.414 60.199c3.27.846 11.932 2.918 20.415 4.441m-100.369-5.402c-17.137 18.897-22.612 38.419-23.208 45.817m23.208-45.817c-7.291 3.883-18.675-3.887-32.666-14.115-11.193-8.182-24.6-9.965-26.504-8.009-1.895-2.379-4.575-8.023-.135-11.574s12.173-4.976 15.484-5.244m43.821 38.942c3.688-1.964 6.73-5.155 9.737-7.331m-32.945 53.148c.471 2.22 6.129 7.041 24.999 8.565 18.869 1.524 29.255 3.43 32.089 4.192m-57.088-12.757c-1.895-2.378 21.443-18.056 40.581-24.015m120.248 40.127c-5.641-3.277-19.339-12.052-29.011-20.932-9.672-8.88-16.843-9.462-19.22-8.643m22.169-53.639c-3.902-.266-7.119.895-13.039 1.557-18.975 2.124-26.948 16.143-29.331 20.212 4.654-5.02 12.831-19.088 8.304-35.197-3.051-10.853-15.837-19.282-26.953-24.525m61.019 37.953c-1.412-2.043-3.598-8.589-1.045-18.418 2.553-9.83-.165-23.016-1.843-28.38m0 0c-5.465 1.558-19.151 4.801-30.172 5.307-11.021.506-23.231 2.57-27.959 3.538m58.131-8.845c-1.586 1.268-5.838 5.707-10.16 13.316-4.321 7.61-7.351 7.61-8.325 6.658M113.838 117.4l7.701-10.701c1.707 4.043 10.236 11.543 14.839 21.881 5.753 12.922 6.996 24.259 6.513 28.54-.239 2.115-3.196 9.725-6.135 11.851M113.838 117.4l-.518-17.757c-1.895-2.379-6.47-2.744-9.905 4.676-3.435 7.419-3.451 10.331-2.398 11.653-.977.132-6.708-2.554-14.24-4.838-7.532-2.284-15.913.395-15.913.395s.222 7.61 2.858 13.939 8.318 10.439 9.476 11.892m30.64-19.96c-.161 1.427-.803 5.835-2.082 12.049-1.279 6.215 1.345 13.636 2.816 16.569m-31.374-8.658c1.49 1.405 6.66.775 16.664 1.601 10.005.825 14.079 6.264 14.71 7.057m0 0l7.581 9.514 14.603 13.439m5.111-53.867c-2.421-3.039-8.721-8.99-14.549-8.484-7.284.634-20.873-13.162-30.664-25.45-7.833-9.83-9.736-26.61-9.833-31.077 4.856-.422 17.477 1.08 29.111 10.468 11.634 9.387 19.301 22.05 21.68 27.209m4.255 27.334l.834 18.154m-.834-18.154c-1.1-6.69-2.798-17.382-4.255-27.334m5.089 45.488c5.262-5.073 16.741-18.58 20.568-32.024 3.827-13.444 18.212-31.99 7.934-47.88-3.695-5.713-12.721-11.893-12.721-11.893m-15.781 91.797c2.323-13.106 3.366-33.559 5.053-53.599 1.687-20.04 10.728-38.198 10.728-38.198m0 0s-20.652 11.256-23.64 24.097c-1.982 8.519 1.396 12.824 2.77 22.212" stroke="#868C96"/><path d="M285.971 281.219c-3.272-8.196-11.781-22.129-19.634-12.294-9.818 12.294-13.499 46.717 8.59 45.487 22.089-1.229 53.995-27.046 47.859-45.487-6.136-18.441-9.817-11.065-36.815-15.982-26.997-4.918-39.269-28.276-49.086-6.147-9.817 22.129 26.997 126.627 72.402 97.122 45.405-29.506 69.948-82.37 13.499-105.728-56.449-23.358-107.99-47.947-116.581-8.606-8.59 39.341 44.178 122.939 13.499 132.774-30.679 9.836-53.995 11.065-46.632-18.44 7.363-29.506-2.454-28.276-23.316-62.699s-11.044-84.828 29.452-94.663c40.496-9.836 61.358 40.046 95.719 43.028 34.36 2.983 47.859-29.505 65.039-22.129 17.18 7.377 61.358 62.699 57.677 84.828-3.682 22.129-3.682 44.258-8.591 70.075-4.908 25.818-18.407 29.506-49.086 14.753s-12.271 40.57-53.995 31.964c-41.724-8.605-31.906-20.899-35.588-46.717-3.681-25.817-65.039-15.982-71.175-70.075-6.136-54.093 15.953-105.727-15.953-105.727s-31.906 50.405-53.995 66.387c-22.09 15.982-49.087 45.487-44.178 0 4.909-45.488 20.862-92.205 44.178-74.993m0 0c23.316 17.211-3.682 35.022-8.59 60.24-4.91 25.218 0 77.451-35.588 54.093-35.588-23.358-93.264-63.928-46.632-84.828 46.632-20.899 74.857-30.734 68.72 0-6.135 30.735-34.36 52.794-41.723 22.129-7.363-30.665 19.635-44.258 19.635-22.129S44.22 257.86 18.45 229.584s19.634-82.369 55.222-73.763c35.588 8.606 57.677 18.969 35.588 22.129z" stroke="#868C96"/></svg>