<svg width="603" height="823" fill="none" xmlns="http://www.w3.org/2000/svg"><path opacity=".5" d="M319 396.174c-15.2-12.337-133-8.675-133 7.71 0 16.386 148 61.686 164 61.686 15-1.928-15.8-57.059-31-69.396zm21-114.697c-24-8.482-68 3.534-87 10.602 14 8.353 46.8 26.988 66 34.698 19.2 7.711 52.667 8.996 67 8.675-5.333-14.458-22-45.493-46-53.975zM206 139.793c-17.334 4.819-52.4 11.566-54 0-2-14.458 0-32.771 11-37.59 11-4.82 21-12.53 32-11.566 11 .964 17-11.566 20 5.783 2.4 13.879-5 34.698-9 43.373 6.667-11.566 22.4-33.927 32-30.843 12 3.855 23 19.277 22 30.843-1 11.566-17 44.336-22 46.264-5.564 0-11.63-6.631-17.101-15.282 6.155 14.774 8.104 28.518-8.899 30.703-30 3.856-79-20.737-60-40.481 19-19.744 43.333-14.779 54-21.204zm-79 186.985c0-26.988-13.947-55.147-33-44.337-9.643 5.471-14 17.156-14 24.096 0 8.674 14 33.734 14 53.011s7 20.241 28 29.879c21 9.638 5-28.915 5-62.649zm417-171.564c8 14.651-13.333 42.088-25 53.975 13.333-11.887 42.6-37.975 53-47.228 13-11.566 17 11.566 25 36.626 8 25.06 0 29.879-8 54.939-3.464 10.85-14.895 6.191-27.191-3.372 2.126 5.588 3.639 12.134 4.191 19.757 3 41.445-13 12.53-22 24.096-7.2 9.253-28.333 3.855-38 0-8-2.249-26-12.337-34-34.698s23.333-37.59 40-42.409c-6 .642-22.4 3.855-40 11.566-22 9.638-7-3.855-17-29.879s13-29.879 17-43.373c4-13.494 21-23.132 40-23.132s22 4.819 32 23.132z" fill="#D2DFE6"/><path d="M491.221 822c-11.966-15.204-45.527-50.487-84.038-69.99-48.138-24.378-100.356-55.441-99.54-86.11.816-30.67 31.412-72.349 39.571-101.839 6.311-22.808 17.729-58.301 6.12-65.271-24.885-14.941-43.243 5.505-72.616 0-29.372-5.505-83.222-38.533-101.172-63.698-14.36-20.132-30.46-45.611-36.715-55.835 17.95 4.194 62.498 11.325 97.092 6.292 43.243-6.292 87.302-13.762 107.291 5.898 18.646 18.338 3.672 65.664 20.806 72.741 7.502 3.1 17.71.215 26.517-4.321m17.542-12.193c-4.063 3.56-10.259 8.441-17.542 12.193m0 0c-4.08 3.013-2.448 10.219 7.751 11.399 20.398 2.359 40.795-19.66 47.322-36.174 6.528-16.515 10.607-34.602 0-37.747-10.606-3.146-27.74 9.436-23.661 18.087 4.08 8.65 11.423 7.077 8.159 19.66-3.263 12.582-13.054 36.967-14.686 24.775-1.632-12.193 13.054-16.125 6.527-24.775M111.826 318.705c-4.895 1.179 1.358 10.131 0 14.548-6.527 21.233-11.422 6.684-15.502-9.044-4.08-15.728-2.448-27.524 6.527-25.164 7.18 1.887 16.046 8.126 19.582 11.009-1.904-14.941-8.976-38.533-26.109-38.533-11.422 0-32.636 17.3-18.766 52.688 13.87 35.388 29.873 67.631 45.375 61.34 15.502-6.292 7.689-34.019-4.579-31.063-27.741 6.684 15.185 70.383 4.579 160.032C114.447 586.238 8.503 624.45-7 654.858m388.074-314.527c-3.263-15.466-6.504-42.797-20.397-51.903-10.199-6.684-13.463-1.179-21.622-4.325-8.159-3.145-6.935-11.796-19.173-11.796-9.791 0-41.067 14.417-57.929 22.019m119.121 46.005c-17.677 0-50.47-3.481-67.72-12.189-17.134-8.651-44.33-23.592-51.401-33.816m119.121 46.005c-9.246-9.437-33.82-29.651-44.874-35.388-21.214-11.01-74.247-10.617-74.247-10.617M336.2 169.289c5.439 2.359 19.418 10.695 31.82 25.165 9.386 10.951 23.722 20.135 28.965 25.558M336.2 169.289l-27.741 30.669s-8.932 7.199-11.423 13.369m39.164-44.038c-10.471-6.16-35.247-19.346-50.586-22.806-11.984-2.703-25.81-1.806-35.084-.842m85.67 23.648c-2.448-3.932-7.751-13.054-9.383-18.087-2.04-6.291-2.04-14.155-5.304-35.388-2.352-15.303-11.869-18.132-24.885-20.36M336.2 169.29c13.054-6.029 40.795-20.289 47.322-29.097 1.208-1.629 1.882-3.307 2.858-4.325m-89.344 77.46c-1.902 4.713-2.761 10.802-2.447 15.335.408 5.898-2.04 10.223 11.83 21.233 13.871 11.009 37.532-2.752 61.193 0 22.811 2.653 31.82-3.932 33.86-16.121 1.286-7.686-1.071-10.228-4.487-13.762m-99.949-6.685c-3.414 4.719-9.606 10.651-19.581 15.335-15.91 7.471-40.593-29.282-50.994-34.602-19.99-10.223-.816-35.781 8.975-41.679 9.791-5.898 10.606-5.898 15.094-6.74m0 0c-3.672-3.52-11.015-12.291-11.015-19.211 0-12.975 12.239-38.533 40.387-34.208 7.752 1.19 11.831 2.395 16.726 3.233m0 0c3.808-3.83 11.423-18.41 26.109-19.354 18.358-1.18 15.095 10.223 36.308 11.01 14.686.544 22.845-8.738 36.716 7.47 11.909 13.918 9.908 25.636 7.343 29.097-4.08 5.505-11.106 6.327-16.724 12.189m10.605 84.145c11.558.607 43.083-9.698 40.795-23.592-4.08-24.771 5.303-40.612-13.871-50.779-15.339-8.134-32.091-9.905-37.529-9.774" stroke="#868C96" stroke-linecap="round" stroke-linejoin="round"/><path d="M207.369 138.738c1.698 3.008 5.212 11.815 5.685 22.983.358 8.453 3.771 18.114 4.231 22.507m-9.916-45.49l-24.62 4.913s-6.88.641-10.367 2.702m34.987-7.615c-2.664-6.557-9.486-21.413-15.467-28.38-4.673-5.443-11.519-9.49-16.277-12.254m31.744 40.634c.309-2.715 1.203-8.882 2.31-11.836 1.384-3.692 4.324-7.421 10.712-18.624 4.604-8.074 1.194-12.393-4.146-17.968m-8.876 48.428c8.444 1.674 26.931 4.543 33.318 2.632 1.182-.353 3.919-1.427 4.763-1.571m-73.068 6.554c-2.663 1.575-5.347 4.165-6.893 6.423-2.011 2.939-4.788 4.14-2.325 14.178 2.463 10.037 18.828 11.726 29.021 21.247 9.827 9.179 16.561 9.184 22.084 4.112 3.483-3.199 3.315-5.223 3.016-8.085m-44.903-37.875c-3.383 1.053-8.537 1.716-15.018.474-10.338-1.981-8.307-27.982-11.252-34.116-5.659-11.79 12.987-17.253 19.835-16.65 6.847.602 7.234.885 9.678 2.043m0 0c-.426-2.944-.631-9.653 1.956-12.935 4.85-6.154 20.207-14.025 31.94-2.2 3.231 3.256 4.715 5.244 6.724 7.34m0 0c3.237-.494 12.298-4.764 19.616-.112 9.147 5.815 3.338 10.089 13.104 17.828 6.762 5.358 14.101 3.788 14.621 16.291.446 10.736-4.883 15.598-7.393 16.349-3.992 1.195-5.888-1.695-10.743-.866m-28.165 44.429c5.254 4.301 24.057 10.36 28.165 2.976 7.324-13.164 17.325-17.389 13.239-29.317-3.243-9.463-11.423-14.549-13.239-18.088m192.837 97.763c1.318 2.335 4.046 9.172 4.414 17.843.278 6.562 2.927 14.062 3.284 17.472m-7.698-35.315l-19.113 3.814s-5.341.498-8.048 2.098m27.161-5.912c-2.068-5.09-7.364-16.624-12.007-22.032-3.628-4.226-8.943-7.368-12.637-9.513m24.644 31.545c.24-2.107.934-6.895 1.794-9.188 1.074-2.866 3.356-5.762 8.315-14.459 3.575-6.268.928-9.621-3.218-13.949m-6.891 37.596c6.556 1.299 20.907 3.527 25.866 2.044.917-.275 3.043-1.108 3.698-1.22m-56.725 5.088c-2.068 1.223-4.151 3.233-5.351 4.986-1.561 2.282-3.718 3.215-1.805 11.007 1.912 7.792 14.617 9.104 22.53 16.495 7.628 7.126 12.856 7.13 17.144 3.192 2.704-2.483 2.574-4.055 2.341-6.277m-34.859-29.403c-2.627.817-6.628 1.332-11.66.368-8.025-1.538-6.449-21.724-8.735-26.486-4.393-9.152 10.082-13.394 15.399-12.926 5.316.468 5.616.688 7.513 1.587m0 0c-.33-2.286-.489-7.494 1.519-10.042 3.765-4.777 15.687-10.888 24.796-1.708 2.508 2.528 3.661 4.071 5.22 5.699m0 0c2.513-.384 9.547-3.699 15.228-.088 7.102 4.514 2.591 7.833 10.174 13.841 5.249 4.159 10.946 2.941 11.35 12.647.347 8.335-3.791 12.109-5.739 12.692-3.1.928-4.571-1.316-8.34-.672m-21.866 34.491c4.079 3.34 18.677 8.043 21.866 2.311 5.685-10.22 13.45-13.5 10.277-22.76-2.517-7.346-8.868-11.295-10.277-14.042" stroke="#868C96" stroke-linecap="round" stroke-linejoin="round"/><path d="M432.56 141.947c-2.259 2.642-7.444 10.646-10.109 21.525-2.016 8.234-7.27 16.621-8.586 20.849m18.695-42.374l23.204 9.329s6.629 1.413 9.647 4.076m-32.851-13.405c3.907-5.95 13.531-19.288 20.776-25.034 5.66-4.489 13.178-7.684 18.394-9.526m-39.17 34.56c.232-2.722.568-8.941.063-12.043-.632-3.878-2.783-8.078-6.849-20.246-2.93-8.769 1.269-12.86 7.61-17.357m-.824 49.646c-8.621.098-22.49-2.456-29.048-3.72-2.04-.393-5.287-.944-7.343-1.246m69.242 18.371c2.304 2.033 4.429 5.067 5.502 7.567 1.395 3.253 3.886 4.941-.51 14.345-4.395 9.404-20.795 8.068-32.678 15.551-11.456 7.214-18.068 5.987-22.492-.004-2.789-3.778-2.226-5.734-1.368-8.49m51.546-28.969c3.114 1.652 8.043 3.246 14.652 3.213 10.54-.054 13.667-25.954 17.766-31.437 7.879-10.54-9.352-19.316-16.194-19.977-6.842-.662-7.278-.454-9.905.236m0 0c.998-2.813 2.52-9.362.627-13.058-3.549-6.93-17.077-17.468-30.925-8.005-3.814 2.606-5.663 4.286-8.048 5.977m0 0c-3.081-1.077-11.136-6.928-19.237-3.7-10.126 4.035-5.264 9.295-16.378 15.106-7.694 4.023-14.59 1.14-17.563 13.32-2.553 10.459-2.527 16.002 2.908 17.988 4.488 1.639 8.734 1.332 13.055 1.966m17.696 47.34c-6.007 3.262-25.661 5.77-28.24-2.231-4.597-14.265-13.941-20.34-6.483-30.642 5.966-8.242 7.795-9.796 17.027-14.467" stroke="#868C96" stroke-linecap="round" stroke-linejoin="round"/><path d="M519.413 208.811c-2.213-4.225-9.839-14.999-22.641-24.298-9.689-7.038-18.402-18.372-23.221-22.329m45.862 46.627l-25.15 23.115s-6.164 7.036-11.338 9.237m36.488-32.352c5.641 8.074 17.801 27.228 21.317 39.26 2.747 9.399 2.139 20.082 1.657 27.469m-22.974-66.729c3.445 1.796 11.423 5.665 15.777 6.773 5.443 1.386 12.153 1.097 30.39 2.904 13.143 1.302 15.556 8.434 17.935 18.668m-64.102-28.345c4.665-10.569 15.813-33.082 23.088-38.579 1.346-1.017 4.764-3.173 5.597-3.984m-65.173 74.915c-3.951 1.681-9.115 2.585-12.994 2.503-5.048-.106-8.648 1.993-18.551-8.597-9.904-10.59.969-29.851-2.248-48.505-3.102-17.983 2.186-25.367 12.511-27.431 6.511-1.302 8.767.473 11.908 3.051m9.374 78.979c-3.9 2.879-8.734 8.005-12.365 16.085-5.79 12.885 26.477 31.1 31.397 39.149 9.457 15.47 30.56-.667 35.233-8.645 4.673-7.977 4.643-8.624 5.197-12.212m0 0c3.138 2.781 10.891 8.279 16.796 8.025 11.071-.476 32.429-11.116 27.705-33.269-1.301-6.101-2.478-9.29-3.373-13.14m0 0c3.128-3.158 15.288-9.73 15.554-21.406.332-14.595-9.277-11.589-10.727-28.375-1.004-11.621 6.616-18.429-7.723-28.828-12.313-8.929-22.238-6.912-25.097-4.752-4.547 3.436-2.628 7.785-7.424 12.453m-74.547-4.064c-.943-9.14 6.692-34.506 18.63-33.203 21.287 2.324 34.133-5.315 44.99 8.541 8.613 10.992 8.181 23.954 10.927 28.726M315.747 53.689c11.856 16.907-22.413 30.67-19.582 41.679 0 0-7.319-3.539-24.045-3.539-16.726 0-25.429 13.369-26.516 13.369-1.904-5.243-6.038-19.503-7.344-34.602-1.305-15.099 4.328-55.965-3.287-69.596 23.117 11.272 70.619 38.206 80.774 52.689z" stroke="#868C96" stroke-linecap="round" stroke-linejoin="round"/><path d="M513.598 96.428c-12.12 7.366.844 26.676-4.019 32.755 0 0 9.916-2.067 20.279 2.321 10.364 4.388 11.981 14.954 12.655 15.239 2.66-2.748 9.248-10.499 14.321-19.512 5.072-9.013 13.122-35.81 21.69-42.259-17.506.92-54.544 5.147-64.926 11.456z" stroke="#868C96" stroke-linecap="round" stroke-linejoin="round"/></svg>