<svg width="22" height="23" fill="none" xmlns="http://www.w3.org/2000/svg"><path d="M15.584 2.551H6.417c-2.531 0-4.583 2.003-4.583 4.474v8.949c0 2.47 2.052 4.474 4.583 4.474h9.166c2.532 0 4.584-2.003 4.584-4.474V7.025c0-2.47-2.052-4.474-4.584-4.474z" stroke="#A1A1A1" stroke-linecap="round" stroke-linejoin="round"/><path d="M14.667 10.936a3.505 3.505 0 01-.373 2.174 3.626 3.626 0 01-1.606 1.548 3.746 3.746 0 01-2.23.337 3.698 3.698 0 01-2.011-1.003A3.55 3.55 0 017.42 12.03a3.504 3.504 0 01.345-2.178A3.623 3.623 0 019.35 8.284a3.745 3.745 0 012.227-.363 3.7 3.7 0 012.054 1.01 3.549 3.549 0 011.035 2.005z" stroke="#A1A1A1" stroke-linecap="round" stroke-linejoin="round"/><path d="M16.041 6.578h.01" stroke="#A1A1A1" stroke-width="2" stroke-linecap="round" stroke-linejoin="round"/></svg>