<svg width="22" height="24" fill="none" xmlns="http://www.w3.org/2000/svg"><path d="M14.666 8.246c1.46 0 2.858.591 3.89 1.644a5.672 5.672 0 011.61 3.969v6.548H16.5V13.86a1.89 1.89 0 00-.537-1.323 1.815 1.815 0 00-1.296-.548c-.487 0-.953.197-1.297.548a1.89 1.89 0 00-.537 1.323v6.548H9.166V13.86c0-1.489.58-2.917 1.611-3.97a5.444 5.444 0 013.89-1.643v0zM5.5 9.181H1.833v11.226H5.5V9.181zM3.667 6.375c1.012 0 1.833-.838 1.833-1.871s-.82-1.871-1.833-1.871-1.833.837-1.833 1.87c0 1.034.82 1.872 1.833 1.872z" stroke="#A1A1A1" stroke-linecap="round" stroke-linejoin="round"/></svg>