<svg width="22" height="19" fill="none" xmlns="http://www.w3.org/2000/svg"><g clip-path="url(#clip0_322_10613)"><path d="M21.167 1.699a10.138 10.138 0 01-2.879 1.356 4.13 4.13 0 00-2.102-1.246 4.24 4.24 0 00-2.46.142 4.076 4.076 0 00-1.934 1.48 3.878 3.878 0 00-.709 2.283V6.6a10.05 10.05 0 01-4.646-1.005 9.686 9.686 0 01-3.604-3.01s-3.666 7.977 4.584 11.522A10.939 10.939 0 011 15.88c8.25 4.431 18.333 0 18.333-10.193a3.86 3.86 0 00-.073-.735 6.788 6.788 0 001.907-3.253v0z" stroke="#A1A1A1" stroke-linecap="round" stroke-linejoin="round"/></g><defs><clipPath id="clip0_322_10613"><path fill="#fff" transform="translate(0 .714)" d="M0 0h22v17.571H0z"/></clipPath></defs></svg>