<svg width="32" height="32" fill="none" xmlns="http://www.w3.org/2000/svg"><path d="M31.124.285c-.56 1.024-1.5 1.635-2.51 1.635h-.748c.006-.102.014-.205.014-.308C27.88.722 27.287 0 26.555 0c-.481 0-.924.317-1.158.829-.154.338-.322.666-.482 1l-2.886-.78a11.72 11.72 0 00-5.211-.21l-.006.002A63.024 63.024 0 015.213 1.92H0v1.92h.526V6.4c0 .707.47 1.28 1.052 1.28h2.45c4.664 0 9.313-.644 13.857-1.92v.64l.858-.348c.43-.174.72-.664.72-1.215V2.56c1.4 0 2.795.168 4.167.502l.567.138.052.013a63.284 63.284 0 01-4.051 6.902c-2.937 4.339-6.226 8.307-9.817 11.844l-4.76 4.688c-.561.552-.887 1.383-.887 2.26v.185c0 1.606 1.07 2.908 2.39 2.908.499 0 .984-.19 1.39-.541l2.414-2.099c2.876-2.499 5.511-5.382 7.86-8.595 3.236-4.43 5.89-9.442 7.87-14.858l.905-2.48c.027-.075.048-.151.072-.227h.978c1.364 0 2.63-.824 3.387-2.205l-.876-.71zM7.364 30.08c-.58 0-1.052-.574-1.052-1.28 0-.706.472-1.28 1.052-1.28.58 0 1.052.574 1.052 1.28 0 .706-.471 1.28-1.052 1.28zM26.302 3.2c-.29 0-.526-.287-.526-.64 0-.353.235-.64.526-.64.29 0 .526.287.526.64 0 .353-.236.64-.526.64z" fill="#EB1616"/></svg>