<svg width="60" height="64" viewBox="0 0 60 64" fill="none" xmlns="http://www.w3.org/2000/svg">
<path fill-rule="evenodd" clip-rule="evenodd" d="M16.8849 56.5415C10.7187 51.6546 6.76074 44.0906 6.76074 35.6013C6.76074 20.8681 18.681 8.91943 33.3803 8.91943C48.0796 8.91943 59.9999 20.8681 59.9999 35.6013C59.9999 48.0281 51.5195 58.4737 40.0444 61.4397C48.8035 58.3084 55.075 49.9212 55.075 40.0679C55.075 27.5411 44.94 17.3824 32.4425 17.3824C19.945 17.3824 9.81003 27.5411 9.81003 40.0679C9.80956 46.5553 12.5284 52.4071 16.8849 56.5415Z" fill="#F73425"/>
<path fill-rule="evenodd" clip-rule="evenodd" d="M33.467 63.8134C32.3694 63.935 31.2544 64 30.1244 64C13.4898 64 0 50.4781 0 33.8047C0 17.4667 12.953 4.15694 29.125 3.6283C14.0633 5.29573 2.34326 18.0962 2.34326 33.637C2.34326 50.3104 15.8336 63.8322 32.4676 63.8322C32.8023 63.8318 33.1351 63.8247 33.467 63.8134Z" fill="white"/>
<path fill-rule="evenodd" clip-rule="evenodd" d="M33.4409 31.0013V39.2345H42.2391C42.1578 36.2313 41.6558 33.4279 40.835 31.0013H33.4409Z" fill="white"/>
<path fill-rule="evenodd" clip-rule="evenodd" d="M24.3152 31.0013C23.4945 33.4279 22.9924 36.2318 22.9106 39.2345H31.7087V31.0013H24.3152Z" fill="white"/>
<path fill-rule="evenodd" clip-rule="evenodd" d="M17.5687 31.0013C16.1026 33.4246 15.2043 36.2308 15.0586 39.2345H21.1783C21.255 36.2666 21.7236 33.4712 22.4964 31.0013H17.5687Z" fill="white"/>
<path fill-rule="evenodd" clip-rule="evenodd" d="M42.6533 31.0013C43.4256 33.4717 43.8943 36.2666 43.9714 39.2345H50.091C49.9453 36.2308 49.047 33.4246 47.5809 31.0013H42.6533Z" fill="white"/>
<path fill-rule="evenodd" clip-rule="evenodd" d="M18.7666 50.9404C19.2038 51.4992 19.6738 52.0311 20.1744 52.5324C21.9856 54.3478 24.1916 55.7683 26.6514 56.6532C25.8124 55.7961 25.0461 54.7605 24.3697 53.577C23.9063 52.7661 23.4841 51.8836 23.11 50.9404H18.7666V50.9404Z" fill="white"/>
<path fill-rule="evenodd" clip-rule="evenodd" d="M24.9839 50.9404C25.2575 51.5665 25.5541 52.1597 25.8714 52.7152C27.4263 55.4362 29.4687 57.237 31.7081 57.6096V50.9404H24.9839V50.9404Z" fill="white"/>
<path fill-rule="evenodd" clip-rule="evenodd" d="M33.4409 50.9404V57.6096C35.6803 57.237 37.7227 55.4362 39.2777 52.7152C39.5954 52.1597 39.892 51.5665 40.1651 50.9404H33.4409V50.9404Z" fill="white"/>
<path fill-rule="evenodd" clip-rule="evenodd" d="M33.4409 40.9711V49.2042H40.8345C41.6552 46.7777 42.1573 43.9738 42.2386 40.9711H33.4409V40.9711Z" fill="white"/>
<path fill-rule="evenodd" clip-rule="evenodd" d="M22.9106 40.9711C22.9924 43.9743 23.494 46.7777 24.3152 49.2042H31.7087V40.9711H22.9106V40.9711Z" fill="white"/>
<path fill-rule="evenodd" clip-rule="evenodd" d="M15.0581 40.9711C15.2038 43.9748 16.1021 46.781 17.5682 49.2042H22.4954C21.7231 46.7344 21.2545 43.9385 21.1774 40.9711H15.0581V40.9711Z" fill="white"/>
<path fill-rule="evenodd" clip-rule="evenodd" d="M43.9714 40.9711C43.8948 43.9385 43.4261 46.7344 42.6533 49.2042H47.5805C49.0466 46.781 49.9449 43.9748 50.0906 40.9711H43.9714V40.9711Z" fill="white"/>
<path fill-rule="evenodd" clip-rule="evenodd" d="M42.0395 50.9404C41.6648 51.8836 41.2427 52.7657 40.7797 53.577C40.1033 54.7605 39.3371 55.7961 38.498 56.6532C40.9583 55.7683 43.1639 54.3478 44.975 52.5324C45.4756 52.0311 45.9457 51.4992 46.3829 50.9404H42.0395V50.9404Z" fill="white"/>
<path fill-rule="evenodd" clip-rule="evenodd" d="M26.6514 23.5527C24.1916 24.4376 21.9856 25.8581 20.1744 27.6735C19.6738 28.1748 19.2038 28.7063 18.7666 29.2651H23.11C23.4846 28.3218 23.9067 27.4398 24.3697 26.6289C25.0461 25.4454 25.8124 24.4098 26.6514 23.5527Z" fill="white"/>
<path fill-rule="evenodd" clip-rule="evenodd" d="M31.7086 22.5964C29.4692 22.9691 27.4268 24.7694 25.8718 27.4903C25.5541 28.0463 25.2575 28.639 24.9844 29.2651H31.7091V22.5964H31.7086ZM33.4408 22.5964V29.2651H40.165C39.8919 28.639 39.5948 28.0463 39.2775 27.4903C37.7225 24.7694 35.6801 22.9691 33.4408 22.5964Z" fill="white"/>
<path fill-rule="evenodd" clip-rule="evenodd" d="M40.7792 26.6289C41.2427 27.4398 41.6643 28.3223 42.039 29.2651H46.3819C45.9447 28.7063 45.4747 28.1748 44.974 27.6735C43.1629 25.8581 40.9574 24.4376 38.4971 23.5527C39.3366 24.4098 40.1033 25.4454 40.7792 26.6289Z" fill="white"/>
<path fill-rule="evenodd" clip-rule="evenodd" d="M45.4323 1.56654C45.5272 1.63297 45.7392 1.7126 45.9202 1.78845C47.2467 2.34772 45.9164 3.23397 45.1258 3.56897C44.4771 3.84365 41.8537 4.08159 41.6591 4.12258C41.6017 4.13483 41.1364 4.17111 40.4933 4.21587C40.499 4.25451 40.5032 4.29361 40.5046 4.33225C40.5135 4.53155 40.5041 4.68043 40.4886 4.74969C40.4064 5.1106 38.9313 5.4112 38.4598 4.7855L35.8345 6.88074L34.3397 6.80395L36.833 4.44061L31.7629 4.28607L30.7052 4.81518L29.2227 4.62861L30.5717 3.76827C30.5717 3.76827 30.2991 3.6811 30.1059 3.62126C29.8864 3.55294 29.9513 2.96682 30.2032 2.83773C30.4049 2.73407 30.8754 2.77176 30.8754 2.77176L30.0194 0.293462L30.8975 0.0211306C31.7779 -0.252142 33.1275 2.21673 33.5754 2.14653L43.1774 0.635997C44.0869 0.491822 44.7309 1.07747 45.4323 1.56654Z" fill="white"/>
</svg>
