<svg width="15" height="10" xmlns="http://www.w3.org/2000/svg"><path d="M5.89 4.668c.788-.406 1.22-.99 1.22-1.879C7.11.986 5.763.555 4.24.555H0v8.988h4.342c1.65 0 3.174-.787 3.174-2.615 0-1.117-.534-1.955-1.625-2.26zm-3.935-2.59h1.879c.71 0 1.346.203 1.346 1.041 0 .762-.508 1.067-1.22 1.067H1.956V2.078zM4.088 8.02H1.955V5.53h2.158c.889 0 1.422.381 1.422 1.295 0 .914-.66 1.194-1.447 1.194zm9.09-6.12v-.888H9.547V1.9h3.63zm1.447 4.495c0-1.93-1.143-3.555-3.174-3.555C9.445 2.84 8.1 4.338 8.1 6.293c0 2.031 1.295 3.428 3.351 3.428 1.549 0 2.565-.711 3.047-2.184h-1.574c-.178.559-.889.838-1.422.838-1.041 0-1.6-.61-1.6-1.65H14.6c0-.102.025-.229.025-.33zm-4.723-.813c.051-.838.635-1.371 1.473-1.371.914 0 1.371.508 1.447 1.371h-2.92z"/></svg>