<svg width="162" height="162" fill="none" xmlns="http://www.w3.org/2000/svg"><path d="M64.032 80.744V84h-1.905v-9.242h3.606c.694 0 1.303.127 1.828.38.529.255.935.616 1.219 1.086.283.466.425.997.425 1.593 0 .906-.311 1.621-.933 2.146-.618.52-1.475.78-2.57.78h-1.67zm0-1.543h1.7c.505 0 .888-.118 1.15-.355.266-.237.4-.576.4-1.016 0-.453-.134-.819-.4-1.098-.267-.28-.635-.423-1.105-.432h-1.745v2.901zm10.391 3.27h4.044V84h-5.948v-9.242h1.904v7.712zm12.487-.375h-3.34L82.937 84h-2.025l3.44-9.242h1.765L89.576 84H87.55l-.641-1.904zm-2.825-1.543h2.31l-1.161-3.46-1.149 3.46zm10.588-1.631l1.924-4.164h2.082l-3.035 5.89V84h-1.936v-3.352l-3.034-5.89h2.089l1.91 4.164z" fill="#c69f73"/><path clip-rule="evenodd" d="M81 161c44.183 0 80-35.817 80-80S125.183 1 81 1 1 36.817 1 81s35.817 80 80 80z" stroke="#888" stroke-width="2"/><path d="M81 161c44.183 0 80-35.817 80-80S125.183 1 81 1 1 36.817 1 81s35.817 80 80 80z" stroke="#c69f73" stroke-width="2"/></svg>