<svg width="70" height="55" fill="none" xmlns="http://www.w3.org/2000/svg"><path fill-rule="evenodd" clip-rule="evenodd" d="M59.063 8.8H0V55h59.063V8.8zM56.874 11v38.309L42.77 37.149l-10.83 6.534-15.48-17.792L2.187 40.245V11h54.688zM2.187 43.355V52.8h54.688v-.595L42.544 39.85l-11.046 6.665-15.145-17.407L2.187 43.355z" fill="#C69F73"/><path fill-rule="evenodd" clip-rule="evenodd" d="M9.844 7.7h2.187V2.2h55.782V44h-7.657v2.2H70V0H9.844v7.7z" fill="#C69F73"/><path fill-rule="evenodd" clip-rule="evenodd" d="M50.313 24.2c0 3.64-2.944 6.6-6.563 6.6-3.62 0-6.563-2.96-6.563-6.6 0-3.64 2.944-6.6 6.563-6.6 3.62 0 6.563 2.96 6.563 6.6zm-2.188 0c0-2.427-1.962-4.4-4.375-4.4-2.413 0-4.375 1.973-4.375 4.4 0 2.427 1.962 4.4 4.375 4.4 2.413 0 4.375-1.973 4.375-4.4z" fill="#C69F73"/></svg>