<svg width="13" height="12" xmlns="http://www.w3.org/2000/svg"><path d="M6.688 3.205a2.92 2.92 0 00-2.92 2.92 2.904 2.904 0 002.92 2.92 2.92 2.92 0 002.92-2.92c0-1.6-1.32-2.92-2.92-2.92zm0 4.824a1.902 1.902 0 01-1.905-1.904 1.88 1.88 0 011.904-1.879c1.042 0 1.88.838 1.88 1.879a1.88 1.88 0 01-1.88 1.904zm3.707-4.925a.683.683 0 00-.686-.686.683.683 0 00-.686.686c0 .38.305.685.686.685.38 0 .686-.305.686-.685zm1.93.685c-.052-.914-.255-1.727-.915-2.387C10.75.742 9.937.54 9.023.488c-.939-.05-3.757-.05-4.697 0-.914.051-1.701.254-2.387.914-.66.66-.863 1.473-.914 2.387-.05.94-.05 3.758 0 4.697.051.914.254 1.701.914 2.387.686.66 1.473.863 2.387.914.94.05 3.758.05 4.697 0 .915-.05 1.727-.254 2.387-.914.66-.685.863-1.473.914-2.387.051-.94.051-3.757 0-4.697zm-1.22 5.688c-.177.507-.584.888-1.066 1.091-.762.305-2.539.229-3.351.229-.838 0-2.616.076-3.352-.229a1.925 1.925 0 01-1.092-1.091c-.305-.737-.228-2.514-.228-3.352 0-.813-.077-2.59.228-3.352a1.958 1.958 0 011.092-1.066c.736-.305 2.514-.228 3.352-.228.812 0 2.59-.077 3.351.228.482.178.863.584 1.066 1.066.305.762.229 2.54.229 3.352 0 .838.076 2.615-.229 3.352z"/></svg>