<svg width="28" height="28" xmlns="http://www.w3.org/2000/svg"><path d="M5.914 12.172c2.25 4.36 5.555 7.664 9.914 9.914l3.305-3.305c.469-.468.984-.586 1.547-.351 1.687.562 3.468.843 5.343.843.422 0 .774.141 1.055.422.281.282.422.633.422 1.055v5.273c0 .422-.14.774-.422 1.055a1.43 1.43 0 01-1.055.422c-7.03 0-13.054-2.484-18.07-7.453C2.984 15.03.5 9.007.5 1.977c0-.422.14-.774.422-1.055A1.431 1.431 0 011.977.5H7.25c.422 0 .773.14 1.055.422.28.281.422.633.422 1.055 0 1.875.28 3.656.843 5.343.188.61.07 1.125-.351 1.547l-3.305 3.305z"/></svg>