<svg width="91" height="91" viewBox="0 0 91 91" fill="none" xmlns="http://www.w3.org/2000/svg">
<circle cx="45.5" cy="45.5" r="45.5" fill="#FE206F"/>
<path d="M45.5018 20C31.4413 20 20 31.4391 20 45.4996C20 59.5605 31.4413 71 45.5018 71C59.5617 71 71.0025 59.5605 71.0025 45.4996C71.0025 31.4391 59.5617 20 45.5018 20ZM53.8961 47.64C52.2257 47.3757 48.796 47.3757 47.6518 49.047C46.2459 51.1571 49.0603 52.212 49.6761 53.884C50.2899 55.7293 48.796 55.0256 48.2676 56.6086C47.5643 58.8072 51.1722 61.4448 52.491 62.7647C52.6429 62.9156 52.802 63.099 52.9675 63.299C50.6683 64.2662 48.1493 64.8016 45.5018 64.8016C39.3283 64.8016 33.8194 61.8881 30.2855 57.3627C31.009 57.92 31.7763 58.2058 32.5078 57.9391C33.8536 57.4212 34.6761 53.8077 36.0225 52.6702C38.3967 50.7084 38.9113 50.3982 39.3263 47.404C39.6365 44.6155 41.2891 45.1308 42.4267 43.1685C45.108 38.1073 33.8536 40.8965 32.4065 39.9665C30.9321 38.8852 30.7671 36.2141 28.8799 35.6937C32.2469 30.0139 38.4362 26.1962 45.5018 26.1962C46.8217 26.1962 48.1081 26.33 49.353 26.5829C48.433 27.3996 47.5459 28.2468 46.5865 29.0253C44.7261 30.5742 42.1454 31.814 41.6275 34.5C41.3176 36.8746 43.2835 41.2137 45.8627 41.8333C48.3412 42.3488 48.7569 39.4565 50.8198 38.837C53.5062 38.012 55.7786 41.5233 58.0525 42.3488C61.2514 43.6926 59.9109 41.3157 59.8088 39.2511C59.7228 37.3958 61.3083 37.1748 62.8753 37.0936C64.1103 39.6368 64.8036 42.4889 64.8036 45.4997C64.8036 47.1838 64.5871 48.8208 64.1782 50.3798C60.6171 50.5496 57.3224 48.1739 53.8961 47.64Z" fill="#1F1F1F"/>
</svg>
