<svg width="26" height="18" viewBox="0 0 26 18" fill="none" xmlns="http://www.w3.org/2000/svg">
<path d="M24.5413 5.15148C24.4722 5.12145 22.788 4.39094 12.8162 0.0645647C12.6178 -0.0215216 12.3931 -0.0215216 12.1947 0.0645647L0.469595 5.15148C-0.159557 5.42388 -0.153499 6.318 0.469595 6.58756C2.7474 7.57564 6.47116 9.19137 12.1947 11.6745C12.3919 11.7601 12.6166 11.7611 12.8162 11.6745C13.3597 11.4387 20.7654 8.22569 21.1039 8.0789V16.4127C21.1039 16.8342 21.4276 17.1968 21.8482 17.2164C22.2971 17.2373 22.6672 16.8795 22.6672 16.4347V7.79506C22.6672 7.6721 22.5763 7.56826 22.4544 7.55256C20.9873 7.36326 14.068 6.46914 12.4053 6.25446C11.9244 6.1943 11.6247 5.70674 11.7511 5.27279C11.8503 4.90628 12.1979 4.67282 12.5499 4.69708C12.585 4.69914 23.7245 6.13834 23.7165 6.13732C23.9246 6.16412 24.0957 6.29755 24.1779 6.47848C24.2353 6.60497 24.3816 6.66293 24.5073 6.60394C24.7176 6.50524 24.9 6.37533 24.983 6.08131C25.0898 5.70033 24.8968 5.30536 24.5413 5.15148V5.15148Z" fill="#FE206F"/>
<path d="M11.5736 13.1106L5.03085 10.2721C4.86953 10.2021 4.68945 10.3206 4.68945 10.4966V13.3043C4.68945 15.9373 8.12297 17.9999 12.5062 17.9999C16.8895 17.9999 20.323 15.9373 20.323 13.3043V10.4966C20.323 10.3206 20.1429 10.2022 19.9816 10.2721L13.4384 13.1106C12.8443 13.3692 12.1682 13.369 11.5736 13.1106Z" fill="#FE206F"/>
</svg>
