<svg width="10" height="9" viewBox="0 0 10 9" fill="none" xmlns="http://www.w3.org/2000/svg">
<path d="M4.42303 7.88001C4.444 7.79805 4.42393 7.71586 4.37303 7.64376C4.1488 7.37577 3.96583 7.06697 3.84459 6.72773C3.72323 6.40901 3.6636 6.05986 3.66564 5.69052C3.67023 4.85952 4.01298 4.1022 4.55972 3.56145C5.10647 3.02071 5.86753 2.68634 6.69853 2.69093C7.04735 2.69286 7.38557 2.75628 7.69278 2.86058C8.02046 2.97524 8.31707 3.14103 8.57237 3.35789C8.68471 3.45085 8.84897 3.43124 8.94193 3.3189C8.99362 3.24736 9.01459 3.1654 8.99453 3.08322C8.76338 2.20987 8.24434 1.44779 7.54971 0.900195C6.86523 0.373175 6.01546 0.0504343 5.08186 0.0452801C3.96359 0.0391063 2.94543 0.484909 2.20268 1.2195C1.45993 1.9541 1.00291 2.96728 0.996736 4.08554C0.991525 5.0294 1.31501 5.90326 1.8549 6.60389C2.405 7.31485 3.19213 7.83217 4.09376 8.0526C4.24737 8.10475 4.39145 8.02347 4.42303 7.88001ZM2.28749 6.29849C1.81885 5.70085 1.53578 4.94007 1.54037 4.10906C1.54575 3.13443 1.95073 2.25434 2.59032 1.62177C3.22991 0.989202 4.11442 0.59396 5.08906 0.59934C5.89955 0.603815 6.63674 0.874635 7.22924 1.33959C7.63785 1.65989 7.9742 2.06188 8.20762 2.52485C8.09505 2.47293 7.98248 2.42101 7.85959 2.37929C7.49099 2.24388 7.10148 2.18018 6.69111 2.17791C5.71647 2.17253 4.8217 2.56771 4.18211 3.20028C3.54252 3.83285 3.13748 4.7232 3.1321 5.69784C3.12972 6.12873 3.19927 6.5395 3.3408 6.91989C3.39136 7.05354 3.44193 7.18719 3.5028 7.31065C3.03223 7.06182 2.61347 6.72094 2.28749 6.29849Z" fill="#CECECE"/>
</svg>
