<svg width="70" height="42" viewBox="0 0 70 42" fill="none" xmlns="http://www.w3.org/2000/svg">
<path d="M35 0C21.6258 0 9.49729 7.31717 0.547714 19.2022C-0.182571 20.1759 -0.182571 21.5363 0.547714 22.51C9.49729 34.4093 21.6258 41.7265 35 41.7265C48.3742 41.7265 60.5027 34.4093 69.4523 22.5243C70.1826 21.5506 70.1826 20.1902 69.4523 19.2165C60.5027 7.31718 48.3742 0 35 0ZM35.9594 35.5549C27.0814 36.1133 19.7499 28.7962 20.3084 19.9039C20.7666 12.5724 26.7091 6.62985 34.0406 6.17163C42.9186 5.61317 50.2501 12.9303 49.6916 21.8226C49.2191 29.1398 43.2766 35.0823 35.9594 35.5549ZM35.5155 28.7675C30.7328 29.0682 26.7807 25.1304 27.0957 20.3478C27.3392 16.3956 30.5467 13.2024 34.4988 12.9447C39.2815 12.644 43.2336 16.5818 42.9186 21.3644C42.6608 25.3309 39.4533 28.5241 35.5155 28.7675Z" fill="#FE206F"/>
</svg>
