<svg width="125" height="125" viewBox="0 0 125 125" fill="none" xmlns="http://www.w3.org/2000/svg">
<path d="M62.5 0C27.9832 0 0 27.9832 0 62.5C0 92.012 20.4615 116.731 47.9688 123.284C46.5457 122.945 45.1346 122.565 43.75 122.132V107.812C43.75 107.812 41.4062 108.594 38.2812 108.594C29.5385 108.594 25.9062 100.793 25 96.875C24.4495 94.488 23.012 92.226 21.4688 90.8438C19.625 89.1995 18.762 89.1947 18.75 88.6322C18.726 87.4519 20.3317 87.5 21.0938 87.5C25 87.5 27.9615 91.6562 29.3365 93.8053C32.7428 99.1106 36.399 100 38.2812 100C40.625 100 42.649 99.649 44.0433 98.976C44.6875 94.4375 46.7067 90.3942 50 87.5C35.3438 84.5697 25 76.1635 25 62.5C25 55.4615 27.8245 48.9928 32.5313 43.7692C32.0505 42.4063 31.25 39.649 31.25 35.1562C31.25 32.1875 31.4567 28.5433 32.8125 25C32.8125 25 41.726 25.0625 50.1322 33.024C54.012 31.8942 58.1635 31.25 62.5 31.25C66.8365 31.25 70.988 31.8942 74.8678 33.024C83.274 25.0625 92.1875 25 92.1875 25C93.5505 28.5433 93.75 32.1875 93.75 35.1562C93.75 40 93.1058 42.8245 92.7115 44.0433C97.274 49.2188 100 55.5865 100 62.5C100 76.1635 89.6563 84.5697 75 87.5C78.9135 90.9375 81.25 95.9447 81.25 101.563V122.132C79.8654 122.567 78.4567 122.945 77.0312 123.284C104.538 116.731 125 92.012 125 62.5C125 27.9832 97.0168 0 62.5 0ZM66.8582 124.832C65.4183 124.933 63.9664 125 62.5 125C63.9664 125 65.4159 124.93 66.8582 124.832ZM76.4087 123.428C73.6106 124.065 70.7428 124.512 67.8149 124.76C70.7428 124.512 73.6106 124.063 76.4087 123.428ZM62.5 125C61.0337 125 59.5817 124.933 58.1418 124.832C59.5841 124.93 61.0337 125 62.5 125ZM57.1827 124.76C54.2572 124.512 51.387 124.065 48.5914 123.428C51.3894 124.063 54.2572 124.512 57.1827 124.76Z" fill="#737373"/>
</svg>
