<svg width="57" height="125" viewBox="0 0 57 125" fill="none" xmlns="http://www.w3.org/2000/svg">
<path d="M52.6172 0.000840563C52.4541 0.00741593 52.3272 0.0548115 52.2422 0.139186L37.3828 18.5229L34.3516 29.3789C32.2916 29.3081 30.1644 29.2812 27.9844 29.2812C12.5404 29.2812 0 30.9855 0 33.0979C0 38.1396 55.9609 38.1396 55.9609 33.0979C55.9609 31.5355 49.2616 30.2155 39.6016 29.5905L42 20.655L55.8984 3.23975L55.9219 3.21534C56.2339 2.87784 55.6248 1.86489 54.6328 0.977396C53.8888 0.308651 53.1064 -0.0188858 52.6172 0.000840563ZM33.2109 33.6513L33.1562 33.8222C33.1323 33.8431 33.1328 33.8705 33.1328 33.8955C33.1328 34.208 34.3443 34.4651 35.8203 34.4651C37.2963 34.4651 38.5156 34.208 38.5156 33.8955L38.5625 33.7002C38.9505 33.846 39.1641 34.013 39.1641 34.2047C39.1641 34.7089 37.6649 35.1207 35.7969 35.0999C33.9809 35.0999 32.4766 34.717 32.4766 34.2128C32.4766 33.9962 32.7749 33.7972 33.2109 33.6513ZM55.6484 35.0836C48.2444 39.1961 7.79919 39.2239 0.367188 35.1406L3.65625 65.2755C5.08425 60.4713 8.69575 53.9854 13.3438 52.0187C14.8678 51.3687 16.4152 51.3718 17.8672 52.2384C19.1272 52.9593 20.1925 54.4705 20.3125 55.0705C20.6045 56.6329 19.8306 57.2514 19.2266 57.2514C18.4986 57.2514 17.9421 56.1518 17.5781 55.5018C16.5861 53.7476 15.0844 53.6722 13.4844 54.8263C11.8124 56.0263 10.3598 58.0445 9.34375 59.7986C8.10775 61.9111 7.0655 64.2403 6.4375 66.5694C6.0735 67.9152 5.74088 70.0714 6.29688 71.3464C6.54087 71.8755 6.90037 72.209 7.48438 72.209C8.69637 72.209 10.4567 70.6256 11.3047 69.7839C12.3927 68.7047 13.7961 67.0219 14.3281 65.9428L15.5938 62.2237C16.2218 60.5904 17.9844 60.8779 17.9844 62.2237C17.9844 64.6737 17.0943 65.4904 15.5703 70.557C14.1663 75.2403 13.7266 76.7581 13.7266 76.7581C13.5586 77.429 12.9031 78.5566 12.2031 78.5566C11.9111 78.5566 11.6981 78.4553 11.5781 78.2637C11.3341 77.9262 11.3588 76.9998 11.3828 76.7581C11.4308 75.9915 12.9044 71.4243 13.1484 70.7035C12.6644 71.2327 12.1576 71.7654 11.6016 72.2904C10.2936 73.5154 8.19044 75.1224 6.39844 75.1224C5.57444 75.1224 5.04706 74.9029 4.53906 74.5446L6.375 93.6607C6.859 94.8607 15.8666 97.7704 27.7266 97.7704C39.6106 97.7704 48.6103 94.8398 49.0703 93.6607L51.7109 70.9476C50.3309 72.1976 48.7368 73.7373 46.9688 74.5039C45.6607 75.0581 42.7578 75.4119 42.7578 73.1286C42.7578 71.8786 44.9622 69.5775 46.2422 67.9691C46.5822 67.5608 47.375 66.5533 47.375 66.0242C47.375 65.3283 45.9269 65.4891 44.5469 66.6182C43.7709 67.2682 43.0415 68.1372 42.4375 68.9538C41.3975 70.3955 40.8428 71.6395 40.3828 72.6729C38.8828 76.0812 39.3917 74.7378 38.1797 77.9544C36.9677 81.1502 37.1659 80.7862 36.9219 81.3154C36.7059 81.7737 36.3891 82.1602 35.9531 82.3977C35.4931 82.6394 34.8646 82.612 34.4766 82.3245C34.2606 82.1787 34.1562 81.8666 34.1562 81.4375C34.1562 81.2208 34.1864 81.0031 34.2344 80.7864C34.5984 79.3198 36.1232 76.4424 37.8672 72.5508C38.2552 71.6633 38.1067 71.9266 38.0547 71.9974C36.5547 73.4391 35.4143 74.1369 34.5703 74.5202C33.1663 75.1452 31.4225 75.1438 31.0625 73.5355C31.0385 73.4397 31.0396 73.3384 31.0156 73.2425C28.1596 75.4509 25.1357 76.0517 26.1797 71.2976C25.0677 73.2684 23.126 74.8783 20.75 74.8783C19.758 74.8783 19.0319 74.5451 18.6719 73.6576C18.1159 72.3367 18.9852 70.0741 19.7812 67.9366C20.1932 66.8574 20.7558 65.5591 21.5078 64.0466C21.8958 63.23 22.5198 62.7476 23.3438 62.9643C23.4877 63.0143 23.6144 63.0643 23.7344 63.1352C24.3624 63.5685 24.1207 64.2104 23.8047 64.8604C22.8847 66.6604 22.0867 67.9822 21.5547 69.8571C21.3387 70.6488 21.0661 72.0218 21.9141 72.0218C22.4941 72.0218 23.0499 71.8274 23.5859 71.444C24.6979 70.6274 25.5934 69.4051 26.2734 68.2051C26.7574 67.3426 27.3408 66.2135 27.6328 65.2511C27.7528 64.8427 27.9023 64.458 28.0703 64.0955C28.3383 63.4955 28.6961 62.8748 29.3281 62.8748C29.6441 62.8748 29.9056 62.9953 30.1016 63.2328C30.5136 63.762 30.4231 64.3057 30.2031 64.8848C29.7191 66.2307 29.0673 67.4344 28.5312 68.8969C28.2153 69.7385 27.875 70.817 27.875 71.7045C27.875 72.5211 28.7714 72.3268 29.5234 71.9893C30.1034 71.7268 30.6839 71.3234 31.1719 70.9151C31.4639 69.7401 31.3865 69.9999 37.5625 54.5333C37.8785 53.7417 38.4591 53.4022 39.0391 53.4022C39.3311 53.4022 39.5685 53.5041 39.8125 53.6707C40.2245 53.9832 40.2305 54.6477 40.0625 55.1518C39.8945 55.6102 39.9127 55.4663 38.9688 57.6746C37.7087 60.5788 36.8894 62.6739 35.7734 65.3406C35.3134 66.4447 33.9119 69.8787 33.6719 70.6954C33.5279 71.2245 33.3541 72.0869 33.9141 72.0869C35.2221 72.0869 38.5878 68.9392 39.5078 68.0017C39.5558 67.9309 39.6306 67.9052 39.7266 67.8552C39.8706 67.3969 40.0128 66.9702 40.1328 66.5368C40.4728 65.6244 40.7899 64.5604 41.4219 63.8188C41.6139 63.5771 41.8303 63.4363 42.0703 63.4363C42.7463 63.4363 43.0859 63.7216 43.0859 64.3966C43.0859 64.6591 42.9203 65.6233 42.8203 65.8858C43.1603 65.5275 43.5183 65.1699 43.9062 64.8116C47.5383 61.4741 50.125 63.1771 50.125 64.8604C50.125 66.6354 47.9731 69.1048 46.7891 70.4756C46.4011 70.934 45.6021 71.772 45.5781 72.0137C45.5781 72.3262 45.7934 72.4531 46.1094 72.4531C46.5934 72.4531 47.6589 71.6095 48.0469 71.322C49.2589 70.3845 50.8985 68.9449 52.0625 67.9366L55.6484 35.0836ZM7.71875 95.9637L11.3281 102.067L12.7344 121.134C12.7344 123.272 19.5838 125 28.0078 125C36.4318 125 43.2812 123.272 43.2812 121.134L44.3984 101.872L47.8047 95.9637C38.2167 99.9762 17.6947 100.118 7.71875 95.9637Z" fill="#737373"/>
</svg>
