<svg width="125" height="125" viewBox="0 0 125 125" fill="none" xmlns="http://www.w3.org/2000/svg">
<path d="M8.02792 6.07895H7.47618L7.53033 6.62802L17.4108 106.809L17.4452 107.158L17.7846 107.245L62.3762 118.642L62.5 118.674L62.6238 118.642L107.215 107.245L107.555 107.158L107.589 106.809L117.47 6.62802L117.524 6.07895H116.972H8.02792ZM93.9131 45.5526H81.3221L80.5309 39.4098L80.4748 38.9737H80.035H49.302H48.8448L48.804 39.4291L47.6264 52.587L47.5777 53.1316H48.1244H94.1209L90.5639 91.6992L62.4642 98.1711L34.402 91.6997L33.045 76.1579H46.2365L46.8587 82.2873L46.8985 82.6798L47.2895 82.7324L62.4334 84.769L62.4996 84.7779L62.5658 84.7691L77.8964 82.7325L78.2921 82.6799L78.3285 82.2825L79.8364 65.8351L79.8865 65.2895H79.3385H32.1271L35.5704 26.8158H91.4727L93.9131 45.5526ZM11.4926 111.444L0.551733 0.5H124.448C122.652 18.717 120.855 36.9355 119.058 55.1541C117.208 73.9181 115.358 92.6821 113.507 111.444L62.5 124.484L11.4926 111.444Z" fill="#737373" stroke="none"/>
</svg>
