<svg width="125" height="125" viewBox="0 0 125 125" fill="none" xmlns="http://www.w3.org/2000/svg">
<path d="M3.04393 1.12002e-09C2.62118 -1.07595e-05 2.20305 0.078607 1.8162 0.230844C1.42936 0.383081 1.08227 0.605598 0.797056 0.884216C0.511845 1.16283 0.294766 1.49145 0.15965 1.84911C0.0245336 2.20677 -0.025656 2.58564 0.01228 2.96158L10.7241 110.098C10.7785 110.645 11.0171 111.165 11.4087 111.588C11.8003 112.012 12.3263 112.32 12.9176 112.471L61.644 124.896C62.1899 125.035 62.7685 125.035 63.3144 124.896L112.088 112.471C112.68 112.32 113.206 112.012 113.597 111.588C113.989 111.165 114.227 110.645 114.282 110.098L124.988 2.96158C125.026 2.58564 124.975 2.20677 124.84 1.84911C124.705 1.49144 124.488 1.16283 124.203 0.884216C123.918 0.605598 123.571 0.38308 123.184 0.230844C122.797 0.078607 122.379 -1.0835e-05 121.956 1.12002e-09H3.04393ZM6.37281 5.43486H118.627L108.409 107.758L62.4822 119.461L16.6032 107.758L6.37281 5.43486ZM44.2388 21.7395C43.4316 21.7395 42.6575 22.0258 42.0867 22.5354C41.516 23.045 41.1953 23.7362 41.1952 24.4569V75.0797L23.7483 70.7647C23.2964 70.6527 22.8217 70.6354 22.3611 70.7143C21.9005 70.7932 21.4665 70.966 21.093 71.2193C20.7196 71.4725 20.4167 71.7995 20.2081 72.1745C19.9995 72.5495 19.8908 72.9625 19.8904 73.3813V86.8198C19.8909 87.4135 20.1091 87.9907 20.5116 88.4632C20.9142 88.9357 21.4789 89.2775 22.1196 89.4364L55.5985 97.7267C56.0504 97.8387 56.5252 97.8559 56.9858 97.7771C57.4464 97.6982 57.8804 97.5254 58.2538 97.2721C58.6273 97.0188 58.9301 96.6919 59.1387 96.3169C59.3474 95.9418 59.4561 95.5288 59.4565 95.1101V24.4569C59.4564 23.7362 59.1357 23.045 58.5649 22.5354C57.9942 22.0258 57.2201 21.7395 56.4129 21.7395H44.2388ZM68.5871 21.7395C67.7799 21.7395 67.0058 22.0258 66.4351 22.5354C65.8643 23.045 65.5436 23.7362 65.5435 24.4569V70.6532C65.5432 71.0493 65.6399 71.4407 65.8267 71.8C66.0136 72.1593 66.2862 72.4777 66.6254 72.7331C66.9646 72.9884 67.3622 73.1744 67.7904 73.2782C68.2186 73.3819 68.667 73.4008 69.1042 73.3335L86.5987 70.6426L86.2361 75.4565L67.7786 79.9891C67.1369 80.147 66.5708 80.4884 66.1671 80.961C65.7634 81.4336 65.5444 82.0113 65.5435 82.6057V95.1101C65.5432 95.5287 65.6512 95.9417 65.8591 96.3169C66.067 96.6921 66.3692 97.0193 66.742 97.2731C67.1148 97.5269 67.5483 97.7003 68.0086 97.7799C68.4689 97.8595 68.9435 97.8431 69.3955 97.732L99.8309 90.2591C100.43 90.1114 100.965 89.8033 101.362 89.3763C101.76 88.9493 102.001 88.4239 102.054 87.8707L105.264 54.5822C105.304 54.1748 105.239 53.7648 105.077 53.3827C104.914 53.0005 104.657 52.6561 104.324 52.375C103.992 52.0939 103.592 51.8834 103.156 51.7593C102.72 51.6351 102.258 51.6004 101.804 51.6577L83.8048 53.9346V38.044H104.057C104.819 38.0438 105.553 37.7886 106.115 37.3287C106.676 36.8689 107.024 36.2378 107.089 35.5601L108.141 24.6904C108.177 24.3153 108.126 23.9376 107.99 23.5812C107.854 23.2248 107.637 22.8975 107.352 22.6201C107.067 22.3426 106.72 22.1211 106.334 21.9695C105.948 21.8179 105.531 21.7396 105.11 21.7395H68.5871ZM47.2823 27.1743H53.3694V91.5382L25.9775 84.7552V76.9532L43.4244 81.2735C43.8763 81.3855 44.351 81.4027 44.8116 81.3239C45.2722 81.245 45.7062 81.0722 46.0797 80.8189C46.4531 80.5656 46.756 80.2387 46.9646 79.8637C47.1732 79.4886 47.2819 79.0756 47.2823 78.6569V27.1743ZM71.6306 27.1743H101.793L101.264 32.6092H80.7612C79.9541 32.6092 79.18 32.8956 78.6092 33.4052C78.0385 33.9148 77.7178 34.6059 77.7177 35.3266V57.0661C77.7177 57.4552 77.8113 57.8399 77.9921 58.194C78.173 58.548 78.437 58.8633 78.7661 59.1184C79.0952 59.3736 79.4819 59.5626 79.9 59.6728C80.318 59.7829 80.7577 59.8116 81.1892 59.757L98.8739 57.5172L96.1692 85.5195L71.6306 91.5435V84.6809L89.9394 80.1855C90.548 80.0359 91.0895 79.7211 91.4889 79.2846C91.8883 78.8482 92.1258 78.3116 92.1686 77.7493L92.9295 67.559C92.9604 67.1484 92.8866 66.737 92.7135 66.3557C92.5405 65.9743 92.2727 65.6331 91.9304 65.3576C91.5881 65.0821 91.1802 64.8796 90.7375 64.7654C90.2948 64.6512 89.8288 64.6282 89.3747 64.6982L71.6306 67.4263V27.1743Z" fill="#737373"/>
</svg>
