<svg width="19" height="21" viewBox="0 0 19 21" fill="none" xmlns="http://www.w3.org/2000/svg">
<path d="M18.2086 3.90946C18.2086 5.40528 16.9961 6.6179 15.5003 6.6179C14.0045 6.6179 12.792 5.40528 12.792 3.90946C12.792 2.41379 14.0045 1.20117 15.5003 1.20117C16.9961 1.20117 18.2086 2.41379 18.2086 3.90946Z" fill="#FE206F"/>
<path d="M15.5003 7.24242C13.6619 7.24242 12.167 5.74736 12.167 3.90897C12.167 2.07074 13.6619 0.575684 15.5003 0.575684C17.3387 0.575684 18.8336 2.07074 18.8336 3.90897C18.8336 5.74736 17.3387 7.24242 15.5003 7.24242ZM15.5003 1.82569C14.3511 1.82569 13.417 2.76075 13.417 3.90897C13.417 5.05735 14.3511 5.99242 15.5003 5.99242C16.6494 5.99242 17.5836 5.05735 17.5836 3.90897C17.5836 2.76075 16.6494 1.82569 15.5003 1.82569Z" fill="#FE206F"/>
<path d="M18.2086 17.2426C18.2086 18.7383 16.9961 19.9509 15.5003 19.9509C14.0045 19.9509 12.792 18.7383 12.792 17.2426C12.792 15.7468 14.0045 14.5342 15.5003 14.5342C16.9961 14.5342 18.2086 15.7468 18.2086 17.2426Z" fill="#FE206F"/>
<path d="M15.5003 20.5759C13.6619 20.5759 12.167 19.0809 12.167 17.2426C12.167 15.4042 13.6619 13.9092 15.5003 13.9092C17.3387 13.9092 18.8336 15.4042 18.8336 17.2426C18.8336 19.0809 17.3387 20.5759 15.5003 20.5759ZM15.5003 15.1592C14.3511 15.1592 13.417 16.0942 13.417 17.2426C13.417 18.3909 14.3511 19.3259 15.5003 19.3259C16.6494 19.3259 17.5836 18.3909 17.5836 17.2426C17.5836 16.0942 16.6494 15.1592 15.5003 15.1592Z" fill="#FE206F"/>
<path d="M6.54173 10.5755C6.54173 12.0713 5.32911 13.2838 3.83329 13.2838C2.33762 13.2838 1.125 12.0713 1.125 10.5755C1.125 9.07965 2.33762 7.86719 3.83329 7.86719C5.32911 7.86719 6.54173 9.07965 6.54173 10.5755Z" fill="#FE206F"/>
<path d="M3.83329 13.9088C1.99506 13.9088 0.5 12.4139 0.5 10.5755C0.5 8.73709 1.99506 7.24219 3.83329 7.24219C5.67168 7.24219 7.16674 8.73709 7.16674 10.5755C7.16674 12.4139 5.67168 13.9088 3.83329 13.9088ZM3.83329 8.49219C2.68415 8.49219 1.75 9.4271 1.75 10.5755C1.75 11.7239 2.68415 12.6588 3.83329 12.6588C4.98259 12.6588 5.91673 11.7239 5.91673 10.5755C5.91673 9.4271 4.98259 8.49219 3.83329 8.49219Z" fill="#FE206F"/>
<path d="M5.80096 10.1757C5.51089 10.1757 5.22922 10.0248 5.07586 9.75484C4.84835 9.35567 4.98843 8.84649 5.3876 8.61806L13.12 4.20979C13.5192 3.9806 14.0284 4.12068 14.2568 4.52137C14.4843 4.92054 14.3442 5.42973 13.9451 5.65816L6.21249 10.0664C6.08249 10.1406 5.94089 10.1757 5.80096 10.1757Z" fill="#FE206F"/>
<path d="M13.5327 17.0505C13.3926 17.0505 13.251 17.0154 13.121 16.9413L5.38846 12.533C4.98929 12.3055 4.84937 11.7963 5.07688 11.3962C5.30347 10.9963 5.81342 10.8554 6.21351 11.0846L13.9461 15.4929C14.3452 15.7204 14.4852 16.2296 14.2577 16.6297C14.1035 16.8996 13.8219 17.0505 13.5327 17.0505Z" fill="#FE206F"/>
</svg>
