<?xml version="1.0" encoding="UTF-8"?>
<svg xmlns="http://www.w3.org/2000/svg" xmlns:xlink="http://www.w3.org/1999/xlink" width="125px" height="125px" viewBox="0 0 125 125" version="1.1">
<g id="surface1">
<path style=" stroke:none;fill-rule:nonzero;fill:rgb(45.098039%,45.098039%,45.098039%);fill-opacity:1;" d="M 62.5 4.089844 C 30.382812 4.089844 4.246094 30.292969 4.246094 62.5 C 4.246094 94.707031 30.382812 120.910156 62.5 120.910156 C 94.621094 120.910156 120.753906 94.707031 120.753906 62.5 C 120.753906 30.292969 94.621094 4.089844 62.5 4.089844 Z M 62.5 11.390625 C 72.789062 11.390625 82.355469 14.488281 90.375 19.765625 C 87.585938 21.320312 85 24.59375 85 31.542969 C 85 35.238281 87.511719 39.523438 90.417969 44.488281 C 93.90625 50.445312 98.230469 57.855469 97.144531 63.207031 C 95.949219 66.75 92.921875 74.789062 89.640625 83.367188 L 74.585938 39.996094 C 74.894531 39.917969 75.234375 39.867188 75.527344 39.769531 C 77.433594 39.136719 78.460938 37.070312 77.828125 35.15625 C 77.1875 33.242188 75.132812 32.230469 73.21875 32.847656 C 70.117188 33.886719 64.503906 33.863281 61.132812 33.855469 L 59.105469 33.855469 C 55.757812 33.863281 50.121094 33.886719 47.019531 32.847656 C 45.132812 32.207031 43.066406 33.242188 42.425781 35.15625 C 41.785156 37.070312 42.816406 39.136719 44.726562 39.769531 C 46.261719 40.289062 48.074219 40.566406 49.925781 40.769531 L 58.882812 64.121094 L 50.414062 85.542969 L 35.945312 40.15625 C 36.476562 40.035156 37.042969 39.9375 37.53125 39.769531 C 39.4375 39.136719 40.472656 37.070312 39.832031 35.15625 C 39.191406 33.246094 37.140625 32.207031 35.230469 32.847656 C 32.136719 33.886719 26.507812 33.855469 23.136719 33.855469 L 22.136719 33.855469 C 21.480469 33.855469 20.941406 33.804688 20.390625 33.761719 C 29.570312 20.269531 45.015625 11.390625 62.5 11.390625 Z M 11.53125 62.5 C 11.53125 56.761719 12.519531 51.257812 14.265625 46.101562 L 36.605469 106.445312 C 21.628906 97.53125 11.53125 81.199219 11.53125 62.5 Z M 48.003906 111.476562 L 62.738281 74.183594 L 77.039062 111.46875 C 72.433594 112.84375 67.554688 113.609375 62.5 113.609375 C 57.460938 113.609375 52.601562 112.84375 48.003906 111.476562 Z M 88.5625 106.335938 C 93.277344 94.210938 101.40625 73.203125 103.84375 66.097656 L 103.9375 66.128906 C 104.042969 65.835938 104.148438 65.457031 104.222656 65.011719 C 105.046875 62.71875 105.746094 60.625 106.304688 58.859375 C 108.105469 53.152344 109.25 48.136719 109.84375 43.699219 C 112.160156 49.523438 113.472656 55.855469 113.472656 62.5 C 113.472656 81.125 103.453125 97.40625 88.5625 106.335938 Z M 88.5625 106.335938 "/>
</g>
</svg>
