<svg width="70" height="55" fill="none" xmlns="http://www.w3.org/2000/svg"><path fill-rule="evenodd" clip-rule="evenodd" d="M51.538 18.448a22.259 22.259 0 016.542-6.452l6.659-4.294L59.479 0 52.9 4.22c-4.415 2.83-8.046 6.67-10.561 11.187A30.23 30.23 0 0038.5 30.113V47.7c0 1.966.813 3.831 2.228 5.193A7.608 7.608 0 0046 55h16.5c1.962 0 3.86-.749 5.272-2.107A7.203 7.203 0 0070 47.7V31.832a7.203 7.203 0 00-2.228-5.192 7.608 7.608 0 00-5.272-2.107H48.777a21.331 21.331 0 012.761-6.085zm14.851 9.644a5.613 5.613 0 00-3.889-1.55H46.303c.105-.676.24-1.347.406-2.01a23.322 23.322 0 013.162-7.194A24.263 24.263 0 0157 10.304l4.922-3.174-2.998-4.39-4.95 3.174c-4.144 2.655-7.541 6.253-9.892 10.475A28.21 28.21 0 0040.5 30.113V47.7a5.19 5.19 0 001.61 3.74A5.613 5.613 0 0046 52.99h16.5a5.613 5.613 0 003.89-1.55A5.19 5.19 0 0068 47.7V31.832a5.19 5.19 0 00-1.61-3.74zM11.371 17.339a24.263 24.263 0 017.13-7.035l4.922-3.174-3.025-4.39-4.923 3.174c-4.143 2.655-7.541 6.253-9.892 10.475A28.21 28.21 0 002 30.113V47.7c0 1.403.58 2.749 1.61 3.74a5.613 5.613 0 003.89 1.55H24a5.613 5.613 0 003.89-1.55 5.19 5.19 0 001.61-3.74V31.832c0-1.403-.58-2.748-1.61-3.74a5.613 5.613 0 00-3.89-1.55H7.803c.105-.676.24-1.347.406-2.01a23.325 23.325 0 013.162-7.194zm-7.533-1.932C6.353 10.891 9.982 7.05 14.398 4.22l.002-.001L20.943 0l5.303 7.698-6.666 4.298a22.258 22.258 0 00-6.541 6.452 21.332 21.332 0 00-2.762 6.085H24c1.962 0 3.86.748 5.272 2.107a7.203 7.203 0 012.228 5.192V47.7a7.204 7.204 0 01-2.228 5.193A7.608 7.608 0 0124 55H7.5a7.608 7.608 0 01-5.272-2.107A7.204 7.204 0 010 47.7V30.112a30.228 30.228 0 013.838-14.705z" fill="#fff"/></svg>