<svg width="40" height="40" fill="none" xmlns="http://www.w3.org/2000/svg"><path d="M36.38 8.898c-1.253 2.54-2.874 4.15-4.82 4.785-2.064.675-4.549.265-7.391-1.219a.64.64 0 00-.596 0c-2.839 1.484-5.328 1.893-7.391 1.22-1.946-.637-3.567-2.247-4.82-4.786-.994-2.015-3.62-1.24-3.62 1.13v8.721c0 7.966 3.26 16.878 10.322 20.065V24.528a.645.645 0 011.29 0V39.31c1.253.409 2.556.64 3.872.689V20.654a.645.645 0 011.29 0V40c1.316-.048 2.62-.28 3.871-.689V24.528a.645.645 0 011.29 0v14.284C36.758 35.619 40 26.682 40 18.747v-8.719c0-2.37-2.626-3.144-3.62-1.13z" fill="#EB1616"/><path d="M.645 4.516h3.871v1.29a4.516 4.516 0 009.032 0V4.204a3.923 3.923 0 015.162 0v1.602a4.516 4.516 0 009.032 0v-1.29h3.87a.645.645 0 000-1.29h-3.87v-1.29A1.935 1.935 0 0025.806 0h-5.16a1.935 1.935 0 00-1.936 1.935v.727a5.023 5.023 0 00-5.162 0v-.727A1.935 1.935 0 0011.613 0H6.452a1.935 1.935 0 00-1.936 1.935v1.29H.646a.645.645 0 100 1.291zM20 1.936a.645.645 0 01.645-.646h5.162a.645.645 0 01.645.645v3.871a3.226 3.226 0 11-6.452 0v-3.87zm-14.194 0a.645.645 0 01.646-.646h5.16a.645.645 0 01.646.645v3.871a3.226 3.226 0 01-6.452 0v-3.87zm26.439 15.419a.645.645 0 00-1.213-.239c-.047.092-1.214 2.225-4.67 2.225-1.528 0-2.208-.788-3.07-1.786-1.046-1.21-2.346-2.716-5.45-2.716a3.192 3.192 0 00-1.713.478 3.192 3.192 0 00-1.713-.478c-3.104 0-4.404 1.506-5.448 2.716-.86.998-1.54 1.786-3.07 1.786-3.455 0-4.622-2.133-4.667-2.22a.645.645 0 00-1.217.233 7.677 7.677 0 001.771 5.278c1.576 1.855 4.047 2.912 7.344 3.143 3.754.263 5.885-1.205 7-2.455 1.765 1.977 4.323 2.645 7 2.455 3.297-.23 5.768-1.29 7.344-3.143a7.677 7.677 0 001.772-5.277zm-2.756 4.442c-1.342 1.58-3.512 2.486-6.452 2.692-2.838.202-5.102-.716-6.377-2.576a.645.645 0 00-1.065 0c-1.274 1.86-3.539 2.777-6.377 2.576-2.928-.205-5.097-1.106-6.437-2.677a6.181 6.181 0 01-1.29-2.531 7.102 7.102 0 004.403 1.351c2.12 0 3.143-1.186 4.047-2.233 1.01-1.167 1.962-2.27 4.475-2.27a1.85 1.85 0 011.28.473.645.645 0 00.865 0 1.85 1.85 0 011.281-.473c2.516 0 3.465 1.103 4.472 2.27.903 1.046 1.926 2.233 4.046 2.233a7.107 7.107 0 004.41-1.355 6.192 6.192 0 01-1.281 2.52z" fill="#fff"/></svg>