<svg width="40" height="40" fill="none" xmlns="http://www.w3.org/2000/svg"><path d="M39.964 34.637a4.686 4.686 0 00-4.72-4.96h-4.288a.646.646 0 010-1.29h2.608a4.484 4.484 0 004.483-4.461v-.11a4.481 4.481 0 00-4.482-4.46h-5.188a.646.646 0 010-1.29h2.447a9.14 9.14 0 009.168-9.518l-.004-.084a.726.726 0 00-.013-.168.645.645 0 00-1.283.136c0 3.26-7.033 3.826-10.315 3.826-8.332 0-11.592 2.93-12.818 4.8a.646.646 0 00.537 1.008h3.256a.646.646 0 010 1.29h-5.188a4.483 4.483 0 00-4.482 4.46v.056a4.537 4.537 0 004.538 4.515h2.556a.645.645 0 110 1.29h-4.291a4.688 4.688 0 00-4.72 4.961 5.93 5.93 0 005.984 5.361h20.23a5.933 5.933 0 005.985-5.362zM34.18 37.42a.645.645 0 110-1.29 1.94 1.94 0 001.936-1.935.645.645 0 011.29 0 3.225 3.225 0 01-3.226 3.225z" fill="#EB1616"/><path d="M30.325 15.485h-3.226V12.26a1.935 1.935 0 00-1.936-1.936h-.46c.725-3.817-1.41-7.096-7.927-7.096-8.95 0-10.364-2.81-10.37-2.822a.645.645 0 00-1.244.242c0 5.58 1.667 8.327 3.203 9.676H7.097a1.936 1.936 0 00-1.935 1.936v3.225H1.936A1.936 1.936 0 000 17.421v12.902a1.935 1.935 0 001.936 1.935h28.389a1.936 1.936 0 001.936-1.935V17.42a1.935 1.935 0 00-1.936-1.936zM6.508 2.32c1.432 1.021 4.363 2.198 10.268 2.198 4.327 0 7.58 1.575 6.607 5.806H11.021c-.414-.076-4.018-.93-4.513-8.004zm-.056 9.94a.645.645 0 01.645-.645h18.066a.645.645 0 01.645.645v3.225H6.452V12.26zM30.97 30.323a.645.645 0 01-.645.645H1.935a.645.645 0 01-.645-.645V17.42a.645.645 0 01.646-.646h28.389a.645.645 0 01.645.646v12.902z" fill="#fff"/><path d="M24.517 21.291H7.742a2.58 2.58 0 100 5.161h16.775a2.581 2.581 0 000-5.16zm0 3.87H7.742a1.29 1.29 0 110-2.58h16.775a1.29 1.29 0 110 2.58z" fill="#fff"/></svg>