<svg width="40" height="40" fill="none" xmlns="http://www.w3.org/2000/svg"><path d="M16.773 20.033c7.137 0 14.838-3.205 14.838-8.383 0-2.91-1.82-4.193-3.927-3.87-1.762.032-3.508 1.551-5.355 3.16-1.847 1.61-3.773 3.288-5.556 3.288-3.69 0-8.088-1.863-8.132-1.883a.645.645 0 00-.886.721c.013.07 1.48 6.967 9.018 6.967zm15.59-5.803c3.484.938 5.717 6.612 5.742 6.679a.646.646 0 001.226-.068c1.054-4.004.69-7.137-1.085-9.313-1.728-2.121-4.37-2.803-6.129-3.016.551.952.823 2.04.784 3.138a6.44 6.44 0 01-.538 2.58zm6.549 9.198c-.093.087-9.364 8.637-14.684 5.093a.645.645 0 00-.716 0C18.2 32.059 8.919 23.514 8.827 23.428a.645.645 0 00-1.085.526c.011.142 1.192 12.62 11.612 15.479v-3.928a.645.645 0 111.29 0v4.22c.852.155 1.715.246 2.58.272v-6.426a.645.645 0 011.29 0v6.426a17.435 17.435 0 002.581-.271v-4.22a.645.645 0 111.29 0v3.927c10.417-2.859 11.598-15.337 11.613-15.48a.645.645 0 00-1.086-.525z" fill="#EB1616"/><path d="M7.445 11.612v.052a8.386 8.386 0 1016.773-.052v-3.87C24.218 2.034 20.552 0 17.12 0a5.226 5.226 0 00-3.628 1.432A3.977 3.977 0 0110.67 2.58a2.906 2.906 0 00-2.303.985C7.15 4.97 7.4 7.403 7.445 7.785v3.827zm15.482 0a7.096 7.096 0 01-14.187.1c.211-.551 1.359-3.325 3.22-3.325a7.612 7.612 0 003.143-.691 6.438 6.438 0 012.664-.6c2.315 0 5.16 1.779 5.16 3.226v1.29zm-13.585-7.2a1.65 1.65 0 011.328-.541 5.22 5.22 0 003.63-1.432 3.98 3.98 0 012.822-1.149c1.363 0 5.806.465 5.806 6.452v.102a8.163 8.163 0 00-5.16-2.038 7.612 7.612 0 00-3.143.691 6.433 6.433 0 01-2.664.6 4.115 4.115 0 00-3.225 1.925v-1.28c0-.016-.008-.03-.01-.045 0-.015.006-.03.004-.047-.084-.605-.145-2.364.613-3.239zM21.289 21.29H10.322A10.334 10.334 0 000 31.61a.645.645 0 00.645.645h30.32a.645.645 0 00.646-.645 10.334 10.334 0 00-10.322-10.322zM1.313 30.965a9.044 9.044 0 019.009-8.387h10.967a9.044 9.044 0 019.009 8.387H1.313z" fill="#fff"/><path d="M19.388 14.26c-.022.01-2.079 1.018-3.044-.423a.644.644 0 00-1.073 0c-.957 1.429-2.96.463-3.046.422a.645.645 0 10-.575 1.156 4.86 4.86 0 002.072.487 3.09 3.09 0 002.083-.736 3.089 3.089 0 002.087.737 4.86 4.86 0 002.073-.488.645.645 0 10-.577-1.154z" fill="#fff"/></svg>