<svg width="40" height="40" fill="none" xmlns="http://www.w3.org/2000/svg"><path d="M29.03 9.034c-6.047 0-10.966 5.788-10.966 12.903 0 4.326 1.834 8.342 4.902 10.743a.624.624 0 01.258.484v.853A5.896 5.896 0 0029.036 40a5.807 5.807 0 005.8-5.806v-1.032a.624.624 0 01.258-.485c3.07-2.398 4.903-6.413 4.903-10.74 0-7.115-4.92-12.903-10.967-12.903zm0 28.063a1.613 1.613 0 110-3.226 1.613 1.613 0 010 3.226zm0-4.838c-4.624 0-8.386-4.631-8.386-10.322 0-5.692 3.762-10.322 8.386-10.322 4.625 0 8.387 4.63 8.387 10.322 0 5.69-3.762 10.322-8.387 10.322z" fill="#EB1616"/><path d="M29.03 12.905c-3.912 0-7.096 4.051-7.096 9.032 0 4.98 3.184 9.031 7.096 9.031 3.913 0 7.097-4.05 7.097-9.031 0-4.98-3.184-9.032-7.097-9.032zm-1.746 7.93L29.22 18.9a.646.646 0 01.912.912l-1.936 1.936a.644.644 0 01-.912-.912zm-.378 6.074a.645.645 0 01-.912-.912L33.09 18.9a.646.646 0 01.912.912l-7.096 7.097z" fill="#EB1616"/><path d="M7.011 31.46l.03-.03c-.477-.401-1.329-1.296-5.28-5.33a6.247 6.247 0 010-8.697l15.27-15.594a5.964 5.964 0 018.557 0l5.249 5.362a2.749 2.749 0 010 3.826 2.64 2.64 0 01-3.785 0l-3.34-3.41a2.064 2.064 0 00-2.895 0 2.15 2.15 0 000 2.994l3.34 3.41a2.749 2.749 0 010 3.826 2.642 2.642 0 01-3.785 0l-3.34-3.41a2.064 2.064 0 00-2.895 0 2.15 2.15 0 000 2.995l3.34 3.412a2.747 2.747 0 010 3.825 2.639 2.639 0 01-3.785 0l-3.34-3.412a2.064 2.064 0 00-2.896 0 2.152 2.152 0 000 2.995l3.34 3.411a2.747 2.747 0 010 3.825 2.637 2.637 0 01-3.785.001zm.923-.904a1.382 1.382 0 001.94 0 1.452 1.452 0 000-2.021l-3.34-3.41a3.449 3.449 0 010-4.8 3.304 3.304 0 014.74 0l3.34 3.411a1.383 1.383 0 001.94 0 1.452 1.452 0 000-2.021l-3.34-3.41a3.449 3.449 0 010-4.8 3.303 3.303 0 014.739 0l3.34 3.41a1.382 1.382 0 001.942 0 1.452 1.452 0 000-2.02l-3.341-3.41a3.45 3.45 0 010-4.8 3.305 3.305 0 014.74 0l3.34 3.412a1.348 1.348 0 001.94 0 1.452 1.452 0 000-2.02l-5.249-5.365a4.674 4.674 0 00-6.71 0L2.685 18.305a4.951 4.951 0 000 6.892l5.251 5.36h-.001z" fill="#fff"/></svg>