<svg width="40" height="40" fill="none" xmlns="http://www.w3.org/2000/svg"><mask id="a" fill="#fff"><path fill-rule="evenodd" clip-rule="evenodd" d="M7.101 1.156c1.471-1.474 4.005-1.636 5.494.082l6.106 7.05.044.048c1.344 1.552 1.07 3.792-.269 5.136l-.003.003-1.949 1.95a24.646 24.646 0 008.02 8.033l1.954-1.956c1.338-1.342 3.571-1.62 5.121-.289l7.127 6.118c1.732 1.488 1.573 4.033.098 5.508l-5.104 5.113c-2.003 2.006-5.063 2.658-7.615 1.419A54.917 54.917 0 01.628 13.837c-1.237-2.552-.585-5.61 1.416-7.615m0 0L7.1 1.156 2.044 6.222z"/></mask><path d="M12.595 1.238l1.511-1.31-1.511 1.31zM7.1 1.156l1.416 1.413L7.1 1.156zm11.6 7.131l-1.512 1.31.049.053L18.7 8.287zm.044.05l1.512-1.31-1.512 1.31zm-.269 5.136l1.416 1.412.002-.002-1.418-1.41zm-.003.002l1.415 1.414.001-.002-1.416-1.412zm-1.949 1.95l-1.415-1.413a2 2 0 00-.288 2.463l1.703-1.05zm8.02 8.033l-1.052 1.701a2 2 0 002.467-.288l-1.415-1.413zm1.954-1.956l1.415 1.413v-.001l-1.415-1.413zm5.121-.289l-1.302 1.518 1.302-1.518zm7.127 6.118l1.303-1.517-1.303 1.517zm.098 5.508l-1.414-1.414-.002.001 1.416 1.413zm-5.104 5.113l1.415 1.414-1.415-1.414zm-7.615 1.419l.874-1.8h-.001l-.873 1.8zM.628 13.837l1.8-.87v-.002l-1.8.872zm1.416-7.615l1.415 1.414-1.415-1.414zM14.106-.07c-2.363-2.726-6.256-2.355-8.42-.186l2.831 2.825c.777-.778 1.95-.73 2.566-.02l3.023-2.62zm6.15 7.098a3.769 3.769 0 00-.092-.103L17.238 9.65a.114.114 0 01-.005-.004l3.024-2.62zm-.362 7.856c1.974-1.984 2.484-5.408.363-7.856l-3.024 2.619c.568.655.527 1.71-.175 2.416l2.836 2.821zm-.005.005l.003-.003-2.832-2.825-.003.003 2.832 2.824zm-1.95 1.952l1.95-1.951-2.83-2.828-1.95 1.951 2.83 2.828zm7.657 4.917a22.649 22.649 0 01-7.37-7.38l-3.405 2.098a26.647 26.647 0 008.671 8.684l2.104-3.402zm-.514-1.669l-1.953 1.957 2.83 2.826 1.954-1.956-2.83-2.827zm7.84-.392c-2.447-2.102-5.862-1.59-7.84.393l2.831 2.825c.7-.701 1.75-.744 2.404-.183l2.605-3.035zm7.127 6.117l-7.127-6.117-2.605 3.035 7.127 6.117 2.605-3.035zm.21 8.44c2.169-2.169 2.538-6.079-.21-8.44l-2.606 3.035c.717.616.767 1.797-.013 2.577l2.828 2.829zM25.251 41.17c3.39 1.646 7.356.746 9.903-1.804l-2.83-2.827c-1.458 1.46-3.613 1.865-5.326 1.033l-1.747 3.598zM-1.173 14.707A56.916 56.916 0 0025.253 41.17l1.745-3.6a52.917 52.917 0 01-24.57-24.603l-3.601 1.74zM.629 4.809c-2.545 2.548-3.443 6.51-1.8 9.9l3.599-1.744c-.831-1.715-.426-3.87 1.03-5.33L.629 4.81zm2.83 2.826L8.517 2.57 5.686-.257.628 4.809 3.46 7.635zm16.754-.657l-6.107-7.05-3.023 2.62 6.106 7.049 3.024-2.62zm14.943 32.387l5.103-5.113-2.83-2.826-5.104 5.113 2.83 2.826z" fill="#fff" mask="url(#a)"/></svg>