<svg width="26" height="22" fill="none" xmlns="http://www.w3.org/2000/svg"><path d="M26 2.61c-.956.44-1.983.739-3.063.873A5.533 5.533 0 0025.282.411a10.398 10.398 0 01-3.387 1.346A5.276 5.276 0 0018.868.074a5.155 5.155 0 00-3.386.584 5.471 5.471 0 00-2.344 2.61 5.764 5.764 0 00-.333 3.555 14.685 14.685 0 01-6.09-1.684A15.28 15.28 0 011.81 1.02a5.724 5.724 0 00-.721 2.791c0 .914.216 1.814.63 2.62a5.482 5.482 0 001.743 2.002 5.163 5.163 0 01-2.417-.695v.072c0 1.282.426 2.525 1.206 3.517a5.304 5.304 0 003.074 1.927 5.167 5.167 0 01-2.41.096 5.553 5.553 0 001.898 2.759A5.202 5.202 0 007.9 17.205a10.439 10.439 0 01-7.9 2.3A14.658 14.658 0 008.176 22c9.813 0 15.178-8.46 15.178-15.797 0-.238-.006-.48-.016-.717a11.1 11.1 0 002.66-2.873L26 2.61z" fill="#fff"/></svg>