<svg width="23" height="23" viewBox="0 0 23 23" fill="none" xmlns="http://www.w3.org/2000/svg">
<path d="M11.4986 0C5.14913 0 0 5.27915 0 11.7915C0 17.0001 3.29475 21.419 7.866 22.9796C8.441 23.0882 8.65088 22.7241 8.65088 22.4114C8.65088 22.131 8.64081 21.3896 8.63506 20.406C5.43663 21.118 4.761 18.8249 4.761 18.8249C4.23919 17.4626 3.4845 17.1 3.4845 17.1C2.43944 16.3689 3.56212 16.3836 3.56212 16.3836C4.71644 16.4672 5.32306 17.5991 5.32306 17.5991C6.34944 19.4004 8.0155 18.8807 8.671 18.5783C8.7745 17.8164 9.07206 17.2967 9.40125 17.0016C6.84825 16.7036 4.163 15.6921 4.163 11.1749C4.163 9.88739 4.6115 8.83479 5.3475 8.00974C5.22819 7.71172 4.83431 6.51232 5.45963 4.89011C5.45963 4.89011 6.42563 4.57301 8.62213 6.09832C9.53925 5.83701 10.5225 5.70635 11.5014 5.70195C12.4775 5.70782 13.4622 5.83701 14.3807 6.09979C16.5758 4.57448 17.5404 4.89158 17.5404 4.89158C18.1671 6.51525 17.7732 7.71319 17.6554 8.01121C18.3928 8.83626 18.837 9.88886 18.837 11.1763C18.837 15.7053 16.1489 16.7021 13.5872 16.9943C13.9998 17.3583 14.3678 18.0777 14.3678 19.1773C14.3678 20.754 14.3534 22.0253 14.3534 22.4114C14.3534 22.727 14.5604 23.0941 15.1441 22.9781C19.7081 21.4161 23 16.9987 23 11.7915C23 5.27915 17.8509 0 11.4986 0Z" fill="#616161"/>
</svg>
