<svg width="23" height="23" viewBox="0 0 23 23" fill="none" xmlns="http://www.w3.org/2000/svg">
<path d="M15.8125 0H7.1875C3.21856 0 0 3.21856 0 7.1875V15.8125C0 19.7814 3.21856 23 7.1875 23H15.8125C19.7814 23 23 19.7814 23 15.8125V7.1875C23 3.21856 19.7814 0 15.8125 0ZM20.8438 15.8125C20.8438 18.5869 18.5869 20.8438 15.8125 20.8438H7.1875C4.41313 20.8438 2.15625 18.5869 2.15625 15.8125V7.1875C2.15625 4.41313 4.41313 2.15625 7.1875 2.15625H15.8125C18.5869 2.15625 20.8438 4.41313 20.8438 7.1875V15.8125Z" fill="#616161"/>
<path d="M11.501 5.75027C8.32554 5.75027 5.75098 8.32484 5.75098 11.5003C5.75098 14.6757 8.32554 17.2503 11.501 17.2503C14.6764 17.2503 17.251 14.6757 17.251 11.5003C17.251 8.32484 14.6764 5.75027 11.501 5.75027ZM11.501 15.094C9.5201 15.094 7.90723 13.4811 7.90723 11.5003C7.90723 9.51796 9.5201 7.90652 11.501 7.90652C13.4819 7.90652 15.0947 9.51796 15.0947 11.5003C15.0947 13.4811 13.4819 15.094 11.501 15.094Z" fill="#616161"/>
<path d="M17.6812 6.08493C18.1044 6.08493 18.4474 5.74189 18.4474 5.31874C18.4474 4.89559 18.1044 4.55255 17.6812 4.55255C17.2581 4.55255 16.915 4.89559 16.915 5.31874C16.915 5.74189 17.2581 6.08493 17.6812 6.08493Z" fill="#616161"/>
</svg>
