<svg width="9" height="9" viewBox="0 0 9 9" fill="none" xmlns="http://www.w3.org/2000/svg">
<path d="M4.49951 7.51257C4.32989 7.51257 4.19238 7.65008 4.19238 7.8197V8.69291C4.19238 8.86252 4.32989 9.00003 4.49951 9.00003C4.66916 9.00003 4.80663 8.86252 4.80663 8.69291V7.8197C4.80663 7.65004 4.66912 7.51257 4.49951 7.51257Z" fill="#CECECE"/>
<path d="M4.49951 1.48754C4.66916 1.48754 4.80663 1.35003 4.80663 1.18042V0.307123C4.80663 0.137509 4.66916 0 4.49951 0C4.32989 0 4.19238 0.137509 4.19238 0.307123V1.18042C4.19238 1.35003 4.32989 1.48754 4.49951 1.48754Z" fill="#CECECE"/>
<path d="M1.93573 6.63004L1.31805 7.2474C1.19806 7.3673 1.19802 7.56177 1.31792 7.68171C1.37791 7.7417 1.45654 7.77172 1.53516 7.77172C1.61374 7.77172 1.69228 7.74174 1.75228 7.68183L2.36996 7.06448C2.48995 6.94458 2.48999 6.75011 2.37009 6.63016C2.2501 6.51018 2.05567 6.51018 1.93573 6.63004Z" fill="#CECECE"/>
<path d="M6.84714 2.45961C6.92572 2.45961 7.0043 2.42964 7.06429 2.36969L7.6819 1.75233C7.80184 1.63239 7.80188 1.43796 7.68198 1.31797C7.56204 1.19799 7.36761 1.19795 7.24763 1.31793L6.63002 1.93529C6.51008 2.05519 6.51004 2.24966 6.62994 2.3696C6.68989 2.42964 6.76851 2.45961 6.84714 2.45961Z" fill="#CECECE"/>
<path d="M1.48746 4.50006C1.48746 4.33044 1.34995 4.19293 1.18034 4.19293H0.307123C0.137509 4.19293 0 4.33044 0 4.50006C0 4.66967 0.137509 4.80718 0.307123 4.80718H1.18034C1.34995 4.80718 1.48746 4.66967 1.48746 4.50006Z" fill="#CECECE"/>
<path d="M8.69295 4.19293H7.81933C7.64968 4.19293 7.51221 4.33044 7.51221 4.50006C7.51221 4.66967 7.64968 4.80718 7.81933 4.80718H8.69295C8.86261 4.80718 9.00008 4.66967 9.00008 4.50006C9.00008 4.33048 8.86261 4.19293 8.69295 4.19293Z" fill="#CECECE"/>
<path d="M1.93534 2.36963C1.99529 2.42959 2.07392 2.45956 2.1525 2.45956C2.23108 2.45956 2.3097 2.42959 2.36966 2.36963C2.4896 2.24969 2.4896 2.05522 2.36966 1.93528L1.7523 1.31792C1.63235 1.19798 1.43788 1.19798 1.31798 1.31792C1.19804 1.43786 1.19804 1.63233 1.31798 1.75224L1.93534 2.36963Z" fill="#CECECE"/>
<path d="M7.06487 6.63014C6.94493 6.5102 6.75046 6.51016 6.63052 6.6301C6.51054 6.75004 6.51054 6.94451 6.63048 7.06441L7.24775 7.68177C7.30775 7.74176 7.38633 7.77174 7.46495 7.77174C7.54353 7.77174 7.62216 7.74176 7.68211 7.68181C7.80209 7.56187 7.80209 7.3674 7.68215 7.2475L7.06487 6.63014Z" fill="#CECECE"/>
<path d="M4.50022 2.10962C3.18217 2.10962 2.10986 3.18201 2.10986 4.50014C2.10986 5.81823 3.18217 6.89058 4.50022 6.89058C5.8184 6.89058 6.89079 5.81823 6.89079 4.50014C6.89079 3.18201 5.81835 2.10962 4.50022 2.10962ZM4.50022 6.27634C3.52087 6.27634 2.72411 5.47954 2.72411 4.50014C2.72411 3.52071 3.52087 2.72387 4.50022 2.72387C5.4797 2.72387 6.27654 3.52071 6.27654 4.50014C6.27654 5.47954 5.4797 6.27634 4.50022 6.27634Z" fill="#CECECE"/>
</svg>
