<svg width="29" height="17" viewBox="0 0 29 17" fill="none" xmlns="http://www.w3.org/2000/svg">
<path d="M28.7415 14.7586C28.6636 14.6281 28.1814 13.5804 25.8612 11.427C23.4323 9.17208 23.7586 9.53823 26.6842 5.63925C28.466 3.26471 29.1784 1.8146 28.9554 1.19468C28.7433 0.60376 27.4328 0.759647 27.4328 0.759647L23.0752 0.785024C23.0752 0.785024 22.7526 0.741521 22.5115 0.884719C22.2777 1.0261 22.1272 1.35238 22.1272 1.35238C22.1272 1.35238 21.4366 3.19039 20.5158 4.75288C18.5745 8.05006 17.7968 8.22407 17.4796 8.01924C16.7419 7.54252 16.9268 6.10148 16.9268 5.07915C16.9268 1.88348 17.4107 0.551194 15.9824 0.206794C15.5075 0.0925978 15.1595 0.0164672 13.9468 0.00377882C12.3916 -0.0125349 11.0738 0.00921671 10.3288 0.373556C9.83213 0.616449 9.44966 1.15843 9.68349 1.18924C9.9717 1.22731 10.6242 1.36507 10.9705 1.83635C11.4182 2.44358 11.4019 3.81031 11.4019 3.81031C11.4019 3.81031 11.6593 7.57152 10.8019 8.03918C10.2128 8.36002 9.40616 7.70566 7.67509 4.713C6.78872 3.18132 6.11804 1.48651 6.11804 1.48651C6.11804 1.48651 5.98934 1.17111 5.75914 1.00254C5.47999 0.797712 5.08847 0.732458 5.08847 0.732458L0.944787 0.757834C0.944787 0.757834 0.323053 0.775961 0.0946616 1.04604C-0.108353 1.28712 0.0783479 1.78378 0.0783479 1.78378C0.0783479 1.78378 3.32296 9.37328 6.99536 13.1997C10.365 16.7072 14.1897 16.477 14.1897 16.477H15.9226C15.9226 16.477 16.4464 16.419 16.7129 16.1308C16.9594 15.8661 16.9503 15.3695 16.9503 15.3695C16.9503 15.3695 16.9159 13.0439 17.9962 12.7013C19.0602 12.3641 20.427 14.9489 21.8753 15.9441C22.9701 16.6963 23.8021 16.5314 23.8021 16.5314L27.6757 16.477C27.6757 16.477 29.7022 16.3519 28.7415 14.7586Z" fill="#616161"/>
</svg>
