<svg width="15" height="10" fill="none" xmlns="http://www.w3.org/2000/svg"><path fill-rule="evenodd" clip-rule="evenodd" d="M12.75 1.374H9.2v.865h3.55v-.865zM5.711 4.767c.351-.157.655-.404.88-.716.219-.329.329-.718.315-1.114a2.45 2.45 0 00-.2-1.03c-.14-.27-.346-.5-.6-.666a2.519 2.519 0 00-.863-.4A5.5 5.5 0 004.114.673H0v8.85h4.217c.38.008.76-.037 1.129-.133.36-.091.699-.25 1-.466.299-.186.541-.45.7-.765.18-.361.267-.76.254-1.164a2.444 2.444 0 00-.4-1.414 2.1 2.1 0 00-1.2-.814l.011-.001zM1.826 2.239h1.893c.169.004.336.026.5.066.144.026.28.083.4.166a.749.749 0 01.315.3.98.98 0 01.116.502.87.87 0 01-.332.765c-.262.15-.562.22-.863.2H1.826v-2zm3.453 5.223a.93.93 0 01-.315.383c-.139.085-.29.147-.448.183-.185.04-.374.063-.564.066H1.826V5.666h2.192c.353-.02.703.073 1 .266a1.177 1.177 0 01.365.965c.01.194-.025.387-.1.565h-.004zM14.045 5.4a3.727 3.727 0 00-.564-1.226 2.869 2.869 0 00-2.391-1.169 3.231 3.231 0 00-1.328.267c-.372.173-.71.41-1 .701A3.272 3.272 0 008.1 5.05a3.784 3.784 0 00-.231 1.347c-.007.454.072.905.231 1.33.12.402.337.768.631 1.066.285.31.637.55 1.029.701.424.16.875.239 1.328.233a3.21 3.21 0 001.826-.532 2.747 2.747 0 001.129-1.664h-1.525c-.08.25-.244.462-.465.601-.266.179-.58.272-.9.267a1.607 1.607 0 01-1.129-.366A1.665 1.665 0 019.6 6.797h4.549c.044-.468.01-.94-.1-1.398h-.004zM9.6 5.666a1.05 1.05 0 01.1-.401.802.802 0 01.216-.433c.13-.14.281-.258.448-.35.217-.109.458-.16.7-.149a1.237 1.237 0 01.963.333c.23.286.37.635.4 1.002H9.6v-.002z" fill="#CCC"/></svg>