<svg width="51" height="51" fill="none" xmlns="http://www.w3.org/2000/svg"><g clip-path="url(#clip0_24:34)" fill="#fff"><path d="M48.332 19.396a11.811 11.811 0 002.539-9.219C49.918 3.677 43.876-.82 37.376.132A11.896 11.896 0 0029.9 4.359a6.094 6.094 0 01-6.273 2.156 15.255 15.255 0 00-6.033-.432A15.423 15.423 0 004.393 19.164a15.201 15.201 0 001.463 8.894 5.942 5.942 0 00-.68 11.834l.918 9.404c0 .939.76 1.7 1.699 1.7h4.958a1.7 1.7 0 001.29-.595c.336-.4.473-.931.374-1.445l-2.272-9.007h.425c.94.005 1.878.073 2.809.203A18.66 18.66 0 0034.024 50.92a18.832 18.832 0 0016.91-17.096 18.553 18.553 0 00-2.781-11.41 2.593 2.593 0 01.179-3.018zM5.104 38.165a4.249 4.249 0 010-8.328v8.328zm7.647 11.131l-4.962-.085-.9-9.262h3.5l2.362 9.347zM6.803 38.25v-8.497h1.7v8.497h-1.7zm5.762 0h-2.363v-8.497h2.363c2.466 0 4.916-.397 7.255-1.178l3.978-1.326v13.504l-3.978-1.325a22.887 22.887 0 00-7.255-1.178zm36.67-4.562c-.751 9.34-8.932 16.304-18.273 15.553a16.967 16.967 0 01-13.495-8.712c.61.145 1.217.31 1.816.51l9.347 3.115a.85.85 0 001.116-.806V39.1a3.399 3.399 0 003.399-3.4v-3.398a3.399 3.399 0 00-3.4-3.4v-4.248a.85.85 0 00-1.117-.806l-9.348 3.115a21.215 21.215 0 01-6.715 1.09H7.793a13.502 13.502 0 01-1.716-8.667c1.027-7.433 7.886-12.627 15.319-11.6.598.082 1.19.205 1.773.366a7.79 7.79 0 008.045-2.714c3.558-4.361 9.977-5.013 14.339-1.456 4.361 3.558 5.013 9.977 1.456 14.34a4.294 4.294 0 00-.302 4.992 16.868 16.868 0 012.527 10.374zM25.496 41.32V26.682l2.55-.85V42.17l-2.55-.85zm4.249-3.92v-6.798a1.7 1.7 0 011.7 1.7V35.7a1.7 1.7 0 01-1.7 1.7z"/><path d="M15.3 34.85h-3.398v1.7H15.3v-1.7zm0-3.398h-3.398v1.7H15.3v-1.7zm27.899-20.015a.848.848 0 00-.236-.236l-5.098-3.399a.85.85 0 00-1.321.707v6.798a.85.85 0 001.321.707l5.098-3.399a.85.85 0 00.236-1.178zm-4.956 2.282v-3.622l2.72 1.811-2.72 1.81z"/><path d="M39.093 4.26a7.648 7.648 0 00-7.648 7.648 7.656 7.656 0 007.648 7.648 7.648 7.648 0 000-15.295zm0 13.596a5.948 5.948 0 01-5.948-5.948 5.955 5.955 0 015.948-5.948 5.948 5.948 0 110 11.896zm-16.995-2.549h-.85a.85.85 0 01-.85-.85v-2.549a2.55 2.55 0 10-5.098 0v2.55a.85.85 0 01-.85.849.85.85 0 00-.849-.85h-3.399a.85.85 0 00-.85.85v9.347c0 .47.38.85.85.85h3.399c.47 0 .85-.38.85-.85h7.647a2.55 2.55 0 002.55-2.55v-4.248a2.55 2.55 0 00-2.55-2.549zm-9.347 8.497h-1.7v-7.647h1.7v7.647zm10.197-1.7c0 .47-.38.85-.85.85h-7.647v-5.948A2.549 2.549 0 0017 14.457v-2.549a.85.85 0 011.7 0v2.55a2.55 2.55 0 002.549 2.548h.85c.469 0 .85.38.85.85v4.249zm23.894 8.755l-.362-.364a2.559 2.559 0 00-3.216-.318l-.919.613-.918-.613a2.557 2.557 0 00-3.216.318l-.364.364a2.549 2.549 0 000 3.604l3.897 3.896a.85.85 0 001.201 0l3.897-3.896a2.55 2.55 0 000-3.604zm-1.2 2.402l-3.297 3.296-3.295-3.292a.85.85 0 010-1.202l.363-.362a.85.85 0 011.072-.107l1.39.927a.85.85 0 00.943 0l1.39-.927a.85.85 0 011.072.106v-.004l.361.363a.85.85 0 01.001 1.202zM33.172 22.75l-.85 3.398 1.647.412.851-3.398-1.648-.413zm4.69 2.843l-3.398 1.7.76 1.52 3.398-1.7-.76-1.52zm-3.897 16.699l-1.648.412.85 3.399 1.648-.412-.85-3.399zm1.258-2.254l-.76 1.52 3.399 1.7.76-1.52-3.4-1.7z"/><path d="M.855 22.954h1.7c0-11.53 6.837-18.694 17.844-18.694V2.561C8.344 2.561.855 10.379.855 22.954z"/></g><defs><clipPath id="clip0_24:34"><path fill="#fff" d="M0 0h51v51H0z"/></clipPath></defs></svg>