<svg width="51" height="51" fill="none" xmlns="http://www.w3.org/2000/svg"><path d="M39.484 4.185v-.072A4.118 4.118 0 0035.37 0H10.693a4.118 4.118 0 00-4.112 4.113V8.41A25.409 25.409 0 00.667 31.258H0v4.113a4.118 4.118 0 004.113 4.113h.072C8.925 46.699 16.853 51 25.5 51 39.56 51 51 39.56 51 25.5c0-8.648-4.3-16.576-11.516-21.315zm-1.645-.072v10.694h-4.936V4.112a2.471 2.471 0 012.468-2.468 2.47 2.47 0 012.468 2.468zM10.694 1.645h21.408a4.072 4.072 0 00-.844 2.468v14.274a4.892 4.892 0 00-1.645-.29 4.94 4.94 0 00-4.936 4.935c0 .096.01.19.015.283a4.921 4.921 0 00-3.305 4.653c0 .392.051.772.138 1.139a4.923 4.923 0 00-1.492 2.151H8.226V4.113a2.47 2.47 0 012.467-2.468zm31.697 23.29a3.281 3.281 0 012.028 3.033 3.294 3.294 0 01-3.29 3.29v1.645c1.705 0 3.21-.87 4.097-2.187.511.573.816 1.309.837 2.094.03 1.075-.568 2.13-1.6 2.82-1.007.676-1.815.611-2.405.48l-.84-.187-.15.846a3.277 3.277 0 01-1.916 2.427l-.49.216v1.717h-2.468v-6.58h.822a2.471 2.471 0 002.468-2.468 2.471 2.471 0 00-2.468-2.468 2.47 2.47 0 00-2.468 2.468v.822h-1.645v-.822a2.47 2.47 0 00-2.467-2.468 2.471 2.471 0 00-2.468 2.468 2.471 2.471 0 002.468 2.467h.822v6.581H28.79v-1.717l-.49-.217a3.28 3.28 0 01-1.917-2.426l-.15-.847-.839.187c-.59.131-1.4.195-2.406-.479-1.031-.69-1.629-1.745-1.6-2.82a3.283 3.283 0 01.838-2.095 4.93 4.93 0 004.097 2.188v-1.645a3.294 3.294 0 01-3.29-3.29 3.28 3.28 0 012.027-3.032 4.943 4.943 0 004.553 3.032v-1.645a3.294 3.294 0 01-3.29-3.29 3.294 3.294 0 013.29-3.291 3.294 3.294 0 013.29 3.29h1.645a3.294 3.294 0 013.29-3.29 3.294 3.294 0 013.291 3.29 3.294 3.294 0 01-3.29 3.29v1.646a4.942 4.942 0 004.552-3.032zm-13.304 21.13h8.481a23.679 23.679 0 01-6.347 2.591 4.947 4.947 0 01-2.134-2.591zm-1.942-1.646a.824.824 0 01-.822-.822c0-.453.37-.823.822-.823h13.161c.424 0 .762.327.806.74-.36.312-.728.615-1.107.905h-12.86zm4.113-11.516h-.822a.824.824 0 01-.823-.822c0-.453.37-.823.823-.823.453 0 .822.37.822.823v.822zm3.29 8.226h-1.645v-6.58h1.645v6.58zm1.645-8.226v-.822c0-.453.37-.823.823-.823.453 0 .823.37.823.823 0 .453-.37.822-.823.822h-.822zM1.645 25.5a23.763 23.763 0 014.936-14.53v20.288H2.358a23.917 23.917 0 01-.713-5.758zm0 9.871v-2.468H19.75c.007 1.593.862 3.115 2.323 4.094.924.62 1.875.897 2.893.83a.095.095 0 00.005.012H4.113a2.47 2.47 0 01-2.468-2.468zm4.526 4.113h19.798c.34.375.728.708 1.175.967v.678a2.471 2.471 0 00-2.467 2.468 2.471 2.471 0 002.467 2.468h.22a6.581 6.581 0 001.743 3.017c-1.175.18-2.38.273-3.607.273-7.725 0-14.842-3.663-19.329-9.871zm36.233 2.83a2.46 2.46 0 00-2.098-1.185v-.678a4.916 4.916 0 002.18-2.623c1.021.066 1.97-.211 2.894-.83 1.503-1.008 2.373-2.59 2.328-4.233a4.927 4.927 0 00-1.78-3.658 4.96 4.96 0 00.137-1.14 4.922 4.922 0 00-3.305-4.652c.005-.094.014-.187.014-.283a4.94 4.94 0 00-4.935-4.935 4.934 4.934 0 00-4.113 2.21 4.988 4.988 0 00-.823-.945v-2.91h6.58V6.17c6.209 4.486 9.872 11.604 9.872 19.329 0 6.553-2.658 12.497-6.951 16.813z" fill="#fff"/><path d="M29.613 3.29H9.87v11.517h19.742V3.29zm-1.645 9.871H11.516V4.937h16.452v8.226zM9.871 16.452h9.87v1.645h-9.87v-1.645zm0 3.29h9.87v1.645h-9.87v-1.645zm0 3.29h9.87v1.645h-9.87v-1.645zm8.226 3.291h1.645v1.645h-1.645v-1.645zm-8.226 0h6.58v1.645h-6.58v-1.645z" fill="#fff"/></svg>