<svg width="51" height="52" fill="none" xmlns="http://www.w3.org/2000/svg"><path d="M44.04 37.44c.27-1.434.263-2.907-.02-4.339l3.897-9.405v-.019a15.979 15.979 0 012.736-4.75 1.27 1.27 0 00.314-1.161l-1.599-6.901a.831.831 0 00-.085-.206c-.006-.013-.009-.028-.016-.04-.007-.012-.036-.04-.053-.063a.86.86 0 00-.12-.14.782.782 0 00-.093-.057.868.868 0 00-.132-.08.842.842 0 00-.2-.048c-.019 0-.036-.013-.055-.015a.852.852 0 00-.47.105c-.012.007-.027.01-.04.017h-.008l-6.009 3.75a1.27 1.27 0 00-.6 1.047 15.972 15.972 0 01-1.43 5.304v.009l-1.949 4.708a11.414 11.414 0 00-3.04-1.098c.402-2.77.55-5.57.442-8.367a9.287 9.287 0 002.112-6.817C37.09 3.914 32.608.333 32.416.182a.85.85 0 00-1.348.888c.438 1.646.058 3.382-3.178 6.954a4.98 4.98 0 00-1.167 5.426c.286.718.696 1.38 1.212 1.957a59.56 59.56 0 00-.48 3.772 42.6 42.6 0 00-.147 6.035c-.76.412-1.47.907-2.12 1.476L21.063 9.042c0-.018-.017-.03-.022-.047a.806.806 0 00-.06-.164l-4.215-7.785a1.965 1.965 0 00-3.692.865l-.32 8.845c0 .064.008.127.022.19v.038l4.21 17.969a9.588 9.588 0 00-1.967.293l-4.632-11.185a1.72 1.72 0 00-2.22-.91l-7.08 2.931a1.707 1.707 0 00-.921 2.223l6.28 15.155a6.803 6.803 0 00.351 13.596h37.44a6.808 6.808 0 00-.197-13.614zm-.867-22.024l3.567-2.226-1.263 3.05a.851.851 0 101.573.651l1.263-3.05.945 4.096a16.833 16.833 0 00-2.468 4.073 3.5 3.5 0 01-4.756-1.967 16.81 16.81 0 001.139-4.627zm-1.957 6.68a5.183 5.183 0 002.121 1.545 5.399 5.399 0 002.082.439 4.44 4.44 0 00.516-.032L43.22 30.6a11.548 11.548 0 00-3.654-4.517l1.65-3.987zM29.558 16.02l4.275.261a37.23 37.23 0 01-.01 2.452 17.887 17.887 0 01-4.262-.206c-.107-.016-.212-.028-.318-.042.085-.802.189-1.613.314-2.465h.001zm-.406-6.853c2.26-2.492 3.43-4.41 3.703-6.211a11.38 11.38 0 013.07 6.1 7.624 7.624 0 01-1.722 5.54c-1.68-.102-3.343-.204-4.987-.306a3.549 3.549 0 01-.065-5.123h.001zm-.064 11.014l.246.032c1.097.17 2.204.264 3.313.282.352 0 .723-.028 1.095-.057a53.569 53.569 0 01-.365 3.42c-.21-.01-.416-.03-.627-.03-1.285.001-2.56.22-3.771.648a41.096 41.096 0 01.107-4.295h.002zm-6.582 9.95L20.07 19.76a.851.851 0 00-1.656.388l2.187 9.334a9.634 9.634 0 00-1.855-.462l-3.734-15.938a4.032 4.032 0 001.666.363c.053 0 .11-.008.165-.01l.601 2.569a.851.851 0 101.657-.389l-.602-2.57a4.03 4.03 0 001.486-1.132l3.797 16.235a11.41 11.41 0 00-1.277 1.983zm-5.2-18.464a2.825 2.825 0 01-2.84-1.138l.108-2.997a5 5 0 00.897.085c.291.001.581-.031.865-.096a4.334 4.334 0 001.577-.785l1.433 2.645a2.822 2.822 0 01-2.04 2.287v-.001zm-2.33-9.94a.265.265 0 01.293.13l1.824 3.374a2.896 2.896 0 01-1.149.638c-.436.08-.884.059-1.31-.062l.138-3.834a.264.264 0 01.204-.247zM8.818 18.72l.65 1.57-3.148 1.304a.851.851 0 00.653 1.57l3.149-1.304.65 1.573-1.575.652a.851.851 0 10.652 1.573l1.575-.653.651 1.573-3.15 1.306a.85.85 0 10.651 1.572l3.149-1.303.688 1.662a9.878 9.878 0 00-5.51 6.706l-6.167-14.87 7.082-2.931zm35.42 30.633H6.796a5.106 5.106 0 111.456-10 .85.85 0 001.097-.8 8.084 8.084 0 0112.934-6.304.851.851 0 001.304-.383 9.786 9.786 0 0118.948 3.446 9.698 9.698 0 01-.43 2.871.851.851 0 00.995 1.083 5.319 5.319 0 011.136-.124 5.105 5.105 0 110 10.21z" fill="#000"/><path d="M32.907 13.36a.85.85 0 00.681-.337 6.382 6.382 0 001.132-5.01.851.851 0 10-1.644.438 4.727 4.727 0 01-.844 3.545.85.85 0 00.68 1.362l-.005.002zm-1.119 25.783a4.183 4.183 0 00-1.825.425 5.105 5.105 0 00-8.82 5.012.851.851 0 001.566-.667 3.469 3.469 0 01-.28-1.367 3.404 3.404 0 013.403-3.403 3.37 3.37 0 013.076 1.957.947.947 0 00.06.08.771.771 0 00.045.085c.015.019.037.027.054.045a.82.82 0 00.132.11.83.83 0 00.136.086.93.93 0 00.153.047.78.78 0 00.16.025c.111 0 .22-.02.326-.055a.621.621 0 00.067-.016.782.782 0 00.079-.058.886.886 0 00.09-.046 2.51 2.51 0 011.578-.559 2.553 2.553 0 012.315 1.485.851.851 0 001.549-.706 4.255 4.255 0 00-3.864-2.48zM15.037 33.23c-.128.041-3.135 1.081-3.135 4.21a.851.851 0 101.702 0 2.925 2.925 0 011.976-2.597.853.853 0 10-.543-1.617v.004zm11.975-.92a.85.85 0 001.031-.619 3.63 3.63 0 013.435-2.76.85.85 0 00-.004-1.701 5.3 5.3 0 00-5.08 4.048.85.85 0 00.618 1.032z" fill="#000"/></svg>