<svg width="48" height="48" fill="none" xmlns="http://www.w3.org/2000/svg"><path d="M28.687 38.25a3.176 3.176 0 00-2 .712 3.187 3.187 0 100 4.95 3.187 3.187 0 102-5.662zm-3.984 4.781a1.594 1.594 0 110-3.187 1.594 1.594 0 010 3.187zm3.984 0a1.568 1.568 0 01-1.036-.387 3.146 3.146 0 000-2.413c.287-.25.655-.388 1.036-.387a1.594 1.594 0 110 3.187zm-11.953-3.187H5.578a.797.797 0 00-.797.797v3.187a.797.797 0 00.797.797h11.156a.797.797 0 00.797-.797v-3.187a.797.797 0 00-.797-.797zm-.797 3.187H6.376v-1.593h9.563v1.593zM31.875 3.984h1.594a.797.797 0 000-1.593h-1.594a.797.797 0 000 1.593z" fill="#fff"/><path d="M43.828 0H21.516a3.99 3.99 0 00-3.985 3.984V25.5H3.984A3.99 3.99 0 000 29.484v14.344a3.989 3.989 0 003.984 3.984h39.844a3.99 3.99 0 003.984-3.984V3.984A3.99 3.99 0 0043.828 0zM21.516 1.594h22.312a2.39 2.39 0 012.39 2.39v.797H19.126v-.797a2.39 2.39 0 012.39-2.39zm-2.391 4.781h27.094v33.469H35.062v-10.36a3.99 3.99 0 00-3.984-3.984H19.125V6.375zm-17.531 25.5h31.875v1.594H1.594v-1.594zm2.39-4.781h27.094a2.39 2.39 0 012.39 2.39v.797H1.595v-.797a2.39 2.39 0 012.39-2.39zm-2.39 16.734v-8.766h31.875v8.766a2.39 2.39 0 01-2.39 2.39H3.983a2.39 2.39 0 01-2.39-2.39zm42.234 2.39h-9.583a3.943 3.943 0 00.818-2.39v-2.39h11.156v2.39a2.39 2.39 0 01-2.39 2.39z" fill="#fff"/><path d="M39.844 20.719V12.75a.797.797 0 00-.797-.797h-2.39a3.984 3.984 0 10-7.97 0h-2.39a.797.797 0 00-.797.797v7.969a3.99 3.99 0 003.984 3.984h6.375a3.989 3.989 0 003.985-3.984zM32.672 9.562a2.39 2.39 0 012.39 2.391h-4.78a2.39 2.39 0 012.39-2.39zM27.094 20.72v-7.172h1.593v1.594a.797.797 0 001.594 0v-1.594h4.782v1.594a.797.797 0 001.593 0v-1.594h1.594v7.172a2.39 2.39 0 01-2.39 2.39h-6.376a2.39 2.39 0 01-2.39-2.39z" fill="#fff"/></svg>