<svg width="51" height="51" fill="none" xmlns="http://www.w3.org/2000/svg"><path d="M44.996 23.633c-1.736-.868-4.99-.878-5.127-.878a.747.747 0 100 1.495c.84 0 3.277.129 4.458.72a.747.747 0 00.668-1.337z" fill="#000"/><path d="M48.72 34.27l-3.085-.882a.313.313 0 01-.227-.3v-1.03c.252-.174.491-.368.715-.585a5.496 5.496 0 001.682-3.976v-1.421l.298-.597c.328-.655.5-1.388.5-2.12v-3.85a.747.747 0 00-.746-.747h-7.19a4.747 4.747 0 00-4.74 4.74v.045c0 .61.143 1.219.416 1.763l.382.766v1.22c0 1.934.953 3.669 2.397 4.713v1.08c0 .166 0 .234-.617.41l-1.506.43-4.355-1.583a.747.747 0 00-.203-.572l-1.392-1.462v-2.454a8.98 8.98 0 00.433-.378 8.768 8.768 0 002.762-6.374v-1.96a8.636 8.636 0 00.8-3.631V7.527a.747.747 0 00-.748-.747H23.113c-3.936 0-7.137 3.202-7.137 7.137v1.598c0 1.257.268 2.478.798 3.631v1.687A9.128 9.128 0 0019.97 27.8v2.512l-1.392 1.462a.747.747 0 00-.204.572l-4.596 1.672a3.917 3.917 0 00-.924.484l-.721-.361c2.148-.935 2.829-2.25 2.862-2.316a.747.747 0 000-.668c-.54-1.078-.604-3.052-.657-4.638a40.937 40.937 0 00-.065-1.472c-.255-3.583-2.98-6.285-6.337-6.285-3.358 0-6.082 2.702-6.337 6.285-.031.445-.048.944-.065 1.472-.053 1.586-.118 3.56-.656 4.638a.747.747 0 000 .668c.032.065.712 1.378 2.864 2.314l-2.004 1.002A3.127 3.127 0 000 37.953v5.52a.747.747 0 001.494 0v-5.52c0-.629.35-1.194.912-1.475l2.496-1.248.869.825a3.134 3.134 0 002.165.865c.78 0 1.558-.288 2.165-.865l.869-.825.814.407a3.934 3.934 0 00-.601 2.086v5.75a.747.747 0 001.494 0v-5.75c0-1.026.648-1.95 1.612-2.301l4.846-1.762 2.017 3.026a1.54 1.54 0 001.288.688c.408 0 .8-.16 1.091-.452l1.231-1.231v7.782a.747.747 0 001.494 0V35.69l1.231 1.23a1.539 1.539 0 001.246.446 1.54 1.54 0 001.134-.68l2.017-3.027 4.846 1.762a2.456 2.456 0 011.612 2.3v5.75a.747.747 0 001.494 0v-5.75a3.95 3.95 0 00-1.105-2.733l.184-.052c.187-.053.44-.126.696-.251l1.907 1.907v6.88a.747.747 0 001.494 0v-6.88l1.894-1.894c.101.051.207.095.318.126l3.086.882a1.656 1.656 0 011.196 1.586v6.18a.747.747 0 101.494 0v-6.18c0-1.397-.938-2.64-2.28-3.023zM4.793 32.95c-1.398-.503-2.099-1.173-2.398-1.54.204-.532.336-1.143.426-1.788a5.57 5.57 0 001.972 2.433v.895zm4.28 2.022a1.649 1.649 0 01-2.273 0l-.695-.66c.117-.22.182-.469.182-.73v-.796a5.556 5.556 0 003.299 0v.796c0 .261.064.51.181.73l-.695.66zm-1.137-3.43a4.05 4.05 0 01-4.045-4.045.747.747 0 00-.87-.736l.007-.192c.016-.514.032-1 .062-1.415.095-1.343.632-2.58 1.51-3.484a4.617 4.617 0 013.336-1.414c1.265 0 2.45.502 3.336 1.414.879.904 1.415 2.141 1.51 3.483.03.417.046.902.063 1.415l.005.133c-.813-1.252-2.068-2.175-3.69-2.696a9.381 9.381 0 00-2.842-.45.747.747 0 00-.517.228l-1.348 1.398a.747.747 0 101.076 1.037l1.121-1.163c.966.047 4.074.409 5.282 3.07a4.036 4.036 0 01-3.996 3.418zm3.143 1.41v-.89a5.527 5.527 0 001.973-2.436c.09.644.222 1.253.425 1.785-.297.363-1.002 1.04-2.398 1.542zm7.19-12.12V18.98a.746.746 0 00-.075-.325 7.166 7.166 0 01-.724-3.139v-1.598a5.65 5.65 0 015.643-5.643H33.55v7.241a7.166 7.166 0 01-.724 3.14.747.747 0 00-.075.324v2.128c0 2.023-.813 3.9-2.29 5.284a7.427 7.427 0 01-.573.485l-.013.01a7.183 7.183 0 01-4.848 1.446c-3.79-.246-6.757-3.54-6.757-7.5zm4.206 15.033c-.005.005-.017.017-.042.015a.047.047 0 01-.038-.023l-2.323-3.485.748-.786 3.524 2.41-1.869 1.869zm3.034-2.883l-4.045-2.765v-1.395a8.412 8.412 0 004.053 1.02 8.654 8.654 0 004.038-.99v1.365l-4.046 2.765zm3.114 2.875a.048.048 0 01-.038.023c-.024.003-.036-.01-.041-.015l-1.87-1.87 3.525-2.409.748.786-2.323 3.485zm13.642-.63l-1.695-1.695c.03-.135.046-.282.046-.444v-.315a5.24 5.24 0 001.651.264c.567 0 1.12-.086 1.647-.25v.301c0 .15.02.295.054.436l-1.703 1.703zm2.817-4.827a4.015 4.015 0 01-2.942 1.14c-2.162-.064-3.92-1.969-3.92-4.244v-1.397a.746.746 0 00-.08-.334l-.461-.923a2.461 2.461 0 01-.258-1.095v-.044a3.25 3.25 0 013.246-3.247h6.443v3.103a3.27 3.27 0 01-.343 1.452l-.377.754a.746.746 0 00-.08.334v1.598a4.014 4.014 0 01-1.228 2.903z" fill="#000"/><path d="M47.058 37.933a.747.747 0 00-.747.747v4.792a.747.747 0 001.494 0V38.68a.747.747 0 00-.747-.747zm-43.116.987a.747.747 0 00-.747.747v3.805a.747.747 0 001.494 0v-3.805a.747.747 0 00-.747-.747zM31.63 15.785c-2.826-2.825-8.738-2.285-11.149-1.921-.76.114-1.31.756-1.31 1.527v1.721a.747.747 0 001.494 0v-1.72c0-.026.017-.048.039-.051.963-.145 2.874-.37 4.854-.237 2.33.155 4.017.74 5.015 1.738a.747.747 0 001.056-1.057zM16.723 39.53a.747.747 0 00-.747.747v3.195a.747.747 0 001.494 0v-3.195a.747.747 0 00-.747-.747zm17.573 0a.747.747 0 00-.747.747v3.195a.747.747 0 001.494 0v-3.195a.747.747 0 00-.747-.747z" fill="#000"/></svg>