<svg width="51" height="51" fill="none" xmlns="http://www.w3.org/2000/svg"><g clip-path="url(#clip0_24:305)" fill="#000"><path d="M47.653 25.506c1.074-2.139 1.918-4.29 2.505-6.409 1.838-6.64.948-12.199-2.508-15.654C44.195-.012 38.635-.903 31.996.936c-2.12.586-4.27 1.431-6.41 2.504-2.66-1.336-5.326-2.313-7.894-2.876C11.727-.744 6.699.279 3.536 3.443 1.505 5.473.327 8.327.13 11.694c-.177 3.03.437 6.507 1.775 10.088a4.732 4.732 0 000 7.436C.567 32.8-.047 36.277.13 39.306c.198 3.367 1.375 6.22 3.406 8.251 2.267 2.268 5.449 3.438 9.292 3.438.772 0 1.57-.047 2.394-.142 3.295-.38 6.816-1.503 10.37-3.29 2.138 1.072 4.287 1.916 6.404 2.502 2.26.625 4.394.935 6.363.935 3.817 0 7.012-1.163 9.291-3.443 3.164-3.163 4.187-8.19 2.88-14.156-.563-2.568-1.54-5.233-2.877-7.895zM32.395 2.378C38.492.69 43.535 1.444 46.592 4.5c3.058 3.058 3.812 8.1 2.123 14.197a33.185 33.185 0 01-1.93 5.17c-1.447-2.596-3.227-5.168-5.29-7.621a4.716 4.716 0 001.01-2.92c0-1.064-.344-2.07-.996-2.908l-1.182.92a3.21 3.21 0 01.682 1.988 3.246 3.246 0 01-3.243 3.243 3.246 3.246 0 01-3.243-3.243 3.246 3.246 0 014.897-2.79l.765-1.286a4.737 4.737 0 00-5.339.347c-2.453-2.063-5.025-3.843-7.62-5.29a33.231 33.231 0 015.169-1.93zM4.594 4.5C8.64.455 16.06.606 23.954 4.303 20.1 6.453 16.32 9.331 12.872 12.78c-2.557 2.557-4.808 5.304-6.699 8.171a4.781 4.781 0 00-2.947.093C.633 13.976 1.12 7.976 4.594 4.501zm8.273 44.992c-3.385 0-6.264-.985-8.273-2.994-3.475-3.475-3.961-9.474-1.368-16.542a4.717 4.717 0 002.946.09c1.89 2.869 4.142 5.616 6.7 8.174 3.447 3.447 7.226 6.325 11.079 8.474-3.958 1.852-7.765 2.798-11.084 2.798zM25.59 45.88c-4.043-2.123-8.034-5.094-11.659-8.718a50.94 50.94 0 01-6.395-7.768 4.736 4.736 0 002.025-4.317l-1.49.132a3.246 3.246 0 01-3.23 3.533A3.246 3.246 0 011.595 25.5a3.246 3.246 0 013.243-3.243c1.235 0 2.347.687 2.9 1.791l1.339-.67a4.745 4.745 0 00-1.54-1.778 50.975 50.975 0 016.392-7.763c3.625-3.625 7.619-6.596 11.662-8.72 2.752 1.45 5.537 3.317 8.234 5.579a4.71 4.71 0 00-.8 2.631 4.745 4.745 0 004.74 4.74 4.71 4.71 0 002.631-.8c2.262 2.697 4.13 5.482 5.578 8.233-2.123 4.044-5.094 8.037-8.72 11.663-.398.399-.808.795-1.222 1.183a4.718 4.718 0 00-3.056-1.122c-1.065 0-2.07.345-2.908.997l.919 1.18a3.213 3.213 0 011.989-.68 3.247 3.247 0 013.242 3.242 3.246 3.246 0 01-3.242 3.243 3.246 3.246 0 01-2.79-4.897l-1.287-.765a4.738 4.738 0 00-.175 4.512 43.41 43.41 0 01-3.136 1.825zm21.003.618c-3.058 3.058-8.1 3.812-14.197 2.124a33.222 33.222 0 01-5.166-1.929 46.4 46.4 0 002.364-1.416 4.726 4.726 0 003.384 1.425 4.745 4.745 0 004.74-4.74c0-.91-.26-1.76-.706-2.483a54.64 54.64 0 001.303-1.259c3.448-3.449 6.326-7.229 8.476-11.083 3.697 7.895 3.848 15.315-.198 19.361z"/><path d="M37.865 33.233H36.32v-3.77a3.756 3.756 0 00-2.726-3.602l-.56-.158-.406 1.44.56.159a2.253 2.253 0 011.635 2.16v3.771h-2.694v-2.045h-1.496v2.045h-6.736v1.497h13.97v-1.497z"/><path d="M28.068 25.858l3.119.88.407-1.441-3.058-.862v-1.988a5.237 5.237 0 002.295-4.33V15.92a5.244 5.244 0 00-5.238-5.238 5.245 5.245 0 00-5.239 5.238v2.195c0 1.798.911 3.387 2.295 4.331v1.988l-5.056 1.426a3.756 3.756 0 00-2.726 3.601v3.77H13.32v1.497h9.08v-1.496h-1.846v-2.046h-1.496v2.046h-2.695v-3.77c0-1.002.673-1.89 1.636-2.162l5.119-1.443a3.34 3.34 0 002.475 1.089c.954 0 1.845-.4 2.475-1.09zM25.593 12.18a3.746 3.746 0 013.741 3.742v.833l-1.573-2.081h-5.695a3.747 3.747 0 013.527-2.494zm-3.742 5.936v-1.945h5.166l2.193 2.901a3.748 3.748 0 01-3.617 2.786 3.746 3.746 0 01-3.742-3.742zm2.295 6.643v-1.61a5.21 5.21 0 002.894 0v1.61a1.853 1.853 0 01-1.447.691 1.853 1.853 0 01-1.447-.69z"/><path d="M29.546 29.384l-2.109-.594.407-1.44 2.108.594-.406 1.44zm3.285-.63l-.407 1.44-1.44-.406.407-1.44 1.44.406zm4.187-16.175h1.496v1.497h-1.496v-1.497zm-4.79 28.636h1.497v1.497h-1.497v-1.497zM4.09 24.752h1.498v1.496H4.09v-1.496z"/></g><defs><clipPath id="clip0_24:305"><path fill="#fff" d="M0 0h51v51H0z"/></clipPath></defs></svg>