<svg width="51" height="51" fill="none" xmlns="http://www.w3.org/2000/svg"><g clip-path="url(#clip0_9:9920)" fill="#000"><path d="M17.274 13.161a4.118 4.118 0 00-4.113 4.113 4.118 4.118 0 004.113 4.113 4.118 4.118 0 004.113-4.113 4.118 4.118 0 00-4.113-4.113zm0 6.581a2.47 2.47 0 01-2.468-2.468 2.471 2.471 0 012.468-2.468 2.471 2.471 0 012.468 2.468 2.471 2.471 0 01-2.468 2.468zm16.452 18.097a4.118 4.118 0 00-4.113 4.113 4.118 4.118 0 004.113 4.112 4.118 4.118 0 004.113-4.112 4.118 4.118 0 00-4.113-4.113zm0 6.58a2.471 2.471 0 01-2.468-2.467 2.47 2.47 0 012.468-2.468 2.471 2.471 0 012.468 2.468 2.471 2.471 0 01-2.468 2.467z"/><path d="M47.263 33.056a22.948 22.948 0 001.27-7.556c0-5.55-1.988-10.863-5.602-15.046a4.081 4.081 0 00.666-2.228 4.118 4.118 0 00-4.113-4.113 4.1 4.1 0 00-2.903 1.203 23.042 23.042 0 00-9.644-2.796A7.38 7.38 0 0021.387 0a7.431 7.431 0 00-6.691 4.248 5.7 5.7 0 00-3.18-.958 5.767 5.767 0 00-5.71 5.015 4.823 4.823 0 00-.87-.08A4.94 4.94 0 000 13.162a4.94 4.94 0 003.737 4.783 22.949 22.949 0 00-1.27 7.556c0 5.111 1.73 10.088 4.852 14.11a4.085 4.085 0 00-.738 2.342 4.118 4.118 0 004.112 4.113 4.074 4.074 0 002.665-1.007A22.92 22.92 0 0025.5 48.532c.419 0 .839-.023 1.258-.046l1.45 1.45a.847.847 0 001.164 0l1.265-1.265c.204.093.411.179.621.254v1.252c0 .456.369.823.823.823h3.29a.822.822 0 00.822-.823v-1.25c.213-.075.421-.16.624-.253l1.263 1.262a.821.821 0 001.163 0l2.468-2.467a.819.819 0 000-1.163l-1.263-1.263a7.11 7.11 0 00.252-.624h1.252a.822.822 0 00.822-.822v-.823h3.29A4.94 4.94 0 0051 37.84a4.94 4.94 0 00-3.737-4.783zm-7.78-27.298a2.47 2.47 0 012.469 2.468 2.47 2.47 0 01-2.468 2.467 2.471 2.471 0 01-2.468-2.467 2.471 2.471 0 012.468-2.468zM1.646 13.161a3.294 3.294 0 013.29-3.29c.454 0 .902.096 1.33.286a.823.823 0 00.805-.098.857.857 0 00.346-.753 3.21 3.21 0 01-.013-.258 4.118 4.118 0 014.113-4.113 4.08 4.08 0 012.951 1.253.82.82 0 001.383-.348 5.777 5.777 0 015.537-4.195 5.765 5.765 0 015.758 5.758c0 .648-.113 1.295-.338 1.926a.823.823 0 001.184.99 3.24 3.24 0 011.622-.448 3.294 3.294 0 013.29 3.29 3.294 3.294 0 01-3.29 3.29h-3.29v-.822a.823.823 0 00-.823-.822h-1.253a7.259 7.259 0 00-.253-.622l1.265-1.265a.822.822 0 000-1.163L22.791 9.29a.822.822 0 00-1.163 0l-1.265 1.266a7.508 7.508 0 00-.621-.254V9.048a.823.823 0 00-.823-.822h-3.29a.823.823 0 00-.822.822V10.3a7.391 7.391 0 00-.624.252L12.92 9.29a.822.822 0 00-1.163 0L9.29 11.757a.822.822 0 000 1.163l1.263 1.263a7.306 7.306 0 00-.252.623H9.048a.823.823 0 00-.822.823v.823h-3.29a3.294 3.294 0 01-3.29-3.29zm20.765 7.945l1.104 1.104-1.304 1.304-1.104-1.104a.824.824 0 00-.99-.133 5.73 5.73 0 01-1.402.566.822.822 0 00-.617.796v1.038h-1.645V23.64a.823.823 0 00-.617-.796 5.771 5.771 0 01-1.4-.57.82.82 0 00-.988.134l-1.108 1.107-1.305-1.304 1.107-1.108a.82.82 0 00.133-.987 5.775 5.775 0 01-.569-1.4.822.822 0 00-.796-.618H9.871v-1.645h1.038a.823.823 0 00.796-.617c.129-.499.32-.971.566-1.403a.823.823 0 00-.133-.99l-1.104-1.103 1.305-1.305 1.103 1.104a.82.82 0 00.99.133 5.726 5.726 0 011.403-.566.823.823 0 00.617-.796V9.871h1.645v1.038c0 .375.254.703.617.796.483.125.955.317 1.4.57.32.182.726.127.988-.134l1.108-1.107 1.304 1.305-1.107 1.107a.82.82 0 00-.133.988c.252.445.444.916.57 1.4a.822.822 0 00.795.617h1.038v1.645H23.64a.823.823 0 00-.796.617c-.128.498-.32.97-.566 1.402a.824.824 0 00.133.99zM10.694 44.419a2.471 2.471 0 01-2.468-2.467 2.47 2.47 0 012.467-2.468 2.471 2.471 0 012.468 2.468 2.471 2.471 0 01-2.467 2.467zm3.681-.67c.268-.546.431-1.15.431-1.797a4.118 4.118 0 00-4.112-4.113c-.8 0-1.54.238-2.173.635A21.41 21.41 0 014.113 25.5c0-2.55.448-5.038 1.322-7.403h2.79v.822c0 .454.37.823.823.823h1.253c.075.21.159.417.254.62l-1.266 1.266a.822.822 0 000 1.163l2.468 2.468a.822.822 0 001.163 0l1.265-1.265c.204.094.412.178.621.253V25.5c0 .454.37.823.823.823h3.29a.823.823 0 00.823-.823v-1.252c.212-.075.42-.159.623-.252l1.263 1.263a.822.822 0 001.163 0l2.468-2.468a.822.822 0 000-1.163l-1.263-1.263a7.37 7.37 0 00.252-.623H25.5a.823.823 0 00.823-.823v-.822h3.29a4.94 4.94 0 004.935-4.936 4.94 4.94 0 00-4.935-4.935c-.297 0-.59.027-.88.082a7.347 7.347 0 00-.646-4.032 21.378 21.378 0 017.587 2.418c-.192.475-.303.99-.303 1.532a4.118 4.118 0 004.113 4.113c.85 0 1.64-.26 2.297-.703A21.32 21.32 0 0146.887 25.5c0 2.567-.454 5.07-1.34 7.452-.12.013-.243.012-.362.034.038-.302.057-.603.057-.905 0-4.083-3.322-7.404-7.403-7.404a7.431 7.431 0 00-6.692 4.248 5.697 5.697 0 00-3.18-.957 5.767 5.767 0 00-5.71 5.014 4.824 4.824 0 00-.87-.079 4.94 4.94 0 00-4.935 4.936 4.94 4.94 0 004.935 4.935h3.29v.823c0 .455.37.822.823.822h1.253c.075.21.158.417.253.621l-1.265 1.266a.817.817 0 00-.24.574 21.415 21.415 0 01-11.126-3.132zm26.754-.975h-1.038a.823.823 0 00-.796.617c-.129.499-.32.97-.566 1.404a.821.821 0 00.133.988l1.104 1.104-1.305 1.305-1.103-1.104a.823.823 0 00-.99-.133 5.745 5.745 0 01-1.403.566.823.823 0 00-.617.796v1.038h-1.645v-1.038a.822.822 0 00-.616-.797 5.827 5.827 0 01-1.402-.57.821.821 0 00-.987.133l-1.108 1.109-1.304-1.305 1.107-1.108a.822.822 0 00.133-.989 5.673 5.673 0 01-.57-1.398.822.822 0 00-.795-.618h-1.038V41.13h1.038a.823.823 0 00.796-.617c.128-.498.32-.97.566-1.403a.821.821 0 00-.133-.99l-1.104-1.103 1.304-1.304 1.104 1.103a.824.824 0 00.989.134 5.745 5.745 0 011.403-.566.823.823 0 00.617-.796v-1.039h1.645v1.039c0 .374.254.702.616.796.486.125.957.318 1.402.57a.822.822 0 00.988-.133l1.107-1.108 1.305 1.304-1.107 1.108a.822.822 0 00-.133.989c.253.443.444.914.569 1.398a.822.822 0 00.796.618h1.038v1.645zm4.936-1.645h-3.29v-.823a.822.822 0 00-.823-.822h-1.253a7.136 7.136 0 00-.254-.621l1.266-1.265a.822.822 0 000-1.163l-2.468-2.468a.847.847 0 00-1.163 0l-1.265 1.265a7.78 7.78 0 00-.621-.253v-1.253a.822.822 0 00-.823-.823h-3.29a.822.822 0 00-.823.823v1.25c-.212.076-.42.16-.623.253l-1.263-1.262a.822.822 0 00-1.163 0l-2.468 2.468a.82.82 0 000 1.163l1.263 1.263c-.093.202-.177.41-.252.623H25.5a.822.822 0 00-.823.822v.823h-3.29a3.293 3.293 0 01-3.29-3.29 3.294 3.294 0 013.29-3.29c.454 0 .902.096 1.33.286.266.117.57.067.806-.099a.854.854 0 00.345-.751 3.285 3.285 0 01-.013-.26 4.118 4.118 0 014.113-4.112c1.12 0 2.168.445 2.951 1.253a.822.822 0 001.382-.349 5.776 5.776 0 015.538-4.194 5.765 5.765 0 015.758 5.758c0 .647-.114 1.295-.338 1.926a.824.824 0 001.183.99 3.24 3.24 0 011.623-.449 3.294 3.294 0 013.29 3.29 3.293 3.293 0 01-3.29 3.291z"/></g><defs><clipPath id="clip0_9:9920"><path fill="#fff" d="M0 0h51v51H0z"/></clipPath></defs></svg>