<svg width="51" height="51" fill="none" xmlns="http://www.w3.org/2000/svg"><path d="M21.973 44.042V31a.814.814 0 00-.813-.814h-5.426a.814.814 0 100 1.628h4.612v12.23a3.532 3.532 0 00-2.713 3.43A3.53 3.53 0 0021.16 51a3.53 3.53 0 003.526-3.527 3.532 3.532 0 00-2.713-3.43zm-.813 5.33a1.901 1.901 0 01-1.9-1.899c0-1.047.853-1.899 1.9-1.899s1.898.852 1.898 1.9a1.901 1.901 0 01-1.898 1.898zm9.494-5.33V31a.814.814 0 00-.814-.814h-5.425a.814.814 0 100 1.628h4.612v12.23a3.532 3.532 0 00-2.713 3.43A3.53 3.53 0 0029.84 51a3.53 3.53 0 003.527-3.527 3.532 3.532 0 00-2.713-3.43zm-.814 5.33a1.901 1.901 0 01-1.898-1.899c0-1.047.851-1.899 1.898-1.899s1.9.852 1.9 1.9a1.901 1.901 0 01-1.9 1.898zm14.65-10.851a3.532 3.532 0 00-3.431 2.713h-1.724V30.999a.814.814 0 00-.814-.814h-5.425a.814.814 0 100 1.628h4.612v10.235c0 .45.364.814.813.814h2.538a3.532 3.532 0 003.43 2.712 3.53 3.53 0 003.527-3.526 3.53 3.53 0 00-3.527-3.527zm0 5.426a1.901 1.901 0 01-1.9-1.9c0-1.046.852-1.898 1.9-1.898 1.046 0 1.898.852 1.898 1.899a1.901 1.901 0 01-1.899 1.899z" fill="#000"/><path d="M49.062 17.53a8.834 8.834 0 00-4.244-2.885 15.303 15.303 0 00-4.54-10.179A15.31 15.31 0 0029.43 0c-5.372 0-10.342 2.8-13.137 7.356a6.99 6.99 0 00-2.109-.323 7.05 7.05 0 00-6.872 5.546A9.796 9.796 0 000 22.039c0 5.389 4.384 9.774 9.774 9.774h1.89v9.421H9.942a3.532 3.532 0 00-3.43-2.713 3.53 3.53 0 00-3.527 3.527 3.53 3.53 0 003.527 3.526 3.532 3.532 0 003.43-2.712h2.538c.45 0 .814-.365.814-.814v-11.05a.814.814 0 00-.814-.813H9.774c-4.492 0-8.146-3.654-8.146-8.146 0-3.877 2.755-7.237 6.552-7.99a.814.814 0 00.649-.692 5.414 5.414 0 015.356-4.696c.744 0 1.465.149 2.144.443a.814.814 0 001.035-.353 13.794 13.794 0 0112.067-7.123c7.529 0 13.71 6.124 13.777 13.652.003.376.264.7.63.785a7.117 7.117 0 015.534 6.967 7.16 7.16 0 01-7.153 7.153h-.442a.814.814 0 100 1.628h.442c4.842 0 8.781-3.94 8.781-8.781 0-1.996-.688-3.95-1.938-5.501zM6.511 43.948a1.901 1.901 0 01-1.9-1.9 1.9 1.9 0 013.799 0 1.901 1.901 0 01-1.9 1.899z" fill="#000"/><path d="M39.681 16.125h.008a.814.814 0 00.806-.82 10.952 10.952 0 00-.752-3.9.814.814 0 00-1.516.592c.415 1.062.63 2.18.64 3.322a.814.814 0 00.815.806zm-2.974-6.711a.812.812 0 001.145.109.814.814 0 00.11-1.146A11.04 11.04 0 0029.43 4.34a.814.814 0 100 1.628 9.417 9.417 0 017.276 3.446z" fill="#000"/></svg>