<svg width="51" height="51" fill="none" xmlns="http://www.w3.org/2000/svg"><path d="M8.616 2.49a.997.997 0 000 1.992.997.997 0 000-1.992zm3.486 0a.997.997 0 000 1.992.997.997 0 000-1.992zm3.487 0a.997.997 0 000 1.992.997.997 0 000-1.992z" fill="#fff"/><path d="M43.081 0H7.92a2.742 2.742 0 00-2.74 2.74v41.04a.747.747 0 101.495 0V23.806h12.58a2.245 2.245 0 002.112 1.494h8.268c.974 0 1.804-.625 2.113-1.494h12.58V48.26c0 .686-.56 1.245-1.246 1.245H7.92a1.246 1.246 0 01-1.245-1.245v-.996a.747.747 0 00-1.494 0v.996A2.741 2.741 0 007.919 51h35.162c1.51 0 2.74-1.229 2.74-2.74V2.74c0-1.511-1.23-2.74-2.74-2.74zM29.634 23.807h-8.268a.748.748 0 010-1.494h8.268a.748.748 0 010 1.494zm14.692-1.494h-12.58a2.245 2.245 0 00-2.112-1.495h-8.268c-.974 0-1.804.625-2.113 1.494H6.673V6.973h34.914a.747.747 0 100-1.493H6.674V2.74c0-.686.558-1.245 1.245-1.245h35.162c.687 0 1.245.559 1.245 1.245v19.573z" fill="#fff"/><path d="M19.474 11.654a.747.747 0 00-.747-.747h-5.579a.747.747 0 000 1.494h5.579a.747.747 0 00.747-.747zm2.241.747h7.57a.747.747 0 000-1.494h-7.57a.747.747 0 000 1.494zm16.137-1.494h-5.579a.747.747 0 000 1.494h5.579a.747.747 0 000-1.494zm-13.099 3.736a.747.747 0 00-.747-.748h-7.072a.747.747 0 100 1.495h7.072a.747.747 0 00.747-.747zm9.313-.747h-7.072a.747.747 0 100 1.494h7.072a.747.747 0 100-1.495zm-3.286 2.988H20.718a.747.747 0 100 1.494h10.06a.747.747 0 100-1.494zm-16.536 9.861a4.089 4.089 0 00-4.084 4.084 4.089 4.089 0 004.084 4.084 4.089 4.089 0 004.084-4.084 4.089 4.089 0 00-4.084-4.084zm0 6.674a2.593 2.593 0 01-2.59-2.59 2.593 2.593 0 012.59-2.59 2.593 2.593 0 012.59 2.59 2.593 2.593 0 01-2.59 2.59zm-2.59 2.988a.747.747 0 000 1.494h5.18a.747.747 0 000-1.494h-5.18zM25.5 26.745a4.089 4.089 0 00-4.084 4.084 4.089 4.089 0 004.084 4.084 4.089 4.089 0 004.084-4.084 4.089 4.089 0 00-4.084-4.084zm0 6.674a2.593 2.593 0 01-2.59-2.59 2.593 2.593 0 012.59-2.59 2.593 2.593 0 012.59 2.59 2.593 2.593 0 01-2.59 2.59zm3.337 3.735a.747.747 0 00-.747-.747h-5.18a.747.747 0 100 1.494h5.18a.747.747 0 00.747-.747zm7.919-10.409a4.089 4.089 0 00-4.084 4.084 4.089 4.089 0 004.084 4.084 4.089 4.089 0 004.084-4.084 4.089 4.089 0 00-4.084-4.084zm0 6.674a2.593 2.593 0 01-2.59-2.59 2.593 2.593 0 012.59-2.59 2.593 2.593 0 012.59 2.59 2.593 2.593 0 01-2.59 2.59zm-2.59 2.988a.747.747 0 000 1.494h5.18a.747.747 0 000-1.494h-5.18zM10.06 46.767c0 .686.559 1.245 1.246 1.245H22.96c.687 0 1.245-.559 1.245-1.245v-5.678c0-.687-.558-1.245-1.245-1.245H11.306c-.687 0-1.245.558-1.245 1.245v5.678zm5.365-.25l1.179-1.179a.748.748 0 011.057 0l1.18 1.18h-3.416zm-3.87-5.18H22.71v5.18h-1.758l-2.236-2.235a2.244 2.244 0 00-3.17 0l-2.236 2.236h-1.756v-5.18zm15.24-.248v5.678c0 .686.558 1.245 1.245 1.245h11.654c.687 0 1.245-.559 1.245-1.245v-5.678c0-.687-.558-1.245-1.245-1.245H28.04c-.687 0-1.245.558-1.245 1.245zm5.364 5.429l1.18-1.18a.748.748 0 011.056 0l1.18 1.18h-3.416zm-3.87-5.18h11.156v5.18h-1.758l-2.235-2.236a2.244 2.244 0 00-3.17 0l-2.236 2.236h-1.757v-5.18z" fill="#fff"/></svg>