<svg width="51" height="51" fill="none" xmlns="http://www.w3.org/2000/svg"><g clip-path="url(#clip0_24:75)" fill="#fff"><path d="M39.899 46.801v-7.7h-1.7v3.4H12.764l-.015-1.708-1.7.015.05 5.993a4.204 4.204 0 004.2 4.2h20.4a4.204 4.204 0 004.2-4.2zm-4.2 2.5H15.3a2.504 2.504 0 01-2.5-2.508l-.02-2.593H38.2v2.601a2.502 2.502 0 01-2.5 2.5zM30.6 8.5v1.7h7.599v1.7h1.7V7.599a4.204 4.204 0 00-4.2-4.2h-5.1v1.7h5.1a2.502 2.502 0 012.5 2.5v.9h-7.6z"/><path d="M24.65 45.9h1.7v1.7h-1.7v-1.7zM5.1 3.4v10.2A3.4 3.4 0 008.5 17h5.694l4.886 3.257a.85.85 0 001.32-.707V17h5.1a3.4 3.4 0 003.4-3.4V3.4A3.4 3.4 0 0025.5 0h-17a3.4 3.4 0 00-3.4 3.4zm22.1 0v10.2a1.7 1.7 0 01-1.7 1.7h-5.95a.85.85 0 00-.85.85v1.812l-3.779-2.52a.855.855 0 00-.472-.142H8.5a1.7 1.7 0 01-1.7-1.7V3.4a1.7 1.7 0 011.7-1.7h17a1.7 1.7 0 011.7 1.7z"/><path d="M10.2 13.6h8.5a.85.85 0 00.85-.85v-1.174l3.87 1.94a.85.85 0 001.23-.766v-8.5a.85.85 0 00-1.23-.76l-3.87 1.935V4.25a.85.85 0 00-.85-.85h-8.5a.85.85 0 00-.85.85v8.5c0 .47.38.85.85.85zm.85-8.5h6.8v1.7a.85.85 0 001.23.761l3.87-1.935v5.749l-3.87-1.936a.851.851 0 00-1.23.761v1.7h-6.8V5.1zm28.05 8.5a11.882 11.882 0 00-10.37 17.712l-2.268 3.963a.85.85 0 00.944 1.246l4.945-1.236a11.782 11.782 0 006.748 2.115c6.572 0 11.9-5.328 11.9-11.9s-5.328-11.9-11.9-11.9zm0 22.1a10.103 10.103 0 01-6.066-2.015.85.85 0 00-.717-.144l-3.395.85 1.523-2.664a.851.851 0 00-.016-.872A10.192 10.192 0 1139.1 35.7z"/><path d="M43.86 22.95H42.5v-1.7a3.4 3.4 0 00-3.4-3.4 1.7 1.7 0 00-1.7 1.7v2.198l-1.203 1.202H33.15a.85.85 0 00-.85.85v6.8c0 .47.38.85.85.85h10.71a2.04 2.04 0 002.04-2.04v-4.42a2.04 2.04 0 00-2.04-2.04zM34 24.65h1.7v5.1H34v-5.1zm10.2 4.76a.34.34 0 01-.34.34H37.4v-5.598l1.45-1.45a.85.85 0 00.25-.602v-2.55a1.7 1.7 0 011.7 1.7v1.7a.85.85 0 000 1.7h3.06a.34.34 0 01.34.34v4.42zM10.199 39.1a10.224 10.224 0 006.06-2l3.91 1.117a.85.85 0 00.994-1.197l-1.812-3.615a10.2 10.2 0 10-9.152 5.695zm0-18.7a8.5 8.5 0 017.453 12.587.85.85 0 00-.015.788l1.138 2.277-2.465-.704a.85.85 0 00-.765.157 8.403 8.403 0 01-5.346 1.895 8.5 8.5 0 110-17z"/><path d="M4.808 30.685L9.66 34.66a.85.85 0 001.078 0l4.853-3.975a3.798 3.798 0 001.392-2.591 3.74 3.74 0 00-.87-2.77 4.088 4.088 0 00-5.914-.32A4.112 4.112 0 007.161 23.9a4.053 4.053 0 00-2.875 1.425 3.74 3.74 0 00-.87 2.769 3.797 3.797 0 001.392 2.591zm.782-4.27a2.342 2.342 0 011.666-.818h.136a2.37 2.37 0 011.634.644l.586.56a.85.85 0 001.174 0l.586-.56a2.39 2.39 0 013.437.179c.358.421.532.969.482 1.52a2.105 2.105 0 01-.778 1.434l-4.314 3.527-4.313-3.534a2.102 2.102 0 01-.778-1.434 2.06 2.06 0 01.482-1.52v.003z"/></g><defs><clipPath id="clip0_24:75"><path fill="#fff" d="M0 0h51v51H0z"/></clipPath></defs></svg>