<svg width="51" height="51" fill="none" xmlns="http://www.w3.org/2000/svg"><g clip-path="url(#clip0_24:234)" fill="#000"><path d="M8.97 39.44c-.714 0-1.4.178-2.01.513A23.55 23.55 0 011.993 25.5c0-12.962 10.546-23.508 23.508-23.508 1.576 0 3.15.157 4.682.466a.996.996 0 00.394-1.953A25.69 25.69 0 0025.5 0C18.689 0 12.285 2.652 7.469 7.469 2.652 12.285 0 18.689 0 25.5c0 5.73 1.946 11.32 5.487 15.803a4.154 4.154 0 00-.7 2.32c0 1.118.435 2.169 1.225 2.959s1.84 1.225 2.958 1.225a4.156 4.156 0 002.958-1.225 4.155 4.155 0 001.225-2.959 4.155 4.155 0 00-1.225-2.957A4.156 4.156 0 008.97 39.44zm1.55 5.733a2.176 2.176 0 01-1.55.642 2.177 2.177 0 01-1.55-.642 2.177 2.177 0 01-.641-1.55c0-.585.228-1.135.642-1.549a2.176 2.176 0 011.549-.642 2.18 2.18 0 011.55.642c.413.414.641.964.641 1.55a2.18 2.18 0 01-.642 1.55zM45.512 9.696a4.19 4.19 0 00-.524-5.278 4.158 4.158 0 00-2.958-1.225 4.158 4.158 0 00-2.958 1.225 4.156 4.156 0 00-1.226 2.958c0 1.118.436 2.168 1.226 2.958s1.84 1.226 2.958 1.226c.714 0 1.4-.178 2.01-.513A23.551 23.551 0 0149.007 25.5c0 12.962-10.546 23.508-23.508 23.508-1.56 0-3.12-.154-4.637-.457a.997.997 0 00-.39 1.953c1.644.33 3.336.496 5.027.496 6.811 0 13.215-2.652 18.031-7.469 4.817-4.816 7.47-11.22 7.47-18.03a25.55 25.55 0 00-5.488-15.805zm-5.031-.77a2.177 2.177 0 01-.642-1.55c0-.585.228-1.135.642-1.55a2.176 2.176 0 011.55-.641c.584 0 1.135.228 1.549.642a2.195 2.195 0 010 3.099 2.179 2.179 0 01-1.55.642 2.177 2.177 0 01-1.55-.642z"/><path d="M21.39 42.633c0 .55.446.996.996.996h6.228c.55 0 .996-.446.996-.996v-1.931a15.598 15.598 0 003.739-1.55l1.363 1.364a.996.996 0 001.409 0l4.402-4.406a.997.997 0 000-1.409l-1.362-1.361a15.595 15.595 0 001.55-3.739h1.923c.55 0 .996-.446.996-.996v-6.228a.996.996 0 00-.996-.996H40.71a15.598 15.598 0 00-1.549-3.739l1.355-1.354a.997.997 0 000-1.41l-4.407-4.402a.996.996 0 00-1.408 0l-1.352 1.354a15.598 15.598 0 00-3.739-1.55V8.367a.996.996 0 00-.996-.996h-6.228a.996.996 0 00-.996.996v1.914c-1.31.352-2.562.871-3.739 1.549L16.3 10.477a.997.997 0 00-1.409 0l-4.405 4.402a.995.995 0 000 1.41l1.354 1.353a15.597 15.597 0 00-1.55 3.739H8.37a.996.996 0 00-.996.995l-.003 6.229a.995.995 0 00.996.996h1.923a15.6 15.6 0 001.55 3.739l-1.363 1.36a.996.996 0 000 1.409l4.402 4.405a.996.996 0 001.409 0l1.363-1.363a15.61 15.61 0 003.739 1.55v1.93zm-3.348-5.576a.996.996 0 00-1.245.133l-1.213 1.213-2.994-2.997 1.211-1.212a.996.996 0 00.133-1.245 13.633 13.633 0 01-1.887-4.553.996.996 0 00-.974-.787h-1.71l.001-4.236h1.709c.47 0 .875-.328.974-.787a13.634 13.634 0 011.887-4.553.996.996 0 00-.133-1.245l-1.204-1.204 2.997-2.994 1.203 1.203a.997.997 0 001.245.132 13.63 13.63 0 014.553-1.887.997.997 0 00.787-.974v-1.7h4.236v1.7c0 .47.328.876.787.974 1.623.349 3.156.984 4.553 1.887.394.255.913.2 1.245-.133l1.203-1.202 2.996 2.994-1.204 1.204a.996.996 0 00-.132 1.245 13.643 13.643 0 011.887 4.553c.098.46.504.787.974.787h1.711v4.236h-1.711a.996.996 0 00-.974.787 13.633 13.633 0 01-1.887 4.553.996.996 0 00.132 1.245l1.212 1.212-2.994 2.996-1.213-1.212a.996.996 0 00-1.245-.133 13.645 13.645 0 01-4.553 1.887.996.996 0 00-.787.974v1.719h-4.236v-1.719a.997.997 0 00-.787-.974 13.637 13.637 0 01-4.553-1.887z"/><path d="M33.73 25.5c0-4.539-3.691-8.23-8.23-8.23-4.538 0-8.23 3.691-8.23 8.23 0 4.538 3.692 8.23 8.23 8.23s8.23-3.692 8.23-8.23zm-14.468 0a6.245 6.245 0 016.238-6.238 6.246 6.246 0 016.238 6.238 6.246 6.246 0 01-6.238 6.238 6.245 6.245 0 01-6.238-6.238zm15.41-21.733a1 1 0 00.996-.997c0-.26-.106-.518-.292-.704a1.003 1.003 0 00-.704-.292 1 1 0 00-.996.996 1 1 0 00.292.705 1 1 0 00.704.292zm-18.3 43.483c-.262 0-.52.107-.705.293a1.004 1.004 0 00-.291.704c0 .263.106.519.291.704.186.185.443.292.705.292.262 0 .519-.107.704-.292.185-.185.292-.442.292-.704 0-.262-.107-.52-.292-.704a1.004 1.004 0 00-.704-.292z"/></g><defs><clipPath id="clip0_24:234"><path fill="#fff" d="M0 0h51v51H0z"/></clipPath></defs></svg>