<svg width="51" height="51" fill="none" xmlns="http://www.w3.org/2000/svg"><g clip-path="url(#clip0_24:114)" fill="#fff"><path d="M43.832 0h-2.193c-.964 0-.964 1.494 0 1.494h2.193c2.264 0 4.106 1.836 4.106 4.092v17.292c0 2.257-1.842 4.092-4.106 4.092h-2.487a.747.747 0 00-.454.154l-4.564 3.49v-2.897a.747.747 0 00-.747-.747h-9.093c-.745 0-1.46-.196-2.092-.57v-8.387c0-1.572-.8-2.96-2.015-3.78V5.585c0-2.256 1.842-4.092 4.107-4.092h10.47c.963 0 .963-1.494 0-1.494h-10.47c-3.089 0-5.602 2.506-5.602 5.586v7.99a4.58 4.58 0 00-1.065-.127H6.142c-2.523 0-4.575 2.047-4.575 4.563v1.614c0 .964 1.494.964 1.494 0v-1.614a3.078 3.078 0 013.081-3.068H19.82a3.078 3.078 0 013.08 3.068v8.686a.744.744 0 000 .197v4.754c0 .093-.005.187-.013.28h-1.541a3.466 3.466 0 00-3.407 2.836.75.75 0 00-.194.108l-3.342 2.58v-1.988a.747.747 0 00-.747-.748H6.142a3.078 3.078 0 01-3.08-3.068v-7.54c0-.964-1.495-.964-1.495 0v7.54c0 2.516 2.052 4.563 4.575 4.563h6.767v2.762c0 .6.728.96 1.204.592l3.77-2.91v8.405a3.463 3.463 0 003.463 3.456h4.585v1.743c0 .6.728.96 1.204.592l3.024-2.335h.893c1.91 0 3.464-1.55 3.464-3.456v-1.326c0-.964-1.494-.964-1.494 0v1.326a1.967 1.967 0 01-1.97 1.961h-1.148a.747.747 0 00-.457.156l-2.022 1.561v-.97a.747.747 0 00-.747-.747h-5.332c-1.086 0-1.97-.88-1.97-1.96v-9.677c0-1.082.884-1.961 1.97-1.961h9.706c1.086 0 1.97.88 1.97 1.96v3.669c0 .963 1.494.963 1.494 0v-3.668a3.463 3.463 0 00-3.464-3.456h-6.665c.005-.093.008-3.867.008-3.867a5.592 5.592 0 002.092.403h8.346v3.662c0 .598.725.958 1.201.593l5.564-4.255h2.234c3.088 0 5.6-2.506 5.6-5.587V5.586c0-3.08-2.512-5.586-5.6-5.586z"/><path d="M37.026 5.52c-.949-.242-1.916.507-1.916 1.488a4.39 4.39 0 01-1.098 2.906l-2.059 2.33a.746.746 0 00-.626-.34H27.31a.747.747 0 00-.748.746v9.043c0 .412.335.747.748.747h4.018c.302 0 .562-.18.68-.437a5.22 5.22 0 002.715.766h7.103c1.085 0 1.98-.942 1.93-2.024-.023-.48.002-6.917.002-7.06a1.934 1.934 0 00-1.93-1.932l-3.693-.01.152-.363a5.834 5.834 0 00-.307-5.134 1.522 1.522 0 00-.953-.726c.406.104-.407-.104 0 0 .406.104-.949-.242 0 0zM30.58 20.946h-2.524v-7.548h2.524v7.548zm11.245-7.698c.241 0 .437.196.437.437l-.003 1.051c-.011 2.889-.019 5.624.003 6.079a.436.436 0 01-.437.46h-7.103a3.72 3.72 0 01-2.333-.827l-.314-.254v-5.831l3.057-3.46a5.883 5.883 0 001.473-3.895c0-.043.058-.054.077-.02a4.33 4.33 0 01.228 3.81l-.59 1.397a.747.747 0 00.686 1.038l4.819.015zM7.965 25.952a.747.747 0 100 1.494h2.203l-.412 2.488a.747.747 0 001.474.244l.452-2.732h1.803l-.412 2.488a.747.747 0 001.474.244L15 27.446h2.998a.747.747 0 100-1.494h-2.75l.3-1.823h2.45a.747.747 0 100-1.494h-2.202l.411-2.489a.747.747 0 00-1.474-.244l-.452 2.733h-1.802l.411-2.489a.747.747 0 00-1.474-.244l-.452 2.732H7.965a.747.747 0 100 1.495h2.751l-.301 1.823h-2.45zm4.266-1.823h1.802l-.301 1.823h-1.803l.302-1.823zm13.959 13.15a2.513 2.513 0 00-2.211-.497c-1.032.25-2.073 1.215-2.073 2.805 0 .99.361 1.848 1.104 2.626.607.635 1.482 1.239 2.839 1.958a.746.746 0 00.7 0c2.367-1.255 3.943-2.514 3.943-4.584 0-1.599-1.078-2.553-2.147-2.79-.802-.178-1.58.01-2.155.482zm2.808 2.308c0 1.116-.74 1.942-2.8 3.075-2.057-1.133-2.798-1.959-2.798-3.075 0-.83.481-1.244.931-1.353a1.13 1.13 0 01.264-.032c.338 0 .71.157.94.602a.748.748 0 001.341-.027c.242-.518.75-.61 1.145-.521.473.104.977.509.977 1.33z"/></g><defs><clipPath id="clip0_24:114"><path fill="#fff" d="M0 0h51v51H0z"/></clipPath></defs></svg>