<svg width="15" height="15" fill="none" xmlns="http://www.w3.org/2000/svg"><path fill-rule="evenodd" clip-rule="evenodd" d="M10.857 9.02v5.456a.334.334 0 00.116.267.376.376 0 00.25.1h2.59a.377.377 0 00.337-.22.334.334 0 00.027-.147V8.421a3.36 3.36 0 00-1-2.628 3.966 3.966 0 00-2.756-.902 3.476 3.476 0 00-2.523.902.58.58 0 00-.033-.232v-.167a.362.362 0 00-.116-.2.337.337 0 00-.212-.068H5.08a.4.4 0 00-.365.366v8.982a.333.333 0 00.116.267.376.376 0 00.25.1H7.6a.344.344 0 00.364-.366V9.62a2.622 2.622 0 01.37-1.497A1.422 1.422 0 019.6 7.59a1.19 1.19 0 011 .35c.202.322.295.701.266 1.08h-.009zM2.922 1.17A1.65 1.65 0 001.71.67a1.646 1.646 0 00-1.212.501A1.653 1.653 0 000 2.384a1.706 1.706 0 00.5 1.231 1.621 1.621 0 001.212.516 1.62 1.62 0 001.212-.516 1.703 1.703 0 00.5-1.231 1.656 1.656 0 00-.502-1.215zm.315 4.074a.35.35 0 00-.249-.118H.465a.331.331 0 00-.266.116.38.38 0 00-.1.25v8.982a.345.345 0 00.365.366h2.524a.378.378 0 00.338-.22.334.334 0 00.027-.147v-8.98a.352.352 0 00-.116-.249z" fill="#CCC"/></svg>