<svg width="40" height="40" fill="none" xmlns="http://www.w3.org/2000/svg"><path fill="#363636" d="M0 0h40v40H0z"/><path fill-rule="evenodd" clip-rule="evenodd" d="M14 18.29a7.93 7.93 0 00.626 2.819c.381 1 .852 1.962 1.406 2.876.52.849 1.113 1.723 1.777 2.623.664.9 1.128 1.506 1.392 1.82.26.312.468.546.625.7l.625-.665c.39-.467.872-1.1 1.445-1.898a56.105 56.105 0 001.719-2.544 16.3 16.3 0 001.465-2.935c.366-.888.57-1.835.6-2.796a5.602 5.602 0 00-1.718-4.129 5.678 5.678 0 00-4.141-1.702 5.602 5.602 0 00-4.12 1.702 5.625 5.625 0 00-1.7 4.13zm3.75 0a2.074 2.074 0 011.278-1.917c.252-.104.52-.157.793-.157a2.058 2.058 0 011.48.606 2.035 2.035 0 010 2.936 2.061 2.061 0 01-1.48.606 2.065 2.065 0 01-2.07-2.074z" fill="#fff"/></svg>