<svg width="52" height="52" fill="none" xmlns="http://www.w3.org/2000/svg"><g clip-path="url(#clip0_13:724)" fill="#000"><path d="M17.06 35.595a144.1 144.1 0 006.283 8.174h-4.276a.867.867 0 000 1.733h13.867a.867.867 0 100-1.733h-4.276l.587-.715a142.585 142.585 0 005.696-7.459 76.142 76.142 0 005.725-9.227c1.77-3.476 2.668-6.36 2.668-8.576a17.322 17.322 0 00-5.076-12.273.866.866 0 10-1.227 1.225 15.595 15.595 0 014.57 11.048c0 1.94-.834 4.56-2.48 7.789a74.414 74.414 0 01-5.594 9.013 140.974 140.974 0 01-6.866 8.868.878.878 0 01-1.32 0 140.187 140.187 0 01-6.866-8.868 74.426 74.426 0 01-5.596-9.013c-1.646-3.229-2.478-5.85-2.478-7.79a15.634 15.634 0 019.533-14.395 15.7 15.7 0 0112.142 0 .867.867 0 10.677-1.597c-8.826-3.722-18.998.413-22.723 9.237a17.269 17.269 0 00-1.363 6.756c0 2.215.898 5.1 2.668 8.58a76.1 76.1 0 005.725 9.223z"/><path d="M26 9.969a.867.867 0 100-1.734 8.667 8.667 0 106.128 2.539.867.867 0 10-1.225 1.225A6.933 6.933 0 1126 9.97zM51.674 47.73l-5.33-9.533a2.694 2.694 0 00-2.358-1.362h-6.177a.867.867 0 000 1.733h6.177a.961.961 0 01.847.474l5.328 9.533a.78.78 0 01-.008.8.953.953 0 01-.839.46H2.687a.953.953 0 01-.838-.46.78.78 0 01-.008-.8L7.17 39.04a.96.96 0 01.846-.473h6.176a.867.867 0 100-1.733H8.016a2.695 2.695 0 00-2.36 1.362L.326 47.73a2.513 2.513 0 00.027 2.523 2.67 2.67 0 002.334 1.316h46.627a2.67 2.67 0 002.333-1.316 2.513 2.513 0 00.027-2.523z"/><path d="M42.467 41.169H39a.871.871 0 00-.48.145l-2.6 1.733a.867.867 0 00.961 1.443l2.38-1.588h3.206a.867.867 0 000-1.733zm-5.2 6.066c0 .479.388.867.866.867h6.934a.867.867 0 100-1.733h-6.934a.867.867 0 00-.866.866zm-21.666-2.6a.867.867 0 00.482-1.587l-2.6-1.734a.871.871 0 00-.482-.145H9.534a.867.867 0 100 1.733h3.207l2.382 1.587a.865.865 0 00.478.146zm-8.667 1.734a.867.867 0 100 1.733h6.934a.867.867 0 100-1.733H6.934z"/></g><defs><clipPath id="clip0_13:724"><path fill="#fff" d="M0 0h52v52H0z"/></clipPath></defs></svg>