<svg width="57" height="57" fill="none" xmlns="http://www.w3.org/2000/svg"><path d="M28.5 14.027a1.114 1.114 0 100 2.228 1.114 1.114 0 000-2.228zM10.02 34.066a1.114 1.114 0 10-.001-2.227 1.114 1.114 0 000 2.227z" fill="#000"/><path d="M37.406 2.895c-10.022 0-18.248 6.91-18.885 15.614C8.976 18.988 0 25.87 0 35.179c0 3.891 1.54 7.66 4.342 10.647a6.77 6.77 0 01-1.79 6.38 1.114 1.114 0 00.788 1.9 12.28 12.28 0 008.508-3.44c2.215.755 5.105 1.213 7.746 1.213 10.021 0 18.246-6.908 18.884-15.61 2.331-.104 4.756-.535 6.674-1.188a12.28 12.28 0 008.508 3.438 1.113 1.113 0 00.787-1.9 6.77 6.77 0 01-1.789-6.379C55.461 27.254 57 23.484 57 19.594c0-9.673-9.668-16.7-19.594-16.7zM19.594 49.652c-2.628 0-5.622-.515-7.628-1.313a1.113 1.113 0 00-1.233.282 10.045 10.045 0 01-4.996 2.965 9.003 9.003 0 00.679-6.626 1.111 1.111 0 00-.273-.47c-2.525-2.602-3.916-5.908-3.916-9.31 0-7.846 7.953-14.473 17.367-14.473 8.89 0 16.699 6.182 16.699 14.473 0 7.98-7.491 14.472-16.7 14.472zm31.262-20.748a1.115 1.115 0 00-.272.47 9.004 9.004 0 00.68 6.626 10.042 10.042 0 01-4.997-2.965 1.114 1.114 0 00-1.234-.282c-1.738.691-4.217 1.17-6.558 1.286-.325-4.21-2.426-8.167-6.016-11.105H46.98a1.113 1.113 0 100-2.227H29.04c-2.527-1.286-5.365-2.037-8.285-2.194.64-7.477 7.864-13.392 16.652-13.392 9.414 0 17.367 6.628 17.367 14.473 0 3.402-1.39 6.708-3.917 9.31z" fill="#000"/><path d="M28.5 31.84H14.473a1.113 1.113 0 100 2.226H28.5a1.113 1.113 0 100-2.226zm0 6.68H10.02a1.113 1.113 0 100 2.226H28.5a1.113 1.113 0 100-2.227zm18.48-24.493H32.953a1.113 1.113 0 100 2.227H46.98a1.113 1.113 0 100-2.227z" fill="#000"/></svg>