<svg width="40" height="40" fill="none" xmlns="http://www.w3.org/2000/svg"><path fill="#363636" d="M0 0h40v40H0z"/><path fill-rule="evenodd" clip-rule="evenodd" d="M13.512 15.717a1.457 1.457 0 00-1.073.44A1.462 1.462 0 0012 17.233v9.018a1.463 1.463 0 00.44 1.074 1.457 1.457 0 001.071.44h11.99a1.497 1.497 0 001.4-.934c.075-.184.113-.382.111-.581v-9.02a1.465 1.465 0 00-.44-1.073 1.46 1.46 0 00-1.072-.44H13.512zm5.977 6.763l-5.977-3.733v-1.515l5.976 3.77 6.012-3.77v1.515l-6.01 3.733z" fill="#fff"/></svg>