<svg width="51" height="51" fill="none" xmlns="http://www.w3.org/2000/svg"><path d="M49.662 39.344L39.339 32.46a3.013 3.013 0 00-4.034.655l-3.007 3.866a1.285 1.285 0 01-1.648.347l-.572-.315c-1.896-1.034-4.255-2.32-9.009-7.075-4.753-4.755-6.042-7.116-7.076-9.01l-.313-.571a1.287 1.287 0 01.34-1.654l3.863-3.006a3.015 3.015 0 00.656-4.034L11.655 1.34a2.997 2.997 0 00-4.04-.91L3.3 3.025A6.089 6.089 0 00.522 6.627c-1.554 5.664-.385 15.438 14.014 29.838 11.453 11.453 19.98 14.533 25.84 14.533 1.35.006 2.693-.17 3.995-.522a6.083 6.083 0 003.604-2.776l2.595-4.314a2.998 2.998 0 00-.908-4.042zm-.556 3.17l-2.59 4.316a4.392 4.392 0 01-2.592 2.01c-5.228 1.435-14.363.246-28.186-13.577S.726 12.306 2.161 7.077A4.399 4.399 0 014.173 4.48L8.49 1.89a1.3 1.3 0 011.753.395l3.74 5.614 3.138 4.708c.376.568.252 1.33-.284 1.75l-3.864 3.006a2.974 2.974 0 00-.788 3.818l.307.558c1.086 1.992 2.436 4.47 7.366 9.4 4.93 4.928 7.408 6.279 9.4 7.365l.558.308a2.975 2.975 0 003.817-.788l3.006-3.864a1.309 1.309 0 011.751-.284l10.322 6.884a1.3 1.3 0 01.394 1.753zM28.9 8.504c7.975.01 14.438 6.473 14.447 14.448a.85.85 0 101.7 0c-.01-8.914-7.234-16.138-16.148-16.147a.85.85 0 100 1.7z" fill="#000"/><path d="M28.9 13.604a9.36 9.36 0 019.348 9.349.85.85 0 001.7 0c-.008-6.1-4.95-11.042-11.049-11.049a.85.85 0 100 1.7z" fill="#000"/><path d="M28.9 18.703a4.255 4.255 0 014.248 4.25.85.85 0 101.7 0 5.956 5.956 0 00-5.949-5.95.85.85 0 100 1.7z" fill="#000"/></svg>