<svg width="40" height="40" fill="none" xmlns="http://www.w3.org/2000/svg"><path fill="#363636" d="M0 0h40v40H0z"/><path fill-rule="evenodd" clip-rule="evenodd" d="M17.844 19.245a.801.801 0 00.2-.86 9.362 9.362 0 01-.474-2.975.818.818 0 00-.234-.567.763.763 0 00-.586-.255h-2.93a.783.783 0 00-.566.255.786.786 0 00-.254.567 13.987 13.987 0 001.895 7.143 14 14 0 005.156 5.166 13.917 13.917 0 007.13 1.898.871.871 0 00.82-.821V25.86a.766.766 0 00-.255-.587.815.815 0 00-.566-.234 9.31 9.31 0 01-2.969-.47.716.716 0 00-.859.2l-1.836 1.835a12.265 12.265 0 01-5.508-5.52l1.836-1.839z" fill="#fff"/></svg>