<svg width="12" height="15" fill="none" xmlns="http://www.w3.org/2000/svg"><path fill-rule="evenodd" clip-rule="evenodd" d="M3.554 7.457l-1.1 4.59a8.12 8.12 0 00-.062 2.798h.564a7.773 7.773 0 001.2-2.329c.067-.243.267-1.009.6-2.295.19.321.474.576.813.731.385.2.812.303 1.245.3a3.929 3.929 0 003.254-1.63 6.54 6.54 0 001.262-4.124 4.53 4.53 0 00-.382-1.814 4.835 4.835 0 00-1.062-1.547 5.026 5.026 0 00-1.7-1.068A5.878 5.878 0 006.01.67a7.1 7.1 0 00-2.157.316 5.528 5.528 0 00-1.693.848A5.92 5.92 0 00.96 3.05 4.81 4.81 0 000 5.928a4.41 4.41 0 00.432 1.995 2.5 2.5 0 001.295 1.23.38.38 0 00.249-.02.365.365 0 00.183-.216 4.49 4.49 0 01.166-.665.464.464 0 00-.133-.466 2.562 2.562 0 01-.565-1.658A3.942 3.942 0 012.773 3.28a4 4 0 013-1.181 3.512 3.512 0 012.573.902 3.122 3.122 0 01.919 2.324 6.332 6.332 0 01-.747 3.178 2.192 2.192 0 01-1.91 1.315 1.354 1.354 0 01-1.08-.485 1.21 1.21 0 01-.248-1.148c.067-.267.167-.61.3-1.031.133-.444.244-.82.332-1.131.06-.274.093-.552.1-.832a1.43 1.43 0 00-.282-.902 1 1 0 00-.847-.365 1.367 1.367 0 00-1.13.632 2.508 2.508 0 00-.464 1.53c-.013.468.078.934.266 1.363l-.001.006z" fill="#CCC"/></svg>