<svg width="17" height="17" fill="none" xmlns="http://www.w3.org/2000/svg"><path fill-rule="evenodd" clip-rule="evenodd" d="M10.743 10.1l-.258-.257a5.81 5.81 0 001.416-3.87 5.762 5.762 0 00-1.74-4.231A5.736 5.736 0 005.95 0a5.735 5.735 0 00-4.21 1.74A5.736 5.736 0 000 5.95a5.735 5.735 0 001.74 4.212A5.76 5.76 0 005.974 11.9a5.811 5.811 0 003.867-1.418l.26.26v.73l4.555 4.555 1.375-1.375-4.557-4.552h-.731zM1.849 5.975a3.978 3.978 0 011.2-2.922 3.98 3.98 0 012.922-1.2 3.981 3.981 0 012.922 1.2 3.98 3.98 0 011.2 2.922 3.98 3.98 0 01-1.2 2.922 3.978 3.978 0 01-2.922 1.2 3.977 3.977 0 01-2.922-1.2 3.976 3.976 0 01-1.2-2.922z" fill="#fff"/></svg>