<svg width="52" height="52" fill="none" xmlns="http://www.w3.org/2000/svg"><path d="M46.537 12.595a.917.917 0 00.89-.73.913.913 0 00-.405-.944.918.918 0 00-1.128.124c-.562.56-.145 1.55.643 1.55z" fill="#000"/><path d="M49.853 15.647a.908.908 0 10-1.666.723 24.156 24.156 0 011.602 13.971A24.039 24.039 0 0143.097 43.1c-9.428 9.428-24.77 9.428-34.198 0A24.023 24.023 0 011.817 26c0-6.458 2.515-12.53 7.082-17.098a24.047 24.047 0 0116.83-7.081 24.034 24.034 0 0116.954 6.677.908.908 0 001.254-1.314C39.007 2.479 32.534-.07 25.71.004A25.853 25.853 0 007.615 7.618C2.705 12.528 0 19.056 0 26c0 6.944 2.704 13.473 7.615 18.383C12.525 49.294 19.054 52 25.998 52c6.944 0 13.473-2.704 18.383-7.615a25.847 25.847 0 007.196-13.719 25.968 25.968 0 00-1.724-15.018z" fill="#000"/><path d="M25.998 5.158C14.506 5.158 5.156 14.508 5.156 26c0 11.492 9.35 20.842 20.842 20.842 11.492 0 20.842-9.35 20.842-20.842 0-11.492-9.35-20.842-20.842-20.842zm0 39.867C15.508 45.025 6.973 36.49 6.973 26c0-10.49 8.535-19.025 19.025-19.025 10.49 0 19.025 8.534 19.025 19.025 0 10.49-8.534 19.025-19.025 19.025z" fill="#000"/><path d="M25.998 11.803a.908.908 0 00-.908.908v12.38h-8.17a.908.908 0 000 1.817h9.078a.908.908 0 00.908-.908V12.71a.908.908 0 00-.908-.908z" fill="#000"/></svg>