<svg width="16" height="13" fill="none" xmlns="http://www.w3.org/2000/svg"><path d="M15.495 1.693a6.412 6.412 0 01-1.762.523A3.058 3.058 0 0015.05.488a6.146 6.146 0 01-1.934.785 3.074 3.074 0 00-5.274 2.214c.005.244.03.477.086.7a8.704 8.704 0 01-6.404-3.084c-.256.466-.4.996-.389 1.563a3.08 3.08 0 001.42 2.527 3.037 3.037 0 01-1.398-.35l.001.034a3.09 3.09 0 002.527 2.97c-.25.073-.521.111-.804.117a2.719 2.719 0 01-.583-.04 3.104 3.104 0 002.917 2.081 6.18 6.18 0 01-3.784 1.392 5.75 5.75 0 01-.737-.027 8.657 8.657 0 004.746 1.28c5.657-.118 8.652-4.87 8.567-8.931a7.781 7.781 0 00-.02-.398 6.135 6.135 0 001.508-1.628z" fill="#CCC"/></svg>