<svg width="38" height="71" fill="none" xmlns="http://www.w3.org/2000/svg"><path fill-rule="evenodd" clip-rule="evenodd" d="M34.52 64.453V51.36h-4.434v-3L38 33.895 19 0 0 33.895 7.914 48.36v2.999H3.48v13.093h4.434V71h22.172v-6.547h4.434zM19 29.401c1.834 0 3.326 1.468 3.326 3.273 0 1.805-1.492 3.273-3.326 3.273s-3.326-1.468-3.326-3.273c0-1.805 1.492-3.273 3.326-3.273zM17.891 6.496L2.525 33.908l7.606 13.903v3.549H27.87v-3.55l7.606-13.903L20.109 6.496V27.33c2.526.505 4.434 2.71 4.434 5.344 0 3.008-2.487 5.456-5.543 5.456s-5.543-2.448-5.543-5.456c0-2.634 1.908-4.838 4.434-5.344V6.496zM5.697 62.27v-8.73h26.606v8.73H5.697zm4.434 2.182v4.365H27.87v-4.365H10.13z" fill="#C69F73"/></svg>