<svg width="42" height="60" fill="none" xmlns="http://www.w3.org/2000/svg"><path d="M15.656 26.344c1.5 1.406 3.281 2.11 5.344 2.11s3.797-.704 5.203-2.11c1.5-1.5 2.25-3.282 2.25-5.344 0-2.063-.75-3.797-2.25-5.203-1.406-1.5-3.14-2.25-5.203-2.25s-3.844.75-5.344 2.25c-1.406 1.406-2.11 3.14-2.11 5.203s.704 3.844 2.11 5.344zM6.094 6.234C10.219 2.11 15.187.047 21 .047c5.813 0 10.734 2.062 14.766 6.187 4.125 4.032 6.187 8.954 6.187 14.766 0 2.906-.75 6.234-2.25 9.984A58.064 58.064 0 0134.5 41.531a199.343 199.343 0 01-6.188 9.282c-1.968 2.812-3.656 5.062-5.062 6.75L21 59.953a124.16 124.16 0 00-2.25-2.531c-.938-1.125-2.625-3.281-5.063-6.469-2.437-3.281-4.593-6.422-6.468-9.422-1.782-3.093-3.422-6.562-4.922-10.406C.797 27.281.047 23.906.047 21c0-5.813 2.015-10.734 6.047-14.766z" fill="#C69F73"/></svg>