<svg width="256" height="400" fill="none" xmlns="http://www.w3.org/2000/svg"><path d="M2 0a2 2 0 11.001 3.999A2 2 0 012 0zm36 0a2 2 0 11.001 3.999A2 2 0 0138 0zm36 0a2 2 0 11.001 3.999A2 2 0 0174 0zm36 0a2 2 0 11.001 3.999A2 2 0 01110 0zm36 0a2 2 0 11.001 3.999A2 2 0 01146 0zm36 0a2 2 0 11.001 3.999A2 2 0 01182 0zm36 0a2 2 0 11.001 3.999A2 2 0 01218 0zm36 0a2 2 0 11.001 3.999A2 2 0 01254 0zM2 36a2 2 0 11.001 3.999A2 2 0 012 36zm36 0a2 2 0 11.001 3.999A2 2 0 0138 36zm36 0a2 2 0 11.001 3.999A2 2 0 0174 36zm36 0a2 2 0 11.001 3.999A2 2 0 01110 36zm36 0a2 2 0 11.001 3.999A2 2 0 01146 36zm36 0a2 2 0 11.001 3.999A2 2 0 01182 36zm36 0a2 2 0 11.001 3.999A2 2 0 01218 36zm36 0a2 2 0 11.001 3.999A2 2 0 01254 36zM2 72a2 2 0 11.001 3.999A2 2 0 012 72zm36 0a2 2 0 11.001 3.999A2 2 0 0138 72zm36 0a2 2 0 11.001 3.999A2 2 0 0174 72zm36 0a2 2 0 11.001 3.999A2 2 0 01110 72zm36 0a2 2 0 11.001 3.999A2 2 0 01146 72zm36 0a2 2 0 11.001 3.999A2 2 0 01182 72zm36 0a2 2 0 11.001 3.999A2 2 0 01218 72zm36 0a2 2 0 11.001 3.999A2 2 0 01254 72zM2 108a2 2 0 11.001 3.999A2 2 0 012 108zm36 0a2 2 0 11.001 3.999A2 2 0 0138 108zm36 0a2 2 0 11.001 3.999A2 2 0 0174 108zm36 0a2 2 0 11.001 3.999A2 2 0 01110 108zm36 0a2 2 0 11.001 3.999A2 2 0 01146 108zm36 0a2 2 0 11.001 3.999A2 2 0 01182 108zm36 0a2 2 0 11.001 3.999A2 2 0 01218 108zm36 0a2 2 0 11.001 3.999A2 2 0 01254 108zM2 144a2 2 0 11.001 3.999A2 2 0 012 144zm36 0a2 2 0 11.001 3.999A2 2 0 0138 144zm36 0a2 2 0 11.001 3.999A2 2 0 0174 144zm36 0a2 2 0 11.001 3.999A2 2 0 01110 144zm36 0a2 2 0 11.001 3.999A2 2 0 01146 144zm36 0a2 2 0 11.001 3.999A2 2 0 01182 144zm36 0a2 2 0 11.001 3.999A2 2 0 01218 144zm36 0a2 2 0 11.001 3.999A2 2 0 01254 144zM2 180a2 2 0 11.001 3.999A2 2 0 012 180zm36 0a2 2 0 11.001 3.999A2 2 0 0138 180zm36 0a2 2 0 11.001 3.999A2 2 0 0174 180zm36 0a2 2 0 11.001 3.999A2 2 0 01110 180zm36 0a2 2 0 11.001 3.999A2 2 0 01146 180zm36 0a2 2 0 11.001 3.999A2 2 0 01182 180zm36 0a2 2 0 11.001 3.999A2 2 0 01218 180zm36 0a2 2 0 11.001 3.999A2 2 0 01254 180zM2 216a2 2 0 11.001 3.999A2 2 0 012 216zm36 0a2 2 0 11.001 3.999A2 2 0 0138 216zm36 0a2 2 0 11.001 3.999A2 2 0 0174 216zm36 0a2 2 0 11.001 3.999A2 2 0 01110 216zm36 0a2 2 0 11.001 3.999A2 2 0 01146 216zm36 0a2 2 0 11.001 3.999A2 2 0 01182 216zm36 0a2 2 0 11.001 3.999A2 2 0 01218 216zm36 0a2 2 0 11.001 3.999A2 2 0 01254 216zM2 252a2 2 0 11.001 3.999A2 2 0 012 252zm36 0a2 2 0 11.001 3.999A2 2 0 0138 252zm36 0a2 2 0 11.001 3.999A2 2 0 0174 252zm36 0a2 2 0 11.001 3.999A2 2 0 01110 252zm36 0a2 2 0 11.001 3.999A2 2 0 01146 252zm36 0a2 2 0 11.001 3.999A2 2 0 01182 252zm36 0a2 2 0 11.001 3.999A2 2 0 01218 252zm36 0a2 2 0 11.001 3.999A2 2 0 01254 252zM2 288a2 2 0 11.001 3.999A2 2 0 012 288zm36 0a2 2 0 11.001 3.999A2 2 0 0138 288zm36 0a2 2 0 11.001 3.999A2 2 0 0174 288zm36 0a2 2 0 11.001 3.999A2 2 0 01110 288zm36 0a2 2 0 11.001 3.999A2 2 0 01146 288zm36 0a2 2 0 11.001 3.999A2 2 0 01182 288zm36 0a2 2 0 11.001 3.999A2 2 0 01218 288zm36 0a2 2 0 11.001 3.999A2 2 0 01254 288zM2 324a2 2 0 11.001 3.999A2 2 0 012 324zm36 0a2 2 0 11.001 3.999A2 2 0 0138 324zm36 0a2 2 0 11.001 3.999A2 2 0 0174 324zm36 0a2 2 0 11.001 3.999A2 2 0 01110 324zm36 0a2 2 0 11.001 3.999A2 2 0 01146 324zm36 0a2 2 0 11.001 3.999A2 2 0 01182 324zm36 0a2 2 0 11.001 3.999A2 2 0 01218 324zm36 0a2 2 0 11.001 3.999A2 2 0 01254 324zM2 360a2 2 0 11.001 3.999A2 2 0 012 360zm36 0a2 2 0 11.001 3.999A2 2 0 0138 360zm36 0a2 2 0 11.001 3.999A2 2 0 0174 360zm36 0a2 2 0 11.001 3.999A2 2 0 01110 360zm36 0a2 2 0 11.001 3.999A2 2 0 01146 360zm36 0a2 2 0 11.001 3.999A2 2 0 01182 360zm36 0a2 2 0 11.001 3.999A2 2 0 01218 360zm36 0a2 2 0 11.001 3.999A2 2 0 01254 360zM2 396a2 2 0 11.001 3.999A2 2 0 012 396zm36 0a2 2 0 11.001 3.999A2 2 0 0138 396zm36 0a2 2 0 11.001 3.999A2 2 0 0174 396zm36 0a2 2 0 11.001 3.999A2 2 0 01110 396zm36 0a2 2 0 11.001 3.999A2 2 0 01146 396zm36 0a2 2 0 11.001 3.999A2 2 0 01182 396zm36 0a2 2 0 11.001 3.999A2 2 0 01218 396zm36 0a2 2 0 11.001 3.999A2 2 0 01254 396z" opacity=".5" fill-rule="evenodd" clip-rule="evenodd" fill="#71767C"/></svg>