<svg viewBox="0 0 162 162" xmlns="http://www.w3.org/2000/svg" xmlns:xlink="http://www.w3.org/1999/xlink"><style>:root&gt;svg{display:none}:root&gt;svg:target{display:block}</style><svg fill="none" viewBox="0 0 8 13" id="arrow-left" xmlns="http://www.w3.org/2000/svg"><path d="M7.422 11.078l-1.406 1.406-6-6 6-6 1.406 1.407-4.594 4.593 4.594 4.594z" fill="#888"/></svg><svg viewBox="0 0 8 13" id="arrow-next" xmlns="http://www.w3.org/2000/svg"><path d="M.578 11.36l4.594-4.594L.578 2.172 1.984.766l6 6-6 6-1.406-1.407z"/></svg><svg viewBox="0 0 8 13" id="arrow-prev" xmlns="http://www.w3.org/2000/svg"><path d="M7.422 11.078l-1.406 1.406-6-6 6-6 1.406 1.407-4.594 4.593 4.594 4.594z"/></svg><svg fill="none" viewBox="0 0 8 13" id="arrow-right" xmlns="http://www.w3.org/2000/svg"><path d="M.578 11.36l4.594-4.594L.578 2.172 1.984.766l6 6-6 6-1.406-1.407z" fill="#888"/></svg><svg viewBox="0 0 15 10" id="be" xmlns="http://www.w3.org/2000/svg"><path d="M5.89 4.668c.788-.406 1.22-.99 1.22-1.879C7.11.986 5.763.555 4.24.555H0v8.988h4.342c1.65 0 3.174-.787 3.174-2.615 0-1.117-.534-1.955-1.625-2.26zm-3.935-2.59h1.879c.71 0 1.346.203 1.346 1.041 0 .762-.508 1.067-1.22 1.067H1.956V2.078zM4.088 8.02H1.955V5.53h2.158c.889 0 1.422.381 1.422 1.295 0 .914-.66 1.194-1.447 1.194zm9.09-6.12v-.888H9.547V1.9h3.63zm1.447 4.495c0-1.93-1.143-3.555-3.174-3.555C9.445 2.84 8.1 4.338 8.1 6.293c0 2.031 1.295 3.428 3.351 3.428 1.549 0 2.565-.711 3.047-2.184h-1.574c-.178.559-.889.838-1.422.838-1.041 0-1.6-.61-1.6-1.65H14.6c0-.102.025-.229.025-.33zm-4.723-.813c.051-.838.635-1.371 1.473-1.371.914 0 1.371.508 1.447 1.371h-2.92z"/></svg><svg fill="none" viewBox="0 0 162 162" id="circle" xmlns="http://www.w3.org/2000/svg"><path d="M64.032 80.744V84h-1.905v-9.242h3.606c.694 0 1.303.127 1.828.38.529.255.935.616 1.219 1.086.283.466.425.997.425 1.593 0 .906-.311 1.621-.933 2.146-.618.52-1.475.78-2.57.78h-1.67zm0-1.543h1.7c.505 0 .888-.118 1.15-.355.266-.237.4-.576.4-1.016 0-.453-.134-.819-.4-1.098-.267-.28-.635-.423-1.105-.432h-1.745v2.901zm10.391 3.27h4.044V84h-5.948v-9.242h1.904v7.712zm12.487-.375h-3.34L82.937 84h-2.025l3.44-9.242h1.765L89.576 84H87.55l-.641-1.904zm-2.825-1.543h2.31l-1.161-3.46-1.149 3.46zm10.588-1.631l1.924-4.164h2.082l-3.035 5.89V84h-1.936v-3.352l-3.034-5.89h2.089l1.91 4.164z" fill="#c69f73"/><path clip-rule="evenodd" d="M81 161c44.183 0 80-35.817 80-80S125.183 1 81 1 1 36.817 1 81s35.817 80 80 80z" stroke="#888" stroke-width="2"/><path d="M81 161c44.183 0 80-35.817 80-80S125.183 1 81 1 1 36.817 1 81s35.817 80 80 80z" stroke="#c69f73" stroke-width="2"/></svg><svg viewBox="0 0 8 13" id="fb" xmlns="http://www.w3.org/2000/svg"><path d="M7.084 7.938l.355-2.336H5.18V4.078c0-.66.305-1.27 1.321-1.27h1.041V.804S6.601.625 5.713.625C3.859.625 2.64 1.768 2.64 3.799v1.803H.559v2.335H2.64v5.688h2.54V7.937h1.904z"/></svg><svg fill="none" viewBox="0 0 34 34" id="footer-circles" xmlns="http://www.w3.org/2000/svg"><path clip-rule="evenodd" d="M27 33a6 6 0 100-12 6 6 0 000 12zM7 13A6 6 0 107 1a6 6 0 000 12zm20 0a6 6 0 100-12 6 6 0 000 12zM7 33a6 6 0 100-12 6 6 0 000 12z" stroke="#888"/></svg><svg fill="none" viewBox="0 0 38 71" id="icon-1" xmlns="http://www.w3.org/2000/svg"><path fill-rule="evenodd" clip-rule="evenodd" d="M34.52 64.453V51.36h-4.434v-3L38 33.895 19 0 0 33.895 7.914 48.36v2.999H3.48v13.093h4.434V71h22.172v-6.547h4.434zM19 29.401c1.834 0 3.326 1.468 3.326 3.273 0 1.805-1.492 3.273-3.326 3.273s-3.326-1.468-3.326-3.273c0-1.805 1.492-3.273 3.326-3.273zM17.891 6.496L2.525 33.908l7.606 13.903v3.549H27.87v-3.55l7.606-13.903L20.109 6.496V27.33c2.526.505 4.434 2.71 4.434 5.344 0 3.008-2.487 5.456-5.543 5.456s-5.543-2.448-5.543-5.456c0-2.634 1.908-4.838 4.434-5.344V6.496zM5.697 62.27v-8.73h26.606v8.73H5.697zm4.434 2.182v4.365H27.87v-4.365H10.13z" fill="#C69F73"/></svg><svg fill="none" viewBox="0 0 72 71" id="icon-2" xmlns="http://www.w3.org/2000/svg"><path fill-rule="evenodd" clip-rule="evenodd" d="M10.82 48.14l.127-.126L58.961 0 71.5 12.539l-48.14 48.14L2.72 71 .5 68.78l10.32-20.64zm38.254-35.146L13.277 48.79l9.432 9.432 35.797-35.797-9.432-9.432zm1.554-1.554l2.84-2.84 9.433 9.432-2.841 2.84-9.432-9.432zM20.855 59.474l-8.83-8.829-4.199 8.396 3.706.927.926 3.705 8.397-4.199zM6.82 61.054l2.9.726.725 2.9-7.25 3.625 3.625-7.25zM55.022 7.047l9.432 9.432 3.94-3.94-9.433-9.431-3.94 3.94z" fill="#B68C70"/></svg><svg fill="none" viewBox="0 0 87 71" id="icon-3" xmlns="http://www.w3.org/2000/svg"><path clip-rule="evenodd" d="M1 12h74v58H1V12z" stroke="#C69F73" stroke-width="2"/><path d="M15 7.86V1h71v59h-6.827M1 23h74m-63-5H7m17 0h-5m16 0h-5" stroke="#C69F73" stroke-width="2"/></svg><svg fill="none" viewBox="0 0 72 72" id="icon-4" xmlns="http://www.w3.org/2000/svg"><path clip-rule="evenodd" d="M71 3.258V59.71l-4.516 9.032-4.516-9.032V3.258H71z" stroke="#C69F73" stroke-width="2"/><path d="M61.967 7.774h-4.516v11.29M15.677 8.903H1V71h49.677V8.903H36" stroke="#C69F73" stroke-width="2"/><path clip-rule="evenodd" d="M30.355 5.516V1h-9.032v4.516h-4.516l-2.258 9.032h22.58l-2.258-9.032h-4.516z" stroke="#C69F73" stroke-width="2"/></svg><svg fill="none" viewBox="0 0 70 55" id="icon-5" xmlns="http://www.w3.org/2000/svg"><path fill-rule="evenodd" clip-rule="evenodd" d="M59.063 8.8H0V55h59.063V8.8zM56.874 11v38.309L42.77 37.149l-10.83 6.534-15.48-17.792L2.187 40.245V11h54.688zM2.187 43.355V52.8h54.688v-.595L42.544 39.85l-11.046 6.665-15.145-17.407L2.187 43.355z" fill="#C69F73"/><path fill-rule="evenodd" clip-rule="evenodd" d="M9.844 7.7h2.187V2.2h55.782V44h-7.657v2.2H70V0H9.844v7.7z" fill="#C69F73"/><path fill-rule="evenodd" clip-rule="evenodd" d="M50.313 24.2c0 3.64-2.944 6.6-6.563 6.6-3.62 0-6.563-2.96-6.563-6.6 0-3.64 2.944-6.6 6.563-6.6 3.62 0 6.563 2.96 6.563 6.6zm-2.188 0c0-2.427-1.962-4.4-4.375-4.4-2.413 0-4.375 1.973-4.375 4.4 0 2.427 1.962 4.4 4.375 4.4 2.413 0 4.375-1.973 4.375-4.4z" fill="#C69F73"/></svg><svg fill="none" viewBox="0 0 37 70" id="icon-6" xmlns="http://www.w3.org/2000/svg"><path fill-rule="evenodd" clip-rule="evenodd" d="M37 70H0V0h37v70zM2.176 56.875v10.938h32.648V56.874H2.175zm0-2.188v-43.75h32.648v43.75H2.175zM34.824 8.75V2.187H2.175V8.75h32.648z" fill="#C69F73"/><path fill="#C69F73" d="M14.146 4.375h8.706v2.188h-8.706z"/><path fill-rule="evenodd" clip-rule="evenodd" d="M15.234 62.344c0-1.81 1.465-3.282 3.265-3.282s3.265 1.473 3.265 3.282-1.465 3.281-3.265 3.281-3.265-1.472-3.265-3.281zm2.177 0c0 .602.488 1.093 1.088 1.093a1.093 1.093 0 000-2.188c-.6.001-1.088.492-1.088 1.095z" fill="#C69F73"/></svg><svg viewBox="0 0 13 12" id="inst" xmlns="http://www.w3.org/2000/svg"><path d="M6.688 3.205a2.92 2.92 0 00-2.92 2.92 2.904 2.904 0 002.92 2.92 2.92 2.92 0 002.92-2.92c0-1.6-1.32-2.92-2.92-2.92zm0 4.824a1.902 1.902 0 01-1.905-1.904 1.88 1.88 0 011.904-1.879c1.042 0 1.88.838 1.88 1.879a1.88 1.88 0 01-1.88 1.904zm3.707-4.925a.683.683 0 00-.686-.686.683.683 0 00-.686.686c0 .38.305.685.686.685.38 0 .686-.305.686-.685zm1.93.685c-.052-.914-.255-1.727-.915-2.387C10.75.742 9.937.54 9.023.488c-.939-.05-3.757-.05-4.697 0-.914.051-1.701.254-2.387.914-.66.66-.863 1.473-.914 2.387-.05.94-.05 3.758 0 4.697.051.914.254 1.701.914 2.387.686.66 1.473.863 2.387.914.94.05 3.758.05 4.697 0 .915-.05 1.727-.254 2.387-.914.66-.685.863-1.473.914-2.387.051-.94.051-3.757 0-4.697zm-1.22 5.688c-.177.507-.584.888-1.066 1.091-.762.305-2.539.229-3.351.229-.838 0-2.616.076-3.352-.229a1.925 1.925 0 01-1.092-1.091c-.305-.737-.228-2.514-.228-3.352 0-.813-.077-2.59.228-3.352a1.958 1.958 0 011.092-1.066c.736-.305 2.514-.228 3.352-.228.812 0 2.59-.077 3.351.228.482.178.863.584 1.066 1.066.305.762.229 2.54.229 3.352 0 .838.076 2.615-.229 3.352z"/></svg><svg fill="none" viewBox="0 0 7 11" id="link-arrow" xmlns="http://www.w3.org/2000/svg"><path d="M.148 9.633l3.829-3.828L.148 1.977 1.32.805l5 5-5 5L.148 9.633z" fill="#C9BCAE"/></svg><svg viewBox="0 0 30 26" id="message" xmlns="http://www.w3.org/2000/svg"><path d="M27.023 7.023V4L15 11.523 2.977 4v3.023L15 14.477l12.023-7.454zm0-6.046c.797 0 1.477.304 2.04.914.609.609.914 1.312.914 2.109v18c0 .797-.305 1.5-.915 2.11-.562.609-1.242.913-2.039.913H2.977c-.797 0-1.5-.304-2.11-.914C.305 23.5.023 22.797.023 22V4c0-.797.282-1.5.844-2.11.61-.609 1.313-.913 2.11-.913h24.046z"/></svg><svg viewBox="0 0 28 28" id="phone" xmlns="http://www.w3.org/2000/svg"><path d="M5.914 12.172c2.25 4.36 5.555 7.664 9.914 9.914l3.305-3.305c.469-.468.984-.586 1.547-.351 1.687.562 3.468.843 5.343.843.422 0 .774.141 1.055.422.281.282.422.633.422 1.055v5.273c0 .422-.14.774-.422 1.055a1.43 1.43 0 01-1.055.422c-7.03 0-13.054-2.484-18.07-7.453C2.984 15.03.5 9.007.5 1.977c0-.422.14-.774.422-1.055A1.431 1.431 0 011.977.5H7.25c.422 0 .773.14 1.055.422.28.281.422.633.422 1.055 0 1.875.28 3.656.843 5.343.188.61.07 1.125-.351 1.547l-3.305 3.305z"/></svg><svg viewBox="0 0 28 28" id="telegram" xmlns="http://www.w3.org/2000/svg"><path d="M27.5.5l-11.32 27h-1.477l-3.937-10.266L.5 13.297V11.82L27.5.5z"/></svg></svg>