<svg width="99" height="96" fill="none" xmlns="http://www.w3.org/2000/svg"><mask id="mask0_110_6078" style="mask-type:alpha" maskUnits="userSpaceOnUse" x="1" y="1" width="97" height="94"><path d="M18.864 94L9.308 63.146V38.463L2 16.024 82.947 2 97 34.537l-5.621 3.365 3.935 42.635L18.864 94z" fill="#C4C4C4" stroke="#000"/></mask><g mask="url(#mask0_110_6078)" stroke="#fff" stroke-opacity=".3" stroke-width="2"><path d="M-944 169.5L212.144-498M-688 612.905l1156.144-667.5M-816 391.202l1156.144-667.5M-880 280.352l1156.144-667.5M-624 723.756l1156.144-667.5M-752 502.054l1156.144-667.5M-912 224.926l1156.144-667.5M-656 668.331L500.144.831M-784 446.628l1156.144-667.5M-848 335.777l1156.144-667.5M-720 557.479l1156.144-667.5M-928 197.213l1156.144-667.5M-672 640.618l1156.144-667.5M-800 418.915l1156.144-667.5M-864 308.064l1156.144-667.5M-608 751.469l1156.144-667.5M-736 529.767l1156.144-667.5M-896 252.639l1156.144-667.5M-640 696.043l1156.144-667.5M-768 474.341l1156.144-667.5M-832 363.489l1156.144-667.5M-704 585.192l1156.144-667.5M-936 183.356l1156.144-667.5M-680 626.762l1156.144-667.5M-808 405.059l1156.144-667.5M-872 294.208l1156.144-667.5M-616 737.612l1156.144-667.5M-744 515.91l1156.144-667.5M-904 238.782l1156.144-667.5M-648 682.188l1156.144-667.5M-776 460.484l1156.144-667.5M-840 349.633l1156.144-667.5M-712 571.336l1156.144-667.5M-920 211.069l1156.144-667.5M-664 654.475l1156.144-667.5M-792 432.771l1156.144-667.5M-856 321.921l1156.144-667.5M-728 543.623l1156.144-667.5M-888 266.495l1156.144-667.5M-632 709.899l1156.144-667.5M-760 488.197l1156.144-667.5M-824 377.346l1156.144-667.5M-696 599.049l1156.144-667.5"/></g><path d="M18.864 94L9.308 63.146V38.463L2 16.024 82.947 2 97 34.537l-5.621 3.365 3.935 42.635L18.864 94z" stroke="#177BD3" stroke-width="2"/></svg>