<svg width="432" height="563" fill="none" xmlns="http://www.w3.org/2000/svg"><mask id="mask0_110_6721" style="mask-type:alpha" maskUnits="userSpaceOnUse" x="3" y="2" width="428" height="559"><path d="M79.83 554.635L35.231 561l-10.869-50.92-6.37.749-2.999-2.996-10.494 4.493L3 503.715 111.687 69.769l2.998-12.356L219.249 18.1l.374-10.11L239.487 2l17.24 3.744v8.237l99.692 25.835L384.527 193.7l45.349 249.734L431 455.041l-5.997-.749-4.122 2.247-5.247 2.246 4.123 42.309-5.997 2.621-1.124-1.498-71.583 11.607-1.5 1.872-5.247.749v-.749l-62.213 8.237v1.498l-5.247 1.123-1.499-1.123-42.725 6.739v1.123l-5.622.749-1.124-.749-70.459 10.11-.75 1.872-6.746 1.497-1.124-.749-50.22 6.74v1.123l-5.997 1.498-.75-.749z" fill="#fff"/></mask><g mask="url(#mask0_110_6721)" stroke="#fff" stroke-opacity=".4" stroke-width="2"><path d="M-548.572 118.709l1156.144-667.5M-292.572 562.114l1156.144-667.5M-420.572 340.412l1156.144-667.5M-164.572 783.816l1156.144-667.5M-4.572 1060.94L1151.57 393.445M-484.572 229.56l1156.144-667.5M-228.572 672.965L927.572 5.465M-356.572 451.263l1156.144-667.5M-100.572 894.668l1156.142-667.5M59.428 1171.8L1215.57 504.296M-516.572 174.135l1156.144-667.5M-260.572 617.54L895.572-49.96M-388.572 395.837l1156.144-667.5M-132.572 839.242l1156.142-667.5M27.428 1116.37l1156.142-667.5M-452.572 284.986l1156.144-667.5M-196.572 728.391l1156.144-667.5M-36.572 1005.52L1119.57 338.019M-324.572 506.688l1156.144-667.5M-68.572 950.093l1156.142-667.5M91.428 1227.22L1247.57 559.722m-1780.142-413.3l1156.144-667.5M-276.572 589.827l1156.144-667.5M-404.572 368.125l1156.144-667.5M-148.572 811.529l1156.142-667.5M11.428 1088.66L1167.57 421.157M-468.572 257.273l1156.144-667.5M-212.572 700.678l1156.144-667.5M-340.572 478.976l1156.144-667.5M-84.572 922.38l1156.142-667.5M75.428 1199.51L1231.57 532.009M-500.572 201.848l1156.144-667.5M-244.572 645.252l1156.144-667.5M-372.572 423.55l1156.144-667.5M-116.572 866.955l1156.142-667.5M43.428 1144.08L1199.57 476.583M-436.572 312.699l1156.144-667.5M-180.572 756.104l1156.144-667.5M-20.572 1033.23L1135.57 365.732M-308.572 534.401l1156.144-667.5M-52.572 977.806l1156.142-667.5M-540.572 132.565l1156.144-667.5M-284.572 575.97L871.572-91.53M-412.572 354.268l1156.144-667.5M-156.572 797.673l1156.144-667.5M3.428 1074.8L1159.57 407.301M-476.572 243.417l1156.144-667.5M-220.572 686.822l1156.144-667.5M-348.572 465.119l1156.144-667.5M-92.572 908.524l1156.142-667.5M67.428 1185.65L1223.57 518.152M-508.572 187.991l1156.144-667.5M-252.572 631.396l1156.144-667.5M-380.572 409.693l1156.144-667.5M-124.572 853.099l1156.142-667.5M35.428 1130.23L1191.57 462.727M-444.572 298.842l1156.144-667.5M-188.572 742.247l1156.144-667.5M-28.572 1019.38L1127.57 351.875m-1444.142 168.67l1156.144-667.5M-60.572 963.95l1156.142-667.5M-524.572 160.278l1156.144-667.5M-268.572 603.683l1156.144-667.5M-396.572 381.98l1156.144-667.5M-140.572 825.386l1156.142-667.5M19.428 1102.51L1175.57 435.014M-460.572 271.129l1156.144-667.5M-204.572 714.535l1156.144-667.5M-332.572 492.832l1156.144-667.5M-76.572 936.237l1156.142-667.5M83.428 1213.37L1239.57 545.865M-492.572 215.704l1156.144-667.5M-236.572 659.109L919.572-8.391M-364.572 437.406l1156.144-667.5M-108.572 880.812l1156.142-667.5M51.428 1157.94L1207.57 490.439M-428.572 326.555l1156.144-667.5M-172.572 769.96l1156.144-667.5m-996.144 944.63L1143.57 379.588m-1444.142 168.67l1156.144-667.5M-44.572 991.663l1156.142-667.5"/></g><path d="M78.83 554.635L34.231 561l-10.869-50.92-6.37.749-2.999-2.996-10.494 4.493L2 503.715 110.687 69.769l2.998-12.356L218.249 18.1l.374-10.11L238.487 2l17.24 3.744v8.237l99.692 25.835L383.527 193.7l45.349 249.734L430 455.041l-5.997-.749-4.122 2.247-5.247 2.246 4.123 42.309-5.997 2.621-1.124-1.498-71.583 11.607-1.5 1.872-5.247.749v-.749l-62.213 8.237v1.498l-5.247 1.123-1.499-1.123-42.725 6.739v1.123l-5.622.749-1.124-.749-70.459 10.11-.75 1.872-6.746 1.497-1.124-.749-50.22 6.74v1.123l-5.997 1.498-.75-.749z" fill="#177BD3" fill-opacity=".4" stroke="#177BD3" stroke-width="2"/></svg>