<svg width="56" height="208" fill="none" xmlns="http://www.w3.org/2000/svg"><mask id="mask0_110_6256" style="mask-type:alpha" maskUnits="userSpaceOnUse" x="0" y="0" width="56" height="207"><path d="M19.163 202.639l-7.718-3.92L9.24 58.131 2.624 51.41C1.704 36.1.198 5.145 1.52 3.8 2.844 2.457 10.893 1.374 14.753 1c8.086.187 25.802.56 31.977.56 6.175 0 8.086 2.614 8.27 3.92v42.01c0 2.24-.735 4.293-1.103 5.04l-3.308 3.36L52.243 206l-33.08-3.361z" fill="#C4C4C4" stroke="#000"/></mask><g mask="url(#mask0_110_6256)" stroke="#fff" stroke-opacity=".3" stroke-width="2"><path d="M-928 333.5L228.144-334M-672 776.905l1156.144-667.5M-800 555.202l1156.144-667.5M-864 444.352l1156.144-667.5M-736 666.054L420.144-1.446M-896 388.926l1156.144-667.5M-640 832.331l1156.144-667.5M-768 610.628l1156.144-667.5M-832 499.777l1156.144-667.5M-704 721.479l1156.144-667.5M-912 361.213l1156.144-667.5M-656 804.618l1156.144-667.5M-784 582.915l1156.144-667.5M-848 472.064l1156.144-667.5M-720 693.767l1156.144-667.5M-880 416.639l1156.144-667.5M-624 860.043l1156.144-667.5M-752 638.341l1156.144-667.5M-816 527.489l1156.144-667.5M-688 749.192l1156.144-667.5M-920 347.356l1156.144-667.5M-664 790.762l1156.144-667.5M-792 569.059l1156.144-667.5M-856 458.208l1156.144-667.5M-728 679.91L428.144 12.41M-888 402.782l1156.144-667.5M-632 846.188l1156.144-667.5M-760 624.484l1156.144-667.5M-824 513.633l1156.144-667.5M-696 735.336l1156.144-667.5M-904 375.069l1156.144-667.5M-648 818.475l1156.144-667.5M-776 596.771l1156.144-667.5M-840 485.921l1156.144-667.5M-712 707.623l1156.144-667.5M-872 430.495l1156.144-667.5M-616 873.899l1156.144-667.5M-744 652.197l1156.144-667.5M-808 541.346l1156.144-667.5M-680 763.049l1156.144-667.5"/></g><path d="M19.163 202.639l-7.718-3.92L9.24 58.131 2.624 51.41C1.704 36.1.198 5.145 1.52 3.8 2.844 2.457 10.893 1.374 14.753 1c8.086.187 25.802.56 31.977.56 6.175 0 8.086 2.614 8.27 3.92v42.01c0 2.24-.735 4.293-1.103 5.04l-3.308 3.36L52.243 206l-33.08-3.361z" stroke="#177BD3" stroke-width="2"/></svg>