<svg width="66" height="98" fill="none" xmlns="http://www.w3.org/2000/svg"><path fill-rule="evenodd" clip-rule="evenodd" d="M9.726 56.395a33.158 33.158 0 004.946 4.051l.445.348c3.036 2.373 6.297 4.922 7.883 6.706 2.995 3.37 3.881 7.682 4.426 10.333.208 1.014.367 1.784.574 2.167.038.07.087.14.148.212a5.002 5.002 0 009.645.216c.077-.134.146-.276.207-.428.21-.524.412-1.232.652-2.074.756-2.65 1.891-6.632 4.848-10.426 1.77-2.272 4.4-4.224 6.746-5.965 1.638-1.216 3.137-2.329 4.11-3.377C61.48 52.105 66 43.08 66 33 66 14.775 51.225 0 33 0S0 14.775 0 33a32.883 32.883 0 008.775 22.41c.225.279.549.61.95.985z" fill="#177BD3"/><path d="M51.201 30.242a10.26 10.26 0 00-1.09-1.06c-.211-.212-.458-.353-.74-.389-.914 0-1.406-.6-1.899-1.236a16.137 16.137 0 00-7.774-6.077 11.106 11.106 0 01-1.758-.778 4.85 4.85 0 00-6.543 1.449c-2.427 3.498-5.734 5.406-9.99 5.653-.915.035-1.794.495-2.674.742-.351.106-.703.177-1.09.141-2.603-.424-4.749 1.202-4.995 3.78a2.23 2.23 0 01-.281.814c-.563 1.06-.528 1.2.457 2.155.105-.636 1.055-.954.457-1.731-.598-.778-.316-1.484.176-2.156.915-1.236 2.11-1.696 3.694-1.448a174.575 174.575 0 01-1.513 5.087c-.105.354-.246.848-.528.99-.985.6-1.125 1.59-1.512 2.544-.844 1.978-.704 4.098-.985 6.147.352 0 .668.106.985.283a7.102 7.102 0 002.533.813 2.443 2.443 0 01-.106-.283c-.035-.212-.14-.389-.246-.565-1.161-1.696-.422-3.039.914-4.275-1.618 1.978-.105 3.497.598 5.158.07 0 .106-.035.176-.035.246-.036.528-.071.774-.142l-.176-.176c-1.266-1.555-.914-3.25-.598-4.982.14-.777.457-1.413 1.161-1.767 1.231-.636 2.462-1.201 3.729-1.802 1.055-.494 2.18-.954 3.341-1.484-.527.742-1.055 1.484-1.688 2.368l4.221.706c-.281 1.59-.598 3.215-.88 4.84.704.495.669.778 2.533 1.732-.422-.53-.738-1.413-.492-1.979.88-2.155 2.216-4.063 3.975-5.582.281-.247.668-.53.985-.495 1.125.177 2.25.46 3.412.707-1.196.99-2.357.777-3.553.035l-1.9 3.074c.493.035.704.035.95.035 1.055 0 2.11.036 3.166-.07a4.071 4.071 0 001.513-.636c.738-.389 1.372-.883 2.145-1.201.915-.389 1.372-.919 1.407-1.908.036-.99-.562-1.308-1.301-1.555a27.24 27.24 0 00-1.583-.495c-.528-.14-1.196-.247-1.688-.353l.562-4.028.106-.07c.176 1.095.387 2.19.633 3.604.211-.354.352-.566.493-.778.598-1.236 1.688-1.13 2.743-1.024 1.267.106 1.654.742 1.267 1.943-.141.46-.387.918-.598 1.413.738.177 1.407.389 2.11.53a.643.643 0 00.598-.212c1.407-1.696 2.744-3.427 4.256-5.335.563.283 1.126.636 1.689.99 1.688 1.271 1.723 1.271 3.482.14l.739-.53c-1.794.99-2.779-.14-3.799-1.236z" fill="#fff"/><circle cx="33" cy="93" r="5" fill="#177BD3"/></svg>