<svg width="236" height="251" fill="none" xmlns="http://www.w3.org/2000/svg"><mask id="path-1-inside-1_155_4293" fill="#fff"><path fill-rule="evenodd" clip-rule="evenodd" d="M103.199 5a5 5 0 015-5h20.213a5 5 0 015 5v15.72c11.444 2.945 21.619 9.049 29.541 17.327l13.846-7.995a5 5 0 016.83 1.83l10.107 17.506a5 5 0 01-1.83 6.83l-13.947 8.053a62.536 62.536 0 012.337 16.99 62.57 62.57 0 01-2.34 17.002l13.95 8.054a5 5 0 011.83 6.83l-10.107 17.506a5 5 0 01-6.83 1.83l-13.854-7.999c-7.921 8.274-18.093 14.375-29.533 17.319v15.726a5 5 0 01-5 5h-20.213a5 5 0 01-5-5v-15.467c-11.684-2.793-22.094-8.866-30.202-17.192l-13.185 7.613a5 5 0 01-6.83-1.83l-10.107-17.506a5 5 0 011.83-6.83l13.056-7.538a62.536 62.536 0 01-2.488-17.517 62.56 62.56 0 012.485-17.508l-13.053-7.536a5 5 0 01-1.83-6.83l10.107-17.505a5 5 0 016.83-1.83L72.99 37.66c8.109-8.33 18.521-14.405 30.209-17.199V5zm14.586 111.692c19.563 0 35.423-15.86 35.423-35.423 0-19.564-15.86-35.423-35.423-35.423-19.564 0-35.423 15.86-35.423 35.423 0 19.563 15.859 35.423 35.423 35.423z"/></mask><path d="M133.412 20.72h-3v2.325l2.253.58.747-2.905zm29.541 17.327l-2.168 2.074 1.628 1.701 2.04-1.177-1.5-2.598zm13.846-7.995l-1.5-2.598 1.5 2.598zm6.83 1.83l-2.598 1.5 2.598-1.5zm10.107 17.506l-2.598 1.5 2.598-1.5zm-1.83 6.83l-1.5-2.598 1.5 2.598zm-13.947 8.053l-1.5-2.599-2.02 1.167.633 2.245 2.887-.813zm-.003 33.992l-2.887-.814-.633 2.245 2.02 1.167 1.5-2.598zm13.95 8.054l1.5-2.598-1.5 2.598zm1.83 6.83l-2.598-1.5 2.598 1.5zm-10.107 17.506l2.599 1.5-2.599-1.5zm-6.83 1.83l1.5-2.598-1.5 2.598zm-13.854-7.999l1.5-2.598-2.039-1.177-1.628 1.701 2.167 2.074zm-29.533 17.319l-.747-2.905-2.253.58v2.325h3zm-30.213.259h3v-2.367l-2.303-.551-.697 2.918zM72.997 124.87l2.15-2.093-1.629-1.671-2.02 1.166 1.5 2.598zm-13.185 7.613l-1.5-2.598 1.5 2.598zm-6.83-1.83l2.598-1.5-2.598 1.5zm-10.107-17.506l-2.598 1.5 2.598-1.5zm1.83-6.83l1.5 2.598-1.5-2.598zm13.056-7.538l1.5 2.598L61.3 100.2l-.659-2.26-2.88.84zm-.003-35.025l2.88.84.658-2.26-2.038-1.178-1.5 2.598zm-13.053-7.536l-1.5 2.598 1.5-2.598zm-1.83-6.83l2.598 1.5-2.598-1.5zm10.107-17.505l2.598 1.5-2.598-1.5zm6.83-1.83l-1.5 2.598 1.5-2.599zM72.99 37.66l-1.5 2.599 2.02 1.167 1.63-1.673-2.15-2.093zm30.209-17.199l.697 2.918 2.303-.55V20.46h-3zm5-23.461a8 8 0 00-8 8h6a2 2 0 012-2v-6zm20.213 0h-20.213v6h20.213v-6zm8 8a8 8 0 00-8-8v6a2 2 0 012 2h6zm0 15.72V5h-6v15.72h6zm28.708 15.252c-8.299-8.671-18.962-15.07-30.96-18.158l-1.495 5.811c10.888 2.802 20.575 8.612 28.12 16.496l4.335-4.149zm10.179-8.518l-13.846 7.995 3 5.196 13.846-7.995-3-5.196zm10.928 2.928a8 8 0 00-10.928-2.928l3 5.197a2 2 0 012.732.731l5.196-3zm10.107 17.506l-10.107-17.505-5.196 3 10.107 17.505 5.196-3zm-2.928 10.928a8 8 0 002.928-10.928l-5.196 3a2 2 0 01-.732 2.732l3 5.196zm-13.947 8.053l13.947-8.053-3-5.196-13.947 8.053 3 5.196zm3.837 14.393a65.57 65.57 0 00-2.449-17.805l-5.775 1.627a59.579 59.579 0 012.224 16.178h6zm-2.452 17.815a65.57 65.57 0 002.452-17.815h-6a59.57 59.57 0 01-2.227 16.187l5.775 1.628zm12.562 4.642l-13.95-8.054-3 5.196 13.95 8.054 3-5.196zm2.928 10.928a7.998 7.998 0 00-2.928-10.928l-3 5.196a1.999 1.999 0 01.732 2.732l5.196 3zm-10.106 17.506l10.106-17.506-5.196-3-10.107 17.506 5.197 3zm-10.929 2.928a8.001 8.001 0 0010.929-2.928l-5.197-3a2 2 0 01-2.732.732l-3 5.196zm-13.854-7.999l13.854 7.999 3-5.196-13.854-7.999-3 5.196zm-27.285 17.627c11.994-3.087 22.654-9.483 30.952-18.15l-4.334-4.149c-7.544 7.88-17.229 13.687-28.113 16.488l1.495 5.811zm2.252 12.82v-15.726h-6v15.726h6zm-8 8a8 8 0 008-8h-6a2 2 0 01-2 2v6zm-20.213 0h20.213v-6h-20.213v6zm-8-8a8 8 0 008 8v-6a2 2 0 01-2-2h-6zm0-15.467v15.467h6v-15.467h-6zm-29.351-15.099c8.493 8.722 19.403 15.089 31.653 18.017l1.395-5.836c-11.117-2.657-21.027-8.437-28.75-16.367l-4.298 4.186zm-9.536 8.118l13.185-7.612-3-5.197-13.185 7.613 3 5.196zm-10.928-2.928a8 8 0 0010.928 2.928l-3-5.196a2 2 0 01-2.732-.732l-5.196 3zm-10.107-17.506l10.107 17.506 5.196-3-10.107-17.506-5.196 3zm2.928-10.928a8 8 0 00-2.928 10.928l5.196-3a2 2 0 01.732-2.732l-3-5.196zm13.056-7.538l-13.056 7.538 3 5.196 13.056-7.538-3-5.196zm-3.988-14.92c0 6.368.91 12.53 2.608 18.357l5.76-1.678a59.54 59.54 0 01-2.368-16.678h-6zm2.605-18.345a65.536 65.536 0 00-2.605 18.346h6c0-5.791.826-11.383 2.365-16.669l-5.76-1.677zm-11.673-4.1l13.053 7.537 3-5.197-13.053-7.536-3 5.196zm-2.928-10.928a8 8 0 002.928 10.928l3-5.196a2 2 0 01-.732-2.732l-5.196-3zm10.107-17.505L40.277 47.888l5.196 3L55.58 33.383l-5.196-3zm10.928-2.929a8 8 0 00-10.928 2.928l5.196 3a2 2 0 012.732-.731l3-5.197zm13.178 7.608l-13.178-7.608-3 5.197 13.178 7.607 3-5.196zm28.01-17.519c-12.254 2.93-23.166 9.299-31.661 18.025l4.3 4.185c7.722-7.933 17.635-13.716 28.756-16.374l-1.395-5.836zM100.199 5v15.461h6V5h-6zm50.009 76.269c0 17.907-14.517 32.423-32.423 32.423v6c21.22 0 38.423-17.203 38.423-38.423h-6zm-32.423-32.423c17.906 0 32.423 14.516 32.423 32.423h6c0-21.22-17.203-38.423-38.423-38.423v6zM85.362 81.269c0-17.907 14.516-32.423 32.423-32.423v-6c-21.22 0-38.423 17.202-38.423 38.423h6zm32.423 32.423c-17.907 0-32.423-14.516-32.423-32.423h-6c0 21.22 17.202 38.423 38.423 38.423v-6z" fill="#363D4D" mask="url(#path-1-inside-1_155_4293)"/><circle cx="29.29" cy="221.49" r="10.217" fill="#363D4D"/><circle cx="206.389" cy="221.49" r="10.217" fill="#363D4D"/><circle cx="146.448" cy="221.49" r="10.217" fill="#363D4D"/><circle cx="87.869" cy="221.49" r="10.217" fill="#363D4D"/><rect x="1.5" y="193.703" width="232.679" height="55.579" rx="27.79" stroke="#363D4D" stroke-width="3"/></svg>