<svg width="20" height="24" fill="none" xmlns="http://www.w3.org/2000/svg"><path fill-rule="evenodd" clip-rule="evenodd" d="M6 22h12V10.828L13.172 6H6v16zM6 4a2 2 0 00-2 2v16a2 2 0 002 2h12a2 2 0 002-2V10.828a2 2 0 00-.586-1.414l-4.828-4.828A2 2 0 0013.172 4H6z" fill="#363D4D"/><path d="M2 14h6v4H2v-4z" fill="#fff"/><mask id="mask0_58:4393" style="mask-type:alpha" maskUnits="userSpaceOnUse" x="4" y="4" width="16" height="20"><path d="M4 6a2 2 0 012-2h7.172a2 2 0 011.414.586L17 7l2.414 2.414A2 2 0 0120 10.828V22a2 2 0 01-2 2H6a2 2 0 01-2-2V6z" fill="#177BD3"/></mask><g mask="url(#mask0_58:4393)"><path d="M13 11V4l7 7h-7z" fill="#363D4D"/></g><path fill-rule="evenodd" clip-rule="evenodd" d="M.5 6.5A.5.5 0 011 7v7a1.5 1.5 0 001.5 1.5H12a.5.5 0 110 1H2.5A2.5 2.5 0 010 14V7a.5.5 0 01.5-.5z" fill="#363D4D"/><path fill-rule="evenodd" clip-rule="evenodd" d="M8.5 1a.5.5 0 01-.5.5H2.5A1.5 1.5 0 001 3v7.5a.5.5 0 01-1 0V3A2.5 2.5 0 012.5.5H8a.5.5 0 01.5.5z" fill="#363D4D"/><path d="M12.15 15.505L10 13.615l.684-.615L14 15.938 10.684 19 10 18.386l2.15-2.016v-.865z" fill="#363D4D"/></svg>