<svg width="28" height="28" fill="none" xmlns="http://www.w3.org/2000/svg"><path fill-rule="evenodd" clip-rule="evenodd" d="M.5 3a.5.5 0 01.5-.5h4a.5.5 0 01.467.32l5 13a.5.5 0 01-.934.36L4.657 3.5H1A.5.5 0 01.5 3zM12 25a3 3 0 100-6 3 3 0 000 6zm0 1a4 4 0 100-8 4 4 0 000 8zm6.714-20.84l-8.11 3.052 1.606 4.27 8.11-3.05-1.606-4.271zm4.084 5.255l-10.73 4.036.537 1.425a6.172 6.172 0 014.001 1.885l7.845-2.95-1.653-4.396zm-4.66 13.172a6.198 6.198 0 00.193-1.539 6.16 6.16 0 00-.898-3.212l7.913-2.977L27 20.253l-8.862 3.333z" fill="#363D4D"/></svg>