<svg width="66" height="84" fill="none" xmlns="http://www.w3.org/2000/svg"><path fill-rule="evenodd" clip-rule="evenodd" d="M9.726 56.395a33.158 33.158 0 004.946 4.051l.445.348c3.036 2.373 6.297 4.922 7.883 6.706 2.995 3.37 3.881 7.682 4.426 10.333.208 1.014.367 1.784.574 2.167.038.07.087.14.148.212a5.002 5.002 0 009.645.216c.077-.134.146-.276.207-.428.21-.524.412-1.232.652-2.074.756-2.65 1.891-6.632 4.848-10.426 1.77-2.272 4.4-4.224 6.746-5.965 1.638-1.216 3.137-2.329 4.11-3.377C61.48 52.105 66 43.08 66 33 66 14.775 51.225 0 33 0S0 14.775 0 33a32.883 32.883 0 008.775 22.41c.225.279.549.61.95.985z" fill="#fff"/></svg>