<svg width="312" height="206" fill="none" xmlns="http://www.w3.org/2000/svg"><path d="M.9 167.51c2.675.294 5.338.567 8.006.895 5.092.648 10.2 1.231 15.281 1.929 7.242 1.098 14.46 2.295 21.698 3.48a828.836 828.836 0 0116.562 3.014c5.711 1.133 11.42 2.424 17.132 3.557a115.79 115.79 0 0018.433 2.498 48.171 48.171 0 0027.38-7.162 111.681 111.681 0 0029.438-26.164 3715.304 3715.304 0 0016.462-20.879 19.478 19.478 0 004.216-7.79 3.438 3.438 0 00-.074-2.93 3.42 3.42 0 00-.948-1.16 3.388 3.388 0 00-1.35-.64c-7.611-3.142-15.457-5.301-23.785-4.407a50.776 50.776 0 00-9.835 2.081 104.428 104.428 0 00-24.115 12.108c-2.05 1.266-4.002 2.556-6.151 3.799a33.435 33.435 0 01-21.474 4.836 11.222 11.222 0 01-5.093-1.654 11.32 11.32 0 01-3.762-3.832 8.199 8.199 0 01.406-9.714 28.849 28.849 0 012.669-3.055 10.156 10.156 0 002.393-4.248 64.048 64.048 0 0115.382-26.407 27.124 27.124 0 014.359-3.615 57.776 57.776 0 0130.568-9.826 25.365 25.365 0 0113.318 3.34c.464.253.92.469 1.559.8a9.64 9.64 0 00-.036-1.613 76.164 76.164 0 012.462-35.094 175.356 175.356 0 005.597-19.98c.777-4.216 1.57-8.428 2.578-12.589a14.113 14.113 0 012.175-4.653 3.79 3.79 0 011.424-1.436 3.752 3.752 0 013.882.096 3.79 3.79 0 011.353 1.504c.783 1.193 1.32 2.538 1.983 3.79l1.574 2.865a35.68 35.68 0 014.46.073c2.748.42 5.33 1.586 7.47 3.372a42.622 42.622 0 0112.371 16.94 53.292 53.292 0 013.976 15.475c.104.959.281 1.83.477 3.286.865-1.799 1.487-3.164 2.249-4.6a55.753 55.753 0 0114.885-18.442 49.378 49.378 0 017.602-4.751 18.93 18.93 0 015.802-1.523c4.236-.527 9.618 3.68 9.513 7.424a16.749 16.749 0 01-.791 5.745 29.22 29.22 0 00-2.152 11.389 42.684 42.684 0 01-5.348 20.991c-.677 1.228-1.553 2.338-2.42 3.626.238.066.485.096.731.088 7.623-2.633 15.214-5.133 22.64-8.042 4.114-1.56 8.051-3.622 12-5.592a22.31 22.31 0 0110.92-2.893c5.546.212 8.635 3.618 7.731 9.177a69.7 69.7 0 01-2.369 8.923c-1.223 4.108-2.727 8.149-3.798 12.276a53.21 53.21 0 01-11.494 21.463 5.663 5.663 0 00-1.25 2.093c.473-.15.942-.283 1.419-.45 4.095-1.406 8.151-2.945 12.302-4.215a38.947 38.947 0 0115.777-.963 20.785 20.785 0 003.987-.217 40.69 40.69 0 016.434-.507c3.339.226 5.055 1.979 5.903 5.249a14.378 14.378 0 01-1.552 10.194 29.351 29.351 0 01-7.504 9.479 10.005 10.005 0 00-2.392 3.139 19.182 19.182 0 01-3.83 4.923c-13.983 13.111-30.674 19.454-49.665 19.958a86.92 86.92 0 01-50.63-15.066 29.835 29.835 0 01-7.347-6.531c-3.95-5.446-12.834-4.862-16.823-.153-1.538 1.76-3.073 3.503-4.52 5.32-5.013 6.364-9.797 12.941-15.039 19.091a104.645 104.645 0 01-28.494 23.521 49.024 49.024 0 01-30.555 5.585c-7.182-.907-14.291-2.413-21.432-3.715-7.946-1.444-15.86-3.021-23.81-4.448-7.36-1.338-14.711-2.708-22.114-3.792-7.91-1.153-15.867-1.965-23.792-2.911a9.83 9.83 0 00-1.563.028L.9 167.51zM151.565 45.524c-.462 3.411-1.224 7.42-1.503 11.527-1.55 22.156 6.491 40.463 22.31 55.558a16.836 16.836 0 003.407 2.585 6.53 6.53 0 008.456-.847 11.494 11.494 0 003.18-4.833 167.492 167.492 0 008.267-25.096c.642-2.698 1.003-5.465 1.53-8.191a140.188 140.188 0 002.643-16.977 63.8 63.8 0 00-3.646-27.727 40.969 40.969 0 00-12.695-18.004 12.18 12.18 0 00-4.348-2.51 12.112 12.112 0 00-4.983-.537 2.96 2.96 0 01-1.963-.295 2.991 2.991 0 01-1.342-1.472c-.462-.852-.821-1.766-1.258-2.647a24.344 24.344 0 00-1.604-2.96 2.593 2.593 0 00-4.495-.293 9.419 9.419 0 00-1.905 3.521c-.889 3.732-1.625 7.482-2.414 11.238-.789 3.755-1.394 7.396-2.411 11.008-1.578 5.45-3.309 10.81-5.226 16.952zm131.112 19.34l.315.076c.295-2.219.442-4.455.439-6.693a5.155 5.155 0 00-1.577-3.545 5.083 5.083 0 00-3.589-1.42 7.973 7.973 0 00-2.64.437 19.433 19.433 0 00-7.545 4.73 77.813 77.813 0 01-11.246 8.963 74.485 74.485 0 01-28.359 10.025c-3.966.645-7.944 1.41-11.841 2.424a13.825 13.825 0 00-5.126 2.655 92.073 92.073 0 00-25.475 33.023c-1.607 3.663-1.983 8.329 3.525 11.122a28.308 28.308 0 007.315 2.7c4.184.758 8.409 1.261 12.653 1.506a58.443 58.443 0 0033.097-8.035 86.005 86.005 0 0027.628-25.686 40.89 40.89 0 006.997-15.502 31.954 31.954 0 011.019-3.471c1.487-4.556 2.995-9.053 4.43-13.392l-.02.083zm-91.245 64.504l-.162.313c.424.349.836.748 1.289 1.051a77.864 77.864 0 0018.277 8.96 90.47 90.47 0 0027.748 4.659 103.726 103.726 0 0047.167-11.084 80.298 80.298 0 0014.165-8.662 29.076 29.076 0 009.246-11.436 11.678 11.678 0 00.732-8.948 4.798 4.798 0 00-1.879-2.739 4.734 4.734 0 00-3.196-.848c-1.761.051-3.605.451-5.39.601-1.754.21-3.523.266-5.287.167a36.724 36.724 0 00-12.674.638 87.271 87.271 0 00-16.31 5.625 24.166 24.166 0 00-5.738 3.899 142.899 142.899 0 01-11.108 9.119 61.975 61.975 0 01-28.576 11.083 72.92 72.92 0 01-26.659-2.107l-1.645-.291zm-24.733-19.82l.212-.301c-.418-.524-.798-1.056-1.24-1.551a70.237 70.237 0 01-14.71-26.876 4.983 4.983 0 00-.896-1.784 4.94 4.94 0 00-1.522-1.283 26.112 26.112 0 00-14.961-3.861 60.88 60.88 0 00-22.404 5.95 38.05 38.05 0 00-13.691 10.785 72.82 72.82 0 00-8.777 14.386 23.078 23.078 0 00-2.197 5.406 15.897 15.897 0 01-4.641 8.549 10.132 10.132 0 00-2.457 3.705 7.916 7.916 0 00.305 5.2 7.844 7.844 0 003.465 3.867c5.47 3.541 14.399 2.403 18.687-2.533 2.587-3.003 4.87-6.275 7.386-9.349a112.985 112.985 0 017.869-9.249 31.177 31.177 0 0114.351-8.671 30.994 30.994 0 0116.735.044 63.388 63.388 0 0114.802 5.707c1.242.511 2.473 1.143 3.704 1.776l-.02.083zm25.33-8.397l.48.116c.326-.414.632-.816.97-1.21 3.21-3.857 6.22-7.904 9.737-11.511a84.554 84.554 0 0123.78-18.266 3.828 3.828 0 001.417-1.031 54.045 54.045 0 004.356-6.54 43.278 43.278 0 004.511-20.05c-.222-2.86.24-5.733 1.348-8.376.416-.868.725-1.798 1.067-2.72 2.737-7.53-3.489-12.01-8.925-11.14a14.688 14.688 0 00-4.441 1.465c-9.867 5.11-17.74 13.415-22.352 23.578a19.792 19.792 0 00-2.631 9.212 68.432 68.432 0 01-1.383 14.11c-.817 3.431-1.204 6.967-1.959 10.43-.976 4.539-2.158 9.062-3.237 13.593-.835 2.775-1.828 5.477-2.718 8.257l-.02.083zm-91.033 30.857l.193.364c2.398-1.183 4.871-2.241 7.21-3.543 2.339-1.303 4.444-2.802 6.65-4.207a112.152 112.152 0 0123.581-11.919 42.99 42.99 0 0110.72-2.273 47.287 47.287 0 0119.389 2.817c.441.132.888.24 1.34.323a7.92 7.92 0 00-2.051-1.816 63.35 63.35 0 00-22.305-9.158 28.725 28.725 0 00-18.378 2.043 39.675 39.675 0 00-14.221 11.838c-4.024 4.999-8.046 10.211-12.097 15.398l-.031.133zm90.638-.108l-.184.256c.261.352.551.682.868.984a56.982 56.982 0 004.901 3.58 88.057 88.057 0 0035.798 13.527 81.075 81.075 0 0026.956-.535 71.242 71.242 0 0035.538-18.139c1.059-.995 1.98-2.146 2.968-3.211l-.346-.383c-.546.309-1.104.597-1.641.942a106.617 106.617 0 01-27.292 12.45 97.504 97.504 0 01-48.074 2.48 80.818 80.818 0 01-27.545-11.022c-.652-.492-1.314-.652-1.916-1.062l-.031.133zm79.698-77.633l-.165-.41c-1.659.797-3.352 1.516-4.945 2.329a91.254 91.254 0 01-14.515 6.535c-5.723 2-11.438 3.966-17.157 5.949a59.37 59.37 0 00-16.08 8.182c-.43.337-.805.74-1.39 1.285l12.794-2.317c12.079-2.103 23.34-6.43 32.913-14.386 2.864-2.409 5.704-4.859 8.539-7.292l.006.125z" fill="#868C96"/><path d="M265.509 85.995c-11.118 20.619-27.084 35.153-50.365 40.381a64.489 64.489 0 01-17.555 1.449 22.163 22.163 0 01-9.76-2.199c-.945-.51-1.805-1.158-2.702-1.727l.277-.427c1.164.546 2.288 1.187 3.497 1.62a35.464 35.464 0 0013.01 1.769 71.162 71.162 0 0030.767-8.017 73.576 73.576 0 0025.103-21.768c2.249-2.98 4.265-6.157 6.397-9.236.427-.619.896-1.193 1.352-1.787l-.021-.058z" fill="#868C96"/><path d="M291.478 118.18c-.461.504-.958.973-1.488 1.402a110.652 110.652 0 01-60.227 19.291 87.99 87.99 0 01-27.737-4.339 109.662 109.662 0 01-10.32-4.255 1.155 1.155 0 01-.66-.899c1.971.828 3.931 1.707 5.918 2.469 2.521.943 5.034 1.92 7.611 2.631 21.755 6.03 43.006 3.818 63.843-4.29a117.977 117.977 0 0021.119-10.911c.619-.397 1.301-.69 1.991-1.016l-.05-.083zm-116.196-2.437a26.132 26.132 0 01-6.952-8.409 48.926 48.926 0 01-5.867-24.722 120.75 120.75 0 011.651-17.217 124.858 124.858 0 014.6-18.142c2.512-8.201 5.592-16.142 8.506-24.193a1.328 1.328 0 01.769-.73c-.965 2.656-1.934 5.329-2.886 8.005-1.261 3.535-2.734 7.002-3.714 10.606-2.301 8.34-4.738 16.664-6.389 25.144a69.25 69.25 0 00.405 31.717 39.487 39.487 0 008.808 16.555c.371.454.713.93 1.024 1.428l.045-.042zm-55.61-33.373c.694-.36 1.425-.644 2.178-.849a48.18 48.18 0 0113.339-.124A32.359 32.359 0 01148 85.106a50.915 50.915 0 015.453 3.907c.557.442 1.086.916 1.585 1.422.1-.416.159-.666.075-.827a53.667 53.667 0 01-3.045-21.293 96.053 96.053 0 013.353-23.851c1.141-4.129 2.562-8.19 3.881-12.257a5.5 5.5 0 01.925-1.538c-.747 2.55-1.395 5.124-2.249 7.612a94.874 94.874 0 00-3.709 15.575 107.841 107.841 0 00-1.345 16.815 56.158 56.158 0 003.339 20.571c.063.288.104.581.124.876-.892.365-1.413-.236-1.909-.796a26.254 26.254 0 00-13.705-7.961 64.568 64.568 0 00-12.138-1.47 82.92 82.92 0 00-9.091.5l.128-.023zm96.758 39.12c.29-.225.606-.414.939-.566a80.218 80.218 0 0034.978-23.135 115.994 115.994 0 0017.429-25.525 5.514 5.514 0 011.311-1.833c-.996 2.05-1.929 4.132-3.019 6.141a103.382 103.382 0 01-25.571 31.591 71.048 71.048 0 01-23.688 12.809c-.788.191-1.587.333-2.392.427l.013.091z" fill="#868C96"/><path d="M257.012 146.583c-2.702.475-5.369 1.099-8.088 1.428a86.207 86.207 0 01-20.941-.196 81.432 81.432 0 01-19.262-4.97 75.494 75.494 0 01-17.216-9.443 2.108 2.108 0 01-.828-1.152c.274.059.54.153.79.279a72.006 72.006 0 0018.837 10.205 83.228 83.228 0 0019.592 4.539 91.367 91.367 0 0025.829-.649 7.551 7.551 0 011.328.004l-.041-.045zM228.333 28.678c-21.514 25.789-25.469 37.992-31.974 57.454a113.7 113.7 0 0115.099-36.164c5.292-8.27 13.803-19.038 16.875-21.29z" fill="#868C96"/><path d="M217.692 52.143c-10.294 15.834-19.589 32.173-25.476 50.216 1.777-11.356 17.033-41.422 25.476-50.216zm2.169 32.901a20.284 20.284 0 01-1.754 1.638 164.723 164.723 0 00-17.586 13.261 65.239 65.239 0 00-14.619 18.647c-.599 1.194-1.124 2.441-1.785 3.603a18.818 18.818 0 012.938-7.711 67.131 67.131 0 0118.724-19.874c4.621-3.323 9.447-6.332 14.186-9.486l-.104-.078zm-13.632 26.988a30.03 30.03 0 012.62-1.674 148.881 148.881 0 0041.325-30.692s.116.028.666-.227c-1.24 1.462-2.121 2.518-3.13 3.525a132.058 132.058 0 01-38.197 27.765c-1.064.501-2.211.84-3.325 1.258l.041.045zm-96.741-12.675a7.314 7.314 0 011.112-1.07 46.198 46.198 0 0127.301-8.45 35.06 35.06 0 0118.109 5.626c.685.43 1.394.83 2.099 1.247l.53.127 1.802 2.197-.055.234c-.453-.303-.917-.556-1.328-.885-8.821-7.028-18.839-9.025-29.653-7.163a49.826 49.826 0 00-18.004 7.154c-.553.342-1.174.598-1.753.898l-.16.085zm84.276-72.987a25.74 25.74 0 01-.013 2.991c-.613 4.925-.99 9.89-2.017 14.715-1.804 8.53-4.042 16.974-6.064 25.47-.576 2.415-1.494 4.73-2.399 7.576l4.022-16.89c1.301-5.464 2.784-11.254 3.844-16.952 1.059-5.698 1.633-11.267 2.429-16.888l.198-.022z" fill="#868C96"/><path d="M131.971 97.777l-3.902 1.7a66.545 66.545 0 00-22.244 17.103c-2.069 2.372-3.992 4.867-6.035 7.35-.563.675-1.213 1.275-1.818 1.904 1.18-1.723 2.298-3.479 3.552-5.149a67.505 67.505 0 0119.963-18.465c2.633-1.513 5.472-2.712 8.24-3.981.701-.233 1.424-.39 2.158-.466l.086.004zm141.782 21.758c.362-.45.766-.866 1.205-1.241 7.326-5.277 14.823-10.177 21.297-16.505.328-.255.685-.47 1.062-.642l.342.329a7.836 7.836 0 01-1.058 1.506c-2.102 1.923-4.162 3.892-6.398 5.642a111.154 111.154 0 01-16.479 10.887l.029.024zm-51.464-61.877a102.844 102.844 0 019.871-15.232 93.13 93.13 0 017.192-8.831c.019.439-.038.878-.169 1.297a13.332 13.332 0 01-1.16 1.64c-4.993 6.721-9.991 13.435-14.992 20.142-.224.28-.482.553-.722.83l-.02.154zM172.405 9.496c1.006.771.484 1.491.243 2.137-.731 2.043-1.595 4.054-2.293 6.105-1.576 4.71-3.07 9.44-4.609 14.142a6.598 6.598 0 01-.323.697 82.903 82.903 0 016.982-23.081zm-5.277 76.956c-1.578-12.395 1.396-24.078 5.481-34.77-1.218 5.113-2.854 10.954-4.208 16.863a68.325 68.325 0 00-1.273 17.907zm16.307 20.022c1.433-4.181 3.031-8.323 4.266-12.552.972-3.47 1.763-6.989 2.37-10.542.56-3.16.868-6.361 1.518-9.533-.186 2.615-.231 5.229-.585 7.82a78.482 78.482 0 01-4.43 17.427c-.849 2.243-1.743 4.458-2.642 6.689a2.568 2.568 0 01-.538.645l.041.046zm-91.692 1.597c.017-.224.07-.443.155-.65 5.207-7.18 11.583-12.95 20.047-16.032.57-.16 1.153-.273 1.742-.337a6.677 6.677 0 01-.927.587 43.282 43.282 0 00-16.526 11.527c-1.482 1.668-3.059 3.225-4.644 4.815l.153.09zm3.366 12.967c-2.95 4.237-5.917 8.471-8.871 12.725l-.37-.213c.101-.369.244-.724.428-1.059 2.425-3.431 4.847-6.844 7.327-10.209a7.1 7.1 0 011.511-1.203l-.025-.041zm169.73 23.155l6.449-1.965.183.555-6.4 1.977-.232-.567zm-159.908-41.269l-3.545 3.283c1.169-1.091 2.273-2.199 3.529-3.287l.016.004zm-5.387 5.216l-1.757 2.165-.27-.259 2.065-1.844-.038-.062zm7.139-6.695l2.805-2.088-2.805 2.088zm50.631-7.27l.91 1.981-.91-1.981zm-.882-2.098l.882 2.098-.899-2.102.017.004zm-51.475 10.888l1.726-1.52-1.726 1.52zm8.796-11.897l1.1-.58.131.332-1.231.248zm18.243 6.75l1.943-.447-1.864.483-.079-.036zm160.077 20.066c.179-.239.362-.494.562-.745l.359.474-.963.225.042.046zm-190.77-11.697c-.426.32-.852.64-1.265.981l1.269-.997-.004.016zm74.756 10.184l1.067.733-1.076-.771.009.038zM97.36 126.638c-.234.401-.453.806-.693 1.224.248-.381.484-.782.732-1.162l-.038-.062z" fill="#868C96"/></svg>