<svg width="273" height="149" fill="none" xmlns="http://www.w3.org/2000/svg"><path d="M133.484 146.482c-1.91-3.656-3.095-7.396-1.492-11.511a6.08 6.08 0 012.021-3.02 6.101 6.101 0 013.387-1.331c2.495-.167 5.018-.07 7.527-.097h2.035c-5.952-3.587-11.513-6.868-18.454-6.062a29.452 29.452 0 00-8.517 2.419 60.626 60.626 0 01-15.625 4.922c-4.181.597-8.363 1-12.545 1.39-4.948.417-9.924.709-14.886.987-17.493 1.029-34.205 5.755-50.903 10.552-4.056 1.167-8.043 2.544-12.071 3.781a6.766 6.766 0 01-4.446.209c-1.798-.682-2.495-2.044-1.548-3.698a8.345 8.345 0 012.384-2.6 32.162 32.162 0 014.446-2.489 18.437 18.437 0 006.078-4.713 35.332 35.332 0 0115.792-11.26c.177-.056.346-.136.502-.237 0 0 .083-.097.209-.278a9.311 9.311 0 00-1.171-.417c-9.186-1.891-18.371-3.753-27.543-5.714a21.715 21.715 0 01-4.948-1.793 8.9 8.9 0 01-2.787-2.224 4.165 4.165 0 010-5.242 10.255 10.255 0 012.94-2.599 6.261 6.261 0 003.415-4.644 16.513 16.513 0 013.025-6.228 11.811 11.811 0 014.304-3.75 11.846 11.846 0 015.565-1.296c2.508-.098 5.017 0 7.735-.362-.487-.403-.961-.82-1.463-1.21a20.297 20.297 0 01-5.882-6.797c-2.189-4.171-1.296-7.466 2.788-9.732 2.146-1.182 4.474-2.03 6.704-3.045a36.703 36.703 0 004.084-1.96 34.294 34.294 0 003.429-2.697c-1.101-1.154-1.98-2.113-2.9-3.03-.654-.668-1.393-1.252-2.076-1.919a2.686 2.686 0 01-1.047-2.062 2.678 2.678 0 01.95-2.109c1.07-1.15 2.3-2.142 3.651-2.947a37.805 37.805 0 007.89-6.061 17.89 17.89 0 017.32-4.536 17.928 17.928 0 018.597-.594 43.78 43.78 0 015.687 1.682c.035-.23.035-.465 0-.695-1.603-5.047.167-9.343 3.345-13.068a22.656 22.656 0 015.854-4.713 45.662 45.662 0 009.395-7.23 23.072 23.072 0 0111.471-6.228 26.086 26.086 0 0117.34 1.724 30.486 30.486 0 004.195 1.46c.704.129 1.418.19 2.133.18.39-.875.766-1.668 1.073-2.474a23.057 23.057 0 015.84-9.134 6.35 6.35 0 014.935-1.974c2.076.153 2.899.779 2.968 2.864a14.291 14.291 0 01-.446 3.907c-.738 3.114-1.686 6.172-2.397 9.3a50.186 50.186 0 00-.139 22.438c1.742 7.716 3.665 15.39 5.575 23.064a86.478 86.478 0 012.565 16.558c.223 4.254.39 8.536.418 12.804a53.863 53.863 0 01-3.638 18.782c-.376 1.056-.781 2.113-1.185 3.169a9.16 9.16 0 003.122 10.942c.448.347.913.672 1.394.973 8.6 5.06 17.354 9.731 27.306 11.691a55.6 55.6 0 0019.332.64c10.58-1.641 12.399 0 27.399-6.617 22.513-9.933 53.525-23.736 58.152-24.306a10.46 10.46 0 011.325 0c.153 1.028-.474 1.056-1.115 1.126-2.788.333-5.576.611-8.364 1.042-5.714.918-33.866 18.346-57.498 26.095-8.762 2.873-15.159 3.438-22.993 4.203a57.688 57.688 0 01-26.33-3.837 33.232 33.232 0 00-10.203-2.53 11.06 11.06 0 00-7.468 2.164 11.004 11.004 0 00-4.184 6.539c-.446 1.821-.837 3.656-1.241 5.477.209-1.543.446-3.086.641-4.629.544-4.171 2.272-7.66 6.315-9.621a2.67 2.67 0 00.529-.472 4.383 4.383 0 00-2.983.723 10.95 10.95 0 00-2.397 1.807 10.392 10.392 0 00-1.687 2.475 17.944 17.944 0 00-.878 2.544 8.858 8.858 0 014.419-7.452 4.017 4.017 0 00-3.569 1.974 9.798 9.798 0 00-1.686 7.16c.237 1.835.767 3.656 1.199 5.477zM30.018 89.483l-.111.64c-.607.172-1.227.293-1.854.361-2.593 0-5.185-.083-7.764 0A11.175 11.175 0 0015 91.716a11.141 11.141 0 00-4.078 3.578 17.855 17.855 0 00-2.955 6.451 5.82 5.82 0 01-3.025 4.101 12.17 12.17 0 00-2.94 2.322 3.264 3.264 0 00-.67 3.926c.224.422.538.791.92 1.078.943.83 2.03 1.48 3.207 1.919a46.023 46.023 0 006.523 1.877c9.868 1.974 19.779 3.726 29.633 5.811 6.83 1.39 13.604 3.17 20.35 4.977a113.815 113.815 0 0018.636 3.92 87.777 87.777 0 0024.281-1.098 45.05 45.05 0 0013.757-4.56 30.346 30.346 0 005.896-4.337c1.478-1.391 1.185-3.073-.307-4.449a12.001 12.001 0 00-1.045-.806 56.952 56.952 0 01-11.151-10.427 82.138 82.138 0 01-10.133-16.085c-3.025-6.214-6.077-12.512-9.632-18.379a97.642 97.642 0 00-23.625-26.01 18.564 18.564 0 00-10.343-4.255c-2.623-.211-5.26.18-7.707 1.144a17.215 17.215 0 00-6.412 4.417 27.436 27.436 0 01-6.523 5.074 35.298 35.298 0 00-4.182 3.1 1.711 1.711 0 00-.683 2.072c.976 1.056 2.44 1.029 3.763 1.39 2.468.584 3.401 2.364 2.314 4.671a8.601 8.601 0 01-1.394 2.002 14.01 14.01 0 01-5.157 3.42c-1.91.807-3.875 1.516-5.757 2.377a31.368 31.368 0 00-4.181 2.28 4.493 4.493 0 00-1.965 4.06 8.202 8.202 0 001.519 4.17 21.128 21.128 0 006.133 6.34c.67.54 1.313 1.116 1.923 1.724l.028-.028zm90.224-75.072a11.372 11.372 0 01-7.234-1.21 24.608 24.608 0 00-10.175-2.544 23.457 23.457 0 00-9.477 1.383 23.41 23.41 0 00-8.127 5.054 49.228 49.228 0 01-9.869 7.549c-4.084 2.308-7.43 5.394-8.725 10.19-.948 3.518-.53 6.618 2.272 9.148 1.589 1.39 3.22 2.78 4.836 4.17a95.33 95.33 0 0123.152 28.96c2.788 5.49 5.436 11.12 8.363 16.515a64.428 64.428 0 0016.462 20.228 10.161 10.161 0 006.383 2.502 5.362 5.362 0 005.576-3.406 57.13 57.13 0 005.032-22.452c0-3.517-.182-7.035-.349-10.552a91.71 91.71 0 00-2.551-17.503c-2.035-8.341-4.558-16.46-6.007-24.899a55.928 55.928 0 01.46-21.896c.739-3.309 1.77-6.548 2.523-9.856.203-1.283.301-2.58.292-3.88a3.235 3.235 0 00-3.805-.486 12.024 12.024 0 00-2.718 2.002 22.123 22.123 0 00-5.032 8.342c-.418.959-.933 1.89-1.282 2.71v-.069zM8.497 146.635a3.224 3.224 0 003.805 1.112c3.08-.903 6.133-1.876 9.186-2.863a324.307 324.307 0 0135.07-9.037 107.83 107.83 0 0122.816-2.683c.433 0 .879-.07 1.31-.097a1.138 1.138 0 00-.668-.292c-4.503-.89-9.047-1.641-13.507-2.697-7.206-1.724-14.384-3.629-21.563-5.492a6.88 6.88 0 00-4.585.445 25.52 25.52 0 00-9.479 6.951c-1.394 1.627-2.787 3.253-4.32 4.755a18.884 18.884 0 01-8.893 5.102c-2.314.556-4.6 1.279-6.886 1.974a2.778 2.778 0 00-2.286 2.892v-.07zm30.177-21.938c-.14-.111-.195-.194-.237-.18-.307 0-.613.111-.906.194a32.064 32.064 0 00-14.858 10.01 23.902 23.902 0 01-8.6 6.604c-.6.264-1.171.625-1.743.945a28.95 28.95 0 004.935-1.126 19.691 19.691 0 009.366-5.756c1.394-1.39 2.607-2.919 3.903-4.379a24.415 24.415 0 017.192-5.742c.307-.097.627-.291.948-.5v-.07zm-3.959-65.34l3.137 2.947c.501-2.155-.028-2.669-3.136-2.836v-.111z" fill="#868C96"/><path d="M101.077 131.676a17.189 17.189 0 01-8.461.946c-10.886-1.571-21.2-5.186-31.557-8.703a280.922 280.922 0 00-31.598-9.342c-6.245-1.391-12.545-2.253-18.887-3.351a9.071 9.071 0 01-2.565-.709c2.9.306 5.84.445 8.698.959 6.537 1.182 13.088 2.378 19.514 3.907 9.478 2.252 18.664 5.561 27.877 8.564 7.457 2.446 14.998 4.657 22.552 6.742a51.415 51.415 0 009.116 1.391 33.597 33.597 0 005.255-.348l.056-.056zm24.532-12.47c0 .987-.907 1.182-1.548 1.39a37.047 37.047 0 01-6.258 1.251 48.797 48.797 0 01-17.827-2.377 156.183 156.183 0 01-19.32-7.507c-9.24-4.171-18.454-8.341-27.681-12.512-.613-.278-1.17-.653-1.756-.987 3.15 1.237 6.342 2.405 9.45 3.74 9.409 4.059 18.761 8.23 28.184 12.234a88.878 88.878 0 0018.496 5.755 34.15 34.15 0 0015.862-.167c.85-.236 1.659-.597 2.481-.889l-.083.069zM36.388 71.633c19.598 18.823 42.861 31.641 67.992 41.4-25.521-9.147-48.757-22.035-67.992-41.4z" fill="#868C96"/><path d="M55.72 114.771c.767.236 1.576.389 2.315.695a214.891 214.891 0 0025.089 8.87 81.795 81.795 0 0014.789 2.627c7.46.7 14.987.027 22.204-1.988 1.393-.389 2.718-.917 4.181-1.251a6.61 6.61 0 01-.934.598 41.055 41.055 0 01-13.116 3.198c-1.993.152-4 .305-6.007.375a75.35 75.35 0 01-22.86-3.212 178.366 178.366 0 01-24.462-9.286c-.39-.181-.738-.445-1.115-.654l-.083.028zm45.357-19.644C98.86 92 96.56 88.941 94.442 85.743a217.761 217.761 0 00-15.444-21.395 68.147 68.147 0 00-16.95-14.89c-1.672-1-3.442-1.82-5.17-2.78a4.184 4.184 0 01-1.13-.806 21.64 21.64 0 015.994 2.502 63.75 63.75 0 0114.245 11.511A125.162 125.162 0 0189.243 76.79c3.791 5.561 7.457 11.192 11.151 16.808.274.48.507.982.696 1.502l-.013.027zm-2.203-76.434c1.283 4.254 2.426 8.55 3.903 12.748 2.899 8.272 5.882 16.53 9.032 24.718a334.148 334.148 0 0111.709 34.13c-.154-.403-.321-.778-.447-1.181-4.418-14.39-10.216-28.291-15.611-42.333a266.047 266.047 0 01-8.725-26.984c-.08-.357-.13-.72-.153-1.084l.292-.014zm-16.768 98.386c-12.22-4.236-24.448-8.476-36.686-12.721a169.453 169.453 0 00-24.239-6.242 7.401 7.401 0 01-2.55-.723c2.857.46 5.714.862 8.544 1.39 11.304 2.072 22.064 6.006 32.853 9.732 6.704 2.336 13.339 4.894 19.988 7.368.713.34 1.398.735 2.048 1.182l.042.014zm47.419-.459c2.356-2.655 3.164-5.964 3.777-9.286a58.277 58.277 0 001.157-12.916 97.215 97.215 0 00-1.686-15.667c-1.464-7.285-3.011-14.57-4.405-21.897.725 2.614 1.575 5.2 2.133 7.841 1.394 6.243 2.787 12.512 3.777 18.769a63.516 63.516 0 01.822 14.277 51.072 51.072 0 01-2.606 14.75c-.599 1.641-1.199 3.323-2.955 4.171l-.014-.042zm-8.307-12.484c-.711-.848-1.506-1.654-2.133-2.572a307.707 307.707 0 01-16.531-27.651c-4-7.466-8-14.945-11.304-22.758-.39-.918-.739-1.863-1.101-2.78.474.805 1.004 1.57 1.394 2.404a427.19 427.19 0 0025.716 47.268c1.297 2.057 2.621 4.17 3.931 6.158l.028-.069z" fill="#868C96"/><path d="M117.078 37.697c1.394 4.17 2.983 8.244 4.307 12.415a193.772 193.772 0 016.328 23.175c1.115 5.908 1.979 11.844 2.872 17.78.257 1.96.397 3.933.418 5.91a199.512 199.512 0 00-9.102-43.098c-1.394-4.42-2.788-8.828-4.182-13.262a29.349 29.349 0 01-.613-2.92h-.028zM27.12 139.517c6.76-2.544 30.873-6.075 39.403-5.686-6.593.82-13.2 1.543-19.764 2.503-6.566.959-13.103 2.113-19.64 3.183zm92.927-125.94a7.78 7.78 0 01.78 1.64c.405 2.225.837 4.449 1.06 6.687.571 5.672 1.031 11.372 1.561 17.044.083.876.251 1.724.292 2.6-2.188-8.995-2.913-18.212-4.265-27.332-.028-.11.223-.264.572-.64zM38.186 134.081c12.168-2.78 24.434-4.24 36.895-1.821a94.328 94.328 0 00-18.58-.236c-6.09.709-12.21 1.376-18.315 2.057zM87.5 94.363c.558.389 1.13.764 1.66 1.181 5.575 4.56 11.15 9.245 16.865 13.652a54.574 54.574 0 0015.332 8.648 27.035 27.035 0 01-8.586-3.601 124.687 124.687 0 01-17.27-12.679c-2.314-1.946-4.544-3.976-6.802-5.978a15.916 15.916 0 01-1.115-1.251l-.084.028zM51.944 74.246a9.062 9.062 0 01-1.394-.834 87.696 87.696 0 01-12.42-12.887 6.182 6.182 0 01-.543-1.015c1.17-.459 1.589.417 2.077.973 1.826 2.071 3.582 4.17 5.422 6.27 2.258 2.544 4.558 5.032 6.844 7.535l.014-.042zm49.23-27.471c-.277-.4-.529-.818-.753-1.25a136.312 136.312 0 01-8.837-26.93c-.418-2.001-.53-4.073-.78-6.103l.418-.11c.111.194.293.375.306.555A55.786 55.786 0 0094.93 29.26c1.77 5.421 3.834 10.746 5.771 16.112.167.473.293.96.446 1.39l.028.014zM71.931 63.083c-2.648-2.225-5.199-4.574-7.945-6.66a61.383 61.383 0 00-19.221-10.218c-.098 0-.153-.18-.502-.57 1.394.418 2.523.682 3.596 1.07a64.051 64.051 0 0120.448 12.513c1.324 1.154 2.495 2.46 3.736 3.712l-.112.153zM55.637 129.98c-8.753.946-17.228 1.224-25.911 3.309 2.815-1.988 16.238-3.615 25.911-3.309zm34.916-35.659a7.293 7.293 0 01-1.198-.82 8024.638 8024.638 0 01-20.03-19.964 9.395 9.395 0 01-1.004-1.501c7.248 7.173 14.487 14.351 21.716 21.534.21.228.396.474.558.737l-.042.014zm26.163-65.035c-.85-2.613-1.742-5.2-2.565-7.813-.822-2.613-1.394-4.921-2.146-7.396a13.897 13.897 0 01-.265-1.529l.515-.195a7.18 7.18 0 01.893 1.627 732.846 732.846 0 013.066 12.387c.223.973.321 1.974.474 2.961l.028-.042zm-53.803 82.83c-1.896-.626-3.777-1.293-5.687-1.891-5.743-1.793-11.485-3.559-17.214-5.352a3.165 3.165 0 01-1.394-.681c2.69.653 5.45 1.14 8.084 2.015 5.227 1.724 10.399 3.657 15.584 5.561.209.118.4.263.571.431l.056-.083zm9.799-18.476c-1.269-.681-2.579-1.293-3.791-2.058-4.647-2.993-9.293-6.01-13.939-9.05a10.969 10.969 0 01-1.52-1.39c1.005.653 1.98 1.39 2.984 1.946l15.332 9.732c.362.222.71.486 1.073.736l-.14.084zm2.299-52.94l-6.648-9.732s0-.236.07-.723a17.29 17.29 0 012.285 3.476 83.294 83.294 0 012.217 3.504 83.078 83.078 0 012.035 3.558l.041-.083zm10.622-1.863c-.767-1.39-1.59-2.78-2.286-4.254-.697-1.474-1.394-3.309-2.286-5.213a48.363 48.363 0 014.558 9.481l.014-.014zm7.262-8.411c-.683-1.64-1.394-3.253-2.021-4.935a34.672 34.672 0 01-1.268-5.213l3.247 10.19.042-.042zM63.303 67.142l-6.05-5.283a18.51 18.51 0 016.05 5.27v.013zm13.604 28.722c1.77.876 3.527 1.766 5.283 2.642l-5.269-2.628-.014-.014zM73.2 64.112l3.303 3.795-3.415-3.698.112-.097zm9.757 26.149l3.819 3.337-3.805-3.337h-.014z" fill="#868C96"/><path d="M72.81 93.529l4.097 2.335-4.181-2.196.083-.14zm18.83 2.001l2.3 1.808-2.272-1.821-.028.014zm11.445-44.306l-1.172-2.558 1.158 2.572.014-.014zm-18.609 48.38l2.635 1.098c-.879-.361-1.757-.737-2.621-1.098h-.014zm45.064 17.016l-1.088.848-.195-.306 1.27-.542h.013zm-28.394-69.845l.74 1.933-.74-1.933zM87.89 101.174l1.77.807-1.77-.807zM57.254 61.86l-1.547-1.043 1.561 1.042h-.014zm45.788-10.594l.697 1.918-.711-1.918h.014zM49.351 97.698c.613.265 1.227.53 1.84.808l-1.84-.808zm73.011 7.939l-1.144-1.501 1.13 1.501h.014zm-.043.028l.907.876-.237.181-.628-1.085-.042.028zm-21.242 26.053l1.018-.292v.167l-1.074.083.056.042zm-8.224-101.25l.363 1.126-.349-1.126h-.014zm-10.789 86.624c.419.112.824.209 1.242.307a37.964 37.964 0 00-1.228-.362l-.014.055zm34.623-87.764l.084.195v-.237l-.084.042zM49.394 97.657h-.628v-.194l.53.236.098-.041zm14.732 14.75c.32.153.655.292.99.446l-.977-.432-.013-.014z" fill="#868C96"/><path d="M62.885 112.115l1.242.293-1.27-.293h.028zm20.42 5.284l.196.125v-.293l-.224.209.028-.041zm.419-18.157l-.712-.39.712.404v-.014zm.794.362l-.795-.39.781.39h.014zm-2.328-1.099l.795.376c-.265-.14-.53-.264-.795-.39v.014zm3.903-59.001l-.46-.668c.14.237.279.473.432.696l.028-.028z" fill="#868C96"/><path d="M86.05 39.546c0 .098.099.195 0 .098v-.14.042zm17.689 13.637l.474.669-.432-.669h-.042zm.474.667l.111.363-.097-.404-.014.042zm.753 1.92l-.084.14s.084 0 .125.083v-.265l-.041.042zm-17.828 45.001l.781.404-.795-.404h.014zm6.077-69.177l.363.834-.335-.876-.028.042zm-27.332 81.69l-.726-.488.726.404v.084z" fill="#868C96"/><path d="M65.84 113.256l.223.125.07-.153h-.251l-.042.028zm-10.76 1.042l.655.473-.641-.473h-.014zM75.444 41.13l.293.696-.28-.71-.013.014zm18.134-8.702v.153l.167-.153h-.167zm-1.895 63.005l-.363-.404.349.404h.014zm-25.369-25.26v-.14l-.153.154h.14l.013-.014zM91.32 95.1l-.377-.39.377.39zm2.62 2.237l.084.084-.07-.098-.014.014zM63.68 67.573l.084.07-.042-.127-.042.056z" fill="#868C96"/><path d="M63.736 67.517l-.433-.376.405.39.028-.014zm-10.663 7.966l-.321-.376.363.335-.042.041zm.418 5.659l-.07-.084.07.084zm2.216-20.326l-.293-.46.28.53.013-.07zm69.943 58.362h.084l-.126.028.042-.028z" fill="#868C96"/><path d="M53.072 75.47v.139h.14l-.126-.126-.014-.014zm26.929 11.719l.321.306-.307-.306h-.014zm.043-.097l-.377-.362.39.376-.013-.014zm-.823-.626l.391.348-.419-.362.028.014z" fill="#868C96"/><path d="M79.25 86.424l-.392-.403.377.46.014-.056zm-1.534-17.405l-.363-.376.377.376h-.014zm-.766-.668l.362.376-.363-.376zm-4.907-5.381l.376.377-.111.111-.377-.376.112-.111zm4.948 5.354l-.488-.446c.167.153.32.307.488.446zm-.794-26.039a7.217 7.217 0 00-.433-.487l.433.487zm-.711-1.195c-.153-.126-.307-.265-.474-.39l.474.403v-.014z" fill="#868C96"/><path d="M72.712 63.82l-.404-.362.111-.112.39.376-.097.098z" fill="#868C96"/><path d="M72.81 63.722l.348.39h-.07l-.376-.363.098-.027zM90.944 94.71l-.39-.39.376.39h.014zM51.901 74.287l.335.418-.335-.432v.014zm14.413-4.101l.335.362-.363-.362h.028zm.739.696l-.377-.348.363.376.014-.028zm-14.761 3.822l.474.432-.474-.432zm35.236 19.631l-.376-.376.376.376zm-.78-.738l.39.446-.376-.39-.014-.056zM67.01 70.923l.377.362-.376-.376v.014zm15.556 18.949l.363.376-.377-.39.014.014zm.029 0a4.776 4.776 0 00-.363-.39l.377.39h-.014zM67.848 71.605l-.419-.349.419.377v-.028zM81.841 89.08l.35.417-.35-.404v-.014zm-.278-.39l.348.39-.335-.404-.013.014zM67.805 71.66l.46.417c-.153-.139-.32-.278-.474-.431l.014.014zm13.758 16.989l-.377-.376.377.376zm-.809-.724l.363.39-.363-.376v-.014z" fill="#868C96"/><path d="M80.322 87.494l.433.432-.46-.446.027.014z" fill="#868C96"/></svg>