<svg width="119" height="93" fill="none" xmlns="http://www.w3.org/2000/svg"><path opacity=".1" d="M37.5 92.5c-4.6 0-8.6-.9-12-2.7-3.2-2-5.9-4.5-8.1-7.5-2.2-3.2-3.8-6.9-4.8-11.1-.8-4.2-1.2-8.3-1.2-12.3 0-9.8 2.5-18.9 7.5-27.3 5.2-8.4 13.1-15.1 23.7-20.1l2.7 5.4c-5.8 2.6-10.9 6.5-15.3 11.7-4.2 5-6.6 10.3-7.2 15.9-.8 3.6-.8 7 0 10.2 4-4 9.2-6 15.6-6 6.2 0 11.4 1.9 15.6 5.7 4.2 3.8 6.3 9.2 6.3 16.2 0 6.4-2.2 11.7-6.6 15.9-4.2 4-9.6 6-16.2 6zm58.2 0c-4.6 0-8.6-.9-12-2.7-3.2-2-5.9-4.5-8.1-7.5-2.2-3.2-3.8-6.9-4.8-11.1-.8-4.2-1.2-8.3-1.2-12.3 0-9.8 2.5-18.9 7.5-27.3 5.2-8.4 13.1-15.1 23.7-20.1l2.7 5.4c-5.8 2.6-10.9 6.5-15.3 11.7-4.2 5-6.6 10.3-7.2 15.9-.8 3.6-.8 7 0 10.2 4-4 9.2-6 15.6-6 6.2 0 11.4 1.9 15.6 5.7 4.2 3.8 6.3 9.2 6.3 16.2 0 6.4-2.2 11.7-6.6 15.9-4.2 4-9.6 6-16.2 6z" fill="#fff"/><path opacity=".8" fill-rule="evenodd" clip-rule="evenodd" d="M15 80.667l-.03-.019a30.01 30.01 0 01-8.376-7.757l-.009-.012-.009-.013C4.3 69.555 2.653 65.739 1.628 61.433l-.006-.023-.004-.022C.808 57.13.4 52.967.4 48.9c0-9.98 2.549-19.256 7.641-27.811l.005-.008.004-.007C13.37 12.48 21.432 5.662 32.174.596l.884-.417 3.603 7.207-.952.426c-5.653 2.535-10.634 6.34-14.944 11.433-4.093 4.872-6.395 9.99-6.97 15.361l-.006.056-.012.055c-.63 2.83-.74 5.509-.348 8.047 4.01-3.389 9.024-5.064 14.971-5.064 6.423 0 11.87 1.976 16.271 5.958 4.458 4.033 6.63 9.731 6.63 16.942 0 6.657-2.301 12.224-6.91 16.623l-.001.001C39.978 81.426 34.319 83.5 27.5 83.5c-4.731 0-8.898-.926-12.467-2.816L15 80.667zm-1.359-36.763c3.879-3.47 8.799-5.204 14.76-5.204 6.2 0 11.4 1.9 15.6 5.7 4.2 3.8 6.3 9.2 6.3 16.2 0 6.4-2.2 11.7-6.6 15.9-4.2 4-9.6 6-16.2 6-4.6 0-8.6-.9-12-2.7-3.2-2-5.9-4.5-8.1-7.5-2.2-3.2-3.8-6.9-4.8-11.1-.8-4.2-1.2-8.3-1.2-12.3 0-9.8 2.5-18.9 7.5-27.3C14.1 13.2 22 6.5 32.6 1.5l2.7 5.4c-.305.136-.608.277-.909.42C28.967 9.913 24.17 13.673 20 18.6c-4.2 5-6.6 10.3-7.2 15.9-.705 3.172-.788 6.189-.251 9.05.072.386.156.77.251 1.15.275-.275.555-.54.841-.796zm59.56 36.763l-.03-.019a30.009 30.009 0 01-8.377-7.757l-.009-.012-.009-.013c-2.277-3.312-3.923-7.128-4.948-11.434l-.006-.023-.004-.022c-.81-4.257-1.218-8.42-1.218-12.487 0-9.98 2.549-19.256 7.641-27.811l.005-.008.004-.007C71.57 12.48 79.632 5.662 90.374.596l.884-.417 3.603 7.207-.952.426c-5.653 2.535-10.634 6.34-14.944 11.433-4.093 4.872-6.395 9.99-6.97 15.361l-.006.056-.012.055c-.63 2.83-.74 5.509-.348 8.047 4.01-3.389 9.024-5.064 14.971-5.064 6.423 0 11.87 1.976 16.271 5.958 4.458 4.033 6.629 9.731 6.629 16.942 0 6.657-2.3 12.224-6.909 16.623l-.001.001C98.178 81.426 92.519 83.5 85.7 83.5c-4.73 0-8.898-.926-12.468-2.816l-.031-.017zm-1.36-36.763c3.879-3.47 8.799-5.204 14.76-5.204 6.2 0 11.4 1.9 15.599 5.7 4.2 3.8 6.3 9.2 6.3 16.2 0 6.4-2.2 11.7-6.6 15.9-4.2 4-9.6 6-16.2 6-4.6 0-8.6-.9-12-2.7-3.2-2-5.9-4.5-8.1-7.5-2.2-3.2-3.8-6.9-4.8-11.1-.8-4.2-1.2-8.3-1.2-12.3 0-9.8 2.5-18.9 7.5-27.3 5.2-8.4 13.1-15.1 23.7-20.1l2.7 5.4c-.304.137-.607.277-.907.42C87.166 9.913 82.368 13.673 78.2 18.6c-4.2 5-6.6 10.3-7.2 15.9-.704 3.172-.788 6.189-.251 9.05.073.386.156.77.251 1.15.275-.275.555-.54.841-.796z" fill="#fff"/></svg>