<svg width="168" height="267" fill="none" xmlns="http://www.w3.org/2000/svg"><g opacity=".4" stroke="#fff" stroke-linecap="round" stroke-linejoin="round"><path d="M154.664 162.294c3.107 7.583 10.195 23.915 17.477 27.123 6.08 2.678 10.487 1.167 19.517 1.167 7.427 0 30.295 12.249 26.508-11.083-1.08-6.654-1.6-9.204-3.212-15.749m-60.29-1.458c.194.389 4.44-6.488-4.37-30.914-7.573-20.998-26.508-4.375-8.447 11.666 10.633 9.444 22.721 32.955 29.421 27.414 6.699-5.541 2.039-14.582-4.079-20.998-6.117-6.416 5.744-.639 13.983-12.832 6.699-9.916-13.691-10.208-17.187-.584-3.495 9.625 14.274 13.416 32.043 13.416 5.243 0 16.34 3.791 18.926 14.29m-60.29-1.458c-.097-.291-1.69-3.966-9.613-10.499-9.904-8.166-34.082-8.749-34.082-8.749s-12.758.7-18.351-11.666c-6.991-15.457-6.7-23.728-1.748-30.331 3.718-4.958 27.382-7.757 42.238 6.125 14.856 13.881 9.904 14.568-4.078 2.333-13.983-12.235-27.965-32.081-16.895-41.997 16.896-15.136 46.316 9.624 50.685 34.997 4.777 27.74-.583 33.269-6.7 11.979-8.884-30.92-.874-40.56 13.982-51.33 1.78-1.29 3.426-2.26 4.952-2.96m39.9 103.556c10.031 2.559 28.729-1.049 34.089-9.915 6.7-11.083-2.913-20.999-11.652-27.123-8.738-6.125-2.33-11.958-7.865-19.832-5.534-7.874-21.555-5.833-37.868 6.999-16.312 12.833-11.069 13.124 6.991.875 18.061-12.249 18.643-29.164 15.73-36.455-1.134-2.838-3.576-4.577-6.426-5.833m0 0c-5.042-2.222-11.359-2.933-13.965-5.541-2.435-2.438-5.45-6.954-10.486-8.02m24.451 13.561c4.666-3.305 10.504-7.583 8.756-17.499-1.6-9.082-11.36-11.374-18.642-10.207-7.283 1.167-12.217 4.083-1.166 4.083 11.052 0 32.955 1.253 32.625-11.957-.291-11.666-20.39-20.415-33.499-8.458-13.108 11.957-13.982 16.04-1.165 6.124 12.817-9.915 13.982-32.944-1.747-33.539-15.439-.583-20.974 15.458-20.1 23.04.874 7.583 3.787 9.624 3.787 1.167 0-11.269-5.826-20.707-13.108-18.957-7.283 1.75-3.496 6.125-9.904 6.416-6.409.292-9.613-3.208-13.4 4.083-3.787 7.291-1.748 17.79 10.778 21.29s17.478-1.458 3.787-1.458c-13.691 0-20.427 2.76-15.439 10.751 4.37 7 5.826 3.54 7.865 5.581 2.039 2.041.291 5.25 2.331 7.874 2.039 2.625 14.564 7.583 18.351-5.833 3.787-13.415-1.165-13.707-1.165-6.999 0 6.708-2.039 13.978.583 14.582 2.097.484 5.923-1.37 7.573-2.356m0 0c3.346-1.538 6.114-1.784 8.448-1.29m0 0c-.097-1.895-.991-6.328-3.787-8.894-1.02-.937-2.015-1.798-2.913-2.665m0 0c-2.18-2.104-3.787-5.113-3.787-8.418 0-4.666 8.156-5.25 8.448.292.291 5.541-4.661 8.126-4.661 8.126zM99.318 58.47c-.874-5.25-5.999-6.51-9.613-6.417-5.17.132-9.904 2.333-9.904 7 0 4.337 6.155 4.083 10.486 4.083 4.953 0 9.739-.41 9.03-4.667zM43.389 94.925c-.195 2.624-1.05 8.924-2.913 13.124-2.33 5.249-10.778 21.873-10.196 26.831.891 7.582 6.409 4.958 8.74 9.332 2.346 4.405-1.749 10.791-4.662 8.458-2.912-2.333-1.165-8.458 1.457-5.25 3.063 3.749 0 21.874-1.457 26.248-.792 2.38-5.243 8.836-5.243 12.249 0 3.792 4.37 7.291 6.7 5.25 2.33-2.042 2.913-6.416 1.456-6.416-1.165 0-.583 13.707 0 14.874.584 1.166 2.739 3.324 3.205 4.957.832 2.917-.584 7.292 0 8.458.583 1.167 3.379 3.791 4.078 6.125.874 2.916-1.212 6.773 1.456 9.915 4.952 5.833 30.004 2.042 34.956-6.707 6.107-10.791-2.913-11.374-2.913-8.166 0 2.041 15.844 10.265 12.816 21.29-3.204 11.665-19.808 19.248-44.859 30.331-26.798 11.855-43.112 18.665-44.568 32.664-2.266 21.773 4.369 28.581 15.438 50.746 9.06 18.139 15.73 39.469 20.1 49.579"/><path d="M53.294 221.79c.486-1.75 2.564-6.125 6.991-9.625 5.535-4.374 12.235-5.541 13.109-9.041.873-3.499.582-9.04 2.913-15.165 2.33-6.124 5.534-10.207 4.66-16.04-.874-5.833-8.739-12.249-9.03-18.957-.218-5.012 1.679-12.629 3.624-17.499m0 0c.658-1.647 1.322-2.98 1.91-3.791 2.331-3.208 6.7-13.416 2.331-14.291-3.495-.7-4.284 11.763-4.241 18.082zm0 20.999c.54-3.306 2.202-8.75 6.863-15.166 4.256-5.859 5.176-18.073 3.787-23.915-1.457-6.124-3.787-9.332-8.448-9.332-4.66 0-6.408 6.708-6.408 10.207 0 3.608 1.165 7-1.748 7.291-1.748.175-6.7-7.575-6.7-13.415 0-12.833 6.342-26.8 10.778-34.414 2.039-3.5 6.656-9.276 13.108-10.79 5.68-1.335 16.443-.853 18.061 6.707 1.747 8.166-3.205 20.998-13.109 24.79-12.39 4.743-11.069-3.792-20.682-6.708-3.912-1.187-8.739-12.832-1.165-20.415 4.226-4.232 10.199-5.97 17.478-7 6.99-.989 12.526 3.525 17.478 1.458 6.271-2.617 11.943-6.124 16.021-6.124 4.078 0 16.796 1.338 17.477-5.833.583-6.124-2.912-6.124-2.912-10.499 0-6.58.289-11.32-3.205-16.915-2.913-4.667-6.991-7-12.817-4.667-5.826 2.333-20.099 14-20.39 18.374-.292 4.375 5.534 5.541 9.904-3.5 4.369-9.04 7.269-27.052-5.535-29.456-13.982-2.625-18.934 18.665-18.352 29.748.583 11.082 4.952 16.915 6.7 2.041 1.775-15.106-9.826-27.636-17.769-27.997-6.408-.292-5.5 2.088-10.486 5.832-4.661 3.5-6.992 2.917-8.74 5.833-3.89 6.493 3.496 22.457 13.11 27.123 9.612 4.666 16.02 3.5 5.825-2.041-10.195-5.542-22.43-5.833-25.052-.584-2.621 5.25.874 6.044.874 10.791 0 4.666-5.608 4.68-6.117 10.79-.291 3.5 3.204 11.958 9.904 12.542 5.192.451 8.157-1.361 9.03-1.459"/></g></svg>