<svg width="367" height="923" fill="none" xmlns="http://www.w3.org/2000/svg"><path opacity=".5" d="M8.5 196c-14.499 23 17 31 40 41.5 15.167 8.167 45.2 31 44 57-1.5 32.5 56.5 22.5 76 23S261 340 305 330s39-37.5 51.5-55.5-3.5-41.5-21-47-89.5 10-109.5 10-51.5 13.5-73 0-59.5-41.5-85.5-67S23 173 8.5 196z" fill="#D2DFE6"/><circle opacity=".5" cx="216.501" cy="122.5" r="48.5" fill="#D2DFE6"/><path opacity=".5" d="M125.001 139.5c2.4 31.6 19.333 40.833 27.5 41.5 23.833-1.667 77.8-5.4 103-7 31.5-2 34.5 13 52.5 18 14.4 4 31.667-18.667 38.5-30.5 0-9.667-2-31.3-10-40.5-10-11.5-30-34-49-42.5s-16.5-5-32-27.5 7-17.5 21.5-21 35 45 59.5 60 12.5 42 16 66-10.5 52-37 57.5-39 0-56.5-11-89.5-10-115-10.5-36.5-11-59.5-36-10.5-46.5-5-69 23-35 39-44c12.8-7.2 47.333-3 63 0-8.5 3.833-29.4 13.2-45 20-19.5 8.5-14.5 37-11.5 76.5zm17 202.5c19.2.4 29 24.5 31.5 36.5-10.5 3.167-34.3 9.5-45.5 9.5-14 0-63.5-32.5-53.5-31.5s43.5-15 67.5-14.5zm50.5 145.5c-14 0-30.167 9.333-36.5 14 10.5 6.333 34.8 19.4 48 21 13.2 1.6 37.167-7.667 47.5-12.5-9.167-7.5-28.6-22.5-33-22.5h-26z" fill="#D2DFE6"/><path d="M194.851 368.009l-.494.079-.009-.055.004-.055.499.031zm-4.619 45.111l-.463-.19.463.19zm-3.923 49.174l.3.4-.3-.4zm11.982-12.437l.47-.17-.47.17zm1.178 8.681l-.074.495.074-.495zm21.455-3.682l.098.49-.098-.49zm5.325 13.212l.278.416-.278-.416zm-23.076 2.221l-.347-.36.347.36zm2.455 12.799l.208-.454-.208.454zm18.403 2.747l.248-.435-.248.435zm12.08 19.962l.131-.482-.131.482zm-20.63-5.83l.082-.494-.082.494zm-23.094 0l-.114-.487.114.487zm-18.166 4.296l-.103-.489.103.489zm-9.474 8.727a.501.501 0 01.472-.882l-.472.882zm-16.16-238.132l-.255.43.255-.43zm92.307 46.637l.213.453-.038.017-.04.012-.135-.482zm26.184-34.644l-.088-.493.088.493zm-110.059 11.548l.27-.421-.27.421zm-35.947-51.967l-.149-.477.519-.162.118.53-.488.109zM30.54 235.328l.325-.38-.325.38zm71.449-164.783l-.195-.46.195.46zm-76.33 40.863l.477.146-.478-.146zm228.549 150.126l-.133-.482.133.482zM381.131 92.753l.35.357-.35-.357zm-27.958-38.198l.151.477-.151-.477zM267.078 7.918l-.12-.485.12.485zM164.563 200.24l.084-.493-.084.493zm56.361-155.456l.284-.412-.284.412zm-34.615 13.769l-.251-.433.251.433zm-4.882 42.639l.483.131-.483-.131zm21.746 4.441l-.497-.058.497.058zm-7.829 262.297c1.873 11.73.935 31.774-4.65 45.38l-.925-.38c5.5-13.399 6.438-33.25 4.588-44.842l.987-.158zm-4.65 45.38c-2.947 7.18-7.951 14.937-12.182 21.805-2.122 3.444-4.049 6.664-5.445 9.496-1.405 2.848-2.235 5.232-2.235 7.023h-1c0-2.04.926-4.604 2.338-7.466 1.42-2.879 3.37-6.135 5.491-9.578 4.255-6.907 9.2-14.576 12.108-21.66l.925.38zm-19.862 38.324c0 10.2 10.231 13.972 15.176 10.26l.601.8c-5.706 4.283-16.777-.165-16.777-11.06h1zm15.176 10.26c1.45-1.088 3.027-2.144 4.537-3.173 1.515-1.033 2.962-2.038 4.179-3.039 1.221-1.003 2.174-1.974 2.73-2.927.547-.937.694-1.826.367-2.727l.94-.341c.453 1.248.212 2.448-.443 3.572-.646 1.107-1.708 2.167-2.959 3.196-1.256 1.032-2.738 2.061-4.251 3.092-1.521 1.037-3.073 2.077-4.499 3.147l-.601-.8zm11.813-11.866c-1.607-4.424-8.392-5.095-11.069.06l-.887-.461c3.025-5.827 10.953-5.288 12.896.06l-.94.341zm-11.069.06c-.321.619-.432 1.167-.4 1.655.033.488.212.951.526 1.395.639.906 1.814 1.705 3.303 2.388 2.964 1.362 6.91 2.151 9.362 2.518l-.148.989c-2.474-.37-6.534-1.176-9.631-2.598-1.542-.708-2.911-1.598-3.703-2.72-.402-.569-.659-1.205-.706-1.905-.047-.7.119-1.429.51-2.183l.887.461zm12.791 7.956c3.752.561 7.501-.035 11.109-.94 1.805-.453 3.56-.979 5.265-1.474 1.698-.492 3.346-.953 4.909-1.265l.196.981c-1.517.302-3.128.752-4.827 1.245-1.692.491-3.472 1.024-5.3 1.483-3.655.917-7.554 1.548-11.5.959l.148-.989zm21.283-3.679c2.094-.417 3.842.049 5.188 1.062 1.333 1.004 2.238 2.516 2.726 4.148.488 1.633.569 3.421.219 5.014-.348 1.59-1.137 3.031-2.432 3.895l-.555-.832c1.018-.679 1.699-1.856 2.011-3.277.31-1.418.241-3.034-.201-4.513-.443-1.481-1.246-2.791-2.369-3.636-1.11-.835-2.566-1.244-4.391-.88l-.196-.981zm5.701 14.119c-1.448.966-3.44 1.332-5.589 1.43-2.159.099-4.562-.071-6.877-.237-2.332-.167-4.568-.33-6.451-.235-1.909.096-3.311.455-4.09 1.207l-.694-.72c1.063-1.025 2.802-1.388 4.733-1.486 1.958-.099 4.262.071 6.573.237 2.328.167 4.67.331 6.761.235 2.101-.096 3.864-.453 5.079-1.263l.555.832zm-23.007 2.165c-3.814 3.676-2.093 9.967 2.316 11.985l-.417.909c-4.939-2.261-6.999-9.368-2.593-13.614l.694.72zm2.316 11.985c2.782 1.273 4.873.667 7.647.342 2.785-.326 6.026-.303 10.796 2.424l-.497.869c-4.55-2.603-7.568-2.606-10.183-2.299-2.626.307-5.077.993-8.18-.427l.417-.909zm18.443 2.766c2.795 1.599 9.986 6.216 16.432 10.619 3.225 2.203 6.272 4.358 8.497 6.062 1.11.85 2.026 1.595 2.658 2.182.314.291.572.556.751.784.088.113.169.232.226.353.052.109.118.29.077.496l-.98-.197c-.022.11.018.168-.001.129a.903.903 0 00-.11-.165 6.25 6.25 0 00-.643-.667c-.597-.554-1.483-1.277-2.586-2.121-2.204-1.687-5.234-3.831-8.453-6.03-6.442-4.4-13.605-8.998-16.365-10.576l.497-.869zm28.641 20.496c-.056.281-.251.465-.422.578a2.337 2.337 0 01-.617.269c-.455.136-1.061.228-1.752.29-1.388.125-3.218.137-5.098.082a89.376 89.376 0 01-5.457-.332c-1.612-.149-2.952-.329-3.594-.503l.262-.965c.546.148 1.801.322 3.424.473 1.607.149 3.533.272 5.395.327 1.865.055 3.649.042 4.979-.078.668-.06 1.196-.145 1.555-.252.181-.054.292-.106.351-.145.064-.042.012-.03-.006.059l.98.197zm-16.94.384c-1.7-.462-6.315-1.831-10.765-3.125a530.336 530.336 0 00-6.188-1.77c-1.784-.495-3.108-.839-3.628-.925l.164-.987c.585.098 1.969.459 3.731.948 1.776.493 3.971 1.125 6.2 1.773 4.465 1.299 9.06 2.662 10.748 3.121l-.262.965zm-20.581-5.82c-1.809-.301-6.243-.607-10.896-.684-4.663-.077-9.453.08-12.002.677l-.228-.973c2.686-.63 7.596-.78 12.247-.704 4.661.077 9.157.384 11.043.697l-.164.987zm-22.898-.007c-3.876.909-12.116 3.027-18.178 4.299l-.205-.978c6.05-1.27 14.239-3.376 18.155-4.294l.228.973zm-18.178 4.299c-2.963.622-6.003.855-8.347.816-1.171-.019-2.184-.107-2.936-.253a4.554 4.554 0 01-.963-.281c-.226-.102-.537-.282-.647-.613l.948-.317c-.033-.1-.084-.069.109.018.159.071.406.145.745.211.672.131 1.621.217 2.76.236 2.274.037 5.239-.19 8.126-.795l.205.978zm-12.893-.331a.613.613 0 01-.016-.315.877.877 0 01.063-.186c.046-.101.111-.206.182-.308a8.74 8.74 0 01.621-.765c.531-.601 1.31-1.4 2.274-2.329 1.931-1.862 4.626-4.269 7.62-6.694 2.992-2.424 6.291-4.874 9.428-6.817 3.122-1.933 6.137-3.398 8.548-3.798l.164.986c-2.208.367-5.082 1.741-8.185 3.663-3.089 1.912-6.353 4.334-9.326 6.743-2.972 2.408-5.646 4.796-7.555 6.637-.955.921-1.713 1.699-2.22 2.271a7.832 7.832 0 00-.547.673 1.122 1.122 0 00-.094.153c-.005.011.001 0 .006-.026a.383.383 0 00-.015-.205l-.948.317zm28.72-21.212c4.661-.774 7.837-.555 10.067.253 2.253.817 3.492 2.217 4.308 3.679l-.874.487c-.724-1.299-1.794-2.508-3.775-3.226-2.004-.726-4.986-.967-9.562-.207l-.164-.986zm14.375 3.932c.428.769.729 1.977 1.005 3.327.287 1.401.545 2.937.894 4.56.344 1.601.76 3.198 1.331 4.596.572 1.403 1.284 2.566 2.198 3.336l-.645.764c-1.088-.917-1.877-2.247-2.479-3.722-.603-1.479-1.034-3.142-1.382-4.764-.344-1.598-.625-3.246-.896-4.569-.282-1.374-.559-2.429-.9-3.041l.874-.487zm5.428 15.819c1.925 1.624 5.236 3.134 8.798 4.279 3.552 1.142 7.28 1.898 9.997 2.048l-.055.999c-2.825-.157-6.64-.935-10.248-2.095-3.597-1.156-7.06-2.714-9.137-4.467l.645-.764zm18.795 6.327c1.376.077 3.099.115 4.93.158 1.828.043 3.76.091 5.539.188 1.775.096 3.42.241 4.667.483.622.12 1.171.269 1.595.461.4.181.812.453.959.892l-.948.318c-.007-.022-.077-.142-.422-.299-.322-.145-.783-.276-1.374-.39-1.177-.229-2.765-.371-4.531-.467-1.762-.095-3.679-.143-5.508-.186-1.825-.043-3.566-.082-4.962-.159l.055-.999zm17.69 2.182a.836.836 0 01-.007.517 1.613 1.613 0 01-.202.402c-.167.25-.419.526-.728.818-.622.588-1.55 1.307-2.713 2.105-2.333 1.598-5.668 3.547-9.55 5.436-7.75 3.77-17.763 7.339-26.379 7.339v-1c8.389 0 18.237-3.49 25.942-7.238 3.845-1.871 7.136-3.796 9.421-5.362 1.145-.785 2.024-1.471 2.593-2.007.286-.271.476-.487.582-.646a.614.614 0 00.08-.148c.007-.021-.013.025.013.102l.948-.318zm-39.579 16.617c-7.645 0-16.085-2.666-23.635-5.871-7.557-3.207-14.279-6.981-18.477-9.225l.472-.882c4.218 2.256 10.891 6.001 18.396 9.187 7.512 3.188 15.802 5.791 23.244 5.791v1zm-12.507-160.108c.643-10.499-.885-27.763-7.571-45.363-6.684-17.595-18.512-35.495-38.449-47.327l.51-.86c20.181 11.976 32.132 30.085 38.874 47.832 6.74 17.741 8.285 35.148 7.634 45.78l-.998-.062zm-46.02-92.69c-12.445-7.385-26.512-10.255-39.296-10-12.794.256-24.251 3.64-31.487 8.703-3.617 2.531-6.146 5.458-7.291 8.591-1.139 3.114-.929 6.479 1.021 9.958 1.96 3.495 5.685 7.12 11.6 10.68 5.91 3.557 13.979 7.033 24.581 10.246l-.29.957c-10.654-3.228-18.804-6.733-24.807-10.347-5.999-3.61-9.881-7.346-11.956-11.047-2.084-3.718-2.333-7.386-1.088-10.791 1.238-3.386 3.935-6.462 7.657-9.066 7.441-5.208 19.109-8.625 32.04-8.884 12.94-.258 27.197 2.646 39.826 10.14l-.51.86zm-40.872 38.178c42.485 12.873 69.056 16.633 88.366 16.246 19.304-.387 31.369-4.915 44.934-8.699l.269.964c-13.506 3.767-25.72 8.344-45.183 8.735-19.457.39-46.141-3.401-88.676-16.289l.29-.957zm133.222 7.577c17.178-8.073 39.039-19.464 48.923-27.442 2.48-2.001 4.138-3.736 4.811-5.105.333-.677.392-1.197.27-1.594-.12-.388-.448-.772-1.148-1.103-1.432-.677-4.145-1-8.501-.785-4.329.214-10.196.954-17.871 2.329l-.176-.985c7.694-1.378 13.608-2.126 17.997-2.343 4.361-.215 7.3.087 8.978.88.856.405 1.447.968 1.676 1.712.227.735.065 1.532-.328 2.33-.778 1.582-2.592 3.434-5.08 5.443-9.992 8.064-31.961 19.502-49.126 27.568l-.425-.905zm26.484-33.7c-38.413 6.882-58.745 14.303-73.167 17.76-7.203 1.727-12.942 2.465-18.682 1.605-5.742-.861-11.436-3.315-18.568-7.888l.54-.842c7.068 4.532 12.627 6.908 18.176 7.741 5.552.832 11.144.127 18.3-1.588 14.296-3.427 34.791-10.886 73.225-17.773l.176.985zM156.749 298.82c-22.873-14.665-33.634-40.953-36.165-52.279l.976-.218c2.498 11.178 13.158 37.183 35.729 51.655l-.54.842zm-35.528-51.911c-9.515 2.976-25.46 5.984-42.416 5.353-16.952-.632-34.98-4.904-48.59-16.554l.65-.76c13.372 11.446 31.143 15.687 47.977 16.314 16.83.627 32.662-2.361 42.081-5.307l.298.954zm-91.007-11.201c-8.488-7.266-16.07-17.342-21.407-27.759C3.475 197.54.355 186.732.862 178.002c.253-4.37 1.418-8.249 3.7-11.29 2.287-3.048 5.667-5.213 10.271-6.2 9.17-1.966 23.223.735 43.437 10.406l-.431.902c-20.171-9.65-33.966-12.223-42.796-10.33-4.396.942-7.555 2.989-9.682 5.823-2.132 2.841-3.255 6.513-3.501 10.747-.492 8.482 2.546 19.105 7.837 29.433 5.286 10.319 12.793 20.286 21.168 27.455l-.65.76zm28.056-64.79c40.436 19.345 62.526 42.401 68.974 57.215 1.613 3.705 2.269 6.945 1.944 9.507-.329 2.593-1.671 4.491-3.988 5.399-2.275.891-5.414.798-9.314-.361-3.912-1.163-8.649-3.415-14.165-6.928l.537-.844c5.467 3.483 10.119 5.686 13.913 6.813 3.805 1.131 6.688 1.163 8.664.389 1.934-.758 3.071-2.316 3.361-4.594.293-2.311-.292-5.359-1.869-8.982-6.311-14.5-28.155-37.415-68.488-56.712l.431-.902zm43.451 64.832c-11.11-7.076-20.092-20.678-26.466-35.844-6.38-15.179-10.18-32.003-10.877-45.612-.348-6.802.078-12.829 1.362-17.457 1.28-4.609 3.448-7.95 6.68-9.159 3.242-1.212 7.334-.201 12.26 3.356 4.94 3.567 10.82 9.763 17.713 19.164l-.807.591c-6.866-9.365-12.675-15.466-17.49-18.944-4.83-3.487-8.555-4.266-11.326-3.23-2.779 1.039-4.816 3.986-6.066 8.49-1.245 4.484-1.672 10.393-1.327 17.138.69 13.485 4.462 30.195 10.8 45.275 6.343 15.093 15.223 28.473 26.081 35.388l-.537.844zm.672-85.552c27.499 37.51 51.084 60.989 72.58 73.931 21.473 12.928 40.866 15.344 60.035 10.713l.235.972c-19.441 4.697-39.101 2.227-60.786-10.828-21.662-13.042-45.34-36.644-72.871-74.197l.807-.591zm132.615 84.644c4.715-1.139 10.163-4.439 16.165-9.351 5.993-4.903 12.492-11.374 19.309-18.796 13.636-14.847 28.486-33.44 43.032-50.804 14.53-17.345 28.762-33.471 41.122-43.313 6.177-4.918 11.934-8.308 17.065-9.468 5.172-1.17 9.72-.073 13.352 3.966l-.743.668c-3.358-3.733-7.52-4.76-12.388-3.659-4.91 1.111-10.524 4.387-16.663 9.275-12.27 9.77-26.44 25.818-40.978 43.173-14.523 17.336-29.406 35.969-43.063 50.839-6.83 7.437-13.366 13.947-19.411 18.893-6.036 4.939-11.627 8.356-16.564 9.549l-.235-.972zm150.045-127.766c7.097 7.892 9.59 17.413 9.177 27.926-.412 10.499-3.722 22.01-8.249 33.935-4.527 11.924-10.293 24.314-15.632 36.548-5.345 12.247-10.268 24.346-13.141 35.739l-.97-.244c2.895-11.48 7.847-23.644 13.194-35.895 5.354-12.265 11.099-24.609 15.614-36.503 4.515-11.893 7.779-23.284 8.185-33.619.405-10.32-2.039-19.565-8.921-27.219l.743-.668zm-27.845 134.148c-2.879 11.415-5.411 22.964-8.527 33.771-3.118 10.814-6.836 20.939-12.113 29.544-5.28 8.612-12.126 15.707-21.495 20.449-9.366 4.741-21.218 7.11-36.482 6.334l.051-.999c15.135.77 26.804-1.583 35.98-6.227 9.172-4.643 15.89-11.593 21.094-20.079 5.208-8.493 8.896-18.519 12.004-29.299 3.111-10.788 5.628-22.279 8.518-33.738l.97.244zm-78.617 90.098c-15.25-.776-31.796-4.115-46.578-8.823-14.776-4.706-27.831-10.794-36.078-17.09-4.118-3.144-7.086-6.377-8.439-9.56-.679-1.598-.955-3.195-.753-4.762.203-1.568.881-3.072 2.059-4.491 2.342-2.822 6.67-5.317 13.27-7.386 6.613-2.074 15.568-3.737 27.237-4.849l.095.995c-11.631 1.109-20.511 2.763-27.033 4.808-6.535 2.049-10.642 4.471-12.8 7.071-1.072 1.292-1.661 2.624-1.836 3.981-.176 1.358.058 2.776.682 4.242 1.253 2.949 4.061 6.053 8.125 9.156 8.118 6.198 21.052 12.243 35.774 16.932 14.715 4.687 31.176 8.006 46.326 8.777l-.051.999zm-49.282-56.961c46.644-4.446 87.967-6.106 118.747-10.38 15.382-2.136 28.072-4.919 37.431-9.006 9.357-4.087 15.302-9.439 17.352-16.674l.962.272c-2.166 7.645-8.425 13.174-17.914 17.318-9.488 4.144-22.289 6.941-37.694 9.08-30.796 4.276-72.239 5.948-118.789 10.385l-.095-.995zm173.53-36.06c1.056-3.726 2.347-7.951 3.705-12.403 1.358-4.454 2.784-9.138 4.11-13.789 2.656-9.314 4.903-18.459 5.426-25.343.262-3.449.085-6.27-.647-8.247-.364-.982-.857-1.734-1.48-2.257-.619-.52-1.394-.838-2.37-.91-1.98-.148-4.775.718-8.595 2.996-3.803 2.269-8.554 5.896-14.422 11.16l-.668-.745c5.891-5.284 10.696-8.958 14.578-11.274 3.865-2.305 6.884-3.306 9.182-3.135 1.164.087 2.144.475 2.938 1.142.789.663 1.368 1.577 1.774 2.676.809 2.183.972 5.178.707 8.669-.531 6.996-2.805 16.229-5.461 25.542-1.329 4.661-2.757 9.354-4.115 13.807-1.359 4.455-2.647 8.669-3.7 12.383l-.962-.272zm-14.273-48.793c-23.557 21.129-50.453 38.262-73.201 47.725-11.371 4.73-21.734 7.557-30.142 7.991-8.394.434-14.964-1.515-18.551-6.495l.812-.584c3.291 4.57 9.425 6.507 17.687 6.081 8.248-.427 18.492-3.208 29.81-7.916 22.629-9.414 49.432-26.481 72.917-47.547l.668.745zm-121.894 49.221c-6.903-9.583-16.924-27.297-21.16-44.812-2.118-8.759-2.8-17.509-.887-25.181 1.918-7.693 6.441-14.282 14.673-18.683l.471.881c-7.966 4.26-12.319 10.607-14.173 18.044-1.86 7.456-1.21 16.029.888 24.704 4.196 17.351 14.145 34.947 21 44.463l-.812.584zm-7.374-88.676c8.143-4.354 15.687-6.763 21.917-7.661 6.207-.894 11.185-.299 14.132 1.454 1.487.883 2.487 2.082 2.817 3.554.328 1.467-.031 3.111-1.069 4.849-2.065 3.457-6.915 7.452-15.148 11.572l-.448-.894c8.187-4.097 12.823-7.985 14.738-11.191.952-1.593 1.207-2.975.951-4.117-.255-1.138-1.037-2.132-2.352-2.914-2.655-1.579-7.357-2.205-13.479-1.323-6.099.879-13.532 3.245-21.588 7.552l-.471-.881zm22.649 13.768c-32.832 16.43-89.043 40.136-139.457-3.622l.655-.756c49.882 43.297 105.505 19.922 138.354 3.484l.448.894zm-139.457-3.622c-25.075-21.765-48.291-43.331-63.077-61.355-7.388-9.007-12.704-17.168-15.077-24.056-2.378-6.898-1.835-12.647 2.71-16.612l.657.753c-4.11 3.586-4.732 8.83-2.422 15.534 2.314 6.715 7.538 14.765 14.906 23.747 14.726 17.952 37.885 39.47 62.958 61.233l-.655.756zM67.045 58.176c4.437-3.871 11.044-5.945 17.853-6.679 6.82-.735 13.915-.135 19.391 1.41 2.736.773 5.093 1.789 6.813 3.013 1.713 1.22 2.86 2.696 3.014 4.399.155 1.712-.709 3.483-2.627 5.25-1.919 1.77-4.953 3.594-9.305 5.436l-.39-.92c4.303-1.822 7.218-3.593 9.017-5.25 1.801-1.66 2.425-3.148 2.309-4.426-.117-1.288-.998-2.536-2.598-3.674-1.593-1.134-3.832-2.11-6.505-2.865-5.342-1.508-12.308-2.101-19.011-1.379-6.712.724-13.086 2.758-17.303 6.438l-.658-.753zm-40.909 53.378c-2.937 9.581.04 22.451 6.878 36.409 6.825 13.932 17.446 28.843 29.629 42.449 12.182 13.605 25.908 25.887 38.93 34.569 13.048 8.699 25.296 13.72 34.547 12.958l.082.997c-9.61.792-22.103-4.403-35.183-13.123-13.106-8.738-26.895-21.079-39.121-34.734-12.226-13.654-22.906-28.641-29.783-42.677-6.864-14.01-9.989-27.179-6.935-37.141l.956.293zM136.12 237.939c18.812-1.551 24.002-5.069 28.322-6.15 1.099-.275 2.143-.39 3.322-.264 1.173.125 2.456.488 4.035 1.141 3.145 1.3 7.561 3.791 14.762 8.005l-.505.863c-7.222-4.226-11.571-6.676-14.639-7.944-1.527-.631-2.713-.959-3.759-1.071-1.04-.111-1.964-.012-2.974.24-4.112 1.03-9.572 4.618-28.482 6.177l-.082-.997zm50.441 2.732c14.42 8.437 26.586 14.838 37.517 18.477 10.92 3.636 20.578 4.504 29.997 1.904l.266.964c-9.664 2.668-19.532 1.759-30.579-1.919-11.037-3.674-23.279-10.122-37.706-18.563l.505-.863zm67.514 20.381c4.666-1.289 8.502-3.918 12.223-7.276 3.744-3.379 7.29-7.412 11.482-11.563 8.351-8.267 18.98-16.682 37.588-19.814l.166.986c-18.334 3.086-28.785 11.357-37.05 19.539-4.115 4.074-7.761 8.206-11.516 11.595-3.779 3.41-7.751 6.15-12.627 7.497l-.266-.964zm61.293-38.653c9.268-1.56 18.381-2.006 26.636-2.484 8.276-.48 15.663-.992 21.557-2.668 5.876-1.67 10.188-4.474 12.42-9.487 2.247-5.046 2.436-12.436-.218-23.393l.972-.235c2.672 11.029 2.542 18.685.16 24.035-2.397 5.383-7.024 8.326-13.061 10.042-6.019 1.711-13.521 2.226-21.772 2.704-8.272.48-17.325.923-26.528 2.472l-.166-.986zm60.395-38.032c-1.33-5.492-2.662-10.636-3.924-15.488-1.262-4.851-2.455-9.411-3.505-13.727-2.098-8.628-3.63-16.307-4-23.43-.371-7.13.421-13.712 2.976-20.146 2.554-6.432 6.858-12.687 13.471-19.18l.7.714c-6.537 6.419-10.75 12.561-13.242 18.835-2.49 6.272-3.272 12.706-2.906 19.725.365 7.027 1.878 14.632 3.973 23.246 1.047 4.306 2.238 8.857 3.5 13.711 1.263 4.852 2.597 10.004 3.929 15.505l-.972.235zm5.018-91.971c9.591-9.418 9.56-20.913 3.772-28.971-5.799-8.072-17.437-12.775-31.229-8.393l-.303-.953c14.167-4.502 26.271.308 32.344 8.762 6.083 8.468 6.052 20.513-3.884 30.269l-.7-.714zm-27.457-37.364c-18.465 5.866-32.514-2.376-44.233-10.944-5.887-4.305-11.141-8.653-16.143-11.453-4.985-2.79-9.578-3.958-14.138-2.048l-.387-.922c4.981-2.087 9.924-.752 15.013 2.097 5.073 2.84 10.434 7.27 16.245 11.518 11.679 8.54 25.367 16.51 43.34 10.798l.303.953zM278.81 30.587c-4.565 1.913-6.496 5.608-6.649 9.718-.154 4.14 1.503 8.694 4.136 12.172 2.641 3.488 6.177 5.788 9.724 5.632 3.509-.155 7.266-2.732 10.335-9.534l.911.412c-3.143 6.967-7.153 9.942-11.202 10.12-4.011.177-7.826-2.408-10.565-6.027-2.748-3.629-4.503-8.403-4.338-12.812.165-4.44 2.285-8.518 7.261-10.603l.387.922zm17.546 17.988c3.103-6.877 5.807-13.592 7.37-19.609 1.567-6.03 1.966-11.281.547-15.273-1.399-3.936-4.599-6.739-10.486-7.83-5.921-1.098-14.519-.452-26.589 2.54l-.24-.97c12.116-3.004 20.881-3.69 27.012-2.553 6.165 1.143 9.704 4.142 11.245 8.478 1.522 4.281 1.061 9.774-.521 15.86-1.585 6.1-4.317 12.877-7.427 19.769l-.911-.412zM267.198 8.404c-35.885 8.896-56.065 3.324-71.589-1.688-7.763-2.506-14.266-4.833-20.994-5.174-6.691-.338-13.629 1.293-22.208 6.797l-.54-.842c8.729-5.6 15.87-7.304 22.799-6.953 6.891.348 13.547 2.734 21.25 5.22 15.409 4.975 35.392 10.507 71.042 1.669l.24.97zm-114.791-.065c-8.657 5.554-16.103 10.004-22.147 13.759-6.058 3.764-10.694 6.824-13.79 9.62-3.101 2.803-4.556 5.251-4.46 7.786.096 2.558 1.773 5.383 5.416 8.918l-.696.718c-3.68-3.571-5.608-6.632-5.72-9.598-.112-2.99 1.623-5.704 4.79-8.565 3.172-2.866 7.884-5.97 13.933-9.728 6.063-3.768 13.484-8.202 22.134-13.752l.54.842zm-34.981 40.083c3.571 3.466 10.019 6.38 17.13 8.5 7.094 2.113 14.764 3.41 20.711 3.685 2.978.138 5.494.018 7.28-.37.895-.193 1.573-.448 2.03-.746.452-.294.645-.6.683-.904.04-.319-.073-.765-.511-1.367-.436-.597-1.157-1.298-2.223-2.1-2.132-1.605-5.562-3.559-10.598-5.885l.419-.908c5.06 2.337 8.564 4.326 10.78 5.993 1.107.834 1.913 1.602 2.43 2.312.514.706.78 1.407.695 2.08-.087.688-.522 1.221-1.128 1.617-.601.392-1.412.68-2.365.886-1.91.414-4.525.53-7.538.39-6.036-.279-13.787-1.591-20.95-3.725-7.145-2.129-13.789-5.1-17.541-8.74l.696-.718zm-15.242 22.583c-1.037.44-2.078.86-3.12 1.264l-.362-.932c1.034-.4 2.065-.818 3.092-1.253l.39.921zm-3.12 1.264c-8.477 3.285-16.638 5.227-24.26 6.837-7.635 1.612-14.697 2.885-21.045 4.835-6.337 1.946-11.916 4.554-16.57 8.808-4.65 4.251-8.407 10.175-11.053 18.805l-.956-.293c2.688-8.767 6.53-14.857 11.335-19.25 4.802-4.39 10.534-7.055 16.95-9.026 6.406-1.967 13.54-3.254 21.133-4.858 7.606-1.606 15.704-3.535 24.104-6.79l.362.932zm52.864-23.034c-10.096-4.664-18.641-8.352-25.735-10.568-7.11-2.221-12.676-2.933-16.855-1.74-4.12 1.176-6.987 4.235-8.644 9.84-1.666 5.635-2.088 13.783-1.312 25.002l-.998.069c-.778-11.249-.367-19.543 1.35-25.354 1.727-5.838 4.796-9.224 9.33-10.519 4.474-1.277 10.28-.485 17.427 1.747 7.163 2.237 15.759 5.951 25.856 10.615l-.419.908zm-52.556 22.67c-3.904 18.832-5.31 47.827 3.136 73.597 8.436 25.74 26.689 48.241 62.139 54.245l-.167.986c-35.892-6.078-54.396-28.906-62.922-54.919-8.517-25.984-7.093-55.166-3.165-74.112l.98.203zm65.275 127.842c44.571 7.547 78.88 8.42 101.689 2.617 11.399-2.9 19.881-7.456 25.348-13.636 5.455-6.167 7.949-13.997 7.292-23.543l.997-.068c.674 9.775-1.883 17.879-7.54 24.274-5.646 6.381-14.337 11.013-25.851 13.943-23.018 5.856-57.496 4.952-102.102-2.601l.167-.986zm134.329-34.562c-1.333-19.34-1.223-35.134-.166-47.491 1.056-12.348 3.059-21.294 5.532-26.92l.915.403c-2.408 5.479-4.399 14.299-5.451 26.602-1.051 12.295-1.163 28.036.167 47.338l-.997.068zm5.366-74.41c2.386-5.426 3.16-15.79-.72-24.448-1.933-4.314-5.015-8.19-9.618-10.83-4.603-2.639-10.767-4.062-18.897-3.402l-.081-.997c8.289-.673 14.663.772 19.476 3.532 4.813 2.76 8.027 6.813 10.033 11.288 3.998 8.923 3.219 19.581.722 25.26l-.915-.403zm-29.235-38.68c-8.201.665-14.431 1.432-19.491 1.994-5.052.562-8.958.923-12.47.763-7.077-.322-12.498-2.757-22.506-9.657l.568-.823c9.963 6.87 15.193 9.172 21.984 9.481 3.422.156 7.255-.195 12.313-.758 5.05-.56 11.301-1.33 19.521-1.997l.081.997zm-54.467-6.9c-4.1-2.827-7.178-3.94-9.735-3.947-2.541-.007-4.66 1.078-6.854 2.865-2.219 1.808-4.419 4.245-7.199 6.922-2.759 2.655-6.029 5.48-10.293 7.95l-.501-.865c4.168-2.415 7.372-5.18 10.1-7.806 2.706-2.604 5.003-5.137 7.262-6.976 2.283-1.86 4.622-3.098 7.488-3.09 2.849.008 6.127 1.247 10.3 4.124l-.568.823zm-34.081 13.79c-4.71 2.73-9.447 4.06-13.871 5.068-4.45 1.014-8.515 1.691-12.02 3.108-3.468 1.403-6.338 3.515-8.357 7.378-2.031 3.886-3.224 9.589-3.224 18.214h-1c0-8.697 1.199-14.585 3.338-18.677 2.151-4.116 5.228-6.37 8.868-7.842 3.604-1.457 7.808-2.161 12.173-3.156 4.391-1 9.012-2.305 13.592-4.958l.501.865zm-37.472 33.768c0 17.187 7.934 36.723 20.337 50.184 12.397 13.455 29.164 20.759 46.878 13.754l.368.93c-18.232 7.209-35.415-.367-47.981-14.006-12.56-13.632-20.602-33.405-20.602-50.862h1zm67.215 63.938c17.939-7.093 33.268-16.584 41.788-27.192 4.255-5.298 6.791-10.849 7.137-16.501.345-5.644-1.49-11.448-6.086-17.27l.785-.62c4.724 5.984 6.661 12.025 6.299 17.951-.362 5.916-3.013 11.659-7.356 17.067-8.677 10.804-24.191 20.375-42.199 27.495l-.368-.93zm42.839-60.963c-9.238-11.704-26.664-22.093-43.448-26.504-8.387-2.204-16.572-2.905-23.464-1.558-6.88 1.345-12.447 4.722-15.688 10.669l-.878-.479c3.416-6.267 9.276-9.784 16.375-11.171 7.087-1.386 15.433-.656 23.91 1.572 16.944 4.453 34.577 14.94 43.978 26.851l-.785.62zm-82.6-17.393c-6.611 12.13-9.911 28.342-7.823 41.489 1.044 6.569 3.426 12.334 7.37 16.451 3.933 4.105 9.457 6.612 16.878 6.612v1c-7.669 0-13.462-2.601-17.6-6.921-4.127-4.308-6.571-10.285-7.635-16.985-2.128-13.392 1.229-29.826 7.932-42.125l.878.479zm16.425 64.552c7.564 0 14.944.194 21.74.028 6.792-.166 12.94-.693 18.009-2.119 5.066-1.425 9.003-3.733 11.444-7.428 2.442-3.696 3.442-8.862 2.453-16.119l.991-.135c1.008 7.4.011 12.838-2.609 16.805-2.621 3.967-6.81 6.377-12.008 7.84-5.193 1.461-11.443 1.989-18.256 2.156-6.809.166-14.24-.028-21.764-.028v-1zm53.646-25.638c-1.991-14.616-5.752-24.277-10.88-30.279-5.107-5.977-11.614-8.374-19.246-8.374v-1c7.87 0 14.676 2.487 20.006 8.725 5.309 6.212 9.108 16.095 11.111 30.793l-.991.135zm-30.126-38.653c-8.476 0-15.497-.119-21.223 2.642-5.67 2.735-10.156 8.35-13.353 20.085l-.965-.263c3.237-11.88 7.849-17.812 13.884-20.722 5.978-2.883 13.27-2.742 21.657-2.742v1zm-34.576 22.727c-1.328 4.873-2.206 9.166-2.446 12.858-.239 3.694.163 6.747 1.357 9.164 2.36 4.775 7.962 7.327 18.791 7.106l.021.999c-10.916.223-17.075-2.333-19.708-7.662-1.302-2.635-1.704-5.884-1.458-9.671.245-3.79 1.143-8.157 2.478-13.057l.965.263zm17.702 29.128c5.452-.112 10.756-.111 15.53-.368 4.776-.256 8.961-.767 12.164-1.881 3.197-1.112 5.332-2.792 6.165-5.339.843-2.577.404-6.18-1.907-11.248l.91-.415c2.348 5.148 2.908 9.04 1.948 11.974-.97 2.963-3.439 4.808-6.788 5.973-3.343 1.162-7.645 1.678-12.438 1.935-4.796.257-10.142.258-15.563.368l-.021-.999zm31.952-18.836c-4.619-10.127-11.272-15.178-16.864-15.924-2.787-.372-5.317.32-7.257 1.98-1.943 1.664-3.341 4.341-3.774 8.021l-.993-.117c.455-3.871 1.942-6.801 4.117-8.663 2.179-1.865 5.002-2.617 8.04-2.212 6.058.808 12.941 6.196 17.641 16.5l-.91.415zm-27.895-5.923c-1.395 11.867 4.943 19.155 8.209 21.287l-.547.837c-3.539-2.31-10.1-9.946-8.655-22.241l.993.117z" fill="#868C96"/><path d="M120.185 326.825s-15.089 6.663-30.178 8.883c-14.207 2.091-27.07 0-27.07 0s2.04 10.127 15.532 11.549c16.864 1.776 35.638-11.53 61.243-7.995 25.739 3.553 30.769 24.28 33.727 34.644-4.733-7.402-18.106-22.208-33.727-22.208-15.622 0-23.077 2.665-35.947 6.218-12.196 3.368-30.621 2.665-30.621 2.665s31.021 17.767 47.041 17.767c19.527 0 32.223-7.518 40.828-4.442 12.426 4.442 12.426 12.437 12.426 12.437s-17.751 9.327-37.278 9.327c-21.408 0-63.017-26.205-63.017-26.205s-6.157 35.615 5.325 52.41c23.077 33.757 34.056 53.724 41.716 84.391 11.982 47.969 61.243 80.393 86.095 80.393 19.576 0 39.787-9.174 63.017-32.424 23.077-23.096 29.734-48.857 12.426-31.091-22.067 22.652-72.781 74.619-66.568 128.806 4.971 43.35 16.272 85.871 21.302 106.599-.888-10.068-10.333-67.068 25.296-73.731 84.448-15.791 117.603-55.964 117.603-55.964s9.852 77.55-37.722 108.819c-47.573 31.269-98.076 35.977-98.076 35.977s6.287-21.53 30.621-42.195c29.29-24.873 77.663-46.637 77.663-46.637s-37.784 2.09-66.568 23.985c-11.095 8.439-68.964 73.001-59.024 111.928 10.207 39.975 7.544 75.063 2.219 101.269" stroke="#868C96" stroke-linecap="round" stroke-linejoin="round"/></svg>