<svg width="103" height="80" fill="none" xmlns="http://www.w3.org/2000/svg"><g opacity=".9" fill="#868C96"><path opacity=".9" d="M46.526 46.54l.814-2.222-3.835-2.714a10.874 10.874 0 00-3.599-1.635 24.641 24.641 0 01-2.817-1.16c-1.14-.442-2.296-.818-3.444-1.243a5.571 5.571 0 01-.578-.302v-.22c.336-.062.68-.062 1.017 0 1.074.31 2.125.698 3.143 1.16A43.632 43.632 0 0041.3 40.05a18.03 18.03 0 013.257 1.83c1.09.687 2.133 1.456 3.2 2.2l2.052-.744c.163-1.08.293-2.19.496-3.27a20.15 20.15 0 012.028-5.656 26.758 26.758 0 002.443-7.446c.065-.3.199-.579.39-.817a2.46 2.46 0 01.09 1.945 24.439 24.439 0 01-2.312 6.204 20.57 20.57 0 00-2.174 5.272 11.83 11.83 0 00-.245 3.964c1.328.163 2.297.989 3.306 2.207.22-.957.4-1.635.53-2.297a67.57 67.57 0 0118.44-34.794 36.091 36.091 0 018.965-6.719A14.928 14.928 0 0187.231.058a5.737 5.737 0 013.324.522 5.766 5.766 0 012.465 2.297 16.045 16.045 0 011.743 5.1c.516 2.861.805 5.758.863 8.665a23.129 23.129 0 01-1.467 9.032 23.062 23.062 0 01-4.852 7.748c-1.913 2.076-3.868 4.087-5.846 6.204a9.296 9.296 0 003.46 0 28.51 28.51 0 016.058-.695c.85.007 1.696.083 2.533.229a5.81 5.81 0 013.599 2.174c2.443 3.18 4.136 6.686 3.859 10.822a13.104 13.104 0 01-2.752 7.16 26.48 26.48 0 01-8.696 7.454 17.527 17.527 0 01-6.514 1.79c-2.058.27-4.145.22-6.188-.147a9.752 9.752 0 01-4.161-1.822.681.681 0 00-.489-.115l.44.973c.431.852.668 1.79.692 2.746-.04 1.43-.88 1.986-2.174 1.357a10.876 10.876 0 01-1.873-1.226c-1.148-.907-2.263-1.864-3.387-2.795-.252-.205-.521-.4-.814-.605l-.163.13c.163.262.325.532.505.818 1.27 1.855 2.605 3.67 3.794 5.574.561.935.986 1.945 1.262 3 .61 2.24-.953 3.964-3.208 3.466a45.13 45.13 0 00-6.872-.703 14.377 14.377 0 01-3.11-.515 26.904 26.904 0 01-8.542-4.005 168.255 168.255 0 00-3.917-2.763 7.441 7.441 0 00-2.834-1.087c-3.257-.63-6.033-2.95-6.229-6.809-.114-2.386.456-4.454 2.443-5.983a.742.742 0 00.285-.515l-1.115.278a21.614 21.614 0 01-8.745.867 16.793 16.793 0 01-2.785-.54 95.41 95.41 0 01-5.211-1.782 21.269 21.269 0 01-8.428-5.942c-1.889-2.109-3.754-4.242-5.496-6.465a38.144 38.144 0 00-6.026-6.22 10.705 10.705 0 01-1.864-1.88 3.843 3.843 0 01.114-4.83 3.991 3.991 0 013.07-1.358 26.63 26.63 0 017.328.924 71.468 71.468 0 0111.863 3.972 212.56 212.56 0 0119.217 9.449c1.1.613 2.15 1.316 3.216 1.97l.92.564zm11.4.924c.187-.27.326-.457.44-.654.765-1.283 1.506-2.59 2.296-3.857a21.603 21.603 0 015.17-5.984 39.335 39.335 0 006.514-6.473 4.694 4.694 0 001.173-3.27c-.082-1.43-.953-2.026-2.264-1.52-.285.115-.562.245-.814.368a1.866 1.866 0 01-2.182-.261 1.237 1.237 0 00-1.76 0 10.064 10.064 0 00-1.676 1.757c-1.173 1.635-2.28 3.392-3.388 5.108a20.91 20.91 0 00-3.2 6.8 38.748 38.748 0 01-1.848 6.67v.27l1.539 1.046zm2.67 3.27c.35-.278.644-.507.92-.744a30.778 30.778 0 017.687-4.765c1.93-.818 3.884-1.635 5.822-2.452 1.938-.818 3.95-1.635 5.863-2.6a8.979 8.979 0 003.949-4.397 1.385 1.385 0 00.09-1.463c-.326.057-.676.106-1.018.188-.844.254-1.7.464-2.565.63a23.092 23.092 0 00-9.584 3.457 37.034 37.034 0 01-4.12 2.223 40.143 40.143 0 00-7.532 4.65 5.068 5.068 0 00-1.685 2.453l2.174 2.82zm19.966 1.496c1.743.057 3.33.147 4.886.155 3.363 0 6.725-.188 10.064.4.871.15 1.754.219 2.638.205A1.753 1.753 0 00100 52c.107-.228.165-.475.169-.727.066-.772.066-1.549 0-2.321a3.052 3.052 0 00-1.002-1.998 3.03 3.03 0 00-2.092-.773c-2.37.213-4.739.319-7.108.482-.746.021-1.49.1-2.223.237-2.915.638-5.814 1.325-8.713 2.003a2.106 2.106 0 00-.496.261c1.017.785 2.296 1.308 2.01 3.057l.017.009zM51.25 50.546l.098-.22c-1.067-.753-2.11-1.554-3.257-2.249a55.725 55.725 0 00-8.957-4.438c-2.264-.899-4.568-1.692-6.897-2.452a3.846 3.846 0 00-2.785-.09 1.334 1.334 0 00-.983.83 1.345 1.345 0 00.17 1.279c.222.341.413.702.57 1.079.488 1.635 1.766 2.452 3.207 3.212a23.189 23.189 0 005.195 1.708c1.936.5 3.93.743 5.928.72 2.18-.09 4.363.046 6.514.408l1.197.213zm47.048-4.79a1.854 1.854 0 00-.676-1.749 13.157 13.157 0 00-3.664-2.558 4.683 4.683 0 00-2.858-.54c-1.274.16-2.536.403-3.779.728-5.137 1.463-9.966 3.743-14.86 5.844-.04 0-.04.106-.106.286l1.083.147c1.082.04 2.156.205 3.2.49a4.633 4.633 0 003.062.058l1.075-.303a55.174 55.174 0 0114.135-2.125c1.075-.016 2.182-.188 3.355-.286l.033.008zM87.874 27.594c-.61.254-1.075.434-1.539.646-2.1.956-4.177 1.97-6.294 2.885-3.86 1.635-7.85 3.025-11.57 5.027a17.731 17.731 0 00-7.638 7.275c-.22.408-.424.817-.635 1.234a1.51 1.51 0 00.765-.294c1.197-.769 2.361-1.635 3.607-2.297 3.119-1.733 6.27-3.409 9.421-5.084a18.126 18.126 0 015.26-1.831c1.629-.319 3.257-.76 4.934-1.169 1.939-.482 2.989-1.929 3.779-3.604a3.231 3.231 0 00-.09-2.788zm.651-20.597c-.3.237-.627.474-.928.727-1.237 1.022-2.442 2.126-3.705 3.05A53.58 53.58 0 0072.867 21.48a2.311 2.311 0 00-.252.457c.656.053 1.308.143 1.954.27.766.18.814 1.014 1.14 1.635.21-.146.412-.304.603-.474 2.833-2.828 6.237-4.953 9.299-7.487a60.957 60.957 0 013.183-2.387A4.028 4.028 0 0090.22 8.91a2.979 2.979 0 00-1.694-1.913zm1.344 6.065c-.814.596-1.694 1.218-2.549 1.88-1.807 1.39-3.55 2.86-5.406 4.176a49.03 49.03 0 00-5.7 4.741 2.765 2.765 0 00-.725 1.283 13.409 13.409 0 01-1.75 4.439 3.62 3.62 0 00-.188.392 10.71 10.71 0 001.694-1.169c1.392-1.022 2.768-2.076 4.226-3.008 1.311-.817 2.736-1.512 4.071-2.305a57.279 57.279 0 005.09-3.196 6.453 6.453 0 002.01-2.47 6.48 6.48 0 00.587-3.137c-.049-.997-.326-1.316-1.36-1.626zM67.705 35.948l.122.172 1.555-.752c1.686-.818 3.355-1.635 5.073-2.37 2.085-.892 4.243-1.636 6.327-2.526 2.215-.949 4.38-2.011 6.514-3.05a3.256 3.256 0 002.117-2.312c.18-.965.275-1.945.285-2.927a1.394 1.394 0 00-.887-1.405 3.85 3.85 0 00-.538.237c-3.257 1.896-6.644 3.71-9.86 5.721a47.906 47.906 0 00-5.472 4.25c-1.792 1.594-3.485 3.31-5.236 4.962zm11.758 18.055l1.083.434c.92.35 1.84.702 2.76 1.038 2.199.817 4.397 1.634 6.596 2.378 1.376.482 2.776.891 4.144 1.39a1.623 1.623 0 001.629-.172 6.866 6.866 0 002.907-4.16c.095-.448.163-.901.203-1.357-6.14-1.104-12.214-1.006-18.272-.924l-1.05 1.373zM68.389 23.107c.83-.3 1.678-.544 2.54-.727a2.632 2.632 0 001.808-1.153 51.028 51.028 0 0110.585-10.421c1.507-1.095 2.9-2.354 4.332-3.564a6.83 6.83 0 00.741-.817 1.268 1.268 0 00-1.09-.965 11.494 11.494 0 00-2.444-.188 5.738 5.738 0 00-4.185 1.807c-1.018 1.185-2.182 2.256-3.127 3.498-2.93 3.874-5.797 7.814-8.68 11.73-.162.187-.285.432-.504.8h.024zm.537 30.953c.53.423 1.034.879 1.507 1.365a48.225 48.225 0 006.628 5.877c1.441 1.136 2.841 2.313 4.275 3.458.343.271.714.504 1.107.694.969.483 2.003.238 3.013.254a3.855 3.855 0 003.493-1.635l-.733-.637a39.595 39.595 0 00-4.706-3.22c-2.59-1.554-5.081-3.27-7.622-4.905a3.015 3.015 0 00-1.09-.507c-1.93-.27-3.844-.49-5.92-.744h.048zm-13.345.221c-.359.082-.692.14-1.018.229a4.986 4.986 0 00-2.817 2.223c-1.4 2.085-2.044 4.283-1.19 6.768.4.817 1.014 1.51 1.776 2.006a5.002 5.002 0 002.548.806 2.96 2.96 0 00.595-.14c1.376-.44 2.011-1.544 2.443-2.795a9.294 9.294 0 000-6.538 3.654 3.654 0 00-1.19-1.733l-1.147-.826zm5.814-1.855c1.913.212 3.631.343 5.333.605 1.702.261 3.452.67 5.187.948a7.95 7.95 0 002.328 0 3.463 3.463 0 001.507-.736c.398-.37.751-.787 1.05-1.242a1.736 1.736 0 00.057-2.403 4.118 4.118 0 00-1.791-1.087 22.587 22.587 0 00-4.438-.499 17.559 17.559 0 00-9.356 3.008c-.13.111-.248.238-.35.376l.473 1.03zm-31.203 4.038v.286c.342.188.676.416 1.034.572a8.115 8.115 0 004.886.49 56.392 56.392 0 006.807-1.7 86.025 86.025 0 019.014-2.06 28.646 28.646 0 012.874-.343 8.822 8.822 0 01-.814-.907 3.043 3.043 0 00-3.306-1.25c-2.711.408-5.463.67-8.142 1.299-3.852.915-7.646 2.092-11.457 3.171-.321.115-.63.263-.92.442h.024zm51.494 8.99c-1.287-1.062-2.443-2.1-3.64-2.983a54.715 54.715 0 01-7.491-6.44 9.081 9.081 0 00-5.822-2.829 7.486 7.486 0 00-2.549.05c.758.555 1.385.956 1.946 1.438a46.32 46.32 0 017.801 8.173c.45.595.973 1.13 1.555 1.594 1.694 1.439 3.778 1.562 5.855 1.635a3.76 3.76 0 002.32-.662l.025.024zm-.97-59.2c-.813-.369-1.237-.491-1.766-.303-2.296.817-4.52 1.7-6.042 3.76a37.08 37.08 0 00-4.193 7.102c-.766 1.741-1.572 3.474-2.337 5.215a130.408 130.408 0 00-1.45 3.482c-.122.303-.187.63-.293.99.163 0 .253 0 .277-.066 1.368-1.766 3.013-3.27 4.307-5.141 3.363-4.831 6.637-9.743 10.79-13.97.262-.341.49-.708.683-1.094l.025.024zm8.958 57.811c2.776-.548 4.714-2.305 4.665-4.25a2.353 2.353 0 00-.415-.254 139.452 139.452 0 01-14.534-5.353l-3.355.817c.195.155.342.278.497.384 4.226 3.032 8.956 5.24 13.028 8.615a.558.558 0 00.049.025l.065.016zM25.03 43.345c-1.034-.204-2.052-.466-3.086-.605-1.743-.245-3.493-.417-5.244-.621-1.278-.155-2.548-.343-3.827-.466-1.278-.123-1.571.4-1.124 1.52a5.73 5.73 0 001.567 2.362 5.693 5.693 0 002.505 1.316c1.38.341 2.79.55 4.21.622 2.776.106 5.56.049 8.346.065h1.351a11.47 11.47 0 01-4.763-4.218l.065.025zm13.72 6.809v-.172c-.35-.098-.692-.213-1.042-.303-1.84-.44-3.68-.89-5.529-1.307a13.314 13.314 0 00-2.687-.466c-3.632-.066-7.263-.057-10.895-.066a7.51 7.51 0 00-1.132.197c.096.33.221.65.375.956 1.49 2.24 3.51 3.654 6.245 3.572a34.881 34.881 0 004.886-.695c2.394-.409 4.78-.89 7.182-1.332.895-.164 1.783-.262 2.597-.384zM25.03 53.16a3.92 3.92 0 001.694 2.302 3.896 3.896 0 002.8.535c1.246-.327 2.492-.654 3.714-1.055a78.484 78.484 0 0113.345-3.155c1.523-.212 3.054-.384 4.584-.58a6.788 6.788 0 00-1.71-.49 43.132 43.132 0 00-8.02-.352c-2.545.042-5.08.327-7.572.85-2.582.531-5.18 1.03-7.76 1.553a8.634 8.634 0 00-1.059.384l-.016.008zm14.518-9.808l.122-.147c-.358-.196-.7-.417-1.058-.597-4.47-2.157-8.957-4.356-13.411-6.457A72.497 72.497 0 0011.09 31.2c-.814-.188-1.588-.376-2.394-.49a1.453 1.453 0 00-1.03.238 1.463 1.463 0 00-.599.873c-.105.605.204 1.046.978 1.349.265.09.537.159.814.204.627.13 1.27.229 1.897.368 1.588.351 3.16.768 4.755 1.079a34.654 34.654 0 0111.18 3.89c.925.508 1.88.958 2.858 1.35.472.186.96.331 1.458.432 1.278.336 2.58.58 3.827.998 1.604.539 3.159 1.217 4.73 1.83l-.016.033zM7.98 33.635c-1.026 1.21-.87 1.978.342 2.452 1.368.506 2.728 1.038 4.12 1.446 3.347.973 6.718 1.88 10.073 2.804.814.213 1.571.384 2.37.58.928-1.357 2.222-.94 3.403-.817-6.18-4.095-13.272-5.207-20.291-6.498l-.017.033zm50.948 25.51v1.479c-.06.648.123 1.295.513 1.814.382.602.72 1.23 1.01 1.88.358.807.766 1.59 1.221 2.346 1.303 1.872 2.696 3.686 4.072 5.525l2.825 3.858c1.287.164 1.906-.326 1.881-1.577a3.648 3.648 0 00-.31-1.48 16.55 16.55 0 00-1.335-2.296 61.243 61.243 0 00-9.877-11.55zM92.94 40.492a1.697 1.697 0 00-1.678-.817c-.977.057-1.954.213-2.923.319a37.73 37.73 0 01-3.933.408 11.144 11.144 0 00-4.356.818c-2.158.907-4.307 1.839-6.465 2.738a57.15 57.15 0 00-9.242 4.495c-.326.213-.643.458-.985.695.098.082.13.123.147.123.226-.06.45-.134.667-.22 1.83-.826 3.79-1.32 5.79-1.464a13.151 13.151 0 004.07-1.128c.343-.13.677-.302 1.027-.45 2.622-1.111 5.22-2.272 7.865-3.318a28.56 28.56 0 017.426-2.052c.815-.098 1.62-.09 2.59-.139v-.008zM68.063 76.13c-.374-.564-.74-1.169-1.164-1.74-1.1-1.48-2.231-2.927-3.322-4.406a24.193 24.193 0 01-3.615-6.024 3.376 3.376 0 00-1.116-1.635 7.511 7.511 0 01-.399 1.635c-.562 1.079-.171 2.01.228 3.016a267.138 267.138 0 013.175 8.288 1.743 1.743 0 001.035 1.16 8.471 8.471 0 003.9.515 1.25 1.25 0 001.278-.809zM58.61 35.727l.269.115c.09-.14.187-.262.276-.4 1.067-1.701 2.142-3.401 3.2-5.11a12.27 12.27 0 00.88-1.634c1.18-2.747 2.312-5.526 3.51-8.264 1.196-2.738 2.263-5.77 3.997-8.37a1.38 1.38 0 000-.367c-.277.302-.464.498-.635.703a68.84 68.84 0 00-8.794 13.012 13.045 13.045 0 00-1.148 2.828c-.545 2.501-1.01 5.002-1.53 7.487h-.025zM40.582 61.981c.88-.417 1.694-.818 2.54-1.186 2.15-.907 4.324-1.773 6.515-2.68a2.49 2.49 0 001.09-.695 8.789 8.789 0 012.965-3.13.81.81 0 00-.432-.058c-2.573.58-5.162 1.128-7.719 1.766a11.506 11.506 0 00-4.03 1.634 3.797 3.797 0 00-1.588 3.05 1.205 1.205 0 00.684 1.299h-.025zM24.631 41.334a2.158 2.158 0 00-.375-.204c-1.425-.425-2.85-.818-4.283-1.25-3.387-.933-6.864-1.57-10.153-2.837a2.634 2.634 0 00-1.01 0c-.15.812.007 1.65.439 2.353a3.315 3.315 0 001.898 1.448c1.856.36 3.737.596 5.61.866 2.21.327 4.416.64 6.62.94.415.066.814.082 1.254.115v-1.43zM61.549 75.59a9.607 9.607 0 00-.268-1.128 520.365 520.365 0 00-2.59-6.85c-.22-.588-.52-1.144-.814-1.822-.814 1.283-1.629 2.296-3.16 2.648.318 1.937.636 3.833.953 5.77 1.808 1.12 3.575 2.142 5.88 1.382zm-11.4-17.247c-.178 0-.284-.049-.358 0-2.744 1.186-5.488 2.363-8.215 3.556-.287.11-.537.297-.725.54a2.705 2.705 0 00.293 3.457c1.042.924 1.995.817 3.135-.22 1.547-1.44 3.11-2.845 4.666-4.276.22-.204.513-.408.602-.67.301-.768.456-1.585.66-2.403l-.057.017zm4.3 10.046c-1.897-.098-2.37-1.93-3.778-2.755-.668 1.324-1.352 2.583-1.938 3.875a1.451 1.451 0 00.48 1.749 10.969 10.969 0 005.383 2.73c.219.028.44.028.66 0-.22-1.921-.481-3.72-.75-5.6h-.057zm-10.83-1.57c.929 2.003 2.704 3.27 4.283 3.115 1.27-1.308 1.515-3.27 2.598-4.537l-1.091-3.972a67.568 67.568 0 00-5.733 5.395h-.057zm12.385-21.888h.236c1.783-4.782 2.003-9.899 3.013-14.868-.217.24-.39.517-.513.817-.497 1.267-.969 2.542-1.466 3.81a17.043 17.043 0 00-1.286 7.584c.13.907.073 1.782.073 2.657h-.057zm38.368-26.099c-.057-.596-.065-1.193-.643-1.463a1.322 1.322 0 00-1.58.335c-.291.279-.517.62-.66.997a1.436 1.436 0 00.815 1.84 1.436 1.436 0 001.824-.875 5.3 5.3 0 00.3-.834h-.056zM3.68 34.714a1.373 1.373 0 001.196-1.017c.048-.18.06-.368.034-.553a1.46 1.46 0 00-.817-1.427 1.446 1.446 0 00-.56-.142c-.385.051-.735.25-.978.554a1.516 1.516 0 00-.324 1.08 1.435 1.435 0 00.879 1.396c.18.075.375.112.57.109zM92.947 7.25a2.64 2.64 0 00-1.352-2.525.893.893 0 00-1.107.22 1.786 1.786 0 00-.301 1.104c.1.32.293.605.553.817.274.305.589.57.937.785.236.147.602.302.814.212.212-.09.358-.49.456-.613zm1.31 4.39c0-.9-.57-1.635-1.188-1.635a1.629 1.629 0 00-1.23 1.635c.007.373.15.73.402 1.005.252.274.596.446.966.482.595-.008 1.059-.67 1.05-1.487zM55.67 40.99h-.179c-.325 1.53-.643 3.058-.977 4.652l1.156.425V40.99zm-41.462 7.104c-.325.457-.358.883 0 1.193.36.341.777.617 1.23.818.138.057.53-.164.635-.36a.82.82 0 000-.744c-.505-.482-.985-1.07-1.864-.907zM88.77 2.134a.908.908 0 00-.922.537.918.918 0 00-.08.37.868.868 0 00.863.817.957.957 0 00.952-.51.967.967 0 00.107-.364.82.82 0 00-.568-.82.81.81 0 00-.352-.03zm2.907 23.335c.814-.384 1.221-.874 1.172-1.504 0-.506-.464-.923-.757-.67a3.64 3.64 0 00-.814 1.218.632.632 0 00.399.956zM4.389 35.596a1.329 1.329 0 00.39 1.635.74.74 0 001.083 0c.212-1.21-.228-1.724-1.506-1.635h.033zm4.25 5.174c-.586.76-.586 1.308-.04 1.741a1.064 1.064 0 00.895.155.594.594 0 00.341-.708.597.597 0 00-.137-.248 7.722 7.722 0 00-1.075-.94h.016zm10.105 11.59c0-.482-.147-.817-.538-.817-.227 0-.464.22-.708.352.293.71.651.833 1.213.465h.033z"/><path opacity=".9" d="M78.461 38.825l.97-.817c.626.31.594.662.252 1.005-.342.343-.733.433-1.222-.188zm14.722 9.056c1.213.327 1.783 1.047 1.628 1.954-.08.417-.244.817-.749.817a.812.812 0 01-.952-.736c-.147-.637-.505-1.348.073-2.035zm-2.272-4.266c-.667.719-1.237.678-2.304-.18.09-.711.236-.858.896-.907.806-.033 1.14.27 1.408 1.087zm-9.234-11.313c.733-.351 1.328-1.12 2.24-.465a1.05 1.05 0 01-.318 1.365 1.738 1.738 0 01-1.628.171c-.302-.171-.326-.278-.294-1.07zm3.486-20.434l1.343.385a.893.893 0 01-.09 1.217 4.069 4.069 0 01-1.327.867.81.81 0 01-.934-.503.821.821 0 01-.05-.38c.048-.654.162-1.308 1.058-1.586zm-.92 9.04a.818.818 0 01.097-1.3 1.3 1.3 0 011.629-.244c.22 1.365-.26 1.839-1.726 1.544zm-.017 6.695a8.055 8.055 0 01-1.09-.205.757.757 0 01-.612-.617.763.763 0 01.367-.789 4.272 4.272 0 012.744-.89c.431 0 .814.138.969.588a1.067 1.067 0 01-.375 1.275 3.248 3.248 0 01-2.003.638zm9.006 26.711c.61.817-.106 1.3-.415 1.839-.489.163-.97.22-1.173-.278a1.387 1.387 0 010-1.038c.31-.597.847-.711 1.588-.523zM80.961 10.307c-.578-.31-.537-.744-.203-1.177a2.445 2.445 0 012.223-.98.764.764 0 01.814.645.73.73 0 01-.595.818c-.749.253-1.49.49-2.239.694zm2.426 52.613a7.33 7.33 0 01-1.172.254.731.731 0 01-.741-.703.82.82 0 01.74-.817c.62-.107 1.027.27 1.173 1.267zm-7.995-.694c1.001 1.022 1.001 1.022.969 1.635a1.185 1.185 0 01-1.71-.368c-.245-.532-.025-.94.74-1.267zm-2.02-50.488a1.788 1.788 0 01.202-1.273c.223-.384.58-.67 1.004-.803a.576.576 0 01.585.533.582.582 0 01-.048.284 1.879 1.879 0 01-1.743 1.259zm14.234 47.709c.7-.229 1.229-.139 1.465.466a1.066 1.066 0 01-.163.907.812.812 0 01-.814.057 1.135 1.135 0 01-.488-1.43zM21.838 46.271c-1.962.441-2.158.327-2.443-1.43.497-.687.815-.818 1.385-.507a1.64 1.64 0 011.059 1.937zm4.087 3.769a2.04 2.04 0 011.792-.238.922.922 0 01.537.72 1.03 1.03 0 01-.619.661c-.586.205-1.408-.367-1.71-1.144zm5.497 2.843c1.107-.523 1.547-.294 2.125 1.08-.35.555-.814.31-1.23.13-.415-.18-1.025-.417-.895-1.21zM12.059 33.136a1.04 1.04 0 01-.082-.351c.034-.13.08-.256.139-.376a1.623 1.623 0 011.889.556c-.456.661-.782.686-1.946.171zm1.026 2.754c1.295-.212 1.726 0 2.24.875a1.744 1.744 0 01-2.24-.874zM65.4 70.301a1.224 1.224 0 01-.584-1.046 1.23 1.23 0 01.585-1.046c.586 0 .676.474.692.932.016.457-.09 1.005-.692 1.16zm-3.786 2.551c.473-.499.896-.818 1.499-.4-.342.93-.66 1.029-1.498.4zM43 59.766c-.57-.973-.415-1.316.538-1.333.228.572-.106.908-.537 1.333zM16.88 40.517a2.701 2.701 0 01-2.443-.417c.765-.956 1.612-.81 2.442.417zm42.031 31.215c-.676.817-1.523.605-2.109-.499.513-.515 1.303-.327 2.11.499zM43.53 62.577c.896.172.896.172 1.295 1.006-.188.474-.522.433-.888.229a.855.855 0 01-.523-.888.861.861 0 01.116-.347zm7.328 7.283a1.964 1.964 0 011.979.817c0 .483-.22.679-.627.646a1.749 1.749 0 01-1.352-1.463zm-4.486-2.714c.7-.613 1.058-.506 1.327.385-.521.253-.985.351-1.327-.385z"/></g></svg>