<svg width="103" height="80" fill="none" xmlns="http://www.w3.org/2000/svg"><g opacity=".9" fill="#868C96"><path opacity=".9" d="M56.474 46.54l-.814-2.222 3.835-2.714c1.09-.76 2.31-1.315 3.599-1.635a24.641 24.641 0 002.817-1.16c1.14-.442 2.296-.818 3.444-1.243.199-.09.392-.19.578-.302v-.22a2.862 2.862 0 00-1.017 0 23.328 23.328 0 00-3.144 1.16 43.632 43.632 0 01-4.07 1.847 18.03 18.03 0 00-3.258 1.83c-1.09.687-2.133 1.456-3.2 2.2l-2.052-.744c-.163-1.08-.293-2.19-.496-3.27a20.15 20.15 0 00-2.028-5.656 26.758 26.758 0 01-2.443-7.446 1.98 1.98 0 00-.39-.817 2.46 2.46 0 00-.09 1.945 24.439 24.439 0 002.312 6.204 20.57 20.57 0 012.174 5.272 11.83 11.83 0 01.245 3.964c-1.328.163-2.297.989-3.306 2.207-.22-.957-.4-1.635-.53-2.297A67.57 67.57 0 0030.199 8.648a36.091 36.091 0 00-8.965-6.719A14.928 14.928 0 0015.769.058a5.737 5.737 0 00-3.324.522A5.766 5.766 0 009.98 2.877a16.045 16.045 0 00-1.743 5.1 54.884 54.884 0 00-.863 8.665 23.129 23.129 0 001.466 9.032 23.062 23.062 0 004.853 7.748c1.913 2.076 3.868 4.087 5.846 6.204a9.296 9.296 0 01-3.46 0 28.51 28.51 0 00-6.059-.695c-.848.007-1.695.083-2.532.229a5.81 5.81 0 00-3.599 2.174C1.446 44.514-.247 48.02.03 52.156a13.107 13.107 0 002.753 7.16 26.482 26.482 0 008.696 7.454 17.527 17.527 0 006.514 1.79c2.058.27 4.145.22 6.188-.147a9.752 9.752 0 004.161-1.822.681.681 0 01.489-.115l-.44.973a6.437 6.437 0 00-.692 2.746c.04 1.43.88 1.986 2.174 1.357a10.876 10.876 0 001.873-1.226c1.148-.907 2.263-1.864 3.387-2.795.253-.205.521-.4.814-.605l.163.13c-.163.262-.326.532-.505.818-1.27 1.855-2.605 3.67-3.794 5.574a11.467 11.467 0 00-1.262 3c-.61 2.24.953 3.964 3.208 3.466a45.13 45.13 0 016.872-.703 14.377 14.377 0 003.11-.515 26.906 26.906 0 008.542-4.005c1.287-.94 2.598-1.856 3.917-2.763a7.441 7.441 0 012.834-1.087c3.257-.63 6.033-2.95 6.229-6.809.114-2.386-.456-4.454-2.443-5.983a.742.742 0 01-.285-.515l1.115.278a21.614 21.614 0 008.745.867 16.793 16.793 0 002.785-.54 95.41 95.41 0 005.211-1.782 21.269 21.269 0 008.428-5.942c1.889-2.109 3.754-4.242 5.496-6.465a38.129 38.129 0 016.026-6.22 10.703 10.703 0 001.864-1.88 3.843 3.843 0 00-.114-4.83 3.994 3.994 0 00-3.07-1.358 26.63 26.63 0 00-7.328.924 71.468 71.468 0 00-11.863 3.972 212.56 212.56 0 00-19.217 9.449c-1.1.613-2.15 1.316-3.216 1.97l-.92.564zm-11.4.924c-.187-.27-.326-.457-.44-.654-.765-1.283-1.506-2.59-2.296-3.857a21.603 21.603 0 00-5.17-5.984 39.335 39.335 0 01-6.514-6.473 4.694 4.694 0 01-1.173-3.27c.082-1.43.953-2.026 2.264-1.52.285.115.562.245.814.368a1.866 1.866 0 002.182-.261 1.237 1.237 0 011.76 0 10.064 10.064 0 011.676 1.757c1.173 1.635 2.28 3.392 3.388 5.108a20.91 20.91 0 013.2 6.8 38.748 38.748 0 001.848 6.67v.27l-1.539 1.046zm-2.67 3.27c-.35-.278-.644-.507-.92-.744a30.778 30.778 0 00-7.687-4.765c-1.93-.818-3.884-1.635-5.822-2.452-1.938-.818-3.95-1.635-5.863-2.6a8.979 8.979 0 01-3.949-4.397 1.385 1.385 0 01-.09-1.463c.326.057.676.106 1.018.188.844.254 1.7.464 2.565.63a23.092 23.092 0 019.584 3.457 37.034 37.034 0 004.12 2.223 40.143 40.143 0 017.532 4.65 5.068 5.068 0 011.685 2.453l-2.174 2.82zM22.437 52.23c-1.743.057-3.33.147-4.886.155-3.362 0-6.725-.188-10.064.4-.871.15-1.754.219-2.638.205A1.753 1.753 0 013 52a1.771 1.771 0 01-.17-.727 13.778 13.778 0 010-2.321c.07-.77.429-1.484 1.003-1.998a3.03 3.03 0 012.092-.773c2.37.213 4.739.319 7.108.482.746.021 1.49.1 2.223.237 2.915.638 5.814 1.325 8.713 2.003.176.065.343.153.496.261-1.017.785-2.296 1.308-2.01 3.057l-.017.009zm29.313-1.684l-.098-.22c1.067-.753 2.11-1.554 3.257-2.249a55.725 55.725 0 018.957-4.438c2.264-.899 4.568-1.692 6.897-2.452a3.846 3.846 0 012.785-.09 1.334 1.334 0 01.983.83 1.345 1.345 0 01-.17 1.279 6.552 6.552 0 00-.57 1.079c-.488 1.635-1.766 2.452-3.207 3.212a23.189 23.189 0 01-5.195 1.708c-1.936.5-3.93.743-5.928.72-2.18-.09-4.363.046-6.514.408l-1.197.213zm-47.048-4.79a1.854 1.854 0 01.676-1.749 13.158 13.158 0 013.664-2.558 4.683 4.683 0 012.859-.54c1.273.16 2.535.403 3.778.728 5.137 1.463 9.966 3.743 14.86 5.844.04 0 .04.106.106.286l-1.083.147c-1.082.04-2.156.205-3.2.49a4.633 4.633 0 01-3.062.058l-1.075-.303A55.174 55.174 0 008.09 46.034c-1.075-.016-2.182-.188-3.355-.286l-.033.008zm10.423-18.162c.61.254 1.075.434 1.539.646 2.1.956 4.177 1.97 6.294 2.885 3.86 1.635 7.85 3.025 11.57 5.027a17.731 17.731 0 017.638 7.275c.22.408.424.817.635 1.234a1.51 1.51 0 01-.765-.294c-1.197-.769-2.361-1.635-3.607-2.297-3.119-1.733-6.27-3.409-9.421-5.084a18.126 18.126 0 00-5.26-1.831c-1.629-.319-3.257-.76-4.934-1.169-1.939-.482-2.989-1.929-3.779-3.604a3.231 3.231 0 01.09-2.788zm-.651-20.597c.3.237.627.474.928.727 1.237 1.022 2.443 2.126 3.705 3.05A53.58 53.58 0 0130.133 21.48c.1.142.185.296.252.457-.656.053-1.308.143-1.954.27-.766.18-.815 1.014-1.14 1.635a6.268 6.268 0 01-.603-.474c-2.833-2.828-6.237-4.953-9.298-7.487a60.957 60.957 0 00-3.184-2.387A4.028 4.028 0 0112.78 8.91a2.979 2.979 0 011.694-1.913zm-1.344 6.065c.814.596 1.694 1.218 2.549 1.88 1.807 1.39 3.55 2.86 5.406 4.176a49.03 49.03 0 015.7 4.741c.353.354.604.798.725 1.283a13.409 13.409 0 001.75 4.439c.07.126.133.257.188.392a10.71 10.71 0 01-1.694-1.169c-1.392-1.022-2.768-2.076-4.226-3.008-1.311-.817-2.736-1.512-4.071-2.305a57.279 57.279 0 01-5.09-3.196 6.453 6.453 0 01-2.01-2.47 6.48 6.48 0 01-.587-3.137c.049-.997.326-1.316 1.36-1.626zm22.164 22.886l-.122.172-1.555-.752c-1.686-.818-3.355-1.635-5.073-2.37-2.085-.892-4.243-1.636-6.327-2.526-2.215-.949-4.38-2.011-6.514-3.05a3.256 3.256 0 01-2.117-2.312 16.888 16.888 0 01-.285-2.927 1.394 1.394 0 01.888-1.405c.184.065.364.144.537.237 3.257 1.896 6.644 3.71 9.86 5.721a47.906 47.906 0 015.472 4.25c1.792 1.594 3.485 3.31 5.236 4.962zM23.537 54.003l-1.083.434c-.92.35-1.84.702-2.76 1.038-2.199.817-4.397 1.634-6.596 2.378-1.376.482-2.776.891-4.144 1.39a1.622 1.622 0 01-1.629-.172 6.865 6.865 0 01-2.907-4.16 11.43 11.43 0 01-.203-1.357c6.14-1.104 12.214-1.006 18.272-.924l1.05 1.373zm11.074-30.896c-.83-.3-1.678-.544-2.54-.727a2.632 2.632 0 01-1.808-1.153 51.028 51.028 0 00-10.585-10.421c-1.507-1.095-2.9-2.354-4.332-3.564a6.945 6.945 0 01-.741-.817 1.268 1.268 0 011.09-.965c.806-.15 1.625-.212 2.444-.188a5.738 5.738 0 014.185 1.807c1.018 1.185 2.182 2.256 3.127 3.498 2.93 3.874 5.797 7.814 8.68 11.73.162.187.285.432.504.8h-.024zm-.537 30.953c-.53.423-1.034.879-1.507 1.365a48.225 48.225 0 01-6.628 5.877c-1.441 1.136-2.841 2.313-4.275 3.458a5.998 5.998 0 01-1.107.694c-.969.483-2.003.238-3.013.254a3.855 3.855 0 01-3.493-1.635l.733-.637a39.595 39.595 0 014.706-3.22c2.59-1.554 5.081-3.27 7.622-4.905.326-.24.697-.413 1.09-.507 1.93-.27 3.844-.49 5.92-.744h-.048zm13.345.221c.359.082.692.14 1.018.229a4.986 4.986 0 012.817 2.223c1.4 2.085 2.044 4.283 1.19 6.768a5.029 5.029 0 01-1.776 2.006 5.002 5.002 0 01-2.548.806 2.988 2.988 0 01-.595-.14c-1.376-.44-2.011-1.544-2.443-2.795a9.294 9.294 0 010-6.538 3.654 3.654 0 011.19-1.733l1.147-.826zm-5.814-1.855c-1.913.212-3.631.343-5.333.605-1.702.261-3.452.67-5.187.948a7.95 7.95 0 01-2.329 0 3.463 3.463 0 01-1.506-.736 6.766 6.766 0 01-1.05-1.242 1.736 1.736 0 01-.057-2.403 4.118 4.118 0 011.791-1.087c1.46-.313 2.946-.48 4.438-.499a17.559 17.559 0 019.356 3.008c.13.111.248.238.35.376l-.473 1.03zm31.203 4.038v.286c-.342.188-.676.416-1.034.572a8.115 8.115 0 01-4.886.49 56.392 56.392 0 01-6.807-1.7 86.025 86.025 0 00-9.014-2.06 28.646 28.646 0 00-2.874-.343c.292-.283.564-.586.814-.907a3.043 3.043 0 013.306-1.25c2.711.408 5.463.67 8.142 1.299 3.852.915 7.646 2.092 11.457 3.171.321.115.63.263.92.442h-.024zm-51.494 8.99c1.287-1.062 2.443-2.1 3.64-2.983a54.715 54.715 0 007.491-6.44 9.081 9.081 0 015.822-2.829 7.486 7.486 0 012.549.05c-.758.555-1.385.956-1.946 1.438a46.32 46.32 0 00-7.801 8.173 8.974 8.974 0 01-1.555 1.594c-1.694 1.439-3.778 1.562-5.855 1.635a3.76 3.76 0 01-2.32-.662l-.025.024zm.97-59.2c.814-.369 1.237-.491 1.766-.303 2.296.817 4.52 1.7 6.042 3.76a37.08 37.08 0 014.193 7.102c.766 1.741 1.572 3.474 2.337 5.215.505 1.153.977 2.313 1.45 3.482.122.303.187.63.293.99-.163 0-.253 0-.277-.066-1.368-1.766-3.013-3.27-4.307-5.141-3.363-4.831-6.637-9.743-10.79-13.97a6.773 6.773 0 01-.683-1.094l-.025.024zm-8.958 57.811c-2.776-.548-4.714-2.305-4.665-4.25.129-.099.268-.184.415-.254a139.45 139.45 0 0014.534-5.353l3.355.817c-.195.155-.342.278-.497.384-4.226 3.032-8.956 5.24-13.028 8.615a.558.558 0 01-.048.025l-.066.016zm64.644-20.72c1.034-.204 2.052-.466 3.086-.605 1.743-.245 3.493-.417 5.244-.621 1.278-.155 2.549-.343 3.827-.466s1.571.4 1.124 1.52a5.724 5.724 0 01-1.567 2.362 5.693 5.693 0 01-2.505 1.316 22.27 22.27 0 01-4.21.622c-2.776.106-5.56.049-8.345.065h-1.352a11.47 11.47 0 004.763-4.218l-.065.025zm-13.72 6.809v-.172c.35-.098.692-.213 1.042-.303 1.84-.44 3.68-.89 5.529-1.307a13.314 13.314 0 012.687-.466c3.632-.066 7.263-.057 10.895-.066.381.037.76.102 1.131.197-.095.33-.22.65-.374.956-1.49 2.24-3.51 3.654-6.245 3.572a34.881 34.881 0 01-4.886-.695c-2.394-.409-4.78-.89-7.182-1.332-.895-.164-1.783-.262-2.597-.384zm13.72 3.007a3.922 3.922 0 01-1.694 2.302 3.896 3.896 0 01-2.8.535c-1.246-.327-2.492-.654-3.714-1.055a78.484 78.484 0 00-13.345-3.155c-1.523-.212-3.054-.384-4.584-.58a6.788 6.788 0 011.71-.49 43.132 43.132 0 018.02-.352c2.545.042 5.08.327 7.572.85 2.582.531 5.18 1.03 7.76 1.553.361.105.715.233 1.059.384l.016.008zm-14.518-9.808l-.122-.147c.358-.196.7-.417 1.058-.597 4.47-2.157 8.957-4.356 13.411-6.457A72.497 72.497 0 0191.91 31.2c.814-.188 1.588-.376 2.394-.49a1.463 1.463 0 011.629 1.111c.105.605-.204 1.046-.978 1.349a5.05 5.05 0 01-.814.204c-.627.13-1.27.229-1.897.368-1.588.351-3.16.768-4.755 1.079a34.654 34.654 0 00-11.18 3.89c-.925.508-1.88.958-2.858 1.35-.472.186-.96.331-1.458.432-1.278.336-2.58.58-3.827.998-1.604.539-3.159 1.217-4.73 1.83l.016.033zm31.569-9.718c1.025 1.21.87 1.978-.342 2.452-1.368.506-2.728 1.038-4.12 1.446-3.347.973-6.718 1.88-10.073 2.804-.814.213-1.571.384-2.37.58-.928-1.357-2.222-.94-3.403-.817 6.18-4.095 13.272-5.207 20.291-6.498l.017.033zm-50.948 25.51v1.479a2.623 2.623 0 01-.513 1.814 14.65 14.65 0 00-1.01 1.88c-.358.807-.766 1.59-1.221 2.346-1.303 1.872-2.696 3.686-4.072 5.525l-2.825 3.858c-1.287.164-1.906-.326-1.881-1.577a3.648 3.648 0 01.31-1.48c.382-.8.829-1.568 1.335-2.296a61.243 61.243 0 019.877-11.55zM10.06 40.492a1.697 1.697 0 011.678-.817c.977.057 1.954.213 2.923.319a37.73 37.73 0 003.933.408 11.144 11.144 0 014.356.818c2.158.907 4.307 1.839 6.465 2.738a57.15 57.15 0 019.242 4.495c.326.213.643.458.985.695-.098.082-.13.123-.147.123a5.802 5.802 0 01-.667-.22 17.049 17.049 0 00-5.79-1.464 13.151 13.151 0 01-4.07-1.128c-.343-.13-.677-.302-1.027-.45-2.622-1.111-5.22-2.272-7.865-3.318a28.56 28.56 0 00-7.426-2.052c-.815-.098-1.62-.09-2.59-.139v-.008zM34.937 76.13c.374-.564.74-1.169 1.164-1.74 1.1-1.48 2.231-2.927 3.322-4.406a24.193 24.193 0 003.615-6.024 3.383 3.383 0 011.116-1.635c.071.558.205 1.107.399 1.635.562 1.079.171 2.01-.228 3.016a267.138 267.138 0 00-3.175 8.288 1.743 1.743 0 01-1.035 1.16 8.471 8.471 0 01-3.9.515 1.25 1.25 0 01-1.278-.809zm9.453-40.402l-.269.115c-.09-.14-.187-.262-.276-.4-1.067-1.701-2.142-3.401-3.2-5.11a12.27 12.27 0 01-.88-1.634c-1.18-2.747-2.312-5.526-3.51-8.264-1.196-2.738-2.263-5.77-3.997-8.37a1.38 1.38 0 010-.367c.277.302.464.498.635.703a68.84 68.84 0 018.794 13.012c.492.894.877 1.844 1.148 2.828.545 2.501 1.01 5.002 1.53 7.487h.025zm18.028 26.254c-.88-.417-1.694-.818-2.54-1.186-2.15-.907-4.324-1.773-6.515-2.68a2.49 2.49 0 01-1.09-.695 8.789 8.789 0 00-2.965-3.13.81.81 0 01.432-.058c2.573.58 5.162 1.128 7.719 1.766 1.435.283 2.802.838 4.03 1.634a3.797 3.797 0 011.588 3.05 1.205 1.205 0 01-.684 1.299h.025zm15.951-20.647c.118-.08.243-.149.375-.204 1.424-.425 2.85-.818 4.283-1.25 3.387-.933 6.864-1.57 10.153-2.837a2.634 2.634 0 011.01 0c.15.812-.007 1.65-.439 2.353a3.315 3.315 0 01-1.898 1.448c-1.856.36-3.737.596-5.61.866-2.21.327-4.416.64-6.62.94-.415.066-.814.082-1.254.115v-1.43zM41.451 75.59c.066-.381.156-.758.268-1.128.847-2.289 1.71-4.572 2.59-6.85.22-.588.52-1.144.814-1.822.814 1.283 1.629 2.296 3.16 2.648-.318 1.937-.636 3.833-.953 5.77-1.808 1.12-3.575 2.142-5.88 1.382zm11.4-17.247c.178 0 .284-.049.358 0 2.744 1.186 5.488 2.363 8.215 3.556.287.11.537.297.725.54a2.705 2.705 0 01-.293 3.457c-1.042.924-1.995.817-3.135-.22-1.547-1.44-3.11-2.845-4.666-4.276-.22-.204-.513-.408-.602-.67-.301-.768-.456-1.585-.66-2.403l.057.017zm-4.3 10.046c1.897-.098 2.37-1.93 3.778-2.755.668 1.324 1.352 2.583 1.938 3.875a1.451 1.451 0 01-.48 1.749 10.969 10.969 0 01-5.383 2.73c-.219.028-.44.028-.66 0 .22-1.921.481-3.72.75-5.6h.057zm10.83-1.57c-.929 2.003-2.704 3.27-4.283 3.115-1.27-1.308-1.515-3.27-2.598-4.537l1.091-3.972a67.568 67.568 0 015.733 5.395h.057zM46.996 44.931h-.236c-1.783-4.782-2.003-9.899-3.013-14.868.217.24.39.517.513.817.497 1.267.969 2.542 1.466 3.81a17.043 17.043 0 011.286 7.584c-.13.907-.073 1.782-.073 2.657h.057zM8.628 18.832c.057-.596.065-1.193.643-1.463a1.322 1.322 0 011.58.335c.291.279.517.62.66.997a1.436 1.436 0 01-.815 1.84 1.436 1.436 0 01-1.824-.875 5.292 5.292 0 01-.3-.834h.056zM99.32 34.714a1.373 1.373 0 01-1.196-1.017 1.385 1.385 0 01-.034-.553 1.46 1.46 0 01.817-1.427c.175-.084.365-.133.56-.142a1.515 1.515 0 011.303 1.635 1.43 1.43 0 01-1.45 1.504zM10.053 7.25a2.64 2.64 0 011.352-2.525.893.893 0 011.107.22c.219.325.325.713.301 1.104-.1.32-.293.605-.553.817-.274.305-.589.57-.937.785-.236.147-.602.302-.814.212-.212-.09-.358-.49-.456-.613zm-1.31 4.39c0-.9.57-1.635 1.188-1.635a1.629 1.629 0 011.23 1.635 1.53 1.53 0 01-.402 1.005 1.513 1.513 0 01-.966.482c-.595-.008-1.059-.67-1.05-1.487zM47.33 40.99h.179c.325 1.53.643 3.058.977 4.652l-1.156.425V40.99zm41.462 7.104c.325.457.358.883 0 1.193a4.34 4.34 0 01-1.23.818c-.138.057-.53-.164-.635-.36a.82.82 0 010-.744c.505-.482.985-1.07 1.864-.907zM14.23 2.134a.908.908 0 01.922.537.918.918 0 01.08.37.868.868 0 01-.863.817.957.957 0 01-.952-.51.967.967 0 01-.107-.364.82.82 0 01.568-.82.81.81 0 01.352-.03zm-2.907 23.335c-.814-.384-1.221-.874-1.172-1.504 0-.506.464-.923.757-.67.35.346.628.76.814 1.218a.632.632 0 01-.399.956zm87.288 10.127a1.328 1.328 0 01-.39 1.635.741.741 0 01-1.083 0c-.212-1.21.228-1.724 1.506-1.635h-.033zm-4.25 5.174c.586.76.586 1.308.04 1.741a1.064 1.064 0 01-.895.155.594.594 0 01-.341-.708.597.597 0 01.137-.248 7.87 7.87 0 011.075-.94h-.016zM84.256 52.36c0-.482.147-.817.537-.817.228 0 .465.22.709.352-.293.71-.651.833-1.213.465h-.033z"/><path opacity=".9" d="M24.539 38.825l-.97-.817c-.626.31-.594.662-.252 1.005.342.343.733.433 1.222-.188zM9.817 47.881c-1.213.327-1.783 1.047-1.628 1.954.08.417.244.817.749.817a.812.812 0 00.952-.735c.147-.638.505-1.35-.073-2.036zm2.272-4.266c.668.719 1.237.678 2.304-.18-.09-.711-.236-.858-.896-.907-.806-.033-1.14.27-1.408 1.087zm9.234-11.313c-.733-.351-1.328-1.12-2.24-.466a1.05 1.05 0 00.318 1.365 1.737 1.737 0 001.628.172c.302-.172.326-.278.294-1.07zm-3.486-20.434l-1.343.385a.893.893 0 00.09 1.217 4.05 4.05 0 001.327.867.81.81 0 00.934-.503.818.818 0 00.05-.38c-.048-.654-.162-1.308-1.058-1.586zm.921 9.04a.82.82 0 00-.098-1.3 1.302 1.302 0 00-1.629-.244c-.22 1.365.26 1.839 1.727 1.544zm.016 6.694a8.038 8.038 0 001.09-.204.756.756 0 00.612-.617.763.763 0 00-.367-.789 4.272 4.272 0 00-2.744-.89c-.431 0-.814.138-.969.588a1.066 1.066 0 00.375 1.275 3.242 3.242 0 002.003.637zM9.768 54.314c-.61.817.106 1.3.415 1.839.489.163.97.22 1.173-.278a1.387 1.387 0 000-1.038c-.31-.597-.847-.711-1.588-.523zm12.271-44.007c.578-.31.537-.743.203-1.177a2.445 2.445 0 00-2.222-.98.763.763 0 00-.815.645.73.73 0 00.595.818c.749.253 1.49.49 2.239.694zM19.613 62.92c.383.117.775.202 1.172.254a.731.731 0 00.741-.703.82.82 0 00-.741-.817c-.619-.106-1.026.27-1.172 1.267zm7.995-.694c-1.001 1.022-1.001 1.022-.968 1.635a1.185 1.185 0 001.71-.368c.244-.532.024-.94-.742-1.267zm2.02-50.488a1.788 1.788 0 00-.202-1.273 1.776 1.776 0 00-1.003-.804.576.576 0 00-.586.534.583.583 0 00.048.284 1.88 1.88 0 001.743 1.259zM15.395 59.447c-.7-.229-1.23-.139-1.466.466a1.066 1.066 0 00.163.907.812.812 0 00.814.057 1.135 1.135 0 00.489-1.43zm65.767-13.176c1.962.441 2.158.327 2.443-1.43-.497-.687-.815-.818-1.385-.507a1.63 1.63 0 00-.904.762 1.64 1.64 0 00-.154 1.175zm-4.087 3.768a2.04 2.04 0 00-1.792-.237.922.922 0 00-.537.72 1.03 1.03 0 00.619.661c.586.205 1.408-.367 1.71-1.144zm-5.497 2.845c-1.107-.523-1.547-.295-2.125 1.078.35.556.814.311 1.23.131.415-.18 1.025-.417.895-1.21zm19.363-19.748a1.04 1.04 0 00.081-.352 1.933 1.933 0 00-.138-.375 1.623 1.623 0 00-1.889.555c.456.662.782.687 1.946.172zm-1.026 2.754c-1.295-.212-1.726 0-2.24.875a1.744 1.744 0 002.24-.874zM37.6 70.301a1.224 1.224 0 00.584-1.046 1.23 1.23 0 00-.585-1.046c-.586 0-.676.474-.692.932-.016.457.09 1.005.692 1.16zm3.786 2.551c-.473-.5-.896-.818-1.499-.401.342.932.66 1.03 1.499.4zM60 59.766c.57-.973.415-1.316-.538-1.333-.228.572.106.908.537 1.333zm26.12-19.249a2.702 2.702 0 002.444-.417c-.766-.956-1.613-.81-2.443.417zM44.089 71.732c.676.817 1.523.605 2.109-.499-.513-.515-1.303-.327-2.11.499zm15.381-9.155c-.895.172-.895.172-1.294 1.006.187.474.52.433.887.229a.855.855 0 00.523-.888.862.862 0 00-.116-.347zm-7.328 7.283a1.964 1.964 0 00-1.979.817c0 .483.22.679.627.646a1.749 1.749 0 001.352-1.463zm4.486-2.714c-.7-.613-1.058-.506-1.327.385.521.253.985.351 1.327-.385z"/></g></svg>