<svg width="365" height="289" fill="none" xmlns="http://www.w3.org/2000/svg"><g opacity=".85"><path d="M138.442 116.016c.232-.096.477-.158.728-.185.984 0 1.96.105 2.944.153 1.522.08 3.036.169 4.566.217a53.026 53.026 0 0116.321 2.955c4.969 1.807 9.283 4.99 12.407 9.154a18.593 18.593 0 013.731 9.364c.232 1.959.281 3.942.438 5.91.1 1.333.216 2.674.381 4.015a6.791 6.791 0 01-.571 4.135 3.01 3.01 0 01-1.441 1.535 3.15 3.15 0 01-2.124.248c-.926-.136-1.853-.297-2.903-.466-.252.403-.481.818-.687 1.245a4.87 4.87 0 01-1.44 1.961 5.081 5.081 0 01-2.233 1.05 10.056 10.056 0 01-6.203-.216 37.01 37.01 0 01-13.426-9.034c-.173-.185-.322-.386-.488-.571a7.963 7.963 0 01-2.043-3.565 7.796 7.796 0 01.025-4.079 31.8 31.8 0 001.092-8.384 25.462 25.462 0 00-.298-3.364c-.571-3.63-2.746-6.312-5.559-8.585-.827-.65-1.704-1.204-2.539-1.823a1.428 1.428 0 01-.645-.718 1.38 1.38 0 01-.033-.952zm.761.562l-.083.217c.976.442 1.969.843 2.92 1.325a44.932 44.932 0 014.186 2.257c2.364 1.518 4.067 3.832 4.781 6.496a13.165 13.165 0 01-.389 8.721 171.114 171.114 0 01-2.482 5.757 4.97 4.97 0 00-.468 2.832 5.02 5.02 0 001.18 2.629c.401.549.858 1.058 1.365 1.518 1.654 1.445 3.366 2.907 5.145 4.256a29.598 29.598 0 007.229 3.878 9.199 9.199 0 005.981.169 4.41 4.41 0 001.822-.914 4.237 4.237 0 001.189-1.624c.239-.578.579-1.116.901-1.726.554.056 1.018.096 1.481.16.753.105 1.505.241 2.258.338a2.416 2.416 0 001.532-.267 2.302 2.302 0 001.024-1.139 5.356 5.356 0 00.587-3.388c-.149-.972-.289-1.952-.364-2.939-.165-2.249-.206-4.513-.446-6.754a18.086 18.086 0 00-2.565-8.03c-2.568-4.145-6.325-7.474-10.811-9.58a44.619 44.619 0 00-16.204-3.83 324.742 324.742 0 00-6.858-.394c-.951 0-1.968.032-2.911.032zm7.734 26.725c.339-.964.637-1.936 1.017-2.875a137.265 137.265 0 011.895-4.385 12.26 12.26 0 001.125-4.705 11.966 11.966 0 00-2.3-7.87 15.25 15.25 0 00-5.666-4.344c-.273-.137-.554-.225-.827-.337.191.309.441.582.736.803a14.654 14.654 0 013.937 5.049 14.25 14.25 0 011.365 6.193 43.672 43.672 0 01-.827 7.765c-.265 1.598-.761 3.124-.455 4.706z" fill="#868C96"/><path d="M171.578 138.187a1.328 1.328 0 01-.198-.232c-3.309-6.866-8.694-11.749-15.394-15.394a42.861 42.861 0 00-12.805-4.602c-.827-.144-1.596-.273-2.622-.449 2.143.067 4.265.43 6.303 1.076 7.445 2.168 14.062 5.741 19.323 11.395a27.476 27.476 0 014.963 7.058c.174.386.273.803.414 1.197l.016-.049zm.406-7.572c.176.108.337.238.48.385a37.971 37.971 0 016.832 13.13c.215.803.257 1.646.414 2.682-.273-.217-.397-.257-.405-.321a27.992 27.992 0 00-3.607-9.797c-1.166-2.072-2.481-4.071-3.697-6.103l-.017.024zm-8.942 4.633c.215.322.471.611.653.948a41.84 41.84 0 014.467 12.623c.38 2.096.48 4.231.298 6.352-.149-1.606-.29-3.678-.513-5.693a34.929 34.929 0 00-2.771-9.636c-.529-1.277-1.183-2.498-1.77-3.742-.132-.29-.232-.587-.347-.884l-.017.032zm-3.524 7.26c.389 1.084.828 2.144 1.15 3.212a33.27 33.27 0 011.241 9.066c.003.379-.094.752-.281 1.084-.215-2.241-.339-4.489-.687-6.713-.347-2.225-.935-4.465-1.406-6.697l-.017.048zm-5.658-6.184c.268.272.512.564.728.876a28.998 28.998 0 013.383 9.419c.104.514.171 1.035.199 1.558a43.34 43.34 0 00-2.697-8.64c-.504-1.085-1.058-2.153-1.596-3.213h-.017zm17.719 1.879a11.637 11.637 0 011.125 4.2l-1.125-4.2zm-14.41-10.358l1.456 1.469-1.456-1.469zm-3.995 10.013l.918 1.606-.918-1.606zm9-4.095l.868 1.485-.868-1.485zm2.829-7.773l1.058 1.011-1.05-1.019-.008.008z" fill="#868C96"/><path d="M172.687 142.403c.05.41.099.803.157 1.237h-.14v-1.261l-.017.024zm-19.439-7.163c.207.362.414.723.612 1.084l-.595-1.092-.017.008zm1.059 4.69l.472.988-.472-.98v-.008zm6.576-8.119l-.653-.803.662.803h-.009z" fill="#868C96"/><path d="M160.23 131.008l-.604-.883.612.891-.008-.008zm2.175-7.203l.827.619-.827-.627v.008zm1.977 1.422l-.901-.554.893.554h.008zm-11.398 9.797l-.422-.603.422.603zm-.828-1.237l.381.658-.389-.658h.008zm10.034-.04l-.455-.611.463.611h-.008zm-.918-1.221l.438.627-.446-.627h.008zm-.405-.69c.132.232.264.465.405.69a29.251 29.251 0 00-.405-.698v.008zm10.712-1.879l.397.658c-.124-.217-.257-.434-.389-.65l-.008-.008zm-11.763-7.87l.538.482-.546-.482h.008zm1.721 1.02l-.588-.426.596.426h-.008zm.885.674l-.678-.385.686.385h-.008zm-3.102 18.1l.198.627-.223-.643.025.016zm-4.393-.216l.273.53-.264-.53h-.009zm-.148-.747l.149.747-.141-.747h-.008zm4.119-19.2l.364.208-.372-.208h.008zm.943.345l-.546-.161.554.161h-.008zm1.108.618l-.562-.136.562.136zm-2.605-1.461l.355.216-.355-.265v.049zm-.472-.241l.43.241-.43-.209v-.032zm-5.732 14.912l.165.401-.182-.393.017-.008zm4.616-15.282l.082.04-.058-.056-.024.016zm-3.938 16.261l-.206-.353.215.353h-.009zm.207.434l-.207-.434.199.442.008-.008z" fill="#868C96"/><path d="M153.19 137.834c-.057-.177-.107-.353-.165-.53l.174.53h-.009zm3.59-17.241l-.405-.233.414.257-.009-.024zm-2.448 19.321l-.223-.474c.066.153.14.313.215.466l.008.008zm4.98 1.935a.265.265 0 00.049-.08s-.041 0-.058-.048v.16l.009-.032zm-.654-20.413l.239.281-.239-.281zm-5.378 13.78l-.296-.192.288.192h.008zm-.975 1.076l.281.24-.281-.24zm12.722-10.359l-.215-.216.215.216zm-.446-.425l.206.232-.206-.224v-.008zm-8.312 1.43l-.051-.033.026.049.025-.016z" fill="#868C96"/><path d="M156.482 127.145l-.215-.208.223.208h-.008zm9.579-.176l.223.2-.231-.2h.008zm-9.372.401l-.215-.224.206.224h.009zm9.596-.2l.214.216-.214-.216zm-9.596.217l.223.208-.214-.208h-.009zm9.811 0l.231.2-.223-.2h-.008zm-9.604.209l.272.248-.28-.248h.008zm10.066.192l-.214-.216.206.224.008-.008zm-2.605-2.537l.223.256-.223-.264v.008zm2.581 2.561l.231.201-.223-.201h-.008zm.504.441l-.223-.264.248.232-.025.032z" fill="#868C96"/><path d="M167.443 128.246l.057.056v-.064h-.066l.009.008zm-8.818 1.068l.231.208-.239-.2.008-.008zm12.5.162v-.049l-.051.04h.051v.009zm-12.021.231l-.214-.208.222.208h-.008z" fill="#868C96"/><path d="M171.33 129.691l-.206-.216.214.216h-.008zm-12.25.041l.247.184-.247-.184zm12.234-.016l.272.24-.28-.248.008.008zm-11.689.408l-.272-.232.264.224.008.008zm3.624-5.7l.215.273-.157-.313-.058.04zm-1.506-1.029l-.206-.288.206.288zm-9.571 10.367l-.264-.256.272.264-.008-.008z" fill="#868C96"/><path d="M217.934 200.007h-15.635c-4.661 0 14.593-14.654 21.889-18.84 7.296-4.187 13.55-6.281 18.762-6.281 5.863 0 10.067 3.719 11.465 4.187 3.128 1.047 7.021-1.431 8.339-2.093 2.085-1.047 7.296-2.094 11.465-2.094 4.17 0 9.382 1.047 15.636 6.281 6.253 5.233 3.732 10.905 2.084 12.56-2.084 2.093-8.338 2.443-12.508 1.047-6.254-2.094-17.72-2.094-22.931-2.094-5.212 0-18.762 1.047-25.016 4.187-5.003 2.512-11.118 3.14-13.55 3.14z" stroke="#868C96"/><path d="M214.807 217.801c-5.837-4.186-10.77-12.211-12.508-15.7-1.737-3.489 1.043-2.094 1.043-2.094h12.508c.347.349 2.709.21 5.211 1.047 2.502.838 12.508 3.14 17.72 3.14 9.033-.349 22.54.131 29.185-2.093 3.127-1.047 10.423-3.14 14.592-3.14 3.127-.001 4.711.064 7.297 2.093 4.67 3.665 1.042 9.42-3.127 14.654-5.25 6.59-18.73 14.654-35.439 14.654-15.635 0-29.186-7.327-36.482-12.561z" stroke="#868C96"/><path d="M288.436 48.952a.5.5 0 00.752.66l-.752-.66zm31.646-17.464v-.5.5zm0 7.327l.076.494-.076-.494zm-36.481 21.98l-.475-.157.475.158zm5.587-11.183c2.58-2.937 7.21-7.355 12.758-11.034 5.556-3.686 11.971-6.59 18.136-6.59v-1c-6.454 0-13.068 3.028-18.689 6.756-5.63 3.735-10.326 8.214-12.957 11.208l.752.66zm30.894-17.624c9.257 0 18.811 3.879 26.482 7.796 3.831 1.956 7.173 3.91 9.768 5.386 1.294.736 2.41 1.356 3.303 1.793.447.219.848.396 1.194.52.336.12.662.206.946.206v-1c-.108 0-.303-.038-.609-.147-.297-.107-.66-.266-1.091-.477-.862-.422-1.953-1.028-3.249-1.764-2.583-1.469-5.951-3.439-9.807-5.408-7.703-3.933-17.433-7.905-26.937-7.905v1zm41.693 15.7c.155 0 .207.01.204.01a.444.444 0 01-.206-.14.471.471 0 01-.013-.581c.05-.066.1-.09.081-.078a.677.677 0 01-.065.03 4.246 4.246 0 01-.353.127c-.639.206-1.773.496-3.127.824-2.685.65-6.199 1.44-8.119 1.967l.264.964c1.902-.52 5.372-1.3 8.09-1.959 1.347-.326 2.519-.625 3.199-.844.17-.055.321-.108.44-.16.059-.025.12-.054.176-.086a.715.715 0 00.208-.177.528.528 0 00-.006-.66c-.12-.147-.286-.187-.326-.197a1.95 1.95 0 00-.447-.04v1zm-11.198 2.219c-6.439-4.084-13.811-14.175-30.571-11.586l.152.988c16.27-2.513 23.12 7.153 29.884 11.442l.535-.844zM320.006 38.32c-6.891 1.065-15.828 5.83-23.132 10.675-3.662 2.43-6.935 4.895-9.362 6.954-1.213 1.028-2.221 1.961-2.963 2.741-.37.39-.68.747-.916 1.064-.231.31-.416.61-.507.883l.949.315c.04-.119.148-.317.359-.6.205-.274.486-.6.84-.973.708-.745 1.687-1.652 2.884-2.668 2.394-2.03 5.635-4.471 9.269-6.882 7.289-4.837 16.071-9.492 22.731-10.52l-.152-.989zm-36.88 22.317a.752.752 0 00.08.648c.107.17.266.287.412.37.293.166.71.29 1.192.392.98.204 2.417.346 4.178.438 3.531.184 8.459.17 13.858.013 10.796-.314 23.534-1.204 30.857-2.255l-.142-.99c-7.27 1.043-19.965 1.932-30.744 2.246-5.389.157-10.286.17-13.777-.013-1.75-.091-3.124-.23-4.025-.418-.459-.096-.75-.196-.904-.283-.077-.044-.076-.06-.059-.033.032.05.046.13.023.2l-.949-.315zm50.577-.394c7.377-1.058 11.642-3.447 14.073-5.617 1.213-1.083 1.962-2.105 2.411-2.867.223-.38.372-.695.466-.92a5.3 5.3 0 00.102-.264l.025-.076.007-.022.002-.008.001-.002v-.001l-.481-.138c-.481-.137-.48-.137-.48-.138 0-.001 0-.001 0 0l-.003.009-.016.047a3.784 3.784 0 01-.08.208 6.688 6.688 0 01-.405.798c-.399.678-1.083 1.618-2.215 2.628-2.26 2.017-6.333 4.338-13.549 5.373l.142.99z" fill="#868C96"/><path d="M278.389 62.89c2.085-33.495 17.968-61.756 53.158-61.756 29.186 0 33.355 17.794 32.312 35.588-1.042 17.794-6.253 36.634-6.253 56.522 0 26.167-15.636 45.008-26.059 69.082-10.423 24.074-39.608 104.67-65.666 111.997-26.058 7.327-83.386-4.187-104.233-28.261-20.846-24.074-33.354-51.288-16.677-54.428 16.677-3.141 54.253 3.544 65.667-6.281 14.592-12.56 23.973-29.307 22.931-39.774-1.042-10.467-6.254-20.934-12.508-16.748-6.774 4.535-5.212 14.654 0 16.748 6.774 2.721 8.339-2.094 19.804-2.094 11.466 0 12.508 5.234 18.762 7.327 6.254 2.094 23.974 5.234 27.1-7.327 3.127-12.56-7.165-30.354-10.423-56.522-1.042-8.373 1.368-12.56 2.085-24.074z" stroke="#868C96"/><path d="M65.587 288.84c.174-.442.374-.877.525-1.334a504.503 504.503 0 001.92-6.112 5106.656 5106.656 0 004.87-15.94 108.048 108.048 0 004.168-25.21c.384-6.631.991-13.238 1.87-19.79a97.814 97.814 0 013.004-14.039c1.002-3.483 1.954-6.989 3.151-10.41 1.154-3.294 2.546-6.514 3.91-9.732a154.4 154.4 0 016.643-13.798c.131-.282.295-.547.49-.789.116-.126.381-.118.758-.219a5.896 5.896 0 01-.35 1.031c-3.186 5.74-5.798 11.748-8.41 17.755a84.81 84.81 0 00-3.954 11.271c-1.266 4.703-2.534 9.415-3.61 14.169a70.354 70.354 0 00-1.244 8.594c-.636 6.812-1.144 13.63-1.733 20.446a123.61 123.61 0 01-1.933 13.379 135.517 135.517 0 01-4.016 14.17c-1.082 3.507-2.119 7.018-3.184 10.53-.634 2.116-1.294 4.261-1.93 6.349l-.945-.321zm46.941-203.409c2.571-.564 5.073-.667 7.344 1.012a3.904 3.904 0 011.787 4.064c-.31 1.567-.788 3.106-1.187 4.657l-.337 1.255c3.198-3.068 6.142-5.946 6.795-10.361a18.822 18.822 0 00-.081-5.657c-.62-3.45-.77-6.97-.445-10.46.324-2.678.769-5.324 1.221-7.967.563-3.12 1.208-6.238 1.858-9.344 2.264-10.958 2.119-22.055 1.929-33.155-.048-2.697-.236-5.386-.332-8.077a4.32 4.32 0 01.608-2.776c.718-.994 1.674-1.196 2.537-.334a5.36 5.36 0 011.208 1.906c.348 1.03.615 2.087.797 3.159a11.824 11.824 0 001.899 4.537 22.663 22.663 0 014.327 11.627c.005.118.026.236.062.349 0 0 .046.067.137.175.165-.207.316-.425.451-.652 2.688-5.346 5.358-10.697 8.087-16.023a13.814 13.814 0 011.925-2.75 5.65 5.65 0 011.834-1.345 2.653 2.653 0 011.769-.133 2.67 2.67 0 011.462 1.012 6.575 6.575 0 011.116 2.25 4.03 4.03 0 002.297 2.884 10.587 10.587 0 013.339 2.91 7.574 7.574 0 011.476 6.93c-.355 1.564-.831 3.095-1.059 4.83.33-.232.666-.454.989-.698a12.906 12.906 0 015.166-2.487c2.934-.65 4.818.454 5.538 3.352.373 1.521.51 3.099.767 4.644.118.96.296 1.91.531 2.847a22.05 22.05 0 001.095 2.566c.894-.485 1.631-.865 2.349-1.279.52-.291 1.003-.649 1.527-.958a1.709 1.709 0 012.122.04c.198.163.357.367.466.6.532.852.94 1.777 1.212 2.745a24.228 24.228 0 002.43 5.881 11.465 11.465 0 01.526 10.675 27.829 27.829 0 01-1.98 3.224c.136.06.281.1.429.117 3.377-.142 5.732 1.67 7.503 4.255a14.54 14.54 0 011.936 4.4 29.24 29.24 0 002.901 7.005A14.787 14.787 0 01202.798 85a16.626 16.626 0 01-3.936 10.401 19.384 19.384 0 00-1.595 2.342 7.06 7.06 0 00-.465 1.285c.475.387.902.752 1.348 1.076a14.804 14.804 0 014.664 5.134 4.065 4.065 0 01.4 3.373c-.439 1.255-.961 1.657-2.258 1.35a9.151 9.151 0 01-2.335-.93c-1.797-.978-3.526-2.076-5.337-3.039a32.105 32.105 0 00-13.812-3.85c-5.046-.22-10.096-.322-15.144-.432a55.205 55.205 0 01-10.634-1.196 179.071 179.071 0 01-7.964-1.89 34.504 34.504 0 01-10.977-5.394 92.456 92.456 0 01-1.758-1.262 5.858 5.858 0 00-3.65-1.221 5.839 5.839 0 00-3.614 1.31c-.288.218-.566.45-.831.696-4.545 4.454-8.875 9.067-11.733 14.874a35.472 35.472 0 00-3.597 11.813c-.742 6.798-1.339 13.607-2.07 20.399-.307 2.959-.794 5.898-1.209 8.847a6.772 6.772 0 01-.219.816c-.66-.078-.573-.469-.51-.876.256-1.775.547-3.54.743-5.331.381-3.678.683-7.368 1.072-11.043.535-5 .927-10.021 1.754-14.979a36.753 36.753 0 016.728-15.59 21.15 21.15 0 003.251-5.867 7.076 7.076 0 00-3.435-8.644c-1.049-.58-2.116-1.129-3.172-1.684.917.388 1.829.793 2.748 1.172 2.482 1.035 4.347 2.686 4.886 5.507.049.144.118.28.203.406a2.803 2.803 0 00.049-1.96 7.063 7.063 0 00-.717-1.782 6.659 6.659 0 00-1.247-1.455 11.408 11.408 0 00-1.423-.968 5.676 5.676 0 012.447 1.483 5.708 5.708 0 011.416 2.491 2.58 2.58 0 00-.626-2.53 6.278 6.278 0 00-4.135-2.242c-1.171-.162-2.382-.14-3.576-.18zm52.287-54.23l-.376-.176a7.132 7.132 0 01.085-1.203c.429-1.599.91-3.183 1.286-4.787a7.154 7.154 0 00-1.414-6.582 11.453 11.453 0 00-3.488-2.904 3.723 3.723 0 01-2.027-2.553 7.796 7.796 0 00-.944-2.203 2.097 2.097 0 00-1.406-1.075 2.078 2.078 0 00-1.722.39 6.555 6.555 0 00-1.714 1.655 29.346 29.346 0 00-2.238 3.707c-2.852 5.753-5.574 11.57-8.493 17.296-1.988 3.977-4.208 7.855-6.44 11.712a72.52 72.52 0 00-5.505 10.832 55.995 55.995 0 00-3.346 15.155 28.854 28.854 0 00.532 9.247 19.462 19.462 0 001.697 4.363c.613 1.144 1.698 1.246 2.794.557a7.5 7.5 0 00.671-.51 36.162 36.162 0 018.276-5.125 52.257 52.257 0 0111.596-3.55c4.333-.822 8.722-1.647 12.928-2.855a62.087 62.087 0 0019.952-10.202 11.806 11.806 0 004.337-5.663 11.032 11.032 0 00-1.089-9.639 17.585 17.585 0 01-2.048-4.873 22.643 22.643 0 00-1.219-3.098 1.092 1.092 0 00-1.164-.769c-.813.424-1.038 1.331-1.481 2.087-.768 1.423-2.02 1.7-3.263.643a5.518 5.518 0 01-1.003-1.195 8.983 8.983 0 01-1.255-3.754c-.18-1.312-.292-2.643-.511-3.948a20.195 20.195 0 00-.713-2.96 2.882 2.882 0 00-2.178-1.893 5.229 5.229 0 00-2.823.237 13.43 13.43 0 00-4.925 2.718c-.444.323-.905.622-1.381.896l.012.022zm31.338 68.223a7.242 7.242 0 011.945-4.258 15.672 15.672 0 003.254-5.846 14.988 14.988 0 00-1.052-11.934 31.57 31.57 0 01-3.019-7.351c-.746-2.905-2.095-5.486-4.837-7.09-2.012-1.174-3.993-1.436-6.017-.133-1.121.746-2.248 1.519-3.373 2.282a60.632 60.632 0 01-21.691 9.416c-3.848.798-7.758 1.486-11.569 2.386a40.977 40.977 0 00-15.199 6.756 6.465 6.465 0 00-2.601 3.516 3.438 3.438 0 001.176 4.01 36.608 36.608 0 0013.01 6.868c2.169.59 4.367 1.069 6.564 1.555a58.6 58.6 0 0011.214 1.364c5.48.145 10.904-.049 16.348.473a35.78 35.78 0 0113.424 3.957c1.917 1.011 3.744 2.19 5.659 3.209.757.341 1.541.619 2.343.831a2.06 2.06 0 00.931-2.264 7.745 7.745 0 00-.784-2.012 14.178 14.178 0 00-4.31-4.501c-.522-.419-1.011-.893-1.459-1.246l.043.012zm-63.01-91.08a2.048 2.048 0 00-1.317 2.16c.047 2.05.141 4.096.244 6.144.351 7.712.271 15.436-.239 23.138a68.843 68.843 0 01-2.126 14.518c-.072.267-.103.553-.157.824a.73.73 0 00.291-.363c1.294-2.627 2.51-5.302 3.9-7.875 2.257-4.154 4.621-8.26 6.959-12.374a4.393 4.393 0 00.486-2.902 16.36 16.36 0 00-2.716-7.01c-.772-1.132-1.544-2.264-2.215-3.461a12.106 12.106 0 01-1.673-6.34c.041-1.52-.026-3.05-.076-4.576a1.78 1.78 0 00-1.404-1.894l.043.011zm8.526 22.286c.091-.067.152-.087.15-.115.051-.19.033-.397.031-.592a20.569 20.569 0 00-3.71-10.84 15.33 15.33 0 01-2.647-6.41c-.063-.414-.192-.827-.294-1.233a18.461 18.461 0 00-.123 3.231c.013 2.39.706 4.729 1.996 6.74.627 1.093 1.369 2.098 2.054 3.142a15.641 15.641 0 012.348 5.397c.01.206.076.436.152.669l.043.011zm40.943 8.521l-2.337 1.44c1.245.67 1.65.43 2.268-1.458l.069.018z" fill="#868C96"/><path d="M127.072 67.947a10.974 10.974 0 01.819-5.377c2.775-6.45 6.716-12.205 10.604-18.002a178.8 178.8 0 0011.005-17.92c1.893-3.619 3.47-7.36 5.199-11.087.214-.528.505-1.02.863-1.463-.669 1.737-1.243 3.528-2.034 5.204-1.813 3.833-3.637 7.673-5.647 11.38-2.961 5.467-6.526 10.577-9.907 15.755-2.747 4.189-5.361 8.469-7.901 12.778a32.67 32.67 0 00-2.369 5.389 21.29 21.29 0 00-.657 3.3l.025.043zm3.607 17.219c-.609-.165-.579-.757-.601-1.187-.029-1.362.06-2.724.265-4.07a31.11 31.11 0 014.423-10.595A99.419 99.419 0 01142.6 58.66c4.105-5 8.206-9.982 12.308-14.973.274-.331.598-.612.9-.917-1.285 1.735-2.535 3.508-3.873 5.2-4.065 5.122-8.188 10.19-12.221 15.329a56.63 56.63 0 00-6.617 10.44 21.807 21.807 0 00-2.527 9.811c.005.564.094 1.123.138 1.68l-.029-.064zm44.119-47.049c-14.854 8.925-26.612 21.118-36.794 34.976 9.869-14.2 21.666-26.365 36.794-34.976z" fill="#868C96"/><path d="M145.017 42.814c-.273.434-.502.906-.813 1.31a136.815 136.815 0 00-9.636 13.987 52.097 52.097 0 00-4.075 8.68 39.12 39.12 0 00-2.455 14.029c.009.925.115 1.83.078 2.789a4.324 4.324 0 01-.214-.677 26.24 26.24 0 01.202-8.626c.236-1.255.475-2.519.765-3.768a47.983 47.983 0 015.774-13.56 113.516 113.516 0 019.789-13.53c.176-.21.397-.38.588-.578l-.003-.056zm4.564 31.235c2.295-.842 4.561-1.747 6.883-2.516a138.391 138.391 0 0015.745-5.931 43.312 43.312 0 0011.985-7.95c.894-.863 1.692-1.817 2.57-2.721.195-.224.426-.414.684-.56a13.745 13.745 0 01-2.535 3.274 40.515 40.515 0 01-9.454 6.85 79.616 79.616 0 01-12.615 5.335c-4.056 1.404-8.133 2.72-12.207 4.054a6.216 6.216 0 01-1.041.178l-.015-.013zm47.443 11.471c-2.833.077-5.669.061-8.5.268-5.577.4-11.158.852-16.725 1.42a212.849 212.849 0 01-22.966 1.492c.274-.027.533-.067.802-.077 9.597-.31 19.122-1.551 28.666-2.52 6.003-.606 12.035-.89 18.07-.852.233.01.465.04.693.087l-.04.182zm-57.812-26.833l13.93-20.49a107.734 107.734 0 007.87-13.902 4.71 4.71 0 01.869-1.452c-.757 1.686-1.479 3.38-2.274 5.037-3.152 6.623-7.364 12.6-11.451 18.628-2.552 3.742-5.23 7.405-7.859 11.09a9.559 9.559 0 01-1.069 1.065l-.016.024zm-7.597 29.338c1.245 1.894 3.15 2.945 5.095 3.879a37.31 37.31 0 007.764 2.874 62.12 62.12 0 009.93 1.585c4.729.32 9.473.587 14.217.956-1.73.008-3.464.099-5.183 0-4.076-.188-8.169-.38-12.186-.818a40.62 40.62 0 01-8.931-1.885 32.701 32.701 0 01-8.654-4.073c-.912-.644-1.849-1.294-2.08-2.517l.028-.001zm9.072-3.058c.64-.296 1.269-.65 1.938-.883a195.808 195.808 0 0119.776-5.55c5.263-1.213 10.534-2.424 15.896-3.15.63-.086 1.27-.142 1.895-.212-.575.157-1.134.355-1.712.456a271.729 271.729 0 00-33.385 7.92c-1.483.455-3.004.916-4.446 1.39l.038.029z" fill="#868C96"/><path d="M182.295 93.564c-2.8.16-5.572.456-8.361.572a123.58 123.58 0 01-15.324.014c-3.825-.303-7.625-.766-11.429-1.211a31.513 31.513 0 01-3.71-.732 127.288 127.288 0 0028.057 1.616c2.954-.118 5.9-.238 8.862-.353.635.005 1.269.042 1.901.111l.004-.017zm-47.777-72.54c.449 4.597-1.371 20.063-3.027 25.259.588-4.204 1.238-8.4 1.735-12.611.496-4.21.869-8.436 1.292-12.648zm62.14 78.394a4.95 4.95 0 01-1.139.206c-1.438-.124-2.879-.23-4.295-.468-3.589-.598-7.176-1.27-10.758-1.893-.553-.096-1.103-.135-1.649-.256 5.903.16 11.7 1.257 17.542 1.953.073.001.126.181.299.458zM136.031 28.76c-.302 7.973-1.437 15.784-4.999 23.064a60.11 60.11 0 003.23-11.42c.573-3.877 1.176-7.764 1.769-11.644zm16.276 37.077c-.332.278-.658.567-1.003.824-3.735 2.672-7.547 5.324-11.211 8.108a34.695 34.695 0 00-7.872 8.002 17.182 17.182 0 013.643-4.69 79.24 79.24 0 0110.678-8.52c1.583-1.1 3.204-2.134 4.813-3.19.31-.177.629-.336.956-.478l-.004-.056zm18.297-18.59c.226-.261.476-.502.745-.72a55.72 55.72 0 0110-5.493c.233-.077.473-.132.716-.165.089.799-.52.91-.944 1.117-1.579.778-3.164 1.509-4.762 2.29-1.943.966-3.857 1.966-5.778 2.956l.023.015zm8.742 34.96c.292-.103.591-.188.895-.253a86.864 86.864 0 0118.053-.93c1.303.078 2.597.356 3.889.542v.276c-.139.036-.28.117-.394.096a35.59 35.59 0 00-10.618-.64c-3.633.18-7.255.559-10.882.853-.319.024-.639.02-.93.042l-.013.014zm-5.187-20.764c1.811-1.26 3.682-2.439 5.423-3.782a39.044 39.044 0 009.485-10.137c.016-.06.137-.064.434-.214-.488.79-.838 1.442-1.255 2.038a40.727 40.727 0 01-11.103 10.508c-.931.623-1.931 1.126-2.908 1.68l-.076-.093zm-38.491-21.231c.869-5.558 2.103-10.832 2.257-16.539.76 2.07-.463 10.623-2.257 16.539zm16.158 27.492a4.64 4.64 0 01.704-.601c5.204-3.01 10.412-6.01 15.623-8.998.351-.158.717-.28 1.092-.367a9937.111 9937.111 0 01-16.871 9.774 3.18 3.18 0 01-.546.22l-.002-.028zm35.71 27.021c1.751-.085 3.491-.201 5.238-.27 1.746-.068 3.262-.034 4.911-.082.331.012.66.043.986.093l.035.35c-.37.141-.756.235-1.15.277a464.871 464.871 0 01-8.139-.188c-.636-.025-1.269-.133-1.902-.204l.021.024zm-42.078-47.042c.7-1.064 1.423-2.112 2.109-3.19 2.058-3.24 4.099-6.486 6.155-9.718.152-.298.376-.554.652-.745-.849 1.55-1.607 3.17-2.584 4.648-1.93 2.934-3.98 5.799-6.014 8.677a1.68 1.68 0 01-.361.28l.043.048zm9.751 9.133c.63-.668 1.225-1.373 1.897-1.992a1528.06 1528.06 0 017.89-7.076 6.939 6.939 0 011.109-.703c-.57.509-1.186.987-1.695 1.512l-8.54 7.82c-.197.187-.418.357-.632.539l-.029-.1zm32.225 10.274l7.097-2.465s.146.04.434.165c-.803.375-1.65.653-2.52.825-.829.279-1.671.538-2.526.779-.837.242-1.696.46-2.53.657l.045.04zm-.618 6.865c.984-.24 1.977-.513 3-.695 1.024-.182 2.27-.304 3.591-.535a30.79 30.79 0 01-6.597 1.22l.006.01zm3.975 5.887c1.123-.146 2.235-.313 3.375-.418a22.122 22.122 0 013.422.093l-6.816.292.019.033zm-17.699-24.395l4.259-2.843a11.764 11.764 0 01-4.25 2.846l-.009-.003zm-19.95 3.593c-.833.945-1.673 1.878-2.504 2.814l2.493-2.808.011-.006zm20.173 3.024l-2.886 1.4 2.845-1.486.041.086zm-17.727 1.645l-2.689 1.795 2.687-1.787.002-.008z" fill="#868C96"/><path d="M155.262 56.902l-2.12 2.135 2.048-2.21.072.075zm-4.361 11.282l-1.496 1.115 1.499-1.096-.003-.02zm25.387 14.467l1.77-.292-1.776.282.006.01zm-26.706-19.568l-1.114 1.44c.368-.48.745-.96 1.112-1.432l.002-.008zm-17.966 24.952l-.342-.813.22-.069.125.873-.003.01zm47.734-5.833l-1.313.131 1.313-.131zm-31.303-17.276l-.791.957.791-.957zm29.304-12.325l.899-.779-.901.788.002-.009zM176.27 82.62l-1.298.108 1.3-.116-.002.008zm-19.68-40.887c-.265.334-.53.668-.803 1l.803-1zm-17.017 43.71l1.114-.453-1.112.444-.002.009zm-.011-.029l-.69.411-.072-.176.773-.205-.011-.03zm-12.518-17.462l.012.676-.103-.028.126-.675-.035.027zm63.728 11.861l-.754.034.751-.026.003-.008zM139.211 58.67c-.138.239-.265.472-.395.713.145-.228.291-.465.427-.695l-.032-.018zm48.304 36.037l-.134.019.146.04-.012-.06zm-30.907-52.942l.104-.387.12.033-.233.287.009.067zm-11.532 6.622c-.147.172-.289.355-.438.536l.427-.53.011-.006zm.386-.717l-.386.717.391-.734-.005.018zm-6.646 11.714l-.109.099.179.048-.091-.172.021.025zm11.113 3.294l.358-.373-.366.37.008.003zm-.354.43l.372-.425-.37.416-.002.009zm1.063-1.252l-.363.427a13.3 13.3 0 00.372-.425l-.009-.002zm35.691 12.274l.488-.17a7.24 7.24 0 00-.5.149l.012.022z" fill="#868C96"/><path d="M186.311 74.098c-.06-.016-.137.028-.06-.016l.085.023-.025-.007zm-11.339 8.631l-.489.18.482-.154.007-.026zm-.49.181l-.241.007.264.008-.023-.016zm-1.306.143l-.072-.075s-.014.051-.072.063l.162.044-.018-.032zM148.42 64.53l-.378.413.381-.422-.003.008zm41.598 15.318l-.574.083.595-.059-.021-.024zm-45.773-30.524l.42-.366-.369.38-.051-.014z" fill="#868C96"/><path d="M144.269 49.303l-.114.116.083.068.041-.154-.01-.03zm1.145-6.813l-.4.325.398-.316.002-.009zm41.682 24.8l-.476.064.482-.053-.006-.011zm2.348 12.642l-.094-.026.066.128.023-.085.005-.017zm-38.49-11.708l.307-.155-.305.147-.002.008zM170.726 56.8l.085.023-.068-.12-.023.086.006.011zm-19.507 11.256l.302-.166-.302.166zm-1.813 1.244l-.066.038.072-.027-.006-.011zm23.358-13.69l-.056.04.084-.005-.028-.035z" fill="#868C96"/><path d="M172.79 55.653l.302-.203-.306.183.004.02zm-3.136-7.91l.284-.134-.265.167-.019-.033zm-3.554-.687l.064-.03-.064.03zm12.15 4.766l.331-.104-.371.083.04.02zm-47.564 33.386l-.014.052.004-.082.01.03z" fill="#868C96"/><path d="M169.663 47.746l-.086-.023-.023.085.098-.056.011-.006zm-11.692 14.652l-.241.146.239-.137.002-.009zm.054.042l.284-.171-.295.177.011-.007zm.521-.402l-.278.181.291-.196-.013.015z" fill="#868C96"/><path d="M158.568 62.06l.312-.172-.344.155.032.018zm10.975 1.966l.29-.16-.293.169.003-.009zm.537-.36l-.29.16.29-.16zm4.129-2.126l-.293.168-.05-.087.293-.17.05.088zm-4.118 2.156l.355-.226c-.122.077-.242.146-.355.226zm16.169 3.864c.126-.057.252-.115.372-.184l-.372.185zm.855-.238c.103-.073.214-.145.318-.227l-.327.225.009.002zm-13.539-5.512l.29-.189.05.087-.296.178-.044-.076z" fill="#868C96"/><path d="M173.619 61.886l-.297.149.012-.043.284-.17.001.064zm-22.097 6.004l.303-.175-.301.166-.002.008zm19.062-20.669l-.311.136.32-.133-.009-.003zm.132 9.577l-.277.145.282-.162-.005.017zm-.55.339l.276-.173-.29.16.014.013zm.098-9.744l-.345.22.345-.22zM152.32 65.845l.293-.168-.293.168zm.583-.357l-.338.165.301-.166.037.001zm17.244-8.383l-.284.17.292-.168-.008-.002zm-14.255 6.427l-.29.16.301-.167-.011.007zm-.004.016c.103-.047.203-.1.299-.158l-.301.166.002-.008zm13.701-6.042l.283-.199-.3.194.017.005zM156.5 63.217l-.313.144.305-.146.008.002zm.287-.107l-.297.15.303-.139-.006-.01zm12.775-5.638l-.334.213c.111-.07.225-.15.345-.22l-.011.007zm-12.749 5.644l.293-.168-.293.168zm.579-.376l-.299.157.29-.16.009.002zm.337-.195l-.336.193.349-.208-.013.015zM66 297.451c.08-8.097.24-16.194.23-24.291 0-3.135-.38-6.235-.602-9.406a68.745 68.745 0 01-.133-12.31c.434-4.204.993-8.399 1.392-12.604.313-3.05.23-6.128-.248-9.156-.745-4.454-1.446-8.988-2.377-13.432a23.522 23.522 0 00-2.094-5.888 27.807 27.807 0 00-15.726-13.842 24.005 24.005 0 00-11.629-1.158 26.282 26.282 0 00-8.178 2.726 10.324 10.324 0 00-4.01 4.248 27.546 27.546 0 00-3.166 9.317c-.098.39-.225.771-.381 1.141h-.258c-.08-.17-.221-.33-.221-.499 0-3.171-.267-6.369.479-9.504a16.194 16.194 0 012.368-5.781 57.31 57.31 0 013.61-4.659c1.818-2.057 4.329-2.868 6.91-3.393a45.996 45.996 0 0111.85-.74c1.642.169 3.235.656 4.692 1.434a16.872 16.872 0 017.096 6.129c2.812 4.337 5.02 8.987 7.416 13.548.124.24.248.489.488.979.053-.543.097-.837.115-1.131.222-5.594.479-11.187.656-16.781.213-6.529.4-13.058.497-19.596a7.467 7.467 0 00-1.496-4.571 7.42 7.42 0 00-3.968-2.698c-1.233-.285-2.554-.169-3.814-.356-2.377-.347-4.737-.784-7.096-1.176-2.093-.347-4.187-.712-6.28-1.015-2.892-.428-5.792-.891-8.693-1.185a78.558 78.558 0 00-13.1-.454c-2.156.125-4.33.142-6.485.365-2.9.294-5.792.775-8.701 1.087a11.672 11.672 0 01-3.096-.089 1.232 1.232 0 01-1.055-.735 1.243 1.243 0 01.168-1.278c.303-.57.73-1.064 1.25-1.443a29.509 29.509 0 013.496-2.111 31.252 31.252 0 005.517-3.171 11.068 11.068 0 014.222-1.684 17.665 17.665 0 018.072-.641c.745.151 1.48.356 2.208.561.887.258 1.774.543 2.608.82l.16-.196-.808-.945c-3.805-4.373-7.096-9.058-8.985-14.608a72.396 72.396 0 01-3.388-14.064 19.068 19.068 0 01.133-7.126c.887-3.608 3.548-5.416 7.247-4.944 2.574.381 5.18.512 7.779.392 4.169-.258 7.983 1.149 11.53 3.296.817.499 1.606 1.042 2.36 1.532-.07-2.316-.23-4.596-.168-6.867a9.28 9.28 0 01.826-4.06 9.242 9.242 0 012.509-3.289 13.062 13.062 0 012.856-1.737 10.808 10.808 0 003.548-2.396c1.659-1.782 3.796-1.942 6.023-1.684a8.744 8.744 0 014.195 1.702 25.831 25.831 0 0110.006 14.519c.399 1.478.674 2.984 1.02 4.453.07.312.168.615.31 1.096.213-.401.346-.659.488-.891.683-1.229 1.304-2.503 2.076-3.67a14.309 14.309 0 014.301-4.424 14.243 14.243 0 015.757-2.194 15.675 15.675 0 005.792-2.209 13.57 13.57 0 013.824-1.683c2.714-.615 4.435 1.211 3.734 3.91a15.283 15.283 0 01-1.215 3.269c-3.548 6.921-5.322 14.359-6.582 21.992a51.621 51.621 0 01-2.838 11.58c-.79 1.933-1.774 3.794-2.661 5.683-.169.347-.364.685-.621 1.175 1.374-.285 2.572-.543 3.778-.757a37.944 37.944 0 0111.265-.098c.958.116 1.907.25 2.865.348a21.934 21.934 0 017.549 2.316 28.07 28.07 0 007.983 2.948c3.184.516 5.836 4.845 5.198 8.088a4.79 4.79 0 01-1.322 2.538 28.575 28.575 0 01-2.519 2.236c-2.59 2.031-5.233 4.008-7.832 6.039a10.61 10.61 0 01-11.319 1.461 23.666 23.666 0 01-3.548-1.853 68.129 68.129 0 00-24.144-9.192 22.277 22.277 0 00-4.053-.463 5.15 5.15 0 00-4.568 2.672 10.463 10.463 0 00-1.41 5.068c-.178 5.834-.302 11.678-.515 17.512-.133 3.501-.47 7.001-.568 10.502-.115 4.106-.23 8.23-.044 12.327.27 2.692.682 5.368 1.233 8.017.665 4.249 1.472 8.489 1.916 12.764.165 2.451.09 4.912-.222 7.349-.48 5.201-1.508 10.368-1.42 15.623.045 2.815.24 5.629.4 8.444.186 3.18.55 6.351.576 9.531 0 5.344-.097 10.689-.186 16.033 0 1.782-.142 3.563-.16 5.344.03.682.104 1.36.222 2.031l-.896-.017zm-1.534-133.895c.456-2.529.61-5.104.46-7.669-.106-1.844-.39-3.679-.593-5.523a39.023 39.023 0 00-4.604-14.385 71.675 71.675 0 00-12.418-16.096 29.126 29.126 0 00-6.014-4.605 19.833 19.833 0 00-11.23-2.939 45.62 45.62 0 01-5.162-.178c-1.162-.071-2.315-.232-3.468-.303a4.249 4.249 0 00-3.433 1.452 7.14 7.14 0 00-1.925 4.819c-.23 4.355.683 8.56 1.695 12.755a44.62 44.62 0 007.796 16.977c3.78 4.917 8.125 9.13 13.767 11.82a83.706 83.706 0 004.435 1.96 42.546 42.546 0 0010.644 2.743c3.077.333 6.188.174 9.216-.472.29-.088.57-.207.834-.356zm1.428-6.529c.887-2.316 1.774-4.819 2.776-7.26.887-2.191 1.978-4.311 2.963-6.475a42.162 42.162 0 003.77-15.383 47.027 47.027 0 00-1.934-15.748 25.15 25.15 0 00-9.482-13.46 8.29 8.29 0 00-4.435-1.7c-1.668-.116-3.389 0-4.613 1.264a14.844 14.844 0 01-4.683 3.073 8.135 8.135 0 00-3.003 2.183 8.17 8.17 0 00-1.725 3.295 19.679 19.679 0 00.053 9.683c.18.569.501 1.084.932 1.496 1.925 2.058 3.965 3.999 5.827 6.102a59.234 59.234 0 019.598 14.563 34.378 34.378 0 012.838 9.611c.408 2.948.763 5.941 1.118 8.756zm-.346 6.476c.29.077.587.122.887.133a22.113 22.113 0 0012.48-4.454 34.445 34.445 0 0012.63-19.319c1.039-4.089 1.65-8.284 2.458-12.426a62.143 62.143 0 015.437-16.692 25.72 25.72 0 001.242-2.878 6.486 6.486 0 00.417-1.87 2.036 2.036 0 00-1.273-2.186 2.007 2.007 0 00-.891-.13 4.196 4.196 0 00-1.526.249c-.87.31-1.703.717-2.484 1.212a17.615 17.615 0 01-7.007 2.672 11.94 11.94 0 00-6.209 2.984 19.39 19.39 0 00-5.446 8.551 3.971 3.971 0 00-.222 1.532c.346 3.848.692 7.687 1.118 11.526a28.79 28.79 0 01-.48 9.353 19.319 19.319 0 01-3.547 7.464c-1.322 1.782-2.75 3.465-4.178 5.157a11.937 11.937 0 00-2.661 4.935c-.266 1.087-.47 2.191-.683 3.296a5.831 5.831 0 00-.062.891zm30.77 1.692a20.6 20.6 0 002.076.187 2.982 2.982 0 012.052.532 3.004 3.004 0 011.185 1.766 36.225 36.225 0 001.615 4.151 6.163 6.163 0 002.458 2.903 6.129 6.129 0 003.688.9 8.201 8.201 0 004.915-2.004c2.51-1.942 5.038-3.857 7.539-5.807a39.935 39.935 0 002.661-2.299 4.506 4.506 0 001.277-2.672c.311-2.084-1.774-6.235-4.692-6.698a29.581 29.581 0 01-8.418-3.109 18.51 18.51 0 00-6.022-2.004c-2.981-.356-5.97-.712-8.968-.891a28.258 28.258 0 00-8.453.936 5.865 5.865 0 00-3.45 2.218 29.725 29.725 0 01-10.148 8.729 5.056 5.056 0 00-.559.436h.674c3.424-.659 6.822-1.389 10.254-1.95a20.51 20.51 0 018.87.347 9.594 9.594 0 012.129.802 1.436 1.436 0 01.873 1.099 1.45 1.45 0 01-.474 1.323c-.337.303-.639.615-1.082 1.105zm-53.22-2.672l.053-.187a4.945 4.945 0 00-.603-.33 41.024 41.024 0 01-11.336-6.752 4.652 4.652 0 00-2.839-1.202 26.36 26.36 0 00-4.195.098 22.778 22.778 0 00-7.797 2.672 18.085 18.085 0 01-8.329 2.013 12.496 12.496 0 00-4.825.891 1.934 1.934 0 00-1.127.774c-.27.387-.389.859-.337 1.328a4.416 4.416 0 002.768.347c1.703-.249 3.388-.668 5.1-.81 3.755-.315 7.516-.555 11.283-.722a95.134 95.134 0 0119.85 1.577c.773.116 1.544.187 2.316.303h.018zm62.09 13.058c-1.951-1.595-2.838-3.715-3.548-5.977-.222-.73-.532-1.434-.807-2.147a2.011 2.011 0 00-1.774-1.398c-.843-.071-1.685-.116-2.52-.205-.3-.056-.596-.13-.886-.223-.062-1.327 1.472-1.585 1.552-2.672-.213-.793-.887-.962-1.552-1.176a20.641 20.641 0 00-9.757-.641c-2.537.374-5.038.891-7.558 1.363-1.774.329-3.548.695-5.322 1.042 1.393.347 2.777.526 4.152.793a67.801 67.801 0 0123.186 8.961c1.153.721 2.404 1.3 3.619 1.915.39.144.79.26 1.197.347l.018.018zm-45.911 28.574l.186-.089c-.284-.605-.541-1.238-.887-1.781-1.197-2.049-2.475-4.053-3.646-6.119a13.12 13.12 0 00-4.586-4.695 14.602 14.602 0 00-6.794-2.592 42.782 42.782 0 00-11.371.704 12.254 12.254 0 00-7.096 3.563c-3.211 3.563-5.429 7.562-5.89 12.417a5.363 5.363 0 00.213 2.832c.5-2.229 1.35-4.363 2.519-6.324a21.92 21.92 0 013.796-5.415c4.577-4.24 10.032-5.657 16.117-4.926a19.154 19.154 0 017.281 2.369 19.245 19.245 0 015.785 5.033c1.446 1.692 2.945 3.349 4.373 5.023zM25.81 197.68a7.98 7.98 0 01.967-.446 71.762 71.762 0 017.646-2.494c3.548-.748 7.096-.204 10.644.579a24.179 24.179 0 019.118 4.454l1.366 1.033c-8.196-12.158-23.772-10.314-29.723-3.126h-.018zm50.56-68.711h-.302a97.421 97.421 0 00-.249 1.781c-.124.891-.213 1.835-.381 2.744a48.554 48.554 0 01-3.814 11.579c-1.33 2.931-2.59 5.888-3.868 8.845a9.08 9.08 0 00-.337 1.105l.222.124c1.517-1.861 3.051-3.714 4.55-5.584a21.313 21.313 0 004.613-13.798c.035-2.307-.249-4.551-.4-6.796h-.035zm-49.913 24.183c-.78-.276-1.295-.499-1.827-.632a14.513 14.513 0 00-6.43-.125c-2.866.588-5.704 1.265-7.984 3.305a8.37 8.37 0 01-1.88 1.042c-1.002.508-2.022.971-3.025 1.47a8.44 8.44 0 00-.834.579c1.162-.143 2.103-.339 3.052-.366a19.724 19.724 0 008.55-2.066 40.878 40.878 0 015.881-2.369 36.14 36.14 0 014.497-.838z" fill="#868C96"/><path d="M52.748 131.534c1.083 1.684 2.236 3.323 3.22 5.068a92.923 92.923 0 016.458 13.308 47.67 47.67 0 012.528 10.742 24.714 24.714 0 010 3.038 3.847 3.847 0 002.66-1.408c.959-1.078 1.837-2.236 2.75-3.349.222-.276.462-.525.701-.793-.33.723-.703 1.425-1.118 2.102-.585.891-1.26 1.666-1.924 2.468a4.435 4.435 0 01-3.123 1.612c-1.392.116-2.794.276-4.186.267a34.371 34.371 0 01-12.844-2.601c-9.482-3.919-16.676-10.395-22.033-19.061a5.806 5.806 0 01-.31-.766c.265.356.55.685.78 1.051 5.836 9.103 13.704 15.668 23.949 19.177a33.527 33.527 0 0010.351 1.782c.336.009.67-.058.976-.196-.657-.241-1.322-.464-1.97-.731a25.576 25.576 0 01-7.645-5.157 63.85 63.85 0 01-11.097-14.27 92.809 92.809 0 01-7.823-16.923 10.55 10.55 0 01-.275-1.158c.32.73.647 1.451.94 2.191a92.874 92.874 0 0013.474 24.139 41.165 41.165 0 009.96 9.388 15.744 15.744 0 006.21 2.44c.346.054.7.054 1.189.09a18.494 18.494 0 000-3.777 46.303 46.303 0 00-3.957-13.593 140.078 140.078 0 00-7.096-13.708c-.257-.437-.452-.891-.674-1.39l-.07.018z" fill="#868C96"/><path d="M68.147 115.581c.47 1.684 1.046 3.349 1.392 5.06a69.39 69.39 0 011.171 14.527c0 2.673-.355 5.282-.612 7.928-.168 1.701-.452 3.385-.683 5.086l.24.053c.47-1.781.966-3.563 1.419-5.415a45.05 45.05 0 001.34-9.406 38.912 38.912 0 00-.178-5.184c-.222-2.316-.577-4.623-.887-6.93a45.188 45.188 0 00-3.034-11.117c-.984-2.414-1.916-4.845-2.66-7.348 1.02 2.414 2.04 4.828 3.077 7.233a44.279 44.279 0 013.282 12.416c.346 3.029.754 6.066.887 9.113a34.158 34.158 0 01-.488 6.716c-.461 2.805-1.144 5.576-1.862 8.328a26.475 26.475 0 01-1.517 3.411c-.178.446-.302.891-.435 1.363a13.214 13.214 0 01-1.038 2.672c.39-1.843.887-3.678 1.162-5.531.444-2.61.754-5.246 1.153-7.856.657-4.213.408-8.444.195-12.666a57.174 57.174 0 00-1.773-11.411c-.09-.347-.125-.703-.187-1.06l.036.018zm22.175 10.609c-.257 1.372-.488 2.743-.772 4.115a78.56 78.56 0 01-4.062 14.074 45.263 45.263 0 01-10.112 15.276 22.348 22.348 0 01-8.498 5.077 7.121 7.121 0 01-.949.187c.284-.232.364-.339.47-.374 5.154-1.782 9.039-5.211 12.32-9.469a53.185 53.185 0 008.942-18.384c.975-3.456 1.712-6.993 2.563-10.484l.098-.018zm-42.186 33.411a33.441 33.441 0 01-6.883-4.605 62.351 62.351 0 01-19.62-27.96 21.5 21.5 0 01-.985-4.32c.23.695.487 1.39.7 2.093a61.922 61.922 0 0012.418 22.135 58.49 58.49 0 0013.89 12.194c.175.145.333.31.471.49l.009-.027zm62.862.25c-2.191-.437-4.382-.891-6.573-1.301a47.104 47.104 0 00-12.418-.739 52.787 52.787 0 00-13.775 2.93c-.417.143-.816.321-1.224.49-.408.169-.79.339-1.189.517l-.124-.241a12.69 12.69 0 011.818-.944c2.502-.846 4.985-1.781 7.531-2.396a43.306 43.306 0 0114.077-.944 49.653 49.653 0 0110.901 2.155c.324.133.638.288.94.464l.036.009z" fill="#868C96"/><path d="M74.675 156.439c.086-.265.196-.521.328-.766 3.548-5.594 5.704-11.74 7.407-18.091A94.022 94.022 0 0085 124.497c.381-3.188.452-6.413.656-9.486a65.41 65.41 0 01-.612 12.087 95.742 95.742 0 01-5.082 19.392 51.426 51.426 0 01-4.63 9.112 8.233 8.233 0 01-.675.819l.018.018zm-21.945-8.961c-.23-.409-.496-.81-.691-1.238a966.196 966.196 0 01-4.107-8.97c-2.839-6.235-6.803-11.695-10.884-17.119-.479-.633-.931-1.292-1.392-1.933.415.363.8.759 1.153 1.184 2.66 3.626 5.322 7.224 7.85 10.939a43.04 43.04 0 013.255 5.878c1.579 3.332 3.016 6.725 4.506 10.101.137.372.247.753.328 1.14l-.017.018zm4.835-45.944c.39.686.887 1.345 1.17 2.067a86.57 86.57 0 016.343 18.135c.683 3.331 1.1 6.716 1.596 10.083.169 1.149.204 2.316.302 3.447-.55-3.5-1.073-7.027-1.668-10.537a54.52 54.52 0 00-2.66-10.341c-1.526-4.053-3.203-8.017-4.808-12.07-.107-.258-.169-.525-.258-.793l-.017.009zm1.933 29.457c-.887-2.058-1.862-4.089-2.66-6.173a183.683 183.683 0 01-6.325-18.313 25.978 25.978 0 01-.887-4.454c.222.704.461 1.407.656 2.12A247.682 247.682 0 0058.7 128.63c.302.784.523 1.595.79 2.397l.008-.036zM43.95 162.888a63.534 63.534 0 00-29.76-3.127c8.524-2.146 24.686-.035 29.76 3.127zm71.909-6.467c-.453-.151-.887-.267-1.357-.454a34.404 34.404 0 00-11.008-2.672 53.32 53.32 0 00-7.912-.178 50.877 50.877 0 00-6.564 1.282c-.145.011-.29.011-.435 0a15.05 15.05 0 014.08-1.256 35.354 35.354 0 0110.875-.285 34.506 34.506 0 0111.079 2.904c.426.205.816.472 1.224.713l.018-.054zM45.28 125.219a7.02 7.02 0 01-.532-.624 141.713 141.713 0 00-8.622-11.633 1.142 1.142 0 01-.302-.748c.213.098.488.125.639.285a28.822 28.822 0 011.836 2.076 72.946 72.946 0 016.564 9.682c.158.319.291.649.399.989l.018-.027zm-18.521 1.897c-.373-.739-.79-1.461-1.091-2.236a67.196 67.196 0 01-3.37-11.018 16.497 16.497 0 01-.134-1.995l.293-.08c.149.237.262.495.337.766.39 4.115 1.774 7.954 3.06 11.846l.887 2.744.018-.027zm69.825 28.486c-2.51.267-5.011.499-7.513.793a25.918 25.918 0 00-8.932 2.565.48.48 0 01-.506 0c.462-.267.887-.57 1.393-.793a26.62 26.62 0 018.054-2.209 40.675 40.675 0 017.504-.356zm21.058 15.89c-3.841-2.984-8.365-4.391-12.951-5.745 4.471.276 11.647 3.385 12.951 5.745zm-70.695-59.019c.48 1.318.976 2.627 1.42 3.946a31.617 31.617 0 004.186 8.372c.317.424.54.909.657 1.426-.453-.571-.888-1.132-1.358-1.72a29.19 29.19 0 01-4.878-12.051l-.027.027zm-32.766 45.053a33.4 33.4 0 0115.479 0c-2.582-.205-5.154-.561-7.735-.57-2.581-.009-5.163.383-7.744.57z" fill="#868C96"/><path d="M82.339 130.741a117.08 117.08 0 001.446-19.213c0 1.034.124 2.067.133 3.1.008 1.033 0 2.174-.054 3.26-.168 2.761-.301 5.532-.603 8.284a42.593 42.593 0 01-.94 4.543l.018.026zm10.724-14.153c.15-1.835.346-3.626.417-5.425.07-1.799 0-3.563 0-5.344.842 1.06.576 7.001-.417 10.769zM55.941 106.05a4.86 4.86 0 01-.585-.837 214.396 214.396 0 01-2.013-4.997 5.605 5.605 0 01-.169-1.167c.94.891 2.173 4.231 2.74 7.028l.027-.027zm-19.327 52.803a5.599 5.599 0 01-.683-.205 39.131 39.131 0 00-9.66-3.064.803.803 0 01-.532-.347c1.323.208 2.634.484 3.93.828 1.968.615 3.902 1.381 5.845 2.111.384.193.75.423 1.09.686l.01-.009zm-10.6-40.181a16.522 16.522 0 01-1.774-6.796c.887.445.568 1.345.798 2.022.228.807.405 1.629.532 2.458.16.775.302 1.559.453 2.343l-.01-.027zm90.102 40.902c3.362 1.096 6.484 2.601 8.87 5.345a24.645 24.645 0 00-6.706-4.338l-2.12-1.033-.044.026zm-4.337 6.565c2.873.65 5.685 1.434 7.921 3.759-.258.053-.364.107-.391.08-1.774-1.728-3.991-2.458-6.209-3.322-.443-.17-.887-.366-1.313-.553l-.008.036zm-63.883-26.357a7785.15 7785.15 0 01-3.982-6.725c-.204-.338-.373-.703-.55-1.051.07 0 .177.045.213.098a933.829 933.829 0 014.293 7.171c.07.115 0 .311 0 .472l.026.035zm59.776 31.399c-.887-.419-1.703-.891-2.573-1.256-1.126-.49-2.27-.891-3.432-1.381 1.374-.08 4.594 1.363 5.987 2.672l.018-.035zm-44.785-53.195l-1.677-4.721c-.24-.677-.496-1.345-.745-2.022a20.733 20.733 0 012.36 6.743h.062zm28.819-11.08c.114.743.186 1.492.212 2.244a19.58 19.58 0 01-.239 2.227c-.089-1.514-.186-2.993-.275-4.454l.302-.017zm-68.85 29.973c.31.587.648 1.166.94 1.781a225.368 225.368 0 011.73 3.563 19.449 19.449 0 01-2.66-5.344h-.01zm13.749 21.983l2.093 1.238-2.111-1.229.018-.009zm20.96-57.337l-.825-1.238.222-.115.603 1.362v-.009zM22.218 134.83l-.754-1.407.213-.09.514 1.533.027-.036zm13.438-16.612l-.887-1.247.887 1.238v.009z" fill="#868C96"/><path d="M62.825 117.986l.443 1.185-.16.044-.257-1.247-.026.018zm10.644 40.136l.727-.89-.727.89zM42.903 131.24l-.754-.89.745.89h.009zm-19.993 5.621a46.72 46.72 0 00-.497-1.185c.16.401.328.793.496 1.185zm11.256-20.336l-.462-.516.142-.089.293.632.026-.027zm40.057 40.653l.452-.775-.461.766.009.009zm-28.403-31.3l-.54-.659c.177.214.355.436.54.65v.009zm-2.944 5.389l.461.757-.461-.766v.009zm9.899.24l-.515-.685.515.685zm37.697-6.449h-.053l.053-.115v.115zm-38.212 5.764l-.514-.695.514.695zm-10.537-1.256l.408.819-.4-.775-.008-.044zm9.881-.063l-.364-.187.08-.089.266.303.018-.027zm56.751 42.194l-.683-.516.674.516h.009zM22.19 134.91c.054.276.107.552.17.828l-.16-.846-.01.018zm33.725-28.833l.142.365h-.116v-.409l-.026.044zm12.036 8.756l.196.748-.196-.739v-.009zm43.854 51.253c-.115 0-.23-.054-.115 0-.098-.071 0 0 .088.053l.027-.053zM92.876 117.63l-.053-.018.036-.08.017.098zm21.776 41.508l.657.258-.657-.258zm-67.678-46.693c-.053-.088-.106-.186-.062-.097v.124l.062-.027zm69.16 47.112l-.799-.196.808.178-.009.018zm-4.4.552l-.736-.276.745.222-.009.054z" fill="#868C96"/><path d="M111.708 160.082l.132.08v-.169l-.132.115v-.026zm-39.942-3.439l.106-.097-.16-.08v.16l.053.017zm37.121 15.215l-.532-.161.532.161zM38.698 160.1l.55.205-.523-.241-.027.036zm9.935-.249l-.488-.214.496.196-.008.018zm67.678-3.171l-.452-.259.434.267.018-.008z" fill="#868C96"/><path d="M71.757 156.626l-.249.472.24-.472h.009zm44.519.08l.523.214-.497-.258-.026.044zm-1.597 2.397l-.115-.099.089.134.026-.035zm-41.521-.758v.133l.044-.106-.044-.027zm-1.65-1.247a8.491 8.491 0 00-.274.472l.266-.481.008.009zm-.274.472l-.187.553.195-.544-.008-.009zm-25.2-31.202l-.213-.49.213.499v-.009zm.204.525c-.071-.178-.133-.365-.204-.552.07.178.15.348.23.526l-.026.026zm-20.251-8.194l.053.044v-.071l-.053.027zm1.02 8.871l-.248-.454c.089.152.177.303.275.454h-.027zm0 .027l.071.365-.07-.392v.027zm33.201-16.852l.24.472-.24-.472zm.018-.018l-.23-.49.239.481-.01.009zm-8.48 19.4l-.142-.624.133.624h.009zm8.249-19.89h-.044v.062l.044-.062zm-.248 21.226l-.249-.472.293.472h-.044zm.017.027l-.044.142h.089l-.062-.142h.017zm-25.625-14.938l.292.195-.292-.195zm.301.196l.283.249-.291-.249h.008zm74.42 55.136l.204.258-.204-.267v.009zm.204.259l.275.258-.257-.294-.018.036zm.275.258l.071.089v-.08h-.071v-.009zm-60.742-12.586l.07.035-.043-.035h-.027zM32.774 125.7l-.063-.018.036.045.027-.027zm40.411 32.671l.31-.249-.31.249zM41.75 129.548l-.08-.018.053.009.026.009z" fill="#868C96"/></g></svg>