<svg width="423" height="510" fill="none" xmlns="http://www.w3.org/2000/svg"><g opacity=".85" fill="#868C96" clip-path="url(#a)"><path opacity=".85" d="M503.4 31.972c-.782-.173-1.246.275-1.746.639-4.081 2.868-8.151 5.826-12.229 8.613a270.69 270.69 0 01-31.982 19.117 159.91 159.91 0 01-17.187 7.32 330.517 330.517 0 00-38.06 17.103c-8.125 4.124-16.244 8.274-24.419 12.266a208.747 208.747 0 01-36.127 13.411 559.903 559.903 0 01-71.45 15.182c-3.602.61-7.283.577-10.874-.097a10.472 10.472 0 01-6.558-4.003 14.026 14.026 0 01-1.473-2.785 26.263 26.263 0 01-.865-2.71 28.866 28.866 0 00-11.253-15.549 147.74 147.74 0 00-12.947-8.12c-5.773-3.284-11.449-6.702-17.018-10.31a260.613 260.613 0 01-29.88-23.656c-5.89-5.214-11.953-10.233-18.314-14.878a35.158 35.158 0 00-7.235-4.284 10.122 10.122 0 00-10.98 1.413 8.75 8.75 0 00-2.582 10.648 31.866 31.866 0 006.001 9.065c1.846 1.908 3.759 3.77 5.76 5.516a7.982 7.982 0 012.724 5.736c.003.19-.007.38-.03.569l-1.331-.57a88.378 88.378 0 00-14.939-5.904 34.29 34.29 0 00-29.569 5.087 16.825 16.825 0 00-7.178 11.55 8.637 8.637 0 00.611 5.035c.393.983.848 1.941 1.362 2.867a8.573 8.573 0 011.042 6.118 44.802 44.802 0 00-1.018 9.885c.039 1.697.16 3.398.337 5.11a14.046 14.046 0 006.309 10.182c1.302.95 2.831 1.611 4.397 2.502-.072.126-.06.51-.136.864a47.447 47.447 0 00-1.209 9.19 26.014 26.014 0 001.283 9.374c.616 1.899 1.389 3.741 2.095 5.628l.322.832a5.286 5.286 0 01-.451.351 20.31 20.31 0 00-9.425 14.1 18.754 18.754 0 002.864 14.396 29.362 29.362 0 007.952 8.103c1.171.812 2.308 1.648 3.496 2.429a8.075 8.075 0 012.543 2.89c1.094 1.941 2.163 3.889 3.417 5.733a33.563 33.563 0 0014.747 11.948c.316.18.662.272 1.014.388l.951.353.343.907c.56 1.7 1.146 3.394 1.649 5.124.1.449.086.916-.041 1.358a19.3 19.3 0 01-.7 1.966 7.49 7.49 0 001.263 7.311 5.72 5.72 0 006.017 2.231 12.858 12.858 0 005.862-2.943 46.266 46.266 0 006.847-7.176 1040.68 1040.68 0 0012.26-16.212c4.578-6.206 9.032-12.524 14.102-18.345a87.833 87.833 0 0110.001-9.923 42.022 42.022 0 016.256-4.372c4.355-2.502 8.658-5.098 13.029-7.592 2.219-1.249 4.505-2.397 6.775-3.553a75.187 75.187 0 0014.045-8.752 36.523 36.523 0 007.542-7.993 13.096 13.096 0 001.842-4.414 6.578 6.578 0 012.263-3.756 21.462 21.462 0 013.996-2.645 61.101 61.101 0 017.016-2.726 71.914 71.914 0 0111.606-2.625 551.788 551.788 0 0070.506-15.657 226.877 226.877 0 0040.745-16.413 3720.342 3720.342 0 0126.218-13.293 224.734 224.734 0 0125.084-10.968 216.692 216.692 0 0046.698-24.117c4.722-3.11 9.345-6.34 13.983-9.561 1.345-.93 2.578-2.028 3.839-3.068.313-.366.676-.746.192-1.44zM146.61 137.467c4.345-.939 8.669-1.953 13.033-2.777 11.74-2.235 23.683-3.686 35.642-4.834a143.27 143.27 0 0127.151-.101 108.08 108.08 0 0122.516 3.959 6.75 6.75 0 012.978 1.317 19.684 19.684 0 01-2.263 1.475 30.945 30.945 0 01-10.391 3.212c-5.937.651-11.913.873-17.883.666a446.21 446.21 0 00-7.32-.272 144.928 144.928 0 00-35.31 2.741c-3.529.755-6.991 1.799-10.471 2.728-.326.103-.643.23-.95.38.224.09.471.097.7.022a138.812 138.812 0 0114.357-3.154 153.021 153.021 0 0131.462-1.938 172 172 0 0019.976.106.699.699 0 01.237.135l-.063.111-.618.13c-3.8.815-7.641 1.424-11.507 1.824-3.906.352-7.825.801-11.74 1.168a89.731 89.731 0 00-24.644 6.111 59.27 59.27 0 01-5.907 1.955 302.33 302.33 0 01-9.808 2.518 324.686 324.686 0 01-32.435 5.487c-1.468.19-3.003.384-4.244.432-.988-1.023-1.821-1.915-2.721-2.762-.9-.847-1.759-1.545-2.656-2.286a16.38 16.38 0 01-4.389-5.239c-1.05-2.167-1.908-4.413-2.824-6.629-.095-.054-.034-.271-.046-.508 1.502-.652 2.904-1.424 4.505-1.957 3.216-1.163 6.469-2.242 9.698-3.355l1.015-.386-.116-.275a80.075 80.075 0 00-15.435 5.344 27.777 27.777 0 01-1.153-6.327 174.488 174.488 0 0149.492-10.222 3.622 3.622 0 00-1.165-.161c-2.844.14-5.68.158-8.499.438a164.996 164.996 0 00-38.72 8.734c-.325.129-.647.217-1.152.369a41.368 41.368 0 012.898-15.47c.354-.07.74-.123 1.137-.232l5.382-1.437a246.628 246.628 0 0150.58-7.72 185.354 185.354 0 0132.693 1.086 100.483 100.483 0 0127.305 6.913 43.236 43.236 0 0110.352 6.204 30.373 30.373 0 013.698 3.841 4.05 4.05 0 01.694 3.932c-.728-.708-1.33-1.343-1.915-1.823a35.638 35.638 0 00-9.744-5.543 54.698 54.698 0 00-11.475-3.014 136.279 136.279 0 00-29.291-1.032c-.392.028-.796.112-1.191.18 2.352.062 4.676.024 6.992.002 7.716-.189 15.434.295 23.067 1.446a50.625 50.625 0 0112.481 3.419 71.483 71.483 0 017.562 4.114 8.097 8.097 0 012.999 3.046l-.599.684a19.964 19.964 0 00-2.25-.903c-2.771-.76-5.519-1.634-8.326-2.184a145.635 145.635 0 00-37.293-2.384c-9.753.729-19.343 1.907-28.977 3.311a174.566 174.566 0 00-22.053 4.425c-1.062.358-2.041.68-3.058.96zm102.664-.457a1.308 1.308 0 01.236 1.536 14.366 14.366 0 01-1.195 2.689 30.901 30.901 0 01-6.573 7.248 70.327 70.327 0 01-14.714 9.375c-3.184 1.62-6.381 3.192-9.558 4.837a89.155 89.155 0 00-16.183 10.339 24.049 24.049 0 01-2.984 2.006c-5.451 3.177-10.907 6.142-16.294 9.356a106.196 106.196 0 00-24.887 20.078 75.052 75.052 0 00-8.295 10.641c-.234.411-.603.766-.918 1.173a35.999 35.999 0 01-3.084-11.214 157.254 157.254 0 0123.616-19.022 116.953 116.953 0 00-23.741 18.176 9.214 9.214 0 01.01-5.059 39.225 39.225 0 014.239-9.328 48.86 48.86 0 0114.675-15.194 74.368 74.368 0 0111.011-5.811 94.024 94.024 0 0017.137-9.88c3.162-2.282 6.423-4.444 9.78-6.406a67 67 0 0121.668-8.202c2.845-.474 5.721-1.077 8.582-1.689a78.442 78.442 0 0014.412-4.356.484.484 0 01.17-.231.468.468 0 01.546-.008.47.47 0 01.036.753.471.471 0 01-.545.043c-1.543 1.424-3.034 2.941-4.67 4.27a71.74 71.74 0 01-15.272 9.288 2163.708 2163.708 0 01-30.679 14.104 249.261 249.261 0 00-26.312 13.533 86.113 86.113 0 00-10.494 7.402c-.367.315-.696.672-1.04 1.02l.19.108a248.42 248.42 0 012.968-2.162 157.878 157.878 0 0123.268-13.591c7.679-3.709 15.477-7.183 23.222-10.75 7.111-3.299 14.205-6.567 21.287-9.925a59.453 59.453 0 0019.996-14.72c.114-.156.245-.299.389-.427zm-75.065-34.507l-.126.221-1.377.138a52.514 52.514 0 00-12.151 2.148 3.842 3.842 0 01-1.709.095 94.97 94.97 0 01-4.739-.834 48.826 48.826 0 00-16.625-.586 26.749 26.749 0 00-10.596 3.536 3.643 3.643 0 01-2.655.582l-8.912-1.597-.736-.104c.325.31.722.536 1.155.656a49.127 49.127 0 008.216 1.641c.158.09.386.094.7.168a31.278 31.278 0 00-9.501 13.534 5.977 5.977 0 01-.955-.272 15.338 15.338 0 01-4.448-2.928 8.15 8.15 0 01-2.703-6.288 21.137 21.137 0 014.171-13.072 50.76 50.76 0 003.152-4.84 9.704 9.704 0 00.765-9.108 45.045 45.045 0 01-1.736-5.635 13.924 13.924 0 01-.49-3.334 9.258 9.258 0 012.177-6.254 40.346 40.346 0 016.787.325 118.33 118.33 0 0121.41 4.543 80.762 80.762 0 0112.524 5.034 2.141 2.141 0 011.141 1.234 32.327 32.327 0 003.739 7.632c.113.21.213.428.299.652-5.121-1.156-10.156-2.389-15.218-3.427a84.959 84.959 0 00-15.528-1.929.55.55 0 00.333.19 187.302 187.302 0 0130.309 6.048 2.895 2.895 0 011.58 1.087c.858 1.179 1.792 2.297 2.693 3.437l.507.728a107.522 107.522 0 00-24.457-3.346c.082.15.087.216.112.21l.954.124a119.76 119.76 0 0123.433 3.747 5.88 5.88 0 011.771 1.008c1.332 1.009 2.618 2.097 3.94 3.121a31.48 31.48 0 012.794 1.715zm75.049 16.541a35.525 35.525 0 00-4.581-5.159 64.465 64.465 0 00-14.143-9.366c-2.164-1.127-4.41-2.111-6.659-3.015-3.271-1.316-6.542-2.633-9.88-3.758a123.033 123.033 0 00-14.818-4.057 98.296 98.296 0 00-21.689-2.359l-1.12.054c.143.12.327.18.513.166a117.06 117.06 0 0120.561 2.428 128.252 128.252 0 0122.58 6.569c2.84 1.155 5.67 2.326 8.413 3.615a77.105 77.105 0 019.63 5.374 46.69 46.69 0 017.693 6.24 18.181 18.181 0 013.152 4.284c.206.41.397.812.057 1.225a.946.946 0 01-1.189.287 11.252 11.252 0 01-2.336-1.12c-2.115-1.434-4.118-2.992-6.242-4.41a64.291 64.291 0 00-13.057-6.822 108.283 108.283 0 00-21.584-5.856 103.737 103.737 0 00-25.28-1.052 4.244 4.244 0 01-2.723-.587l-4.61-2.937a8.404 8.404 0 01-.716-.617l.116-.206a215.339 215.339 0 0131.093 1.765 129.039 129.039 0 00-15.965-1.968 137.035 137.035 0 00-16.268-.257c-4.938-4.421-7.467-13.666-6.706-18.905.445.065.917.082 1.368.172 5.471 1.02 10.941 2.04 16.383 3.147 6.062 1.231 12.093 2.591 17.985 4.416 3.578 1.072 7.275 2.339 10.857 3.624a83.505 83.505 0 018.192 3.3c3.638 1.777 7.149 3.775 10.696 5.71l3.717 2.115c2.489 1.625 5.002 3.243 7.393 5.001a64.31 64.31 0 015.446 4.522 13.247 13.247 0 013.721 8.437zm-127.682 50.095l-.053-.239c-.455.089-.904.203-1.347.342-3.266 1.351-6.52 2.715-9.761 4.094-.325.129-.643.283-1.06.464a18.493 18.493 0 01.569-13.216 19.176 19.176 0 017.67-9.323c.828 1.12 1.498 2.15 2.295 3.105.796.956 1.658 1.76 2.623 2.749a15.572 15.572 0 00-4.976 2.086l5.781-1.586 3.109 2.815a2.926 2.926 0 01.998 2.221c.08 1.845.192 3.709.404 5.545a18.652 18.652 0 005.999 11.534c.597.535 1.253.999 1.956 1.385a14.807 14.807 0 008.259 1.602l1.243-.088c-.536 1.788-1.015 3.44-1.542 5.066a2.237 2.237 0 01-.748.872c-2.465 1.757-4.944 3.465-7.426 5.213-.099.174-.349.283-.511.421a41.645 41.645 0 008.374-5.114 56.838 56.838 0 00.173 19.604c-.608-.22-1.003-.299-1.344-.472a33.308 33.308 0 01-7.5-4.665 35.976 35.976 0 01-9.126-11.743 10.302 10.302 0 00-3.846-4.281l-1.903-1.292a29.304 29.304 0 01-7.708-7.169c-.236-.322-.446-.651-.747-1.116l7.092-3.708a32.355 32.355 0 00-7.527 3.147l-1.552-2.976 12.132-5.277zm79.373-90.598a2.686 2.686 0 01-.474-.124c-3.48-1.98-7.085-3.738-10.556-5.734-2.91-1.656-5.722-3.486-8.551-5.284a146.473 146.473 0 01-5.239-3.525c-2.325-1.616-4.624-3.28-6.932-4.927-2.308-1.648-5.148-3.537-7.603-5.478-3.355-2.64-6.604-5.431-9.887-8.199-.974-.826-1.904-1.732-2.851-2.606l-.099.174c.099.21.217.41.351.598l1.303 1.39A107.06 107.06 0 00163.017 55.2c4.43 3.253 9.034 6.459 13.509 9.78 3.915 2.834 8.024 5.401 12.249 7.91 3.859 2.196 7.735 4.401 11.648 6.502l8.717 4.771.759.432c5.331 3.18 10.6 6.43 15.969 9.505a138.832 138.832 0 0112.737 8.084 26.87 26.87 0 016.106 5.902l.645 1.036c-1.338-.886-2.514-1.911-3.786-2.802a353.932 353.932 0 00-8.512-5.722c-1.882-1.218-3.868-2.327-5.829-3.443l-6.058-3.447c-1.74-.99-3.624-1.727-5.418-2.621l-16.75-8.317c-8.454-4.203-16.937-8.318-25.364-12.569-7.618-3.832-15.207-7.753-22.683-11.65a33.58 33.58 0 01-4.438-2.798 14.56 14.56 0 01-4.686-6.852 5.585 5.585 0 011.111-6.002 8.549 8.549 0 019.736-2.391 27.727 27.727 0 016.912 3.932 200.762 200.762 0 0117.025 13.684c6.225 5.51 12.494 10.939 18.989 16.12l5.344 4.297zm46.481 47.102l-.09.158a3.401 3.401 0 01-.477-.376 32.733 32.733 0 00-5.701-4.185 60.568 60.568 0 00-10.296-4.792 98.142 98.142 0 00-11.955-3.349 155.617 155.617 0 00-30.624-3.214 233.427 233.427 0 00-68.813 9.442l-1.256.332c.059-.234.134-.464.224-.689a27.274 27.274 0 017.891-9.343 25.697 25.697 0 0111.245-4.234 48.393 48.393 0 0116.623.627c1.54.311 3.08.622 4.635.796a5.851 5.851 0 002.464-.21 35.705 35.705 0 016.27-1.414 148.564 148.564 0 0119.982-1.375 103.243 103.243 0 0130.697 4.595 79.838 79.838 0 0114.689 5.867c1.866 1.062 3.678 2.218 5.527 3.312a34.222 34.222 0 018.062 6.805c.311.395.602.805.871 1.229l.032.018zm-63.877 66.453l-.405.712c-3.252 4.428-6.457 8.883-9.633 13.25-3.175 4.367-6.777 8.93-10.248 13.338a38.57 38.57 0 01-6.266 6.376 10.913 10.913 0 01-4.584 2.206 4.167 4.167 0 01-4.47-1.602 5.938 5.938 0 01-1.085-5.452 15.75 15.75 0 011.482-3.635 46.57 46.57 0 013.438-5.159 102.556 102.556 0 0118.241-18.628 193.278 193.278 0 0125.958-16.183c.244-.096.496-.169.753-.22-.448.456-.714.703-.948.967l-7.871 8.644a24.974 24.974 0 01-2.621 2.694 166.355 166.355 0 00-27.835 28.425 2.72 2.72 0 00-.801 1.407 176.44 176.44 0 0126.863-27.158l.032.018zm-38.555 2.738l-.189-.108c.044-.372.057-.763.11-1.151a39.468 39.468 0 015.291-15.26 56.366 56.366 0 0114.923-16.623 79.93 79.93 0 0136.294-15.031c3.599-.548 7.227-.89 10.86-1.313.304-.026.609-.034.914-.024a2.899 2.899 0 01-1.127.656 69.009 69.009 0 00-13.152 6.371c-2.842 1.794-5.63 3.64-8.359 5.603a89.178 89.178 0 01-15.46 8.993c-2.162.967-4.318 1.959-6.421 3.043a49.094 49.094 0 00-23.155 23.805c-.198.348-.387.68-.56 1.021l.031.018zm-15.932-33.341a282.997 282.997 0 0045.802-7.969c-.881.629-1.769 1.086-2.705 1.663a63.64 63.64 0 00-14.057 10.502 8.757 8.757 0 01-3.841 2.335 163.644 163.644 0 01-17.072 4.245l-1.493.344.052.239a132.312 132.312 0 0019.385-4.227 66.21 66.21 0 00-8.026 12.008 16.78 16.78 0 01-6.876.273 9.424 9.424 0 01-4.861-2.054 18.664 18.664 0 01-4.417-5.778 28.718 28.718 0 01-1.922-11.599l.031.018zm28.841-98.527l.664.378 24.617 12.374 6.236 3.171 17.938 8.95 1.028.586c-14.646-4.985-29.726-7.81-44.95-10.382a22.594 22.594 0 00-1.059-8.074 22.289 22.289 0 00-4.521-7.03l.047.027zm-43.545 6.616c-.117.205-.058.323-.189.332a11.24 11.24 0 00-2.28 8.497 31.63 31.63 0 00.811 3.726c.457 1.662 1.006 3.272 1.547 4.898a6.948 6.948 0 01-.033 5.026 26.776 26.776 0 01-1.798 3.601c-1.061 1.866-2.43 3.536-3.523 5.383a41.708 41.708 0 00-2.382 4.923 23.169 23.169 0 00-.924 3.095 2.065 2.065 0 01-.234-.949c.045-2.214.033-4.439.2-6.646.135-1.744.463-3.462.735-5.19a9.752 9.752 0 00-1.185-6.64c-.505-.915-1.015-1.895-1.378-2.876a7.276 7.276 0 01-.544-4.16 14.966 14.966 0 015.631-9.897 50.71 50.71 0 014.714-2.948c.245-.092.497-.166.753-.22l.079.045zm41.914 10.16a104.51 104.51 0 00-40.6-9.894 4.948 4.948 0 012.67-2.08 32.231 32.231 0 0119.659-.513 127.229 127.229 0 0116.873 6.628l1.458 5.496s-.009.163-.06.364zM147.17 58.95l.09-.158 4.032 2.776a39.936 39.936 0 015.85 4.437 13.485 13.485 0 014.31 8.836c.07.981.205 1.958.194 2.935a33.418 33.418 0 001.766 11.616c.039.2.064.403.073.607-.33-.377-.531-.575-.683-.787a32.488 32.488 0 01-4.678-9.588 48.538 48.538 0 01-2.009-9.054 8.954 8.954 0 00-3.199-6.006c-1.728-1.527-3.345-3.138-5.011-4.735-.102-.225-.426-.577-.717-.91l-.018.031z"/><path opacity=".85" d="M218.188 125.077a9.606 9.606 0 00-1.49-.324c-2.802-.192-5.585-.415-8.348-.564a155.794 155.794 0 00-19.314.312c-1.695.145-3.38.421-5.079.647a9.812 9.812 0 00-1.056.236l.073.167.095.054a192.776 192.776 0 0135.061-.205l.058-.323z"/></g><g opacity=".85" fill="#868C96" clip-path="url(#b)"><path opacity=".85" d="M239.574 323.766c-.501.365-.808.609-1.13.845l-25.054 17.473a102.543 102.543 0 00-12.83 10.21 27.208 27.208 0 00-5.766 7.666 16.991 16.991 0 00-1.718 10.388c.142.849.371 1.682.682 2.485 1.386 3.788 3.891 5.905 8.836 5.908a19.265 19.265 0 006.203-1.251l2.263-.81.798 1.251-.848 1.489a26.115 26.115 0 00-4.162 14.093 14.715 14.715 0 009.695 13.904c1.159.43 2.308.916 3.437 1.327a5.46 5.46 0 012.865 2.553 185.202 185.202 0 002.986 4.844 18.728 18.728 0 009.075 6.925c1.625.564 3.361.733 5.065.492l1.281-.152c.188.442.372.819.522 1.219a47.162 47.162 0 0011.97 16.793 36.405 36.405 0 008.671 5.499 26.016 26.016 0 006.946 2.527c1.721.327 3.471.472 5.223.434a13.198 13.198 0 009.976-4.494c.367.313.688.559.998.861 3.963 3.828 12.892 6.811 20.14 3.281a21.223 21.223 0 007.254-6.044c.926-1.15 1.792-2.377 2.744-3.681.228.298.437.521.602.783a18.537 18.537 0 0010.326 7.637c1.122.292 2.274.455 3.434.486.759.04 1.509.185 2.228.429 1.248.519 2.54.924 3.86 1.21a9.87 9.87 0 006.163-.591 9.892 9.892 0 004.602-4.146 31.39 31.39 0 004.11-11.46c.504-3.249.733-6.535.684-9.823-.004-8.391.023-16.763-.811-25.06a73.837 73.837 0 01.381-14.63c.623-6.104 1.286-12.206 1.828-18.315a65.016 65.016 0 00-.071-13.21 32.43 32.43 0 00-13.203-22.841 27.912 27.912 0 00-6.064-3.45 15.97 15.97 0 01-7.716-6.919 15.983 15.983 0 01-1.846-10.202 25.053 25.053 0 012.745-7.917c2.489-5.001 4.93-10.029 7.387-15.047 3.951-8.049 7.696-16.214 12.092-24.051a133.473 133.473 0 019.473-14.218c4.866-6.563 9.795-13.09 14.527-19.75 4.557-6.425 8.618-13.194 12.686-19.938 8.384-13.852 15.873-28.191 23.709-42.333a1953.095 1953.095 0 0120.416-35.882c4.047-7.112 8.539-14.014 13.175-20.687a4070.443 4070.443 0 0015.031-21.813c4.33-6.322 8.677-12.636 12.922-19.028 4.245-6.392 8.665-13.167 13.104-19.68 2.685-3.945 5.599-7.74 8.426-11.604 1.964-2.678 3.935-5.331 5.915-8 .178-.276.34-.562.486-.856.217-.38.239-.787-.137-1.084-.376-.298-.839-.184-1.175.149a3.378 3.378 0 00-.48.586c-3.394 4.528-6.826 9.013-10.149 13.602-2.167 2.961-4.246 6.098-6.338 9.186a3621.99 3621.99 0 00-7.838 11.75c-2.025 3.042-4.033 6.094-6.073 9.127-2.288 3.395-4.599 6.757-6.903 10.143a1049.477 1049.477 0 01-6.516 9.462c-2.665 3.873-5.386 7.735-8.019 11.627-3.661 5.403-7.37 10.779-10.866 16.297-10.565 16.616-19.872 33.968-29.423 51.16-5.142 9.258-10.189 18.571-15.394 27.793-3.083 5.417-6.317 10.77-9.574 16.089-3.989 6.495-8.184 12.874-12.725 19.014-3.802 5.134-7.674 10.208-11.46 15.352a115.997 115.997 0 00-10.832 17.344c-3.113 6.281-6.218 12.56-9.314 18.837-1.98 4.032-3.833 8.137-5.924 12.106a154.94 154.94 0 01-5.012 8.22 10.627 10.627 0 01-4.602 3.778 7.254 7.254 0 01-1.766.525 3.761 3.761 0 01-3.504-.987 51.206 51.206 0 00-13.327-8.883 69.065 69.065 0 00-14.911-4.625 61.925 61.925 0 00-32.277 2.249 33.763 33.763 0 00-15.411 10.398 17.763 17.763 0 00-3.324 5.511 7.014 7.014 0 003.042 8.504c.695.403 1.418.758 2.162 1.063l1.347.578zm74.159-3.584a10.66 10.66 0 00-.26-1.385 27.782 27.782 0 00-3.242-6.311 40.387 40.387 0 00-8.238-8.986c1.932 1.099 3.755 2.388 5.608 3.589a29.228 29.228 0 016.93 6.606 6.05 6.05 0 011.268 3.112 3.39 3.39 0 01-1.63 3.602l-.443-.252-.017.62a10.951 10.951 0 01-4.482 1.921c-1.62.295-3.285.221-4.871-.218a31.496 31.496 0 00-4.908-9.314 43.846 43.846 0 014.28 9.313 9.103 9.103 0 01-4.502-1.702 28.279 28.279 0 01-4.366-3.93 3.54 3.54 0 01-.898-2.105 26.2 26.2 0 00-6.784-15.667l-.365-.501a41.88 41.88 0 0115.983 11.988 23.506 23.506 0 00-4.193-4.86 55.543 55.543 0 00-5.055-4.156c-1.706-1.201-3.588-2.167-5.398-3.259 2.844.53 5.6 1.449 8.192 2.731a39.24 39.24 0 017.87 5.065 37.768 37.768 0 019.521 14.099zm-58.436 120.274l.147-1.216a169.513 169.513 0 014.579-19.099c2.873-9.585 6.284-19 10.219-28.2 1.585-3.669 3.163-7.364 4.82-11.013 1.286-2.813 2.603-5.607 4.025-8.363 2.153-4.227 4.323-8.445 6.659-12.589 2.337-4.144 4.738-7.957 7.201-11.882 1.821-2.906 3.681-5.769 5.699-8.543a165.78 165.78 0 016.373-8.18 50.313 50.313 0 0111.375-10.451 3.162 3.162 0 014.64.648c-.148.629-.301 1.339-.485 2.031a85.287 85.287 0 01-7.169 17.352c-2.298 4.481-4.826 8.851-7.235 13.268l-.36.634c.956-1.385 1.753-2.861 2.63-4.291a159.623 159.623 0 008.935-16.662 61.282 61.282 0 003.994-10.96c.109-.252.245-.49.405-.713a2.203 2.203 0 011.238 2.319c-.053.829-.034 1.679-.111 2.516a64.674 64.674 0 01-3.427 14.826 137.817 137.817 0 01-5.709 13.717c-1.416 3.116-2.921 6.202-4.289 9.344-1.369 3.143-2.81 6.559-4.043 9.905-2.425 6.547-4.467 13.228-6.259 19.988-2.565 9.592-4.705 19.321-7.817 28.769-1.239 3.762-2.463 7.532-3.774 11.274-.745 2.155-1.675 4.269-2.507 6.395a9.957 9.957 0 01-5.755 5.952 16.393 16.393 0 01-10.621.249 3.868 3.868 0 01-.538-.307 268.318 268.318 0 018.484-29.018c-4.139 9.262-6.505 19.093-9.086 28.823a12.752 12.752 0 01-4.76-2.058c1.212-4.155 2.459-8.374 3.697-12.576a8.874 8.874 0 00-.79 1.647c-1.086 3.346-2.141 6.709-3.227 10.055a3.94 3.94 0 01-.405.712 32.865 32.865 0 01-6.798-4.224l.045-.079zm-50.456-79.477l.174.099c.093-.04.183-.087.269-.141.749-.58 1.55-1.214 2.232-1.749 9.97-8.315 20.307-16.169 30.887-23.675a127.42 127.42 0 0119.715-11.849 25.98 25.98 0 014.203-1.53c1.805-.483 3.648-.776 5.444-1.097 3.1-.626 6.255-.939 9.418-.932l1.164.054.045.214-1.08.351a96.427 96.427 0 00-21.574 9.26 183.87 183.87 0 00-26.86 19.507c-1.095.929-2.128 1.935-3.304 3.007.253-.003.325.017.368-.022.341-.267.698-.525 1.032-.818a241.96 241.96 0 0121.103-16.093 103.893 103.893 0 0131.173-14.599 8.472 8.472 0 015.143.095c.561.194 1.124.346 1.66.546.304.138.596.304.87.496a133.189 133.189 0 00-38.904 20.748l.126.072c.684-.429 1.352-.866 2.021-1.304a175.491 175.491 0 0121.201-12.472 122.743 122.743 0 0115.829-6.344 2.55 2.55 0 011.697-.146c1.627.528 3.291.992 4.921 1.479.26.093.513.202.758.326-.216.152-.442.29-.675.413a112.392 112.392 0 00-15.965 9.936 80.435 80.435 0 01-4.375 2.901c-4.535 2.85-9.138 5.6-13.622 8.543-7.165 4.71-13.881 10.031-20.582 15.362-4.757 3.794-9.56 7.52-14.019 11.672-.343.308-.647.66-.958.986a6.222 6.222 0 001.356-.948l15.41-12.349a258.04 258.04 0 0128.599-20.132c.388-.241.783-.456 1.178-.672a2.226 2.226 0 01-.575.826c-2.497 2.438-5.074 4.83-7.479 7.362a67.153 67.153 0 00-8.646 10.85 7.063 7.063 0 01-1.329 1.341 48183.44 48183.44 0 01-11.827 10.215c-.144.253-.408.46-.625.693a36.483 36.483 0 003.907-2.852 747.088 747.088 0 007.373-6.29c.282-.238.602-.433 1.085-.766-.053.19-.117.378-.193.56a53.387 53.387 0 00-3.194 7.788 3.852 3.852 0 01-.901 1.584c-1.839 1.721-3.694 3.434-5.61 5.07a36.328 36.328 0 01-10.649 6.523 14.707 14.707 0 01-8.378.728 19.757 19.757 0 01-10.5-6.52 2.803 2.803 0 01-.343-.614c4.791-4.404 9.975-8.249 15.146-12.143a97.854 97.854 0 00-15.54 11.583l-1.534-1.208c.16-.167.332-.322.514-.463 4.815-3.782 9.574-7.617 14.465-11.314 3.377-2.545 6.953-4.852 10.429-7.277.33-.25.644-.519.941-.807l-.136-.203-.894.54a244.862 244.862 0 00-25.632 18.968 10.922 10.922 0 01-4.843 2.361c-.933.203-1.871.341-2.833.485a7.894 7.894 0 01-3.752-.478 9.097 9.097 0 01-1.14-.649l11.964-10.639-.161-.197c-4.335 3.237-8.187 7.022-12.441 10.41a5.59 5.59 0 01-1.717-2.213 13.219 13.219 0 01-.985-8.215 19.768 19.768 0 015.376-10.111 58.402 58.402 0 019.5-8.225c10.537-7.468 21.141-14.834 31.717-22.259a2.349 2.349 0 011.533-.448c1.06.068 2.122.07 3.182.007 3.197-.278 6.378-.565 9.576-.843l1.082-.097a2.698 2.698 0 01-1.038.793 108.62 108.62 0 00-11.625 6.765 383.404 383.404 0 00-35.859 27.22c-1.228.979-2.368 1.987-3.489 2.964zm109.697 65.938c-.675 1.923-1.309 3.848-2.047 5.734a596.812 596.812 0 01-4.04 10.011c-.443 1.111-1.047 2.172-1.502 3.34a3.365 3.365 0 01-1.863 2.022 14.743 14.743 0 01-6.673 1.488 18.88 18.88 0 01-13.793-6.296c.487-.856.992-1.743 1.281-2.731 1.328-3.439 2.688-6.859 3.825-10.406 2.987-8.933 5.569-17.928 7.821-27.006a229.856 229.856 0 018.901-29.347c1.71-4.332 3.541-8.617 5.403-12.884 1.486-3.349 3.037-6.555 4.576-9.811a80.203 80.203 0 004.338-11.309 53.096 53.096 0 002.79-14.664c.027-.174.075-.344.141-.507a4.083 4.083 0 011.871 3.601c-.013.367.003.733.046 1.097a64.805 64.805 0 01-1.445 18.784 3.29 3.29 0 00-.042.627l.175.099c.394-1.873.891-3.813 1.183-5.765.747-4.608.982-9.284.703-13.943l-.018-1.332a4.567 4.567 0 011.534 2.719c.736 4.297.994 8.663.767 13.018a112.588 112.588 0 01-3.912 23.232c-1.64 6.197-3.6 12.295-5.826 18.305-1.642 4.434-3.253 8.886-4.895 13.32-1.436 3.922-2.928 7.834-4.331 11.774-2.101 5.977-3.696 12.095-5.347 18.201-.11.378-.148.776-.226 1.171 1.421-4.266 2.575-8.579 4.01-12.795 2.164-6.381 4.495-12.688 6.794-19.013 2.002-5.508 4.131-10.944 6.086-16.48a162.595 162.595 0 006.418-22.33 79.65 79.65 0 001.647-26.618c.014-.215.044-.429.092-.64.265.382.41.569.537.788a29.704 29.704 0 014.139 17.957 96.986 96.986 0 01-1.735 11.448 244.918 244.918 0 00-5.062 30.777 134.343 134.343 0 01-3.208 18.642c-2.083 8.671-4.229 17.305-8.309 25.323a31.145 31.145 0 01-6.678 9.012c-.267.247-.581.467-.888.712 1.139-3.253 2.433-6.375 3.671-9.508a53.076 53.076 0 003.082-9.801l.009-.016zm-8.131-101.928l.096.201-.781.709c-1.44 1.278-2.927 2.529-4.36 3.979a118.436 118.436 0 00-11.246 12.621c-2.316 3.002-4.632 6.004-6.837 9.069-1.897 2.633-3.691 5.345-5.429 8.067-2.601 4.057-5.234 8.095-7.661 12.25-2.866 5.037-5.733 10.075-8.45 15.219-1.802 3.168-3.336 6.49-5.041 9.818-.559.982-.991 2.037-1.471 3.064-1.196 2.654-2.407 5.299-3.587 7.962-.955 2.12-1.934 4.247-2.801 6.396-1.314 3.194-2.55 6.434-3.808 9.639a54.962 54.962 0 01-.695 1.702 2.358 2.358 0 01-.335-.296c-.313-.702-.635-1.389-.907-2.089a25.517 25.517 0 01-1.764-14.361 31.765 31.765 0 013.339-9.11c1.96-3.666 4.119-7.239 6.064-10.914.649-1.141 1.164-2.379 1.946-3.422 1.689-2.416 3.464-4.761 5.232-7.131 2.949-3.973 6.14-7.76 9.554-11.34.157-.165.301-.343.428-.533l-.221-.126a61.812 61.812 0 00-8.347 9.218c-2.609 3.296-5.107 6.656-7.768 10.154-.343-1.055-.702-1.972-.945-2.907a21.873 21.873 0 01.316-11.606 41.94 41.94 0 015.591-12.295 81.315 81.315 0 015.008-6.482 110.796 110.796 0 0127.203-22.688c2.7-1.651 5.617-3.095 8.372-4.547a3.258 3.258 0 011.796-.32c2.24.079 4.499.085 6.757.133l.752-.034zm-72.98 95.705a18.31 18.31 0 01-6.117-5.347c-.904-1.395-1.84-2.808-2.633-4.287a8.492 8.492 0 00-5.06-4.221 43.515 43.515 0 01-4.057-1.637 5.997 5.997 0 01-2.448-1.812c.161-.342.348-.67.559-.983a707.082 707.082 0 015.802-6.513c.135-.237.279-.491.494-.683a44.708 44.708 0 00-7.497 7.687 8.614 8.614 0 01-2.215-2.812 125.914 125.914 0 0110.233-11.059 6.172 6.172 0 00-1.802 1.177c-2.536 2.542-5.026 5.151-7.539 7.726-.416.435-.799.888-1.25 1.386-.179-.311-.308-.49-.403-.691a12.195 12.195 0 01-1.003-5.016 25.289 25.289 0 013.827-13.172c.18-.317.352-.618.67-.919l.918.669c.939.744 1.851 1.536 2.906 2.261a16.388 16.388 0 0015.553 2.391 29.173 29.173 0 008.469-4.534c2.266-1.772 4.462-3.753 6.631-5.538.282-.238.58-.467 1.049-.85-.097 1.203-.213 2.143-.214 3.065a3.794 3.794 0 01-.857 2.428c-1.926 2.427-3.875 4.82-5.774 7.2-.225.396-.57.745-.843 1.114l.19.108a97.827 97.827 0 007.261-8.451l.438 2.913c-4.328 6.869-9.533 13.071-14.322 19.573a147.863 147.863 0 0014.489-18.577c.203.66.444 1.307.719 1.94a2.555 2.555 0 01-.172 2.587l-2.01 3.532a120.1 120.1 0 00-5.929 11.306 26.101 26.101 0 00-1.067 17.972l.298 1.134a9.964 9.964 0 01-6.551-.791c.66-1.491 1.983-2.416 2.523-3.807l-.237-.135c-1.004 1.211-1.974 2.4-3.038 3.682l.009-.016zm77.187-96.394a20.17 20.17 0 00-.729.802c-1.297 1.359-2.626 2.7-3.891 4.077a130.8 130.8 0 00-11.796 15.538c-2.444 3.705-4.738 7.516-6.985 11.355-2.064 3.627-4.119 7.239-6.016 10.941-1.896 3.702-3.685 7.214-5.424 10.859-1.738 3.645-3.362 7.272-4.971 10.949-1.455 3.366-2.97 6.803-4.259 10.285-1.958 5.282-3.915 10.564-5.617 15.949a148.488 148.488 0 00-5.974 24.24 8.919 8.919 0 01-.268.875 48.15 48.15 0 01-10.188-13.514c.974-2.486 1.906-4.934 2.901-7.345a484.077 484.077 0 014.174-9.62c1.56-3.516 3.129-7.048 4.794-10.526 1.819-3.788 3.718-7.53 5.649-11.255 1.584-3.041 3.199-6.064 4.91-9.034 2.55-4.483 5.235-8.869 7.951-13.237a231.343 231.343 0 016.147-9.441c2.126-3.111 4.038-5.881 6.214-8.711 2.8-3.67 5.678-7.255 8.685-10.808a81.85 81.85 0 0111.317-11.049 5.843 5.843 0 013.367-1.314l.009-.016zm21.282 3.595a8.474 8.474 0 014.812 3.22 44.305 44.305 0 015.119 13.398 75.8 75.8 0 011.393 18.512 156.628 156.628 0 01-7.487 40.491c-1.436 4.698-3.09 9.335-4.718 13.966-.931 2.594-2.007 5.148-3.043 7.705a645.366 645.366 0 01-2.314 5.54 181.13 181.13 0 01-2.213 5.032c-.919 2.057-1.862 4.12-2.797 6.168a7.72 7.72 0 01-.424.745 14.715 14.715 0 01-3.56-4.794l.523-.919c1.261-2.952 2.707-5.862 3.703-8.902a166.92 166.92 0 007.777-34.517 224.561 224.561 0 014.651-29.061 104.963 104.963 0 002.115-12.301c.559-4.412.212-8.89-1.02-13.162a38.18 38.18 0 00-3.994-8.857 3.828 3.828 0 01-.546-1.066c-.198-.721.1-1.097 1.017-1.309.651 1.251 1.374 2.522 1.995 3.861a54.68 54.68 0 014.803 24.269 148.807 148.807 0 01-3.767 29.753c-.116.5-.192 1.002-.293 1.511a.38.38 0 00.291-.254c.108-.19.207-.365.189-.627a131.243 131.243 0 004.191-29.468 54.545 54.545 0 00-6.28-28.34 3.008 3.008 0 01-.132-.578l.009-.016zm-1.65 118.822l.055-.095c.112-.418.224-.837.352-1.246 1.473-4.614 3.122-9.17 4.378-13.845 2.32-8.683 4.423-17.426 6.52-26.194 2.022-8.307 3.9-16.654 5.206-25.138a90.2 90.2 0 00.908-22.886 49.85 49.85 0 00-3.822-15.679 64.745 64.745 0 00-5.523-9.559 9.665 9.665 0 01-.571-.912l.204-.136c.735.586 1.448 1.138 2.197 1.774a30.602 30.602 0 0111.103 20.452c.383 3.118.473 6.265.269 9.4a853.664 853.664 0 01-1.772 19.396 89.934 89.934 0 00-.594 18.137c.697 8.659.95 17.349.758 26.036a42.91 42.91 0 01-1.273 10.746 26.55 26.55 0 01-3.789 8.686 7.448 7.448 0 01-5.538 3.14 144.464 144.464 0 003.407-17.04 22.467 22.467 0 00-.789 2.823c-1.03 4.426-2.044 8.861-3.074 13.286-.1.338-.219.669-.355.993a10.726 10.726 0 01-4.575-.799c-1.208-.457-2.402-.863-3.691-1.324l.009-.016zm-9.745-3.721l1.361-2.392a479.071 479.071 0 003.657-8.048c1.197-2.694 2.335-5.172 3.359-7.819a419.988 419.988 0 004.725-12.577 197.187 197.187 0 006.486-22.082 133.624 133.624 0 003.855-29.43 65.435 65.435 0 00-3.482-23.349.884.884 0 01-.023-.328c.296.3.546.64.745 1.011a46.85 46.85 0 015.723 19.152c.629 6.98.428 14.01-.598 20.944-1.057 7.787-2.753 15.483-4.537 23.149a432.193 432.193 0 01-11.242 42.192c-.405 1.153-.746 2.343-1.122 3.555a16.105 16.105 0 01-8.916-3.962l.009-.016zm-72.143-123.69a34.848 34.848 0 018.408-15.368 25.807 25.807 0 00-2.939 3.066 32.442 32.442 0 00-6.149 12.649c-1.389.342-2.724.736-4.084.989a15.36 15.36 0 01-6.079.002 3.369 3.369 0 01-2.042-1.162 4.771 4.771 0 01-1.032-4.781 14.77 14.77 0 011.534-3.322 28.983 28.983 0 019.628-9.075 43.733 43.733 0 0114.682-5.214c.185-.012.371-.005.554.022-9.714 4.475-17.426 10.845-22.222 20.342.405-.46.77-.954 1.092-1.476a46.14 46.14 0 014.951-6.64 47.083 47.083 0 0112.847-9.907 26.019 26.019 0 0112.329-3.47c.293-.001.601.048 1.007.07-7.355 4.308-11.057 11.072-13.533 18.701a65.34 65.34 0 01-9.009 4.562l.057.012zm51.064 3.743l-.109.19-1.168-.12a38.826 38.826 0 01-9.513-2.435 27.475 27.475 0 00-8.874-2.197 50.25 50.25 0 00-12.287.894c-3.734.706-7.443 1.553-11.173 2.031-3.731.478-7.466.743-11.219 1.04a11.03 11.03 0 01-3.534-.27.673.673 0 01.408-.166 27.236 27.236 0 0011.457-3.338c2.307-1.182 4.563-2.458 6.841-3.699a30.25 30.25 0 0114.452-3.814 23.178 23.178 0 0114.548 4.231 31.155 31.155 0 013.246 2.916 20.89 20.89 0 005.803 4.056c.368.201.724.425 1.065.67l.057.011zm-14.782-25.187c5.492 4.53 7.949 10.562 8.905 17.502a11.726 11.726 0 01-1.751-1.269 15.91 15.91 0 00-4.818-2.951 31.918 31.918 0 00-9.209-1.717l-1.293-.085a45.892 45.892 0 002.454-12.822l1.157.176.619 2.596.165-.032-.147-2.432c3.214.025 4.44 2.254 5.542 4.663a7.044 7.044 0 00-1.653-3.687l.029.058zm-14.767 4.663c.501-.659 1.01-1.334 1.534-1.959a13.682 13.682 0 014.556-3.845 2.691 2.691 0 012.232-.24 44.837 44.837 0 01-2.302 12.887 46.065 46.065 0 00-12.391 2.218 33.335 33.335 0 011.807-4.612 35.85 35.85 0 014.51-7.08 11.453 11.453 0 013.927-3.218 2.306 2.306 0 011.796-.32 15.01 15.01 0 00-5.698 6.11l.029.059zm2.616-6.145a32.585 32.585 0 00-9.669 15.594c-.813.398-1.601.788-2.396 1.154-.792.475-1.624.878-2.488 1.205a35.966 35.966 0 017.328-12.879 17.007 17.007 0 015.439-4.329c.485-.374 1.14-.567 1.757-.804l.029.059z"/><path opacity=".85" d="M312.821 333.462a2.217 2.217 0 00-.4.443c-1.099 1.933-2.373 3.767-3.504 5.681-1.875 3.296-3.956 6.474-5.783 9.796a316.571 316.571 0 00-5.623 10.767 185.856 185.856 0 00-3.937 8.245c-1.502 3.339-2.893 6.742-4.395 10.228a121.163 121.163 0 00-4.495 12.395c-.446 1.521-.88 3.057-1.301 4.607a.976.976 0 00.072.796l.386-1.122a129.332 129.332 0 014.4-12.89c1.407-3.393 2.798-6.796 4.338-10.239 1.54-3.444 3.301-7.055 4.993-10.581 2.768-5.785 5.723-11.422 8.987-17.01 1.892-3.327 3.896-6.591 5.861-9.897l.64-1.125-.239-.094zm-55.912 39.884a151.95 151.95 0 0121.783-23.256c-.719-.283-.918.065-1.166.281-3.224 3.051-6.532 5.992-9.65 9.188-2.642 2.691-5.062 5.508-7.467 8.334-1.281 1.515-2.392 3.211-3.556 4.813a2.348 2.348 0 00-.243.428l.299.212z"/></g><g opacity=".85" fill="#868C96" clip-path="url(#c)"><path d="M44.256 297.709c-.711.329-1.414.642-2.058.926a11.556 11.556 0 00-4.588 4.122 17.704 17.704 0 00-2.665 9.474 8.896 8.896 0 001.951 5.305l.716.953-1.047.662a20.934 20.934 0 00-5.358 4.293 11.449 11.449 0 00-2.529 10.746 16.165 16.165 0 007.178 9.978 28.032 28.032 0 007.573 3.386l1.556.508-.73 1.283a31.237 31.237 0 00-3.726 10.234 24.352 24.352 0 002.054 14.78 18.223 18.223 0 007.079 8.013 14.298 14.298 0 0010.912 2.014c1.735-.397 3.448-.975 5.156-1.471.433-.16.897-.219 1.356-.172-.216.38-.584.695-.864 1.04a7.653 7.653 0 00-1.497 7.201 6.922 6.922 0 002.71 3.64 21.096 21.096 0 006.322 3.408l1.039.424c-.114.403-.26.797-.439 1.176a6.839 6.839 0 00.01 7.095 14.948 14.948 0 003.857 5.236 14.269 14.269 0 007.464 3.135l.868.095c1.95.06 3.807.84 5.213 2.19a14.288 14.288 0 007.367 3.416 8.877 8.877 0 006.805-1.309c.169-.113.37-.209.614-.342l.655.582a11.5 11.5 0 007.968 3.611c2.411.147 4.83-.107 7.159-.751 4.336-1.17 8.73-2.114 13.164-2.829l1.064-.213a15.202 15.202 0 009.594-5.804c2.03-2.536 3.974-5.143 5.934-7.74 5.998-7.913 11.988-15.824 17.97-23.732 3.658-4.882 7.434-9.676 10.836-14.808a116.036 116.036 0 007.681-13.499 36.552 36.552 0 003.477-16.689 59.682 59.682 0 00-1.763-14.112 61.854 61.854 0 00-2.057-6.225 18.756 18.756 0 01-1.212-6.31 8.358 8.358 0 013.411-6.805 26.397 26.397 0 018.129-4.226c4.858-1.683 9.788-3.198 14.653-4.856a560.637 560.637 0 0077.936-33.783 588.4 588.4 0 0079.52-49.872 435.116 435.116 0 0048.372-41.565 279.669 279.669 0 0020.964-23.392c2.425-3.045 4.671-6.256 7.112-9.293a133.607 133.607 0 008.73-13.133c3.875-6.184 7.703-12.396 11.556-18.467a69.923 69.923 0 017.192-8.954c6.687-7.479 13.391-14.948 20.04-22.47a158.99 158.99 0 0022.378-32.99c1.981-3.851 3.942-7.692 5.884-11.523.18-.4.33-.812.45-1.233-.747-.677-1.079-.72-1.526-.155a7.166 7.166 0 00-.757 1.33c-3.234 6.089-6.404 12.213-9.71 18.281A123.758 123.758 0 01496.591 68.8c-5.062 5.95-10.32 11.725-15.5 17.586-3.782 4.288-7.642 8.53-11.315 12.921a65.683 65.683 0 00-5.442 7.538c-4.856 7.724-9.538 15.547-14.333 23.2-1.501 2.418-3.247 4.676-4.961 6.951-2.565 3.365-5.263 6.633-7.796 10.016a165.058 165.058 0 01-11.741 13.559 405.896 405.896 0 01-50.428 45.177 589.913 589.913 0 01-102.308 62.577 531.772 531.772 0 01-69.429 27.97c-.946.301-1.907.551-2.815.894a37.998 37.998 0 01-9.666 1.841.582.582 0 01-.212.005 20.992 20.992 0 01-12.145-3.68 8.125 8.125 0 01-2.992-4.324 39.657 39.657 0 00-4.419-10.107 23.552 23.552 0 00-7.177-7.397 42.335 42.335 0 00-23.932-7.325c-5.399.054-10.815.139-16.191.373-11.515.558-23.042 1.026-34.581.816a122.46 122.46 0 00-16.913 1.346c-2.03.25-4.062.542-6.07.867a26.67 26.67 0 00-9.54 3.717 13.388 13.388 0 00-6.107 9.445 5.813 5.813 0 00.268 3.214 1.606 1.606 0 01-.525 2.029 22.074 22.074 0 00-5.32 7.691c-.216.675-.402 1.407-.745 2.01zm1.48 9.525a14.077 14.077 0 01-.188-7.742 24.493 24.493 0 014.563-8.793 6.455 6.455 0 013.714-2.437c6.292-1.328 12.517-2.946 18.794-3.989 11.644-2.037 23.274-3.83 34.916-5.68a162.3 162.3 0 0126.429-2.224 89.883 89.883 0 0124.982 3.12 30.837 30.837 0 019.457 4.164 14.016 14.016 0 015.741 11.656 5.44 5.44 0 01-.541-.413 34.607 34.607 0 00-9.479-6.19 42.838 42.838 0 00-11.387-3.354 98.841 98.841 0 00-22.482-.732 206.34 206.34 0 00-25.611 3.403c-8.495 1.626-17.013 3.219-25.45 5.109-6.261 1.387-12.355 3.289-18.637 4.895 0 0-.081.143-.206.177a32.312 32.312 0 004.082-.761c7.943-1.982 15.838-4.139 23.89-5.576 9.084-1.628 18.151-3.411 27.275-4.89a136.758 136.758 0 0127.372-1.855 54.25 54.25 0 0121.653 4.623 32.294 32.294 0 018.941 6.177 3.907 3.907 0 01.7 4.593s-.063.111-.199.055a3.025 3.025 0 01-.658-.06 98.864 98.864 0 00-21.486-1.046 218.637 218.637 0 00-25.939 3.28c-6.362 1.12-12.701 2.421-19.061 3.5a242.559 242.559 0 00-24.014 4.983c-2.311.635-4.641 1.155-6.982 1.732.229.094.482.114.723.055 1.923-.395 3.862-.781 5.779-1.201 3.85-.871 7.678-1.923 11.527-2.607a2276.254 2276.254 0 0133.322-5.936 218.749 218.749 0 0122.795-2.95 100.28 100.28 0 0122.591.836l1.3.258a3.258 3.258 0 01-2.551 2.198c-.906.155-1.821.18-2.698.394-3.442.852-6.883 1.704-10.291 2.681-2.727.776-5.423 1.718-8.123 2.593a78.767 78.767 0 01-15.855 3.248c-5.136.451-10.31.11-15.341-1.01a18.254 18.254 0 00-7.285.05 97.736 97.736 0 00-11.42 3.046l-7.99 2.69a77.092 77.092 0 01-20.712 3.861 39.54 39.54 0 01-9.492-.639 23.214 23.214 0 01-12.15-6.326c-.25-.261-.485-.535-.706-.821 2.133-.653 4.218-1.333 6.309-1.948a37.823 37.823 0 006.297-2.038c-4.466.92-8.915 1.996-13.272 3.166a8.838 8.838 0 01-2.554-4.578l.599-.205a176.085 176.085 0 0120.483-4.747 80.341 80.341 0 004.287-.79 2.92 2.92 0 00.588-.295 139.47 139.47 0 00-26.367 5.321l.018-.031zm138.883 8.213l.27.447a23.956 23.956 0 012.311 15.619 63.013 63.013 0 01-6.079 16.802 86.37 86.37 0 01-8.89 13.819 285.07 285.07 0 01-6.956 8.836c-3.625 4.418-7.289 8.793-10.962 13.184-2.653 3.189-5.345 6.335-8.013 9.514-3.324 3.961-6.615 7.94-9.954 11.892-3.767 4.484-7.54 8.965-11.318 13.443a4.203 4.203 0 01-1.556 1.443 21.592 21.592 0 01-9.151 1.085 10.148 10.148 0 01-7.564-14.79 36.085 36.085 0 015.585-7.309c2.882-2.891 5.857-5.687 8.761-8.543 9.479-9.289 18.324-19.232 27.331-29.019 4.673-5.08 9.192-10.332 13.718-15.56a211.492 211.492 0 007.819-9.54c2.107-2.745 4.026-5.638 5.967-8.497a44.35 44.35 0 006.629-14.895l.261-.9.287-.026c.128.513.33 1.006.408 1.532a21.33 21.33 0 01-.561 7.693 65.016 65.016 0 01-6.325 15.907 130.561 130.561 0 01-9.276 15.088c-1.829 2.588-3.579 5.221-5.503 7.754a230.309 230.309 0 01-7.017 8.906c-3.161 3.823-6.306 7.655-9.636 11.297-5.239 5.744-10.651 11.348-15.976 17.022-.451.499-.919.988-1.386 1.477.257-.011.5-.121.678-.306 1.955-1.888 3.941-3.757 5.857-5.687a293.253 293.253 0 0016.589-18.1c2.482-2.887 4.902-5.851 7.291-8.834a188.307 188.307 0 004.978-6.501c1.577-2.144 2.914-4.089 4.348-6.167 1.434-2.079 3.164-4.492 4.6-6.905 3.01-4.75 5.677-9.709 7.981-14.839.889-2.115 1.738-4.233 2.491-6.405a36.88 36.88 0 001.945-9.905l.018-.032zM41.921 363.139l1.378-.432c8.257-2.496 16.531-4.877 24.654-7.764 11.303-4.056 22.425-8.383 33.263-13.5a2448.482 2448.482 0 0125.829-12.004 299.734 299.734 0 0134.008-13.076c.27-.085.547-.152.827-.2a8.087 8.087 0 01-1.678 1.143c-8.02 4.476-16.026 9.002-23.74 14.01-7.976 5.172-15.433 11.018-22.845 16.931-8.249 6.612-16.421 13.309-24.68 19.936a71.503 71.503 0 01-26.719 14.16 14.36 14.36 0 01-10.874-.901 12.914 12.914 0 01-3.87-3 85.969 85.969 0 0010.452-4.329 3 3 0 00-1.327.23c-2.887 1.021-5.776 2.083-8.648 3.113-.36.118-.724.219-1.094.3a5.463 5.463 0 01-1.75-2.526 162.517 162.517 0 0019.968-8.376 5.017 5.017 0 00-2.485.684c-5.558 2.396-11.06 4.697-16.813 6.625l-1.071.335a21.109 21.109 0 01-2.803-11.327l.018-.032zm61.696 35.67c5.352-5.722 10.906-11.098 15.792-17.106a3.932 3.932 0 00-1.072.816l-14.289 14.942c-.144.253-.478.398-.769.652a6.246 6.246 0 01-.875-3.476 19.371 19.371 0 012.714-7.348 46 46 0 0111.458-12.546c1.472-1.113 2.969-2.233 4.427-3.396a44.24 44.24 0 0012.677-15.166c1.444-2.87 2.704-5.823 4.196-8.666a93.074 93.074 0 015.571-9.792 53.257 53.257 0 0115.714-15.64 120.088 120.088 0 0014.072-9.989 17.363 17.363 0 012.084-1.268c-.032.32-.092.636-.181.945-.858 1.84-1.678 3.723-2.64 5.524a64.481 64.481 0 01-5.411 8.331 112.6 112.6 0 01-8.246 9.739c-3.482 3.723-7.009 7.379-10.498 11.078-.302.311-.557.648-.843.968 2.304-2.024 4.451-4.138 6.542-6.303a117.712 117.712 0 0016.226-18.936c1.56-2.447 2.885-5.07 4.319-7.589.757-1.331 1.283-2.772 1.939-4.182a4.316 4.316 0 015.527 1.047c-.031.276-.065.593-.123.916a38.128 38.128 0 01-3.405 9.892 73.768 73.768 0 01-6.508 10.517 188.859 188.859 0 01-6.251 8c-3.413 4.119-6.795 8.257-10.396 12.227-4.736 5.339-9.558 10.607-14.418 15.833-5.632 6.212-11.472 12.349-17.274 18.381-3.148 3.285-6.475 6.404-9.668 9.621a63.153 63.153 0 00-6.85 7.764l-3.541-5.79zm-61.7-36.364a21.774 21.774 0 011.04-5.512 35.845 35.845 0 018.161-14.086 14.11 14.11 0 013.172-2.81 63.466 63.466 0 017.325-3.697 132.447 132.447 0 0124.466-7.472 3937.457 3937.457 0 0134.326-7.002 259.295 259.295 0 0036.017-9.751c5.215-1.794 10.457-3.195 15.708-4.758.474-.117.953-.208 1.436-.274a6.2 6.2 0 01-.172 1.37 5.018 5.018 0 01-2.129 2.711 46.124 46.124 0 01-4.766 2.406 136.463 136.463 0 01-8.141 2.919c-5.709 2.036-11.509 3.938-17.112 6.119-11.275 4.449-22.319 9.449-33.193 14.777A386.965 386.965 0 0158.256 357.5c-5.196 1.763-10.536 3.297-15.791 4.942-.181.023-.294.001-.566.035l.018-.032zm125.225-47.902l.159.09c-.366.274-.725.573-1.098.823-4.087 2.687-8.19 5.365-12.261 8.061a163.39 163.39 0 00-18.992 14.951 121.636 121.636 0 00-11.984 12.917c-3.041 3.723-6.004 7.532-9.249 11.097a178.61 178.61 0 01-18.489 17.753 130.89 130.89 0 01-13.287 10.121l-.108.191a33.415 33.415 0 004.52-2.673 171.096 171.096 0 0020.979-17.782c.373-.397.799-.741 1.194-1.104-1.081 1.901-2.335 3.663-3.501 5.454-1.583 2.413-3.15 4.835-4.59 7.33a39.112 39.112 0 01-10.981 12.334 15.603 15.603 0 01-14.13 2.721 20.04 20.04 0 01-7.637-4.157A5.023 5.023 0 0166 389.11a6.62 6.62 0 012.14-5.2 41.057 41.057 0 018.93-6.812 91.346 91.346 0 0012.331-8.294c7.27-5.848 14.509-11.754 21.795-17.592 7.285-5.839 14.502-11.632 22.189-16.886 10.633-7.226 21.896-13.423 33.173-19.569a5.99 5.99 0 01.565-.182l.018-.032zm-3.64-34.769l-.117.206-1.446-.445-1.452-.47a79.17 79.17 0 00-19.224-3.325 152.38 152.38 0 00-34.037 2.069c-8.457 1.376-16.894 2.973-25.44 4.172a235.216 235.216 0 00-28.475 5.82c-.115.03-.234.04-.352.03-.18-.899-.35-1.708-.477-2.515a6.76 6.76 0 01-.16-2.188 11.25 11.25 0 015.054-8.22 24.011 24.011 0 019.52-3.686c4.154-.593 8.313-1.121 12.488-1.64a83.188 83.188 0 0111.269-.531c10.409.133 21.025-.097 31.41-.733 5.674-.316 11.368-.41 17.045-.474a42.315 42.315 0 0122.136 5.947 24.414 24.414 0 019.658 10.151c.156.278.254.585.479 1.112-1.116-.95-2.031-1.701-2.918-2.5a29.518 29.518 0 00-6.039-4.128 48.99 48.99 0 00-7.222-2.787 77.3 77.3 0 00-20.824-3.942 204.711 204.711 0 00-24.621.191c-13.866 1.003-27.676 2.647-41.457 4.496-.854.101-1.704.268-2.536.403.295.141.625.19.948.14 8.53-.914 17.05-1.772 25.591-2.742a263.14 263.14 0 0133.316-2.018c5.328-.035 10.653.27 15.942.911a90.614 90.614 0 0118.02 4.779c1.278.518 2.568 1.273 3.921 1.917zm-38.353 140.158c.234-.412.397-.697.645-.912 2.849-3.35 5.724-6.706 8.573-10.056 3.398-3.981 6.82-7.969 10.186-11.969 3.608-4.239 7.197-8.594 10.816-12.89 2.939-3.508 5.942-6.98 8.821-10.565 3.316-4.133 6.532-8.385 9.778-12.579a74.188 74.188 0 006.282-9.492c1.469-2.583 2.646-5.353 3.91-8.052a52.415 52.415 0 003.161-8.689 27.728 27.728 0 00.437-13.741l-.132-.725c.451.998.808 2.037 1.065 3.102a60.395 60.395 0 011.724 14.551 34.814 34.814 0 01-3.312 15.293 119.287 119.287 0 01-7.465 13.119c-3.136 4.738-6.675 9.226-10.104 13.778-4.089 5.454-8.273 10.855-12.394 16.292-3.859 5.124-7.704 10.298-11.57 15.397a14.395 14.395 0 01-9.747 6.074c-.436.066-.866.157-1.295.249l-8.85 1.844-.529-.029zM43.406 300.014c.095.201.165.262.154.319-.011.056-.055.576-.096.868a15.95 15.95 0 002.195 9.89 23.45 23.45 0 0010.714 9.179 28.585 28.585 0 008.866 2.255l1.126.159c-.23.213-.51.364-.815.437a14.703 14.703 0 00-9.732 6.712 1.822 1.822 0 01-1.048.662c-1.67.392-3.336.703-5.028 1.061l-1.223.269.05.281a37.717 37.717 0 006.4-.89c-.447 1.152-.82 2.177-1.266 3.328l-14.557 2.477.05.281a116.525 116.525 0 0014.414-2.077 8.54 8.54 0 00-.048 1.043 3.994 3.994 0 01-1.597 3.286 44.85 44.85 0 00-3.647 3.902c-.817.92-1.525 1.943-2.332 2.994-.778-.107-1.535-.14-2.277-.31a21.515 21.515 0 01-6.607-2.836 15.09 15.09 0 01-6.763-8.714 10.028 10.028 0 012.674-10.56 24.917 24.917 0 015.4-3.89c1.34-.769 1.442-1.466.434-2.606l-.577-.643a7.108 7.108 0 01-1.744-4.306 15.608 15.608 0 012.432-8.956 9.211 9.211 0 014.45-3.656l-.002.041zm11.417 38.901c.108-.778.242-1.457.27-2.133a13.639 13.639 0 013.08-7.476 11.45 11.45 0 015.726-4.02 21.812 21.812 0 012.644-.74c4.513-.893 9.03-1.72 13.55-2.588 2.724-.548 5.495-1.069 8.107-1.68 3.172-.858 6.281-1.9 9.435-3.02a126.232 126.232 0 0113.244-3.854 20.48 20.48 0 018.661-.148 53.028 53.028 0 0020.026.257 115.909 115.909 0 0015.843-4.22 84.008 84.008 0 0111.343-3.278 27.24 27.24 0 014.252-.286 5.842 5.842 0 011.506.374.796.796 0 01-.503.406c-6.011 1.425-11.857 3.406-17.733 5.368a173.992 173.992 0 01-18.739 5.698 4476.286 4476.286 0 01-40.807 8.662 208.97 208.97 0 00-24.213 5.96 77.423 77.423 0 00-15.08 6.416c-.112.125-.311.179-.562.288l-.05.014zm29.209 74.192l-.034-.271c1.133-1.034 2.273-2.042 3.358-3.102a75.74 75.74 0 003.112-3.221c1.006-1.106 2.017-2.292 3.019-3.463a18.59 18.59 0 002.648-3.548c-4.324 4.503-8.213 9.421-13.184 13.22a12.746 12.746 0 01-4.15-2.361 13.65 13.65 0 01-3.151-4.561c-1.28-2.469-1.092-3.977.94-6.848a.61.61 0 01.214-.046c.111-.012.224-.011.335.002a17.064 17.064 0 0012.058-2.766 40.126 40.126 0 0010.205-9.127c.438-.548.891-1.087 1.345-1.626l.19.108c-.121.728-.267 1.463-.381 2.216a18.598 18.598 0 00.244 8.528 20.659 20.659 0 002.487 5.212l2.521 3.972a11.228 11.228 0 00-.241 12.216c-.239.2-.37.356-.549.485a7.378 7.378 0 01-5.462 1.087 16.223 16.223 0 01-8.998-5.119c1.031-1.113 2.083-2.15 3.026-3.291a10.273 10.273 0 002.446-3.747 63.348 63.348 0 01-6.211 6.827l-5.787-.776zm62.286-82.014l.127.072c-.108.19-.208.365-.386.494-1.376 1.755-2.838 3.44-4.071 5.276a111.103 111.103 0 00-8.443 15.834 45.28 45.28 0 01-7.197 11.321 59.315 59.315 0 01-8.984 7.976 51.997 51.997 0 00-8.577 7.704 34.276 34.276 0 00-5.884 9.237c-.34.855-.616 1.746-.925 2.62a10.767 10.767 0 01.077-2.935 36.336 36.336 0 014.628-13.81c.829-1.458 1.754-2.862 2.662-4.274a33.739 33.739 0 012.104-2.998c1.591-1.947 3.267-3.825 4.873-5.764 3.389-4.112 6.786-8.24 10.15-12.346a120.847 120.847 0 0119.058-18.017c.263-.135.533-.254.811-.356l-.023-.034z"/><path d="M146.899 293.439c-.34-.655-.808-.459-1.149-.486-1.892.119-3.789.173-5.685.373a245.752 245.752 0 00-29.143 4.56c-.703.167-1.399.358-2.104.565l-.189.333a295.172 295.172 0 0138.27-5.345zm-10.378 72.307c3.161-1.872 21.373-20.538 22.228-22.631l-22.228 22.631zm-28.463-33.121l.158.09 41.462-15.672c.242-.093.479-.252.899-.474-3.738.452-40.237 14.293-42.519 16.056zm-43.711-3.666c.237.005.473-.015.706-.061 10.686-2.896 21.568-4.737 32.441-6.71.495-.096.988-.298 1.494-.451l-.044-.255a1.862 1.862 0 00-.357-.035 303.373 303.373 0 00-31.328 6.337c-1.01.264-1.993.628-3.005.933l.093.242z"/></g><defs><clipPath id="a"><path fill="#fff" transform="matrix(.8695 .49395 .49512 -.86883 49.022 172.879)" d="M0 0h325.98v272.689H0z"/></clipPath><clipPath id="b"><path fill="#fff" transform="matrix(.8695 .49395 .49512 -.86883 173.79 396.943)" d="M0 0h189.163v354.937H0z"/></clipPath><clipPath id="c"><path fill="#fff" transform="matrix(.8695 .49395 .49512 -.86883 .515 368.138)" d="M0 0h287.202v420.855H0z"/></clipPath></defs></svg>