<svg width="419" height="784" fill="none" xmlns="http://www.w3.org/2000/svg"><path opacity=".5" d="M204 206c12-9.6 73.667 36.667 103 61 26.667 5 82.6 17 93 25 13 10 2 58-8 76s-37 2-60-7c-18.4-7.2-34.333-55.667-40-79-31 2-95.4-1-105-29-12-35 2-35 17-47zM62 267c-1.6-15.2 1.099-52.579 25-57 27.491-5.085 22.8 49.4 34 63 14 17 18 21 39 53s-3 46-10 73-39 48-53 45-25-80-26-99-7-59-9-78zm122-151c11.667 7.666 30.4 27.4 12 45-23 22-11 50-33 34s-62-20-44-42l.31-.377C101.244 151.686 84.152 148.414 92 137c11-16-24-44-6-51 4.975-1.935 12.64-1.3 21.231.72-3.7-20.45-18.707-34.18.769-37.72 22-4 16-29 46-11 4.292 2.575 7.753 5.637 10.52 9.003C172.829 35.362 179.968 14.285 196 19c17 5 29-22 27 19a109.854 109.854 0 01-1.047 10.786C246.204 47.71 259.314 43.825 262 68c3 27 13 46-13 53-20.8 5.6-52-1-65-5z" fill="#D2DFE6"/><path d="M302.658 318.061c6.107 14.905 20.041 47.01 34.356 53.316 11.952 5.265 20.614 2.293 38.365 2.293 14.598 0 59.551 24.078 52.107-21.785-2.123-13.08-3.145-18.092-6.314-30.958m-118.514-2.866c.381.764 8.728-12.755-8.589-60.769-14.888-41.277-52.108-8.6-16.606 22.931 20.902 18.564 44.663 64.782 57.833 53.89 13.17-10.893 4.008-28.665-8.016-41.277-12.025-12.613 11.29-1.256 27.485-25.225 13.17-19.492-26.913-20.065-33.784-1.147-6.871 18.919 28.058 26.372 62.987 26.372 10.307 0 32.121 7.453 37.204 28.091m-118.514-2.866c-.191-.574-3.321-7.797-18.896-20.639-19.469-16.052-66.995-17.199-66.995-17.199s-25.081 1.376-36.075-22.931c-13.742-30.385-13.17-46.643-3.435-59.623 7.309-9.746 53.825-15.248 83.028 12.04 29.203 27.287 19.468 28.636-8.017 4.586-27.485-24.051-54.97-63.062-33.211-82.554 33.214-29.753 91.045 18.919 99.634 68.795 9.39 54.529-1.145 65.396-13.17 23.546-17.464-60.779-1.718-79.729 27.485-100.899 3.499-2.537 6.734-4.443 9.734-5.821m78.432 203.565c19.718 5.029 56.474-2.064 67.01-19.492 13.17-21.785-5.726-41.277-22.904-53.316-17.178-12.039-4.581-23.505-15.46-38.984-10.88-15.479-42.373-11.466-74.439 13.759-32.066 25.225-21.759 25.798 13.742 1.72 35.502-24.078 36.647-57.329 30.921-71.661-2.228-5.579-7.03-8.997-12.633-11.466m0 0c-9.91-4.368-22.328-5.765-27.449-10.893-4.787-4.792-10.714-13.669-20.614-15.766m48.063 26.659c9.174-6.497 20.65-14.906 17.214-34.398-3.147-17.853-22.332-22.358-36.647-20.065-14.315 2.293-24.014 8.026-2.29 8.026 21.723 0 64.78 2.463 64.132-23.505-.573-22.931-40.083-40.13-65.85-16.625-25.768 23.505-27.485 31.53-2.291 12.039 25.195-19.492 27.485-64.76-3.435-65.929-30.349-1.146-41.228 30.385-39.51 45.29 1.718 14.906 7.444 18.92 7.444 2.294 0-22.152-11.452-40.704-25.768-37.264-14.315 3.44-6.871 12.039-19.468 12.612-12.598.573-18.896-6.306-26.34 8.026-7.444 14.333-3.436 34.971 21.186 41.85 24.622 6.88 34.357-2.866 7.444-2.866s-40.154 5.426-30.348 21.134c8.589 13.759 11.452 6.957 15.46 10.97 4.009 4.013.573 10.32 4.581 15.479 4.008 5.16 28.631 14.906 36.074-11.466 7.444-26.371-2.29-26.944-2.29-13.759 0 13.186-4.008 27.477 1.145 28.665 4.123.95 11.643-2.693 14.888-4.633m0 0c6.577-3.021 12.018-3.506 16.606-2.534m0 0c-.191-3.726-1.947-12.44-7.444-17.485-2.005-1.84-3.961-3.533-5.726-5.237m0 0c-4.285-4.136-7.444-10.051-7.444-16.548 0-9.172 16.033-10.319 16.605.574.573 10.892-9.161 15.974-9.161 15.974zm-152.314 21.863c-1.718-10.319-11.792-12.794-18.896-12.613-10.161.26-19.469 4.587-19.469 13.759 0 8.526 12.099 8.026 20.614 8.026 9.735 0 19.144-.805 17.751-9.172zM83.923 185.63c-.382 5.16-2.062 17.543-5.727 25.798-4.58 10.32-21.186 42.997-20.04 52.743 1.75 14.906 12.597 9.746 17.178 18.346 4.612 8.658-3.436 21.211-9.162 16.625-5.726-4.586-2.29-16.625 2.863-10.319 6.021 7.368 0 42.997-2.863 51.596-1.558 4.679-10.307 17.368-10.307 24.078 0 7.453 8.589 14.333 13.17 10.32 4.58-4.013 5.726-12.613 2.863-12.613-2.29 0-1.146 26.945 0 29.238 1.146 2.293 5.382 6.536 6.299 9.746 1.635 5.733-1.147 14.332 0 16.625 1.146 2.294 6.642 7.453 8.016 12.04 1.718 5.732-2.381 13.314 2.863 19.491 9.734 11.466 58.979 4.013 68.713-13.185 12.006-21.212-5.726-22.359-5.726-16.052 0 4.013 31.146 20.179 25.194 41.85-6.299 22.931-38.938 37.837-88.18 59.622-52.68 23.305-84.748 36.691-87.61 64.209-4.454 42.799 8.588 56.182 30.347 99.752 17.808 35.658 30.922 77.586 39.511 97.46" stroke="#868C96" stroke-linecap="round" stroke-linejoin="round"/><path d="M103.39 435.012c.955-3.439 5.039-12.039 13.743-18.918 10.879-8.6 24.049-10.893 25.767-17.772 1.718-6.88 1.145-17.772 5.726-29.812 4.581-12.039 10.88-20.065 9.162-31.53-1.718-11.466-17.178-24.079-17.751-37.265-.428-9.852 3.3-24.825 7.124-34.397m0 0c1.293-3.238 2.598-5.859 3.756-7.453 4.581-6.306 13.17-26.371 4.581-28.091-6.872-1.376-8.421 23.123-8.337 35.544zm0 41.277c1.061-6.497 4.328-17.199 13.49-29.811 8.366-11.517 10.175-35.526 7.444-47.01-2.863-12.039-7.444-18.345-16.606-18.345-9.161 0-12.597 13.185-12.597 20.065 0 7.091 2.29 13.759-3.436 14.332-3.435.344-13.17-14.891-13.17-26.371 0-25.225 12.467-52.683 21.187-67.649 4.008-6.879 13.084-18.233 25.767-21.211 11.165-2.622 32.321-1.676 35.502 13.185 3.436 16.052-6.299 41.277-25.767 48.73-24.358 9.324-21.759-7.453-40.655-13.186-7.691-2.333-17.179-25.224-2.291-40.13 8.308-8.318 20.048-11.735 34.356-13.759 13.743-1.944 24.623 6.929 34.357 2.866 12.327-5.145 23.477-12.039 31.493-12.039 8.017 0 33.016 2.63 34.357-11.466 1.145-12.039-5.726-12.039-5.726-20.638 0-12.934.568-22.25-6.299-33.25-5.726-9.174-13.743-13.76-25.195-9.174-11.452 4.587-39.51 27.518-40.082 36.118-.573 8.6 10.879 10.892 19.468-6.88 8.59-17.772 14.29-53.177-10.879-57.902-27.486-5.16-37.22 36.69-36.075 58.476 1.146 21.785 9.735 33.251 13.17 4.013 3.49-29.695-19.316-54.326-34.929-55.036-12.597-.574-10.81 4.104-20.613 11.465-9.162 6.88-13.743 5.733-17.179 11.466-7.648 12.763 6.872 44.144 25.768 53.316 18.896 9.173 31.493 6.88 11.452-4.013-20.041-10.892-44.091-11.465-49.245-1.146-5.153 10.319 1.718 11.879 1.718 21.212 0 9.172-11.024 9.2-12.024 21.211-.573 6.88 6.298 23.505 19.468 24.652 10.205.888 16.033-2.676 17.751-2.867" stroke="#868C96" stroke-linecap="round" stroke-linejoin="round"/></svg>