<svg width="89" height="101" fill="none" xmlns="http://www.w3.org/2000/svg"><g clip-path="url(#a)"><path opacity=".85" d="M53.917 92.844a1.278 1.278 0 001.09-.4l3.86-3.17.51-.38c.08.417.013.848-.19 1.22-.27.6-.56 1.19-.82 1.8a4.843 4.843 0 00-.17.54l.13.09a1.48 1.48 0 00.31-.3c.44-.72.88-1.44 1.28-2.17a2.23 2.23 0 00.3-1.43.88.88 0 01.36-.86c.5-.43 1-.89 1.47-1.33.09-.08.19-.14.3-.22.25.41.51.79.73 1.18.18.327.223.712.12 1.07-.16.63-.34 1.27-.5 1.91 0 .22-.08.45-.13.68h.1c.08-.08.19-.14.22-.23.34-.95.68-1.9 1-2.86a1.5 1.5 0 00-.34-1.38c-.22-.27-.41-.55-.65-.87a9.64 9.64 0 012.07-1.1c.2-.08.46 0 .64 0a1 1 0 01.31.85c.009.48.159.946.43 1.34.103.133.216.257.34.37l.15-.07c0-.16 0-.32-.08-.48-.1-.45-.18-.9-.31-1.33-.13-.43-.31-.88-.5-1.39.05-.072.106-.14.17-.2a5.279 5.279 0 001.28-1.82 3.122 3.122 0 011.07-1.29c.486-.386.941-.81 1.36-1.27a1.85 1.85 0 00.62-1.59 9.243 9.243 0 012.13-.91c1-.27 1.88-.57 2.83-.85.65-.19 1.3-.37 2-.53.179-.024.36-.024.54 0h.46c.14-.33-.07-.45-.26-.56a1.49 1.49 0 00-1.27 0 4.734 4.734 0 00-.78.39c-.893.51-1.873.85-2.89 1a7 7 0 00-2.54.85.915.915 0 01-.25.09h-.16c.033-.107.077-.21.13-.31.306-.38.64-.738 1-1.07a15.64 15.64 0 002.66-3.34c.53-.81 1-1.63 1.58-2.44a3.73 3.73 0 013-1.58c.26 0 .56.05.7-.38-.1-.08-.21-.24-.34-.26a2.883 2.883 0 00-1-.08 3.8 3.8 0 00-2.63 1.64c-.5.74-1 1.5-1.43 2.27a15.489 15.489 0 01-3.31 4c-.278.21-.527.456-.74.73a1.53 1.53 0 01-1.3.6l.26-.7c4.21-10.44 8.07-21 11.84-31.62a177.058 177.058 0 006.23-22.33 62.068 62.068 0 001.35-9.4 20.779 20.779 0 00-.63-7.4 8.77 8.77 0 00-1.21-2.57 6.54 6.54 0 00-8.78-2.11 20.08 20.08 0 00-5.07 3.81c-.92.94-1.8 1.92-2.69 2.9a29.144 29.144 0 01-4.53 4.14 27.999 27.999 0 01-3.93 2.3 49.605 49.605 0 00-8 4.8 25.232 25.232 0 00-5.32 4.89c-.53.72-1 1.49-1.49 2.23l-.32.51c-.19-.2-.33-.36-.47-.52-2-2.31-4-4.65-6-6.91a41.771 41.771 0 00-3.38-3.13 8.501 8.501 0 00-2.49-1.49 4.39 4.39 0 00-5.36 1.42 13.411 13.411 0 00-1.79 3.14c-.51 1.24-1 2.48-1.49 3.72a21.63 21.63 0 01-2.76 4.92 16.377 16.377 0 01-3.72 3.62l-1.39 1a6.64 6.64 0 00-2.58 7.57 12.496 12.496 0 002 3.9 32.99 32.99 0 004.4 4.89c1.05 1 2.12 1.91 3.18 2.87.15.13.29.27.53.5h-.42a7.72 7.72 0 00-2.67.11 14.867 14.867 0 01-5 .33 10.781 10.781 0 00-5 .66 7.48 7.48 0 00-2.57 1.85 7 7 0 00-2.15 4.05 9.361 9.361 0 00-.06 1.59 4.94 4.94 0 01-1 3.44 35.38 35.38 0 00-5.85 14.65 17.83 17.83 0 002.67 12.34 12.109 12.109 0 002.47 2.78c.59.49 1.21 1 1.77 1.48a6.9 6.9 0 011.2 1.34 5.22 5.22 0 004.87 2.63c1.35 0 2.7-.12 4-.22a1.69 1.69 0 011 .23c.75.37 1.51.73 2.29 1.001a3.68 3.68 0 002.53 0c.78-.26 1.57-.51 2.36-.75a6.26 6.26 0 011-.18 1.14 1.14 0 011 .32 5.252 5.252 0 005.17 1.16 20.488 20.488 0 003.08-1 37.427 37.427 0 017.79-2.05c1.584-.282 3.15-.66 4.69-1.13a13.558 13.558 0 005.53-3.36c-.03-.08.1-.23.25-.39zm7.27-77.73c.08.78.16 1.43.21 2.08.12 1.51.21 3 .33 4.54.14 1.69.3 3.39.47 5.08.2 2.11.44 4.22.62 6.33.18 2.11.55 4.27 1 6.39.46 2.46.94 4.92 1.36 7.39.42 2.47.77 4.94 1.14 7.42.38 2.162.61 4.347.69 6.54 0 .95.06 1.9 0 2.85-.06 1.77-.16 3.55-.24 5.32-.05 1.28 0 2.57-.13 3.84-.16 2-.41 4-.63 6-.021.15-.058.298-.11.44 0-.07-.08-.09-.09-.12-.18-1.57-.38-3.15-.56-4.73-.2-1.74-.36-3.49-.58-5.23-.3-2.32-.65-4.63-.94-6.95-.37-2.85-.79-5.69-1.34-8.5a33.414 33.414 0 00-2.33-7.64c-.62-1.35-1.29-2.67-1.9-4a6.161 6.161 0 01-.49-1.67c-.22-1.84-.4-3.67-.54-5.51-.14-1.84-.19-3.4-.27-5.1-.18-4.06-.12-8.12 0-12.18a1.48 1.48 0 010-.24c1.43-.84 2.78-1.62 4.33-2.35zm5.8 59.86h-.07a1.472 1.472 0 010-.21c.21-3.25.43-6.5.64-9.75.08-1.37.15-2.74.24-4.11.12-2 .34-4 .38-6 .14-4.776.01-9.557-.39-14.32-.26-2.8-.4-5.62-.56-8.43-.12-2.1-.18-4.21-.28-6.31-.206-3.97-.045-7.95.48-11.89a8.321 8.321 0 01.91-3.07 2.771 2.771 0 012.16-1.42.89.89 0 011 .54c.124.248.227.506.31.77a8.53 8.53 0 01.26 2.71c0 1.78-.12 3.55-.11 5.33.01 1.78.11 3.69.19 5.54 0 .82.07 1.65.14 2.47.2 2.31.41 4.62.41 7a79.81 79.81 0 01-.37 7.68c-.19 1.93-.42 3.85-.66 5.78-.24 1.93-.49 3.92-.8 5.87a643.77 643.77 0 01-1.93 11.75c-.413 2.434-.85 4.864-1.31 7.29-.15.91-.42 1.84-.64 2.78zm-52.05 13.08c.07-.68.16-1.24.17-1.8a1.93 1.93 0 011.29-1.8 8.68 8.68 0 012.72-.84l5.44-.7c1.9-.24 3.8-.5 5.71-.72a8.49 8.49 0 004.19-1.47c.68-.49 1.42-.91 2.14-1.34a13.002 13.002 0 013.94-1.49 15.452 15.452 0 014.8-.05 4.172 4.172 0 011.65.54c1.75 1 3.51 2 5.26 2.95a21 21 0 009.17 2.75c.36 0 .71.07 1.18.12l-.34.24a9.72 9.72 0 01-4.23 1.55c-1.908.29-3.857.111-5.68-.52-2-.71-4-1.27-6-1.79a14.501 14.501 0 00-6.42-.15c-1.602.363-3.17.858-4.69 1.48a22.733 22.733 0 01-3.32 1.12 54.987 54.987 0 01-6.13.82c-.91.06-1.82.17-2.73.26l-3.48.38c-.94.11-1.89.2-2.83.3l-1.81.16zm60.34-31.05a2.515 2.515 0 010-.28c.5-2.19 1-4.39 1.51-6.58.84-3.52 1.44-7.09 2-10.68.27-1.94.45-3.89.79-5.82.78-4.25 1.09-8.56 1.72-12.83.24-1.63.38-3.28.52-4.92.14-1.64.27-3.53.37-5.31.07-1.22.07-2.45.11-3.67a5.051 5.051 0 01.33-1.77 1.74 1.74 0 012.81-.8c.207.15.396.324.56.52a5.83 5.83 0 011.35 3c.213 1.504.277 3.025.19 4.54a65.506 65.506 0 01-1.46 10.26c-1.22 5.81-2.88 11.5-4.62 17.17-1.74 5.67-3.9 11.16-5.92 16.71-.08.09-.15.22-.26.46zm-59.58 37.07l.54-.47a11.552 11.552 0 012.92-1.61l8.84-3.73c3.2-1.36 6.41-2.68 9.7-3.81a14.67 14.67 0 015.16-.89c.856.004 1.71.087 2.55.25a46.524 46.524 0 016.64 1.89c1.063.403 2.184.63 3.32.67.41 0 .83.07 1.24.11a.33.33 0 01-.22.16c-1.22.34-2.42.72-3.65 1-.893.203-1.805.317-2.72.34-1 0-1.93-.13-2.9-.2a28.262 28.262 0 00-6.3.19 30.304 30.304 0 00-8.61 2.66 70.39 70.39 0 00-7 4c-1.95 1.22-3.94 2.38-5.93 3.55-.69.4-.86.35-1.46-.19a3.413 3.413 0 01-.42-.43 10.61 10.61 0 01-1.7-3.49zm49.64-16h-.06c0-.09-.07-.17-.1-.25-.42-1.46-.89-2.9-1.27-4.37-.5-2-.86-4-1.39-6-.81-3-1.74-6-2.58-9.08a131.473 131.473 0 00-7.12-19.69 32.997 32.997 0 01-2.58-8.42 8.92 8.92 0 010-3.71 21.741 21.741 0 012.74-5.78c0-.07.08-.16.13-.24.116.159.188.345.21.54.09.74.16 1.48.25 2.23.15 1.42.29 2.83.48 4.25.21 1.57.46 3.14.73 4.7.364 2.24.916 4.444 1.65 6.59a63.986 63.986 0 002.9 6.63 28.552 28.552 0 012 5.54 112.27 112.27 0 012.31 12.76c.21 1.5.41 3 .6 4.51.19 1.51.34 2.83.51 4.24l.39 3.38.2 2.17zm-19.43-44.62c.418-.793.985-1.5 1.67-2.08.71-.62 1.2-.53 1.7.26.11.17.207.347.29.53.29.69.61 1.37.85 2.08a55.424 55.424 0 002.41 6.19 107.092 107.092 0 016.11 16.56c1.25 4.32 2.51 8.64 3.53 13 .8 3.45 1.74 6.88 2.62 10.32 0 .18.09.36.13.54a.81.81 0 01-.37-.36c-.64-1.31-1.29-2.62-1.91-4-.4-.86-.7-1.77-1.1-2.63a149.179 149.179 0 01-6-15.73 74.573 74.573 0 00-4.49-11.18 79.408 79.408 0 01-3.34-7.34c-.8-1.96-1.48-4.05-2.1-6.17v.01zm-18.3 30.6c.04-.119.087-.235.14-.35a6.73 6.73 0 013.41-3.05 2.89 2.89 0 011.72-.14c.97.176 1.903.514 2.76 1 .84.5 1.7 1 2.52 1.45 1.23.76 2.47 1.51 3.65 2.34 1.87 1.31 3.7 2.69 5.54 4.05l2.51 1.87c.64.48 1.28 1 1.95 1.41 2.65 1.67 5.32 3.3 8 5a17.674 17.674 0 014.13 3.59c.39.47.77 1 1.18 1.48l-.82.7a5.334 5.334 0 01-.74-.23c-.55-.24-1.1-.5-1.64-.77-3.84-1.94-7.57-4.08-11.29-6.23a65.046 65.046 0 01-5.38-3.49c-1.74-1.25-3.2-2.27-4.82-3.36a27.153 27.153 0 00-5.55-3.08c-1.25-.46-2.56-.76-3.83-1.14-1.27-.38-2.26-.74-3.41-1.06l-.03.01zm32.34 12.89l-.09.1-.32-.18c-1.93-1.19-3.87-2.37-5.79-3.58-1.05-.67-2.08-1.36-3.09-2.09-1.01-.73-2-1.52-3-2.27-1.29-1-2.59-1.91-3.88-2.88a41.751 41.751 0 00-4.38-3.1c-1.92-1.11-3.85-2.2-5.74-3.34a6.055 6.055 0 01-1.27-1.11 1.569 1.569 0 01-.35-1.49 5.74 5.74 0 012.81-3.68 4.09 4.09 0 014.71.66c.78.92 1.67 1.75 2.44 2.67 1.12 1.35 2.2 2.74 3.28 4.12a734.344 734.344 0 013.79 4.91c.71.91 1.39 1.84 2.1 2.75a23.43 23.43 0 003.85 4.05 160.6 160.6 0 013.6 3c.46.46.88.98 1.33 1.45v.01zm6.46 4c0-.14-.06-.19 0-.23.23-1.13.45-2.26.69-3.39.57-2.59 1.2-5.17 1.69-7.77.6-3.2 1.09-6.42 1.61-9.63.4-2.49.79-5 1.15-7.49.34-2.333.657-4.666.95-7 .23-1.91.44-3.82.57-5.73a29.38 29.38 0 01.83-5.68c.71-2.69 1.4-5.37 2.08-8.06a59.456 59.456 0 001.65-9.27v2c0 2.29-.08 4.58-.14 6.86 0 .73-.07 1.46-.13 2.19-.12 1.42-.25 2.84-.41 4.26-.16 1.42-.33 2.68-.51 4-.18 1.32-.4 2.78-.58 4.18-.18 1.4-.42 3.11-.6 4.67-.15 1.27-.31 2.54-.38 3.82-.14 2.41-.18 4.83-.36 7.23a22.797 22.797 0 01-.64 3.94c-.74 2.83-1.64 5.62-2.64 8.37-1.5 4.08-3.31 8-4.54 12.24-.06.17-.19.3-.29.52v-.03zm-23.06-35.52c-.38-.44-.8-.91-1.21-1.41-1.09-1.33-2.21-2.63-3.24-4-2-2.7-4-5.49-6.27-8a20.996 20.996 0 01-2.73-3.7 18.011 18.011 0 01-1.17-2.47 4.38 4.38 0 01-.28-1.55 1.711 1.711 0 011.74-1.69c.362 0 .72.064 1.06.19 1.06.37 2.016.988 2.79 1.8.76.82 1.48 1.67 2.19 2.53.9 1.08 1.74 2.22 2.67 3.27a31.282 31.282 0 014.64 6.77c.153.316.257.654.31 1 .16 1 .27 2.07.43 3.09.22 1.338.627 2.637 1.21 3.86.05.1.09.204.12.31h-2.26zm18.07-30.38a6.312 6.312 0 012.94-.62 1.65 1.65 0 011.35.72c.318.433.493.954.5 1.49 0 1.31.07 2.63.09 4 0 2.21.05 4.43.08 6.64 0 .73.06 1.46.1 2.19.14 2.4.283 4.794.43 7.18.07 1.24.16 2.48.25 3.72.13 1.77.3 3.54.39 5.31.09 1.77.07 3.48.15 5.21a72.237 72.237 0 01-.28 8.83c0 .16-.07.31-.1.46-.12-.81-.16-1.61-.26-2.4-.27-2-.54-3.91-.84-5.86-.37-2.37-.74-4.73-1.14-7.09-.62-3.65-1.52-7.26-1.89-11-.13-1.34-.25-2.69-.39-4s-.25-2.47-.38-3.71c-.13-1.24-.27-2.54-.38-3.82-.1-1.09-.16-2.19-.26-3.28-.14-1.33-.23-2.65-.36-3.97zm-42.25 83.79l.27-.19c2.77-1.67 5.54-3.35 8.32-5a45.855 45.855 0 017.65-3.81 25.803 25.803 0 016.65-1.58 33.467 33.467 0 016.25.13c.4 0 .8.1 1.27.16-.91.35-1.73.64-2.53 1a36 36 0 00-7.64 4.5 42.626 42.626 0 01-5 3.33 15.599 15.599 0 01-6.11 1.8.811.811 0 01-.7-.19 1.51 1.51 0 00-1.22-.4c-.455.03-.907.1-1.35.21-.74.2-1.48.43-2.2.68a4.55 4.55 0 01-3.66-.64zm44.47-18.92l-.07.07a2.883 2.883 0 01-.32-.29c-1.27-1.34-2.52-2.7-3.8-4a17.5 17.5 0 01-3.19-4.7c-1.08-2.24-2.22-4.45-3.38-6.65-1.58-3-3.22-6-4.81-9a41.305 41.305 0 00-3.07-5.06 8.518 8.518 0 01-1.2-2.27 1.24 1.24 0 011.51-1.66 7.48 7.48 0 011.38.52 6.71 6.71 0 012.79 2.72c.91 1.55 1.81 3.1 2.56 4.73 2.15 4.66 4.24 9.36 6.34 14 1.7 3.79 3.25 7.64 5.17 11.33.035.085.065.172.09.26zm-41-10c-.27-.17-.45-.27-.61-.38a58.49 58.49 0 00-9-4.84 9.098 9.098 0 01-3.2-2.36 3.5 3.5 0 01-.75-1.44 6.78 6.78 0 01-.05-2.46c0-.37.13-.75.19-1.08.76.11 1.45.22 2.15.31.39.05.77.06 1.15.08l4.1.32c.46 0 .92.07 1.36.15a14.86 14.86 0 014.64 1.77c.74.4 1.51.74 2.26 1.12l.35.2c-1.13 2.74-1.68 5.65-2.59 8.57v.04zm55.37-66.18a7.17 7.17 0 011 .36 4.18 4.18 0 012.12 2.75 16.56 16.56 0 01.42 5c-.05.73-.12 1.46-.2 2.18-.19 1.88-.38 3.75-.6 5.62-.25 2-.55 4-.8 6-.43 3.43-.83 6.87-1.27 10.29-.32 2.43-.68 4.86-1.05 7.28a90.135 90.135 0 01-2.16 10.3c-.21.78-.43 1.55-.64 2.32a1.27 1.27 0 01-.06-.5c.06-1.23.13-2.45.19-3.67.08-1.45.12-2.89.26-4.33.21-2.18.48-4.36.76-6.53.31-2.45.68-4.89 1-7.33.25-2.09.5-4.18.63-6.27.15-2.47.18-4.94.24-7.41.06-2.47 0-5.05.15-7.58.15-2.53.15-5 .06-7.57-.01-.28-.03-.53-.05-.91zm-14.37 79.88v.09a8.08 8.08 0 01-.85.06 21.295 21.295 0 01-4.77-.63 24.327 24.327 0 01-6.5-2.74l-5.51-3.06a24 24 0 00-7.08-2.6 36.523 36.523 0 01-8.12-2.63c-.65-.295-1.28-.629-1.89-1a3.698 3.698 0 01-1.57-2.63c.63.15 1.17.31 1.73.41 2 .34 4.1.65 6.16 1a41.719 41.719 0 018.14 2.14 8.737 8.737 0 011.53.83c.81.53 1.58 1.13 2.4 1.65 3.5 2.24 7.12 4.27 10.77 6.25 1.87.98 3.73 1.9 5.56 2.86zm-48.56-.78l-.58.16c-1.53.36-3.07.66-4.58 1.07a37.474 37.474 0 01-7.94 1.22h-.68a3.705 3.705 0 01-.14-.49c-.11-.72-.24-1.44-.29-2.17a4.16 4.16 0 011.32-3.46 8.151 8.151 0 013.59-2 22.113 22.113 0 014.8-.51c2.32-.07 4.64-.1 7-.14h.74a21.69 21.69 0 00-3.22 6.32h-.02zm42-9.43l-.1.07c-1-.83-2-1.64-2.89-2.51a37.452 37.452 0 01-4.45-5.36c-1.1-1.48-2.21-3-3.33-4.42-.69-.9-1.43-1.77-2.13-2.66a48.76 48.76 0 00-3.77-4.35c-.92-.92-1.83-1.85-2.68-2.83-.85-.98-.65-1.59.51-2.11a5.19 5.19 0 013.64-.23 5.83 5.83 0 013.43 2.48 59.055 59.055 0 013.1 5.55c2.85 5.4 6 10.67 8.6 16.18.02.05.036.1.05.15l.02.04zm2.23 12.9v.09l-.18.17a26.374 26.374 0 00-4 3.8c-.69.78-1.39 1.56-2.13 2.29a12.67 12.67 0 01-5.34 3.25 45.51 45.51 0 01-4.75 1.13c-2.48.37-4.913 1-7.26 1.88-.86.35-1.75.64-2.64.92a7.462 7.462 0 01-2.65.381 2.93 2.93 0 01-1.91-.69c.05 0 .07-.07.1-.08.23 0 .46-.09.7-.12a14.129 14.129 0 006.09-2.17c1.52-1 3-2 4.48-3.07a39.202 39.202 0 018-4.61c.603-.257 1.23-.458 1.87-.6 1.09-.27 2.22-.43 3.31-.72 1.88-.51 3.75-1.09 5.63-1.64l.68-.21zm14-51.38h-.08v-.77c0-1.5 0-3-.09-4.5s-.19-3-.27-4.49c0-1.06 0-2.12-.11-3.18a68.53 68.53 0 01-.09-7.85 22.33 22.33 0 01.89-5.39 9.89 9.89 0 012.13-3.86 7.07 7.07 0 011.25-1 .82.82 0 01.79-.1.999.999 0 010 .22c0 1.94.06 3.88.07 5.82 0 .84-.06 1.68-.12 2.52-.08 1-.18 2-.29 3.06-.15 1.39-.24 2.8-.5 4.18-.42 2.3-.91 4.59-1.45 6.86-.64 2.7-1.36 5.38-2 8.07-.026.14-.062.277-.11.41h-.02zm-52.67 38.57c-1.74-.34-3.44-.68-5.14-1-1.7-.32-3.12-.64-4.69-.8-2-.21-3.94-.25-5.91-.37-.34 0-.67-.09-1-.14 0-.18.06-.29.09-.39a18.63 18.63 0 012.88-5.08c.217-.273.462-.525.73-.75a2.5 2.5 0 012.24-.64c1.307.278 2.586.677 3.82 1.19a60.78 60.78 0 018.45 4.63c.121.08.238.167.35.26a9.577 9.577 0 01-1.82 3.09zm12.82-23.82c-.2-.18-.34-.29-.47-.42-1.56-1.44-3.12-2.87-4.68-4.32a8.505 8.505 0 01-1-1.12c-1.09-1.4-2.17-2.8-3.22-4.23-1.66-2.25-3.29-4.53-4.94-6.79v-.15c.26-.19.53-.4.82-.59a1.84 1.84 0 012.46.11 27.856 27.856 0 014 3.88 57.41 57.41 0 005.54 5.71l6.18 5.43c.126.129.243.266.35.41a8.64 8.64 0 00-5 2.08h-.04zm-13.16 26.16a.35.35 0 010-.11c.072-.08.153-.154.24-.22a13.417 13.417 0 003-3.47c.33-.53.71-1 1.09-1.52a2.1 2.1 0 011.26-.81 1.31 1.31 0 011.52.59 4.48 4.48 0 001.95 1.71 34.258 34.258 0 008.72 3.06 26.753 26.753 0 016.41 2c.16.08.32.18.48.27a.349.349 0 01-.26.07c-.94 0-1.89-.08-2.84-.08-.56 0-1.13.11-1.69.1-.8 0-1.6-.12-2.4-.18a19.682 19.682 0 00-5.77.5 10.999 10.999 0 01-5.84-.16c-1.89-.57-3.85-1.15-5.83-1.75h-.04zm-.42.24c.85.23 1.67.43 2.47.66 1.33.4 2.64.84 4 1.23a9.163 9.163 0 003.79.38c1.26-.18 2.52-.43 3.78-.61.9-.12 1.82-.22 2.73-.25.91-.03 1.64.07 2.46.11.108.018.215.041.32.07a.67.67 0 01-.31.18 14.001 14.001 0 00-3.63 1.66c-.63.4-1.27.79-1.91 1.18a5.309 5.309 0 01-2.09.78l-2.28.33c-3 .44-6.05.86-9.07 1.31a14.734 14.734 0 00-4.22 1.13 2.088 2.088 0 01-.33.07.721.721 0 010-.24c.32-.93.62-1.87 1-2.79a13.443 13.443 0 011.8-3.44c.43-.6.97-1.13 1.53-1.76h-.04zm-5 7.09c-.27 1.41-.52 2.71-.78 4l-.38.26c-1.22.85-2.46 1.66-3.65 2.53a22.674 22.674 0 01-3.53 2.21c-.37.18-.77.3-1.17.46a15.24 15.24 0 01-4-7.06c.51 0 .94-.1 1.38-.12a25.515 25.515 0 004.45-.51c2.18-.48 4.33-1 6.5-1.53l1.18-.24zm26.63-36.8l-1.43-1.39c-2.5-2.47-5-4.92-7.51-7.41a64.527 64.527 0 01-8-9.42l-.31-.48c.28-.78.6-1 1.36-1a3.02 3.02 0 011.08.33 8.07 8.07 0 012.33 1.9c1.69 2 3.39 3.89 5.05 5.87 1 1.17 1.89 2.42 2.86 3.61 1.45 1.77 2.94 3.51 4.39 5.27.52.63 1 1.32 1.49 2l-1.31.72zm-8.23 3.47l-1 .94-.54-.42a47.27 47.27 0 00-8.27-5.66c-1.28-.7-2.53-1.46-3.79-2.21a17.42 17.42 0 01-3.78-3.07 1.57 1.57 0 01-.42-.74 5.38 5.38 0 01.23-3 2 2 0 01.76-1c5.56 5.11 11.26 10.01 16.81 15.18v-.02zm-18.81 3.53v-.12a5.35 5.35 0 01.52-.08h2.08c.963.12 1.937.12 2.9 0l2.28-.38a5.25 5.25 0 013 .25c1.11.48 2.21 1 3.31 1.48a2.1 2.1 0 01.32.25 36.934 36.934 0 00-3.61 6.13c-.51-.24-1-.45-1.43-.69a18.455 18.455 0 01-1.94-1.12c-.84-.59-1.6-1.28-2.41-1.91l-4.85-3.68-.17-.13zm4.17 22.68h-.43l-7.67.09c-1.12 0-2.23.07-3.34.17a4.998 4.998 0 01-1.84-.22 2 2 0 01-1.19-1 4.6 4.6 0 01-.53-2.7c0-.3.11-.6.17-.91 3 .29 5.88.2 8.74.71 2.54.44 5.05 1 7.58 1.47.08 0 .15.07.3.12l-1.79 2.27zm13.34-25l-2.54 3c-.68-.32-1.37-.61-2-1a4.649 4.649 0 01-.91-.67c-.67-.63-1.29-1.3-2-1.93-.85-.8-1.74-1.57-2.61-2.36a34.432 34.432 0 01-4-4.29 14.683 14.683 0 01-2-3.29c-.07-.17-.12-.35-.18-.53.19.065.362.175.5.32a17.06 17.06 0 002.93 2.3c1.21.73 2.41 1.47 3.65 2.14a50.323 50.323 0 018.76 5.93c.17.11.28.22.41.35l-.01.03zm7.3-3.68c-1.32-1.18-2.55-2.3-3.81-3.39-2.63-2.27-5.18-4.63-7.61-7.11a22.531 22.531 0 01-2.8-3.52 7.25 7.25 0 01-1-4.68c.029-.223.075-.444.14-.66.19.28.3.44.42.6 1 1.41 2.06 2.85 3.17 4.2a81.994 81.994 0 006.1 6.54l6.8 6.71c.15.14.29.31.49.54l-1.9.77zm6.48-13.61c.07.22.13.37.17.52a67.993 67.993 0 004.56 11.68c.9 1.79 1.78 3.6 2.57 5.45 1.83 4.27 3.05 8.77 4.65 13.12.01.057.01.114 0 .17-.44-.82-.81-1.65-1.18-2.49-1.92-4.25-3.73-8.55-6-12.61a8.831 8.831 0 00-2.55-3 4.589 4.589 0 01-1.62-1.9c-.28-.63-.54-1.28-.79-1.92a18.33 18.33 0 01-.81-4.08 8.33 8.33 0 01.78-4.59 2.76 2.76 0 01.22-.35zm-29 64.39c-.67.06-1.25.16-1.83.16a27.98 27.98 0 01-2.9-.08 3.348 3.348 0 01-2.37-1.24c-.49-.61-.93-1.26-1.41-1.9.08-.1.14-.19.21-.27a15.387 15.387 0 002-3.06c.32-.64.7-1.25 1-1.91a3.24 3.24 0 011.35-1.46c.42-.28.85-.54 1.37-.86a17.11 17.11 0 002.58 10.62zm14.11-11.5l-.58.27-11.12 4.7a12.703 12.703 0 00-3.47 2h-.15a16.63 16.63 0 01-.63-5.28l15.95-1.69zm-3.44-22.35l.58.17c1.38.41 2.75.86 4.15 1.21a19.67 19.67 0 014.79 1.86 68.438 68.438 0 015.81 3.75c.081.061.158.128.23.2a.9.9 0 01-.44 0 46.113 46.113 0 00-8.83-2.09c-1.57-.23-3.14-.49-4.7-.77-.6-.11-1.19-.3-1.74-.45a5.24 5.24 0 01.15-3.88zm6.66-44.75c.08.045.157.095.23.15a32.18 32.18 0 015.07 6c1.46 2.32 2.88 4.67 4.33 7 .17.283.24.614.2.94-.08.76-.12 1.53-.17 2.29v.41a1.199 1.199 0 01-.38-.47 24.5 24.5 0 00-3.47-5.19 49.446 49.446 0 01-5.4-7.45 7.79 7.79 0 01-.91-2.69.88.88 0 01.5-.99zm23.14 20.11h-.11c-.15-.41-.31-.81-.45-1.21a36.354 36.354 0 01-1.54-6.21c-.38-2.31-.69-4.62-1-6.93-.15-1-.28-2.07-.41-3.1-.08-.67-.15-1.34-.22-2a10.171 10.171 0 013.14-2.53 147.59 147.59 0 00.59 21.98zm-22.64-20.29c.252-.056.511-.08.77-.07.742.07 1.473.225 2.18.46a12 12 0 014.59 3.21c1.15 1.31 2.25 2.65 3.37 4 .12.14.21.29.31.41l-1.15 2.9-10.07-10.91zm-25.3 37.58a5.29 5.29 0 011.36-2.16 6.001 6.001 0 013-1.39.79.79 0 01.66.17c.62.45 1.26.88 1.87 1.34 1.48 1.14 2.94 2.3 4.41 3.45l.4.34a1.867 1.867 0 01-.64-.13 13.438 13.438 0 00-2.21-.61c-1.63-.21-3.27-.31-4.91-.45-.92-.08-1.86-.13-2.78-.24a7.87 7.87 0 01-1.16-.32zm9.55-24l7.27 9.89-.08.09c-3.08-2.82-6.23-5.54-9.35-8.36l2.16-1.62zm-7.52 56.5l.07.08-1.15 2.16a14.68 14.68 0 01-1.79 2.74c-.14.16-.29.31-.45.47l-2.35-2a20.208 20.208 0 005.67-3.53v.08zm32.77-56.9h-.13c-1.51-2.47-3.14-4.87-4.49-7.45l5.08 5.56c-.15.62-.31 1.23-.46 1.85v.04z" fill="#868C96"/></g><defs><clipPath id="a"><path fill="#fff" transform="matrix(-1 0 0 1 88.35 0)" d="M0 0h88.35v100.99H0z"/></clipPath></defs></svg>