<svg width="413" height="436" fill="none" xmlns="http://www.w3.org/2000/svg"><circle opacity=".5" cx="225.5" cy="191.5" r="14.5" fill="#D2DFE6"/><path opacity=".5" d="M162.5 315c-12.4 0-34.833 14.667-44.5 22 12.167 5.333 39.4 16.5 51 18.5 11.6 2 32.167-9.5 41-15.5-10.667-8.333-35.1-25-47.5-25z" fill="#D2DFE6"/><path opacity=".3" d="M9 78c7.595-24.63 60.4-2.4 66 0 5.6 2.4 9.163-3.968 14-8 19.855-16.55-20.298-60.694 5-66 11.867-2.489 21.774-.908 30 8 13.323 14.429-15 48-15 48s34.251-28.206 43-13c4.479 7.785 0 23 0 23s-29-2.333-43 15-25.553 82.948-43 60c-9.059-11.915-5-38-5-38s-30.974 16.375-44 5C6.726 103.028 4.98 91.035 9 78z" fill="#D2DFE6"/><path d="M83.875 47.383l.496-.066-.496.066zM111.586 1.17l.094.49-.094-.49zM98.36 114.972l-.463-.188.463.188zm-44.715 15.719l.26-.427-.26.427zm.945-27.35l-.333-.373.333.373zm9.762 1.886l.381.323-.381-.323zM30.028 74.419l.058-.497-.058.497zm86.281 59.73l.485.121-.485-.121zM77.577 331.573l-.484-.125.484.125zm16.69 60.044l-.375.331.375-.331zm181.694-22.32l-.388.315.388-.315zm-50.698-2.515l.499.025-.499-.025zm19.209-31.123l.075-.494-.075.494zm22.987 1.887l.29-.407-.29.407zm-33.694-30.809l.489.107-.489-.107zm30.545-49.67l.019.5-.019-.5zm28.341 52.185l-.492.092.492-.092zm26.766 63.503l-.192-.462.192.462zm13.225-43.383l-.289-.408.289.408zm-34.953 31.751l-.442.233.332.631.48-.527-.37-.337zM189.365 158.984l.353-.354-.353.354zm44.085 44.326l-.014.5h.022l.021-.001-.029-.499zm-35.583-9.745l.396.305-.396-.305zm28.656-12.89l.035-.498-.035.498zm-23.303-3.772l.052-.497-.052.497zm-26.451 20.12l-.494-.079.494.079zm4.724 46.212l.462-.19-.462.19zm-3.149 36.152l.336.371-.336-.371zm-6.298 10.374l-.074-.494.074.494zm-19.209-8.802l-.098.49.098-.49zm-12.281 3.144l-.462.189.462-.189zm26.766 19.176l.395-.307-.395.307zm-1.574 11.632l-.268-.422.268.422zm-31.175 23.263l-.131-.482.131.482zm21.098-5.973l.082.494-.082-.494zm23.617 0l-.114.487.114-.487zm18.579 4.401l.103-.489-.103.489zm9.683 8.929a.5.5 0 10-.472-.881l.472.881zM71.196 21.591c1.768 2.337 4.508 6.448 6.961 11.16 2.457 4.72 4.604 10.004 5.222 14.697l.992-.13c-.641-4.864-2.85-10.27-5.327-15.028-2.48-4.765-5.25-8.923-7.051-11.302l-.797.604zm12.183 25.857c.79 5.997 1.978 11.302 3.61 15.671 1.63 4.365 3.714 7.829 6.319 10.104l.658-.753c-2.433-2.125-4.442-5.42-6.04-9.7-1.597-4.277-2.77-9.503-3.555-15.453l-.992.131zm9.929 25.775c.33.289.638.516.925.67.282.153.584.256.888.24.33-.017.6-.171.798-.417.182-.227.291-.52.36-.828.14-.616.158-1.473.105-2.51-.054-1.047-.184-2.323-.361-3.8-.712-5.917-2.203-15.158-2.831-26.454l-.999.056c.631 11.339 2.131 20.645 2.837 26.518.177 1.47.303 2.719.355 3.732.052 1.024.026 1.764-.08 2.238-.054.237-.119.363-.166.422-.034.042-.05.043-.07.045-.047.002-.16-.013-.361-.122a4.27 4.27 0 01-.742-.543l-.658.753zm-.117-33.099c-.624-11.22 2.106-20.49 5.952-27.132 3.864-6.673 8.802-10.613 12.537-11.33l-.188-.982c-4.149.796-9.287 5.029-13.214 11.81-3.945 6.812-6.72 16.276-6.085 27.69l.999-.056zM111.68 1.662c3.883-.746 9.001 1.118 13.141 5.058 4.121 3.922 7.202 9.842 7.048 17.075l1 .02c.161-7.542-3.056-13.725-7.358-17.82-4.284-4.076-9.715-6.142-14.019-5.316l.188.983zm20.189 22.133c-.156 7.326-2.033 16.785-4.619 24.53-1.293 3.872-2.755 7.292-4.255 9.794-.75 1.251-1.5 2.256-2.23 2.97-.734.72-1.411 1.109-2.014 1.204l.155.988c.893-.14 1.751-.686 2.559-1.477.813-.795 1.613-1.878 2.388-3.171 1.551-2.587 3.041-6.083 4.346-9.992 2.61-7.816 4.511-17.376 4.67-24.825l-1-.021zm-13.118 38.498c-1.422.224-2.645.068-3.539-.331-.891-.398-1.434-1.023-1.595-1.758-.162-.738.039-1.702.881-2.819.843-1.118 2.304-2.354 4.57-3.59l-.479-.878c-2.342 1.278-3.933 2.597-4.89 3.866-.957 1.27-1.302 2.527-1.059 3.635.244 1.113 1.054 1.961 2.164 2.457 1.107.495 2.533.653 4.102.406l-.155-.988zm.317-8.498c4.569-2.494 13.007-5.845 20.705-6.622 3.85-.389 7.461-.128 10.302 1.157 2.813 1.271 4.906 3.56 5.738 7.334l.976-.215c-.9-4.085-3.204-6.63-6.302-8.03-3.069-1.388-6.882-1.638-10.815-1.241-7.868.794-16.435 4.202-21.083 6.739l.479.878zm36.745 1.869c1.695 7.692-.613 14.93-4.902 20.33-4.296 5.409-10.547 8.936-16.677 9.243l.049.998c6.465-.323 12.968-4.025 17.411-9.62 4.449-5.602 6.864-13.14 5.095-21.166l-.976.215zm-21.579 29.573c-6.25.312-11.375-.623-15.595-1.02-4.166-.393-7.563-.275-9.948 2.447l.752.659c2.023-2.308 4.924-2.505 9.103-2.111 4.124.388 9.392 1.34 15.737 1.023l-.049-.998zm-25.543 1.427c-2.286 2.607-3.807 6.8-5.337 11.694-1.541 4.933-3.106 10.636-5.457 16.426l.927.376c2.372-5.841 3.956-11.613 5.485-16.504 1.541-4.93 3.011-8.91 5.134-11.333l-.752-.66zm-10.794 28.12c-.943 2.321-3.34 4.952-6.686 7.48-3.332 2.518-7.548 4.893-12.046 6.722-4.499 1.83-9.26 3.107-13.683 3.442-4.428.336-8.47-.274-11.577-2.164l-.52.854c3.35 2.039 7.627 2.652 12.173 2.307 4.55-.345 9.415-1.654 13.984-3.512 4.57-1.859 8.864-4.276 12.272-6.851 3.393-2.564 5.965-5.328 7.01-7.902l-.927-.376zm-43.992 15.48c-4.28-2.606-6.672-5.232-7.807-7.75-1.13-2.506-1.042-4.961-.248-7.288 1.605-4.707 6.064-8.825 9.073-11.513l-.666-.745c-2.974 2.656-7.65 6.94-9.354 11.935-.86 2.524-.969 5.246.283 8.022 1.247 2.763 3.816 5.524 8.2 8.193l.52-.854zm1.018-26.551c1.724-1.539 3.775-2.891 5.733-3.875 1.968-.99 3.794-1.584 5.073-1.657.645-.037 1.072.064 1.314.23.202.139.345.368.313.828-.034.489-.27 1.192-.82 2.15-.546.95-1.381 2.114-2.566 3.515l.763.646c1.209-1.429 2.084-2.643 2.67-3.662.581-1.012.901-1.87.95-2.58.052-.739-.193-1.344-.745-1.722-.51-.35-1.203-.445-1.936-.403-1.479.084-3.449.747-5.466 1.762-2.028 1.02-4.154 2.419-5.95 4.023l.667.745zm9.047 1.191c-5.851 6.917-16.938 10.513-28.012 10.826-5.524.156-11.01-.507-15.787-1.963-4.783-1.457-8.824-3.698-11.499-6.674l-.744.669c2.836 3.154 7.061 5.471 11.952 6.962 4.895 1.491 10.49 2.164 16.106 2.005 11.205-.316 22.633-3.95 28.747-11.179l-.763-.646zm-55.298 2.189c-5.444-6.056-8.735-15.15-6.421-22.147 1.148-3.472 3.687-6.47 8.116-8.362 4.447-1.898 10.816-2.687 19.604-1.669l.115-.993c-8.886-1.03-15.448-.249-20.111 1.742-4.68 1.998-7.43 5.21-8.674 8.968-2.468 7.466 1.05 16.925 6.627 23.13l.744-.669zm21.299-32.178c18.452 2.138 32.009.567 42.603.661 5.312.048 9.88.51 14.006 2.034 4.116 1.519 7.823 4.104 11.394 8.444l.772-.636c-3.671-4.462-7.521-7.16-11.82-8.746-4.286-1.582-8.989-2.048-14.343-2.096-10.74-.095-24.107 1.477-42.497-.654l-.115.993zm68.003 11.138c14.468 17.584 21.567 33.132 17.85 47.974l.97.243c3.841-15.337-3.545-31.226-18.047-48.852l-.773.635zm17.85 47.974c-2.651 10.587-9.322 17.467-15.466 25.573-6.134 8.093-11.63 17.302-11.63 32.393h1c0-14.789 5.363-23.788 11.427-31.789 6.055-7.989 12.924-15.091 15.639-25.934l-.97-.243zm-27.096 57.966c0 16.007 5.17 25.687 10.144 34.281 4.971 8.585 9.686 16.004 9.066 27.623l.998.053c.639-11.959-4.25-19.63-9.198-28.177-4.944-8.54-10.01-18.036-10.01-33.78h-1zm19.21 61.904c-.623 11.664-6.402 23.647-13.028 36.461-6.608 12.778-14.04 26.353-17.817 41.09l.969.249c3.741-14.602 11.108-28.063 17.736-40.88 6.61-12.782 12.502-24.953 13.138-36.867l-.998-.053zm-30.845 77.551c-1.757 6.857-1.748 17.237.784 28.255 2.534 11.025 7.603 22.738 16.015 32.245l.75-.662c-8.278-9.355-13.285-20.905-15.79-31.807-2.507-10.91-2.497-21.121-.79-27.782l-.97-.249zm16.8 60.5c7.479 8.454 19.935 19.172 33.49 27.779 13.537 8.596 28.259 15.144 40.254 15.144v-1c-11.697 0-26.215-6.414-39.718-14.988-13.486-8.564-25.868-19.223-33.278-27.597l-.749.662zm73.744 42.923c25.348 0 50.036-13.903 61.453-25.934l-.726-.688c-11.256 11.861-35.692 25.622-60.727 25.622v1zm61.453-25.934c5.678-5.984 16.132-17.44 25.841-26.583 4.856-4.574 9.503-8.546 13.256-10.962 1.881-1.21 3.501-2.005 4.786-2.305 1.284-.3 2.105-.086 2.6.525l.777-.63c-.844-1.04-2.148-1.209-3.604-.869-1.454.34-3.188 1.208-5.1 2.438-3.834 2.468-8.536 6.493-13.401 11.075-9.736 9.168-20.223 20.661-25.881 26.623l.726.688zm46.483-39.325c.376.464.594 1.172.601 2.126.007.95-.195 2.096-.607 3.378-.825 2.564-2.465 5.598-4.798 8.55-4.669 5.909-12.035 11.398-20.987 12.168l.086.997c9.312-.802 16.907-6.497 21.686-12.545 2.391-3.027 4.097-6.165 4.965-8.863.433-1.349.663-2.605.655-3.692-.008-1.083-.254-2.046-.824-2.749l-.777.63zm-25.791 26.222c-9.075.782-15.299-.797-19.144-5.289-3.871-4.521-5.457-12.13-4.876-23.738l-.998-.05c-.584 11.655.979 19.608 5.114 24.439 4.161 4.86 10.801 6.426 19.99 5.635l-.086-.997zm-24.02-29.027c.63-12.57 2.361-20.699 5.394-25.45 1.505-2.358 3.324-3.871 5.488-4.693 2.172-.825 4.736-.97 7.753-.51l.15-.989c-3.124-.476-5.874-.341-8.258.564-2.392.909-4.372 2.577-5.976 5.09-3.186 4.991-4.919 13.358-5.549 25.938l.998.05zm18.635-30.653c4.638.706 8.733 1.42 12.183 2.032 3.446.612 6.26 1.126 8.323 1.429 1.03.151 1.888.253 2.55.286.331.017.625.018.873-.003.238-.021.48-.064.678-.164.217-.11.436-.322.448-.658.011-.275-.128-.512-.255-.681-.267-.353-.766-.771-1.448-1.256l-.58.814c.68.485 1.065.826 1.229 1.044.088.117.052.119.055.04.005-.139.107-.199.1-.196-.026.014-.116.043-.312.06-.186.016-.43.017-.737.002-.614-.032-1.434-.127-2.456-.277-2.043-.301-4.836-.81-8.293-1.424a490.936 490.936 0 00-12.208-2.037l-.15.989zm23.352.985c-.606-.433-1.67-.915-2.995-1.457-1.338-.548-3.01-1.184-4.856-1.912-3.705-1.462-8.165-3.318-12.345-5.697-4.184-2.381-8.051-5.267-10.599-8.77-2.535-3.487-3.768-7.587-2.7-12.459l-.977-.214c-1.137 5.188.189 9.576 2.869 13.261 2.667 3.668 6.673 6.638 10.912 9.051 4.244 2.415 8.759 4.293 12.473 5.758 1.864.736 3.513 1.362 4.844 1.907 1.345.551 2.298.992 2.794 1.346l.58-.814zm-33.495-30.295c2.806-12.806 8.37-25.09 14.249-34.205 2.939-4.559 5.948-8.31 8.718-10.935 1.384-1.313 2.7-2.335 3.908-3.036 1.213-.703 2.288-1.066 3.2-1.101l-.038-1c-1.135.044-2.373.487-3.664 1.236-1.295.752-2.672 1.827-4.094 3.175-2.844 2.696-5.902 6.516-8.871 11.119-5.937 9.205-11.551 21.599-14.385 34.533l.977.214zm30.075-49.277c2.883-.111 5.747 1.303 8.53 4.004 2.782 2.701 5.436 6.645 7.881 11.478 4.889 9.664 8.892 22.779 11.419 36.295l.983-.184c-2.538-13.574-6.565-26.788-11.51-36.562-2.471-4.886-5.185-8.937-8.077-11.744-2.89-2.806-6.006-4.412-9.264-4.287l.038 1zm27.83 51.777c2.202 11.778 2.98 19.43 2.551 25.968-.428 6.53-2.061 11.977-4.734 19.354l.941.34c2.68-7.399 4.353-12.954 4.791-19.628.437-6.666-.359-14.417-2.566-26.218l-.983.184zm-2.183 45.322c-2.706 7.471-3.651 18.209-3.926 29.005-.276 10.799.118 21.762.118 29.638h1c0-7.935-.394-18.822-.119-29.612.276-10.794 1.221-21.387 3.868-28.691l-.941-.34zm-3.808 58.643c0 7.819 1.184 13.337 3.131 16.92 1.959 3.605 4.708 5.271 7.76 5.271v-1c-2.616 0-5.062-1.399-6.882-4.749-1.832-3.373-3.009-8.7-3.009-16.442h-1zm10.891 22.191c1.14 0 2.622-.473 4.296-1.26 1.689-.795 3.631-1.938 5.708-3.34 4.156-2.803 8.892-6.663 13.297-10.905 4.404-4.24 8.495-8.876 11.35-13.235 1.427-2.18 2.555-4.303 3.255-6.282.699-1.976.985-3.842.689-5.491l-.985.177c.255 1.416.02 3.096-.647 4.98-.665 1.88-1.748 3.93-3.149 6.068-2.8 4.276-6.835 8.854-11.206 13.063-4.371 4.207-9.061 8.03-13.163 10.796-2.051 1.384-3.947 2.498-5.575 3.264-1.643.773-2.959 1.165-3.87 1.165v1zm38.595-40.513c-.572-3.182-2.262-6.032-4.339-8.54-2.077-2.51-4.567-4.707-6.774-6.577-2.234-1.894-4.127-3.413-5.112-4.618-.503-.615-.665-1.028-.646-1.289.014-.188.145-.463.826-.746l-.384-.924c-.815.339-1.384.846-1.439 1.596-.05.678.349 1.36.869 1.996 1.061 1.298 3.066 2.905 5.24 4.748 2.202 1.866 4.633 4.015 6.65 6.451 2.017 2.437 3.594 5.131 4.124 8.08l.985-.177zm-16.045-21.77c5.397-2.245 10.449.489 15.914 3.968 2.698 1.718 5.487 3.606 8.382 5.037 2.903 1.434 5.958 2.431 9.218 2.35l-.025-1c-3.037.076-5.926-.852-8.75-2.247-2.832-1.399-5.554-3.243-8.288-4.984-5.4-3.437-10.896-6.518-16.835-4.048l.384.924zm33.514 11.355c3.27-.082 7.843-1.7 12.939-4.446 5.113-2.755 10.81-6.677 16.345-11.432 11.058-9.502 21.531-22.392 25.347-36.044l-.963-.269c-3.741 13.384-14.051 26.115-25.036 35.554-5.487 4.715-11.125 8.594-16.168 11.311-5.06 2.726-9.461 4.251-12.489 4.326l.025 1zm54.631-51.922c1.887-6.751 3.29-11.761 4.062-15.466.386-1.853.619-3.399.672-4.685.053-1.283-.07-2.342-.423-3.201-.735-1.788-2.371-2.519-4.727-2.83-2.345-.311-5.606-.231-9.827-.231v1c4.28 0 7.436-.077 9.696.222 2.249.298 3.408.942 3.933 2.219.277.673.399 1.57.349 2.78-.05 1.207-.27 2.692-.652 4.522-.763 3.664-2.154 8.634-4.046 15.401l.963.269zm-10.243-26.413c-7.972 0-19.365 2.217-31.194 6.156-11.835 3.941-24.151 9.619-33.964 16.571l.578.816c9.711-6.88 21.932-12.519 33.702-16.438 11.775-3.921 23.054-6.105 30.878-6.105v-1zm-65.158 22.727c-8.589 6.085-17.348 14.044-23.954 20.473a317.579 317.579 0 00-8.017 8.085 235.926 235.926 0 00-2.857 3.04l-.153.167-.039.043-.01.011-.003.003-.001.001.37.336.37.336h.001l.002-.003.01-.01a.798.798 0 01.038-.042l.152-.166a246.977 246.977 0 012.843-3.025 318.663 318.663 0 017.991-8.06c6.592-6.415 15.309-14.332 23.835-20.373l-.578-.816zm-34.664 32.159c.442-.233.443-.232.443-.232v.001l.001.001s0 .001 0 0l-.003-.005-.017-.037a2.785 2.785 0 01-.071-.182 5.742 5.742 0 01-.217-.816c-.147-.752-.264-1.932-.11-3.596.306-3.33 1.693-8.605 6.076-16.262l-.868-.497c-4.434 7.746-5.881 13.16-6.204 16.667-.162 1.755-.042 3.031.125 3.881.084.424.179.742.256.958.039.108.073.191.098.25l.032.069a.19.19 0 00.011.021l.003.008.002.002v.001c.001.001.001.001.443-.232zm6.102-21.128c8.841-15.446 14-33.908 4.082-49.558l-.845.535c9.606 15.158 4.689 33.163-4.105 48.526l.868.497zm4.082-49.558c-2.451-3.868-5.689-8.322-9.141-13.021-3.457-4.704-7.131-9.657-10.471-14.54-3.34-4.885-6.335-9.684-8.434-14.075-2.106-4.405-3.279-8.336-3.052-11.503l-.998-.072c-.245 3.434 1.022 7.559 3.148 12.006 2.132 4.46 5.16 9.308 8.511 14.208 3.352 4.901 7.038 9.871 10.49 14.568 3.455 4.703 6.673 9.13 9.102 12.964l.845-.535zm-31.098-53.139c.235-3.282.959-8.306 1.734-14.291.773-5.971 1.591-12.871 2.006-19.864.414-6.991.425-14.09-.422-20.456-.846-6.358-2.555-12.036-5.62-16.143l-.802.598c2.918 3.91 4.594 9.392 5.431 15.677.835 6.277.827 13.306.414 20.265-.412 6.957-1.227 13.83-1.999 19.795-.77 5.952-1.502 11.027-1.74 14.347l.998.072zm-2.302-70.754c-5.997-8.035-12.898-15.885-22.558-21.163-9.671-5.285-22.062-7.967-38.998-5.755l.13.992c16.758-2.189 28.93.472 38.388 5.64 9.47 5.175 16.267 12.886 22.236 20.884l.802-.598zm-61.556-26.918c-8.453 1.104-14.259 2.784-18.193 4.718-3.937 1.936-6.029 4.14-6.996 6.301-.968 2.164-.775 4.21-.286 5.763.483 1.535 1.269 2.63 1.57 2.93l.706-.708c-.171-.171-.881-1.12-1.323-2.522-.436-1.385-.597-3.17.246-5.054.844-1.887 2.727-3.946 6.524-5.812 3.801-1.868 9.489-3.528 17.882-4.624l-.13-.992zm-23.905 19.712c1.307 1.304 3.203 1.513 5.519 1.225 2.323-.289 5.235-1.102 8.711-2.029 6.979-1.86 16.417-4.236 28.628-4.08l.012-1c-12.351-.158-21.897 2.248-28.898 4.114-3.514.937-6.34 1.724-8.576 2.002-2.244.279-3.726.022-4.69-.94l-.706.708zm42.858-4.884c12.237.157 19.23 2.664 23.183 6.8 3.952 4.134 4.978 10.012 4.978 17.221h1c0-7.256-1.02-13.481-5.255-17.912-4.235-4.431-11.569-6.951-23.894-7.109l-.012 1zm28.161 24.021c0 11.381-6.601 17.445-13.259 20.692-3.336 1.626-6.677 2.538-9.189 3.044a39.497 39.497 0 01-3.028.49 25.138 25.138 0 01-1.063.105l-.054.004-.013.001h-.004l.029.499.03.499h.006l.016-.001.062-.005a28.796 28.796 0 001.109-.11 39.594 39.594 0 003.107-.502c2.567-.516 5.995-1.451 9.43-3.125 6.882-3.356 13.821-9.709 13.821-21.591h-1zM233.45 203.31l.014-.5h-.015l-.047-.002-.186-.005-.713-.022a691.178 691.178 0 01-11.073-.442c-6.54-.315-14.07-.785-18.134-1.409l-.151.988c4.124.633 11.708 1.106 18.237 1.42a717.971 717.971 0 0011.089.442l.715.022a15.851 15.851 0 00.234.007l.012.001h.004l.014-.5zm-30.154-2.38c-4.075-.626-5.731-1.813-6.222-2.984-.488-1.164.057-2.606 1.189-4.076l-.792-.611c-1.162 1.509-2.035 3.367-1.319 5.074.713 1.7 2.881 2.953 6.993 3.585l.151-.988zm-5.033-7.06c1.511-1.961 5.767-5.345 11.094-8.143 5.32-2.796 11.598-4.947 17.13-4.553l.071-.997c-5.805-.414-12.281 1.835-17.667 4.665-5.379 2.826-9.781 6.291-11.42 8.417l.792.611zm28.224-12.696c6.382.455 10.279 4.991 10.656 9.329.188 2.162-.494 4.276-2.174 5.856-1.685 1.583-4.428 2.679-8.446 2.679v1c4.193 0 7.209-1.145 9.13-2.951 1.926-1.81 2.698-4.235 2.486-6.67-.422-4.857-4.737-9.752-11.581-10.24l-.071.997zm.036 17.864c-5.354 0-8.434-1.297-10.331-3.172-1.911-1.889-2.704-4.443-3.312-7.165-.597-2.67-1.019-5.561-2.258-7.837-.631-1.158-1.48-2.177-2.68-2.957-1.198-.777-2.719-1.299-4.67-1.501l-.103.994c1.828.19 3.19.671 4.229 1.346 1.037.674 1.78 1.558 2.345 2.596 1.152 2.115 1.537 4.785 2.161 7.577.612 2.74 1.452 5.55 3.585 7.658 2.148 2.124 5.524 3.461 11.034 3.461v-1zm-23.251-22.632c-8.325-.866-14.535.715-18.947 4.341-4.406 3.621-6.937 9.213-8.05 16.197l.988.157c1.091-6.848 3.548-12.172 7.697-15.582 4.142-3.404 10.056-4.967 18.209-4.119l.103-.994zm-26.997 20.538c-1.914 12.015-.955 32.545 4.755 46.48l.925-.379c-5.625-13.729-6.585-34.066-4.692-45.944l-.988-.157zm4.755 46.48c3.023 7.378 7.473 13.086 11.13 17.817 1.834 2.374 3.457 4.486 4.624 6.452 1.167 1.967 1.843 3.731 1.843 5.407h1c0-1.94-.78-3.89-1.983-5.917-1.205-2.029-2.868-4.192-4.693-6.553-3.664-4.741-8.031-10.35-10.996-17.585l-.925.379zm17.597 29.676c0 4.959-1.614 8.337-4.03 10.332-2.422 2-5.729 2.674-9.24 2.064l-.171.986c3.731.648 7.352-.054 10.047-2.279 2.701-2.229 4.394-5.924 4.394-11.103h-1zm-13.27 12.396c-1.795-.311-3.322-.679-4.548-1.1-1.234-.423-2.128-.889-2.687-1.377-.549-.479-.733-.937-.679-1.392.058-.492.406-1.116 1.237-1.869l-.672-.741c-.902.818-1.459 1.648-1.558 2.493-.104.881.302 1.641 1.014 2.262.7.612 1.735 1.129 3.02 1.57 1.293.444 2.875.823 4.702 1.14l.171-.986zm-6.677-5.738c1.804-1.638 4.197-2.329 6.137-2.336.971-.003 1.79.165 2.345.439.562.277.758.601.758.898h1c0-.838-.585-1.435-1.316-1.795-.736-.363-1.72-.545-2.791-.542-2.143.008-4.788.764-6.805 2.595l.672.741zm9.24-.999c0 1.326-.628 2.598-1.719 3.796-1.092 1.197-2.615 2.284-4.32 3.224-3.412 1.881-7.449 3.12-9.909 3.488l.148.989c2.578-.386 6.728-1.663 10.244-3.601 1.759-.97 3.384-2.119 4.576-3.427 1.192-1.307 1.98-2.809 1.98-4.469h-1zm-15.948 10.508c-1.451.217-2.947-.104-4.503-.766-1.558-.663-3.138-1.652-4.749-2.731-1.597-1.069-3.235-2.235-4.854-3.202-1.622-.968-3.274-1.768-4.931-2.099l-.196.98c1.492.298 3.028 1.031 4.614 1.978 1.59.949 3.18 2.082 4.81 3.174 1.617 1.083 3.264 2.117 4.914 2.82 1.653.703 3.344 1.089 5.043.835l-.148-.989zm-19.037-8.798c-4.058-.81-7.497-.724-9.808-.054-1.15.334-2.074.828-2.635 1.481-.589.685-.756 1.524-.398 2.396l.925-.379c-.208-.507-.125-.951.231-1.365.382-.445 1.096-.865 2.156-1.172 2.108-.612 5.375-.717 9.333.073l.196-.98zm-12.841 3.823c.764 1.867 2.608 3.634 4.906 5.308 2.314 1.685 5.169 3.332 8.053 4.932 2.896 1.606 5.816 3.162 8.305 4.686 2.5 1.531 4.494 2.987 5.57 4.369l.789-.615c-1.199-1.539-3.335-3.075-5.837-4.607-2.513-1.539-5.469-3.114-8.342-4.708-2.884-1.6-5.69-3.22-7.949-4.866-2.276-1.657-3.918-3.286-4.57-4.878l-.925.379zm26.834 19.295c.996 1.278 1.464 3.49 1.235 5.692-.228 2.203-1.133 4.225-2.683 5.21l.536.844c1.914-1.216 2.898-3.595 3.142-5.95.244-2.356-.233-4.86-1.441-6.411l-.789.615zm-1.448 10.902c-.684.434-1.726.567-3.103.518-1.367-.049-2.928-.267-4.62-.439-3.313-.338-7.084-.5-9.931 1.506l.576.818c2.506-1.766 5.909-1.671 9.253-1.329 1.637.167 3.275.393 4.686.444 1.401.049 2.715-.064 3.675-.674l-.536-.844zm-17.654 1.585c-2.678 1.887-10.289 6.899-17.236 11.668-3.465 2.378-6.759 4.692-9.17 6.511-1.203.909-2.197 1.702-2.882 2.322a7.882 7.882 0 00-.813.822 2.014 2.014 0 00-.244.364.794.794 0 00-.087.512l.98-.197c.023.117-.022.178.001.132.015-.031.052-.09.125-.179.145-.178.38-.416.708-.712.653-.59 1.618-1.362 2.815-2.266 2.391-1.805 5.67-4.108 9.133-6.485 6.909-4.741 14.57-9.789 17.246-11.674l-.576-.818zm-30.432 22.199c.056.283.252.469.426.584.178.118.398.206.629.275.464.138 1.083.233 1.789.296 1.419.128 3.29.141 5.212.084a92.388 92.388 0 005.581-.34c1.648-.153 3.018-.337 3.674-.515l-.263-.965c-.559.152-1.844.33-3.504.485a91.16 91.16 0 01-5.518.335c-1.907.057-3.732.043-5.092-.08-.684-.061-1.225-.148-1.593-.258a1.45 1.45 0 01-.362-.15c-.066-.044-.016-.035.001.052l-.98.197zm17.311.384c1.737-.473 6.457-1.876 11.008-3.202a562.13 562.13 0 016.329-1.813c1.824-.507 3.179-.859 3.711-.947l-.164-.987c-.598.1-2.013.47-3.815.971a575.853 575.853 0 00-6.341 1.816c-4.566 1.331-9.265 2.727-10.991 3.197l.263.965zm21.048-5.962c1.851-.308 6.386-.623 11.145-.701 4.769-.079 9.668.082 12.276.694l.229-.973c-2.746-.645-7.765-.799-12.522-.721-4.767.079-9.364.393-11.292.714l.164.987zm23.421-.007c3.965.931 12.391 3.101 18.59 4.404l.206-.979c-6.188-1.3-14.563-3.458-18.567-4.398l-.229.973zm18.59 4.404c3.03.637 6.138.875 8.535.836 1.197-.02 2.232-.11 3-.26a4.69 4.69 0 00.983-.287c.231-.104.544-.287.655-.62l-.948-.317c.032-.097.08-.064-.117.025-.165.074-.418.15-.765.217-.688.135-1.659.222-2.825.242-2.326.038-5.359-.194-8.312-.815l-.206.979zm13.173-.331a.61.61 0 00.016-.317.918.918 0 00-.063-.188 2.074 2.074 0 00-.186-.313 9.135 9.135 0 00-.633-.783c-.543-.614-1.34-1.433-2.326-2.385-1.974-1.907-4.73-4.372-7.791-6.856s-6.434-4.993-9.641-6.983c-3.193-1.98-6.274-3.48-8.738-3.889l-.164.986c2.259.376 5.201 1.785 8.374 3.753 3.16 1.96 6.498 4.441 9.538 6.909 3.04 2.467 5.775 4.914 7.727 6.799.978.944 1.753 1.742 2.272 2.328.26.295.447.526.56.691.058.083.087.134.097.158.006.011 0 .002-.005-.024a.387.387 0 01.015-.203l.948.317zm-29.362-21.714c-4.766-.794-8.012-.568-10.29.259-2.301.835-3.567 2.267-4.399 3.763l.873.486c.742-1.333 1.839-2.573 3.867-3.309 2.052-.745 5.104-.992 9.785-.213l.164-.986zm-14.689 4.022c-.438.786-.745 2.021-1.028 3.405-.293 1.433-.557 3.008-.914 4.671-.352 1.64-.778 3.277-1.362 4.71-.585 1.438-1.314 2.632-2.25 3.422l.645.764c1.111-.938 1.917-2.299 2.532-3.808.616-1.514 1.056-3.217 1.413-4.878.351-1.638.639-3.325.916-4.681.288-1.407.571-2.489.921-3.119l-.873-.486zm-5.554 16.208c-1.971 1.665-5.359 3.213-9.002 4.386-3.633 1.17-7.447 1.945-10.227 2.099l.055.998c2.889-.16 6.789-.957 10.478-2.145 3.678-1.184 7.218-2.78 9.341-4.574l-.645-.764zm-19.229 6.485c-1.407.078-3.169.117-5.042.161-1.869.045-3.844.094-5.664.193-1.815.098-3.496.247-4.772.494-.635.124-1.195.276-1.628.472-.409.185-.826.462-.975.907l.949.317c.009-.027.084-.153.438-.313.329-.149.802-.284 1.407-.401 1.204-.234 2.829-.38 4.635-.478 1.802-.098 3.763-.147 5.634-.191 1.866-.044 3.647-.083 5.073-.163l-.055-.998zm-18.081 2.227a.841.841 0 00.008.521c.045.144.12.282.205.409.17.255.427.537.742.836.636.601 1.584 1.337 2.774 2.155 2.385 1.637 5.795 3.633 9.765 5.568 7.925 3.862 18.163 7.517 26.972 7.517v-1c-8.581 0-18.654-3.576-26.534-7.416-3.933-1.917-7.3-3.889-9.637-5.494-1.171-.804-2.071-1.507-2.652-2.057-.294-.277-.489-.499-.598-.664a.625.625 0 01-.083-.154c-.008-.023.012.02-.013.096l-.949-.317zm40.466 17.006c7.817 0 16.446-2.731 24.167-6.013 7.728-3.286 14.602-7.151 18.895-9.451l-.472-.881c-4.314 2.311-11.138 6.148-18.814 9.411-7.683 3.267-16.163 5.934-23.776 5.934v1z" fill="#868C96"/><path opacity=".3" d="M265.5 266c9.6-10 21.333 40.833 26 67.5C320.333 324 381 307.6 393 318c15 13-26 49-38 58-9.6 7.2-43.333-5.333-59-12.5 7.333 5.333 23.9 18.6 31.5 29 9.5 13-17.5 35-36 36.5-14.8 1.2-10.167-46.167-6-70-14.5 13-46.4 39.7-58 42.5-14.5 3.5-5-42 5-58 7.139-11.423 35.517-12.015 53.149-10.588-16.885-1.916-44.273-6.746-53.149-14.912-12.5-11.5 21-39.5 33-52z" fill="#D2DFE6"/></svg>