<svg width="178" height="176" fill="none" xmlns="http://www.w3.org/2000/svg"><path d="M40.434 168.024c.084.007.177-.012.254.011.005-.184-.091-.148-.254-.011zm0 0c-.901-.097-1.96.458-2.621.824.868 1.173 2.098-.381 2.621-.824zm.428 2.073l1.037-.056c-.502.105-.73-.544-1.037.056zm.586-1.357l-.686-.224.203.491.483-.267zm53.902-27.06l.162.404c.178-.179.03-.304-.162-.404zm-8.291 4.717c-.053-.015-.1-.014-.152-.023a1.7 1.7 0 00.263.496l-.111-.473zm12.181-5.039a4.287 4.287 0 00-.847-.547c.14.298.49.556.848.547zm-14.448 6.76c-.203.017-.362.06-.543.089.2.101.417.109.543-.089zm-42.315 17.896c.232.186.451.281.665.326-.196-.245-.402-.476-.665-.326zm13.751-1.703a.252.252 0 01-.154.049.291.291 0 00.154-.049zm-11.989.821c.29-.059.587.003.867.178-.504-.29-.724-.287-.867-.178zm0 .001c-.307.061-.612.268-.888.645.632-.037.664-.474.888-.645zm7.381-3.198c.053-.13.165-.217.29-.294-.133.023-.242.095-.29.294zm.29-.293c.47-.072 1.329.681 1.614-.036-.452-.346-.935-.851-1.434-.732.453.481.119.585-.18.768zm18.285-5.377l-.018-.085-.216.075.234.01zm-47.921 16.397c.084-.003.174-.031.253-.015-.014-.185-.105-.139-.253.015zm.652 2.015l1.018-.164c-.483.154-.781-.465-1.018.164zm-.273-1.561l.255.467.449-.319-.704-.148zm15.037-5.196a.259.259 0 01-.15.054.299.299 0 00.15-.054zm32.67-29.657l.078.032c.019-.005.033-.021.055-.027l-.134-.005zM24.4 168.876c-.232.156-1.252-.156-.426.47.478.314.193-.314.425-.47zm2.29.638c-.528-.248-.748-.225-.884-.104.287-.085.589-.048.883.104zm4.81-3.367c-.907-.49-1.311-1.125-2.182-.826.336.312 2.038-.098 1.213 1.07-.032.015-.066.027-.094.045.024-.006.047 0 .07-.004l-.005.008.006-.008c.308-.058.614-.02.896.131-.448-.219-.692-.243-.86-.177.11-.14.46-.505.956-.239zm-5.543 3.56c.095 0 .2-.025.286-.008.016-.192-.093-.147-.286.008zm18.023-4.788a.316.316 0 01-.177.057c.046 0 .1-.014.177-.057zm-15.02.933c-.282.153-1.358-.195-.546.475.478.338.264-.322.546-.475zm1.477.585c-.349.084-.709.32-1.047.728.716-.08.782-.537 1.047-.728zm1.466-4.253c.096.012.208-.001.293.024.042-.19-.074-.153-.293-.024zm-1.64.029c-.544.065-1.045.013-1.159-.079-.202.287-.157.599.112.78.256.164.64.193.988.112.714-.15 1.348-.633 1.699-.841-.512-.078-1.098-.017-1.64.028zm2.71 2.114c-.471-.055-.605-.5-1.128.027.386.004.757-.01 1.128-.027zm.24-.006c-.078.004-.162.003-.24.006.072.009.15.009.24-.006zm-.907-1.095l.65-.267-.777-.251.127.518zm2.247-3.141c.248.181.494.269.737.302-.203-.242-.419-.47-.737-.302zm.054-1.142c.477.342.27-.318.554-.475-.287.159-1.358-.205-.554.475zm3.045.189c-.565-.249-.818-.226-.991-.097.338-.092.678-.056.991.097zm-.991-.096c-.359.093-.725.334-1.077.751.734-.091.806-.554 1.077-.751zm129.577-92.924c-.083-.032-.184-.041-.256-.085-.069.175.04.169.256.085zm1.692-.334a2.14 2.14 0 00-.968.092c-.299.081-.551.157-.723.241.882.363 1.966.5 2.631.821.112-.34.049-.598-.134-.8-.179-.211-.475-.348-.806-.354zm-1.126-1.75c-.48-.15-.936-.214-1.409-.272.746.028.627.68 1.409.272zm-.732.979l-.677.133c.243.13.475.264.693.401l-.016-.534zm-2.32 2.753a1.46 1.46 0 00-.672-.339c.194.248.394.486.672.34zm-.454 1.528c.246-.152 1.183.313.452-.418-.436-.365-.218.275-.452.418zm-2.309-.695c.547.24.771.218.917.092-.299.09-.612.056-.917-.092zm.917.092c.321-.08.635-.3.928-.7-.661.072-.698.518-.928.7zm5.647-23.035c.022.1-.01.157-.054.203.072-.002.108-.047.054-.202zm-47.257 39.644c.002.1.043.212.182.363a.76.76 0 00-.182-.363zm-98.504 31.197c.103.003.22-.02.31-.003.032-.199-.086-.147-.31.003zm-1.664 1.09c.677-.295 1.308-.841 1.664-1.09-1.083-.034-2.46.515-3.358.767.318.648 1.022.624 1.694.323zm2.915.961c-.48-.013-.663-.457-1.116.124l1.116-.124zm.234-.027l-.234.027a.798.798 0 00.234-.027zm-.347-1.346l-.817-.179.167.506.65-.327zm21.508-15.591c.403.066.95.19 1.533.333-.452-.345-.903-1.093-1.533-.333zm2.026.455c-.168-.043-.33-.081-.493-.121.164.124.323.192.493.121zm-21.951 12.115c.263.165.521.236.777.253-.216-.231-.444-.449-.777-.253zm.044-1.164c.507.315.285-.347.585-.521-.303.18-1.44-.113-.585.521zm3.206.013c-.59-.228-.858-.188-1.04-.049a1.48 1.48 0 011.04.049zm-1.04-.049c-.377.114-.764.383-1.13.824.77-.133.844-.608 1.13-.824zm6.268-3.429s.614-.654 1.272-.314c-.983-.515-1.324-1.186-2.442-.868.337.335 2.567-.131 1.17 1.182zm3.585-1.111a.515.515 0 00-.405.328c.086-.143.24-.24.405-.328zm1.978-.124c-.49-.34-.99-.851-1.621-.697.47.484.04.612-.357.821.587-.101 1.503.649 1.978-.124zm14.51-12.187c.155-.164.77-.648.292-.659l-.942.483c.175.332.487.174.65.176zm6.218-4.062l1.163 1.013c.155.006-.366-1.002-1.163-1.013zm2.954-1.467l.642.17.932-.49-1.574.32zm-2.911 4.064c.306.268.564.447.791.575-.155-.287-.485-.556-.791-.575zM80.4 79.233l-.247.26c.116-.036.199-.135.247-.26zm8.956-6.81l.077.032c.018-.006.03-.022.048-.028l-.125-.004zM78.114 79.36l-.486-.64c.147.287.313.478.486.64zm2.786 1.238a1.01 1.01 0 01-.32.038c.18.038.27.043.32-.038zm-3.555-.582l-.172.19c.09-.01.145-.083.172-.19zM63.394 89.55c.277.101.662.268 1.07.459-.384-.355-.89-1.063-1.07-.459zm13.088-8.177l.31.124-.013-.047c-.149-.172-.245-.2-.297-.077zm4.418-.775c.01-.004.03-.003.039-.007l-.012-.016c-.007.013-.02.01-.027.023zM64.81 90.17l-.345-.161c.14.128.26.205.345.161zm39.88-31.942a1.9 1.9 0 00.302.18c-.172-.186-.332-.303-.302-.18zm-.182 1.562a.37.37 0 00.195-.21c-.092.005-.166.051-.195.21zM84.809 75.37c.008-.093-.019-.206-.133-.377a.826.826 0 00.133.376zm-1.373-.152l.068.036c.014-.004.022-.017.035-.02l-.103-.016zM60.488 95.039c.002-.114.062-.186.137-.248-.095.013-.159.073-.137.248zm6.895-9.279c.056-.127.324-.469.02-.547l-.476.3c.196.322.352.224.456.246zm2.908-2.68l.97 1.09c.097.03-.47-.953-.97-1.09zm2.394-.843l-.902.02.44.258.462-.278zm30.85-21.192l.794-.346c-.666.225-.642-.43-.794.346zM66.13 88.638l-.515-.615c.164.278.338.462.516.615zm4.968-3.878l.063.041c.012-.002.02-.013.032-.016l-.095-.025zM57.167 95.3c.03-.121.214-.459-.074-.52l-.376.301c.23.299.352.199.45.219zm3.246-1.716c.094.023-.583-.89-1.06-.991l1.06.99zm2.46-2.118l.477-.274-.604-.007.127.281zm51.33-36.576c.12.085.232.131.336.17-.151-.203-.317-.324-.336-.17zM35.04 154.483c.049-.031.078-.069.138-.086-.154-.065-.176-.019-.138.086zm-.239.415c-.02.203.18.485.404.574.441.181.72.067.92.017-.563-1.377-.777-.306-1.085-1.005a.489.489 0 00-.239.414zm1.224-.343c-.05.001-.098.001-.154.007.047-.005.099-.006.154-.007zm-.155.007zm.556.012zm.152.016c.108.013.219.028.34.049-.144-.023-.25-.037-.34-.049zm-.553-.035l.102-.001c-.037-.001-.068.001-.102.001zm.115-.001h-.013c.09.001.192.009.298.02-.123-.013-.202-.016-.286-.02zm.02-.091a3.374 3.374 0 00-.531.041l.528.048a.298.298 0 01.003-.089zm3.32-9.086c.252.085.607.224.992.385-.419-.303-1.042-.909-.992-.385zm1.319.524c-.114-.05-.22-.094-.327-.139.152.111.272.176.327.139zm-5.703 6.974c.24.142.426.216.583.253-.247-.185-.495-.361-.584-.253zm.649-.634c.15-.041.366.01.63.148-.46-.227-.597-.229-.63-.148zm-.225.471c.375-.019.17-.347.224-.471-.159.041-.244.193-.223.471zm3.259-2.658a.209.209 0 01.041-.212c-.072.011-.106.061-.041.212zm-.324 5.151c.04.026.067.036.112.069-.103-.124-.122-.122-.112-.069zm-.627-.073c1.052.988.66.25.627.074-.431-.284-.559-.162-.627-.074zm1.458.807l-.412-.32.366.381.046-.061zm-.87-1.769c.087.032.246.153.458.349-.369-.334-.46-.388-.458-.349zm-.014.22c.242.135.014-.159.014-.22-.094-.037-.107.029-.014.22zm.897-5.1c-.024-.08-.038-.269-.21-.417l-.1.091c.22.305.252.277.31.326zm5.069 6.52l-.049-.019.092.09-.043-.071zm39.926-78.297l-.323.356a.704.704 0 00.323-.356zm50.41-43.056c.134.061.26.085.373.105-.181-.179-.369-.267-.373-.105zm-.851 2.303a1.29 1.29 0 00.363-.394c-.137.052-.261.153-.363.394zm-1.891 2.245l1.296-.867c-1.061.635-.772-.296-1.296.867z" fill="#F6F8FC"/><path d="M173.34 41.15c-.342-.033-.525-.301-.742-.385.28-.282.998-.402 1.114.237l-.372.148zm-2.37 10.288c-.039-1.145 1.078-.032 1.517-.354.106.98-.929.006-1.517.354zm-.926.292c-.138-.784.073-.686.47-.807.163.279-.073.682-.47.807zm-2.692-5.34c-.248-.273-.143-.333-.054-.426-.256.003-1.09-.7-.966-.162.254.2.534.437.776.593-.257-.038-.579-.16-.881-.238-.074-.04-.134-.076-.241-.13a1.09 1.09 0 01.492-.629c.373.19.773.423 1.06.326.099.448.006.623-.186.667zm-7.063 10.07l-.003-.005-.01.005c-.238-.002-.466.08-.54.305l-.172-.26c.049-.043.072-.123.047-.265-.006.088-.06.132-.137.13l-.374-.565c.004 0 .005-.003.009-.002a.584.584 0 00.309.14l.042.028-.023-.025a.65.65 0 00.291-.03l1.094.269c-.292-.29-.57-.3-.809-.423.11-.076.203-.154.273-.212.06.018.124.038.182.053.105.21.224.368.441.387.029.187-.108.366.027.805-.01-.18-.335-.328-.647-.335zm-6.709 24.734l-.453.06c-.342-.12-.416-.443-.607-.582.418-.228 1.226-.162 1.06.522zm-1.654-6.666a1.985 1.985 0 00-.26-.076.874.874 0 00.287-.695c.026-.022.047-.049.074-.07.057.058.113.12.161.187.062.31-.06.523-.262.654zm-4.802 16.956c.01-.125.011-.245-.004-.36.381-.4 1.043.492 1.507.279-.171.933-.846.036-1.503.081zm-3.318 5.069l-.452.068a.682.682 0 01-.215-.118 3.41 3.41 0 00.599-.37c.072.1.106.234.068.42zm-6.778 10.315c.351-1.214 1.147.173 1.72-.074-.233 1.033-.99-.196-1.72.074zm-1.069.143c.122-.849.311-.708.769-.767.075.323-.31.706-.769.767zm-3.532 5.434l.04-.005.004.028-.044-.023zm-6.809 6.854a.796.796 0 01.125-.326c.073.026.145.039.223.089l-.144-.155c.338-.225.943.589 1.339.431-.122.961-.91-.247-1.543-.039zm-.943.066c.004-.092.01-.168.02-.238a1.5 1.5 0 01.601-.217c-.06.233-.311.439-.621.455zm-14.463 10.002c.107-.199.097-.342.028-.456a.238.238 0 01.033-.031c.259.256.633-.093.966.269-.127.481-1.199.544-1.027.218zm-.898 1.361c.746.131.104-1.088 1.231-.28.252 1.22-.715.478-1.231.28zm-9.248 8.043c-.488-.293-1.205.036-1.646-.578 1.025.29.195-1.73 1.21-.507-.27.009-.403.015-.492.175.354.303 1.109.589.928.91zm-2.117 1.505c-.045.102-.12.17-.279.131l.28-.131c.118-.263-.005-.758.442-.205l-.443.205zm-18.492 9.9c-.014.158-.075.284-.214.343l.214-.343c.081-.68-.623-1.959.668-1.049l-.668 1.049zm-2.087-2.043c-.047-.009-.076-.008-.115-.013.02-.011.037-.023.056-.035.568.185 1.01.558 1.88 1.022-.46.93-1.547-.34-1.821-.974zm-4.963 5.194c.336-.306 1.233-1.061 1.138-.908.267.635-.702 1.078-1.138.908zm.395 1.097l-.456-.16c.438-.813.32-.218.456.16l.545.185c-.333.153-.47.01-.545-.185zm-7.112.014c-.998-.245-.345-1.28-.936-1.441a2.71 2.71 0 001.492.51c.15.44-.34.791-.556.931zm-.054.033h.004l-.001.001-.003-.001zm-.99 2.295c-.025 1.256-2.924-.777-1 1.678-.428-.179-1.658-.401-1.645-1.031.74-.224 1.801-1.231 2-2.011-.055-.159-.065-.302.034-.387a.839.839 0 01-.034.387c.072.185.214.391.372.54a.651.651 0 01.412.206c-.083.053-.252-.045-.412-.206-.352-.03-.665.282-.693.621.328.328.667.031.967.203zm-3.93-.836c.26-.103.52-.213.779-.329l-.073.839c-.252-.117-.485-.305-.707-.51zm-2.776 1.558c.16.164.53.032.854.364-.537.516-1.325.618-2.144.61.456-.515.807-.983 1.081-.495.088-.178.103-.4.096-.627.534-.219 1.033-.55 1.471-.888a.818.818 0 01-.043-.083c.126-.021.252-.049.377-.079.596.2 1.2.409 1.749.623.231 1.896-2.312.33-3.441.575zm-.39 2.17l.286-.61.084.476-.37.134zm-2.309-.147c-.069-.154-.316-.03-.347-.283.106.051.209.076.309.09.032.058.07.106.093.186-.02-.001-.036.007-.055.007zm-26.41 8.9c.018.048.053.097.065.145.061-.039.132-.077.201-.113a.571.571 0 01.225.143c.094.228.086.398.026.535-.442-.115-.77-.32-1.055-.509a1.08 1.08 0 01.538-.201zm1.33-.294l.014-.009a2.55 2.55 0 011.003.076c-.305.188-.64.254-1.017-.067zm3.012-2.594c.486 0 1.28.582 1.52-.101-.027-.019-.055-.042-.082-.06.214-.078.444-.139.683-.181a5.578 5.578 0 01-1.224.861c-.366-.158-.648-.356-.897-.519zm3.065.291c-.003-.011-.008-.015-.012-.027.334.044.658.015.975-.043-.2.251-.601.175-.963.07zm.029.068c.25.024.49.104.68.445-.014.047-.036.073-.051.114-.245.013-.453-.073-.63-.559zm-.098-3.241c.094.035.182.09.258.178-.089-.062-.174-.123-.258-.178zm2.965-.018l.092.474-.366.141.273-.615zm2.45-2.402a.75.75 0 00-.038.211c-.01-.012-.018-.013-.028-.024.01.011.016.021.026.033a.744.744 0 00.2.584c-.05.148-.187.248-.315.328-.746-.119-1.655-.429-2.217-.295.164.162.532.021.861.349-.105.106-.233.176-.359.252-.094-.009-.188-.024-.286.002.042.043.07.08.1.117-.372.174-.8.251-1.252.279a2.8 2.8 0 00.358-.359l-.48-.16c.645-1.405 2.506-.735 3.43-1.317zm-.064-4.098l.42.436a39.43 39.43 0 00-.616.128c.058-.178.292-.166.197-.564zm.557.407l-.087.019-.216-.265c-.067-.18.102.006.303.246zm.512-.1l-.359.07c-.098-.134-.162-.232-.088-.182-.645-.731-.356-.161-1.141-1.186.693.613.654.216 1.588 1.298zm-2.309-1.391l.11-.009.558.723-.668-.714zm-.029.736l-.227-.31c-.84-.626-1.843-1.878-1.747-1.41.554.736.51.555 1.275 1.393-.345-.293.37.728-.489-.111l.036-.167c-.289-.167-.353-.098-.673-.335.173.172.348.349.43.406-.289-.199-.33-.109-.79-.521a.302.302 0 00.06-.136c.118.105.22.191.3.251-.107-.107-.212-.213-.297-.287.008-.055.024-.095.018-.171l-.36-.16c-.297-.761.545-.494 1.023-.511.005.016.017.027.023.041 0 0-.008-.019-.013-.043.039-.001.081-.001.114-.007a1.5 1.5 0 01.193.166l-.173-.173c.055-.014.101-.033.128-.069.104.248.414.567.599.668-.006-.091.007-.163.012-.242.26.236.68.664.483.324l-.475-.508c.015-.085.045-.157.072-.232.2.316-.258-.051.541.702.156.71-1.004-.107-1.852-.499.315.327.565.607.758.845.076-.093.49.114 1.222.866.452.627-.807-.661-.525-.303.274.254.323.196.82.763.49.698-.34-.169-.486-.23zm-3.773-4.126c.059-.109.115-.221.16-.35.257.206.475.406.624.595.247-.285.944-.389 1.844.184.121.217.05.264-.087.248a1.102 1.102 0 00-.268-.159c.03.047.055.078.082.116-.328-.109-.753-.339-.593-.132.236.108.395.079.63.185.191.253.302.286.496.456.182.545-.671-.029-.911.032l-.196-.35c-.723-.113-1.344-.6-1.78-.825zm.52-1.755c.178.11.3.286.282.605 0 0-.02-.435.52-.136-.303-.168-.56-.338-.798-.486.199-.793.476-1.509 1.224-1.63l-.392-.246c.415-.066.576-.223.616-.415.35.599.694-.014 1.385.849a.237.237 0 00-.183.03 3.087 3.087 0 00-.283-.323l.257.343c-.182.171-.02.668-.666.117 1.161.967-.424.57.992 1.151-.027.115-.081.207-.133.299-.275-.201-.295-.168-.42-.182-.392-.267-.81-.556-1.03-.501.511.396.35.457.25.583.115-.013.353.1.57.187.024.064.083.173.202.362-.654.414-1.728.46-2.691.588.11-.375.198-.79.298-1.195zm-1.945 1.16c-.034.141-.087.207-.149.227a.382.382 0 00-.039-.172l.242-.156c0 .027-.014.058-.054.101zm-2.798 1.57h.467c-.106.077-.263.081-.468 0zm-2.167 1.011c-.89-.584-.322-.553-.59-1.281.033.296.942.538 1.127.109.012.045.021.087.04.133l.111.002.549.768c-.565-.5-1.115.241-1.237.269zm6.338-24.203c-.234.618.235.882.539 1.106-.045.117-.153.232-.398.345-1.051.089-.15-1.348-.742-1.384l.601-.067zm-1.875-1.278c-.127-.414-.701-.87-.687-1.071.475.433.73.29.948.061l.053-.016c.063.096.12.21.166.368l-.48.658zm-2.667-5.989c.26.192.35.493.504.663-.278.089-.863-.164-.825-.725l.32.062zm3.462-7.287c-.105.973-.848-.438-1.23-.367.041-.841.736.421 1.23.367zm-.232-2.144l.62-.31.382.521c-.013-.002-.025-.006-.037-.006l.093.083.025.033-1.083-.321zm1.374-2.708l.035.998-.825-.682.79-.316zm3.826-1.256l.122.166-.025-.002.06.08-.313-.146c-.008-.042-.022-.062-.029-.107.062.006.124.006.185.009zm14.4-10.737c.071-.122.15-.22.23-.305-.074.109-.144.223-.23.305zm5.639-2.196l-.11.034c.023-.027.062-.036.11-.034zm1.613-1.125c0-.069.017-.116.03-.165.05.023.095.043.155.068-.03.05-.072.084-.104.13l-.08-.033zm.224-1.494c-.006.005-.01.012-.015.017h-.013l-.063-.012c.03-.003.06-.004.09-.005zm-.824-1.2l-.063.007v-.022c.023 0 .04.011.063.015zm3.559-.392c-.003-.184.036-.38.048-.549.087.328.056.49-.048.549zm3.873-3.826c.007-.06.02-.106.033-.153l.048.044a.83.83 0 01-.03.087c-.015.01-.035.014-.051.022zm2.663-1.001c.238.236.436.405.616.541a2.33 2.33 0 01-.785.21c-.274-.511-.458-.96.169-.751zm.252-1.622l.244.118a.866.866 0 01-.149-.015 1.78 1.78 0 00-.095-.103zm.859-.576c.033.001.064.017.096.026a.25.25 0 01-.05.122l-.046-.148zm1.092-1.265a.241.241 0 01-.115.097l-.001-.012.116-.085zm.662-.782c.097.116.176.201.247.27l-.224-.045c-.014-.073-.029-.148-.023-.225zm1.195.217c-.007.242-.245.195-.47.04.034-.075.078-.143.164-.155a3.452 3.452 0 00-.28-.264c.14-.164.421-.144.586.38zm1.117-.588c-.038.23-.187.27-.386.23l.386-.23zm6.737-4.09c.016.011.025.023.04.034a.584.584 0 00-.158-.005c.026-.028.062-.046.118-.03zm.45-.813c.114.097.2.153.3.23-.013.036-.016.076-.032.113l.05-.053c-.053.16.082.34.26.526-.155.052-.247.163-.222.358.09.35.213.574.35.743-.065.019-.14.036-.234.051.113.001.198-.001.265-.016.02.023.041.05.063.07-.047.02-.092.04-.15.055l-.196.003c-.073-.056-.146-.117-.22-.163.401-.245-1.545-2.214-.234-1.917zm8.245-5.668l.122.04a.524.524 0 01-.15.032l.028-.072zm1.265-.354c.034.024.05.043.08.067-.039.5.057 1.093-.647.45.427.052.714-.048.567-.517zm5.89-4.344c-.114.222-.276.394-.36.578-.083-.004-.164-.008-.243-.01-.155-.523-.044-1.121.603-.568zm3.133-4.748c.679.523.864.28 1.068-.025.035.025.07.055.107.083.041.791-.538.722-1.181.58-.067-.173-.087-.372.006-.638zm1.294.988c.534.43.046.264.27.676l-.405.038c-.197-.194-.454-.35-.689-.517.088-.212.763.083.824-.197zm2.269-4.755c.306.016.955.427.837-.103-.182-.136-.263-.272-.384-.141l.162-.39c1.06.458.985.99.925 1.533.107.132.206.28.284.477.028.127-.148.033-.292-.02a.94.94 0 00.12.41l-.187-.138c-.204-.346-.084-.331.067-.272a2.674 2.674 0 01.008-.457c-.478-.602-1.159-.667-1.54-.9zm4.893.15a1.455 1.455 0 01-.287.144c-.232-.142-.391-.351-.555-.469.19-.11.629-.017.842.324zm1.708-1.57c.166.247.236.446.238.615-.322-.22-.545-.382-.238-.615zm6.889-7.276c.043.007.066.021.102.032a2.458 2.458 0 00-.476.383c.068-.175.156-.368.374-.415zm12.048-7.938c.618.347-.035.349.132.819l-1.288.505c-.752-1.165.877-.739 1.156-1.323zm6.305-8.411c-.213-.104-.28-.258-.499-.01l.373-.64c1.354.12 1.055.918.773 1.726.105.134.194.297.234.539-.006.167-.224.12-.409.116-.034.192-.043.378.024.528l-.217-.102c-.17-.39-.005-.433.193-.426.034-.211.101-.432.175-.655-.468-.62-1.423-.37-1.883-.506.43-.135 1.213.127 1.236-.57zm5.723-1.513l-.432.164c-.364-.04-.505-.34-.725-.433.371-.304 1.151-.45 1.157.269zm1.485-4.526c.219.042.48.056.739.051.087.067.155.13.158.195-.659-.267-.942.072-1.182.467-.117-.217-.144-.426.285-.713zm.55-1.932c-.089-.463.318-.235.592.025.236.475-.08.724-.477.784-.034-.243-.083-.48-.217-.644l.373.094c-.206-.112-.333-.084-.271-.259zm3.665 6.595l-.394.092c-.336-.084-.475-.377-.679-.49.326-.24 1.059-.252 1.073.398zm.227 2.582c-.045.146-.097.3-.181.438-.101-.137-.117-.292.148-.458l.033.02zm16.926 2.928l-.001-.001.104.057c-.034-.017-.072-.022-.103-.056zm2.082 4.398c.053.188.035.294-.012.37-.076-.028-.144-.014-.231.106l.206-.496.037.02zm.979 1.716c.009-.09.009-.178.022-.27a1.161 1.161 0 00-.438-.28c.144-.13.056-.709.512-.467.017.228-.028.487-.074.747.122.12.232.266.309.482.004.025-.007.04-.015.055-.092-.094-.191-.166-.316-.267zm-2.913 3.036a.233.233 0 01.056-.139c.037.005.077.008.113.024a.682.682 0 00-.169.115zm-.356.802c-.032-.039-.06-.066-.092-.112.044.013.075.008.107.005-.007.036-.011.072-.015.107zm-1.037 2.083c.009-.01.024-.024.032-.035a1.878 1.878 0 00-.476-.312l-.167-.69c-.722.05-.899.256-.698.358-.143-.082-.29-.163-.427-.246a1.822 1.822 0 01-.166-.37 7.56 7.56 0 00.716-.116c.481.21 1.059.514 1.327.491-.164-.153-.337-.094-.668-.404.158-.444.847-.284 1.526-.093-.014.846-.002 1.65-.999 1.417zm-4.19 6.432l-.012-.028c.002.008.009.019.012.028zm-3.519 9.13c.337-.884-1.136-.567-1.006-1.24l-.263.375c-.073-1.112 1.002.278 1.2-.255l-.134.354c.34.732.741 0 1.213.383-.069.504-1.144.738-1.01.383zm-.738 1.513c.769.014-.029-1.111 1.207-.478.404 1.188-.664.597-1.207.478zm-54.065 66.51c.043-.015.085-.03.132-.043.018.031.059.076.08.109-.017.024-.033.048-.05.07l-.162-.136zm-8.048 3.998a.618.618 0 00.17.045c.077-.047.168-.095.3-.132a.324.324 0 01-.3.132c-.012.007-.018.012-.028.02a1.016 1.016 0 01-.142-.065zm-20.752 11.573l-.016-.012.003-.001.013.013zm-10.295 4.338c.045-.021.09-.047.138-.054.132-.118.018-.1-.182-.097a7.06 7.06 0 011.153-.428c-.187.346-.723.578-1.11.579zm-4.14 3.178h-.026l-.001-.008.028.008zm-12.674 1.606c.107.04.248.058.408.09-.063.043-.12.079-.157.103-.108-.058-.214-.1-.322-.15l.071-.043zm-1.424-1.303c.042.044.078.078.125.13-.04-.046-.07-.092-.108-.138l.264-.106c.05.008.082-.009.105-.041l.195-.08.063.987-.809-.686.165-.066zm-1.283-.351c-.072-.118-.15-.239-.232-.365.047-.025.089-.037.134-.059.098.082.18.141.248.178l-.202-.199a.496.496 0 01.035-.013l.178.174.038.058c.18.081.278.024.447.078-.215.052-.43.101-.646.148zm-1.648-1.282c.024.006.045.014.068.019.084.114.184.245.296.39v.003c-.093-.105-.232-.251-.383-.413a.12.12 0 00.019.001zm-2.107-1.912c.071.067.157.153.285.306.026.175-.17.074-.44-.124.051-.06.1-.123.155-.182zm-.724-1.879l.557.738-.486-.341c-.09-.107-.171-.199-.245-.281l.174-.116zm-1.814-39.444c-.722.103-1.15.923-1.778.713a23.385 23.385 0 001.655-.909l.123.196zm.917-.898l.266.14a1.37 1.37 0 01-.43-.027c.054-.038.11-.072.164-.113zM54.48 99.996l.105.1-.006.073a9.181 9.181 0 00-.303-.125l.037-.066.167.018zm2.36-2.952c-.01 0-.02-.007-.029-.007a.038.038 0 01.023-.012l.005.019zM72.992 85.1c.059.106.056.271.02.447l-.231-.11c.03-.18.108-.282.21-.337zm14.783-9.79a.39.39 0 00-.156.151c.085.101.16.175.23.239l-.069.12-.325-.71.32.2zm4.194-2.942c0-.011.006-.02.008-.028.053.109.084.194.108.285a.01.01 0 01-.007.003l-.247-.076a.168.168 0 00-.08-.026c-.011-.002-.02-.006-.03-.009l.138-.36c.035.068.053.12.11.21zm1.195.053l.268.264c-.19-.14-.375-.261-.504-.39.067.022.15.071.236.126zm.333-.418c.021.074.041.142.046.196-.048-.049-.094-.065-.161-.02l.115-.176zm7.399-5.473c.088.083.157.151.214.214-.388.024-.392.25-.35.54-.142-.022-.261.004-.293.136l-.602-.978c.492.569.928.08 1.031.088zm48.354-28.334c-.052.455-.153.823-.504.862.134-.295.289-.583.504-.862zm1.634-2.345a1.01 1.01 0 01-.02.402c-.826-.503-1.267.303-1.34-.777.491-.001-.074-.193-.286-.467.452-.06 1.153.894 1.646.842zm1.144-4.098a.735.735 0 01-.008.05 1.514 1.514 0 00-.21-.057c.007-.03.029-.054.039-.084.067.032.125.063.179.091zm12.571 1.605c-.058-.032-.094-.08-.143-.118.139.057.281.108.425.156l-.282-.038zm1.917 8.579c-.283-.12-.725-.38-.92-.322-.333-.665.538-.007.945.12-.006.07-.013.139-.025.202zm-.496 2.065l.139.118a.381.381 0 00-.055.016l-.084-.134zm-1.902 5.447a.951.951 0 01-.264.315l-.337-.794c.19.122.395.294.601.479zm.107-.354c-.149-.083-.291-.167-.436-.25.049-.172.255-.069.465.032-.004.08-.019.147-.029.218zm.343 1.65l-.408.18c-.175-.044-.271.034-.342.152l-.028.012a2.323 2.323 0 00-.388-.209c.109.094.216.182.308.243l-.225.1a1.227 1.227 0 01-.235-.374c.049.009.095.011.152.032l-.172-.143c-.001-.014-.011-.03-.009-.044.201.034.367.014.493-.06.097.042.204.098.342.2l-.246-.264a.61.61 0 00.139-.287c.169-.058.312-.135.352-.28.627.31.029.317.267.743zm-11.322 20.476l.153.104c-.027.056-.055.122-.081.173l-.072-.277zm-5.802 9.311l-.202-.03c.002-.007 0-.011 0-.02.762.054-.91-.521-.016-.972l.502.352c-.13.206-.213.442-.284.67zm.182.382a.596.596 0 00.349.084c.218.09.357.2.441.323-.408-.254-.747-.168-.954-.211l.164-.196zm-2.728 4.679c.061-.063.108-.127.164-.189a.455.455 0 01-.164.189zm-81.787 68.375l-.03-.008c.493-.718.43-.394.462-.042a2.897 2.897 0 00-.432.05zm-17.64 1.801l-.103-.152c-.002-.024.014-.02.022-.031.063.022.126.047.188.073.022.017.045.037.068.057l-.174.053zm-.255-.225l.027.006.196.227c-.017.006-.035.01-.053.015-.056-.088-.113-.167-.17-.248zm-.615-.048c.007-.001.017-.005.025-.005.127.161.241.301.34.413-.033.008-.065.018-.099.025-.096-.153-.185-.3-.266-.433zm-.188.038l.02.035.286.341c-.062-.012-.175-.17-.285-.341l-.027-.033c.001-.002.003-.002.006-.002zm-.222-.256c-.115-.292-.063-.213.046-.033l-.044.036-.002-.003zm-.63.238l-.182-.278c.09.099.17.184.243.258l-.061.02zm-1.723-1.172c.039-.019.081-.028.117-.049.056.084.156.223.31.427a2.017 2.017 0 00-.149-.058 7.731 7.731 0 01-.278-.32zm-.989-2.211c.045-.089.08-.193.112-.299l.203.246c.659.822.543.927.516.955a12.736 12.736 0 00-.83-.902zm-.273.408l.317.533c-.118-.129-.25-.284-.387-.447.024-.028.047-.056.07-.086zm.916-3.895l-.17.074-.095-.452.265.378zm1.032-1.739c.26.408.27.587.152.648l-.053-.16a.856.856 0 01.036.163c-.011.006-.027.004-.04.007-.117-.131-.457-.771-.66-.932.19.092.384.183.565.274zm8.338-43.429c-.054.046-.102.069-.16.129a1.82 1.82 0 00.037.457c-.03.024-.06.045-.09.076a3.134 3.134 0 01-.19-.139c.125-.234.23-.388.328-.566.025.013.05.029.075.043zm99.463-67.125c.189-.063.383-.084.527-.07-.082.197-.279.174-.527.07zm1.492-3.643c-.016-.115-.036-.231-.044-.34l.171.069a.544.544 0 01-.127.27zm13.148 8.888c-.351-.555-.156-.44.114-.431.214.223.156.439-.114.43zm1.908 1.675l-.079-.022c-.163-.416-.009-.424.217-.332a1.286 1.286 0 01-.138.353zm-.023.037c-.013-.016-.024-.022-.039-.038l.058.007a.187.187 0 01-.019.03zm-4.512 6.119c.036.053.063.098.086.144l-.028-.007c-.019-.045-.044-.09-.058-.137a3.504 3.504 0 00-.366-.413l.219.052-.133-.136c.092-.05.108-.2.028-.39-.027-.025-.046-.03-.07-.05.135-.064.289-.115.456-.151l.012.007c-.178.256-.267.674-.146 1.08zm-20.351 37.143c-.028.046-.077.115-.129.192-.014.004-.026 0-.038.004.175-.886.717-.327 1.193-.11-.05.124-.097.248-.141.376-.141-.063-.299-.144-.464-.211l.187-.139c-.225-.301-.465-.123-.608-.112zm-1.162.331c.01-.164.026-.279.046-.376l.612-.329c.067.305-.246.65-.658.705zm-96.475 68.23l.005.005v.002c-.002-.003-.003-.006-.005-.007zm-1.059-2.935c.344.364.66.812 1.191 1.532l-.075.045a22.14 22.14 0 01-.789-1.195c-.392-.455.07.239.117.394l-.454-.757c.003-.008.006-.012.01-.019zm-1.195 1.989c.065.054.115.083.22.207.282.456-.09.072-.303-.127.031-.021.054-.056.083-.08zm-.686-2.452c.03-.308.27-.112.523.129.005.197-.166.142-.392.005l-.131-.134zm-3.617-24.584c-.01.122-.032.238-.05.359-.106.121-.1.163-.022.161a3.41 3.41 0 01-.055.26 2.085 2.085 0 01-.165-.191c-.163-.41.021-.576.292-.589zm.065-1.118c-.047-.059-.083-.114-.083-.157.034.023.058.026.09.046l-.007.111zm118.637-68.008c-.023-.018-.036-.033-.058-.05.056.025.113.05.171.065.439.226.835.351 1.238.674a.563.563 0 01-.268.115c-.313-.216-.671-.494-1.083-.803zm-.297 1.356a1.326 1.326 0 01-.192-.26c.06.014.117.003.169-.059-.123-.04-.161 0-.262-.086-.032-.063-.059-.13-.087-.196a.235.235 0 00.081-.044c.494.022 1.022.094 1.256-.102a.81.81 0 01.05.226c-.399.006-.826.014-1.015.521zM44.825 150.064l.45.726c-.861-1.2-.175.391-.89-.494a.27.27 0 00-.015-.02 2.53 2.53 0 01.455-.212zM43.48 147.2c.033.096-.022.063-.1-.011.02-.025.031-.065.05-.094.017.033.033.073.05.105a.96.96 0 00-.047-.113c.043-.07.088-.135.116-.223.115.156.228.307.33.434-.295-.07-.355.021.725 1.04v.002c-.112-.063-.287-.141-.473-.23-.257-.347-.471-.591-.651-.91zm.828-2.247c.087.258-.068.412-.122.468-.044-.027-.083-.046-.127-.073-.214-.385-.03-.469.25-.395zm-5.435-23.338c.236-.048.454-.18.654-.437.355.219.745.326.984.489-.11-.007-.25-.058-.39-.106l.022-.014c-.012.001-.022.007-.035.01-.284-.097-.557-.17-.567.193-.166.062-.324.124-.481.188a.847.847 0 01-.187-.323zm95.849-25.41c.012-.06-.02-.118-.066-.171.013-.017.028-.03.04-.049l-.424-.436.539.075c-.055.139-.11.31-.089.582zm-79.166 52.741l-.5-.243c.153.123.235.155.228.245l-.426.006c-.032-.035-.065-.066-.094-.103a.619.619 0 01-.052-.327c.04-.001.081.012.122-.007a2.196 2.196 0 01-.117-.029c.036-.153.166-.232.338-.25l.012.058a.597.597 0 01-.233.221c.243.064.498.138.75.207l-.02.021c.105.063.186.13.257.198l-.265.003zm-5.939 6.228l-.094-.108c.079.002.157.002.235 0 .005.021.01.047.017.072l-.158.036zm-1.434-1.092l.139.047c-.01.004-.013.011-.025.016l.058.015.098.153c-.024.019-.05.035-.074.052a4.108 4.108 0 01-.196-.283zm-.4.67l.014.022-.002.001a.154.154 0 01-.012-.023zm-.767.431l-.004-.005c.01-.02.016-.043.023-.064l.032.044-.05.025zm-1.384-3.872a13.927 13.927 0 00-.294-.433c-.001-.027.007-.057.008-.084.083.147.175.311.286.517zm-1.34-4.258a.468.468 0 01.229.076c.1.193.078.272-.005.295l-.225-.371zm.675-3.598l-.09.011c.025-.011.057-.011.09-.011zm-3.796-20.746a.2.2 0 01.127.067.58.58 0 01-.055.236l-.239-.044c.046-.101.11-.174.167-.259zm.384-1.679c.035.043.068.075.104.128-.019-.001-.039.012-.058.012a.859.859 0 01-.046-.14zm111.402-87l-.012-.011c.005 0 .009.004.015.005l-.003.007zm-34.588 72.098c.625-.659.747-1.339 2.04-1.703a9.535 9.535 0 01-.567.862l-.032-.001.02.018c-.197.271-.368.506-.555.875-.302-.015-.606-.034-.906-.051zm-41.955 33.3c.146 0 .28.008.404.023-.12.078-.233.168-.336.244l-.068-.267zm-5.013 2.114c-.217-.039-.43-.044-.6.016.326-.088.494-.075.6-.016.235.044.462.154.63.339.013.112-.03.206-.153.279-.342-.142-.258-.489-.477-.618zm-22.185 10.154h.061c.045.064.076.1.065.049l.035.162c.146.293.225.41.291.491-.016.008-.033.014-.05.023-.08-.221-.24-.474-.402-.725zm-1.67-.36c-.344-.871.577.592.776.818-.083-.034-1.017-1.392-.109.175l-.35-.577-.02-.08-.297-.336zm-1.875-1.263a.08.08 0 01-.031.032c.01-.012.021-.021.031-.032zm-.145-.215a3.46 3.46 0 00.154-.04c.004.004.01.014.013.019-.055.019-.11.038-.165.054 0-.012 0-.023-.002-.033zm-.357-7.431l-.524-.437c.15-.085.123-.32.073-.561l.607.258c-.103.047-.219.097-.31.138.204.316.457.444.73.459.15.773-.196 1.046-.696 1.152l-.663-.439c-.39-.998.417-.631.783-.57zm-.646-1.658l-.086.253c-.038-.018-.064-.038-.098-.06l.184-.193zm-1.457-22.194a.856.856 0 01-.33.016c.055-.137.174-.116.33-.016zm83.253-20.078a.652.652 0 01-.02-.137c.033.02.068.038.101.073-.002.01-.012.019-.016.03l-.065.034zm-24.979 19.406c-.363-.106-.642-.402-.927-.702.578-.078 1.286-.117 1.705-.401.313-.047.406-.215.401-.441.242-.014.533-.11.738.018-.506.142-.642.698-.725 1.281-.346.187-.728.302-1.192.245zm-23.739 13.424c.503-.579.87-1.238 1.191-.696.14-.318.071-.77-.007-1.137.049-.228.002-.349-.086-.419-.003-.016-.01-.04-.012-.055.76.189 1.478.08 2.179-.144l-.474-.006c.037-.041.08-.095.13-.16l.533.006-.041.107-.148.053h.127c-.622 1.468-1.952 2.07-3.392 2.451zm-7.865 10.2l-.037-.101.128-.046c-.028.052-.061.098-.09.147zm-16.955 10.768l.035-.056.049.067-.062.021-.022-.032zm-.778-1.167a2.948 2.948 0 01-.095.002c-.073-.195-.007-.114.095-.002zm-3.095.009l-.007.046c-.009.003-.017.003-.026.005-.096-.242-.039-.179.069-.011a.044.044 0 00-.016.003c-.005-.014-.016-.031-.02-.043zm-2.675-.395c-.447-.755-.519-.733-.558-.672.034-.041.07-.079.107-.113.107.155.25.398.45.785zm.39-8.717l.01.005-.02.015-.014-.006.024-.014zm-1.794-1.559c.032.02.072.038.102.057a.668.668 0 01-.124-.035l.022-.022zm-1.502-21.028a.63.63 0 00.128-.131c-.029-.033-.054-.05-.081-.078.077-.071.159-.139.239-.207.062.052.122.102.183.151a.977.977 0 00-.105.232l.271-.108a.017.017 0 01.008.005c-.07.079-.14.159-.204.24a3.025 3.025 0 01-.44-.104zm1.379-.83c-.016-.044-.033-.089-.043-.13.118-.043.237-.083.36-.119-.119.083-.213.166-.317.249zm72.79-15.188l-.551-.432.095-.171-.818.08a.578.578 0 00-.024-.025c.013-.064.04-.107.058-.161.401.004.679-.158.698-.499.56-.01 1.27.327 1.616.293-.39.2-2.312-.422-1.074.915zm-4.314 4.764c.172.134.433.261.644.391-.408.027-.588-.121-.669-.353l.025-.038zm-9.058 8.11c-.188.165-.565-.023-.958-.207.251-.138.501-.272.958.207zM83.376 131.92c.006.02.002.036.006.055l-.105-.021c.086-.054.13-.073.1-.034zm-11.235 5.602c.011-.284-.05-.49-.544-.399.01.099-.041.274-.088.464-.698-.021-1.37-.154-.672.859-.144.006-.293.014-.44.024a1.595 1.595 0 01-.16-.065c-.04.017-.08.053-.121.081-.119.005-.237 0-.356.001-.242-.127-.407-.295-.378-.532.019-.006.041-.018.06-.026.203.043.4.126.543.24.402-.222.432-.477.333-.724.532-.375 1.055-.875 1.373-1.345.119-.078.24-.142.362-.176.068.107.15.209.243.293a.65.65 0 01.353.12l-.04.057a.742.742 0 01-.313-.177c-.405-.007-.803.348-.871.706.251.235.545.119.815.099.082.032.17.064.266.1a.515.515 0 01-.365.4zm-9.938 7.127c.039-.036.075-.079.114-.113.104.058.215.122.323.186a34.894 34.894 0 01-.437-.073zm-14.546 3.397c-.078-.137-.144-.279-.215-.419.006-.005.01-.014.016-.02-.007.003-.013.011-.02.013-.027-.054-.056-.106-.083-.161a1.42 1.42 0 00.163-.024l.065.096a.564.564 0 00-.125.076c.052-.018.105-.015.158-.028.17.244.346.495.581.942-.01.003-.018.005-.028.01-.156-.151-.591-.835-.512-.485zm-1.008 1.037l-.005-.007c.015-.036.032-.065.04-.109l.06.1c-.032.008-.064.008-.095.016zm66.514-41.453c.052-.064.138-.05.289.077l-.289-.077zm.321.105c.064.06.137.133.228.238-.28.024-.419.043-.522.199l.294-.437zm-17.639 12.478c-.021-.024-.04-.054-.061-.078a9.04 9.04 0 01.565-.156.847.847 0 01-.059.285.883.883 0 00-.445-.051zm-7.436 6.992c-.943-.147-.406.506-.676.838l-.267-.985c.442-.008.77.051 1.072.155l-.059.146c-.024-.052-.053-.107-.07-.154zm-5.855.941c.217-.107.436-.214.654-.318.139.087.267.184.36.299l-1.014.019zm-.103 1.136c.361.06.718.255.854.664-.784.015-.572-.506-.854-.664-.218-.034-.433-.034-.601.03.324-.094.496-.087.601-.03zm.004-1.088l.69.271-.964-.139c.091-.045.183-.087.274-.132zm-34.793 19.205l-.013.004-.026-.064.04.06c.045-.015.087-.036.13-.052l.053.08c.001.024-.002.038-.005.056a.62.62 0 00-.15.02l-.018-.044.035.008-.046-.068zm-.416-.158l.173.046.086.129-.198-.052c-.02-.041-.042-.08-.061-.123zm-.51 1.211c.094.175.166.327.138.383-.018.015-.086-.103-.155-.233.003-.058.01-.105.018-.15zm-1.034-8.276c-.05-.061-.084-.13-.123-.198a.07.07 0 01.017-.006c.36.282.426.198.433.006l.001.001c.042.083.09.161.151.232l-.115.045c-.145-.046-.298-.102-.364-.08zm1.527-24.017h.014c.01.009.021.015.032.023a7.047 7.047 0 01-.182.099c.038-.041.077-.076.114-.119l.022-.003zm16.034 22.738c.051-.023.11-.032.166-.044-.035.072-.06.143-.099.213a.96.96 0 00.303.335 7.35 7.35 0 01-.494.027c.06-.12.125-.241.191-.362-.027-.052-.047-.112-.067-.169zm-12.225 6.111c.015-.035.048-.048.07-.074.036.077.063.147.08.213l-.15-.139zm-2.144 1.492l-.047-.103.107.057c-.02.016-.039.027-.06.046zm-.131.358c0 .011-.003.027-.002.038l-.016-.031.018-.007zm94.995-77.228a4.537 4.537 0 00-.19-.244c.028-.07.046-.135.075-.204-.026-.044-.063-.074-.095-.111a.36.36 0 01.107.084l-.012.027c.075.11.127.252.159.42l-.044.028zm-95.39 75.19c.181.238.194.409.127.513-.204-.196-.31-.492-.2-.076l.186.096c-.093.115-.296.13-.477.025.09-.196.364-.668.365-.558zm95.202-75.062l-.007-.025c.007.005.015.01.021.016l-.014.01zm-96.297 68.059c.021.007.036.009.057.015-.002.008-.002.015-.005.021-.02-.012-.03-.022-.052-.036zm-1.075-.668a.217.217 0 01.088-.142l.087.204a.694.694 0 01-.03.052c-.047-.033-.096-.065-.145-.114zm93.449-65.58c.077-.002.154-.004.217-.014l.138.222c-.016.006-.034.008-.05.014a.702.702 0 00-.239-.158l-.066-.064zm-.021.001l.036.053c-.154-.028-.25.05-.294.032a6.912 6.912 0 01-.072-.091c.117.01.226.01.33.007zm-13.867 10.44l.06.154-.873.203-.027-.072a9.8 9.8 0 00-.506.353l-.058-.029.543-.383.021.059c.078-.05.15-.095.223-.143l-.188.045.791-.556c-.465-.136-.836.08-1.172.381l-.421-.24a3.57 3.57 0 00.692-.45c.504.12.999.17 1.464.126l-.16.19a.441.441 0 00.199-.197c.044-.004.084-.017.127-.022a.58.58 0 00.065.14 4.88 4.88 0 00-1.397.583l.617-.142zm3.235-4.145c-.001-.013.004-.018.001-.029.099.032.234-.033.317.085-.104-.02-.216-.034-.318-.056zm-5.192 4.474c.169-.349.351-.407.731-.28a7.98 7.98 0 00-.429.433l-.302-.153zm.177.284a1.077 1.077 0 01-.204-.16c.065.055.135.107.208.156l-.004.004zm.268.147a1.466 1.466 0 00-.066-.03l.02-.013c.023.01.046.019.07.024a.28.28 0 00-.024.019zm5.95-6.07c-.433.262-.837.523-1.188.786.065-.583.545-.762 1.188-.787zm-2.682 1.284a17.68 17.68 0 00-.177-.168c.066-.01.137-.016.195-.033-.123-.378-.214-.22-.346-.498.505.496.557.08.601-.252l.122.018c-.035.002-.075-.032-.114-.073l.005-.037c.28.102.487.258.488.513-.239.11-.509.3-.774.53zm-6.963 8.24a2.692 2.692 0 00-.951.049l.163-.138-.378.14.281-.775c.093-.067.192-.13.292-.192.047.03.098.055.135.096-.001-.07.038-.123.09-.167.374.066.511.318.602.578-.078.138-.154.274-.234.409zm-5.608 6.149l.247.221a3.05 3.05 0 01-.365-.128l.112-.228.698-.123c.02.08.036.153.045.22-.136.046-.358.063-.737.038zm-64.916 42.339c-.023.02-.053.024-.081.03l-.006-.033.087.003zm65.362-43.383l.066-.009c.01.144.041.295.084.446-.119-.027-.217-.082-.264-.207l.114-.23zm-5.842 3.993a.986.986 0 01.313-.139c-.119.075-.237.157-.353.237.011-.035.028-.063.04-.098zm6.02-4.424c.025-.029.04-.064.076-.086l-.052.104-.024-.018zm.335-2.494l.677-.079.317.203-.046.32c-.365-.058-.716-.218-.948-.444zm-.552.224l.71.415-.1.052.116.09-.282-.003.166-.087-.61-.467zm-16.53 14.552l.015-.016.016.035-.031-.019zm10.601-22.388c-.025-.001-.042.01-.068.004a.042.042 0 01-.005-.012c.029-.07.061-.113.092-.166.005.074-.012.117-.019.174zm-21.41 15.79a1.02 1.02 0 01-.304.232c.081-.123.166-.23.251-.325.017.032.036.062.052.093zm.754-.343c.046.043.087.09.13.137a7.647 7.647 0 01-.154.203 2.671 2.671 0 01-.307-.098l-.104-.087a.457.457 0 01.078-.199.6.6 0 01.357.044zm27.501-8.206l.652.032c-.037.04-.077.08-.115.122l-.537-.154zM99.003 103.52c-.072 0-.132.013-.2.018.015-.05.029-.084.045-.136-.035.052-.078.084-.114.133l-.063-.03c.01-.044.02-.087.032-.127.078-.002.154-.005.238.012l.062.13zm.203-.366c-.032-.021-.09-.04-.148-.06.041 0 .085.004.135.015.006.017.006.029.013.045zm-44.003 30.954c-.013-.011-.017-.011-.03-.02a.042.042 0 01.005-.007l.025.027zm70.898-53.771c-.032-.118-.012-.262.025-.411a1.336 1.336 0 00-.379-.46l.002-.057a.814.814 0 00.478-.265c.081.008.163.022.244.034-.165.262-.291.518-.345.748.065.154.082.303-.025.41zm-41.456 44.938c-.003.011.001.017-.001.029.009.082-.002.138-.008.2-.032-.031-.067-.06-.098-.102a.322.322 0 01.107-.127zm-35.11-10.589l-.015.001c-.043-.004-.087-.013-.127-.012l.1-.029.041.04zm40.647 6.313a2.829 2.829 0 01-.373-.385c.111-.107.213-.21.317-.308l.056.029-.095.077c.044-.013.08-.041.12-.065.12.064.245.134.38.208-.09.211-.226.385-.405.444zm-5.355 5.912a.706.706 0 01-.257.072l.25-.073.007.001zM48.73 146.364a.823.823 0 01-.048-.058l-.252-.137-.1-.121c-.023-.463.13-.045.352.258l.042.024a.446.446 0 01.006.034zm2.177-1.076c-.042-.053-.093-.091-.138-.135a5.03 5.03 0 00-.066-.118l.452.194c-.083.019-.167.037-.248.059zm60.085-33.146l-.038.008c.012-.006.024-.009.035-.013 0 .003.003.003.003.005zM137.696 75.7l-.034-.098c.032 0 .064-.005.096-.007l-.028.088c-.012.004-.022.012-.034.016zm-89.74 71.734c-.027-.042-.054-.08-.082-.121l.02-.007.063.128zm.064-.047c.032.056.051.076.078.123l-.015-.003-.063-.12zm1.314-1.204c-.131-.212-.249-.396-.405-.515l-.023-.033c.086.067.164.117.244.172.094.147.179.269.244.356-.021.01-.038.011-.06.02zm34.83-18.229l-.478-.349c.026-.012.052-.021.078-.032l.4.381zm-36.22 20.059a5.119 5.119 0 01-.227-.451c.04-.007.079-.018.12-.021-.02.094-.045.166.107.472zm.974.799c-.175-.277-.408-.586-.37-.417l-.447-.853c.007 0 .013.002.02.004.277.432.353.349.398.4.397.659.362.646.427.835l-.028.031zm15.337-8.466l-.233.272-.128.043.155-.232c.054.005.114-.011.206-.083zm7.66-4.783c-.013-.116-.002-.224.093-.3a.75.75 0 01-.055.327l-.038-.027zm2.022-.995c-.142-.063-.284-.109-.425-.159l-.385-.413c.332-.122.52-.404.67-.699l.634-.189c.899.633-.21 1.289-.494 1.46zm50.358-34.381c.036.004.057-.007.088-.008-.008.009-.016.021-.025.03-.022-.006-.044-.016-.063-.022zm-77.858 41.061l.18-.026c-.057.013-.114.021-.169.038l-.011-.012zm17.913-.739l-.04.012c.012-.011.025-.02.039-.031l.001.019zm5.323 1.118a1.128 1.128 0 00-.46-.012c.118-.046.228-.096.35-.141l.025-.01c.035.047.075.08.107.131l-.022.032zm-25.286-23.045c.07.013.145.051.22.105-.075.064-.167.127-.237.191l-.175-.151c.005-.031.018-.047.03-.068.054-.026.106-.053.162-.077zm.725 22.35c-.05.133-.274.141-.461.188-.057-.298-.032-.483.46-.188zm.34.618c-.035-.182.004-.282.088-.324.056.041.106.076.169.124l-.152-.127c.126-.052.34.009.581.144a9.64 9.64 0 00-.59.223l-.095-.04zm.45 9.356c-.168-.25-.012.103-.18-.143-.164-.421.07-.048.29.291l-.017.012-.092-.16zm.35.495c.013-.003.031.001.069.03.005.049-.027.021-.07-.03-.043.007-.025.067-.219-.269l.024-.011c.076.116.147.222.196.28zm1.809 2.269c-.079-.195-.146-.357.051-.031l-.051.031zm8.346-5.864c-.247-.253-.49-.482-.742-.626a.788.788 0 00.056-.031c.342-.012.623.123.686.657zm6.247-3.346c.024-.052.053-.089.081-.133.063-.016.122-.04.191-.036l-.133-.06c.355-.5.815-.552.468-1.277.656-.071 1.258.01 1.755.546-.189.106-.296.221-.314.344-.758.151-1.472.321-2.048.616zm5.485-1.533c-.202-.213-.415-.407-.655-.528.55-.288 1.05-.51 1.558-.716-.184.119-.248.363-.11.753-.244.192-.51.354-.793.491zm45.501-33.973c-.301-.014-.622.007-.897-.113l.195-.292c.346.09.69.121.936.054.044.03.083.058.12.088l-.354.263zm-65.811 45.797l-.084-.156c.044.058.076.094.113.137a.249.249 0 01-.03.019zm71.866-44.961l.116-.178-.926.107c.355-1.363 1.969-.408 2.593-.494-.382.202-1.982-.217-1.532.589-.053.014-.114.025-.164.042l-.087-.066zm33.258-75.743l.008.008c.043.061.082.128.115.201-.065-.03-.112-.04-.134.003l-.014-.11c.01-.034.014-.068.025-.102zm-112.52 88.022a2.18 2.18 0 01-.532.369c.039-.319.131-.536.533-.369zm-.756-.17c.082.082.147.123.261.029l-.282.422a2.533 2.533 0 01-.327-.187l.348-.264zm4.412 25.457c-.01-.017-.01-.022-.02-.044a.42.42 0 00.029.047c-.004-.001-.007-.001-.01-.003zm11.276 2.807c-.304-.155-.622-.234-.763-.579.143-.373.384-.29.602-.237.117.082.187.22.165.477.03.151.02.253-.004.339zm102.698-93.276a3.125 3.125 0 01-.119-.204l.191.088a3.026 3.026 0 01-.072.116zm-122.58 64.391v.002l.157.171c.118.385-.004.355-.148.268l-.009.028a.73.73 0 01-.265-.151c.053-.023.169.063.273.123a.889.889 0 00-.008-.441zm7.008 30.879l.02.005c.053.064.102.119.163.2l-.03.025c-.054-.084-.104-.156-.153-.23zm-.517-1.063a.827.827 0 00-.25-.072l-.283-.308c-.19-.449.152-.111.533.38zm.044-.068l.112.16a.141.141 0 01-.022-.015l-.112-.152.022.007-.098-.136.415.235-.317-.099zm.186.276c.001-.002.004-.002.006-.005l.233.332-.239-.327zm.07.215a.99.99 0 01-.058-.094l.089.125-.03-.031zm2.419 2.6l.023-.003c-.001.012-.012.01-.023.003zm.06-.039a.712.712 0 00.036-.047c.062.082.143.191.27.37l.054.18c-.022.011-.041.021-.065.031-.105-.192-.219-.393-.294-.534zm102.658-77.334l-.013-.045.011-.005c.002.016 0 .036.002.05zm3.199-6.473l-.558-.36-.019-.04.059-.149-.119.02c-.077-.183-.083-.367.182-.604.214.01.439.05.654.09.023.05.04.103.053.16-.584.015-1.185.06-.252.883zm1.647-37.037l.103.052c-.075.053-.011.183.091.327a2.689 2.689 0 00-.499-.198c-.01-.04-.018-.081-.027-.121.135.013.253.007.332-.06zm-83.97 56.774l.001.01c0-.002-.002-.003-.005-.006l.001-.005.003.001zm-29.382 34.115c.666-.002 1.222.042 1.787-.281.39-.015.627-.093.491.661-.414-.007-.185.117.024.311a9.451 9.451 0 00-.46.5l-.844-.582c-.374.571.533.924-.362 1.424-.53.09-.583-.25-.58-.61.154-.207.317-.381.591-.317l-.748-.466c-.033-.313.012-.51.1-.64zm-1.526 4.267c.056-.104.121-.163.193-.182-.02.058-.034.121-.06.174a2.09 2.09 0 01-.133.008zm3.368 15.065c.07.038.13.078.216.11.004.006.01.014.014.023l-.12.076a1.684 1.684 0 01-.11-.209zm.415 7.051l.434.47.018.038c-.214-.001-.373.024-.856-.575.149.043.281.062.404.067zm1.834 2.328l-.01-.012v-.001l.01.013zm.825 1.771c.002-.102.032-.332.06-.253.365.575.18.542-.06.253zm10.364 2.161a.568.568 0 01-.06.205.741.741 0 01-.414-.024c.068-.06.163-.14.266-.224a.466.466 0 01.208.043zm93.109-75.786a.794.794 0 01-.049-.32c.043.032.085.064.129.095a2.44 2.44 0 01-.08.225zm3.924-4.799c-.102-.053-.189-.064-.28-.088.025-.076.039-.145.046-.212.007-.005.012-.012.019-.019.136.118.239.223.215.32zm13.336-29.247l.049-.016.009.06-.058-.044zm.682-1.652a1.636 1.636 0 00-.408-.1 1.04 1.04 0 01.315-.024c.032.044.058.073.093.124zm-13.073-12.754c.103.101.17.18.218.247l-.048-.017c.031.035.063.062.093.096.059.116.019.172-.081.185.005-.028.015-.048.015-.083-.188-.135-.252-.284-.438-.11l.21-.329.031.011zM40.098 144.927l-.284-.231c.07-.129.136-.296.214-.456.05.001.075-.004.132-.001l-.096-.07c.151-.283.368-.5.761-.395.05.038.1.088.137.148l-.21.316c.098.018.205.013.318.012-.308.34-.636.73-.028 1.247-.405-.825.06-.865.365-.987.197.107.329.115.42.064.074.084.147.186.22.317-.13.115-.21.296-.213.561l.017.035-.001.001.003.002.498 1.052c-.768-.421-1.747-1.5-2.253-1.615zm1.35 8.24c-.093-.137-.16-.246-.16-.276.062.096.113.186.16.276.065.094.148.201.227.306-.018.03-.04.055-.057.083a2.69 2.69 0 00-.17-.389zm5.356 4.557c.257-.159.51-.335.763-.522-.004.21-.133.39-.287.53a2.839 2.839 0 00-.476-.008zm95.575-69.353c-.221.37-.535.564-1.089.372.254-.223.55-.423.868-.605a.53.53 0 01.221.233zM92.435 71.715c.055.012.112.029.164.04-.085.292-.172.726-.587.472.1-.165.332-.303.423-.512zM75.038 82.842l.077.09-.109-.02.032-.07zM57.405 96.615l.044.04c-.099-.022-.19-.033-.28-.046a.88.88 0 01.236.006zm-2.715 2.63a4.09 4.09 0 00.162-.51l.53.4.007.056c-.22-.156-.432-.275-.553-.14.22.11.398.16.56.185.005.042.013.086.016.12a.8.8 0 00-.301-.136c.089.088.166.155.246.228a4.585 4.585 0 00-.12.19l-.06-.028-.073-.11-.069.046-.02-.01c.006.006.01.007.017.013l-.198.137c-.09-.025-.174-.037-.284-.096l.068.072-.014.167a1.012 1.012 0 00-.186-.041 4.52 4.52 0 00.218-.415c.125.053.245.104.379.164-.102-.084-.214-.191-.325-.293zm-16.23 48.277c.02-.302-.21-.671-.272-.924.177.007.348.026.488.022l-.348-.301c.132-.028.36-.007.744.098.133-.402-.298-.599-.508-.858.063-.218.095-.45.147-.644.154.003.306.301.367.418.553-.24.442-.534.384-.756.163.067.365.181.611.346-.114-.018-.21 0-.262.115l.703.471c.125.324.136.462.084.502.434.188.895.4 1.347.617l.458.659c.003.184-.1.077-.451-.411l.472.694c-.297-.054-.74-.236-1.138-.374l-.154-.239c.052.088.098.16.146.237-.08-.027-.15-.046-.223-.067l-.06-.058c.012.01.027.036.04.054-.173-.051-.331-.084-.434-.065.15.122.304.097.563.262.03.052.058.102.087.158-.348.66-2.154-.124-2.791.044zm.966 2.797c.038-.018.092 0 .152.032-.026.024-.047.053-.075.075l-.077-.107zm1.517 3.879l-.083-.018-.18-.354.263.372zm-.704-1.274l.193-.208c.224.23.449.464.662.691.816 1.228-.276.033-.855-.483zm5.024 5.89c-.02-.103-.015-.192.043-.257l.008-.004c.014.08-.005.17-.023.26l-.028.001zm-2.755 1.57l-.05.04.046-.042.004.002zm26.55-8.967c-.009-.004-.013-.01-.022-.015l.052.006-.03.009zm4.206-.882a.739.739 0 01-.389-.104c.093-.012.19-.024.28-.039.033.052.082.08.11.143zm3.618-1.63l-.18-.492.186-.093c0 .179.095.425-.006.585zm71.225-66.174c.082.15.14.326.139.57-.032.164-.239.085-.424.05-.064.185-.104.365-.063.525l-.197-.136c-.105-.412.066-.428.26-.39.07-.203.174-.41.285-.619a.912.912 0 00-.298-.315c.063-.03.107-.063.175-.09.418-.544-.428.06-.674-.226-.004-.057.008-.107.019-.156.155-.046.277-.152.329-.39l-.006-.003c.263-.141.606-.177.827-.141.161.372-.111.846-.372 1.321zm-96.715 80.724l.613-.263.161.95-.774-.687zm-24.808-4.781c-.612-.328-.038-.304-.28-.72l1.029-.396c.897 1.046-.622.616-.75 1.116zm-4.31 6.948c.203.113.28.256.452.06l-.27.529c-1.226-.253-1.038-.935-.88-1.611a1.333 1.333 0 01-.274-.498c-.015-.146.183-.083.35-.059.005-.166-.01-.326-.089-.466l.207.114c.201.358.058.38-.117.352a3.11 3.11 0 01-.078.557c.49.599 1.316.476 1.746.638-.371.079-1.1-.231-1.047.384zm-1.392 7.47a6.243 6.243 0 00-.728.389c-.002-.004-.006-.005-.008-.01.177-.472.479-.385.736-.379zm-2.112-16.086c-.12-.903.896.119 1.431-.159.075 1.076-1.023-.082-1.43.159zm-1.472 9.119l.373-.063c.322.096.47.382.669.501-.301.212-1.004.174-1.042-.438zm3.76-9.473c.16.748-.044.64-.41.72-.164-.278.042-.636.41-.72zm155.71-117.078c.131-1.416-2.107-.663-.841-1.864l-1.357.388c-.154-.447-.813-.686-.158-1.12.564.107 1.384.111 1.667-.176-1.756.721-.485-1.988-2.432-1.532l.353-.413c-.083.025-.2-.032-.266-.12l.335-.637c-.5.2-1.205.986-1.754.035l.383-.978c-.782-.189-.827-.668-1.365-.95l-2.905 1.614c.437.163.924-.02 1.209.368-.131.876-1.042.065-.959 1.03l.678.071c-.22-.081-.339-.036-.309-.213-.167-.435.269-.271.58-.057.475.648-.381.978-.938.856-.477.85.999.957 1.065 1.265-1.326-.328-.91 1.356-1.735 1.504l.887.17c.39 1.216-.71 1.242-1.208 1.413l.646.272c-.259.258-.247.646-.225 1.007-.013.054-.034.097-.034.18l.047.028c.014.29-.004.534-.204.643-.327-.052-.707-.175-.834-.037-.003-.006-.007-.011-.008-.016.289-.102.535-.164.564-.215l-.394-.223c-.124-.22.162-.108.343-.108l-.59-.335c.707-.653-.372-1.758.822-2.183.037-.325-.272 0-.58-.22-.343-.437.288-.433.578-.324-.89-.535-.905-.032-1.37-.734.016-.009.04-.014.059-.024.024 0 .036-.004.032-.013a1.38 1.38 0 01.337-.128c.003-.005-.001-.005.001-.01l.268.146c-.055-.31-.752-.62-.546-.84.13.003.268.038.376.087.465.307.71 1.107 1.158.748.108-.291-1.63-1.902-1.409-2.37.307.427.344 1.16.887.868.233-.33-1.492-2.873-.422-2.858.024-.974-1.678-1.321-.754-1.69l-1.04-.255c-.142-.388-.67-.823-.175-.884.446.301 1.084.632 1.29.535-1.337-.17-.459-1.662-1.958-2.098l.261-.168c-.063-.014-.158-.104-.211-.195l.241-.343c-.384-.05-.912.26-1.372-.667l.273-.582c-.618-.451-.665-.829-1.094-1.256l-2.274.11c.354.287.738.333.976.735-.082.607-.833-.346-.741.41l.546.31c-.179-.144-.274-.156-.254-.277-.146-.39.208-.1.462.177.399.666-.274.586-.727.287-.357.455.836 1.087.898 1.343-.786-.54-.79.056-.987.344l-.295.04.41-.636c-.817-.216-.689-.817-1.194-1.159l-.506.275a1.459 1.459 0 00-.485-.141l.429-.267c-.081-.003-.172-.098-.208-.199l.473-.483c-.504.017-1.364.52-1.607-.547l.63-.8c-.661-.436-.562-.907-.97-1.353l-3.227.669c.369.279.885.247 1.044.703-.363.795-1.006-.236-1.189.709l.625.26c-.187-.14-.311-.13-.236-.291-.042-.463.328-.181.565.112.277.753-.614.816-1.118.547-.675.67.716 1.179.7 1.488-1.196-.68-1.175 1.024-2 .938l.815.393c.038.436-.072.683-.247.827-.588-.245-.829-.475-1.332-.718l-.069.006c-.209-.155-.229-.331.341-.723l-1.404.174c-.079-.468-.691-.809.029-1.141.542.195 1.348.328 1.676.088-1.855.443-.144-2.066-2.142-1.915l.421-.36c-.086.012-.193-.064-.242-.162l.443-.59c-.53.123-1.365.806-1.742-.237l.553-.928c-.741-.312-.698-.802-1.18-1.173l-3.193 1.215c.411.225.929.11 1.145.544-.276.829-.983.014-1.122.806-.171-.056-.396-.062-.719.024l.437-.477c-.091.032-.207-.031-.262-.127l.45-.727c-.56.237-1.423 1.138-1.857.076l.551-1.108c-.798-.195-.774-.731-1.301-1.037l-3.288 1.852c.437.18.972-.034 1.214.4-.272.984-1.119.077-1.2 1.15l.712.078c-.22-.089-.356-.04-.292-.237-.099-.482.338-.3.633-.063.387.72-.587 1.086-1.161.95-.664.945.892 1.064.907 1.408-1.345-.357-1.236 1.502-2.173 1.65l.928.197c.152 1.328-.999 1.385-1.561 1.576l.636.303c-.921.838.286 2.84-2.114 1.895l.419.212c-.201.518-.372 1.443-1.233 1.301.195.205.386.512.298.72-.863-.449-.739.421-1.159 1.083.528-.19 1.268.768 1.857.588.035 1.712-1.723-.165-2.409.55.013.86.85.096 1.271.31-1.526.636-.344 4.212-2.712 3.174l-.052-1.012c-.802.052-1.036.285-.828.395.089-.192.292-.076.498.038-.407 1.848-2.483 1.087-3.742 1.768a1.614 1.614 0 00-.214-.295l-3.05.546c.364.29.855.276 1.022.724-.33.762-.972-.272-1.129.64l.606.281c-.182-.145-.302-.143-.231-.295-.051-.452.311-.161.545.134.022.054.024.097.032.143-.111-.05-.196-.113-.212-.16.105.124.171.237.22.345-.068.41-.708.391-1.107.155-.488.476.172.918.508 1.234a.293.293 0 01-.028.027c-1.219.076-2.488.155-3.735.29.329.321.947.35.976.843-.675.8-1.077-.342-1.581.645l.635.328c-.172-.166-.316-.166-.181-.33.094-.493.429-.164.608.167.086.824-.935.807-1.437.486-.968.654.478 1.298.371 1.624-.299-.208-.547-.246-.766-.19-.202-.134-.502-.148-.987.042l.168.551c-.275.27-.549.516-.899.464l.817.458c-.014.092-.039.16-.061.236l-.802.474c-.891-.827.218-1.39.118-1.701-.937 1.074-1.314 3.222-2.537 3.943a4.174 4.174 0 01-.277-.177l.236.192a1.681 1.681 0 01-.497.196l.398.256c-.61.123-.819.375-.871.66a.89.89 0 01-.218-.051c.16.232.309.562.211.742-.629-.487-.712.018-.97.515-.352-.167-.661-.178-.769.341l.282.178c-.021.03-.044.044-.066.083.037-.018.053-.05.085-.071l.174.11c-.083.408-.611.089-.76-.091.043-.034.066-.062.13-.098l-1.122-.11c-.15-.397-.715-.785-.184-.925.478.257 1.168.51 1.394.372-1.445.027-.503-1.7-2.118-1.938l.277-.216c-.067-.004-.17-.085-.228-.174l.251-.395c-.413.003-.967.4-1.473-.51l.274-.644c-.667-.386-.729-.771-1.195-1.157l-2.356.362c.376.261.774.27 1.032.66-.069.638-.865-.27-.758.502l.575.267c-.19-.132-.287-.135-.27-.263-.156-.388.214-.125.487.136.429.653-.284.64-.757.37-.37.507.88 1.053.948 1.313-1.131-.67-.714.765-1.408.618l.757.411c.359 1.048-.531.763-.935.747l.551.409c-.568.37.765 2.254-1.265.87l.363.277c-.057.34-.019.996-.704.656.19.21.396.499.371.638-.744-.576-.474.132-.661.535.364-.01 1.117.928 1.527.944.369 1.338-1.337-.579-1.719-.21.179.667.667.3 1.029.579-1.048.07.6 3.201-1.399 1.772l-.248-.807c-.051-.015-.079-.016-.123-.027a.807.807 0 01.274-.242c-1.216-.73-1.802.087-2.28.948-.359-.041-.661.004-.787.306.18.149.321.225.45.303a6.182 6.182 0 01-.146.237c-.549-.347-1.345-1.017-1.311-.23l.451.3c.018.4-.613-.053-.687-.187.106.124.18.232.238.332-.01-.008-.016-.01-.027-.02l.169.364c.035.228-.078.385-.222.542-.373-.065-.77-.245-.658-.6l-1.107 1.726c.352.051.85.13 1.337.167.055.223.158.48.333.794-1.007-.62-2.36-.618-2.218.056.08.23.171.387.27.52a.543.543 0 01-.211.224c-.353-.462-.384-.817-.68-1.26l-2.274-.334c.29.351.66.473.811.913-.209.584-.751-.5-.82.261l.475.412c-.146-.178-.236-.206-.192-.322-.063-.412.228-.06.422.263.253.734-.396.526-.78.141-.22.186-.082.483.117.772-.358.122-.584.544-.785.958a.323.323 0 01-.15-.034l.114.109c-.318.659-.603 1.225-1.333.364l.408.917c-.247-.006-1.09-.323-.981-.778l-.821 1.345c.283.108.682.267 1.073.394-.02.036-.041.06-.06.09-.137.014-.243.051-.214.223-.009.005-.02.015-.029.019-.07-.087-.12-.122-.115-.044.02.022.036.032.056.053-.33.02-.581-.786-1.378-.399l.894.337a1.964 1.964 0 01-.383.376c-.017-.046-.025-.087-.057-.142-.006.063.002.114.008.167-.286.184-.576.183-1.046.044l.623.287c-.015.027-.043.039-.052.07.03.038.058.06.09.094-.358.031-.837-.07-1.145-.213-.376.15-.7.983-1.2 1.543-.471-.505-1.134-.92-1.094-1.597.902.919.617.08.96-.005-2.111-1.884-.915 2.405-2.511.591l.49.866c-.204-.028-.95-.397-.937-.796l-.445 1.137c.743.37 2.403 1.262 1.948.27.4.297.45.492.477.692-.141-.042-.242.025-.258.301l.39.374c-.002.013-.009.019-.01.03-.174-.063-.237-.037-.258.03-.153-.105-.32-.295-.349-.372.209.339.287.568.287.74a.964.964 0 00-.521.028c-.013-.013-.03-.02-.044-.033l.358-1.157c-.493 1.197-.638-.47-1.538-.19l.764.474c-.223.278-.412.363-.66.326-.195-.085-.364-.18-.474-.338-.028.355-.848.146-1.304-.114-.405.134-.507 1.67-1.304 1.63.456.224 1.13.46 1.658 1.195-.021-.007-.036-.01-.055-.015a.854.854 0 00-.657-.335l.145.38c-.055.117.004.338.2.674a8.395 8.395 0 00-.832-.144c-.122-.442.211-.538.126-.752-.136.166-.22.43-.292.719-.267-.214-.539-.346-.82-.262l.093-1.026c-.185 1.002-.579-.504-1.225-.384l.669.53c-.205.352-.401.313-.916-.066l.99.868-.014.038-.677-.016c-.014-.017-.026-.03-.041-.05l.025.05-.425-.01c.194.006.301.293.304.59-.004.002-.008.002-.011.006l.01.001c0 .126-.013.25-.056.357l.037-.039c-.034.139.103.336.271.547.195.351.543.725.231.85a.635.635 0 01.16.206c-.037.017-.094.028-.145.041a.714.714 0 00-.3-.033c-.92-.946-1.826-.784-2.54-1.446l.02.023-1.074-.276c.216.057.365.611.286.91l.027-.027c-.05.394 1.397 1.703.449 1.596l-.646-.301c.098.024.198.322.246.471l-.63-.258c.051.23.066.397.056.52l-.712.116.024.08c-.43-.162-.92-.398-1.052.04-.203-.171-.364-.255-.493-.274l.224-.103-.645-.04.09.295a1.431 1.431 0 00-.192.446l-.61-.121c.162.196.361.27.551.33-.027.098-.053.19-.083.273l-.24.057c-.053-.245-.14-.436-.436-.443.03.096.034.262.045.436a3.357 3.357 0 01-.232-.273l.195.384-.26.064.335.1c.021.118.064.22.124.31-.233-.09-.82-.479-.809-.838l-.28.714a3.102 3.102 0 01-1.091-.487c-.007.27.292.353.391.379l-.044-.148c.289.081.53.644.73.664.14.09.297.189.467.293.02.074.045.152.042.204-.179-.036-.357-.067-.538-.142-.024.297.344.307.469.308-.103.11-.306.131-.513.155-.02-.04-.03-.076-.06-.125.005.052.03.083.042.127-.186.024-.363.062-.47.177-.213-.192-.48-.363-.744-.368l.548.442a2.683 2.683 0 01-.46-.247c-.288.074-.39.902-.75 1.278l-.316-.575c-.265-.072.22.475.076.727a.524.524 0 01-.213.034c.417.225 1 .504 1.482 1.18l-.174.013c-.087-.019-.16-.019-.209.008-.096.004-.19.005-.287.006l-.094-.14c-.112-.002-.113.056-.08.14-.4.002-.791.003-1.127.064l.068-.862c-.063.353-.155.378-.274.277-.012-.155-.103-.38-.365-.799-1.063-.142-.815.058-1.69.255l.1.026c-.025.822-1.232-.023-.855 1.169.508.506.238-.693.82.163l-.558.41c.03.04.056.054.086.08l-.365.165c.75.592.978-.443 1.438-.469.21-.221-.613.122-1-.798.709-.373 1.293.011 2.074.68-.111.102-.29.09-.563-.295.137.283.266.493.39.672-.152-.152-.303-.212-.462-.052.19.046.222-.074.44.234-.022.007-.026.017-.046.025-.592.086-.718.195-1.075.383a1.06 1.06 0 00-.679.288c-.286-.105-.561-.225-.822-.45l.019.022-1.047-.247c.212.05.402.587.357.881l.021-.028c-.001.159.253.466.49.763-.006.012-.009.027-.013.039-.193-.216-.382-.439-.562-.633a.245.245 0 00.064-.141l-.088.117c-.416-.44-.792-.716-1.1-.377l.666.556c.007.375-.044.533-.127.58.347.169.71.356 1.07.55l-.437-.192c.092.023.222.309.283.452l-.561-.211c-.026-.112-.097-.191-.262-.205a1.08 1.08 0 00-.28.018c.012.157-.141.495-.192.794l-.06.001c-.377-.128-.736-.208-.734.26.06-.24.378-.294.633.273-.383.005-.784.025-1.2.045l-.893-.137a.829.829 0 00.147.116 3.5 3.5 0 00-.611-.047 3.726 3.726 0 01-.468-.11l.167-.129-.826.07.444.225.012-.008c.083.09.252.115.38.119.117.345.389.284.693.347.011.056.023.11.038.167-.236.128-.445.276-.51.433-.418-.061-.864-.152-1.373-.464.04.261.324.323.419.344l-.064-.14c.383.084.835 1.073.923.331.046.06.065.097.102.15-.017-.018-.03-.025-.048-.043.033.034.056.065.084.098.052.077.12.165.153.226-.335.09-.66.195-.879.384l.821.147a.22.22 0 00-.025.024c-.205.074-.51.078-.66.22-.199-.122-.387-.204-.545-.165.475.446.249.524.074.676.338-.047 1.187.662 1.204.038-.121-.092-.247-.195-.374-.295l.654.273a2.48 2.48 0 01-.56.49c-.399.151-.783.272-1.434-.09.102.188.133.38.029.515l-.569-.793c-.224-.05.175.346.195.606l-.453-.615-.234.178c-.616-.408-1.044-.788-1.556-.59.33.26 1.392.042 1.28.801l-.194.148.676.57c-.115.02-.23.043-.346.063a4.223 4.223 0 00-.342-.483 3.756 3.756 0 00-.53-.017l-.259-.574c-.349-.006-.017.345-.1.663-.131.063-.268.148-.594.246l.094.02c.113.784-1.109.028-.574 1.15.022.019.033.019.052.033-.044.054-.09.095-.132.18.02.054.039.091.059.138a8.726 8.726 0 00-1.404.387l.058-.344c.379-.345.691-.473.184-1.344-1.749.132-1.422.308-3.001.774l.157.002c-.447.995-2.067.293-2.025 1.627.655.514.76-1.153 1.445.198l-1.891.792c.971.522 1.891-.794 2.687-.946.469-.321-1.11.313-1.304-.692 1.352-.62 2.15-.342 3.131.215-.874.573-2.09.426-2.556 1.543a3.928 3.928 0 00-2.234 1.207l-.433 1.487c-1.303-.525-1.841-2.541-3.254-1.567l.816.519c-.193.452-.364.658-.53.73.806.207 1.664.452 2.453.705a1.305 1.305 0 00-.519.738c.115.12.24.208.358.294a1.273 1.273 0 01-.385.098.216.216 0 01.073-.103c-.15.1-.627.005-.719.1-.904-.091-2.005-.431-2.746-.275.164.168.64.014.97.354-1.724 1.297-4.63.398-6.224.867-.287.991 1.444-.14 1.64 1.029-.966-.017-1.402 1.304-2.071.459.998 1.184-1.729.965.368 1.507-2.505 1.974-6.15 2.153-9.376 2.901.355.323.534.654.566.982.917-.537 2.502-.827 3.497-.15-.283.995-1.935-.195-1.897.301.467.174 1.097-.147 1.445.523-.452 1.167-1.357.286-1.997.469l.116-.497c-2.203.038-2.243-1.772-3.875-.356-.202 1.177.386.645.968 1.619-.652-.136-1.42 1.743-2.476.963l1.06-.727c-.935.176-1.669.605-2.402.567.176.182.345.374.558.363-.8.036-1.558.558-2.234.064l.4 1.167c.126-.673 1.181-1.37 1.702-.892.42.987-1.045 1.046-1.508 1.387 2.364-.904 3.343.686 4.773-1.052l-.495-.144c.669-1.452 2.585-.819 3.52-1.376-.151.367.012.785.237.892.41-.5.867-.896 1.348-1.223.497-.336 1.087-.642 1.658-.931a.216.216 0 00.034-.016l.73.377c-.684.72-2.42.684-2.59.796l.309.337c-.014.279-.275.09-.491.051l.46.51c-1.33.596-.873 2.103-2.625 2.334-.292.367.322.06.525.38.072.581-.677.439-.937.246.655.834 1.072.206 1.069 1.197-.585-.252.72.703.059.862l-.919-1.024c-.186.387.486.941-.07 1.122-.862-.169-.113-1.723-1.112-1.351-.402.345.673 3.249-.578 3.149-.391 1.056 1.482 1.567.258 1.895l1.127.359c.024.433.481.946-.12.972-.413-.362-1.04-.772-1.32-.684 1.509.293-.07 1.835 1.527 2.431l-.367.16c.07.019.148.125.177.226l-.405.35c.43.087 1.161-.204 1.363.834l-.532.609c.56.537.479.947.826 1.444l2.688.077c-.308-.34-.74-.423-.87-.876.314-.649.844.445 1.01-.381l-.522-.38c.155.17.26.191.194.322.03.432-.279.089-.475-.233-.22-.751.532-.61.95-.248a.38.38 0 00.154-.372c.561.443.54.86.93 1.294l.14-.016a1.825 1.825 0 00-.38.14c-.724.567.088 3.638-1.757 4.011-.86 1.423 1.823 1.313-.094 2.177l1.594.002a.998.998 0 00.032.376 3.586 3.586 0 00-.506.807c-.526-.267-1.32-.496-1.747-.289 1.411-.145.773.822.753 1.553-.012.02-.027.039-.038.057a2.477 2.477 0 01-.664.27c-.196.251-.002.201.223.206a20.11 20.11 0 00-.837.415c.15.189.323.28.505.331.295.191.527.171.669.272-.32.263-.536.624-.916.019-.032.202.023.423.1.644-.01.382.466.805-.073 1.01-.918-.145-.07-1.733-1.14-1.341-.186.144-.086.893-.068 1.629l-.571.054.195.124a3.376 3.376 0 01-.384 1.385c-.016 0-.029.004-.046.002a.91.91 0 00-.093.233c-1.369 2.07-4.985 1.747-5.99 4.235l.488.363-1.164-.043c.831-.037.393.697.758 1.085l-2.254.535c.369.386 1.344 1.105 1.475.602-.013.946-1.454.658-1.916 1.081l.535.191-.745.174.57.496c-.95.539-1.208 2.008-2.355 1.488l.984.712-1.435.172 1.022.082c-.62 1.078-2.541 1.809-2.704 1.999l.407.222c.04.3-.285.214-.53.267l.606.336c-1.346 1.203-.559 2.602-2.445 3.565-.254.506.365-.067.647.186.185.587-.67.738-.99.635.87.62 1.224-.211 1.391.834-.693-.03.922.45.212.885l-1.193-.714c-.14.482.698.801.11 1.216-.98.156-.411-1.771-1.45-.996-.385.497 1.258 3.185-.173 3.531-.308 1.267 1.872 1.123.525 1.929l1.324-.038c.079.454.663.833-.026 1.094-.511-.23-1.282-.449-1.592-.255 1.78-.231.08 2.005 1.996 2.062l-.421.314c.083-.004.183.081.226.181l-.454.536c.513-.067 1.362-.667 1.678.391l-.599.877c.702.374.627.863 1.07 1.274 1.085-.333 2.2-.676 3.274-1.047a1.288 1.288 0 00-.298-.124c.464-.345.861-.908 1.106-1.167-.289.001-.584.084-.876.191a.684.684 0 00.127-.349l-.662-.19c.202.118.33.096.263.268.073.463-.326.22-.59-.049-.33-.733.575-.896 1.103-.687.63-.76-.82-1.111-.83-1.427 1.263.547 1.122-1.168 1.954-1.184l-.86-.299c-.21-1.217.834-1.113 1.336-1.224l-.604-.344c.784-.65-.54-2.554 1.733-1.483l-.403-.228c.123-.444.17-1.238.964-1.046-.204-.196-.416-.484-.367-.662.834.46.598-.325.875-.879-.446.13-1.252-.764-1.747-.652-.3-1.504 1.561.273 2.065-.314-.15-.755-.775-.138-1.187-.357 1.285-.453-.447-3.662 1.845-2.626l.235.887c.701-.008.868-.203.661-.309-.043.165-.245.055-.45-.055.017-1.886 2.798-.495 3.384-1.883-.407-.22-.653-.166-.942-.409.088-.803 2.167 1.068 2.176-.34l-.53-.193c.002-.473.739-.163.82-.027-1.5-1.385 1.563-1.588.098-3.92.925.289 2.123.058 2.531-.416.214-.015.43-.027.634-.045-.14-.144-.323-.235-.494-.33 0-.004.002-.007.001-.012.386.214-.048-.241.032-.336-.02.022-.082.021-.153.016a1.21 1.21 0 00-.222-.307c.232-.2.431-.212.612-.168.252.606.545 1.081 1.363.761l-.303-.565c-.044.161-.014.466-.262.509-.506-.113-.511-.38-.5-.629.198.037.393 0 .614-.386l-.32-.179.972-.63c.414.341.476.612.437.837-.059.008-.12.015-.179.024.056.04.094.078.145.118-.053.146-.129.271-.152.375-.28-.133-.477-.136-.557.192.494.821.558.504 1.398 1.268-.177-.066-.2.088-.226.258-.036-.019-.047-.018-.005.03-.039.252-.102.511-.694.121l.232-.4c-.45.023-.648.248-1.09.151.198.145.397.296.515.312-.442-.056-.59.247-1.244-.155l.866.854c-.304-.464-.073-.866.483-.472.765.738-.03.632-.1.837.691-.353 1.758.42 2.06.113l.756.816c-.34-.419-.302-.591.18-.115.72.78.169.396.183.499.426.057 1.713 1.436 1.328.715l-.281-.249c-.52-.765.607.26.664.16.036.055.098.127.15.192a20.4 20.4 0 00-1.077.266c-.179-.122-.532-.485-.334-.191l.334.191c-.059.014-.12.026-.179.043.352.318.543.643.59.969.827-.505 2.304-.886 3.24-.241a2.433 2.433 0 00-.495.419c-.53-.02-1.236-.38-1.195-.06.362.114.773-.047 1.117.155-.075.085-.153.165-.22.265l-.023.255c-.364.013-.706.043-.988.134-.016.077-.004.125.001.179a1.067 1.067 0 00-.177-.01c-.053-.055-.107-.107-.16-.161l.055-.313c-.154.006-.277-.017-.41-.03-.375-.338-.742-.528-1.138-.333-.787-.418-1.165-.935-2.183-.03-.17 1.152.378.651.953 1.629-.623-.153-1.366 1.672-2.378.847l1.019-.665c-.896.132-1.6.515-2.3.433.165.189.324.387.529.39-.764-.01-1.5.456-2.13-.081l.35 1.178c.144-.651 1.155-1.272 1.649-.769.388.999-1.02.975-1.477 1.272.393-.125.745-.18 1.067-.196l.001.008a1.608 1.608 0 00-.324.064c.074.073.237.107.424.132.14.103.383.076.642.084.397.071.635.243.257.742-.394.304-.604.821-1.118.228.352.386.314.612.188.765-.556.097-1.108.192-1.642.299.048.048.07.094.11.141a.73.73 0 00-.388-.005c.447.435.176.565-.103.742-.45-.289-.835-.412-1.576.215-.129.81.113.806.458 1.096-1.14.3-2.343.5-3.477.751a.38.38 0 00-.344.026c.042.028.08.042.12.066.243.231.394.462.492.691-.267.053-.528.11-.782.102-.208-.126-.401-.217-.608-.203-.015-.011-.03-.016-.046-.027l.013.037c-.21.024-.434.144-.71.441-.007 1.097.413.627 1.034 1.577-.568-.163-.945 1.554-1.94.766l.48-.38.058.147.56-.315-.314-.074.002-.001-.005.001-.444-.105.077.187c-.576.149-1.05.381-1.566.328.177.176.347.363.525.364-.635-.001-1.166.408-1.778.044.397.063.824-.13 1.224-.415.01.002.02.006.03.007a.144.144 0 01-.017-.015c.47-.337.9-.769 1.165-.984-.12-.004-.252.029-.379.043.081-.128.137-.259.229-.341-.194.056-.378.196-.553.379-.835.179-1.709.639-2.306.971a.935.935 0 00.534.34l.524 1.063c-.026-.635.759-1.252 1.27-.779.504.941-.703.926-1.017 1.246 1.801-.784 2.857.795 3.79-.755l-.433-.164c.354-1.323 2.049-.62 2.782-1.118-.079.341.116.743.325.852 1.084-1.725 2.913-2.225 4.47-3.636.066-.024.137-.042.195-.075-.141.356.016.774.233.89.205-.248.422-.47.649-.674l.434.243-.225-.41c.162-.136.325-.271.496-.391.184.255.344.596.565.582-.106 0-.16-.111-.28-.23 1.24.168.685-.555.692-.963.702-.402 1.436-.773 2.168-1.217.21.136.419.329.622.612.416-.524.954-.923 1.548-1.254l.541.292-.119-.252c.034-.064.04-.177.063-.28a9.57 9.57 0 01.519-.231c.15.253.282.543.51.525-.119 0-.167-.112-.285-.234 1.078.124.984-.306.922-.702 1.068-.342 2.122-.611 2.905-.977.04-.468-.298-.173-.363-.49a.88.88 0 00.35.103c.108.105.212.223.311.371.482-.498 1.06-.897 1.689-1.234.088.142.06.349-.235.704 0 0 .421-.591 1.008-.232-.277-.171-.5-.351-.708-.512 1.48-.78 3.223-1.207 4.683-1.666.274.743-1.299.56.291 1.089-1.786 1.764-4.8 1.83-7.345 2.249.32.341.5.671.556.987.716-.412 1.987-.62 2.895.076-.108.935-1.624-.283-1.543.191.422.192.901-.083 1.273.574-.216 1.085-1.141.224-1.647.339l.054-.467c-1.854-.151-2.008-1.897-3.26-.751-.09 1.087.362.658.91 1.652-.553-.208-1.074 1.473-1.999.603l.835-.555c-.767.049-1.347.365-1.959.247.16.191.312.392.489.408-.66-.059-1.247.356-1.852-.179l.431 1.145c.044-.625.87-1.176 1.336-.659.417.982-.78.871-1.13 1.148 1.871-.605 2.78 1.039 3.858-.43l-.422-.198c.464-1.292 2.113-.453 2.884-.915-.103.339.064.753.264.874 1.287-1.787 3.348-2.087 5.044-3.693l1.177.712-.408-.815c.694-.803.82.638 1.261.621-.106-.004-.156-.115-.272-.239 1.629.271.21-1.086.979-1.188-.778-.68-1.383.375-1.736-.907 1.623.276 3.077-1.197 4.321.606 1.633-1.943 4.88-2.229 6.706-3.091.041-.468-.3-.173-.365-.49 1.33.692 1.846-2.103 2.432-1.139.171-.466-.12-1.263-.185-1.577.714.205 1.372.121 2.007-.079l-.566-.024-.036-.158.804.034.015.073c1.552-.546 2.994-1.747 4.876-1.48-1.105-.189-.534-1.273-1.106-1.445 1.57 1.142 3.122.256 4.247-.676-.206-.316-.272-.631-.574-.796l1.102.182-.334-.324c1.09-1.078 3.552-.245 3.93-1.503-.631.153-.837-.167-1.213-.643.93-.54 1.792-1.069 3.143-1.289a.742.742 0 01-.298-.254c.191-.31.766-.149 1.167-.148l-.453-.784c.769.008 1.21-.833 2.242-.647-.295-.997 2.052-.246 2.56-1.08.404-.002-1.188-.465-.369-.939 1.198 1.563 1.054-.631 2.287 1.089l.26-1.106.74.775c-.52-2.037 1.383.136 1.905-.97-.173-.157-.307-.155-.347-.31.405-.007 1.13-.333.93.455.459-.323 2.316-.981.978-1.427.391.466-.547.478-.95.486-.474-.777.424-.948.042-1.879.079.066.258.136.408.212l-.217-.53c1.427.231 1.897-.967 3.26-.339-.124-.255-.096-.536.237-.69l.66.925.907-.654-1.373-1.058c.822-.958 2.596.074 3.583-.276-.88-1.697 2.023-.549 1.765-2.422l-.94.036c1.575-.685 1.123-1.774 2.771-2.161-.712 1.287-.926.994-1.616 3.37 1.133-1.762 3.361-1.096 4.169-3.024-.36-.294-.894-.268-.812-.9.854.587 1.339-1.009 1.796.067.222-.635-.331-1.553-.151-1.879l2.322.024-.18-.148c.487-1.99 1.976-2.562 3.318-2.72 1.485-.263 3.179-.42 4.154-1.772l-.393-.465 1.159.285c-.849-.133-.21-.778-.471-1.24l2.427-.079c-.266-.461-1.057-1.381-1.331-.902.28-.951 1.663-.372 2.256-.708l-.492-.298.813-.035-.443-.611c1.128-.368 1.813-1.817 2.857-1.097l-.82-.898 1.543.061-1.043-.252c.944-.985 3.169-1.5 3.401-1.68l-.371-.283c.038-.319.361-.185.636-.218l-.555-.421c1.761-1.137 1.249-2.664 3.508-3.618.389-.542-.416.066-.666-.224a.473.473 0 01.081-.33l.862-.1a2.744 2.744 0 00-.174-.262 1.13 1.13 0 01.445.008 1.174 1.174 0 00-.663-.268c-.188-.204-.404-.376-.603-.44.117-.171.229-.341.343-.509a2.52 2.52 0 01.356-.072l.304.199a.45.45 0 00.035-.237c.26-.022.516-.045.746-.091.073.275.226.412.747.03.2-.242.118-.764.011-1.355 1.104-.617 1.934-1.843 2.922-1.231l-.836-.886 1.726-.065-1.147-.181c1.162-1.138 3.691-1.83 3.963-2.044l-.383-.275c.075-.343.419-.227.728-.272l-.572-.417c2.069-1.289 1.68-2.91 4.268-3.964.491-.573-.46.069-.696-.226-.002-.667 1.062-.826 1.407-.714-.808-.708-1.522.23-1.345-.962.804.045-.922-.525.062-1.009l1.155.818c.334-.551-.547-.913.286-1.384 1.218-.19-.12 2.025 1.386 1.119.641-.608-.446-3.589 1.327-4.055.601-1.225-1.151-1.232-.641-1.781l.217-.016-.182-.022c.1-.094.258-.203.505-.333l-1.312.077c.355-.343.811-.646 1.292-.906.214.004.413-.012.556-.093a1.85 1.85 0 01-.433.024c1.03-.542 2.088-.892 2.253-1.023l-.388-.266c.062-.34.405-.231.707-.28l-.577-.407c1.988-1.315 1.585-2.906 4.127-3.938.482-.555-.452.06-.689-.234-.004-.664 1.05-.801 1.388-.678-.794-.724-1.505.197-1.325-.985.797.057-.916-.538.067-1.004l1.139.84c.337-.538-.531-.921.302-1.37 1.205-.156-.144 2.013 1.35 1.156.638-.563-.353-3.586 1.44-3.966.793-1.396-1.838-1.297.027-2.146l-1.575.001c.055-.508-.504-.94.389-1.2.529.273 1.358.522 1.787.313-2.153.224.524-2.215-1.695-2.316l.583-.334c-.099.002-.188-.094-.21-.203l.686-.577c-.616.06-1.774.694-1.826-.472l.77-.769c.658.34 1.102.66 1.83.327-.369-.286-2.228.392-1.303-.997 0 0-.167.29-.466.42-.318-.234-.409-.495-.487-.755 1.024-.348 2.065-.671 3.041-.987-.37-.29-.594-.594-.682-.907-.684.52-1.917.95-2.921.524-.032-.077-.064-.151-.061-.273.397.2.68.01.922-.193.356.057.658.124.598-.08-.166-.04-.332-.019-.499-.004.281-.243.513-.437.815.087.077-.335-.05-.71-.179-1.05a.632.632 0 00.177-.033l-.015.486c1.997-.178 2.293 1.559 3.515.227.026-1.124-.419-.625-1.062-1.56.583.133 1.156-1.675 2.167-.849-.307.212-.619.416-.909.646.824-.13 1.456-.5 2.107-.371-.158-.195-.31-.396-.503-.41.708.036 1.395-.357 1.943.245l-.27-1.2c-.174.632-1.087 1.138-1.558.64-.39-1.014.982-.91 1.427-1.157-2.195.534-3.174-1.006-4.452.671l.472.145c-.197.524-.576.767-1.017.902.355-1.838 1.665-2.553 3.125-3.154 1.52-.66 3.177-1.24 3.913-2.831l-.486-.367h1.224c-.882.074-.364-.721-.718-1.117l2.433-.66c-.361-.39-1.342-1.107-1.524-.572.103-.988 1.571-.793 2.09-1.281l-.551-.167.795-.246-.572-.492c1.035-.657 1.392-2.266 2.59-1.812l-1.012-.68 1.546-.323-1.092.014c.36-.609 1.067-1.16 1.706-1.596.616-.457 1.174-.79 1.263-.91l-.427-.183c-.039-.326.303-.28.565-.378l-.639-.276c1.447-1.547.595-2.928 2.6-4.337.264-.6-.394.146-.702-.074-.213-.595.697-.929 1.049-.89-.963-.482-1.307.478-1.527-.611.739-.106-.999-.3-.273-.906l1.298.505c.108-.561-.794-.71-.22-1.297 1.014-.417.584 1.84 1.611.721.369-.68-1.639-3.115-.218-3.873z" fill="#F6F8FC"/><path d="M25.279 164.73a1.665 1.665 0 00-.35-.119c.186.172.368.264.35.119zm.424-1.985a.78.78 0 00-.266.324c.114-.037.21-.119.266-.324zm1.308-1.875l-.998.701c.829-.507.74.297.998-.701z" fill="#F6F8FC"/><path d="M22.926 126.835a3.634 3.634 0 01-.323-1.157 2.666 2.666 0 01.107-1.092c.104-.344.28-.657.53-.939a2.84 2.84 0 01.971-.696 3.106 3.106 0 011.01-.276 4.335 4.335 0 011.022.034c.342.054.69.138 1.045.253.348.112.71.236 1.084.372l3.548 1.277a4.94 4.94 0 01-.343-.465c-.11-.16-.2-.321-.274-.482l-1.395-3.047a.433.433 0 01-.026-.341.414.414 0 01.23-.235l.686-.313 2.78 6.069-.389.176a.816.816 0 01-.268.069.77.77 0 01-.307-.052l-4.264-1.579c-.356-.13-.692-.243-1.007-.339a5.656 5.656 0 00-.919-.196 3.473 3.473 0 00-.844-.014 2.692 2.692 0 00-.808.23 1.96 1.96 0 00-.64.445 1.49 1.49 0 00-.343.578 1.573 1.573 0 00-.054.654c.024.229.088.459.192.687.105.229.236.425.393.589a1.91 1.91 0 001.124.577c.212.026.427.015.645-.033a.555.555 0 01.337.031.449.449 0 01.204.229l.032.069c.006.024.013.051.023.082l.168.637a3.63 3.63 0 01-1.256.158 2.91 2.91 0 01-1.1-.274 3.03 3.03 0 01-.9-.672 3.717 3.717 0 01-.671-1.014zm.457-13.864c.837-.256 1.59-.387 2.26-.393.665-.009 1.245.081 1.741.269.497.189.908.467 1.236.834.325.363.563.786.712 1.271.15.49.193.976.127 1.458a3.116 3.116 0 01-.558 1.369c-.305.434-.734.834-1.29 1.198-.559.367-1.257.678-2.093.934-.837.257-1.59.39-2.259.4-.669.011-1.251-.079-1.747-.267a3.1 3.1 0 01-1.238-.819 3.356 3.356 0 01-.715-1.278 3.342 3.342 0 01-.125-1.451c.065-.487.252-.948.56-1.384.306-.434.738-.834 1.297-1.2.558-.371 1.256-.684 2.092-.941zm.38 1.235c-.73.223-1.323.473-1.778.749-.462.273-.812.56-1.05.862-.24.298-.382.602-.428.913a1.986 1.986 0 00.521 1.695c.213.231.502.403.867.515.366.112.817.154 1.354.126.53-.031 1.161-.159 1.891-.383.73-.223 1.323-.471 1.78-.742.456-.276.803-.563 1.043-.86.24-.298.385-.603.435-.915a2.041 2.041 0 00-.521-1.695c-.217-.23-.509-.402-.874-.513-.367-.117-.816-.159-1.347-.128-.532.027-1.163.152-1.893.376zm-1.439-7.931l-.459-3.418 1.045-.14.459 3.419-1.045.139zm-1.052-13.586L5.967 90.927l.607-5.282c.115-1.002.308-1.845.58-2.529.272-.69.61-1.242 1.015-1.653a3.166 3.166 0 011.397-.858c.525-.154 1.102-.195 1.73-.122.36.041.7.134 1.019.278.312.143.6.344.864.603.257.252.482.563.675.936.194.366.345.794.453 1.286.714-2.049 1.971-2.97 3.77-2.762.65.074 1.235.267 1.757.577.523.31.957.725 1.305 1.244.341.519.585 1.137.731 1.854.146.718.169 1.521.066 2.41l-.664 5.78zm-6.383-3.62l4.488.516.332-2.89c.06-.529.048-.977-.039-1.344-.085-.375-.222-.68-.41-.916a1.799 1.799 0 00-.687-.551 2.723 2.723 0 00-.882-.252 2.367 2.367 0 00-.908.056c-.28.075-.525.215-.734.42a2.296 2.296 0 00-.534.818c-.14.341-.238.763-.295 1.264l-.331 2.879zm-1.97-.227l.262-2.276c.112-.966.02-1.72-.276-2.262-.295-.542-.827-.857-1.596-.946-.798-.091-1.392.07-1.782.482-.391.412-.641 1.099-.752 2.058l-.28 2.435 4.425.51zm9.671-31.633c1.046.425 1.946.994 2.699 1.706a7.434 7.434 0 011.71 2.409 7.24 7.24 0 01.6 2.9c0 1.035-.22 2.092-.66 3.17-.44 1.08-1.023 1.993-1.75 2.74a7.38 7.38 0 01-2.463 1.667 7.458 7.458 0 01-2.909.532c-1.037-.015-2.079-.236-3.125-.66-1.046-.426-1.943-.993-2.689-1.703a7.406 7.406 0 01-1.72-2.412 7.225 7.225 0 01-.587-2.907c-.004-1.044.214-2.106.654-3.184.44-1.08 1.025-1.988 1.756-2.726a7.265 7.265 0 012.46-1.657 7.32 7.32 0 012.909-.532c1.03.013 2.069.232 3.115.657zm-1.11 2.723c-.784-.318-1.527-.498-2.232-.539-.708-.05-1.358.03-1.951.242a4.15 4.15 0 00-1.576 1.016c-.456.459-.826 1.037-1.11 1.734-.285.697-.426 1.372-.423 2.025.002.653.14 1.264.413 1.836.276.564.684 1.079 1.223 1.543.533.462 1.191.852 1.974 1.17.783.318 1.53.5 2.241.543a4.89 4.89 0 001.946-.256 4.31 4.31 0 001.57-1.03c.459-.465.83-1.046 1.114-1.744.284-.697.424-1.368.42-2.015a4.193 4.193 0 00-.409-1.821 4.75 4.75 0 00-1.217-1.53c-.54-.465-1.2-.856-1.983-1.174zm5.205-22.388l1.901 1.39-2.742 3.737 10.536 7.704-1.695 2.31-10.536-7.703-2.755 3.754-1.9-1.39 7.191-9.802zm25.175-2.69l-1.668 1.458a1.013 1.013 0 01-.585.27 1.115 1.115 0 01-.566-.128l-2.939-1.606-4.806 4.199 1.206 3.12c.064.16.077.347.038.561a.92.92 0 01-.324.552l-1.677 1.465-5.6-15.566 2.207-1.928 14.715 7.603zM40.516 37.04l3.7-3.232-4.792-2.62a37.856 37.856 0 01-.743-.411c-.281-.17-.578-.358-.892-.565.164.338.311.657.443.957.136.296.247.563.332.8l1.952 5.07zm10.631-19.808a1.92 1.92 0 01.297-.12.55.55 0 01.23-.04.607.607 0 01.242.036c.083.023.18.063.294.118l11.781 5.744a13.33 13.33 0 01-.374-.623 22.902 22.902 0 01-.303-.6l-4.092-8.424 2.273-1.1 6.732 13.858-1.333.646c-.205.099-.39.149-.555.15a1.26 1.26 0 01-.56-.155l-11.734-5.72c.118.196.23.394.336.595.109.192.204.371.285.537l4.134 8.51-2.273 1.1-6.732-13.857 1.352-.655zm26.181 6.228l-2.782.734L70.601 9.3l2.781-.734 3.946 14.893zm15.738-5.84a.538.538 0 01.418.149l1.223 1.132a6.192 6.192 0 01-2.164 1.956c-.873.483-1.948.775-3.222.876-1.14.09-2.182-.023-3.127-.34a6.813 6.813 0 01-2.455-1.44c-.7-.643-1.261-1.432-1.685-2.367-.417-.937-.67-1.975-.761-3.115-.092-1.154.015-2.224.321-3.21a7.275 7.275 0 011.417-2.614 7.274 7.274 0 012.357-1.811c.939-.467 1.992-.746 3.16-.839 1.14-.09 2.15.015 3.03.315a6.924 6.924 0 012.313 1.27l-.85 1.404a.837.837 0 01-.206.24.586.586 0 01-.353.125c-.163.013-.334-.038-.514-.152a5.263 5.263 0 00-1.712-.698c-.407-.095-.919-.119-1.535-.07a5.135 5.135 0 00-1.966.54 4.442 4.442 0 00-1.476 1.197 5.077 5.077 0 00-.883 1.791c-.188.685-.249 1.445-.182 2.28.069.864.25 1.623.544 2.277.302.653.68 1.193 1.134 1.62.455.427.975.742 1.561.945a4.636 4.636 0 001.856.216c.39-.03.738-.08 1.046-.147a4.4 4.4 0 00.855-.271 3.89 3.89 0 00.726-.41 4.87 4.87 0 00.669-.599.878.878 0 01.21-.166.526.526 0 01.25-.084zm11.685 4.205l3.404.552-.169 1.04-3.405-.551.17-1.041zm10.037 6.008l2.057.628 1.997-6.523c.06-.196.127-.392.202-.588l-2.157.94a.566.566 0 01-.159.04.426.426 0 01-.301-.114.376.376 0 01-.087-.143l-.217-.628 3.599-1.596.969.296-2.658 8.678 1.884.575-.278.908-5.129-1.565.278-.908zm8.518-.295a3.067 3.067 0 01-.915-.595 2.6 2.6 0 01-.599-.855 2.742 2.742 0 01-.211-1.069 3.18 3.18 0 01.277-1.217 3.1 3.1 0 01.708-1.034 3.04 3.04 0 011.022-.65 3.218 3.218 0 011.227-.205c.437.009.878.108 1.323.298.441.188.81.431 1.108.73.297.299.519.633.664 1.004.145.37.209.767.19 1.189a3.601 3.601 0 01-.304 1.297 3.951 3.951 0 01-.401.725 3.996 3.996 0 01-.509.603 6.054 6.054 0 01-.631.535c-.224.168-.47.336-.74.504l-3.625 2.28a.664.664 0 01-.323.098.915.915 0 01-.383-.08l-1.053-.449 4.368-2.472c.147-.084.285-.164.414-.24.129-.077.253-.156.374-.236a2.785 2.785 0 01-.98.09 3.198 3.198 0 01-1.001-.251zm3.449-1.71a2.2 2.2 0 00.191-.837 1.82 1.82 0 00-.123-.758 1.77 1.77 0 00-.426-.622 2.118 2.118 0 00-.681-.45 2.249 2.249 0 00-.837-.19 1.916 1.916 0 00-.76.125 1.854 1.854 0 00-.628.422 2.193 2.193 0 00-.454.688 2.58 2.58 0 00-.213.835c-.011.263.027.507.113.73.091.227.23.428.418.604.192.178.427.326.706.445.308.131.601.198.879.2.283 0 .542-.05.776-.147.234-.098.441-.237.62-.42a1.99 1.99 0 00.419-.625z" fill="#121218"/><path d="M107.576 141.009a2.37 2.37 0 103.357 3.35 2.365 2.365 0 000-3.348 2.377 2.377 0 00-3.357-.002zm4.503 4.494a4.003 4.003 0 01-5.647.003 3.988 3.988 0 010-5.641 4.003 4.003 0 015.647.002 3.986 3.986 0 010 5.636zM52.752 42.308a2.368 2.368 0 00.002 3.351 2.376 2.376 0 003.355 0 2.368 2.368 0 00.002-3.35 2.38 2.38 0 00-3.36 0zm4.502 4.495a4.002 4.002 0 01-5.645 0 3.987 3.987 0 01-.002-5.639 4.007 4.007 0 015.65 0 3.986 3.986 0 01-.003 5.639zm41.845-14.048a3.176 3.176 0 010 4.496 3.188 3.188 0 01-4.503 0 3.176 3.176 0 010-4.496 3.19 3.19 0 014.503 0z" fill="#F6F8FC"/><path d="M142.334 31.695c-1.681 1.68-3.184 3.89-4.495 6.61-6.13 12.724-12.268 25.67-18.201 38.188-5.439 11.472-11.049 23.3-16.667 34.995a328.956 328.956 0 0034.535-50.853c2.48-4.508 5.267-9.791 6.994-15.454 1.755-5.762 2.154-11.144 1.182-16.004-1.182.633-2.301 1.473-3.348 2.518zm-41.146 83.44a.49.49 0 01-.609.063.485.485 0 01-.174-.617c6.183-12.828 12.369-25.883 18.352-38.504 5.939-12.52 12.074-25.464 18.206-38.193 2.351-4.876 5.331-8.194 8.855-9.862a.486.486 0 01.682.334c1.17 5.182.809 10.94-1.069 17.112-1.754 5.745-4.573 11.082-7.075 15.631a329.682 329.682 0 01-37.142 54.004l-.026.032z" fill="#868C96"/><path d="M101.189 115.135a.493.493 0 01-.602.07.488.488 0 01-.156-.67c6.447-10.344 17.994-30.95 23.758-41.51 4.012-7.358 7.548-15.05 10.969-22.491l10.127-22.02a.482.482 0 01.644-.237c.244.11.352.4.237.642l-10.127 22.02c-3.428 7.454-6.968 15.165-11.001 22.553-5.763 10.567-17.323 31.194-23.78 41.555-.023.032-.045.063-.069.088z" fill="#868C96"/><path d="M146.513 38.894c-.026.027-.056.047-.088.07l-6.939 4.293a.491.491 0 01-.672-.156.485.485 0 01.157-.67l6.941-4.293a.49.49 0 01.671.156.488.488 0 01-.07.6zm-.32 3.096a.37.37 0 01-.067.054c-2.478 1.724-5.697 3.628-8.401 4.975a.49.49 0 01-.653-.22.492.492 0 01.218-.65 71.77 71.77 0 008.282-4.9.484.484 0 01.621.74zm-.849 3.247c-.012.012-.024.02-.036.031-2.681 2.202-5.895 3.998-8.822 4.926a.486.486 0 01-.609-.318.491.491 0 01.317-.607c2.813-.89 5.908-2.622 8.496-4.75a.487.487 0 01.654.72zm-1.383 4.296a.397.397 0 01-.08.063c-2.949 1.907-6.349 3.532-9.326 4.462a.485.485 0 01-.608-.316.486.486 0 01.318-.607c2.854-.893 6.251-2.521 9.088-4.352a.483.483 0 01.67.143.484.484 0 01-.062.607zm-1.8 3.897a.458.458 0 01-.139.093 60.909 60.909 0 01-8.717 3.271.482.482 0 01-.599-.33.477.477 0 01.331-.599 61.157 61.157 0 008.573-3.217.481.481 0 01.644.232.482.482 0 01-.093.55z" fill="#868C96"/><path d="M134.758 53.365a.487.487 0 01-.802-.186c-.6-1.715-1.169-3.99-1.458-5.797a.481.481 0 01.402-.552.481.481 0 01.555.401c.278 1.728.848 3.99 1.418 5.632a.474.474 0 01-.115.502zm-1.094 2.112a.488.488 0 01-.785-.138 22.28 22.28 0 01-1.634-4.787.486.486 0 01.949-.204 21.182 21.182 0 001.566 4.578.491.491 0 01-.096.55zm-1.272 3.085a.484.484 0 01-.791-.156c-.712-1.675-1.228-3.124-1.597-5.172a.488.488 0 01.958-.17c.353 1.957.85 3.35 1.533 4.967a.484.484 0 01-.103.53zm-1.214 2.146a.488.488 0 01-.797-.165 38.523 38.523 0 01-1.565-4.966.487.487 0 01.944-.228 38.024 38.024 0 001.525 4.836.485.485 0 01-.107.523zm6.856.816a.453.453 0 01-.143.097l-8.686 3.964a.485.485 0 11-.402-.884l8.685-3.963a.487.487 0 01.546.786zm-1.563 2.789a.537.537 0 01-.151.1l-8.477 3.698a.486.486 0 01-.389-.89l8.477-3.697a.486.486 0 01.54.789zm-1.857 3.16a.489.489 0 01-.106.08 39.59 39.59 0 01-8.351 3.545.487.487 0 01-.604-.326.48.48 0 01.326-.603 38.74 38.74 0 008.151-3.46.486.486 0 01.584.765zM131.99 71.7a.467.467 0 01-.159.105l-7.719 3.158a.486.486 0 11-.371-.896l7.718-3.16a.486.486 0 01.531.794zm-6.889.151l.009-.01-.009.01zm.453-.176l-.925.295c-.682-2.15-1.06-3.331-1.203-5.6a.489.489 0 01.457-.514.487.487 0 01.513.457c.137 2.144.499 3.288 1.158 5.362z" fill="#868C96"/><path d="M124.211 74.59a.488.488 0 01-.815-.219l-1.292-4.918a.493.493 0 01.345-.594.486.486 0 01.594.345l1.293 4.916a.488.488 0 01-.125.47zm-1.228 2.266a.488.488 0 01-.806-.187c-.216-.642-.449-1.495-.684-2.345-.228-.831-.456-1.662-.669-2.289a.486.486 0 11.921-.312c.217.64.451 1.493.686 2.344.227.83.456 1.662.669 2.288a.492.492 0 01-.117.5zm-1.242 2.117a.483.483 0 01-.827-.298c-.023-.231-.103-.478-.19-.734a60.853 60.853 0 01-.562-1.745c-.159-.51-.318-1.026-.53-1.644a.488.488 0 01.922-.314c.211.628.376 1.154.536 1.67.166.537.329 1.066.551 1.707.104.319.209.627.238.97a.47.47 0 01-.138.388zm-1.209 2.072a.486.486 0 01-.18.11.484.484 0 01-.621-.289l-1.229-3.418a.494.494 0 01.296-.621.49.49 0 01.621.294l1.225 3.414a.49.49 0 01-.112.51zm-.922 2.237a.486.486 0 01-.776-.119 16.192 16.192 0 01-1.408-3.721.49.49 0 01.358-.586.487.487 0 01.586.358 15.076 15.076 0 001.327 3.499c.098.19.06.42-.087.57zm-1.347 2.183a.487.487 0 01-.802-.18c-.186-.525-.388-1.2-.587-1.877-.194-.654-.386-1.309-.572-1.821a.486.486 0 11.917-.326c.186.526.386 1.199.585 1.875.196.655.388 1.312.573 1.823a.485.485 0 01-.114.506zm-1.32 2.295a.489.489 0 01-.802-.182c-.164-.46-.327-1.106-.484-1.726-.152-.6-.306-1.217-.458-1.636a.494.494 0 01.295-.622.49.49 0 01.622.296c.163.46.327 1.106.484 1.727.152.6.306 1.217.458 1.636a.492.492 0 01-.115.507zm-1.05 2.095a.49.49 0 01-.808-.195l-1.056-3.237a.5.5 0 01.313-.611.49.49 0 01.613.313l1.055 3.237a.484.484 0 01-.117.493zm-19.952 36.753a.485.485 0 01-.454.125.48.48 0 01-.363-.579c1.091-4.703 3.111-8.139 5.843-12.487a.505.505 0 01.671-.151c.226.14.295.442.152.67-2.682 4.262-4.659 7.635-5.722 12.186a.48.48 0 01-.127.236z" fill="#868C96"/><path d="M83.335 164.628a.484.484 0 01-.532.101.483.483 0 01-.26-.633c12.505-29.641 19.37-62.304 19.853-94.461a.485.485 0 01.97.013c-.482 32.282-7.374 65.071-19.928 94.824a.471.471 0 01-.103.156z" fill="#868C96"/><path d="M99.314 110.607a.495.495 0 01-.32.14.484.484 0 01-.51-.461c-.398-8.073-1.139-9.866-2.615-13.433l-.29-.707a.486.486 0 01.898-.37l.292.705c1.518 3.674 2.28 5.515 2.685 13.757a.48.48 0 01-.14.369z" fill="#868C96"/><path d="M78.953 72.458l.009-.008-.01.008zm-7.93-23.854c2.246 7.915 4.474 15.467 8.368 23.645l.003.003c2.907 6.122 5.675 10.718 9.859 16.397 4.516 6.13 6.37 7.216 6.706 7.118.427-.431-.036-4.22-.998-7.935a79.01 79.01 0 00-5.668-15.192 79.964 79.964 0 00-8.636-13.734 78.307 78.307 0 00-5.323-6.132 97.056 97.056 0 00-4.312-4.17zM96.57 96.5a.708.708 0 01-.266.172c-.5.19-1.832.703-7.835-7.447-4.225-5.731-7.016-10.376-9.957-16.557-4.177-8.779-6.45-16.807-8.852-25.31-.057-.197.01-.429.192-.538a.482.482 0 01.562.004c1.35 1.007 4.523 4.14 5.62 5.276A80.702 80.702 0 0190.16 72.211a79.567 79.567 0 015.74 15.38c.616 2.37 1.84 7.738.671 8.909z" fill="#868C96"/><path d="M96.476 96.565a.49.49 0 01-.793-.152C88.67 80.172 80.3 61.653 69.736 47.503c-.162-.215-.099-.52.098-.68a.486.486 0 01.68.1C81.142 61.16 89.54 79.737 96.578 96.028a.49.49 0 01-.102.538z" fill="#868C96"/><path d="M93.357 89.973a.488.488 0 01-.53.105l-5.038-2.09a.49.49 0 01-.263-.635.485.485 0 01.636-.263l5.036 2.091a.487.487 0 01.16.792zm-1.044-2.516a.486.486 0 01-.459.127c-1.568-.382-3.085-1.07-4.549-1.737-.552-.253-1.101-.5-1.647-.732a.486.486 0 01-.26-.635.487.487 0 01.636-.258c.557.235 1.113.486 1.675.742 1.422.648 2.894 1.318 4.373 1.677a.486.486 0 01.231.816zm-1.23-2.499a.463.463 0 01-.492.107L84.21 82.64a.486.486 0 11.345-.906l6.35 2.409a.503.503 0 01.297.632.548.548 0 01-.118.182zm-.507-1.568a.491.491 0 01-.538.1l-7.427-3.23a.484.484 0 11.39-.887l7.427 3.228a.485.485 0 01.148.788zm-1.406-2.936a.485.485 0 01-.519.106l-7.074-2.705a.481.481 0 01-.282-.623.481.481 0 01.627-.282L89 79.658c.25.093.376.375.277.625a.493.493 0 01-.107.17zm-.941-1.827a.49.49 0 01-.547.1l-7.581-3.417a.483.483 0 01-.242-.642c.126-.238.396-.35.644-.242l7.583 3.417a.483.483 0 01.143.784zm-1.209-2.875a.488.488 0 01-.78-.56 16.556 16.556 0 001.595-5.15.496.496 0 01.55-.417c.266.039.45.284.416.549a17.775 17.775 0 01-1.688 5.451.47.47 0 01-.093.127zm-.784-1.632a.48.48 0 01-.504.113.484.484 0 01-.3-.615c.316-.913.535-1.783.745-2.628.215-.854.437-1.73.76-2.673a.492.492 0 01.617-.304c.254.09.39.364.303.616-.311.905-.528 1.763-.736 2.597-.217.865-.44 1.753-.772 2.71a.469.469 0 01-.113.184zm-1.203-2.598c-.12.12-.305.173-.484.12a.485.485 0 01-.327-.602 32.368 32.368 0 011.812-4.72.486.486 0 01.877.419 31.307 31.307 0 00-1.758 4.577.483.483 0 01-.12.206zm-1.09-2.388a.485.485 0 01-.806-.495l1.428-4.248a.483.483 0 01.612-.307c.255.084.394.36.309.611l-1.427 4.248a.497.497 0 01-.116.191zM82.8 67.087a.485.485 0 01-.82-.44c.24-1.21.677-2.163 1.145-3.17.145-.319.297-.645.445-.994a.489.489 0 01.639-.255c.246.107.36.391.255.64-.155.353-.308.687-.458 1.015-.459.994-.855 1.854-1.074 2.956a.499.499 0 01-.132.248zm-1.414-2.621a.487.487 0 01-.798-.517l1.34-3.524a.485.485 0 01.908.345l-1.34 3.524a.474.474 0 01-.11.172zm-1.018-1.801a.486.486 0 01-.807-.49l1.079-3.424c.08-.26.351-.4.608-.317a.481.481 0 01.317.606l-1.078 3.426a.47.47 0 01-.119.199zm-1.414-2.619a.492.492 0 01-.477.121.485.485 0 01-.336-.597l.795-2.846a.493.493 0 01.6-.334.487.487 0 01.336.599l-.796 2.844a.5.5 0 01-.122.213zM77.5 58.052a.487.487 0 01-.824-.432c.093-.487.215-.986.34-1.487.124-.494.244-.985.334-1.468a.495.495 0 01.568-.388c.263.05.435.301.386.566-.09.499-.216 1.011-.346 1.525-.12.48-.24.96-.325 1.43a.487.487 0 01-.134.254zm16.575 75.646a.487.487 0 01-.825-.275c-1.306-9.03-5.11-12.486-9.135-16.148l-.637-.582c-4.214-3.85-9.012-8.558-12.655-14.28-3.794-5.954-5.758-12.227-5.674-18.144a.489.489 0 01.494-.478.482.482 0 01.477.49c-.08 5.73 1.829 11.818 5.521 17.608 3.586 5.629 8.325 10.28 12.49 14.09l.64.579c4.159 3.781 8.084 7.351 9.44 16.726a.483.483 0 01-.136.414z" fill="#868C96"/><path d="M67.056 84.73c4.423 3.347 9.179 7.598 12.404 13.667 1.535 2.895 3.383 6.82 5.649 11.998.236.535 1.283 2.974 2.38 5.523a286.822 286.822 0 01-1.19-4.408c-.847-3.433-1.765-6.383-2.81-9.016-2.73-6.894-6.538-12.18-11.325-15.707-1.313-.972-3.346-1.876-5.108-2.058zm23.16 38.316a.467.467 0 01-.182.112.486.486 0 01-.609-.265s-4.675-10.901-5.207-12.11c-2.256-5.155-4.09-9.059-5.617-11.93-3.41-6.42-8.615-10.775-13.254-14.186a.49.49 0 01-.184-.505.497.497 0 01.392-.366c2.245-.375 5.315.828 7.186 2.21 4.935 3.638 8.853 9.066 11.651 16.132 1.06 2.674 1.996 5.666 2.85 9.145.35 1.426 3.071 11.189 3.1 11.289a.488.488 0 01-.125.474zm17.36 17.963a2.37 2.37 0 103.357 3.35 2.365 2.365 0 000-3.348 2.377 2.377 0 00-3.357-.002zm4.503 4.494a4.003 4.003 0 01-5.647.003 3.988 3.988 0 010-5.641 4.003 4.003 0 015.647.002 3.986 3.986 0 010 5.636zM52.752 42.308a2.368 2.368 0 00.002 3.351 2.376 2.376 0 003.355 0 2.368 2.368 0 00.002-3.35 2.38 2.38 0 00-3.36 0zm4.502 4.495a4.002 4.002 0 01-5.645 0 3.987 3.987 0 01-.002-5.639 4.007 4.007 0 015.65 0 3.986 3.986 0 01-.003 5.639zm41.845-14.048a3.176 3.176 0 010 4.496 3.188 3.188 0 01-4.503 0 3.176 3.176 0 010-4.496 3.19 3.19 0 014.503 0zm43.235-1.06c-1.681 1.68-3.184 3.89-4.495 6.61-6.13 12.724-12.268 25.67-18.201 38.188-5.439 11.472-11.049 23.3-16.667 34.995a328.956 328.956 0 0034.535-50.853c2.48-4.508 5.267-9.791 6.994-15.454 1.755-5.762 2.154-11.144 1.182-16.004-1.182.633-2.301 1.473-3.348 2.518zm-41.146 83.44a.49.49 0 01-.609.063.485.485 0 01-.174-.617c6.183-12.828 12.369-25.883 18.352-38.504 5.939-12.52 12.074-25.464 18.206-38.193 2.351-4.876 5.331-8.194 8.855-9.862a.486.486 0 01.682.334c1.17 5.182.809 10.94-1.069 17.112-1.754 5.745-4.573 11.082-7.075 15.631a329.682 329.682 0 01-37.142 54.004l-.026.032z" fill="#868C96"/><path d="M101.189 115.135a.493.493 0 01-.602.07.488.488 0 01-.156-.67c6.447-10.344 17.994-30.95 23.758-41.51 4.012-7.358 7.548-15.05 10.969-22.491l10.127-22.02a.482.482 0 01.644-.237c.244.11.352.4.237.642l-10.127 22.02c-3.428 7.454-6.968 15.165-11.001 22.553-5.763 10.567-17.323 31.194-23.78 41.555-.023.032-.045.063-.069.088z" fill="#868C96"/><path d="M146.513 38.894c-.026.027-.056.047-.088.07l-6.939 4.293a.491.491 0 01-.672-.156.485.485 0 01.157-.67l6.941-4.293a.49.49 0 01.671.156.488.488 0 01-.07.6zm-.32 3.096a.37.37 0 01-.067.054c-2.478 1.724-5.697 3.628-8.401 4.975a.49.49 0 01-.653-.22.492.492 0 01.218-.65 71.77 71.77 0 008.282-4.9.484.484 0 01.621.74zm-.849 3.247c-.012.012-.024.02-.036.031-2.681 2.202-5.895 3.998-8.822 4.926a.486.486 0 01-.609-.318.491.491 0 01.317-.607c2.813-.89 5.908-2.622 8.496-4.75a.487.487 0 01.654.72zm-1.383 4.296a.397.397 0 01-.08.063c-2.949 1.907-6.349 3.532-9.326 4.462a.485.485 0 01-.608-.316.486.486 0 01.318-.607c2.854-.893 6.251-2.521 9.088-4.352a.483.483 0 01.67.143.484.484 0 01-.062.607zm-1.8 3.897a.458.458 0 01-.139.093 60.909 60.909 0 01-8.717 3.271.482.482 0 01-.599-.33.477.477 0 01.331-.599 61.157 61.157 0 008.573-3.217.481.481 0 01.644.232.482.482 0 01-.093.55z" fill="#868C96"/><path d="M134.758 53.365a.487.487 0 01-.802-.186c-.6-1.715-1.169-3.99-1.458-5.797a.481.481 0 01.402-.552.481.481 0 01.555.401c.278 1.728.848 3.99 1.418 5.632a.474.474 0 01-.115.502zm-1.094 2.112a.488.488 0 01-.785-.138 22.28 22.28 0 01-1.634-4.787.486.486 0 01.949-.204 21.182 21.182 0 001.566 4.578.491.491 0 01-.096.55zm-1.272 3.085a.484.484 0 01-.791-.156c-.712-1.675-1.228-3.124-1.597-5.172a.488.488 0 01.958-.17c.353 1.957.85 3.35 1.533 4.967a.484.484 0 01-.103.53zm-1.214 2.146a.488.488 0 01-.797-.165 38.523 38.523 0 01-1.565-4.966.487.487 0 01.944-.228 38.024 38.024 0 001.525 4.836.485.485 0 01-.107.523zm6.856.816a.453.453 0 01-.143.097l-8.686 3.964a.485.485 0 11-.402-.884l8.685-3.963a.487.487 0 01.546.786zm-1.563 2.789a.537.537 0 01-.151.1l-8.477 3.698a.486.486 0 01-.389-.89l8.477-3.697a.486.486 0 01.54.789zm-1.857 3.16a.489.489 0 01-.106.08 39.59 39.59 0 01-8.351 3.545.487.487 0 01-.604-.326.48.48 0 01.326-.603 38.74 38.74 0 008.151-3.46.486.486 0 01.584.765zM131.99 71.7a.467.467 0 01-.159.105l-7.719 3.158a.486.486 0 11-.371-.896l7.718-3.16a.486.486 0 01.531.794zm-6.889.151l.009-.01-.009.01zm.453-.176l-.925.295c-.682-2.15-1.06-3.331-1.203-5.6a.489.489 0 01.457-.514.487.487 0 01.513.457c.137 2.144.499 3.288 1.158 5.362z" fill="#868C96"/><path d="M124.211 74.59a.488.488 0 01-.815-.219l-1.292-4.918a.493.493 0 01.345-.594.486.486 0 01.594.345l1.293 4.916a.488.488 0 01-.125.47zm-1.228 2.266a.488.488 0 01-.806-.187c-.216-.642-.449-1.495-.684-2.345-.228-.831-.456-1.662-.669-2.289a.486.486 0 11.921-.312c.217.64.451 1.493.686 2.344.227.83.456 1.662.669 2.288a.492.492 0 01-.117.5zm-1.242 2.117a.483.483 0 01-.827-.298c-.023-.231-.103-.478-.19-.734a60.853 60.853 0 01-.562-1.745c-.159-.51-.318-1.026-.53-1.644a.488.488 0 01.922-.314c.211.628.376 1.154.536 1.67.166.537.329 1.066.551 1.707.104.319.209.627.238.97a.47.47 0 01-.138.388zm-1.209 2.072a.486.486 0 01-.18.11.484.484 0 01-.621-.289l-1.229-3.418a.494.494 0 01.296-.621.49.49 0 01.621.294l1.225 3.414a.49.49 0 01-.112.51zm-.922 2.237a.486.486 0 01-.776-.119 16.192 16.192 0 01-1.408-3.721.49.49 0 01.358-.586.487.487 0 01.586.358 15.076 15.076 0 001.327 3.499c.098.19.06.42-.087.57zm-1.347 2.183a.487.487 0 01-.802-.18c-.186-.525-.388-1.2-.587-1.877-.194-.654-.386-1.309-.572-1.821a.486.486 0 11.917-.326c.186.526.386 1.199.585 1.875.196.655.388 1.312.573 1.823a.485.485 0 01-.114.506zm-1.32 2.295a.489.489 0 01-.802-.182c-.164-.46-.327-1.106-.484-1.726-.152-.6-.306-1.217-.458-1.636a.494.494 0 01.295-.622.49.49 0 01.622.296c.163.46.327 1.106.484 1.727.152.6.306 1.217.458 1.636a.492.492 0 01-.115.507zm-1.05 2.095a.49.49 0 01-.808-.195l-1.056-3.237a.5.5 0 01.313-.611.49.49 0 01.613.313l1.055 3.237a.484.484 0 01-.117.493zm-19.952 36.753a.485.485 0 01-.454.125.48.48 0 01-.363-.579c1.091-4.703 3.111-8.139 5.843-12.487a.505.505 0 01.671-.151c.226.14.295.442.152.67-2.682 4.262-4.659 7.635-5.722 12.186a.48.48 0 01-.127.236z" fill="#868C96"/><path d="M83.335 164.628a.484.484 0 01-.532.101.483.483 0 01-.26-.633c12.505-29.641 19.37-62.304 19.853-94.461a.485.485 0 01.97.013c-.482 32.282-7.374 65.071-19.928 94.824a.471.471 0 01-.103.156z" fill="#868C96"/><path d="M99.314 110.607a.495.495 0 01-.32.14.484.484 0 01-.51-.461c-.398-8.073-1.139-9.866-2.615-13.433l-.29-.707a.486.486 0 01.898-.37l.292.705c1.518 3.674 2.28 5.515 2.685 13.757a.48.48 0 01-.14.369z" fill="#868C96"/><path d="M78.953 72.458l.009-.008-.01.008zm-7.93-23.854c2.246 7.915 4.474 15.467 8.368 23.645l.003.003c2.907 6.122 5.675 10.718 9.859 16.397 4.516 6.13 6.37 7.216 6.706 7.118.427-.431-.036-4.22-.998-7.935a79.01 79.01 0 00-5.668-15.192 79.964 79.964 0 00-8.636-13.734 78.307 78.307 0 00-5.323-6.132 97.056 97.056 0 00-4.312-4.17zM96.57 96.5a.708.708 0 01-.266.172c-.5.19-1.832.703-7.835-7.447-4.225-5.731-7.016-10.376-9.957-16.557-4.177-8.779-6.45-16.807-8.852-25.31-.057-.197.01-.429.192-.538a.482.482 0 01.562.004c1.35 1.007 4.523 4.14 5.62 5.276A80.702 80.702 0 0190.16 72.211a79.567 79.567 0 015.74 15.38c.616 2.37 1.84 7.738.671 8.909z" fill="#868C96"/><path d="M96.476 96.565a.49.49 0 01-.793-.152C88.67 80.172 80.3 61.653 69.736 47.503c-.162-.215-.099-.52.098-.68a.486.486 0 01.68.1C81.142 61.16 89.54 79.737 96.578 96.028a.49.49 0 01-.102.538z" fill="#868C96"/><path d="M93.357 89.973a.488.488 0 01-.53.105l-5.038-2.09a.49.49 0 01-.263-.635.485.485 0 01.636-.263l5.036 2.091a.487.487 0 01.16.792zm-1.044-2.516a.486.486 0 01-.459.127c-1.568-.382-3.085-1.07-4.549-1.737-.552-.253-1.101-.5-1.647-.732a.486.486 0 01-.26-.635.487.487 0 01.636-.258c.557.235 1.113.486 1.675.742 1.422.648 2.894 1.318 4.373 1.677a.486.486 0 01.231.816zm-1.23-2.499a.463.463 0 01-.492.107L84.21 82.64a.486.486 0 11.345-.906l6.35 2.409a.503.503 0 01.297.632.548.548 0 01-.118.182zm-.507-1.568a.491.491 0 01-.538.1l-7.427-3.23a.484.484 0 11.39-.887l7.427 3.228a.485.485 0 01.148.788zm-1.406-2.936a.485.485 0 01-.519.106l-7.074-2.705a.481.481 0 01-.282-.623.481.481 0 01.627-.282L89 79.658c.25.093.376.375.277.625a.493.493 0 01-.107.17zm-.941-1.827a.49.49 0 01-.547.1l-7.581-3.417a.483.483 0 01-.242-.642c.126-.238.396-.35.644-.242l7.583 3.417a.483.483 0 01.143.784zm-1.209-2.875a.488.488 0 01-.78-.56 16.556 16.556 0 001.595-5.15.496.496 0 01.55-.417c.266.039.45.284.416.549a17.775 17.775 0 01-1.688 5.451.47.47 0 01-.093.127zm-.784-1.632a.48.48 0 01-.504.113.484.484 0 01-.3-.615c.316-.913.535-1.783.745-2.628.215-.854.437-1.73.76-2.673a.492.492 0 01.617-.304c.254.09.39.364.303.616-.311.905-.528 1.763-.736 2.597-.217.865-.44 1.753-.772 2.71a.469.469 0 01-.113.184zm-1.203-2.598c-.12.12-.305.173-.484.12a.485.485 0 01-.327-.602 32.368 32.368 0 011.812-4.72.486.486 0 01.877.419 31.307 31.307 0 00-1.758 4.577.483.483 0 01-.12.206zm-1.09-2.388a.485.485 0 01-.806-.495l1.428-4.248a.483.483 0 01.612-.307c.255.084.394.36.309.611l-1.427 4.248a.497.497 0 01-.116.191zM82.8 67.087a.485.485 0 01-.82-.44c.24-1.21.677-2.163 1.145-3.17.145-.319.297-.645.445-.994a.489.489 0 01.639-.255c.246.107.36.391.255.64-.155.353-.308.687-.458 1.015-.459.994-.855 1.854-1.074 2.956a.499.499 0 01-.132.248zm-1.414-2.621a.487.487 0 01-.798-.517l1.34-3.524a.485.485 0 01.908.345l-1.34 3.524a.474.474 0 01-.11.172zm-1.018-1.801a.486.486 0 01-.807-.49l1.079-3.424c.08-.26.351-.4.608-.317a.481.481 0 01.317.606l-1.078 3.426a.47.47 0 01-.119.199zm-1.414-2.619a.492.492 0 01-.477.121.485.485 0 01-.336-.597l.795-2.846a.493.493 0 01.6-.334.487.487 0 01.336.599l-.796 2.844a.5.5 0 01-.122.213zM77.5 58.052a.487.487 0 01-.824-.432c.093-.487.215-.986.34-1.487.124-.494.244-.985.334-1.468a.495.495 0 01.568-.388c.263.05.435.301.386.566-.09.499-.216 1.011-.346 1.525-.12.48-.24.96-.325 1.43a.487.487 0 01-.134.254zm16.575 75.646a.487.487 0 01-.825-.275c-1.306-9.03-5.11-12.486-9.135-16.148l-.637-.582c-4.214-3.85-9.012-8.558-12.655-14.28-3.794-5.954-5.758-12.227-5.674-18.144a.489.489 0 01.494-.478.482.482 0 01.477.49c-.08 5.73 1.829 11.818 5.521 17.608 3.586 5.629 8.325 10.28 12.49 14.09l.64.579c4.159 3.781 8.084 7.351 9.44 16.726a.483.483 0 01-.136.414z" fill="#868C96"/><path d="M67.056 84.73c4.423 3.347 9.179 7.598 12.404 13.667 1.535 2.895 3.383 6.82 5.649 11.998.236.535 1.283 2.974 2.38 5.523a286.822 286.822 0 01-1.19-4.408c-.847-3.433-1.765-6.383-2.81-9.016-2.73-6.894-6.538-12.18-11.325-15.707-1.313-.972-3.346-1.876-5.108-2.058zm23.16 38.316a.467.467 0 01-.182.112.486.486 0 01-.609-.265s-4.675-10.901-5.207-12.11c-2.256-5.155-4.09-9.059-5.617-11.93-3.41-6.42-8.615-10.775-13.254-14.186a.49.49 0 01-.184-.505.497.497 0 01.392-.366c2.245-.375 5.315.828 7.186 2.21 4.935 3.638 8.853 9.066 11.651 16.132 1.06 2.674 1.996 5.666 2.85 9.145.35 1.426 3.071 11.189 3.1 11.289a.488.488 0 01-.125.474z" fill="#868C96"/><path d="M91.933 161.041c-22.456 0-43.196-10.205-56.9-28.001l1.06-.814c13.449 17.464 33.802 27.481 55.84 27.481 38.815 0 70.393-31.523 70.393-70.268 0-22.049-10.069-42.394-27.625-55.817l.813-1.059c17.89 13.678 28.149 34.408 28.149 56.876 0 39.481-32.177 71.602-71.73 71.602z" fill="#121218"/></svg>