<svg width="110" height="175" fill="none" xmlns="http://www.w3.org/2000/svg"><path d="M30.769 161.914c.068-.017.139-.057.205-.058-.041-.147-.108-.094-.205.058zm-1.897 1.327c.978.706 1.586-.841 1.897-1.327-.744.155-1.456.868-1.897 1.327zm2.739.206l.816-.312c-.376.212-.715-.244-.816.312zm-.462-1.23l.281.338.321-.337-.602-.001zm37.081-35.349l.224.28c.099-.187-.048-.25-.224-.28zm-5.269 6.23l-.204-.348c-.045.002-.082.015-.126.021.063.095.167.203.33.327zm8.29-7.486a3.368 3.368 0 00-.808-.216c.184.197.525.315.808.216zm-9.886 9.089c-.156.066-.274.141-.41.211.184.029.36-.02.41-.211zm-29.45 25.092c.23.088.427.108.61.088-.216-.142-.436-.275-.61-.088zm10.459-4.811a.23.23 0 00.112-.076.2.2 0 01-.112.076zm-8.528 3.578c-.474-.101-.648-.042-.737.082a.978.978 0 01.737-.082zm-1.29.822c.496-.191.415-.548.553-.74-.23.127-.424.369-.553.74zm5.677-5.175c.01-.117.079-.214.16-.307-.1.053-.169.137-.16.307zm1.439-.752c-.443-.156-.951-.433-1.321-.211.478.264.237.433.042.655.358-.178 1.225.2 1.28-.444zm12.018-8.527l-.034-.064-.154.116.188-.052zm-34.365 25.281c.067-.025.132-.07.2-.08-.057-.142-.119-.081-.2.08zm1.007 1.432l.771-.392c-.347.246-.735-.169-.771.392zm-.595-1.17l.316.306.281-.369-.597.063zm10.633-7.92a.245.245 0 00.106-.081.202.202 0 01-.106.081zm19.019-32.029l.073.005c.01-.009.02-.026.035-.036l-.108.031zM17.88 167.136c.457.126.078-.3.226-.483-.147.183-1.035.199-.226.483zm1.477-.422a.978.978 0 01.729-.144c-.481-.061-.651.013-.729.144zm1.812-4.15c.346.16 1.603-.602 1.228.537-.024.019-.048.037-.066.06.018-.011.038-.012.057-.022l-.002.008.002-.008c.232-.125.484-.174.747-.125-.41-.059-.61-.016-.73.078.054-.141.245-.518.705-.435-.843-.155-1.317-.555-1.941-.093zm-1.626 4.343c.076-.023.153-.072.227-.079-.035-.158-.11-.093-.227.079zm13.113-8.343a.322.322 0 00.127-.091.268.268 0 01-.127.091zm-11.967 5.032c.463.145.133-.324.32-.519-.187.195-1.132.196-.32.519zm.981.412c.553-.247.496-.627.661-.847-.258.156-.489.435-.66.847zm.755-4.642c.082-.014.166-.053.241-.055-.012-.164-.096-.103-.24.055zm-2.268.672c-.088.275.03.512.29.587.247.066.562-.008.821-.16.538-.3.928-.845 1.157-1.099-.428.07-.883.268-1.309.442-.42.19-.838.276-.96.23zm2.751 1.058c.309-.096.601-.203.894-.31-.389.076-.605-.24-.894.31zm.894-.309a.778.778 0 00.191-.066c-.062.023-.128.043-.191.066zm-.8-.701l.455-.379-.684.002.229.377zm1.038-3.062a1.3 1.3 0 00.66.049c-.22-.139-.448-.266-.66-.049zm-.235-.919c.464.148.14-.323.33-.521-.192.201-1.136.189-.33.521zm1.664-.457c.247-.161.527-.219.814-.178-.51-.052-.707.031-.814.178zm-.679.874c.565-.261.511-.647.679-.874-.263.166-.498.452-.68.874zM106.251 48.37c-.075-.003-.158.015-.227 0-.012.154.074.121.227 0zm2.016-.607a.93.93 0 00-.738-.08 1.813 1.813 0 00-.756.315c-.22.14-.404.262-.521.372.797.062 1.709-.101 2.327-.011.002-.295-.114-.483-.312-.596zm-2.075-1.174c-.423 0-.802.065-1.194.138.603-.165.669.378 1.194-.138zm-.854 1.23c.226.041.445.089.652.14l-.144-.416-.508.276zm-.681 2.491a1.224 1.224 0 00-.62-.096c.214.147.432.284.62.096zm.005 1.328c.159-.184 1.023-.056.262-.448-.438-.177-.109.275-.262.448zm-1.256-.118a1.047 1.047 0 01-.755.162c.493.05.668-.024.755-.162zm0 0c.235-.147.433-.402.571-.796-.512.227-.433.59-.571.796zm-85.579 85.803c.076-.036.153-.095.227-.112-.044-.159-.118-.082-.227.112zm0 0c-.82.355-1.613 1.337-2.1 1.965 1.088.546 1.754-1.337 2.1-1.965zm1.002-3.582c.486.097.125-.35.31-.576-.184.224-1.162.34-.31.576zm-16.093-8.55c.084-.023.17-.072.248-.082-.022-.166-.104-.094-.248.082zm-1.067 1.289c.471-.405.844-1 1.067-1.288-.873.252-1.845 1.039-2.504 1.466.414.433.972.235 1.437-.178zm1.703.398c.284-.125.576-.253.862-.384-.387.112-.642-.193-.862.384zm.862-.384a.738.738 0 00.18-.082c-.059.029-.121.054-.18.082zm-1.119-.991l.255.358.44-.425-.695.067zm14.113-17.956c.339-.05.806-.093 1.306-.129-.446-.158-.987-.634-1.306.129zm1.729-.161l-.423.032c.161.057.305.068.423-.032zM4.345 122.633c.25.064.473.053.682.001-.229-.127-.464-.242-.682-.001zm.095-1.498c-.198.22-1.177.28-.342.563.482.121.145-.348.342-.563zm1.38-.022c.258-.18.547-.258.842-.228-.526-.03-.73.069-.843.228z" fill="#F6F8FC"/><path d="M5.82 121.112c-.273.187-.517.501-.704.946.584-.304.528-.7.704-.946zm4.176-4.33s.334-.677.941-.576c-.91-.156-1.345-.601-2.161-.06.351.178 2.02-.764 1.22.636zm2.354-1.44c.034-.134.132-.251.244-.363a.438.438 0 00-.245.363zm1.794-.97c-.473-.144-.995-.419-1.464-.136.492.263.182.475-.085.743.443-.232 1.357.129 1.55-.607zm8.654-13.383c.084-.171.46-.712.074-.598l-.636.624c.22.22.432.013.562-.026zm3.988-4.819l1.177.504c.123-.035-.537-.702-1.177-.504zm2.008-1.922l.554-.03.626-.628-1.18.658zm-1.273 4.012c.31.136.558.21.77.255-.193-.187-.522-.317-.77-.255zM40.54 80.552l-.131.27c.083-.059.124-.158.132-.27zm5.495-7.721l.07.006c.01-.01.017-.025.032-.034l-.102.028zm-7.301 8.402l-.542-.383c.187.19.364.3.542.383zm2.521.264a.896.896 0 01-.245.114c.152-.017.225-.037.245-.114zm-2.976.456l-.092.195c.069-.03.096-.104.092-.195zm-8.833 11.156c.246.01.593.043.965.089-.393-.183-.968-.616-.965-.09zm8.471-9.856l.276.017-.02-.034c-.16-.099-.245-.096-.256.017zm3.338-1.756c.008-.005.023-.01.03-.016l-.014-.007c-.001.011-.012.011-.016.023zm-10.528 11.74c-.11-.015-.212-.026-.316-.039.143.065.258.097.316.039zm24.061-35.682c.11.037.202.052.285.066-.182-.104-.338-.158-.285-.066zm.232 1.294a.327.327 0 00.106-.22c-.072.028-.12.084-.105.22zM43.108 76.33c-.015-.076-.063-.159-.196-.265a.67.67 0 00.196.266zm-1.128.235l.063.01c.008-.005.011-.019.022-.025l-.085.015zM28.457 98.219c-.026-.092.007-.164.05-.233-.073.036-.108.1-.05.233zm3.256-9.143c.014-.115.145-.455-.117-.44l-.307.36c.234.206.336.088.424.08zm1.673-2.874l1.037.614c.085 0-.605-.635-1.037-.614zm1.708-1.286l-.715.248.414.093.301-.341zm19.457-24.817l.548-.481c-.475.352-.615-.178-.547.48zM31.438 91.7l-.56-.356c.199.178.381.28.56.356zm3.022-4.36l.061.016c.008-.005.011-.016.02-.021l-.082.005zm-8.553 11.965c-.006-.104.06-.42-.184-.395l-.227.338c.255.178.33.067.411.057zm2.172-2.199c.08-.007-.68-.558-1.085-.517l1.085.517zm1.761-2.659l-.484.149.17.191.313-.34zm31.757-41.96c.116.035.217.044.309.049-.17-.124-.331-.175-.31-.049zm-38.593 99.901c.03-.037.045-.075.087-.105-.136-.014-.142.03-.087.105zm-.084.387c.036.169.266.341.466.358.397.034.591-.128.74-.218-.787-.943-.707-.044-1.122-.527a.407.407 0 00-.084.387zm.896-.578c-.04.014-.08.026-.124.044.037-.015.08-.028.124-.044zm.079-.026c-.028.008-.052.018-.079.026l.08-.026zm.247-.06c.035-.007.078-.016.125-.024a8.756 8.756 0 00-.125.024zm-.452.13zm.578-.154c.091-.016.183-.033.286-.046-.121.018-.21.033-.286.046zm-.362.081zm-.433.091l.428-.091a.317.317 0 01-.02-.077c-.14.045-.278.101-.408.168zm.847-8.283c.22.005.535.025.882.053-.407-.134-1.05-.456-.882-.053zm1.173.08l-.291-.026c.146.049.257.071.291.026zm-2.837 7.032c.225.052.39.063.524.052-.241-.084-.481-.161-.524-.052zm.896-.716c-.42-.065-.528-.03-.535.043.11-.072.293-.086.535-.043zm-.598.476c.29-.11.05-.321.063-.433-.116.073-.148.216-.063.433zm1.939-2.96a.174.174 0 01-.017-.179c-.055.026-.07.075.017.179zm1.043 4.221c.036.011.06.011.104.027-.11-.072-.126-.066-.104-.027z" fill="#F6F8FC"/><path d="M25.42 152.213c1.073.517.584.028.516-.104-.412-.115-.485.016-.517.104zm2.333.822c-.128-.01-.62-.282-.364-.079l.364.079zm-.98-.554l-.407-.15.385.212.022-.062zm-1.119-1.187c.076.004.232.059.448.16-.374-.171-.459-.192-.448-.16zm.042.18c.224.045-.027-.131-.042-.18-.084-.004-.078.052.042.18zm-.789-4.565l-.058.098c.25.187.269.155.327.18-.038-.057-.096-.203-.27-.278zm5.881 4.155l-.044-.004.095.048-.051-.044zm12.455-72.879l-.17.366a.593.593 0 00.17-.366zM72.937 30.9c.121.014.226.002.322-.012-.188-.096-.358-.118-.322.012zm.072 1.65c-.095.075-.168.19-.192.409.1-.127.155-.268.192-.41zm-1.151 2.685l.822-1.026c-.69.78-.687-.037-.822 1.026z" fill="#F6F8FC"/><path d="M107.523 34.547c.322.756-.735.244-1.117.673-.308-.906.847-.303 1.117-.672zm-1.779 1.143c-.299-.591-.108-.566.177-.765.197.18.108.564-.177.765zm-.639-9.423c.153-.298.692-.578.939-.095l-.258.213c-.278.062-.489-.107-.681-.118zm-5.102 37.264l-.345.163c-.301-.005-.438-.244-.624-.305.278-.29.936-.445.969.142zm-2.588 9.82a.928.928 0 00-.13-.3c.238-.328.933.156 1.24-.122.083.751-.602.287-1.11.422zm-1.737 5.15a.55.55 0 01-.298-.092c.145-.13.27-.283.388-.446.132.041.233.154.252.368l-.342.17zm-2.564 9.78c-.015-1.055.955-.157 1.351-.501.064.881-.835.099-1.351.502zm-.817.39c-.108-.706.077-.643.427-.809.138.238-.077.642-.427.81zm-1.502 5.23l.045-.022.015.03-.06-.009zm-3.721 7.242a.592.592 0 01.033-.315c.052.004.098-.003.154.01l-.117-.065c.218-.255.891.229 1.166.003.136.796-.783.038-1.236.367zm-.736.294a2.156 2.156 0 01-.049-.248c.128-.14.27-.242.423-.307.03.209-.117.456-.374.555zm-9.108 11.677c.042-.21-.022-.322-.128-.395.004-.011.011-.018.016-.029.29.201.506-.225.876-.014.015.416-.824.741-.764.438zm-.386 1.314c.623-.088-.18-.891.912-.538.493.903-.455.562-.912.538zm-6.877 8.74c.887-.034-.261-1.425.841-.714-.212.077-.317.116-.349.265.355.15 1.026.182.96.484-.462-.106-.952.34-1.452-.035zm.128 1.776c-.012.093-.055.166-.19.177l.19-.177c.031-.239-.185-.6.303-.276l-.303.276zm-12.44 12.953l.088-.328c-.1-.561-.97-1.393.28-1.004l-.28 1.004c.026.129.009.246-.088.328zm-2.07-1.411c-.709.075-.12.444-.202.738l-.333-.435c.106-.101.217-.209.32-.32.567-.044 1.014.162 1.902.321-.14.857-1.315.127-1.686-.304zm-2.124 6.169l-.403-.009c.153-.758.203-.256.403.009l.479.007c-.229.208-.373.129-.48-.007zm.108-1.782c.366.435-.3 1.036-.688 1.013.194-.328.727-1.16.688-1.013zm-1.099-1.449a5.42 5.42 0 00.253-.127.892.892 0 01.167.153c-.205.06-.323.027-.42-.026zm-4.715 5.114c-.066-.012-.129-.014-.194-.022.093-.027.181-.062.277-.082-1.009.175-.674-.924-1.209-.898.473.15.909.132 1.318.02.35.337-.067.835-.192.982zm-.631 3.664c-.385-.032-1.42.11-1.56-.393.535-.368 1.138-1.442 1.11-2.112-.082-.111-.125-.22-.068-.315a.699.699 0 01.069.315c.101.13.264.256.426.335a.524.524 0 01.377.056c-.053.064-.21.029-.377-.056-.288.065-.463.394-.403.669.341.176.54-.147.821-.088.282 1.003-2.523.139-.395 1.589zm-4.016.78c-.321.58-.977.865-1.676 1.072.265-.566.432-1.106.79-.77.03-.171-.018-.359-.082-.543.368-.309.683-.697.95-1.075l-.04-.038c.062-.034.125-.066.187-.101.574.003 1.168.014 1.71.043.642 1.446-1.765.857-2.609 1.344.168.089.432-.112.77.068zm-.556 1.753l.08-.558.182.357-.263.201zm-1.906.49c-.072-.252-.286.015-.385-.21a.867.867 0 00.271-.01.71.71 0 01.183.189c-.027.007-.045.021-.069.031zm-.892.788c.15-.106.296-.213.434-.317-.114.195-.218.357-.434.317zm-18.477 13.288a.925.925 0 01.383-.301c.027.035.068.066.09.102.04-.048.088-.097.135-.145.07.003.14.019.21.056.13.159.167.296.15.42-.383.024-.694-.057-.968-.132zm4.34-4.181c-.026-.006-.051-.016-.076-.025.15-.115.314-.22.493-.314-.213.365-.467.7-.772.999-.329-.031-.599-.122-.836-.188.386-.126 1.163.133 1.19-.472zm1.33-.083c-.006-.01-.012-.013-.019-.021.282-.052.535-.167.775-.296-.093.262-.436.306-.756.317zm.039.046c.207-.046.42-.044.653.177.001.041-.01.065-.012.1-.194.076-.38.064-.641-.277zm-4.329 3.335c.254-.117.533-.189.821-.199-.197.228-.449.364-.826.206l.005-.007zm3.452-5.885a.51.51 0 01.27.082c-.094-.029-.183-.058-.27-.082zm3.71-3.35c-.02.299.177.555.37.615.007.136-.077.255-.162.355-.627.102-1.437.087-1.858.34.17.086.43-.12.772.055-.06.117-.15.21-.235.305-.072.019-.145.027-.212.069.04.022.07.042.1.063-.275.25-.63.427-1.013.57.085-.122.165-.264.243-.441l-.423-.004c.175-1.28 1.822-1.229 2.419-1.927zm-1.092-3.274l.499.273c-.173.095-.341.192-.511.288-.055-.206.204-.234.012-.561zm.598.218a1.069 1.069 0 00-.066.037l-.29-.191c-.106-.138.11-.004.356.154zm-1.25-.871c.711.314.574-.005 1.635.659-.091.05-.183.101-.275.15-.14-.101-.25-.184-.165-.161-.69-.415-.323-.035-1.195-.648zm-.441.704l-.256-.189c-.82-.281-1.918-1.019-1.728-.672.617.442.538.311 1.349.782-.345-.145.47.484-.415.037l-.012-.143c-.27-.057-.304.014-.616-.094.178.093.36.19.44.214-.29-.087-.278.013-.806-.234a.263.263 0 00.017-.125c.142.065.26.115.349.145a4.569 4.569 0 00-.356-.172c-.006-.047-.004-.084-.029-.145l-.323-.036c-.426-.54.335-.535.703-.677.021.021.047.035.066.06 0 0-.041-.048-.034-.074l.006-.002c.014-.02.08-.014.29.092-.083-.04-.154-.08-.233-.12.04-.026.072-.054.085-.089.142.173.465.347.637.379-.027-.069-.035-.129-.05-.193.252.108.772.393.516.158-.178-.101-.378-.216-.554-.313-.009-.075-.002-.145.002-.214.34.259-.21.046.654.461.294.525-.825.173-1.593.08.33.178.596.338.806.476.038-.092.417-.034 1.18.376.512.383-.8-.317-.49-.106.279.132.304.073.836.397.559.43-.311-.047-.441-.059zm-4.12-2.358a1.79 1.79 0 00.046-.337c.287.107.53.22.709.343.128-.29.656-.553 1.509-.327.159.152.096.206-.035.225a.634.634 0 00-.173-.033l.052.042c-.287-.001-.694-.08-.514.047.218.026.335-.044.56-.014.22.166.319.174.495.245.258.377-.547.141-.723.25l-.24-.228c-.634.1-1.288-.166-1.685-.213zm-.006-1.532c.198.029.368.125.439.42 0 0-.12-.343.38-.242-.31-.063-.58-.14-.819-.2-.036-.69.006-1.342.578-1.634l-.373-.097c.86-.433.071-.93-.077-1.251.136-.037.268-.066.373-.102l-.288-.123c.103-.051.282-.089.593-.104.009-.38-.433-.409-.651-.59-.002-.168-.027-.338-.037-.491.115-.108.345.128.43.215.406-.356.205-.563.11-.73a3.2 3.2 0 01.64.143l-.356-.14c.022-.11.033-.242.053-.373.052-.018.083-.034.149-.051l-.134-.045c.05-.264.162-.495.487-.524a.43.43 0 01.184.094l-.092.305c.094-.012.189-.05.292-.084-.166.357-.357.767.266 1.03-.534-.568-.139-.712.069-.895l-.029.039c.238.061.357.028.427-.044.063.047.13.103.201.176l-.052.492c.031.011.048.023.075.034l.668.731c-.89-.174-2.31-1.101-2.38-.546l.671.195c.18.226.222.334.19.378.558.054 1.183.131 1.747.22.29.244.36.388.297.47l-.039-.055c.019.028.021.038.033.058a.14.14 0 01-.05.042c-.176-.139-.561-.508-.726-.546l.54.415c.047.147-.06.089-.458-.209l.482.381c-.25.034-.651 0-.999-.008l-.118-.098c.04.038.075.065.113.098-.241-.004-.456.007-.567.066.15.058.266-.002.514.065.033.03.07.064.105.099-.11.635-1.82.447-2.244.773.463.479.566-.169 1.35.359-.077.01-.117.041-.143.077a1.975 1.975 0 00-.245-.143l.232.165c-.097.184.142.529-.5.259 1.158.472-.197.564 1.068.663.006.105-.015.198-.036.291-.194-.063-.214-.043-.27-.023-.404-.119-.868-.276-1.044-.166.501.183.389.275.34.4.092-.043.325-.008.523.004.015.034.087.108.227.23-.43.52-1.317.835-2.068 1.201.003-.338-.03-.709-.05-1.074zm-1.365 1.543c-.011-.017-.02-.037-.035-.05l.077-.092c-.006.062-.015.119-.042.142zm-1.858 1.826c.003-.024.01-.045.015-.068.18-.056.359-.112.538-.172-.046.191-.207.312-.553.24zm-1.355 1.37c-.848-.238-.39-.358-.777-.87.097.227.883.187.92-.208l.004.007.043-.014.725.552c-.568-.253-.825.479-.915.533zm-1.559 4.925c-.565-.104-.103-.233-.395-.504l.719-.58c.964.606-.345.652-.324 1.084zm2.026-22.086c.026.017.059.026.09.037a4.45 4.45 0 01-.153.131c.017-.055.038-.112.063-.168zm1.553-5.766l.361-.191c.14-.003.24.046.328.103l-.61.341a.451.451 0 01-.079-.253zm-4.93 1.278c-.189-.305-.784-.525-.821-.691.397.181.582.091.7-.077l.152-.103c.063.057.127.131.19.228l-.22.643zm-3.86-4.051l.271-.033c.255.084.4.3.563.396-.2.142-.728.092-.834-.363zm1.275-6.708c.15.798-.782-.13-1.07.024-.171-.677.689.145 1.07-.024zm-.378-2.193c.395-.381.794-.78 1.178-1.216l.273.23c-.613.297-.721 1.208-1.45.986zm-.562-1.61l.554-.454.27.782-.824-.328zm3.291-2.427l.267.196-.006.001.084.06-.365-.047c-.037-.054-.075-.098-.111-.175.044-.009.087-.023.131-.035zm11.636-15.448l-.219.31c.002-.057.024-.244.219-.31zm2.3-1.261a.446.446 0 01-.018-.16c.036.004.067.008.109.011-.013.054-.043.1-.06.151l-.032-.002zm1.609-3.215c-.046-.149-.062-.317-.095-.454.151.244.165.38.095.454zm2.138-4.056c-.009-.047-.009-.086-.01-.124l.075.033a.213.213 0 010 .037c-.022.017-.046.034-.065.054zm1.906-1.465c.231.118.424.203.593.263a1.994 1.994 0 01-.564.359c-.332-.329-.57-.626-.03-.622zm.067-1.329a.547.547 0 01-.146.04 1.577 1.577 0 00-.142-.08l.288.04zm.291-.7c.02-.007.04-.002.057-.004a.21.21 0 01-.007.075l-.05-.072zm.556-1.274a.186.186 0 01-.072.097v-.001l.072-.096zm.344-.809c.1.063.176.107.246.142l-.177.022c-.027-.053-.054-.103-.069-.164zm.99-.145c.05.188-.138.217-.348.16.01-.068.028-.13.091-.161a2.84 2.84 0 00-.303-.146c.07-.169.3-.225.56.147zm.528-.474l.222-.25c.008.157-.08.227-.222.25zm4.632-5.248l-.048.011c.012-.005.017-.016.036-.016a.03.03 0 01.012.005zm.137-.782c.126.052.218.077.322.114 0 .037.007.072.002.106l.027-.053c-.003.137.144.243.325.345-.115.082-.164.194-.095.343.156.256.307.402.458.5a2.142 2.142 0 01-.173.1.961.961 0 00.205-.08l.08.047a1.431 1.431 0 01-.103.081l-.153.05c-.084-.03-.17-.065-.251-.084.287-.293-1.765-1.367-.644-1.47zm5.22-6.618l.06.002a.463.463 0 01-.063.033l.003-.035zm4.535-5.6c-.04.214-.132.4-.147.574-.062.018-.124.033-.182.05-.262-.377-.33-.904.329-.624zm1.37-4.572c.672.243.757-.005.845-.304l.079.028c.22.616-.248.714-.787.767a.74.74 0 01-.137-.491zm1.242.434c.527.205.1.2.378.471l-.315.135c-.206-.098-.45-.155-.673-.227.001-.204.629-.135.61-.379zm.654-4.375c.248-.066.861.094.64-.297-.177-.062-.275-.15-.338-.015l.035-.352c.952.093 1.021.536 1.104.985.118.078.232.171.341.308.053.093-.11.063-.236.057a.753.753 0 00.194.298l-.182-.063c-.246-.222-.148-.242-.012-.235a2.16 2.16 0 01-.105-.365c-.526-.357-1.08-.235-1.44-.32zm3.955-1.107a1.168 1.168 0 01-.182.171c-.24-.043-.428-.191-.599-.245.132-.143.531-.18.78.075zm4.498-8.75c.015-.174.01-.407.207-.52.06-.008.105-.003.151-.001-.143.14-.255.328-.358.52zm7.867-9.95c.573.118.055.287.302.617l-.901.737c-.88-.736.517-.816.6-1.354zm2.127-7.561c.31-.22.994-.212.843-.775-.193-.028-.284-.132-.398.122l.143-.607c1.103-.253 1.057.462 1.028 1.18a.89.89 0 01.316.368c.037.134-.146.155-.297.199.02.162.059.311.148.416l-.197-.026c-.229-.269-.11-.345.05-.39a3.808 3.808 0 01-.02-.568c-.52-.375-1.217.07-1.616.08zm5.015-3.454l-.303.24c-.3.063-.483-.14-.679-.158.22-.338.803-.656.982-.082zm.12-5.644c-.183-.348.195-.27.475-.133.318.334.09.626-.234.77-.083-.186-.176-.364-.308-.478l.345-.022c-.19-.037-.285.017-.278-.137zm4.502 4.32l-.29.175c-.287.018-.469-.179-.658-.218.2-.274.78-.471.948.043zm16.476 3.419l.004.004c.018.068.024.129.033.192-.194.027-.769-.138-.94-.021-.492-.519.73-.025.903-.175zm1.549-.272c.089.136.1.227.08.298-.057.007-.101.038-.136.145l.043-.445.013.002zm-.794 6.962l.025-.048a1.651 1.651 0 00-.434-.125l-.295-.498c-.521.209-.626.399-.491.45-.14-.031-.282-.059-.414-.088-.16-.15-.242-.258-.278-.34a6.12 6.12 0 00.405-.205c.452.023 1.127.165 1.365.064-.167-.08-.29.01-.628-.15.018-.402.625-.447 1.22-.469.198.695.412 1.35-.475 1.409zm-2.537 15.8c.612-.189-.292-.88.843-.693.607.844-.383.646-.843.693zm-1.446 4.667l-.022-.036.026.008-.004.028zM71.998 118.03c.038-.027.076-.055.117-.082a.828.828 0 00.084.077c-.008.027-.019.052-.026.077l-.175-.072zM45.81 143.794c-.003-.047-.148.033-.35.082l.112-.157a6.24 6.24 0 01.8-.615c-.04.27-.295.542-.562.69zm-.084.935l-.196.002c.238-.759.25-.368.39-.081-.066.026-.132.05-.194.079zm-12.444 7.25c.21-.236.412-.487.608-.753.086.188.012.397-.093.567a1.964 1.964 0 00-.515.186zm-.817 1.188c-.051-.088-.078-.174-.032-.25.036.067.043.155.05.242l-.018.008zm.805-1.178c.1.043.242-.002.407-.023a3.177 3.177 0 01-.09.11c-.121-.023-.237-.032-.354-.044l.037-.043zm-1.41-.711l.065.034c-.022-.012-.039-.027-.059-.04l.393-.322.29.766-.813-.336.125-.102zm-1.125.062c-.07-.062-.147-.127-.23-.197.043-.044.086-.072.13-.112.04.013.076.023.11.029l-.092-.045.025-.022.067.034.044.037c.198.02.25-.09.484-.043a20.06 20.06 0 01-.538.319zm-1.546-.592l.274.193c-.085-.05-.21-.119-.345-.194.027-.003.047.002.071.001zm-1.624.583l.618.433-.703-.397.085-.036zm.24-.805l-.07.005-.23-.234.3.229zm-.926-.858l.105-.219c.253.134.508.273.75.408.977.792-.293.052-.855-.189zm-.013.028c.082.038.181.084.358.197.066.142-.147.096-.44-.005.027-.064.053-.129.082-.192zm-1.027-1.316l.619.447-.466-.146a4.528 4.528 0 00-.266-.159l.113-.142zm1.225.878l.43.387a12.002 12.002 0 01-.47-.292c.015-.031.027-.064.04-.095zm.406-.474c.724.483.657.596.642.627a9.481 9.481 0 00-.937-.531c.015-.086.017-.18.016-.275l.28.179zm-1.627-6.33l-.026.032a.25.25 0 00.013-.036.066.066 0 00.013.004zm-5.463-6.108c.014-.008.033-.009.046-.019.04.154.029.24-.002.302a.753.753 0 00-.051.069c-.104.057-.293.009-.49-.045.162-.111.331-.229.496-.307zm-.602-.001a.966.966 0 00-.161.182 3.04 3.04 0 01.21-.171c.008.001.017.003.027.003l-.151.247c-.161-.038-.31-.059-.393.011-.138-.413.138-.344.468-.272zm-1.466-5.659c.019-.239.138-.293.274-.308 0 .165-.018.324-.058.476a.592.592 0 01-.216-.168zm-.076-2.131l.03.142c-.12-.06-.21-.116-.23-.176.08.026.137.026.2.034zm.309 1.357l-.08-.015a.66.66 0 00.082.03c.018.105.028.211.034.315a1.354 1.354 0 01-.312-.165c-.264-.33-.085-.518.193-.577.032.136.062.274.083.412zm-3.968-13.167l-.148.021.049-.062.1.041zm.326-.582l.478.084c-.15.133-.424.158-.688.182.07-.09.143-.172.21-.266zm8.905-11.347c-.016-.006-.025-.003-.04-.007.004-.014.006-.029.014-.042.005.02.02.027.026.049zm1.23-1.544l.007.003.035.155c-.024.001-.05.002-.076.006.013-.054.023-.11.034-.164zm.51-.597c.006.014.005.018.011.031-.207-.067-.397-.107-.472.01 0-.064 0-.128-.005-.203l.465.162zm1.017-2.527l.133.061c-.194.018-.366.05-.513.105a.754.754 0 01.38-.166zm19.073-24.756a.314.314 0 00-.116.169c.083.05.156.089.22.12l-.022.103-.43-.48.348.088zm2.581-3.434c-.003-.01.002-.02 0-.032.07.07.131.143.179.21-.105.002-.212.002-.314.005l.021-.298c.039.038.059.067.114.115zm.21-.622c.057-.003.117-.005.17-.012 0 .259.044.648-.379.53.029-.157.177-.326.209-.518zm5.485-6.325c.1.05.183.09.248.13-.297.114-.258.289-.16.502-.127.016-.221.069-.215.187l-.715-.625c.529.327.757-.175.842-.194zm26.411-42.595c-.6-.044-.736.316-.83.701-.186-.162-.321-.316-.01-.703a3.12 3.12 0 00.578-.143c.133.038.24.078.262.145zm5.994 1.795l.008.048c-.147.001-.232.02-.267.055a1.343 1.343 0 01-.01-.146c.1.014.19.029.269.043zm10.465-1.888c-.047-.01-.084-.036-.128-.053.105.01.21.015.317.018l-.189.035zm2.31 6.506c-.412-.353-.23-.313-.012-.374.224.123.23.31.013.374zm1.246.776a.765.765 0 01.147-.325c-.04.113-.088.221-.147.325zm.832.181c-.029-.016-.048-.02-.081-.04-.023-.028-.028-.043-.043-.067h.002-.003c-.162-.236-.038-.273.159-.255.007.127.001.25-.034.362zm1.921-1.266c.07.18.096.396.124.615.125.065.246.153.361.307.011.02.006.036.001.052a2.258 2.258 0 00-.314-.136c-.016-.075-.037-.145-.048-.223a.956.956 0 00-.438-.113c.087-.141-.129-.59.314-.502zm-1.503 4.632c.004.04.011.08.019.121-.046-.028-.087-.05-.137-.089a.237.237 0 00.118-.032zm.21-.756a.675.675 0 00-.127.163.165.165 0 01-.007-.147.346.346 0 01.134-.016zm-2.897 2.464l-.23.052a4.08 4.08 0 01.324-.183c-.036.04-.071.076-.094.131zm.222 1.055c-.03-.034-.064-.066-.089-.103a2.899 2.899 0 00-.464-.279.528.528 0 01-.13-.022l.067-.004c.023.01.038.014.063.026a.16.16 0 00.119-.04h.006a.008.008 0 00-.004-.003c.063-.063.039-.189-.07-.319a.708.708 0 00-.2-.068 1.62 1.62 0 01.25-.191.447.447 0 01.219.003 1.09 1.09 0 00.144.897.86.86 0 01.114.101l-.025.002zm1.355-.535l.007.058a.794.794 0 01-.134.286l-.489-.582c.187.05.401.14.616.238zm-.386-.398c.007-.136.187-.111.372-.085.017.06.02.115.028.17l-.4-.085zm-1.48 13.743l-.022.316c.448.498.589-.19 1.056-.006.068.42-.729.882-.708.565.053-.792-1.039-.16-1.1-.728l-.117.364c-.327-.867.862-.036.892-.51zM66.78 123.276a.875.875 0 01.183-.161.263.263 0 01-.162.161h-.021zm-13.924 14.566l-.1-.036a.025.025 0 00.01-.009l.09.045zm-1.558.672a.334.334 0 01.142-.032l-.005.016-.137.016zm-20.171 12.18l.035-.017c.126.084.233.151.328.206a2.2 2.2 0 00-.082.053c-.1-.085-.195-.165-.282-.242zm-.126.072l.227.145c-.042.006-.136-.062-.236-.141.002-.002.005-.003.009-.004zm-.559.12l-.03-.027.04.02a.06.06 0 00-.01.007zm-.445-.162c.155.089.275.152.38.202l-.073.05a47.458 47.458 0 01-.307-.252zm.67.634c0-.003.01.002.01.001l.014.007-.016.008c-.001-.004-.009-.013-.009-.016h.001zm-2.435-1.583c-.009.03-.022.061-.03.092a2.02 2.02 0 00-.244-.292c-.107-.083-.188-.152-.195-.178.073.061.136.12.195.178.08.063.179.131.274.2zm-.708-1.36c-.054-.273.223-.145.506-.002.055.157-.094.158-.306.108l-.2-.106zm-.68-2.486l-.118.103-.184-.336.301.233zm.677 1.853c-.175.055-.288.126-.829-.236a1.39 1.39 0 00.332-.048l.497.284zm2.323-1.593l.58.501c-.957-.71-.036.365-.818-.152-.024-.016-.053-.04-.078-.06.094-.103.198-.2.316-.289zm-1.707-1.872c.065.09-.02.062-.161-.02.016-.035.022-.077.033-.119.043.047.086.098.128.139a1.396 1.396 0 00-.127-.143c.014-.062.032-.12.034-.19.124.09.245.177.358.256-.242.021-.252.113.839.641-.105-.019-.263-.038-.434-.061-.257-.182-.467-.313-.67-.503zm-.106-1.694c-.34-.296-.172-.418.105-.419.114.12.131.234.115.322l-.086-.021c.038.016.056.021.085.031-.011.057-.035.102-.047.127-.057-.015-.108-.023-.163-.035a.103.103 0 00-.009-.005zm-7.182-20.626c.045-.051.1-.094.126-.171-.032-.017-.056-.026-.084-.04l.111-.18c.002.005.008.009.01.014.013-.018.031-.033.045-.05.061.027.12.046.181.068a.703.703 0 00-.034.228l.208-.173c.05.014.094.016.139.019-.037.077-.08.158-.112.234a2.53 2.53 0 01-.59.051zm15.307-35.01c.093.048.148.174.168.336l-.244-.032c-.018-.14.017-.234.076-.304zM84.8 27.084l.122.025c0 .139 0 .29-.04.435-.173-.083-.294-.212-.082-.46zm1.543-1.97a3.979 3.979 0 01-.157-.346l.233.018c.015.136.001.251-.076.327zm.637-.05c.013.052-.025.09-.094.115-.003-.024 0-.045-.01-.074-.182-.059-.268-.161-.374.025l.09-.33.057.006c.168.086.255.15.3.205l-.073-.001c.036.022.069.036.104.055zm13.359 6.697a1.366 1.366 0 00-.57.086c.017-.115.18-.18.371-.228a2.9 2.9 0 01.199.142zm.476-1.155c-.018.01-.029.024-.04.035l-.121-.1.161.065zm-1.67 11.37l-.046-.044-.1.111c-.116.07-.203.172-.206.315l-.251-.206c.025-.046.02-.114-.031-.217.016.07-.017.115-.07.134l-.395-.323c.24.112.432.029.58-.107l.834-.06c-.267-.137-.472-.104-.669-.12.064-.088.116-.17.155-.23l.11-.002c.132.134.262.223.438.177-.023-.022-.05-.06-.077-.092.26.168.053.347.334.762-.051-.144-.353-.178-.605-.098zm-60.247 107.29a.426.426 0 01.203-.022.579.579 0 01.002.157.649.649 0 01-.352.097c.037-.063.09-.144.147-.232zm-7.044 1.385l-.11-.086c.074-.002.15.002.227.007l-.117.079zm-.164-.082l.149.092-.05.031-.15-.12.05-.003zm-.943-.181c.037.029.066.047.102.072v.007c-.034-.027-.07-.056-.102-.079zm.03.203l-.016.023-.106-.068c-.198-.247-.065-.121.122.045zm-.594-.702c.43.362.274.384.014.217-.023-.082-.055-.272-.014-.217zm-.98-1.554c.38.212.753.501 1.412.978l-.048.057a17.159 17.159 0 01-1.02-.819c-.423-.262.115.171.189.282l-.538-.478.006-.02zm-.46 1.895c.056.021.102.033.203.098.324.28-.029.093-.248-.012.019-.025.029-.06.045-.086zm-.917-2.473a.652.652 0 00-.228.008l-.237-.137c-.25-.294.065-.141.465.129zm.07-.029l.088.067a.15.15 0 01-.024-.007l-.082-.059.017-.001-.109-.084.385.081-.276.003zm.158.13c.001-.003.003-.003.005-.006l.32.245-.325-.239zm.012.07c.062.046.125.092.184.14l-.08-.04a.589.589 0 01-.104-.1zm.436.542c.004-.002.003-.004.006-.005.073.045.151.095.244.163l-.018.027c-.084-.067-.159-.13-.232-.185zm2.346-1.448a12.22 12.22 0 00-.34-.268c-.007-.022-.009-.046-.014-.069.102.095.215.202.354.337zm-2.161-3.087a.392.392 0 01.195.003c.123.123.128.194.073.235-.092-.079-.179-.159-.268-.238zm-1.002-3.31c-.55-.693.18-.608.484-.653l-.52-.215c.09-.097.031-.256-.054-.419l.587.054-.21.182c.244.201.48.234.705.173.395.726-.021 1.03-.556 1.252.025-.104.079-.186.239-.182l-.675-.192zm-5.933-19.312l-.316-.132c.059-.054.116-.108.179-.162a.801.801 0 01.28.082c-.045.07-.103.143-.143.212zm-2.843 3.979c-.058-.301-.055-.531.373-.478a1.854 1.854 0 01-.373.478zm-.277-.405c.064.026.117.024.174-.063l-.123.408a2.18 2.18 0 01-.26-.055l.209-.29zm-.753-.042c.176-.099.316-.261.414-.513.338.085.676.069.906.137-.276.074-.89-.129-.75.33l.028.013c-.113.09-.221.177-.328.266a.716.716 0 01-.27-.233zm67.756-94.949c.103.495.166.937-.257 1.031.042-.338.102-.677.257-1.03zm.769-2.104c.232.555-.06.584-.457.525.17-.137.385-.229.517-.236-.846-.262-.995.582-1.323-.288.343-.112-.006-.133-.254-.247.343-.172 1.135.416 1.517.247zm10.155 32.15l.012-.023c.181.072.34.136.342.237a.922.922 0 00-.348.002.928.928 0 00-.006-.217zm-1.402 4.996l.053-.126c.287-.018.49.016.63.086a1.1 1.1 0 00-.683.04zM91.91 72.69c.13-.221.287-.44.474-.65.163-.005.315.007.44.077-.091.385-.327.63-.914.573zm-53.5 71.014l.023-.012-.002.009-.022.003zm-5.43 6.053v-.014a.034.034 0 00.009.004l-.009.01zm-2.074-.222l.024-.063.205.151.157.234-.024.023c-.115-.111-.25-.239-.362-.345zm.183-2.814l-.011.013a5.42 5.42 0 01-.112-.103c-.195-.153.015.087-.178-.066-.233-.293.043-.056.301.156zm-.45-.813c.122.096.297.252.552.509-.7-.629-.584-.385-.63-.351a1.35 1.35 0 01.078-.158zm-.24-.09c.013-.01.029-.018.043-.027a.27.27 0 01.096.046 1.64 1.64 0 01-.117.083.216.216 0 01-.022-.102zm-10.522-22.123c.05.031.097.056.15.099-.017.004-.032.022-.05.03a.88.88 0 01-.1-.129zm3.061-16.131a1.3 1.3 0 00.1.231.858.858 0 00-.058.102 1.458 1.458 0 01-.111-.038 5.54 5.54 0 01.07-.295zm62.865-79.09c-.013.007-.02.02-.034.03.008-.012.014-.022.022-.03h.012zM96.491 44.18l-.011-.006c.097.01.194.01.292-.003.338.04.65.06 1.006.215a.484.484 0 01-.188.17c-.31-.093-.678-.229-1.1-.376zm-.934 18.769a1.722 1.722 0 01-.283.177c.026-.039.045-.077.086-.122a.495.495 0 01.197-.055zm-4.428 8.342a1.844 1.844 0 01-.056-.336c.045-.036.09-.07.126-.105-.017.068-.035.135-.058.233l.38-.39c.02.214-.134.474-.392.598zm-52.892 71.401c0-.036.005-.062-.004-.108l-.54-.077c.179.068.27.039.258.171.025.051.018.073.021.103l-.19.063a1.335 1.335 0 01-.287-.143c-.04-.05-.063-.095-.086-.139a.273.273 0 00.171-.065l-.195.013c-.082-.237.111-.377.367-.426v.002l-.093.042.06.11a.562.562 0 01-.139.259c.221-.014.455-.021.685-.031.102.036.193.078.264.129l-.292.097zm-.637.435c.344-.08.653-.175.753.293a.718.718 0 01.074.203c-.327-.089-.656-.02-.883-.297a.437.437 0 01.056-.199zm.12.971l-.002.002a.58.58 0 00-.196.079c-.006-.005-.008-.013-.013-.018l.154-.079c.019.008.038.005.058.016zm-1.791 1.163c.012.012.016.018.026.03-.03.011-.061.021-.091.033-.18-.218-.074-.14.065-.063zm-4.565 1.674c.01-.006.024-.008.062.006.015.036-.017.022-.062-.006-.033.015-.004.06-.24-.158l.016-.014c.088.072.17.137.224.172zm-3.912-8.433c.02.005.047.007.067.012-.021.004-.049.003-.076.003a.106.106 0 00.009-.015zm-.27.521l.07-.146-.005.164-.065-.018zm-4.099-20.42c.037-.074.075-.143.11-.218l.058-.024c.058.017.117.034.175.053a9.072 9.072 0 01-.216.222 3.192 3.192 0 00-.127-.033zm-2.596 2.743a.707.707 0 01-.253.098c.013-.116.106-.136.253-.098zm77.004-78.45a2.483 2.483 0 01-.201-.18l.24.03c-.011.05-.025.1-.04.15zm-.03.056l.014.002-.002.01-.012-.012zm-59.66 98.258a2.98 2.98 0 01.095-.099c.267-.092.522-.052.698.369l-.005.01c-.276-.145-.538-.257-.788-.28zm-.57 3.173c-.093.02-.19.054-.287.083-.003-.004-.006-.01-.01-.013l.19-.098a.284.284 0 00.106.028zm-.348 1.652a.554.554 0 01-.03-.023l.016-.055.059.043-.045.035zm-3.268 2.582h.137c.009.006.015.013.024.02-.01.011-.012.021-.024.033l.058-.005.074.063c-.013.019-.03.036-.043.056a3.069 3.069 0 01-.226-.167zm-.168-.334a.87.87 0 01-.042.046c-.128-.16-.288-.339.042-.046zm-.248-1.285c-.075-.005-1.148-.841-.044.168l-.42-.367-.035-.06-.318-.191c-.486-.601.603.323.817.45zm-.727-3.04l-.57-.568.016-.002c.331.282.373.194.422.222.465.412.446.421.536.544a.226.226 0 01-.017.035c-.205-.173-.458-.352-.387-.231zm-.797-.046c-.097-.091-.186-.187-.279-.282.004-.006.005-.015.009-.022l-.013.017c-.055-.055-.11-.109-.162-.163.039-.018.079-.036.114-.056l.141.112a.456.456 0 00-.08.09c.036-.027.08-.037.117-.06.195.149.397.303.693.597l-.022.014c-.168-.086-.664-.5-.518-.247zm-3.535-5.818a1.423 1.423 0 01-.203-.176l.006-.004c.331.118.356.031.314-.125l.008.002a.869.869 0 00.184.16l-.143.113c-.073.003-.137.008-.166.03zM87.9 26.154c.004.008.009.012.012.02.002.004-.002.006-.001.01-.029-.008-.059-.015-.092-.027a.95.95 0 00.08-.003zm-.135-.192c-.04-.002-.074 0-.08.034l-.067-.15.046.02c.034.03.068.06.101.096zm-41.69 108.431c.521-.53.97-.917 1.504-1.334l.003-.001c.066.04.134.075.198.129l-.013.047c-.482.059-.731.336-.39.81-.15.218-.326.417-.522.601-.254-.14-.514-.252-.78-.252zM34.35 146.938c-.094-.154-.289-.318-.484-.48.02-.008.041-.012.064-.018l.051.091c.247.257.332.306.422.357-.019.017-.037.032-.053.05zm-.849-.812c-.025-.028-.06-.057-.08-.084l.014.085c-.215-.257-.09-.161.087-.011l-.02.01zm-1.311-3.498c.015-.015.034-.027.052-.039.009.041.018.085.03.119-.025-.024-.065-.062-.082-.08zm-.384.668c.035.032.054.042.084.07l-.012.002-.072-.072zm-.706.028l.137-.008c.033.027.065.057.095.081l-.156.01a3.129 3.129 0 00-.076-.083zm-.757.23l.01.001.01.016a.16.16 0 00-.02-.017zm.63.953a.457.457 0 01-.01-.048l.034-.031c.142.134.253.252.243.312-.013.02-.156-.121-.267-.233zm.043.187c.03.037.036.053.008.043-.003-.014-.004-.028-.008-.043zm.973-2.484l.086.016.029.044c-.04-.02-.078-.034-.115-.06l-.244-.048-.095-.061c-.137-.374.087-.078.339.109zm-4.4-18.776c-.05.083-.035.185-.021.28a.609.609 0 01-.296.229.319.319 0 01-.027-.005 2.695 2.695 0 01-.066-.4c.102-.082.244-.106.41-.104zm53.589-37.318c.473-.095.178-.551.418-.668a3.857 3.857 0 01-.234.68 1.912 1.912 0 00-.184-.012zm-6.725 10.357l-.053.022c.036-.039.082-.067.124-.102-.023.03-.048.053-.072.08zm-21.829 33.264a3.15 3.15 0 01.347-.091c-.082.1-.154.205-.221.298l-.126-.207zm-3.494 2.967a.928.928 0 01.613.119.226.226 0 01-.017.25c-.373.017-.375-.321-.596-.369-.183.025-.354.076-.475.167.239-.154.378-.186.475-.167zm-1.27.144c-.016.093-.04.178-.061.265a2.609 2.609 0 01-.104-.141l.164-.124zm-5.013 4.421a1.24 1.24 0 01.078-.282v-.001c.178-.457.5-.62-.024-1.134.438-.194.87-.291 1.319-.124-.013.016-.026.026-.04.045.03-.009.05-.02.074-.031a1.6 1.6 0 01.289.155c-.127.13-.199.247-.195.348-.573.316-1.109.638-1.5 1.024zm-10.518 5.004l-.012.021a.174.174 0 01-.079.016l-.057-.065.148.028zm-.948-1.167c.21.149.257.287.221.388-.16-.102-.251-.218-.09.042l.062.009c-.065.087-.201.132-.347.1.023-.18.127-.627.154-.539zm-2.631-5.339c.02-.001.035-.003.055-.003a.126.126 0 01.002.022c-.022-.006-.034-.013-.057-.019zm-4.111-19.18l.025.012c-.019.006-.042.005-.06.011l.035-.023zm61.414-33.81c-.019.03-.045.046-.069.07-.121.027-.228.07-.298.188a4.92 4.92 0 01-.267.088c.192-.13.388-.258.584-.387.017.018.033.023.05.042zm-1.387.893c-.026.056-.054.11-.072.18-.026-.018-.048-.04-.073-.061.047-.04.097-.08.145-.119zm-2.258.612a.6.6 0 01-.076-.134c.033.009.063.013.1.033 0 .034-.014.068-.024.101zm-.698.527l.029-.012-.003.013h-.026zm-3.882 7.678c.413-.737.282-1.339 1.279-1.998-.207.87-.388 1.09-.495 1.791l-.784.207zM68.13 104.26c.201-.199.35-.463.96-.09-.119.219-.546.134-.96.09zm-.875 1.924c-.354.009-.681-.196-1.018-.377.096-.046.193-.095.299-.143-.002.032-.005.052-.009.088l.13-.143a3.21 3.21 0 00.708-.414c.448-.119.531-.309.462-.53.193-.073.406-.232.605-.181-.36.239-.342.704-.27 1.182-.233.245-.515.44-.907.518zM56.3 121.926c.026.036.033.076.047.113-.062.01-.125.015-.186.024.097-.121.159-.19.14-.137zm-1.375-1.853c.301-.045.634.015.842.306-.623.213-.58-.254-.842-.306-.184.029-.355.084-.474.178.237-.159.375-.196.474-.178zm.14-1.376c.178.031.342.086.472.171l-.974.335.718.042-.972.167c.251-.234.503-.475.757-.715zM42.47 137.396c.159.026.322.058.495.095-.202.033-.4.064-.591.084.032-.063.063-.121.096-.179zm-9.874 4.56l-.045.042c-.18-.148-.335-.287-.502-.354l-.032-.024c.089.032.167.055.248.079.132.11.245.198.33.257zm42.39-46.437c-.397.175-.587.052-.714-.176.205.073.503.108.715.176zm-.602-.611c.07.03.14.06.247.127-.218.092-.325.143-.368.292a.024.024 0 01-.004-.005l.125-.414zm-7.233 9.244l-.01.004c.003-.003.002-.004.004-.007l.006.003zM33.55 140.567c.004-.038.032-.063.046-.093.062.065.118.129.156.191l-.202-.098zm-5.664-5.04l-.007.032a.806.806 0 01-.18-.067c-.004-.062.023-.095.048-.128l.14.163zm48.66-45.087L76 90.237l.037-.16-.633.275-.025-.016c-.006-.055.005-.097.008-.145.315-.1.496-.3.431-.57.445-.156 1.093-.07 1.361-.186-.264.26-1.944.26-.635 1.003zm-2.198 4.448l-.22.012c.029-.05.093-.062.22-.012zm-10.874 14.573c-.069-.044-.134-.105-.203-.14.144-.102.3-.201.46-.3a.615.615 0 01.066.353.618.618 0 00-.324.087zm-4.14 7.6a1.337 1.337 0 01-.153-.17c-.789.126-.203.505-.339.839l-.45-.713c.379-.131.672-.166.958-.152l-.016.196zm-10.773 9.092c.24-.187.323-.465.37-.741l.4-.273c.026.004.048.01.075.014.947.255.186 1.091-.002 1.303-.118-.011-.232-.01-.347-.014l.013-.004-.509-.285zm-6.724 6.374a.983.983 0 01.196-.118c-.015.106-.024.209-.043.32a.795.795 0 00.356.212 6.217 6.217 0 01-.43.162 6.93 6.93 0 01.074-.374.935.935 0 01-.153-.202zM63.66 108.71a.57.57 0 01-.05.068c.01-.028.034-.045.05-.068zm-33.384 23.866c-.023.074-.061.123-.139.132a.534.534 0 00-.026-.085l.165-.047zm28.361-21.338c.063-.113.12-.223.18-.329l.151.027-.089.134a.476.476 0 00.123-.128c.077.016.155.03.241.046-.02.192-.086.365-.213.46a2.206 2.206 0 01-.393-.21zm-23.596 19.809l.094.004a5.781 5.781 0 00-.105.03c.003-.011.006-.024.011-.034zm-.876-.27c.024.013.04.025.067.038l-.073-.021.006-.017zm35.607-36.042c.047.11.038.21-.006.3a.254.254 0 01-.11.05 2.91 2.91 0 01.116-.35zm4.903-19.18l-.205.413c-.068-.466.125-.498.363-.458l.001.001a17.22 17.22 0 01-.064.277c-.063-.047-.106-.114-.094-.234zm-27.711 26.37l-.164-.047.342-.189-.073.126h.001c-.037.035-.07.074-.106.11zm.565-1.705c-.01-.012-.023-.017-.035-.029a.924.924 0 00.127-.067.312.312 0 01-.092.096zm-.773 1.892a4.88 4.88 0 01-.132-.098.67.67 0 01.33-.082c-.065.062-.13.121-.198.18zm17.615-27.92c.018.045.012.073.021.11-.03.014-.053.036-.093.037.006-.056.02-.089.03-.135l.042-.012zM52.503 96.219c.05.056.101.11.149.16a.592.592 0 01-.172-.065c0-.037.012-.066.023-.095zm-.536-4.078l-.003.006c-.011.018-.032.033-.065.046l.048-.069.02.017zm-.614-.228a.515.515 0 01.198-.03c.057.031.13.066.21.11a6.97 6.97 0 01-.084.232 2.61 2.61 0 01-.222-.003l-.146-.06a.344.344 0 01.044-.25zm-.481.738c.04-.145.09-.273.145-.387.027.03.054.058.082.086a.825.825 0 01-.227.301zm-1.277 2.992l.02-.005.03.018c-.017-.003-.03-.012-.05-.013zm-.928 4.1l-.016-.006a1.554 1.554 0 01.02-.287l.004-.002c.043.05.1.101.164.153-.044.08-.094.135-.172.142zm1.966-4.386h-.003.004zm27.552-27.865a11.206 11.206 0 00-.233-.114c.06-.027.12-.055.167-.088-.19-.267-.223-.118-.397-.305.27.136.377.103.419.007.094.134.035.275.044.5zM55.59 116.4a.255.255 0 01.092-.164c.01.04.026.065.032.116.011.023.009.04.017.062a.736.736 0 01-.041.042c-.032-.019-.067-.03-.1-.056zM46 130.507a.661.661 0 01-.053.258.446.446 0 01.052-.258zm-2.968 3.001l-.15.345-.026.02.077-.262a.32.32 0 00.099-.103zm4.976-5.791c-.022-.073-.025-.145.021-.213.029.059.022.146.023.227l-.044-.014zM33.79 140.762c-.063.039-.128.076-.19.114-.058-.037-.119-.066-.176-.097a2.667 2.667 0 00-.113-.102l.47.044c.006.013.006.027.01.041zm9.393-7.127l-.092.065a.483.483 0 01.069-.127l.023.062zm5.308-5.449c-.326.1-.558.483-.525.785.275.13.493-.068.718-.144l.017.002-.027.08.203.01a.427.427 0 01-.158.314c-.065-.168-.183-.253-.5-.083.028.061.033.177.037.306-.596.184-1.267.228-.314.934l-.376.144c-.036-.001-.073-.002-.104-.007-.022.016-.038.047-.058.068a6.21 6.21 0 01-.174.067c-.323-.015-.602-.092-.646-.347.042-.031.086-.073.13-.111.124.002.246.02.347.058.229-.239.227-.425.137-.581.382-.491.716-1.109.827-1.602a.975.975 0 01.142-.122c.093.092.202.176.324.229a.54.54 0 01.408.029c-.066.075-.235.051-.408-.029zm7.481-9.608l-.572-.189.068-.055.504.244zm-2.3 1.412l-.011-.024c-.06.045-.115.086-.17.129l.177-.057c-.114 1.436-1.126 2.29-2.264 2.994.313-.624.434-1.39.856-1.01.035-.285-.125-.619-.274-.889l.004-.004c-.017-.197-.086-.278-.176-.31a.949.949 0 01-.027-.047 3.008 3.008 0 001.222-.38c.166-.089.326-.187.482-.297l-.362.112a3.45 3.45 0 00.062-.159l.443-.138.027.056.015-.013-.003.037zm21.316-24.193c-.3.044-.614.21-.926.176l.066-.218c.347-.01.694-.08.889-.225a.522.522 0 01.123.06l-.152.207zm-43.369 47.399l.148.154a6.101 6.101 0 00-.171-.134l.023-.02zm48.507-48.115l-.191-.068.05-.172-.714.323c-.045-1.174 1.47-.831 1.948-1.06-.265.267-1.726.345-1.006.922-.029.019-.06.035-.087.055zm-48.561 48.385a2.72 2.72 0 01-.11-.135c.03-.021.057-.046.086-.07.042.033.078.062.136.113.005.014.005.024.008.037a.582.582 0 00-.12.055zm.331.345a4.137 4.137 0 01-.296-.305c.031-.017.061-.037.094-.05.009.085.001.147.202.355zm56.722-63.476c-.01-.084-.092-.137-.205-.166.008-.024.021-.046.03-.072l-.444-.238.553-.1c-.01.14-.036.314.066.576zm-57.501 64.656a1.834 1.834 0 01-.079-.054.462.462 0 000-.117l.15.133c-.023.015-.048.024-.071.038zm2.355 4.269a.056.056 0 01-.007.009 1.823 1.823 0 00-.069-.07l.076.061zm.016-.018l-.161-.157c.075.051.135.089.189.12a.3.3 0 00-.028.037zm61.473-84.731c-.087.013-.177.029-.267.044l-.01-.028c.62-.151-.848-.179-.247-.769l.597.186c-.057.183-.07.378-.073.567zm-80.008 61.258c.033-.037.148 0 .25.024a.741.741 0 00-.111-.342.793.793 0 00.043.02l.121.07c.188.276.082.282-.054.252v.036a.56.56 0 01-.25-.06zm14.03 12.99l.002-.002-.002.002zm6.162 10.333l-.095.055-.067-.076-.043-.025c.05-.014.097-.031.145-.047l.06.093zm.557-.369l.057-.03-.049.038-.008-.008zm-.176.091c.01.006.025.016.034.019l-.054.037-.035-.031c.019-.009.037-.015.055-.025zM91.577 73.95l-.252.175c.071-.093.145-.172.223-.242.01.023.013.043.029.067zm3.37-8.982c-.086-.014-.155-.098-.218-.297.076.027.153.051.228.074a2.849 2.849 0 01-.01.223zm1.67-19.612a1.167 1.167 0 01-.278-.201.143.143 0 00.12-.09c-.092 0-.125.025-.192.01a2.389 2.389 0 01-.138-.159c.414-.12.893-.195 1.04-.424a.593.593 0 01.103.196c-.306.107-.627.227-.654.668zM27.49 139.15c-.159-.279-.255-.497.356-.334.027.155-.208.224-.356.334zm.784.101c-.08-.149-.059-.24.018-.294.016.007.028.01.046.015l-.044-.017c.091-.062.26-.07.465-.03-.148.111-.29.22-.421.331l-.064-.005zm.355 4.355c0 .002-.01-.001-.01 0l.006-.001.004.001zm64.265-72.732c-.145 0-.327-.038-.511-.052l.115-.158c-.253-.181-.401.021-.513.067-.01.042-.032.107-.054.177-.014.01-.03.01-.042.021-.08-.817.593-.388 1.031-.394-.014.11-.022.224-.026.34zm1.918-15.396l-.54-.146a.236.236 0 01-.016-.018l.012-.142-.095.051c-.108-.124-.163-.27-.017-.523.175-.051.368-.081.555-.103a.7.7 0 01.08.114c-.458.164-.914.354.02.767zm-7.947-30.136l.123.02c-.047.065.043.155.162.248a2.14 2.14 0 00-.552-.03l-.047-.083c.14-.023.261-.061.314-.155zM49.373 71.313a.55.55 0 01.07.127c-.043-.017-.08-.016-.116.032l.046-.159zm-.113.418l.293.15c-.212-.075-.412-.124-.561-.201.072 0 .169.026.268.051zM22.156 120.72c-.098.123-.166.238-.244.356a1.379 1.379 0 01-.146-.175c.094-.073.19-.143.29-.21l.1.029zm5.966 23.08l-.035-.023.008-.003.027.026zm65.817-74.42c.124-.202.224-.4.295-.594.053.401-.076.553-.294.594zm2.077-2.216l-.19-.057c-.183-.3-.05-.358.114-.378a3.79 3.79 0 01.076-.564.791.791 0 00-.436-.224c.05-.046.083-.09.139-.138.201-.54-.326.16-.592-.006v-.013c.157-.073.269-.191.248-.441-.05-.016-.09-.034-.128-.05.176-.194.463-.32.654-.346.327.23.22.722.115 1.218a.923.923 0 01.25.416c.013.14-.172.13-.326.148-.007.165.005.318.076.435zm1.112-9.092c.014.133.025.264.045.421a.53.53 0 01-.067.122c-.063-.026-.215-.027-.497.002a.874.874 0 00.126-.255l.1.002a.611.611 0 00-.094-.023.664.664 0 00.02-.24c.034-.056.06-.117.097-.171.09.03.186.077.27.14v.002zm3.648-22.287c.571.086.101.246.391.524l-.251.224c-.223-.024-.281.097-.312.237a1.854 1.854 0 00-.354-.066c.121.052.239.1.333.124l-.159.14a.957.957 0 01-.284-.252c.037-.004.067-.013.11-.012l-.147-.058c-.007-.019-.026-.04-.028-.057a.597.597 0 00.34-.166c.091.006.198.028.342.076l-.277-.157a.467.467 0 00.048-.218c.136-.096.252-.202.248-.339zm1.359-4.184c.041.071.03.124.007.172.055-.02.072-.066-.006-.172a.41.41 0 00.167-.068c.189.335.145.492 0 .576-.279-.16-.211-.236-.161-.336-.203.068-1.036-.277-.806.12.264.1.563.225.799.283-.202.037-.474.029-.727.042a5.63 5.63 0 00-.294-.057.93.93 0 01.237-.623c.272.042.567.108.784.063zm-76.591 71.548c.032.003.049-.009.07-.017v.002c-.017.011-.04.016-.057.026l-.013-.011zm-.58.462c.048-.011.096-.023.145-.033l-.044.055.07.036.004.016c-.063-.006-.125-.009-.187-.014l.012-.06zm-4.74 21.63c.012.042.008.082.009.121l-.29.039c.006-.053.028-.093.04-.142.089-.041.176-.06.241-.018zm8.351 25.185c.026-.024.057-.042.079-.068.076.06.2.153.392.289a2.248 2.248 0 00-.116-.006 8.373 8.373 0 01-.355-.215zm71.628-117.18l.027-.018.015.032-.042-.013zm-.06-3.395l.06-.012-.015.025-.045-.013zm-51.085 40.89c.035.01.054.022.085.034.088.412.32.87-.423.525.361-.068.571-.221.338-.559zM37.27 84.661l.066.042-.071.01c0-.018.003-.035.005-.052zm-9.206 15.325c-.045.029-.09.058-.137.086-.067.02-.133.042-.207.055-.001-.01-.007-.022-.008-.031a1.57 1.57 0 01.352-.11zm-2.009.449l.001.001-.002-.001h.001zm-.977 2.532c.006-.069.008-.15.008-.234.197.029.352.024.484.002.028.06.046.107.06.152a.573.573 0 00-.209-.012c.085.045.157.073.233.108-.013.046-.026.091-.036.137a2.897 2.897 0 00-.127-.014l-.008-.008-.004.006a6.408 6.408 0 01-.128-.014c.043.018.075.024.111.034l-.086.111c-.09.021-.205.017-.332.002a2.9 2.9 0 00.026-.174c.094.01.183.016.28.027a5.412 5.412 0 01-.272-.123zm-5.438 25.415c-.515.269-.575-.228-.677-.577.066-.135.158-.241.331-.255l-.707-.178c-.093-.216-.112-.376-.087-.5.485-.158.908-.258 1.264-.56.46-.083.694-.45.785.333-.67.203.878.161.17.853l-1.134-.34c-.16.549.647.595.055 1.224zm5.278 13.564l.033-.011c.06.009.11.027.177.028l-.086.101a1.615 1.615 0 01-.124-.118zm.742 5.885c.009-.007.035.006.047.002-.005.007-.007.016-.013.024-.013-.011-.02-.014-.034-.026zm1.096 2.312c-.023-.009-.03-.007-.045-.011a.524.524 0 01.003-.017c.015.011.026.016.042.028zm3.817 4.965l.077.002a1.62 1.62 0 01-.214.288c.047-.096.085-.198.137-.29zm-1.9 2.999l-.258.206.069-.558.188.352zm16.194-10.922c-.262-.03-.525-.136-.781-.261.206-.168.41-.342.615-.523l.166.784zm4.912-5.972c-.036-.017-.07-.037-.115-.044l.221-.04a2.832 2.832 0 01-.106.084zm-11.227 14.118l.426-.366.359.713-.785-.347zm-22.177 8.484c-.276.16-.93.098-.738.574.188.039.283.134.372-.067l-.087.492c-1.033.112-1.049-.48-1.088-1.061a1.071 1.071 0 01-.337-.326c-.048-.113.126-.114.265-.138a.736.736 0 00-.184-.348l.19.036c.247.236.14.289-.006.312.038.146.06.303.072.464.534.352 1.16.042 1.54.062zm-4.565 2.255l.281-.144c.28-.006.466.183.653.226-.188.246-.757.397-.934-.082zm-1.037-7.659c-.313-.692.739-.136 1.096-.497.32.843-.831.199-1.096.497zm1.73-.871c.306.555.118.521-.153.68-.197-.18-.12-.52.153-.68zm96.724-130.25c.127-.637-2.053-2.071-1.114-3.043-.241-1.167-1.827.008-1.118-1.276l-.978.657c-.231-.32-.812-.341-.399-.858.473-.058 1.122-.262 1.276-.566-1.214 1.026-.866-1.468-2.295-.603l.179-.423c-.06.042-.168.024-.239-.027l.11-.598c-.349.29-.715 1.1-1.38.477l.065-.882c-.663.049-.816-.323-1.31-.411l-1.906 2.039c.386.017.726-.256 1.046-.017.109.735-.808.32-.508 1.072l.552-.117c-.193-.008-.276.059-.295-.092-.238-.305.148-.286.445-.194.532.399-.065.882-.534.927-.172.803 1.022.51 1.15.74-1.129.077-.391 1.32-1.008 1.65l.743-.092c.604.873-.262 1.177-.613 1.44l.578.054c-.129.246-.058.521.035.78a.536.536 0 00.024.236l.069.016c.079.222.122.418-.003.555-.278.047-.63.042-.7.19a1.053 1.053 0 00-.102-.116c.181-.133.331-.23.34-.273l-.366-.077c-.152-.145.102-.127.246-.174l-.549-.117c.401-.704-.72-1.31.119-1.957-.048-.27-.214.07-.512-.026-.376-.263.124-.42.38-.407-.85-.205-.717.225-1.288-.257v-.002c.123-.014.12-.029.058-.05a1.26 1.26 0 01.232-.185l.28.055c-.127-.247-.82-.309-.623-.567.57-.184 1.076.802 1.402.31.016-.263-1.758-1.109-1.69-1.54.336.268.544.815.897.449.106-.324-1.878-1.906-1.025-2.17-.217-.782-1.653-.62-1.009-1.153l-.885.065c-.208-.273-.73-.483-.354-.66.427.126 1.014.225 1.154.095-1.102.208-.766-1.206-2.062-1.169l.167-.2c-.053.006-.15-.043-.214-.101l.108-.334c-.317.058-.662.442-1.252-.179l.076-.536c-.6-.199-.728-.488-1.171-.717l-1.78.672c.35.138.667.075.952.334.082.506-.745-.06-.49.52l.509.105c-.177-.07-.254-.054-.269-.155-.21-.273.142-.135.411.021.477.427-.076.537-.509.416-.174.454.927.65 1.04.838-.756-.229-.616.247-.703.528l-.24.116.177-.634c-.7.037-.743-.476-1.228-.619l-.327.345a1.07 1.07 0 00-.498-.008l.277-.323c-.067.018-.161-.032-.214-.104l.26-.506c-.397.143-.96.766-1.412-.022l.308-.797c-.63-.178-.664-.576-1.098-.826l-2.406 1.361c.361.127.765-.032 1 .29-.096.727-.856.071-.773.87l.56.046c-.183-.063-.28-.024-.258-.172-.146-.356.216-.229.476-.055.403.529-.29.806-.756.722-.376.707.853.754.916 1.006-1.115-.236-.688 1.116-1.364 1.26l.742.102c.13.322.107.538.016.698-.517-.049-.762-.17-1.216-.236l-.061.024c-.284-.063-.438-.157-.021-.692l-1.07.5c-.178-.354-.745-.468-.254-.919.477.015 1.15-.084 1.35-.36-1.364.83-.613-1.613-2.16-.978l.245-.397c-.064.033-.168-.001-.231-.066l.209-.584c-.391.234-.89.994-1.44.258l.215-.885c-.662-.057-.748-.46-1.22-.631l-2.24 1.791c.38.075.764-.152 1.04.14-.018.716-.745.285-.7.893-.158-.023-.36.027-.63.202l.229-.494c-.064.048-.171.027-.239-.034l.181-.699c-.386.335-.85 1.277-1.453.54l.168-1.029c-.679.048-.79-.387-1.28-.498l-2.156 2.33c.388.031.76-.277 1.057.007.023.858-.866.35-.67 1.23l.582-.122c-.197-.014-.293.06-.288-.113-.197-.361.194-.327.486-.215.48.476-.204 1.021-.69 1.06-.3.925.965.622 1.058.892-1.151.06-.616 1.52-1.324 1.877l.785-.079c.442 1.021-.458 1.364-.856 1.66l.576.08c-.526.907.914 2.194-1.218 2.056l.384.064c-.035.463.053 1.247-.664 1.355.203.113.43.309.41.497-.794-.134-.484.528-.66 1.164.376-.288 1.193.285 1.618-.01.442 1.357-1.408.313-1.779 1.06.218.683.698-.143 1.083-.08-1.057.9.745 3.448-1.386 3.23l-.286-.795c-.625.25-.754.496-.56.531.021-.177.212-.136.403-.099.123 1.578-1.712 1.506-2.548 2.375a1.081 1.081 0 00-.2-.15l-2.295 1.222c.358.136.745 0 .987.313-.08.69-.84.033-.744.799l.55.067c-.18-.067-.275-.034-.256-.174-.148-.346.21-.209.468-.035.02.029.029.053.045.08-.11-.01-.203-.04-.23-.075.14.086.229.175.297.267.023.329-.479.472-.845.388-.263.485.312.671.662.832l-.06.118c-.93.36-1.892.736-2.827 1.149.342.17.84.034.984.416-.344.807-.943.007-1.104.916l.585.097c-.175-.086-.292-.05-.224-.214-.045-.414.303-.24.526-.023.267.63-.553.88-1.028.752-.614.766.695.907.688 1.193-.268-.083-.463-.054-.62.03-.2-.09-.46-.04-.834.27l.288.427c-.153.285-.313.549-.604.597l.762.154c.01.058.004.102.007.153l-.545.607c-.91-.43-.162-1.162-.32-1.386-.486 1.102-.265 2.92-1.077 3.804-.074-.018-.144-.035-.23-.06l.205.08a1.408 1.408 0 01-.338.276l.379.103c-.47.262-.569.522-.533.768-.053.008-.105.017-.167.014.09.07.182.16.25.252.027.058.056.114.086.17.01.039.018.078.012.114-.618-.226-.563.196-.648.658h-.014c-.314-.036-.553.038-.514.472l.265.07c-.01.028-.024.044-.03.08.022-.022.028-.052.048-.075l.166.043c.037.385-.594.192-.67.087.211.16.32.302.37.44-.375-.116-.679-.166-.306-.557l-.917.2c-.215-.28-.756-.443-.37-.692.443.081 1.05.108 1.196-.06-1.14.391-.808-1.23-2.148-1.004l.167-.242c-.055.012-.155-.026-.223-.08l.104-.38c-.327.108-.671.568-1.293-.029l.062-.585c-.623-.136-.765-.428-1.228-.616l-1.781.895c.36.114.677.016.978.26.1.53-.752.01-.482.598l.522.066c-.181-.058-.261-.033-.278-.14-.217-.27.14-.157.419-.018.5.41-.07.584-.511.492-.17.5.952.612 1.07.802-1.06-.243-.383.795-.969.856l.699.135c.54.742-.235.744-.56.836l.536.185c-.364.442 1.15 1.6-.796 1.019l.355.128c.038.287.227.8-.4.705.202.117.436.294.449.411-.731-.266-.345.229-.395.598.286-.1 1.11.454 1.44.36.615.972-1.2-.116-1.416.275.302.486.602.069.957.198-.816.325 1.25 2.396-.683 1.772l-.393-.58c-.029.002-.043.006-.069.008a.653.653 0 01.15-.242c-1.132-.265-1.407.518-1.58 1.317-.31.058-.553.17-.581.453.192.079.328.103.456.133a4.263 4.263 0 01-.056.223c-.52-.128-1.347-.481-1.127.152l.433.123c.108.314-.501.117-.593.026.123.078.21.15.284.218-.005-.003-.01-.003-.016-.006l.175.195c.113.195.054.364-.033.546-.304.035-.638-.014-.635-.314l-.462 1.66c.287-.05.696-.114 1.09-.208.096.157.24.33.445.527-.95-.234-2.027.117-1.75.616.126.174.245.28.363.36a.464.464 0 01-.122.242c-.376-.27-.488-.539-.826-.809l-1.895.32c.317.204.641.205.868.517-.025.516-.72-.205-.59.418l.478.203c-.16-.102-.24-.102-.232-.205-.149-.312.168-.106.4.1.38.517-.189.518-.589.314-.127.198.047.395.268.57-.254.194-.33.591-.39.974-.037.009-.07.02-.12.012l.11.052c-.094.6-.187 1.117-.973.623l.547.623c-.2.061-.949.026-.97-.365l-.33 1.281c.253.013.61.037.953.035-.004.022-.01.037-.015.054-.128.056-.245.108-.137.279-.006.004-.011.01-.017.013-.07-.044-.114-.056-.092.001.017.011.028.013.044.022-.258.08-.648-.473-1.18.033l.793.036c-.07.175-.141.3-.22.403-.023-.033-.04-.064-.08-.101.011.054.031.093.049.134a.708.708 0 01-.105.11c-.035.021-.079.038-.103.065-.154.082-.341.119-.61.126l.535.063c-.003.022-.02.036-.019.059.043.027.08.043.12.065a2.126 2.126 0 01-.97.128c-.264.216-.322.958-.583 1.529-.499-.285-1.142-.442-1.275-.996.94.496.511-.097.763-.253-2.136-.953-.148 2.149-1.856 1.118l.599.562c-.17.03-.853-.07-.938-.392l-.08 1.02c.682.103 2.217.384 1.616-.288.41.142.486.292.559.453-.116.007-.18.083-.128.3l.4.195c.001.007-.005.005-.004.01-.179-.01-.235.029-.223.1-.141-.049-.3-.147-.339-.197.245.212.363.374.407.509a.829.829 0 00-.403.153c-.016-.008-.033-.013-.05-.02l.006-1.003c-.103 1.079-.62-.21-1.27.247l.722.178c-.1.254-.218.374-.392.42-.206-.015-.388-.042-.528-.151.064.29-.641.334-1.065.244-.292.212 0 1.46-.645 1.633.416.062 1.01.076 1.607.524l-.053.002a.709.709 0 00-.586-.082l.196.248c-.017.108.086.275.333.499-.24.018-.474.06-.699.1-.2-.318.04-.481-.08-.63-.067.166-.071.393-.06.639-.268-.106-.52-.142-.729 0l-.172-.841c.095.845-.583-.253-1.069.01l.662.25c-.08.332-.245.352-.748.183l1 .436c0 .014-.003.032-.004.048l-.528.158c-.02-.014-.037-.022-.06-.04.016.018.028.028.044.044l-.338.103c.151-.047.3.145.375.37-.004.007-.009.01-.012.016.007-.001.01-.004.018-.004.032.103.054.21.045.31l.021-.039c.007.116.156.235.335.357.24.226.606.433.388.612a.53.53 0 01.187.136.687.687 0 01-.133.088.599.599 0 00-.183.044c-.988-.553-1.68-.17-2.422-.516l.021.013-.924.057c.186-.01.44.391.448.65l.014-.029c.057.326 1.527.992.745 1.152l-.589-.074c.084-.005.236.205.31.312l-.565-.043c.102.178.157.313.176.416l-.526.268.031.046c-.384-.015-.843-.083-.843.305-.23-.093-.382-.102-.49-.064l.185-.167-.525.133.144.213.029-.027c-.05.112-.059.269-.056.428l-.536.062c.184.119.368.124.539.122.003.09.004.174-.001.25l-.185.113c-.105-.192-.22-.333-.467-.26.047.07.09.199.14.333a2.549 2.549 0 01-.229-.144l.252.257-.192.117.274-.007c.05.09.11.159.184.214-.211-.015-.767-.172-.844-.457l-.05.626a2.59 2.59 0 01-1.012-.103c.061.215.32.204.404.2l-.07-.107c.238-.01.548.337.718.34.137.033.3.076.472.118a.54.54 0 01.078.16c-.142.014-.282.036-.437.024.047.216.284.17.405.136-.064.096-.202.16-.346.226-.023-.023-.036-.044-.064-.07.014.033.036.047.053.074-.148.07-.286.145-.344.267-.21-.09-.453-.148-.653-.088l.548.214a2.241 2.241 0 01-.435-.084c-.214.135-.093.823-.294 1.216l-.412-.397c-.242.013.345.357.212.597-.036.021-.068.047-.113.058.381.07.904.143 1.442.539a5.94 5.94 0 01-.525.194l-.082-.068c-.08.025-.08.062-.049.112-.313.1-.621.2-.874.332l-.148-.675c.039.314-.039.346-.173.283-.044-.121-.172-.278-.488-.548-.882.16-.637.255-1.288.637l.085-.005c.18.658-.988.298-.398 1.147.535.274.008-.636.724-.06l-.344.469c.02.014.033.014.05.023l-.247.22c.742.278.675-.602 1.036-.74.113-.23-.462.253-.992-.376.48-.485 1.048-.321 1.847.016-.063.115-.207.156-.522-.084.179.189.332.325.475.434-.16-.081-.294-.09-.382.078.162-.013.158-.115.407.073-.022.013-.024.028-.04.042-.398.196-.5.316-.694.516a.924.924 0 00-.57.458 2.022 2.022 0 01-.726-.145l.02.012-.892.076c.18-.017.461.362.495.605l.012-.027c.037.128.315.306.577.483v.03c-.208-.122-.412-.249-.604-.358a.21.21 0 00.015-.128l-.04.114c-.452-.254-.832-.39-1-.033l.666.27c.096.296.094.433.04.492.374.053.772.122 1.164.199l-.544-.054c.08-.008.251.186.335.284l-.503-.023c-.045-.07-.115-.105-.226-.087a.89.89 0 00-.247.09c.044.114.01.396.032.64-.034.01-.068.018-.097.031.014.009.032.009.046.013-.327-.002-.625.029-.51.398-.01-.207.229-.333.568.05-.13.044-.26.091-.394.143h-.006l.003.001-.517.198-.774.127c.032.016.063.024.093.034-.244.042-.452.1-.617.183-.08.008-.16.008-.241.01l.116-.165-.642.268.409.065v-.001c.09.046.226.023.326-.006.177.212.378.088.633.065.038.07.078.139.126.21-.13.137-.245.28-.282.404-.365.065-.758.118-1.265-.004.093.197.336.173.415.165l-.085-.095c.327-.032.925.639.816.026.04.027.057.047.092.072-.02-.01-.033-.012-.057-.025.041.022.071.043.104.064.067.053.148.11.194.155-.248.16-.486.328-.617.534l.654-.09a.088.088 0 00-.011.047c-.142.093-.335.174-.42.303-.204-.056-.388-.077-.512.001.485.233.325.354.221.519.257-.126 1.105.22.968-.28-.095-.035-.194-.075-.295-.112l.505.043c-.146.32-.368.594-.647.834-.189.076-.416.11-.746.044.124.121.194.266.144.4l-.7-.527c-.192.02.226.233.303.434l-.453-.33-.119.167c-.647-.173-1.11-.41-1.492-.102.352.133 1.258-.412 1.224.48l-.044.063.556.23c-.075.04-.15.08-.225.123a3.494 3.494 0 00-.362-.275 3.153 3.153 0 00-.438.128l-.353-.397c-.288.087.09.288.083.572-.084.08-.175.182-.396.334l.078-.01c.282.595-.875.308-.179 1.064.01.003.011.001.02.004-.02.051-.045.092-.057.163.03.042.057.068.086.103a8.033 8.033 0 00-.963.613l-.027-.226c-.025.133-.072.239-.119.348-.05.042-.106.083-.153.127.16-.77.846-.836.014-1.591-1.364.554-1.06.609-2.21 1.384l.125-.037c-.117.902-1.58.763-1.224 1.81.647.237.329-1.111 1.202-.218l-1.32 1.116c.904.165 1.32-1.116 1.92-1.44.296-.376-.812.532-1.21-.214.966-.871 1.692-.82 2.664-.611-.526.678-1.495.88-1.669 1.794-.669.312-1.229.837-1.605 1.592l.013 1.29c-1.168-.082-2.085-1.539-2.98-.406l.778.202c-.044.408-.133.615-.247.714a37.528 37.528 0 012.31-.074c-.183.192-.307.439-.307.81.066.039.136.062.203.087a1.1 1.1 0 01-.184.116c.006-.015.008-.029.018-.042-.074.092-.338.141-.476.203-.756.187-1.79.185-2.375.517.172.091.516-.154.861.03-1.065 1.47-3.605 1.505-4.767 2.287.012.858 1.123-.482 1.562.394-.777.235-.806 1.393-1.546.895 1.084.682-1.147 1.211.66 1.101-1.526 2.206-4.397 3.285-6.794 4.708.361.164.584.381.69.633.602-.664 1.8-1.301 2.758-1.02.015.861-1.593.344-1.444.727.416.018.842-.398 1.283.043-.08 1.04-1.017.577-1.484.886l-.027-.424c-1.751.596-2.22-.827-3.18.715.123.986.463.413 1.163 1.036-.553.059-.712 1.748-1.745 1.402l.673-.85c-.705.381-1.187.909-1.782 1.069.184.099.365.206.534.144-.63.234-1.11.843-1.768.626l.6.822c-.063-.567.613-1.391 1.144-1.146.574.675-.58 1.098-.869 1.488 1.67-1.325 2.835-.315 3.556-2.062l-.43.013c.184-1.325 1.866-1.317 2.479-2-.032.332.199.619.404.647a5.39 5.39 0 01.783-1.317c.318-.395.715-.788 1.1-1.165l.454-.435.566.416-.016.003.054.024.056.042-1.07.025.78.131c-.372.747-1.767 1.165-1.876 1.297l.328.19c.057.223-.196.142-.379.166l.49.285c-.916.817-.188 1.895-1.53 2.53-.145.366.271-.035.51.166.2.444-.434.523-.688.438.724.493.905-.115 1.141.674-.526-.05.746.372.256.669l-.98-.576c-.056.354.616.622.214.908-.727.088-.505-1.336-1.212-.786-.238.378 1.322 2.406.3 2.649-.06.939 1.56.861.663 1.436l.984-.004c.124.336.613.626.14.802-.418-.182-1.017-.344-1.218-.202 1.274-.158.386 1.474 1.805 1.533l-.254.223c.06-.002.148.061.196.134l-.24.383c.365-.043.877-.462 1.29.31l-.278.619c.576.281.612.63 1.008.933l2.164-.63c-.33-.19-.693-.146-.905-.472.093-.596.78.137.713-.562l-.51-.167c.166.096.256.084.234.206.127.335-.2.144-.434-.062-.359-.541.277-.621.696-.441a.314.314 0 00.038-.315c.563.207.643.547 1.062.792l.861-.388a1.095 1.095 0 00-.025.234l-1.877 1.051 2.108-.58c.432.304 1.227.109.285 1.028l1.294-.507c.072.433.636.61-.033 1.11-.498-.055-1.24.007-1.543.318 1.172-.599.792.543 1.023 1.126a.925.925 0 01-.565.041l.479.544c-.359.282-.675.484-.72.553l.357.135c.075.228-.197.192-.384.255l.532.205c-.096.116-.166.23-.227.345l-.431.091.275.281c-.13.415-.137.821-.252 1.208a1.914 1.914 0 00-.274.524c-.131.179-.3.354-.567.522-.061.158-.025.179.055.159a18.56 18.56 0 00-.458.446.806.806 0 00.423.14c.39.155.606.009.768.108-.187.291-.274.622-.718.241.02.142.087.28.174.411.03.338.595.562.19.885-.769.12-.473-1.361-1.232-.772-.119.167.155.759.347 1.353l-.387.167.185.048c.096.42.104.791.05 1.128-.045.019-.07.054-.127.065a.676.676 0 00.013.382c-.681 1.89-3.495 2.579-3.685 4.766l.475.164-.933.265c.65-.243.481.456.864.673l-1.657 1.005c.385.213 1.333.537 1.315.103.219.758-.993.899-1.257 1.354l.469.016-.548.331.573.248c-.623.675-.472 1.914-1.508 1.795l.954.316-1.097.507.83-.199c-.23 1.021-1.575 2.1-1.66 2.292l.375.073c.105.23-.173.244-.354.351l.562.112c-.777 1.308.186 2.223-1.078 3.477-.08.47.274-.148.558-.018.29.421-.351.762-.63.762.838.27.919-.483 1.304.308-.557.153.84.121.381.653l-1.117-.265c.003.422.745.46.38.943-.74.379-.754-1.308-1.393-.421-.184.496 1.769 2.217.716 2.863.062 1.089 1.758.414.883 1.402l1.043-.371c.171.342.727.493.243.878-.461-.051-1.127-.027-1.326.206 1.357-.641.548 1.579 2.083 1.132l-.258.358c.066-.026.165.017.223.084l-.23.545c.391-.185.92-.881 1.426-.12l-.262.852c.648.118.706.526 1.16.739.571-.399 1.15-.815 1.721-1.229a.91.91 0 00.318-.227c.1-.073.206-.142.304-.216-.039-.009-.077-.006-.115-.01.264-.39.435-.906.562-1.162-.521.17-.992.629-1.363 1.062-.039-.023-.081-.035-.115-.075.047-.76.863-.171.726-.985l-.57.018c.19.044.284-.008.273.146.17.351-.206.26-.48.111-.438-.497.24-.86.71-.828.314-.768-.92-.675-1.005-.926 1.135.112.607-1.219 1.263-1.444l-.754-.019c-.46-.917.393-1.102.764-1.318l-.563-.121c.465-.72-1.046-1.898 1.016-1.628l-.375-.078c-.01-.387-.165-1.034.512-1.083-.209-.105-.448-.28-.453-.434.774.152.396-.414.481-.928-.32.22-1.177-.288-1.542-.07-.603-1.125 1.304-.184 1.561-.782-.301-.565-.648.089-1.028.018.91-.691-1.24-2.808.827-2.57l.402.649c.554-.187.64-.384.45-.417.005.143-.183.106-.37.071-.443-1.51 2.097-1.114 2.226-2.373-.376-.072-.557.036-.845-.085-.125-.663 1.974.297 1.641-.83l-.466-.019c-.112-.379.547-.319.643-.232-1.524-.721.855-1.67-.87-3.155.865-.009 1.84-.581 1.944-1.098.138-.054.28-.108.41-.164a.978.978 0 00-.24-.082c-.058-.068-.197-.174-.173-.229-.012.028-.08.045-.154.06a.986.986 0 00-.355-.269c.137-.243.297-.309.456-.321.366.455.72.817 1.323.326l-.376-.372c.005.14.1.374-.085.472-.48.046-.508-.226-.567-.445.155-.026.29-.116.368-.459l-.214-.043.58-.705c.457.183.554.412.56.619-.026.012-.053.023-.077.036.028.009.046.02.073.029-.009.141-.044.27-.024.361-.214-.016-.345.046-.33.301.59.53.564.26 1.415.654-.396-.02.333.838-.634.565l.086-.379c-.35.133-.452.364-.827.399.191.066.386.135.483.118-.364.069-.409.348-1.024.195l.893.461c-.352-.293-.265-.674.27-.502.785.393.13.514.122.694.465-.461 1.506-.112 1.664-.442l.847.483c-.371-.246-.383-.392.114-.137.761.437.23.272.267.35.352-.064 1.707.703 1.227.229l-.283-.129c-.598-.475.545.052.567-.041.055.042.138.096.216.148a18.61 18.61 0 00-.927.568c.359.162.588.371.706.616.548-.626 1.669-1.328 2.583-1.015l-.001.008c-.11.123-.203.263-.284.418-.423.156-1.15.027-1.033.285.333-.003.636-.257.977-.149-.042.092-.089.183-.12.286l.047.221c-.285.104-.549.214-.752.357.004.041.02.058.028.089a1.422 1.422 0 00-.19.051l-.15-.075-.032-.279a2.87 2.87 0 01-.346.098c-.351-.152-.665-.196-.92.028-.769-.119-1.197-.487-1.809.523.142.958.46.418 1.154 1.045-.534.04-.686 1.678-1.694 1.286l.654-.791c-.684.336-1.154.819-1.733.936.177.106.352.223.516.173-.611.189-1.087.747-1.72.483l.563.844c-.043-.554.616-1.305 1.133-1.033.55.69-.58 1.033-.873 1.386.292-.207.567-.342.826-.438a.55.55 0 00.026.06 1.564 1.564 0 00-.242.135c.079.04.219.023.375-.006.126.034.292-.031.477-.09.354-.056.617-.005.446.488-.255.343-.284.836-.85.49.379.22.398.411.33.567a58.56 58.56 0 00-1.233.656c.048.024.075.054.118.08a.614.614 0 00-.309.095c.464.231.277.404.099.617-.43-.112-.768-.109-1.206.578.093.673.284.609.628.748-.834.534-1.746 1.001-2.589 1.493a.32.32 0 00-.273.109c.04.012.076.011.114.021.248.121.424.265.56.421-.204.112-.4.225-.607.283-.193-.045-.367-.067-.526-.003-.015-.006-.03-.006-.048-.012l.023.03c-.161.073-.31.225-.458.531.258.874.48.393 1.205.986-.493.018-.38 1.478-1.363 1.109l.29-.426.078.095.37-.392-.65.053.112.135c-.424.265-.745.572-1.17.663.184.095.365.2.506.154-.514.165-.84.64-1.434.487.337-.044.636-.306.891-.638.012-.002.027-.001.038-.003l-.025-.012c.294-.39.533-.843.694-1.083-.095.029-.189.086-.283.127.031-.117.044-.232.097-.32-.139.093-.25.249-.345.434-.628.355-1.219.948-1.619 1.369.18.119.348.143.51.131l.683.718c-.175-.5.302-1.19.824-.947.628.618-.337.916-.51 1.252 1.247-1.086 2.47-.104 2.84-1.576l-.386-.019c-.036-1.14 1.485-1.022 1.95-1.605.02.291.272.56.465.593.448-1.647 1.783-2.514 2.684-4.033.05-.037.105-.071.146-.115-.026.318.2.609.402.645.103-.248.223-.479.354-.7l.4.08-.275-.265c.098-.149.196-.298.304-.438.206.157.415.382.586.313-.084.027-.155-.046-.278-.11 1.018-.183.422-.609.318-.932.463-.499.96-.984 1.438-1.523.202.054.412.142.644.313.204-.521.536-.977.93-1.39l.514.095-.09-.099c.026-.106-.07-.323.027-.431.078-.068.159-.134.24-.201.185.163.363.366.543.291-.094.032-.16-.046-.283-.112.9-.181.707-.503.56-.804.77-.545 1.543-1.028 2.077-1.52-.08-.381-.279-.06-.408-.295.115.02.213.012.304-.009.114.058.231.127.352.223.262-.517.626-.977 1.042-1.403.174.059.242.237.057.673 0 0 .194-.576.75-.442-.303-.075-.553-.178-.783-.259 1-1.016 2.302-1.811 3.368-2.56.572.564-.897.847.56.856-1.001 1.859-3.394 2.687-5.323 3.673.337.189.562.405.682.641.472-.511 1.437-1.003 2.332-.686.14.772-1.367.196-1.187.548.383.045.7-.295 1.154.129.09.916-.856.471-1.234.691l-.068-.382c-1.517.357-2.062-.988-2.787.244.193.884.45.428 1.128 1.075-.493-.024-.503 1.443-1.452.992l.533-.655c-.6.237-.988.637-1.506.699.175.111.345.231.49.198-.542.123-.91.604-1.523.336l.621.797c-.116-.508.412-1.156.909-.868.57.673-.412.893-.626 1.202 1.35-.961 2.473.108 2.977-1.335l-.384-.048c.06-1.142 1.579-.902 2.083-1.467 0 .295.233.581.422.626.596-1.749 2.17-2.516 3.135-4.226l1.112.259-.522-.54c.36-.814.808.296 1.156.167-.085.026-.152-.05-.274-.118 1.367-.205-.096-.915.494-1.194-.784-.339-1.013.653-1.606-.272 1.364-.2 2.167-1.742 3.597-.633.834-1.962 3.357-3.022 4.606-4.177-.08-.383-.28-.06-.409-.295 1.228.206.966-2.144 1.666-1.53.022-.413-.4-.971-.53-1.203.62-.022 1.125-.259 1.584-.58l-.458.127-.066-.118.65-.179.029.054c1.106-.831 1.967-2.156 3.533-2.429-.928.134-.733-.872-1.231-.861 1.527.5 2.552-.602 3.223-1.631-.24-.198-.369-.431-.649-.484l.922-.139-.345-.171c.609-1.138 2.775-1.111 2.773-2.206-.468.283-.708.084-1.123-.198.61-.669 1.171-1.31 2.194-1.833a.61.61 0 01-.298-.124c.078-.296.574-.316.896-.418l-.552-.507c.616-.192.765-.973 1.631-1.092-.477-.715 1.578-.722 1.78-1.516.321-.106-1.059-.063-.519-.651 1.331.933.687-.772 2.084.274l-.058-.943.775.425c-.906-1.484 1.136-.249 1.286-1.261-.176-.08-.283-.045-.353-.158.32-.109.821-.555.85.122.289-.373 1.61-1.375.436-1.384.425.268-.322.52-.64.629-.564-.494.11-.862-.42-1.502.08.032.238.041.377.063l-.3-.366c1.191-.185 1.278-1.256 2.514-1.107-.16-.172-.204-.405.024-.61l.748.564.565-.754-1.35-.486c.424-.974 2.087-.608 2.79-1.142-1.112-1.122 1.478-.958.82-2.38l-.741.271c1.09-.95.468-1.698 1.686-2.431-.255 1.206-.498 1.029-.473 3.094.477-1.691 2.411-1.736 2.59-3.477-.358-.141-.777.016-.864-.505.822.245.823-1.148 1.448-.412.022-.562-.64-1.149-.575-1.453l1.854-.581-.178-.071c-.093-1.707.953-2.545 1.988-3.019 1.12-.592 2.432-1.155 2.883-2.479l-.426-.267.993-.074c-.71.113-.356-.563-.676-.865l1.915-.687c-.323-.297-1.174-.825-1.278-.373-.007-.828 1.235-.725 1.626-1.144l-.463-.11.639-.237-.501-.371c.81-.583 1.005-1.911 2.01-1.608l-.869-.503 1.243-.349-.89.07c.513-1.027 2.159-2.007 2.3-2.212l-.363-.129c-.047-.263.241-.241.454-.338l-.545-.191c1.127-1.357.351-2.44 1.916-3.78.178-.531-.313.16-.584-.007a.402.402 0 01.007-.351l.6-.273a2.017 2.017 0 00-.152-.128.878.878 0 01.346-.102.969.969 0 00-.572-.05c-.208-.125-.44-.223-.628-.229.053-.17.103-.34.153-.51.067-.041.14-.077.211-.115l.361.102a.367.367 0 00-.052-.242c.2-.084.395-.167.563-.263.132.236.285.347.632-.124.102-.254-.105-.665-.344-1.129.725-.774 1.09-1.953 2.02-1.722l-.88-.49 1.36-.495-.956.151c.65-1.204 2.497-2.405 2.662-2.645l-.371-.12c-.024-.292.279-.288.513-.404l-.555-.184c1.336-1.558.634-2.747 2.44-4.254.253-.58-.348.175-.608.002-.163-.53.646-.931.948-.93-.814-.356-1.158.574-1.303-.418.65-.173-.861-.18-.195-.82l1.116.354c.134-.525-.654-.585-.105-1.175.923-.466.392 1.642 1.373.533.363-.648-1.222-2.74.077-3.568.218-1.339-1.796-.456-.6-1.688l-1.192.466c.178-.366.463-.728.776-1.065.259-.047.492-.131.62-.272-.222.115-.384.157-.51.154.71-.736 1.523-1.328 1.628-1.48l-.374-.112c-.033-.286.267-.289.495-.405l-.557-.174c1.265-1.56.56-2.721 2.336-4.198.251-.567-.346.163-.605-.009-.163-.526.642-.909.942-.899-.808-.37-1.152.547-1.294-.44.649-.16-.858-.191-.188-.816l1.111.375c.138-.515-.646-.597-.091-1.168.922-.434.37 1.638 1.354.57.372-.611-1.146-2.76.19-3.523.295-1.314-1.777-.559-.496-1.713l-1.255.407c-.079-.417-.627-.617.021-1.056.486.082 1.21.068 1.499-.21-1.662.732-.116-1.895-1.909-1.403l.383-.415c-.077.027-.173-.027-.216-.108l.407-.635c-.476.208-1.245 1.009-1.569.096l.454-.855c.552.098.959.198 1.431-.23-.364-.131-1.68.887-1.28-.457 0 0-.07.3-.302.48-.274-.126-.382-.328-.514-.517.723-.534 1.467-1.054 2.16-1.552-.366-.135-.615-.319-.762-.546-.431.609-1.351 1.296-2.282 1.165-.019-.017-.035-.042-.053-.064a.362.362 0 01.018-.21.614.614 0 00.491-.276c.369-.078.776-.075.657-.255-.22.017-.408.148-.618.206.217-.32.33-.695.765-.294-.019-.247-.165-.48-.324-.692a.622.622 0 00.185-.096l.106.391c1.549-.657 2.202.648 2.856-.726-.252-.9-.486-.389-1.223-.965.495-.045.516-1.628 1.522-1.233-.193.25-.392.49-.57.748.627-.316 1.042-.772 1.594-.838-.173-.112-.344-.234-.501-.194.573-.155 1.028-.642 1.614-.308l-.508-.879c.014.545-.594 1.181-1.09.907-.559-.703.563-.972.86-1.28-1.627.984-2.779.015-3.393 1.672l.412-.007c-.033.52-.336.819-.709 1.049-.237-1.65.658-2.585 1.704-3.466 1.046-.918 2.219-1.806 2.417-3.265l-.473-.167.969-.313c-.681.284-.462-.484-.839-.709l1.771-1.15c-.381-.218-1.334-.54-1.347-.065-.158-.815 1.053-1.038 1.344-1.56l-.476.01.57-.402-.572-.246c.661-.79.555-2.166 1.612-2.11l-.965-.283 1.146-.655-.862.29c.137-.58.563-1.2.964-1.712.377-.522.737-.931.78-1.05l-.383-.036c-.11-.251.172-.303.357-.447l-.574-.059c.77-1.606-.24-2.493 1.005-4.131.062-.546-.276.218-.574.12-.313-.42.327-.921.614-.98-.877-.14-.916.717-1.357-.099.56-.271-.863.018-.434-.654l1.149.073c-.052-.477-.801-.365-.49-.982.699-.595.91 1.321 1.449.164z" fill="#F6F8FC"/><path d="M17.67 163.047a1.328 1.328 0 00-.306-.006c.188.089.355.117.305.006zm-.278-1.368c.083-.058.139-.15.133-.328a.677.677 0 00-.133.328zm.716-2.162l-.622.817c.535-.618.66.05.622-.817z" fill="#F6F8FC"/><path d="M49.495 21.206h-1.104V2.269h1.104v18.937zm0 151.523h-1.104v-18.936h1.104v18.936z" fill="#121218"/><path d="M46.666 172.729A2.275 2.275 0 0048.943 175a2.275 2.275 0 002.278-2.271 2.274 2.274 0 00-2.278-2.269 2.274 2.274 0 00-2.277 2.269zm0-170.459c0 1.253 1.02 2.27 2.277 2.27a2.274 2.274 0 002.278-2.27A2.273 2.273 0 0048.943 0a2.273 2.273 0 00-2.277 2.27zM48.982 43v21h-3.99l-10.47-12.75V64h-4.8V43h4.02l10.44 12.75V43h4.8zM67.78 59.5h-9.75L56.17 64h-4.98l9.36-21h4.8l9.39 21h-5.1l-1.86-4.5zm-1.53-3.69l-3.33-8.04-3.33 8.04h6.66zM34.072 83.96h-6.72V80h18.3v3.96h-6.72V101h-4.86V83.96zm23.174 17.4c-3 0-5.34-.83-7.02-2.49-1.66-1.66-2.49-4.03-2.49-7.11V80h4.86v11.58c0 3.76 1.56 5.64 4.68 5.64 1.52 0 2.68-.45 3.48-1.35.8-.92 1.2-2.35 1.2-4.29V80h4.8v11.76c0 3.08-.84 5.45-2.52 7.11-1.66 1.66-3.99 2.49-6.99 2.49zM43.102 138l-4.05-5.85h-4.47V138h-4.86v-21h9.09c1.86 0 3.47.31 4.83.93 1.38.62 2.44 1.5 3.18 2.64.74 1.14 1.11 2.49 1.11 4.05 0 1.56-.38 2.91-1.14 4.05-.74 1.12-1.8 1.98-3.18 2.58l4.71 6.75h-5.22zm-.09-13.38c0-1.18-.38-2.08-1.14-2.7-.76-.64-1.87-.96-3.33-.96h-3.96v7.32h3.96c1.46 0 2.57-.32 3.33-.96.76-.64 1.14-1.54 1.14-2.7zm25.031 9.48v3.9h-16.26v-21h15.87v3.9h-11.04v4.56h9.75v3.78h-9.75v4.86h11.43zM42.636 28.204c.243 0 .47.036.68.108a1.522 1.522 0 01.908.816c.088.197.132.421.132.672 0 .213-.032.41-.096.592-.064.181-.15.356-.26.524a3.92 3.92 0 01-.38.484c-.14.155-.292.313-.452.476L41.66 33.42a2.699 2.699 0 01.64-.096h1.92c.078 0 .14.023.184.068a.238.238 0 01.068.176V34h-3.824v-.244c0-.05.01-.103.028-.156a.442.442 0 01.1-.148l1.836-1.844c.152-.155.291-.303.416-.444.126-.144.232-.288.32-.432.091-.144.16-.29.208-.436a1.55 1.55 0 00.072-.476c0-.168-.026-.315-.08-.44a.85.85 0 00-.548-.5 1.244 1.244 0 00-.404-.064 1.21 1.21 0 00-.4.064 1.09 1.09 0 00-.568.448 1.08 1.08 0 00-.136.344.319.319 0 01-.096.168.258.258 0 01-.168.052h-.044a.883.883 0 00-.048-.008l-.372-.064a2.09 2.09 0 01.216-.692c.107-.203.242-.372.404-.508.166-.136.354-.239.564-.308.214-.072.443-.108.688-.108zm6.637 2.932c0 .501-.055.936-.164 1.304a2.693 2.693 0 01-.44.908 1.77 1.77 0 01-.664.536 1.918 1.918 0 01-.816.176c-.293 0-.567-.059-.82-.176a1.79 1.79 0 01-.656-.536 2.697 2.697 0 01-.44-.908 4.716 4.716 0 01-.16-1.304c0-.501.053-.936.16-1.304.107-.368.253-.672.44-.912.187-.243.405-.423.656-.54.253-.117.527-.176.82-.176.29 0 .563.059.816.176.256.117.477.297.664.54.187.24.333.544.44.912.11.368.164.803.164 1.304zm-.74 0c0-.437-.037-.804-.112-1.1a2.15 2.15 0 00-.296-.72 1.087 1.087 0 00-.428-.388 1.137 1.137 0 00-1.016 0 1.088 1.088 0 00-.428.388 2.27 2.27 0 00-.296.72 4.742 4.742 0 00-.108 1.1c0 .437.036.804.108 1.1.075.296.173.535.296.716.123.181.265.312.428.392a1.17 1.17 0 001.016 0c.163-.08.305-.21.428-.392a2.15 2.15 0 00.296-.716c.075-.296.112-.663.112-1.1zm3.385-2.932c.242 0 .469.036.68.108.21.072.392.177.544.316.154.136.276.303.364.5.088.197.132.421.132.672 0 .213-.032.41-.096.592a2.483 2.483 0 01-.26.524 3.93 3.93 0 01-.38.484c-.142.155-.292.313-.452.476l-1.508 1.544a2.69 2.69 0 01.64-.096h1.92c.077 0 .138.023.184.068a.238.238 0 01.068.176V34H49.93v-.244c0-.05.009-.103.028-.156a.44.44 0 01.1-.148l1.836-1.844c.152-.155.29-.303.416-.444.125-.144.232-.288.32-.432.09-.144.16-.29.208-.436a1.55 1.55 0 00.072-.476c0-.168-.027-.315-.08-.44a.853.853 0 00-.548-.5 1.245 1.245 0 00-.404-.064c-.144 0-.278.021-.4.064a1.089 1.089 0 00-.568.448c-.064.104-.11.219-.136.344a.32.32 0 01-.096.168.258.258 0 01-.168.052h-.044a.918.918 0 00-.048-.008l-.372-.064c.037-.261.109-.492.216-.692a1.66 1.66 0 01.404-.508 1.73 1.73 0 01.564-.308c.213-.072.442-.108.688-.108zm3.384 5.252h1.232v-3.908c0-.117.004-.236.012-.356l-1.024.876a.32.32 0 01-.08.048.265.265 0 01-.076.012.238.238 0 01-.108-.024.214.214 0 01-.072-.064l-.224-.308 1.704-1.476h.58v5.2h1.128V34h-3.072v-.544z" fill="#121218"/></svg>