<svg width="140" height="171" fill="none" xmlns="http://www.w3.org/2000/svg"><path d="M13.036 30.934c.115.04.227.089.337.15.11.054.22.112.33.172a5.203 5.203 0 01-.22-.716l-1.366-6.433c-.023-.113-.018-.198.014-.254a.812.812 0 01.176-.196l.708-.61 6.127 7.091-.841.727-4.502-5.212a7.217 7.217 0 01-.383-.482l1.4 6.533c.046.22-.005.393-.154.522l-.138.12c-.149.128-.329.153-.54.076l-6.328-2.304c.084.077.163.156.238.235.078.077.147.15.206.22l4.502 5.21-.841.727-6.127-7.092.708-.61a.815.815 0 01.22-.147c.06-.023.144-.016.253.023l6.221 2.25zm8.171-13.341l.566.864-3.764 2.465 1.706 2.604 3.048-1.995.544.831-3.047 1.996 1.752 2.675 3.765-2.465.566.864-4.831 3.164-5.137-7.84 4.832-3.163zm13.557-1.774c.31.63.49 1.252.544 1.867a4.246 4.246 0 01-.196 1.741 4.235 4.235 0 01-.89 1.5 5.116 5.116 0 01-1.544 1.127l-3.148 1.542-4.124-8.416 3.148-1.542a5.03 5.03 0 011.841-.523 4.118 4.118 0 011.73.216c.545.19 1.044.494 1.496.913.453.42.834.944 1.143 1.575zm-1.169.572a4.702 4.702 0 00-.89-1.282 3.254 3.254 0 00-1.106-.74 2.848 2.848 0 00-1.256-.187 3.618 3.618 0 00-1.337.378l-2.003.981 3.22 6.572 2.003-.98c.45-.221.823-.496 1.118-.825.296-.33.504-.696.627-1.1.12-.409.15-.851.092-1.327a4.7 4.7 0 00-.468-1.49zm7.489 2.115l-1.19.44-3.254-8.788 1.19-.44 3.255 8.788zm9.54-4.821a.263.263 0 01.205.033l.62.397a4.001 4.001 0 01-1.085 1.364c-.463.38-1.068.67-1.814.868a4.698 4.698 0 01-1.865.136 4.084 4.084 0 01-1.61-.587 4.47 4.47 0 01-1.263-1.234 5.654 5.654 0 01-.808-1.795 5.362 5.362 0 01-.17-1.965 4.47 4.47 0 01.545-1.715 4.284 4.284 0 011.183-1.329 5.048 5.048 0 011.761-.833c.666-.177 1.267-.226 1.802-.147.54.078 1.044.244 1.513.498l-.249.668a.512.512 0 01-.072.135.307.307 0 01-.155.081.36.36 0 01-.192-.01l-.255-.094a4.855 4.855 0 00-.348-.111 2.695 2.695 0 00-.454-.082 3.262 3.262 0 00-.583-.001 3.725 3.725 0 00-.73.126 3.552 3.552 0 00-1.267.607 3.05 3.05 0 00-.849.984c-.209.384-.337.82-.384 1.306a4.493 4.493 0 00.155 1.55c.15.564.364 1.046.642 1.446.282.399.603.715.962.949.363.228.758.372 1.184.43.426.058.86.029 1.303-.089.27-.072.508-.15.715-.237a3.18 3.18 0 00.554-.31c.167-.116.316-.246.444-.389.133-.148.26-.314.382-.5.055-.082.116-.132.183-.15zm5.452 1.031l-1.252.207-1.534-9.245 1.251-.208 1.535 9.246zm3.873-9.958a.513.513 0 01.25.03.583.583 0 01.2.158l5.87 6.701a4.46 4.46 0 01-.047-.325 7.89 7.89 0 01-.026-.312l-.426-6.625 1.11-.071.6 9.353-.64.04a.565.565 0 01-.258-.035.653.653 0 01-.207-.164l-5.862-6.695a8.27 8.27 0 01.065.605l.427 6.664-1.109.071-.6-9.353.653-.042zm17.376-.003l-.063 1.032-4.491-.275-.19 3.107 3.636.223-.061.992-3.636-.222-.196 3.192 4.492.274-.064 1.032-5.764-.353.573-9.354 5.764.352zm15.649 12.614l-1.235-.318 1.063-4.13-4.89-1.258-1.063 4.13-1.235-.319L87.951 6.4l1.236.317-1.043 4.048 4.89 1.258 1.042-4.047 1.235.318-2.337 9.076zm12.122-5.408l-.381.96-4.183-1.659-1.148 2.894 3.386 1.343-.367.924-3.386-1.343-1.18 2.972 4.183 1.66-.382.96-5.368-2.13 3.458-8.71 5.368 2.129zm2.985 7.514l-1.869 3.436-1.109-.603 4.478-8.233 2.327 1.265c.521.283.942.582 1.263.895.323.31.553.63.69.963.14.334.193.676.158 1.024-.034.344-.145.69-.335 1.039a2.697 2.697 0 01-.581.74c-.23.203-.488.358-.774.466a2.69 2.69 0 01-.916.164 3.552 3.552 0 01-1.026-.14c.095.155.154.339.177.55l.624 4.575-.988-.537c-.203-.11-.31-.27-.32-.48l-.538-4.103a.672.672 0 00-.106-.31c-.054-.085-.157-.168-.311-.252l-.844-.459zm.44-.81l1.167.634c.325.177.632.294.919.35.292.056.56.057.801.005a1.59 1.59 0 00.661-.311 1.93 1.93 0 00.486-.592c.266-.49.304-.949.114-1.375-.186-.423-.599-.81-1.239-1.157l-1.218-.662-1.691 3.108zm5.369 8.715l5.458-7.618 2.43 1.74c.468.335.837.669 1.108 1.002.274.336.459.666.553.991.098.328.11.652.035.974-.069.32-.214.635-.435.943a2.022 2.022 0 01-.479.478c-.181.133-.385.23-.612.293a2.237 2.237 0 01-.733.08 3.007 3.007 0 01-.833-.163c.478.509.755 1.01.83 1.503.076.494-.057.978-.397 1.453a2.598 2.598 0 01-.813.753 2.282 2.282 0 01-1.013.313 2.994 2.994 0 01-1.16-.155 4.692 4.692 0 01-1.243-.656l-2.696-1.93zm3.519-2.733l-1.901 2.653 1.649 1.18c.294.211.57.358.827.44.261.085.502.115.723.091a1.38 1.38 0 00.616-.219 1.94 1.94 0 00.495-.49c.282-.393.364-.803.247-1.23-.112-.429-.449-.845-1.013-1.248l-1.643-1.177zm.525-.733l1.362.974c.29.208.565.357.823.445.259.089.498.126.717.111a1.27 1.27 0 00.607-.185 1.69 1.69 0 00.482-.459c.32-.447.42-.87.3-1.273-.119-.402-.463-.806-1.03-1.212l-1.398-1.001-1.863 2.6zm12.975 7.012a.554.554 0 01-.193.028.292.292 0 01-.157-.08c-.055-.05-.094-.136-.119-.258a3.302 3.302 0 00-.113-.43 2.761 2.761 0 00-.235-.549 2.297 2.297 0 00-.492-.596 2.22 2.22 0 00-.636-.419 1.602 1.602 0 00-.614-.141c-.194 0-.379.042-.554.124-.172.08-.327.195-.465.347a1.086 1.086 0 00-.299.611c-.017.214.01.437.083.668.076.234.182.474.318.72.141.247.283.499.426.757.145.262.275.527.39.796.121.269.198.541.23.818.035.279.01.56-.075.841-.082.285-.253.571-.514.858a3.204 3.204 0 01-.933.717 2.649 2.649 0 01-1.084.28 2.827 2.827 0 01-1.154-.2 3.603 3.603 0 01-1.137-.722 4.106 4.106 0 01-1.01-1.358 3.94 3.94 0 01-.343-1.52l.676-.2a.454.454 0 01.171-.003.3.3 0 01.161.075c.068.062.112.17.131.322.023.15.06.328.11.532.053.207.138.432.255.673.122.24.318.483.586.726a2.4 2.4 0 00.679.448c.23.097.455.145.674.144a1.53 1.53 0 00.646-.147c.205-.097.394-.24.567-.43.19-.21.297-.426.321-.646.029-.22.007-.446-.066-.677a3.38 3.38 0 00-.326-.711 46.822 46.822 0 00-.434-.747 9.135 9.135 0 01-.4-.787 2.69 2.69 0 01-.22-.817 2.16 2.16 0 01.092-.861c.097-.295.285-.596.563-.903.223-.245.485-.44.787-.584a2.52 2.52 0 01.97-.232c.342-.014.694.046 1.056.18.364.136.719.361 1.065.675.387.351.685.733.894 1.146.208.413.326.844.354 1.293l-.632.239zM15.406 140.942c.133 0 .244.008.332.023a.565.565 0 01.233.066.64.64 0 01.211.144c.067.059.14.141.222.244l8.416 10.723c-.03-.258-.051-.51-.066-.754a23.814 23.814 0 01-.011-.698v-9.748h2.628v16.035h-1.542c-.236 0-.432-.037-.587-.111a1.31 1.31 0 01-.455-.399l-8.383-10.679c.022.237.037.473.044.71.015.229.022.44.022.632v9.847h-2.628v-16.035h1.564zM44.7 156.977h-2.307c-.258 0-.473-.063-.643-.188a1.166 1.166 0 01-.355-.488l-1.197-3.272h-6.643l-1.197 3.272c-.06.17-.178.325-.355.465a.957.957 0 01-.632.211h-2.318l6.299-16.035h3.05l6.298 16.035zm-10.38-6.055h5.112l-1.951-5.333a39.663 39.663 0 01-.3-.832 27.287 27.287 0 01-.31-1.053c-.104.377-.207.728-.31 1.053-.097.325-.193.61-.289.854l-1.951 5.311zm21.706-9.98v2.451h-4.823v13.584H48.22v-13.584h-4.846v-2.451h12.652zm8.344 13.629c.577 0 1.09-.096 1.542-.289a3.162 3.162 0 001.153-.809c.318-.348.558-.769.72-1.264a5.1 5.1 0 00.256-1.664v-9.603h2.983v9.603c0 .954-.156 1.838-.466 2.651a5.983 5.983 0 01-1.32 2.096 6.155 6.155 0 01-2.096 1.375c-.82.325-1.744.487-2.772.487-1.027 0-1.951-.162-2.772-.487a6.155 6.155 0 01-2.096-1.375 6.203 6.203 0 01-1.32-2.096 7.532 7.532 0 01-.454-2.651v-9.603h2.983v9.592c0 .614.081 1.168.244 1.664.17.495.41.92.72 1.275a3.19 3.19 0 001.143.809c.458.193.976.289 1.552.289zm12.764-3.859v6.265h-2.982v-16.035h4.89c1.094 0 2.029.115 2.805.344.784.222 1.423.536 1.919.943a3.58 3.58 0 011.097 1.464 4.74 4.74 0 01.355 1.862c0 .54-.081 1.05-.244 1.531a4.27 4.27 0 01-.687 1.308 4.48 4.48 0 01-1.11 1.031 5.694 5.694 0 01-1.496.71c.377.215.702.521.976.921l4.014 5.921h-2.684c-.258 0-.48-.052-.665-.155a1.375 1.375 0 01-.454-.444l-3.372-5.134a1.163 1.163 0 00-.421-.41c-.148-.082-.37-.122-.665-.122h-1.275zm0-2.14h1.863c.562 0 1.05-.071 1.464-.211.421-.141.765-.333 1.031-.577a2.35 2.35 0 00.61-.887c.133-.34.2-.713.2-1.12 0-.813-.27-1.438-.81-1.874-.532-.436-1.349-.654-2.45-.654h-1.907v5.323zm25.544 8.405h-2.306c-.259 0-.473-.063-.643-.188a1.167 1.167 0 01-.355-.488l-1.198-3.272h-6.642l-1.198 3.272c-.059.17-.177.325-.355.465a.957.957 0 01-.631.211h-2.318l6.298-16.035h3.05l6.298 16.035zm-10.379-6.055h5.112l-1.951-5.333a38.554 38.554 0 01-.3-.832 27.287 27.287 0 01-.31-1.053c-.104.377-.207.728-.31 1.053-.097.325-.193.61-.29.854l-1.95 5.311zm15.014 3.593h6.42v2.462h-9.403v-16.035h2.983v13.573zm-70.821 15.837c-.64 0-1.173-.213-1.6-.64-.427-.426-.64-1.066-.64-1.92 0-.666.127-1.313.38-1.94a6.58 6.58 0 011.04-1.72c.427-.506.9-.906 1.42-1.2.52-.306 1.033-.46 1.54-.46.547 0 .92.16 1.12.48.2.32.3.654.3 1 0 .387-.093.727-.28 1.02-.173.294-.413.44-.72.44-.227 0-.42-.1-.58-.3.2-.106.373-.32.52-.64.147-.333.22-.646.22-.94 0-.16-.033-.28-.1-.36-.053-.093-.167-.14-.34-.14-.36 0-.733.16-1.12.48-.373.32-.727.734-1.06 1.24a8.976 8.976 0 00-.8 1.6c-.2.56-.3 1.087-.3 1.58 0 .414.1.794.3 1.14.2.347.587.52 1.16.52.533 0 1.067-.146 1.6-.44.547-.293 1.053-.713 1.52-1.26a6.48 6.48 0 001.12-1.92l.26.2c-.307.8-.727 1.52-1.26 2.16a6.503 6.503 0 01-1.76 1.48c-.64.36-1.287.54-1.94.54z" fill="#121218"/><path d="M42.197 169.872c-.574 0-.98-.18-1.22-.54-.24-.346-.36-.773-.36-1.28 0-.413.067-.84.2-1.28a6.41 6.41 0 01.52-1.24c.226-.386.473-.7.74-.94.28-.24.56-.36.84-.36.12 0 .26.034.42.1-.12.107-.267.307-.44.6-.16.28-.313.607-.46.98-.147.36-.273.72-.38 1.08a3.77 3.77 0 00-.14.92c0 .4.066.694.2.88.133.174.306.26.52.26.28 0 .613-.146 1-.44a7.21 7.21 0 001.14-1.16 3.116 3.116 0 01-.88-1.2 4.16 4.16 0 01-.3-1.54c0-.44.073-.853.22-1.24.16-.386.386-.693.68-.92a1.62 1.62 0 011.06-.36c.546 0 .913.147 1.1.44.187.294.28.66.28 1.1 0 .52-.127 1.1-.38 1.74a10.317 10.317 0 01-.96 1.82c.24.134.493.2.76.2.306 0 .68-.1 1.12-.3.44-.213.78-.593 1.02-1.14l.24.2c-.267.627-.647 1.074-1.14 1.34-.48.254-.94.38-1.38.38-.36 0-.68-.066-.96-.2a7.25 7.25 0 01-1.5 1.5c-.533.4-1.053.6-1.56.6zm2.94-2.94a8.128 8.128 0 00.82-1.54c.227-.546.34-1.06.34-1.54 0-.386-.06-.666-.18-.84-.107-.186-.247-.28-.42-.28-.267 0-.54.194-.82.58-.28.387-.42.874-.42 1.46 0 .387.053.78.16 1.18.12.387.293.714.52.98z" fill="#121218"/><path d="M50.221 170.252c-.626 0-1.126-.14-1.5-.42-.36-.266-.613-.6-.76-1-.16-.4-.24-.8-.24-1.2 0-.4.054-.706.16-.92.107-.213.234-.373.38-.48a2.54 2.54 0 01.44-.24c.147-.053.247-.106.3-.16.4-.44.767-.9 1.1-1.38.334-.48.627-.986.88-1.52v-.24c0-.493.08-.84.24-1.04.174-.213.354-.32.54-.32.214 0 .32.087.32.26 0 .067-.02.174-.06.32-.04.147-.06.334-.06.56 0 .44.087.92.26 1.44.174.507.347 1.047.52 1.62.174.56.26 1.147.26 1.76 0 .347-.04.674-.12.98.467-.08.907-.286 1.32-.62.414-.346.814-.893 1.2-1.64l.18.2c-.253.734-.633 1.294-1.14 1.68a3.72 3.72 0 01-1.66.7c-.213.574-.553.994-1.02 1.26-.453.267-.966.4-1.54.4zm1.4-2a3.79 3.79 0 00.06-.42 7.347 7.347 0 00-.22-2.38 48.13 48.13 0 01-.38-1.76c-.306.507-.633.994-.98 1.46a9.846 9.846 0 01-.96 1.14c.2.427.507.827.92 1.2.427.374.947.627 1.56.76zm-1.36 1.3c.16 0 .374-.053.64-.16.267-.106.474-.38.62-.82a3.531 3.531 0 01-1.5-.66c-.426-.333-.746-.666-.96-1-.293.014-.44.247-.44.7 0 .48.14.927.42 1.34.294.4.7.6 1.22.6z" fill="#121218"/><path d="M65.096 169.852c-.467 0-.807-.146-1.02-.44-.213-.28-.32-.62-.32-1.02a3.7 3.7 0 01.14-1c.107-.333.207-.66.3-.98.107-.32.16-.606.16-.86 0-.266-.06-.453-.18-.56a.591.591 0 00-.4-.16c-.333 0-.7.26-1.1.78a52.34 52.34 0 00-1.52 2.2 6.47 6.47 0 00-.54.98c-.147.32-.287.614-.42.88-.107 0-.24-.013-.4-.04a1.515 1.515 0 01-.44-.14c-.12-.053-.18-.126-.18-.22 0-.093.06-.313.18-.66.133-.36.28-.773.44-1.24.173-.48.32-.96.44-1.44.133-.493.2-.913.2-1.26 0-.226-.04-.406-.12-.54-.067-.146-.193-.22-.38-.22-.293 0-.647.18-1.06.54-.413.347-.84.807-1.28 1.38a17.49 17.49 0 00-1.26 1.9c-.387.68-.7 1.36-.94 2.04-.187 0-.413-.046-.68-.14-.267-.093-.4-.186-.4-.28 0-.08.073-.313.22-.7.133-.4.293-.873.48-1.42.173-.56.327-1.126.46-1.7.147-.573.22-1.08.22-1.52.08-.093.207-.186.38-.28.173-.093.353-.14.54-.14.36 0 .54.174.54.52 0 .174-.053.474-.16.9a23.77 23.77 0 01-.36 1.38 18 18 0 01.9-1.3c.347-.453.707-.866 1.08-1.24a6.054 6.054 0 011.12-.9c.387-.24.76-.36 1.12-.36.413 0 .693.154.84.46.16.294.24.647.24 1.06 0 .334-.04.687-.12 1.06-.067.36-.147.7-.24 1.02a7.35 7.35 0 01-.26.74c.28-.506.587-.993.92-1.46a5.2 5.2 0 011.12-1.16c.4-.306.827-.46 1.28-.46.427 0 .72.127.88.38.173.254.26.554.26.9 0 .347-.06.727-.18 1.14-.12.414-.247.814-.38 1.2-.12.387-.18.72-.18 1 0 .174.04.334.12.48.093.134.253.2.48.2.373 0 .72-.166 1.04-.5.333-.346.64-.76.92-1.24.28-.493.52-.966.72-1.42l.24.28c-.213.56-.487 1.12-.82 1.68-.333.547-.727 1-1.18 1.36-.44.36-.927.54-1.46.54z" fill="#121218"/><path d="M70.106 170.112c-.814 0-1.427-.226-1.84-.68-.4-.44-.6-.986-.6-1.64 0-.6.146-1.233.44-1.9a8.336 8.336 0 011.2-1.88 6.884 6.884 0 011.66-1.42c.6-.373 1.193-.56 1.78-.56.306 0 .586.08.84.24.266.16.4.487.4.98 0 .507-.154.987-.46 1.44a4.5 4.5 0 01-1.18 1.18 7.03 7.03 0 01-1.6.86 6.656 6.656 0 01-1.72.4c-.027.134-.047.26-.06.38-.014.12-.02.234-.02.34 0 .414.106.8.32 1.16.226.347.646.52 1.26.52.573 0 1.14-.16 1.7-.48a6.72 6.72 0 001.56-1.3c.48-.533.886-1.12 1.22-1.76l.24.18c-.36.8-.82 1.494-1.38 2.08a6.166 6.166 0 01-1.8 1.36 4.19 4.19 0 01-1.96.5zm-.98-3.36c.36-.12.766-.293 1.22-.52.453-.24.886-.52 1.3-.84.426-.32.773-.673 1.04-1.06.28-.386.42-.793.42-1.22a.612.612 0 00-.08-.34c-.054-.08-.167-.12-.34-.12-.32 0-.66.127-1.02.38-.36.24-.707.56-1.04.96-.334.4-.634.84-.9 1.32-.267.48-.467.96-.6 1.44z" fill="#121218"/><path d="M76.306 170.152c-1.187 0-1.78-.66-1.78-1.98 0-.586.106-1.306.32-2.16.227-.866.507-1.753.84-2.66a5.05 5.05 0 00-.38-.06 2.435 2.435 0 01-.34-.1v-.36a19.924 19.924 0 00.88.08c.28-.72.58-1.413.9-2.08.32-.68.633-1.28.94-1.8.32-.533.62-.953.9-1.26.293-.32.54-.48.74-.48.107 0 .2.04.28.12.093.067.14.174.14.32 0 .227-.14.6-.42 1.12-.28.507-.627 1.114-1.04 1.82a28.46 28.46 0 00-1.2 2.3h.74c.44 0 .9-.006 1.38-.02a17.94 17.94 0 001.48-.1v.36c-1.454.16-2.627.24-3.52.24h-.3a17.698 17.698 0 00-.78 2.18 7.92 7.92 0 00-.32 2.18c0 .574.087.987.26 1.24.173.24.46.36.86.36.693 0 1.373-.306 2.04-.92.666-.613 1.253-1.446 1.76-2.5l.26.2a8.315 8.315 0 01-1.22 2.02 5.894 5.894 0 01-1.6 1.42c-.587.347-1.194.52-1.82.52z" fill="#121218"/><path d="M84.149 160.592c-.213 0-.407-.053-.58-.16-.16-.106-.24-.273-.24-.5 0-.28.16-.52.48-.72.333-.213.66-.32.98-.32.2 0 .36.047.48.14.12.094.18.254.18.48 0 .254-.14.5-.42.74-.267.227-.56.34-.88.34zm-2.4 9.16c-.52 0-.907-.166-1.16-.5-.253-.32-.38-.713-.38-1.18 0-.306.053-.693.16-1.16.12-.466.273-.953.46-1.46.187-.52.4-1.006.64-1.46a5 5 0 01.8-1.1c.28-.293.553-.44.82-.44.12 0 .22.04.3.12.093.067.14.174.14.32 0 .16-.107.42-.32.78-.2.36-.44.774-.72 1.24-.28.467-.527.96-.74 1.48-.2.507-.3.994-.3 1.46 0 .48.08.8.24.96.16.16.407.24.74.24.453 0 .933-.226 1.44-.68.52-.453 1.067-1.246 1.64-2.38l.18.2c-.387 1.147-.947 2.027-1.68 2.64-.72.614-1.473.92-2.26.92z" fill="#121218"/><path d="M87.273 170.352c-.64 0-1.173-.213-1.6-.64-.427-.426-.64-1.066-.64-1.92 0-.666.127-1.313.38-1.94a6.583 6.583 0 011.04-1.72c.427-.506.9-.906 1.42-1.2.52-.306 1.033-.46 1.54-.46.547 0 .92.16 1.12.48.2.32.3.654.3 1 0 .387-.093.727-.28 1.02-.173.294-.413.44-.72.44-.227 0-.42-.1-.58-.3.2-.106.373-.32.52-.64.147-.333.22-.646.22-.94 0-.16-.033-.28-.1-.36-.053-.093-.166-.14-.34-.14-.36 0-.733.16-1.12.48-.373.32-.727.734-1.06 1.24a8.976 8.976 0 00-.8 1.6c-.2.56-.3 1.087-.3 1.58 0 .414.1.794.3 1.14.2.347.587.52 1.16.52.533 0 1.067-.146 1.6-.44.547-.293 1.053-.713 1.52-1.26a6.478 6.478 0 001.12-1.92l.26.2c-.306.8-.727 1.52-1.26 2.16a6.502 6.502 0 01-1.76 1.48c-.64.36-1.286.54-1.94.54z" fill="#121218"/><path d="M93.698 170.252c-.627 0-1.127-.14-1.5-.42-.36-.266-.613-.6-.76-1-.16-.4-.24-.8-.24-1.2 0-.4.053-.706.16-.92.107-.213.233-.373.38-.48a2.54 2.54 0 01.44-.24c.147-.053.247-.106.3-.16.4-.44.767-.9 1.1-1.38.333-.48.627-.986.88-1.52v-.24c0-.493.08-.84.24-1.04.173-.213.353-.32.54-.32.213 0 .32.087.32.26 0 .067-.02.174-.06.32-.04.147-.06.334-.06.56 0 .44.087.92.26 1.44.173.507.347 1.047.52 1.62.173.56.26 1.147.26 1.76 0 .347-.04.674-.12.98.467-.08.907-.286 1.32-.62.413-.346.813-.893 1.2-1.64l.18.2c-.253.734-.633 1.294-1.14 1.68a3.72 3.72 0 01-1.66.7c-.213.574-.553.994-1.02 1.26-.453.267-.967.4-1.54.4zm1.4-2a3.79 3.79 0 00.06-.42 7.347 7.347 0 00-.22-2.38 48.34 48.34 0 01-.38-1.76c-.307.507-.633.994-.98 1.46a9.846 9.846 0 01-.96 1.14c.2.427.507.827.92 1.2.427.374.947.627 1.56.76zm-1.36 1.3c.16 0 .373-.053.64-.16.267-.106.473-.38.62-.82a3.531 3.531 0 01-1.5-.66c-.427-.333-.747-.666-.96-1-.293.014-.44.247-.44.7 0 .48.14.927.42 1.34.293.4.7.6 1.22.6zM4.933 100.125v.737H1.722v2.222h2.6v.709h-2.6v2.282h3.21v.737H.813v-6.687h4.12zm4.728 1.045a.398.398 0 01-.09.108.206.206 0 01-.12.033c-.053 0-.116-.027-.187-.08a2.305 2.305 0 00-.266-.172 1.933 1.933 0 00-.387-.178 1.643 1.643 0 00-.546-.079 1.58 1.58 0 00-.537.084 1.145 1.145 0 00-.392.219.918.918 0 00-.233.331 1.03 1.03 0 00-.08.406c0 .187.045.343.136.467.093.121.214.226.364.313.152.087.323.163.513.228.193.063.389.128.588.196.202.069.398.147.588.234.193.084.364.191.513.322.153.13.274.291.364.48.094.19.14.424.14.7 0 .293-.05.568-.15.826a1.874 1.874 0 01-.438.668 2.01 2.01 0 01-.704.448 2.571 2.571 0 01-.948.163 2.95 2.95 0 01-1.185-.233 2.823 2.823 0 01-.91-.639l.261-.43a.331.331 0 01.089-.084.213.213 0 01.121-.037c.066 0 .14.036.224.107.084.069.188.145.313.229.127.084.28.162.457.233.18.069.4.103.658.103.215 0 .406-.03.574-.089.168-.059.31-.141.425-.247.118-.109.208-.238.27-.388.063-.149.094-.315.094-.499a.814.814 0 00-.14-.494 1.1 1.1 0 00-.36-.327 2.48 2.48 0 00-.513-.22c-.19-.062-.386-.124-.588-.186a6.965 6.965 0 01-.588-.224 1.918 1.918 0 01-.508-.327c-.15-.134-.271-.3-.364-.499a1.83 1.83 0 01-.136-.747 1.8 1.8 0 01.136-.686c.093-.221.227-.417.4-.588.175-.171.39-.308.645-.41a2.38 2.38 0 01.887-.155c.373 0 .714.06 1.022.178.308.118.577.289.807.513l-.22.429zm6.078-1.045v.761h-2.16v5.926h-.906v-5.926h-2.17v-.761h5.236zm105.886-.059c.277 0 .537.041.778.124.241.082.449.203.622.361.177.156.316.347.417.573.101.225.151.482.151.769 0 .244-.036.47-.11.677a2.792 2.792 0 01-.297.6c-.125.189-.27.374-.435.554-.162.177-.334.359-.518.545l-1.725 1.767c.122-.034.245-.06.37-.078a2.19 2.19 0 01.362-.032h2.198c.088 0 .158.026.21.078a.272.272 0 01.078.201v.495h-4.377v-.28c0-.058.011-.117.032-.178a.503.503 0 01.115-.169l2.101-2.111c.174-.177.333-.346.476-.508.144-.165.266-.33.366-.495a2.23 2.23 0 00.239-.499c.054-.171.082-.352.082-.544 0-.193-.031-.361-.092-.504a.983.983 0 00-.251-.362 1.028 1.028 0 00-.376-.21 1.416 1.416 0 00-.462-.074 1.38 1.38 0 00-.458.074 1.24 1.24 0 00-.65.512 1.259 1.259 0 00-.156.394.356.356 0 01-.11.192.292.292 0 01-.192.06h-.05a1.277 1.277 0 00-.055-.009l-.426-.073c.043-.3.125-.564.247-.792.122-.232.276-.426.463-.582.189-.156.404-.273.645-.352.244-.083.507-.124.788-.124zm7.595 3.356c0 .574-.062 1.071-.187 1.492-.122.418-.29.765-.504 1.039-.214.275-.467.48-.76.614-.29.134-.601.201-.934.201-.336 0-.648-.067-.938-.201a2.047 2.047 0 01-.751-.614c-.214-.274-.382-.621-.504-1.039-.122-.421-.183-.918-.183-1.492s.061-1.072.183-1.493c.122-.421.29-.769.504-1.044.214-.277.464-.483.751-.618.29-.134.602-.201.938-.201.333 0 .644.067.934.201.293.135.546.341.76.618.214.275.382.623.504 1.044.125.421.187.919.187 1.493zm-.847 0c0-.501-.042-.92-.128-1.259-.082-.342-.195-.617-.339-.824a1.233 1.233 0 00-.489-.444 1.3 1.3 0 00-1.163 0c-.186.088-.35.236-.49.444-.14.207-.253.482-.339.824-.082.339-.123.758-.123 1.259 0 .5.041.92.123 1.259.086.339.199.612.339.819.14.208.304.357.49.449a1.345 1.345 0 001.163 0 1.28 1.28 0 00.489-.449c.144-.207.257-.48.339-.819.086-.339.128-.759.128-1.259zm3.874-3.356c.278 0 .537.041.779.124.241.082.448.203.622.361.177.156.316.347.417.573.101.225.151.482.151.769 0 .244-.037.47-.11.677a2.75 2.75 0 01-.298.6c-.125.189-.27.374-.435.554-.161.177-.334.359-.517.545l-1.726 1.767c.122-.034.246-.06.371-.078a2.19 2.19 0 01.362-.032h2.197c.089 0 .159.026.211.078a.272.272 0 01.078.201v.495h-4.377v-.28c0-.058.011-.117.032-.178a.5.5 0 01.114-.169l2.102-2.111c.174-.177.332-.346.476-.508.143-.165.265-.33.366-.495.104-.164.183-.331.238-.499.055-.171.083-.352.083-.544 0-.193-.031-.361-.092-.504a.973.973 0 00-.627-.572 1.427 1.427 0 00-.463-.074c-.164 0-.317.025-.457.074a1.235 1.235 0 00-.65.512 1.212 1.212 0 00-.156.394.356.356 0 01-.11.192.294.294 0 01-.192.06h-.051a.908.908 0 00-.055-.009l-.425-.073c.042-.3.125-.564.247-.792.122-.232.276-.426.462-.582.19-.156.405-.273.646-.352.244-.083.506-.124.787-.124zm-12.06 17.011h1.41v-4.473c0-.134.005-.27.014-.407l-1.172 1.002a.345.345 0 01-.092.055.303.303 0 01-.087.014.274.274 0 01-.123-.027.253.253 0 01-.083-.074l-.256-.352 1.95-1.689h.664v5.951h1.291v.623h-3.516v-.623z" fill="#121218"/><path d="M33.958 66.065c-.531 10.375.788 20.948 4.804 30.53 4.015 9.582 10.843 18.127 19.834 23.334 3.263 1.89 6.889 3.355 10.66 3.388 2.712.023 5.39-.699 7.882-1.769 12.693-5.441 19.921-19.282 22.26-32.89 2.336-13.609.795-27.552 1.303-41.35" stroke="#868C96" stroke-width="1.333" stroke-miterlimit="10" stroke-linecap="round" stroke-linejoin="round"/><path d="M29.527 59.701c5.149-5.632 12.588-9.108 20.213-9.443 7.625-.335 15.341 2.473 20.966 7.631 3.772 3.46 6.65 9.26 3.868 13.557-.348.538-.92 1.079-1.543.925-.334-.082-.588-.35-.808-.616-2.614-3.165-3.128-7.697-2.112-11.674 1.014-3.976 3.38-7.478 6.036-10.609 8.737-10.3 21.882-17.59 35.349-16.527" stroke="#868C96" stroke-width="1.333" stroke-miterlimit="10" stroke-linecap="round" stroke-linejoin="round"/><path d="M84.677 42.313c-.6-5.12-1.17-10.498.773-15.273.285-.7.639-1.401 1.226-1.878.587-.476 1.46-.67 2.11-.288.586.345.854 1.047.972 1.714.334 1.877-.183 3.793-.765 5.608-1.07 3.338-2.375 6.602-4.316 10.117z" stroke="#868C96" stroke-width="1.333" stroke-miterlimit="10" stroke-linecap="round" stroke-linejoin="round"/><path d="M82.981 42.821a18.296 18.296 0 0112.288-1.563c.874.199 1.923.704 1.882 1.601-.023.488-.385.893-.771 1.191-2.02 1.57-4.887 1.358-7.373.753-2.07-.504-4.082-1.224-6.026-1.982zm14.92-9.329c.141-1.9.303-3.872 1.25-5.526.946-1.654 2.92-2.885 4.748-2.347.319.093.633.244.841.503.541.674.132 1.673-.354 2.387-1.545 2.27-3.778 4.064-6.484 4.983zm-.853 1.955c3.658-.137 7.783-.099 10.348 2.512.764.778 1.231 2.253.3 2.817-.312.189-.695.204-1.06.213-1.986.052-4.253-.014-5.551-1.52-1-1.161-1.49-3.165-4.037-4.022zM58.531 50.874a58.2 58.2 0 01-5.196-9.168c-.684-1.512-1.308-3.25-.684-4.79.094-.227.222-.455.436-.576.37-.212.836-.03 1.2.19 2.2 1.33 3.352 3.924 3.709 6.469.355 2.545.048 5.13.535 7.875zm.397-.01c-3.841 1.746-8.027 3.843-9.573 7.768-.406 1.03-.598 2.186-.27 3.242.328 1.056 1.268 1.965 2.372 2.017 1.732.08 2.867-1.734 3.59-3.31 1.469-3.2 2.842-6.441 3.881-9.717zm-13.164.909l-7.01-3.509c-.79-.395-1.6-.803-2.21-1.443-.61-.64-.994-1.57-.756-2.42.388-1.38 2.231-1.876 3.562-1.347 1.33.53 2.248 1.739 3.096 2.892 1.588 2.163 3.177 4.324 3.318 5.827z" stroke="#868C96" stroke-width="1.333" stroke-miterlimit="10" stroke-linecap="round" stroke-linejoin="round"/><path d="M45.345 51.184c-2.336 1.063-4.561 2.57-5.913 4.748-1.352 2.18-1.665 5.127-.287 7.291.18.284.416.57.743.642.274.062.557-.037.81-.155 2.071-.974 3.192-3.243 3.853-5.434.742-2.457 1.106-5.027.794-7.092zm-.013 27.603c3.816-2.343 8.688-2.106 13.04-1.047 1.784.434 3.578 1.014 5.04 2.127 1.46 1.113 2.55 2.85 2.456 4.652.954 5.603-1.069 11.464.288 16.983.151.614.36 1.244.811 1.684.787.765 2.045.728 3.117.497 1.072-.231 2.175-.604 3.24-.339m1.806-25.779a9.222 9.222 0 015.89-3.56 9.223 9.223 0 016.7 1.574m32.826 35.837c-.299 5.445-.598 10.891-.895 16.335" stroke="#868C96" stroke-width="1.333" stroke-miterlimit="10" stroke-linecap="round" stroke-linejoin="round"/><path d="M112.263 122.318c5.074-.007 10.149-.014 15.222-.023m-4.029-3.27l-8.507 7.832m.672-9.623l8.283 8.056M12.28 66.977c-.468 6.653-.938 13.306-1.408 19.958" stroke="#868C96" stroke-width="1.333" stroke-miterlimit="10" stroke-linecap="round" stroke-linejoin="round"/><path d="M3.613 77.574c4.752-.091 9.503-.18 14.255-.272m-1.903-5.287L7.472 82.763m.093-9.868a62.733 62.733 0 009.19 8.49" stroke="#868C96" stroke-width="1.333" stroke-miterlimit="10" stroke-linecap="round" stroke-linejoin="round"/><path d="M29.527 112.082c-1.088 0-1.86.415-2.368 1.008-.522.607-.799 1.438-.8 2.294 0 .856.276 1.687.797 2.293.509.592 1.28 1.007 2.371 1.007 1.088 0 1.86-.415 2.37-1.007.52-.607.797-1.438.798-2.294 0-.856-.276-1.687-.797-2.293-.508-.592-1.28-1.008-2.37-1.008zM27.644 95.73c-.19 0-.29.067-.35.137a.585.585 0 00-.124.378.58.58 0 00.124.376c.06.07.158.137.35.137.191 0 .29-.066.35-.137a.586.586 0 00.125-.377.583.583 0 00-.124-.377c-.06-.07-.159-.136-.35-.136zm42.662-65.496c-.19 0-.29.067-.35.137a.585.585 0 00-.124.378.58.58 0 00.124.376c.06.07.158.137.35.137.191 0 .29-.067.35-.137a.586.586 0 00.125-.377.584.584 0 00-.124-.377c-.06-.07-.159-.137-.35-.137zm-50.381 15.26l-.026-.05-.017-.053a.214.214 0 00-.063-.097l-.018-.016-.017-.019a.233.233 0 00-.102-.065l-.05-.017-.047-.024a.23.23 0 00-.1-.027l-.219.03a.5.5 0 00-.168.098l-.121.157a.512.512 0 00-.055.231v.386a.23.23 0 00.026.122l.025.048.017.051a.22.22 0 00.065.1l.018.018.017.018c.03.032.06.052.101.065l.051.017.048.025c.03.016.062.025.1.026l.115-.016.103-.014a.5.5 0 00.17-.099l.12-.155a.518.518 0 00.054-.232v-.386a.232.232 0 00-.027-.122zm103.797 6.483h-.024a.221.221 0 00-.119.024l-.051.027-.056.018a.21.21 0 00-.094.061l-.019.021-.021.02a.201.201 0 00-.061.092l-.018.054-.026.051a.224.224 0 00-.026.097l.03.22a.505.505 0 00.099.167l.156.121a.512.512 0 00.232.055h.386a.234.234 0 00.123-.027l.048-.024.051-.017a.234.234 0 00.103-.068l.015-.016.015-.014a.24.24 0 00.068-.103l.017-.051.025-.048a.23.23 0 00.026-.099l-.029-.218a.494.494 0 00-.1-.169l-.044-.034-.112-.087a.507.507 0 00-.23-.053h-.364zm-4.52 25.353c-1.33 0-2.284.51-2.914 1.244-.643.748-.981 1.768-.981 2.812-.001 1.045.336 2.064.978 2.812.63.734 1.584 1.243 2.917 1.243 1.331 0 2.285-.51 2.916-1.243.642-.748.98-1.768.981-2.813 0-1.044-.337-2.064-.979-2.811-.63-.734-1.584-1.243-2.918-1.243zm-18.464 45.473c-.191 0-.29.067-.35.137a.585.585 0 00-.125.377c0 .159.052.294.124.377.06.07.159.137.351.137.191 0 .289-.067.35-.137a.584.584 0 00.124-.377.584.584 0 00-.124-.377c-.06-.07-.158-.137-.35-.137z" fill="#868C96" stroke="#868C96" stroke-width="1.333"/></svg>