<svg width="194" height="173" fill="none" xmlns="http://www.w3.org/2000/svg"><path d="M54.763 98.897c2.379-4.825 4.473-9.796 6.05-14.977.042-.14.05-.282.034-.42a4.896 4.896 0 00.904.043c1.554-.083 3.008-.933 3.794-2.222.97-1.59.91-3.313-.166-4.725-1.296-1.7-3.782-2.552-5.784-1.98-1.706.488-2.793 1.915-2.98 3.918-.05.529-.077 1.226.161 1.923.18.524.505 1.027.965 1.493.394.399.85.73 1.34.986a.997.997 0 00-.23.387c-1.43 4.7-3.3 9.243-5.432 13.666-1.448-1.25-3.375-1.622-5.207-.962-2.11.76-3.502 2.72-3.547 4.993-.045 2.32 1.292 4.6 3.438 5.989-1.813 3.177-3.694 6.307-5.574 9.402a136.093 136.093 0 00-2.334-9.924c-3.09-12.915-2.41-29.112 1.792-42.348a97.347 97.347 0 012.627-7.242c.06.153.11.306.183.461.806 1.726 1.948 2.831 3.3 3.199.33.09.673.134 1.02.134 1.053 0 2.15-.404 3.078-1.156 1.57-1.273 2.388-3.322 2.085-5.222-.148-.93-.54-1.72-1.131-2.284-.458-.436-1.055-.759-1.827-.984-1.363-.398-2.764-.367-4.032-.175a116.24 116.24 0 013.805-7.21c.091.004.186.016.276.016.476 0 .925-.062 1.346-.184 1.194-.348 2.247-1.249 2.816-2.409.533-1.088.654-2.364.341-3.594a3.791 3.791 0 00-.388-.953 151.64 151.64 0 013.664-5.301c.344.09.684.137.98.163.337.03.66.046.967.046 1.614 0 2.843-.414 3.74-1.254.989-.927 1.4-2.24 1.13-3.608-.317-1.596-1.495-2.994-3.001-3.562-1.109-.42-2.198-.357-3.15.175-1.907 1.07-2.51 3.523-2.648 4.248v.001c-.122.634-.325 1.695.245 2.61l.032.041a153.042 153.042 0 00-3.454 4.989c-.935-.538-2.286-.914-4.24-.944h-.002c-.653-.006-1.623.033-2.52.502-1.808.95-2.593 3.464-1.713 5.491.6 1.385 1.866 2.49 3.47 3.086a116.034 116.034 0 00-4.24 8.245l-.024.007-.18.056a19.074 19.074 0 00-2.195-2.734v-.001c-1.349-1.388-2.657-2.125-3.997-2.25-2.06-.202-4.097 1.208-4.637 3.194-.543 1.997.559 4.275 2.456 5.078.862.364 1.847.46 3.101.304 1.518-.189 2.953-.66 4.34-1.126a100.464 100.464 0 00-3.577 9.527c-3.08 9.706-4.305 20.968-3.599 31.447A137.01 137.01 0 0034.1 89.11a158.976 158.976 0 00-1.826-4.078c1.757-.82 3.163-2.648 3.75-4.138.787-1.995.556-4.244-.602-5.868-.617-.867-1.412-1.301-2.24-1.206-.832.09-1.5.663-1.988 1.709-.683 1.466-1.007 3.02-1.3 4.538a680.428 680.428 0 00-2.987-5.992 965.655 965.655 0 01-1.972-3.932c1.268.126 2.663-.248 4.217-1.454 1.382-1.075 1.905-3.068 1.398-5.333-.382-1.71-1.206-2.881-2.384-3.39-2.074-.897-4.325.61-5.303 2.582-.306.619-.518 1.256-.705 1.884-1.797-3.81-3.488-7.684-4.896-11.626-1.747-4.885-3.356-10.85-3.89-17.184a6.662 6.662 0 003.128.79c.697 0 1.384-.114 2.022-.346 1.809-.658 3.213-2.44 3.493-4.435.247-1.748-.404-3.325-1.786-4.329-1.489-1.084-3.864-1.099-5.556-.633a6.456 6.456 0 00-1.309.515c.33-3.66 1.133-7.34 2.568-10.911.32.113.652.189 1.006.189.824 0 1.721-.306 2.598-.9.399-.271.971-.704 1.345-1.351.716-1.239.635-2.506-.22-3.474-1.136-1.283-3.54-1.758-5.25-1.034-1.334.565-2.035 1.726-1.922 3.183.044.56.236 1.11.605 1.738.059.1.121.183.182.274-4.046 9.577-3.656 19.874-1.774 28.711-1.767-.957-4.228.044-5.421 1.103-.915.812-1.567 1.97-1.835 3.26-.194.93-.135 1.746.175 2.428.191.418.49.814.89 1.173.976.876 2.305 1.33 3.729 1.33a7.31 7.31 0 002.794-.573c.38-.157.87-.391 1.276-.802.146-.15.274-.315.385-.496.273.846.552 1.671.836 2.464 1.288 3.602 2.799 7.134 4.408 10.606-1.088-1.056-2.231-2.025-3.53-2.466-2.01-.683-4.134-.434-5.683.662-1.808 1.277-2.582 3.684-1.802 5.6.526 1.29 1.695 2.344 3.475 3.13 1.48.654 2.939.986 4.304.986.644 0 1.267-.074 1.86-.222 1.512-.376 2.886-1.272 3.872-2.48.942 1.913 1.895 3.81 2.841 5.686a499.327 499.327 0 014 8.071 23.414 23.414 0 01-.885-.363c-.608-.262-1.237-.533-1.913-.716a17.739 17.739 0 00-4.957-.631c-.674.009-1.464.06-2.206.379-1.714.734-2.48 2.499-2.819 3.85-.34 1.354-.527 3.309.516 4.933.896 1.396 2.63 2.27 4.47 2.27.084 0 .168-.002.252-.007 1.518-.066 3.069-.667 4.608-1.787a13.572 13.572 0 004.248-5.156 153.8 153.8 0 011.827 4.078 133.824 133.824 0 015.987 17.056c.02.08.034.163.054.243l.023.053a133.997 133.997 0 013.658 52.813l2.034.263a136.011 136.011 0 00-.877-40.948l.061-.076c2.289-3.761 4.6-7.567 6.811-11.448.314.079.62.126.916.126.14 0 .278-.01.415-.027 1.512-.191 2.721-1.275 3.405-3.053.74-1.926.718-4.318.059-6.024zm8.681-3.164c-.538 1.035-.755 2.189-.61 3.25.166 1.223.805 2.312 1.751 2.99.553.395 1.236.669 2.03.813.356.064.712.095 1.061.095 1.558 0 2.994-.621 3.838-1.707 1.017-1.308 1.059-2.961 1.019-4.407-.058-2.11-1.177-3.617-2.993-4.034-2.272-.518-4.949.795-6.096 3zM6.722 21.072a2.902 2.902 0 00-.08-.928c-.374-1.553-1.795-2.71-3.38-2.754-1.377.01-2.488.805-2.906 2.2-.365 1.22.098 2.623 1.126 3.415.588.454 1.32.688 2.061.688.49 0 .982-.102 1.439-.31.99-.452 1.657-1.336 1.74-2.311zM24.951 6.027a4.39 4.39 0 001.687.362c.23 0 .455-.02.675-.064.984-.197 1.797-.854 2.123-1.718.353-.94.075-1.889-.109-2.516C28.929.735 27.883-.052 26.595.038c-1.614.112-3.124 1.53-3.365 3.16-.087.588-.015 1.114.214 1.565.279.548.772.962 1.507 1.264zm34.407 12.209c.597.479 1.383.753 2.27.793.076.004.152.005.228.005 1.366 0 2.664-.564 3.51-1.537.997-1.15 1.264-2.813.663-4.135-.952-2.096-3.792-2.046-5.411-1.354-1.18.504-2.068 1.502-2.375 2.667-.347 1.315.101 2.745 1.115 3.56z" fill="#868C96"/><path d="M113.73 13.963c-11.413 0-22.43 2.367-32.743 7.035L82 23.238c9.993-4.522 20.669-6.816 31.729-6.816 42.481 0 77.043 34.561 77.043 77.043 0 42.482-34.562 77.044-77.043 77.044-21.75 0-42.592-9.263-57.184-25.415l-1.825 1.648c15.057 16.668 36.565 26.227 59.009 26.227 43.838 0 79.502-35.664 79.502-79.504 0-43.838-35.664-79.502-79.502-79.502z" fill="#121218"/><path d="M77.319 63.48v-4.013h3.096c.871 0 1.541.176 2.016.528.475.352.71.851.71 1.5s-.232 1.14-.698 1.48c-.466.337-1.135.506-2.004.506h-3.12zm0-9.887h2.91c.87 0 1.516.165 1.934.496.42.33.628.8.628 1.407s-.212 1.073-.64 1.396c-.427.324-1.051.486-1.873.486h-2.96v-3.785zm7.79 11.201c.925-.71 1.388-1.679 1.388-2.906 0-.883-.3-1.651-.897-2.307-.6-.655-1.395-1.072-2.389-1.25.87-.18 1.572-.56 2.109-1.14.536-.578.803-1.323.803-2.233 0-1.172-.447-2.083-1.34-2.731-.893-.648-2.17-.972-3.831-.972h-6.919v14.604h7.058c1.754 0 3.095-.355 4.018-1.064zm24.972-3.744a4.167 4.167 0 01-1.712 1.665c-.73.386-1.575.58-2.538.58-.963 0-1.809-.194-2.54-.58a4.158 4.158 0 01-1.711-1.664c-.413-.725-.617-1.57-.617-2.535 0-.966.204-1.81.617-2.534.41-.725.98-1.279 1.711-1.666.731-.386 1.577-.58 2.54-.58.963 0 1.808.195 2.538.58a4.174 4.174 0 011.712 1.666c.413.724.618 1.568.618 2.535 0 .964-.205 1.809-.618 2.534zm-.068-9.05c-1.251-.635-2.644-.952-4.182-.952-1.537 0-2.932.317-4.181.952-1.251.634-2.236 1.52-2.959 2.658-.723 1.138-1.083 2.424-1.083 3.858 0 1.434.36 2.723 1.083 3.869.723 1.145 1.708 2.033 2.959 2.668 1.249.635 2.644.952 4.181.952 1.538 0 2.931-.317 4.182-.952 1.249-.635 2.236-1.523 2.958-2.668.721-1.146 1.083-2.435 1.083-3.868 0-1.435-.362-2.72-1.083-3.86-.722-1.137-1.709-2.023-2.958-2.657zm27.009-.745h-12.346v2.317h4.52v12.287h3.282V53.572h4.544v-2.317zm15.419 9.454l2.423-6.165 2.423 6.165h-4.846zM153 51.42l-6.055 14.44h3.471l1.163-2.938h6.593l1.141 2.937h3.472l-6.034-14.439H153zm-43.722 44.047h3.285V80.863h-3.285v10.012l-7.361-10.012h-3.284v14.604h3.284v-9.93l7.361 9.93zm22.595-14.604h-3.284v14.604h3.284V80.863zm-54.566 43.393c1.203.628 2.588.941 4.157.941 2.05 0 3.752-.468 5.103-1.406 1.35-.938 2.243-2.214 2.678-3.827h-3.447a4.145 4.145 0 01-1.666 1.861c-.754.455-1.66.683-2.714.683-.87 0-1.653-.194-2.354-.58a4.04 4.04 0 01-1.63-1.654c-.387-.716-.582-1.551-.582-2.503 0-.965.195-1.807.583-2.525a4.058 4.058 0 011.629-1.654c.7-.386 1.484-.579 2.354-.579 1.055 0 1.96.228 2.714.682a4.142 4.142 0 011.666 1.862h3.447c-.435-1.613-1.327-2.889-2.678-3.826-1.351-.939-3.053-1.408-5.102-1.408-1.584 0-2.976.315-4.17.942-1.197.628-2.124 1.507-2.785 2.638-.658 1.13-.989 2.419-.989 3.868 0 1.434.33 2.717.989 3.847.66 1.131 1.591 2.011 2.797 2.638zm28.01-4.333l2.422-6.165 2.424 6.165h-4.846zm.558-9.289l-6.055 14.439h3.471l1.163-2.937h6.593l1.141 2.937h3.472l-6.033-14.439h-3.752zm30.611 12.206h-5.521v-12.371h-3.285v14.604h8.806v-2.233zm21.943.299a3.638 3.638 0 00.628-2.059c0-.937-.234-1.696-.699-2.275a4.437 4.437 0 00-1.689-1.304c-.66-.289-1.518-.599-2.574-.93-.761-.22-1.363-.42-1.806-.6a3.304 3.304 0 01-1.095-.693 1.437 1.437 0 01-.43-1.065c0-.538.186-.948.558-1.232.372-.282.863-.423 1.467-.423.701 0 1.252.169 1.656.507.402.338.652.768.745 1.293h3.541c-.141-1.241-.727-2.235-1.76-2.98-1.033-.745-2.418-1.117-4.157-1.117-1.678 0-3.025.363-4.042 1.086-1.017.725-1.525 1.715-1.525 2.969 0 .91.228 1.648.686 2.214a4.535 4.535 0 001.666 1.293c.652.296 1.491.596 2.516.9a22.69 22.69 0 011.864.62c.45.179.822.418 1.118.714.295.296.443.672.443 1.127 0 .51-.184.928-.549 1.252-.364.324-.888.485-1.571.485-.763 0-1.371-.196-1.829-.589a2.266 2.266 0 01-.803-1.479h-3.495c.078.883.392 1.655.943 2.316.552.663 1.285 1.17 2.201 1.522.917.351 1.958.527 3.121.527 1.181 0 2.182-.19 3.007-.57.822-.378 1.443-.881 1.864-1.509zm-81.441 16.213H75.79v-2.199h1.2c.546 0 .94.094 1.183.283.24.19.36.462.36.827 0 .724-.515 1.089-1.544 1.089zm.025-2.474h-1.594v4.856h.37v-2.11h1.224c.618 0 1.088-.112 1.413-.345.322-.233.484-.574.484-1.016 0-.438-.156-.778-.468-1.02-.313-.244-.789-.365-1.43-.365zm6.275 0v2.985c0 .646.182 1.128.546 1.444.362.316.855.476 1.474.476.612 0 1.098-.16 1.457-.476.358-.316.538-.798.538-1.444v-2.985h-.378v2.985c0 .564-.144.977-.43 1.239-.289.258-.683.389-1.187.389-.51 0-.912-.131-1.208-.389-.296-.262-.444-.675-.444-1.239v-2.985h-.368zm10.337 2.537h-1.223v-2.255h1.223c.542 0 .934.096 1.178.296.245.194.365.471.365.836 0 .749-.515 1.123-1.543 1.123zm1.913-1.133c0-.433-.154-.773-.464-1.026-.308-.253-.785-.378-1.425-.378H92.03v4.856h.37v-2.066h1.083l1.676 2.066h.428l-1.701-2.076c.536-.029.947-.165 1.229-.399.282-.238.422-.564.422-.977zm7.433-1.143v-.261h-2.957v4.856h2.957v-.262h-2.586v-2.047h2.34v-.248h-2.34v-2.038h2.586zm10.214 4.595h.371v-4.327l3.382 4.327h.371v-4.849h-.371v4.324l-3.382-4.324h-.371v4.849zm9.535-1.517l1.265-2.829 1.257 2.829h-2.522zm1.059-3.208l-2.142 4.725h.41l.567-1.259h2.742l.559 1.259h.402l-2.126-4.725h-.412zm8.399 4.725v-4.595h1.667v-.261h-3.703v.261h1.66v4.595h.376zm5.889-4.856v2.985c0 .646.182 1.128.546 1.444.363.316.855.476 1.474.476.612 0 1.098-.16 1.457-.476.358-.316.539-.798.539-1.444v-2.985h-.379v2.985c0 .564-.144.977-.43 1.239-.288.258-.683.389-1.187.389-.509 0-.911-.131-1.208-.389-.296-.262-.444-.675-.444-1.239v-2.985h-.368zm10.339 2.537h-1.223v-2.255h1.223c.542 0 .934.096 1.179.296.244.194.364.471.364.836 0 .749-.514 1.123-1.543 1.123zm1.913-1.133c0-.433-.154-.773-.464-1.026-.308-.253-.785-.378-1.425-.378h-1.618v4.856h.371v-2.066h1.083l1.675 2.066h.429l-1.702-2.076c.536-.029.947-.165 1.229-.399.282-.238.422-.564.422-.977zm7.431-1.143v-.261h-2.957v4.856h2.957v-.262h-2.587v-2.047h2.341v-.248h-2.341v-2.038h2.587zm-11.846-51.193h2.955v-.262h-2.586v-2.046h2.34v-.247h-2.34v-2.04h2.586v-.262h-2.955v4.857zm8.901-4.65c.41 0 .734.09.968.265.236.177.38.374.437.59h.394c-.072-.303-.261-.563-.563-.782-.304-.218-.716-.327-1.236-.327-.515 0-.917.112-1.208.337-.29.225-.434.512-.434.861 0 .285.074.514.226.689.15.174.335.304.553.388.22.086.512.175.878.266.347.088.619.17.819.248.198.078.369.191.504.337.136.148.204.343.204.586 0 .28-.108.514-.328.703-.218.189-.53.283-.934.283-.319 0-.587-.054-.805-.16a1.276 1.276 0 01-.499-.391 1.137 1.137 0 01-.207-.455h-.387c.028.225.124.433.288.627.164.193.385.345.665.461.278.115.597.172.952.172.373 0 .681-.06.927-.18.246-.118.429-.273.543-.464a1.14 1.14 0 00.172-.603c0-.302-.078-.543-.234-.723a1.479 1.479 0 00-.571-.403 7.129 7.129 0 00-.894-.272 6.487 6.487 0 01-.793-.237 1.338 1.338 0 01-.489-.325c-.132-.14-.196-.324-.196-.554 0-.298.112-.529.341-.692.226-.163.53-.245.907-.245zm9.698-.206h-3.704v.26h1.66v4.596h.376V81.35h1.668v-.26zm-18.878 14.494v.213h3.891v-.26h-3.317c.488-.245.97-.545 1.449-.904a6.262 6.262 0 001.203-1.16c.325-.415.485-.821.485-1.216 0-.459-.16-.801-.477-1.026-.316-.226-.722-.338-1.215-.338-.553 0-.999.142-1.338.427-.34.285-.528.684-.567 1.198h.362c.032-.412.176-.742.431-.988.254-.246.62-.369 1.096-.369.47 0 .811.103 1.019.31.208.207.312.476.312.806 0 .51-.302 1.048-.904 1.615-.603.568-1.413 1.132-2.43 1.692zm11.597-3.383c.08.313.121.699.121 1.158 0 .464-.041.853-.121 1.167a1.357 1.357 0 01-.458.75c-.228.187-.551.28-.965.28-.422 0-.746-.093-.975-.28a1.363 1.363 0 01-.458-.75 4.816 4.816 0 01-.12-1.167c0-.46.04-.845.12-1.158a1.33 1.33 0 01.458-.74c.229-.182.553-.272.975-.272.414 0 .737.09.965.272.227.181.38.428.458.74zm-2.93-.66c-.276.426-.415 1.032-.415 1.818 0 .795.139 1.407.415 1.839.276.432.779.647 1.507.647.723 0 1.221-.215 1.498-.647.276-.432.414-1.044.414-1.839 0-.786-.136-1.392-.41-1.818-.273-.428-.775-.641-1.502-.641-.728 0-1.231.213-1.507.64zm7.333 4.043v.213h3.891v-.26h-3.317c.488-.245.97-.545 1.449-.904a6.262 6.262 0 001.203-1.16c.325-.415.485-.821.485-1.216 0-.459-.16-.801-.477-1.026-.316-.226-.722-.338-1.215-.338-.553 0-.999.142-1.338.427-.34.285-.528.684-.567 1.198h.362c.032-.412.176-.742.431-.988.254-.246.62-.369 1.096-.369.47 0 .811.103 1.019.31.208.207.312.476.312.806 0 .51-.302 1.048-.904 1.615-.603.568-1.413 1.132-2.43 1.692zm9.44.22v-4.856h-1.256v.289h.87v4.567h.386z" fill="#121218"/></svg>