<svg width="15" height="24" viewBox="0 0 15 24" fill="none" xmlns="http://www.w3.org/2000/svg">
<path d="M7.5 0C3.36917 0 0 3.62736 0 8.07477C0 9.33622 0.475 10.7843 1.12 12.3643C1.76417 13.9451 2.595 15.6238 3.4375 17.1867C4.49907 19.1476 5.62847 21.0651 6.82333 22.935L7.5 24L8.1775 22.9341C8.1775 22.9341 9.87667 20.317 11.5625 17.1867C12.4058 15.6238 13.2358 13.9451 13.88 12.3643C14.525 10.7843 15 9.33622 15 8.07477C15 3.62736 11.6308 0 7.5 0ZM7.5 1.79439C10.7325 1.79439 13.3333 4.59454 13.3333 8.07477C13.3333 8.79252 12.975 10.1527 12.37 11.6357C11.7642 13.1179 10.9283 14.7616 10.1042 16.2895C8.79583 18.7218 7.98167 20.0084 7.5 20.7755C7.01833 20.0084 6.20417 18.7218 4.89583 16.2895C4.0725 14.7616 3.23583 13.1179 2.63 11.6357C2.025 10.1527 1.66667 8.79252 1.66667 8.07477C1.66667 4.59454 4.2675 1.79439 7.5 1.79439ZM7.5 6.28037C7.05797 6.28037 6.63405 6.46943 6.32149 6.80594C6.00893 7.14245 5.83333 7.59886 5.83333 8.07477C5.83333 8.55067 6.00893 9.00708 6.32149 9.34359C6.63405 9.68011 7.05797 9.86916 7.5 9.86916C7.94203 9.86916 8.36595 9.68011 8.67851 9.34359C8.99107 9.00708 9.16667 8.55067 9.16667 8.07477C9.16667 7.59886 8.99107 7.14245 8.67851 6.80594C8.36595 6.46943 7.94203 6.28037 7.5 6.28037Z" fill="#B92427"/>
</svg>
