<svg width="13" height="16" viewBox="0 0 13 16" fill="none" xmlns="http://www.w3.org/2000/svg">
<path d="M8.26485 10.8635L8.29958 10.8559L8.16952 10.7563C8.23856 10.7505 8.30448 10.7459 8.36732 10.7426L8.34341 10.8914C8.3174 10.8825 8.2912 10.8732 8.26485 10.8635ZM4.1662 12.5316C4.15999 12.5289 4.14386 12.5189 4.13051 12.4949C4.12702 12.4884 4.12427 12.4822 4.12222 12.4767C4.12427 12.4702 4.12668 12.4634 4.1295 12.4563L4.21925 12.5352C4.20779 12.5371 4.19983 12.5375 4.19546 12.5375C4.19153 12.5375 4.1876 12.5371 4.18301 12.5362C4.17882 12.5354 4.1734 12.534 4.1662 12.5316ZM11.6372 5.17857H12.5V15.4286C12.5 15.4528 12.4757 15.5 12.4091 15.5H0.590909C0.524273 15.5 0.5 15.4528 0.5 15.4286V0.571429C0.5 0.547166 0.524273 0.5 0.590909 0.5H7.66193V1.31786V4.67857V5.17857H8.16193H11.6372ZM12.5 4.81736L11.9848 4.31914L8.50951 0.958429L8.03545 0.5H8.43523C8.46325 0.5 8.48797 0.510842 8.50498 0.527285L8.85256 0.167857L8.50498 0.527286L12.4788 4.37014C12.4941 4.38492 12.5 4.40242 12.5 4.41607V4.81736ZM11.6705 15.2143H12.1705V14.7143V5.89286V5.39286H11.6705H7.68182C7.60343 5.39286 7.53148 5.36259 7.48099 5.31376C7.43107 5.26548 7.40625 5.20365 7.40625 5.14286V1.28571V0.785714H6.90625H1.32955H0.829545V1.28571V14.7143V15.2143H1.32955H11.6705Z" stroke="white"/>
</svg>
