<svg width="16" height="16" viewBox="0 0 16 16" fill="none" xmlns="http://www.w3.org/2000/svg">
<path fill-rule="evenodd" clip-rule="evenodd" d="M10.5502 11.3768C9.27806 12.4363 7.6464 12.9645 5.99468 12.8516C4.34296 12.7388 2.79834 11.9935 1.68212 10.7708C0.565899 9.54809 -0.0359862 7.94214 0.00166574 6.287C0.0393176 4.63186 0.713608 3.05494 1.88427 1.88427C3.05494 0.713608 4.63186 0.0393176 6.287 0.00166574C7.94214 -0.0359862 9.54809 0.565899 10.7708 1.68212C11.9935 2.79834 12.7388 4.34296 12.8516 5.99468C12.9645 7.6464 12.4363 9.27806 11.3768 10.5502L15.8139 14.9873C15.8713 15.0408 15.9174 15.1054 15.9494 15.1771C15.9813 15.2489 15.9985 15.3263 15.9999 15.4048C16.0013 15.4834 15.9868 15.5614 15.9574 15.6342C15.928 15.707 15.8842 15.7732 15.8287 15.8287C15.7732 15.8842 15.707 15.928 15.6342 15.9574C15.5614 15.9868 15.4834 16.0013 15.4048 15.9999C15.3263 15.9985 15.2489 15.9813 15.1771 15.9494C15.1054 15.9174 15.0408 15.8713 14.9873 15.8139L10.5502 11.3768ZM1.16931 6.43292C1.16949 5.57773 1.37804 4.73546 1.77691 3.97899C2.17579 3.22251 2.75298 2.57462 3.45854 2.09136C4.1641 1.60811 4.97679 1.30404 5.82628 1.20548C6.67578 1.10692 7.53649 1.21683 8.33396 1.52569C9.13143 1.83456 9.84163 2.33308 10.4031 2.97813C10.9646 3.62318 11.3605 4.39532 11.5565 5.22775C11.7524 6.06019 11.7426 6.92784 11.5279 7.75563C11.3132 8.58343 10.9 9.34644 10.3241 9.97865C10.245 10.0077 10.1731 10.0535 10.1135 10.113C10.0538 10.1725 10.0078 10.2443 9.97865 10.3233C9.22456 11.0106 8.28697 11.464 7.27994 11.6282C6.27292 11.7924 5.23988 11.6603 4.30652 11.2481C3.37317 10.8359 2.57973 10.1614 2.02275 9.30647C1.46577 8.45159 1.16927 7.45325 1.16931 6.43292Z" fill="#222222"/>
</svg>
