<?xml version="1.0" encoding="utf-8"?><svg viewBox="0 0 30 22" xmlns="http://www.w3.org/2000/svg" xmlns:xlink="http://www.w3.org/1999/xlink"><style>:root>svg{display:none}:root>svg:target{display:block}</style><svg viewBox="0 0 8 14" id="arrow-left" xmlns="http://www.w3.org/2000/svg"><path d="M7 13L1 7l6-6"/></svg><svg viewBox="0 0 8 14" id="arrow-right" xmlns="http://www.w3.org/2000/svg"><path d="M1 13l6-6-6-6"/></svg><svg viewBox="0 0 20 20" id="download" xmlns="http://www.w3.org/2000/svg"><path d="M2.222 14.167H.444a.46.46 0 00-.314.122.404.404 0 00-.13.294v5c0 .11.047.217.13.295A.46.46 0 00.444 20a.46.46 0 00.315-.122.404.404 0 00.13-.295v-1.25h1.333a2.3 2.3 0 001.572-.61c.416-.39.65-.92.65-1.473a2.02 2.02 0 00-.65-1.473 2.3 2.3 0 00-1.572-.61zm0 3.333H.89V15h1.333c.354 0 .693.132.943.366.25.235.39.553.39.884 0 .331-.14.65-.39.884a1.38 1.38 0 01-.943.366zM12 14.583v5a.41.41 0 01-.084.242.453.453 0 01-.216.154l-.144.021a.492.492 0 01-.356-.167l-3.2-4v3.75c0 .11-.047.217-.13.295a.46.46 0 01-.314.122.46.46 0 01-.315-.122.404.404 0 01-.13-.295v-5a.41.41 0 01.084-.241.454.454 0 01.716-.009l3.2 4v-3.75c0-.11.047-.216.13-.294a.46.46 0 01.315-.122.46.46 0 01.314.122c.083.078.13.184.13.294zm8 3.938c0 .08-.023.16-.067.229a2.77 2.77 0 01-1.02.908 3.004 3.004 0 01-1.357.342c-1.59 0-2.89-1.313-2.89-2.917 0-1.604 1.3-2.916 2.89-2.916.57 0 1.125.168 1.588.479a.406.406 0 01.111.583.437.437 0 01-.29.168.475.475 0 01-.332-.074A2 2 0 0017.556 15c-1.1 0-2 .938-2 2.083 0 1.146.9 2.084 2 2.084a2.06 2.06 0 00.875-.213c.27-.133.503-.325.68-.558v-.688h-.889a.46.46 0 01-.314-.122.404.404 0 01-.13-.294c0-.11.047-.217.13-.295a.46.46 0 01.314-.122h1.334a.46.46 0 01.314.122c.083.078.13.184.13.295v1.229zm-1.778-8.104c0 .11.047.216.13.294a.46.46 0 00.315.122.46.46 0 00.314-.122.404.404 0 00.13-.294V6.26a.454.454 0 00-.133-.302L12.756.135A.423.423 0 0012.445 0H1.777a1.38 1.38 0 00-.943.366c-.25.235-.39.552-.39.884v9.167a.4.4 0 00.13.294.46.46 0 00.314.122.46.46 0 00.314-.122.404.404 0 00.13-.294V1.25c0-.11.047-.216.13-.295a.46.46 0 01.315-.122H12V6.25c0 .11.047.216.13.295a.46.46 0 00.314.122h5.778v3.75zm-5.333-8.99l4.7 4.406h-4.7V1.427z"/></svg><svg viewBox="0 0 20 20" id="fb" xmlns="http://www.w3.org/2000/svg"><path d="M12.061 19.396v-5.927h2.258l.064-.425.443-2.909.088-.575H12.06V8.148l-.002-.022a.963.963 0 01.057-.421l-.469-.175.469.175a.955.955 0 01.59-.572.938.938 0 01.418-.04l.032.005h1.797V3.699l-.419-.069a15.83 15.83 0 00-2.298-.207A4.008 4.008 0 009.05 4.647a4.053 4.053 0 00-1.11 3.226V9.56H5.4v3.908h2.537v5.927a9.494 9.494 0 01-5.159-3.123A9.604 9.604 0 01.5 10.06l11.561 9.336zm0 0a9.477 9.477 0 004.246-2.184 9.571 9.571 0 002.835-4.551 9.621 9.621 0 00-.05-5.373A9.567 9.567 0 0016.17 2.79 9.445 9.445 0 006.025 1.377a9.519 9.519 0 00-4.024 3.527A9.607 9.607 0 00.5 10.06l11.561 9.336z"/></svg><svg viewBox="0 0 20 20" id="inst" xmlns="http://www.w3.org/2000/svg"><path d="M15.338 6.357a1.697 1.697 0 110-3.396c.94 0 1.698.758 1.699 1.697h-.5l-1.199 1.7zm0 0a1.697 1.697 0 001.202-.497l-.354-.353-.848.85zm4.096-.46V5.9c.068 1.195.067 2.382.065 3.594v1.073c.002 1.191.004 2.358-.064 3.532v.005c-.075 1.538-.418 2.813-1.468 3.863-1.048 1.048-2.325 1.393-3.864 1.468H14.1c-1.194.067-2.382.066-3.593.065a425.966 425.966 0 00-1.011 0c-1.21 0-2.398.002-3.595-.065h-.004c-1.538-.075-2.813-.418-3.863-1.468C.985 16.92.64 15.642.565 14.104V14.1C.498 12.905.499 11.716.5 10.505v-1.01C.5 8.285.498 7.097.565 5.9v-.004C.64 4.358.983 3.083 2.033 2.033 3.08.985 4.358.64 5.896.565H5.9C7.095.498 8.282.499 9.493.5a465.065 465.065 0 001.012 0c1.21 0 2.397-.002 3.595.065h.003c1.539.075 2.814.418 3.864 1.468l.353-.354-.353.354c1.047 1.047 1.393 2.325 1.467 3.863zM7.163 10a2.842 2.842 0 012.834-2.835A2.842 2.842 0 0112.832 10a2.842 2.842 0 01-2.835 2.835A2.842 2.842 0 017.163 10zm-2.797 0a5.624 5.624 0 005.631 5.631A5.624 5.624 0 0015.628 10a5.624 5.624 0 00-5.63-5.631A5.624 5.624 0 004.365 10z"/></svg><svg viewBox="0 0 16 16" id="insta" xmlns="http://www.w3.org/2000/svg"><path d="M7.998 12.605A4.599 4.599 0 013.393 8a4.599 4.599 0 014.605-4.605 4.59 4.59 0 013.092 1.19 1.458 1.458 0 112.64-.858h-.5a.957.957 0 01-.96.959l-4.272 7.919zm0 0A4.599 4.599 0 0012.602 8a4.59 4.59 0 00-1.189-3.092l-3.415 7.697zm7.45-7.883v.004c.053.953.052 1.9.051 2.869v.859c.002.953.003 1.883-.051 2.82v.004c-.06 1.218-.33 2.21-1.145 3.025-.814.813-1.807 1.086-3.025 1.145h-.004c-.953.054-1.9.053-2.869.052h-.81c-.968 0-1.915.002-2.87-.052h-.003c-1.218-.06-2.21-.33-3.025-1.145C.884 13.49.611 12.496.552 11.278v-.004C.498 10.321.499 9.373.5 8.404v-.809c0-.968-.002-1.915.052-2.87v-.003c.06-1.218.33-2.21 1.145-3.025C2.51.884 3.504.611 4.722.552h.004C5.679.498 6.626.499 7.595.5h.809c.968 0 1.915-.002 2.87.052h.004c1.218.06 2.21.33 3.025 1.145.813.813 1.086 1.807 1.145 3.025zM5.83 8c0-1.193.975-2.168 2.168-2.168s2.168.975 2.168 2.168a2.173 2.173 0 01-2.168 2.168A2.173 2.173 0 015.83 8zm8.826 6.656c.939-.938 1.229-2.073 1.291-3.354L.053 4.698C-.002 5.668-.001 6.63 0 7.597a363.846 363.846 0 010 .806c0 .967-.002 1.931.053 2.9.062 1.28.354 2.417 1.29 3.353.94.94 2.074 1.23 3.355 1.291.97.055 1.932.054 2.899.053h.807c.968 0 1.93.002 2.898-.053 1.28-.062 2.418-.354 3.354-1.29z"/></svg><svg viewBox="0 0 13 14" id="marker" xmlns="http://www.w3.org/2000/svg"><path d="M4.913 2.386a2.39 2.39 0 100 4.779 2.39 2.39 0 000-4.78zm0 3.945A1.556 1.556 0 116.47 4.775a1.556 1.556 0 01-1.556 1.552v.004z"/><path d="M9.821 5.209a3.123 3.123 0 01-.834-.138v.238c0 1.693-1.009 3.198-1.747 4.3l-.15.22a33.899 33.899 0 01-2.181 2.878c-.492-.596-1.464-1.802-2.181-2.878l-.142-.237C1.848 8.49.834 6.985.834 5.292a4.074 4.074 0 015.98-3.586c.034-.287.107-.568.217-.835A4.9 4.9 0 00.001 5.31c0 1.947 1.092 3.578 1.892 4.766l.146.217A41.554 41.554 0 004.6 13.63l.317.37.317-.37a41.625 41.625 0 002.56-3.337l.146-.22c.797-1.19 1.89-2.816 1.89-4.763a.688.688 0 01-.009-.1z"/><path d="M9.917 4.17a2.085 2.085 0 100-4.17 2.085 2.085 0 000 4.17z"/></svg><svg viewBox="0 0 11 9" id="menu-arrow" xmlns="http://www.w3.org/2000/svg"><path d="M5.5 9L0 0h11L5.5 9z"/></svg><svg viewBox="0 0 20 16" id="message" xmlns="http://www.w3.org/2000/svg"><path clip-rule="evenodd" d="M1 3.333v9.334c0 .619.27 1.212.753 1.65A2.71 2.71 0 003.571 15H16.43a2.71 2.71 0 001.818-.683 2.23 2.23 0 00.753-1.65V3.333a2.23 2.23 0 00-.753-1.65A2.71 2.71 0 0016.429 1H3.57a2.71 2.71 0 00-1.818.683A2.23 2.23 0 001 3.333z"/><path d="M3.571 4.5L10 8l6.428-3.5"/></svg><svg viewBox="0 0 12 22" id="next-arr" xmlns="http://www.w3.org/2000/svg"><path d="M1 21l10-10L1 1"/></svg><svg viewBox="0 0 14 20" id="od" xmlns="http://www.w3.org/2000/svg"><path d="M9.461 14.044l-1.049.198.824.68 3.498 2.883c.23.197.336.44.336.667 0 .228-.107.471-.339.67-.517.442-1.408.458-1.956.03l-3.432-2.836-.317-.262-.319.261-3.457 2.836-.008.006c-.241.206-.59.323-.961.323-.373 0-.722-.117-.964-.323l-.006-.005-.028-.024c-.234-.198-.34-.442-.337-.671.003-.23.116-.474.358-.67l.003-.003 3.501-2.887.825-.68-1.05-.197a12.676 12.676 0 01-3.422-1.156l-.003-.003-.072-.037a1.233 1.233 0 01-.37-.287.896.896 0 01-.189-.345l-.482.132.482-.132a.75.75 0 01-.011-.355.863.863 0 01.164-.348l.037-.049c.179-.205.46-.368.803-.432a1.667 1.667 0 011.058.149h.002c1.338.69 2.878 1.052 4.444 1.052 1.564 0 3.1-.361 4.438-1.048a1.676 1.676 0 011.04-.122c.36.073.648.253.819.477a.795.795 0 01.155.69c-.059.231-.232.463-.521.626a12.79 12.79 0 01-3.494 1.192zm-2.438-4.22h-.2c-1.48-.044-2.876-.549-3.905-1.398-1.073-.885-1.652-2.062-1.654-3.263C1.264 2.679 3.756.5 7.024.5c3.267 0 5.759 2.18 5.759 4.662-.002 1.202-.58 2.379-1.654 3.263-1.075.887-2.551 1.397-4.106 1.398zm3.09-4.661c-.001-.734-.355-1.412-.941-1.895a3.312 3.312 0 00-1.648-.706v-.039l-.502.002c-.791.002-1.564.261-2.147.742-.586.484-.94 1.161-.944 1.894v.003c.002.733.357 1.412.943 1.896.583.481 1.357.74 2.149.742h.002c.791-.001 1.565-.26 2.148-.743.585-.484.939-1.163.94-1.896z"/></svg><svg viewBox="0 0 14 14" id="phone" xmlns="http://www.w3.org/2000/svg"><path d="M8.725 4.034l-.166-.158c-.41-.426-.34-.623.063-1.025L10.77.682c.64-.646.759-.954 1.367-.378l.165.158-3.577 3.572zm.419.355l3.474-3.47c.553.741 1.848 2.736 1.209 4.211-.577 1.317-.861 1.38-1.58 2.366-1.46 1.664-3.3 3.446-4.738 4.787-.995.717-1.034 1.048-2.37 1.577-1.42.56-3.474-.702-4.248-1.23l3.475-3.47.932 1.277c.268.363.947-.047 1.421-.52.822-.828 2.512-2.508 3.16-3.21.465-.465.884-1.143.52-1.42L9.144 4.39zM.44 12.314l-.166-.165c-.537-.584-.229-.71.411-1.341L2.85 8.663c.403-.387.592-.473 1.003-.087l.158.166-3.57 3.572z"/></svg><svg viewBox="0 0 12 22" id="prev-arr" xmlns="http://www.w3.org/2000/svg"><path d="M11 21L1 11 11 1"/></svg><svg viewBox="0 0 14 14" id="search-close" xmlns="http://www.w3.org/2000/svg"><path d="M13 1L1 13M1 1l12 12"/></svg><svg viewBox="0 0 20 20" id="tg" xmlns="http://www.w3.org/2000/svg"><path d="M18.859.586l.014-.007.014-.007c.235-.127.366-.066.445.024.114.132.248.481.11 1.142l-.002.007-.001.007-3.017 16.952v.002c-.099.564-.266.735-.339.774-.04.021-.185.068-.533-.153l-4.567-4.022-.38-.334-.33.382-2.2 2.552.253-4.499 8.4-9.04.002-.002c.127-.135.264-.333.272-.579a.642.642 0 00-.41-.623.93.93 0 00-.573-.026c-.177.044-.357.13-.526.253l-.007.005-10.306 7.753L.886 9.551.884 9.55C.69 9.479.586 9.4.537 9.345.497 9.3.5 9.28.5 9.274v-.001c.001-.015.014-.08.114-.186.1-.105.27-.23.532-.357L18.86.586zm-2.832 3.06l-.003.005a.032.032 0 01.003-.005z"/></svg><svg viewBox="0 0 14 8" id="to-top" xmlns="http://www.w3.org/2000/svg"><path d="M13 7L7 1 1 7"/></svg><svg viewBox="0 0 24 20" id="tw" xmlns="http://www.w3.org/2000/svg"><path d="M3.469 12.734l.141.002a5.19 5.19 0 001.434-.196l-.034-.97a4.412 4.412 0 01-2.545-1.577 4.62 4.62 0 01-.946-2.148c.53.193 1.087.302 1.653.322l1.717.06-1.417-.973a4.562 4.562 0 01-1.858-2.759 4.682 4.682 0 01.17-2.646A14.532 14.532 0 005.96 5.113 14.215 14.215 0 0011.787 6.7l.66.034-.147-.644a4.674 4.674 0 01.281-2.92 4.506 4.506 0 011.947-2.134A4.322 4.322 0 0117.33.56c.959.161 1.84.643 2.509 1.372l.19.208.276-.055c.66-.131 1.306-.328 1.927-.587a4.5 4.5 0 01-1.326 1.246l.323.922c.449-.055.893-.14 1.33-.254a9.609 9.609 0 01-1.315 1.178l-.212.158.01.264c.01.204.01.412.01.629 0 6.46-4.8 13.859-13.512 13.859A13.22 13.22 0 012 18.283a10.242 10.242 0 005.605-2.243l1.073-.864-1.378-.025a4.345 4.345 0 01-2.554-.892 4.518 4.518 0 01-1.276-1.525zm0 0a5.214 5.214 0 01-.576-.046 5.028 5.028 0 001.549 1.968 4.861 4.861 0 002.114.925 9.4 9.4 0 00.42-.32l.314.39-.01.5a5.314 5.314 0 01-.601-.045m-5.509 1.71h-.09l.09.05v-.05zm0 0a9.707 9.707 0 005.509-1.71m-5.509 1.71v.05l5.509-1.76"/></svg><svg viewBox="0 0 7 12" id="vacancies-arr" xmlns="http://www.w3.org/2000/svg"><path d="M1 11l5-5-5-5"/></svg><svg viewBox="0 0 30 20" id="vk" xmlns="http://www.w3.org/2000/svg"><path d="M29.434 1.272l.006-.021c.047-.167.063-.297.059-.395V.853c-.006-.136-.047-.2-.09-.239C29.356.57 29.227.5 28.935.5h-3.273c-.293 0-.476.09-.61.208-.146.13-.26.318-.358.552l-.003.008-.004.007-.455-.207.455.207v.001l-.001.003-.005.01-.018.04a27.218 27.218 0 01-.337.705c-.23.47-.562 1.129-.968 1.88-.808 1.498-1.923 3.386-3.126 4.897l-.008.011-.01.01c-.406.457-.753.725-1.093.867a1.938 1.938 0 01-.805.134h-.037c-.273 0-.59-.147-.829-.389-.26-.264-.451-.657-.451-1.179V1.352c0-.45-.058-.662-.118-.755C16.86.562 16.82.5 16.585.5h-5.811c-.1 0-.152.035-.19.082a.442.442 0 00-.084.273c0 .103.028.195.11.334a4.476 4.476 0 00.179.276c.063.093.137.201.212.322.34.544.68 1.302.748 2.637V9.28c0 .581-.041 1.039-.199 1.356a.922.922 0 01-.41.425 1.083 1.083 0 01-.494.106c-.285 0-.542-.125-.753-.274a3.532 3.532 0 01-.638-.611c-.417-.496-.86-1.194-1.303-2.038-.889-1.691-1.814-4.033-2.554-6.679-.156-.505-.287-.756-.418-.89C4.88.573 4.742.5 4.416.5H1.112C.716.5.611.602.583.635.54.688.5.795.5 1.032c0 .852.715 5.952 4.756 11.852L29.434 1.272zm0 0l-.004.021c-.088.457-.399 1.197-.854 2.092a48.46 48.46 0 01-1.556 2.782c-.55.92-1.085 1.774-1.482 2.4l-.383.599-.094.146a26.29 26.29 0 00-.172.274.705.705 0 00-.028.052m4.573-8.366l-4.573 8.367m0 0c-.165.3-.344.63-.36 1.005m.36-1.005L5.256 12.884c2.92 4.261 6.697 6.616 9.93 6.616 1.041 0 1.46-.15 1.63-.286.122-.097.183-.243.183-.673V14.58c0-.281.015-.528.055-.74.041-.211.113-.42.251-.594.3-.378.751-.412 1.091-.412.727 0 1.83.512 3.712 2.854m2.392-5.043v-.001l.5.024-.5-.023zm0 0c-.018.392.14.747.394 1.127m0 0c.364.555 1.137 1.555 1.898 2.535m-1.898-2.535l.002.002.415-.278m-.417.276l-.002-.003.419-.273m1.481 2.811c.682.88 1.297 1.782 1.769 2.555.473.774.78 1.384.887 1.709m-2.656-4.264l.395-.306m-.395.306l.395-.306m2.26 4.57c.04.168.055.306.053.418m-.052-.418l.005.015.477-.15m-.482.135a1.281 1.281 0 00-.004-.016l.486-.12m-.43.554c-.006.214-.073.314-.144.371-.086.07-.256.141-.57.141h-3.273c-.378 0-.656-.164-1.159-.8-.196-.25-.408-.547-.666-.907-.073-.103-.15-.211-.233-.325a40.346 40.346 0 00-1.347-1.781m7.392 3.3v.002l.5.01m-.5-.012v-.001L30 19m-7.892-3.313l-.386.31.386-.31zM30 19a2.185 2.185 0 00-.07-.565M30 19l-4.69-7.505m4.62 6.94c-.243-.768-1.355-2.646-2.743-4.435m0 0c-.769-.99-1.527-1.972-1.876-2.505"/></svg></svg>