<svg width="94" height="92" viewBox="0 0 94 92" fill="none" xmlns="http://www.w3.org/2000/svg">
<path d="M55.0266 39L78.0945 56.7197C80.5496 58.6057 81.0709 62.0969 79.2737 64.6177V64.6177C77.4273 67.2077 73.829 67.8066 71.2432 65.9544L64.6347 61.2209" stroke="#FFAC30" stroke-linecap="round"/>
<path d="M55.0268 39C50.5268 35.5 46.5269 38 40.5268 38C36.0268 38 32.0269 35.5 31.5269 31.5C31.1518 28.5 43.0268 27.4999 48.0268 26.9999C53.0269 26.5 57.0269 29 60.5269 30C63.3269 30.8 68.5268 28.6667 71.0268 27.5" stroke="#FFAC30"/>
<path d="M66.3933 62.4351L70.9468 65.7949C73.1196 67.398 73.6051 70.4475 72.0377 72.6461V72.6461C70.4669 74.8495 67.4171 75.3816 65.193 73.8403L58.905 69.4828" stroke="#FFAC30" stroke-linecap="round"/>
<path d="M59.0265 69.5002L64.6365 73.5519C66.4989 74.897 66.8963 77.5079 65.5183 79.3461V79.3461C64.1469 81.1755 61.5459 81.5332 59.7316 80.1419L53.0266 75.0002" stroke="#FFAC30" stroke-linecap="round"/>
<path d="M53.0267 75.0002L57.6311 78.4535C59.5066 79.8601 59.887 82.5206 58.4809 84.3964V84.3964C57.1114 86.2233 54.5423 86.6399 52.6657 85.3394L47.5268 81.7783" stroke="#FFAC30" stroke-linecap="round"/>
<rect x="11.8654" y="60.6106" width="19.6318" height="9.93922" rx="4.96961" transform="rotate(-39.3518 11.8654 60.6106)" stroke="#FFAC30"/>
<rect x="24.839" y="75.8645" width="19.0117" height="10.0037" rx="5.00185" transform="rotate(-39.3518 24.839 75.8645)" stroke="#FFAC30"/>
<rect x="31.1342" y="83.7659" width="15.3281" height="9.42482" rx="4.71241" transform="rotate(-39.3518 31.1342 83.7659)" stroke="#FFAC30"/>
<rect x="18.2304" y="68.3635" width="24.6156" height="10.0037" rx="5.00185" transform="rotate(-39.3518 18.2304 68.3635)" stroke="#FFAC30"/>
<rect y="53.4248" width="38.5581" height="6.64481" rx="3.3224" transform="rotate(-60 0 53.4248)" fill="#FFAC30"/>
<rect width="38.5581" height="7.6328" rx="3.8164" transform="matrix(-0.5 -0.866025 -0.866025 0.5 93.416 52.9307)" fill="#FFAC30"/>
<path d="M8.02673 52C10.0267 52 12.5267 52.5 16.0267 57" stroke="#FFAC30"/>
<path d="M84.5266 52C82.7766 52 80.5891 52.4 77.5266 56" stroke="#FFAC30"/>
<line x1="21.6704" y1="27.5211" x2="31.6704" y2="30.5211" stroke="#FFAC30"/>
<line x1="46.0267" y1="11.5" x2="46.0267" y2="0.5" stroke="#FFAC30" stroke-linecap="round"/>
<line x1="32.8365" y1="16.8466" x2="26.3733" y2="6.69027" stroke="#FFAC30" stroke-linecap="round"/>
<line x1="0.5" y1="-0.5" x2="12.5384" y2="-0.5" transform="matrix(0.536875 -0.843661 -0.843661 -0.536875 59.5266 17)" stroke="#FFAC30" stroke-linecap="round"/>
</svg>
