<svg width="80" height="79" viewBox="0 0 80 79" fill="none" xmlns="http://www.w3.org/2000/svg">
<path d="M9.5 51.5078V51.5078C4.34077 51.5078 0.241189 55.8492 0.527371 61.0005V61.0005C0.792329 65.7697 4.73728 69.5078 9.51388 69.5078H47.5" stroke="#FFAC30"/>
<path d="M0.5 60.5078L0.5 14.0078C0.5 9.03725 4.52944 5.00781 9.5 5.00781V5.00781V52.0078" stroke="#FFAC30"/>
<line x1="9" y1="17.5078" x2="46" y2="17.5078" stroke="#FFAC30"/>
<line x1="61" y1="17.5078" x2="72" y2="17.5078" stroke="#FFAC30"/>
<line x1="71.5" y1="46.0078" x2="71.5" y2="18.0078" stroke="#FFAC30"/>
<path d="M36.1698 42.1803L67.3366 11.0135C69.3642 8.98593 69.3642 5.69864 67.3366 3.6711V3.6711C65.3091 1.64356 62.0218 1.64356 59.9943 3.6711L28.8274 34.8379" stroke="#FFAC30"/>
<path d="M28.696 35.4109L35.5881 42.3031L25.4514 45.5476L28.696 35.4109Z" fill="#FFAC30" stroke="#FFAC30"/>
<path d="M67.216 3.67891C69.2436 5.70645 69.2436 8.99374 67.216 11.0213L64.3424 13.8949L57 6.55256L59.8736 3.67891C61.9012 1.65137 65.1885 1.65137 67.216 3.67891Z" fill="#FFAC30"/>
<line x1="55.3536" y1="8.65426" x2="62.3536" y2="15.6543" stroke="#FFAC30"/>
<line x1="29.3536" y1="34.6543" x2="36.3536" y2="41.6543" stroke="#FFAC30"/>
<line x1="20.5" y1="46.5078" x2="52.5" y2="46.5078" stroke="#FFAC30" stroke-linecap="round"/>
<path d="M56 61.0078L79 38.0078V78.0078H39L52 65.0078" stroke="#FFAC30" stroke-linecap="round"/>
<path d="M59.2071 69.5078L69.5 59.2149V69.5078H59.2071Z" stroke="#FFAC30"/>
<line x1="74.5" y1="51.5078" x2="78.5" y2="51.5078" stroke="#FFAC30" stroke-linecap="round"/>
<line x1="74.5" y1="58.5078" x2="78.5" y2="58.5078" stroke="#FFAC30" stroke-linecap="round"/>
<line x1="74.5" y1="63.5078" x2="78.5" y2="63.5078" stroke="#FFAC30" stroke-linecap="round"/>
<line x1="74.5" y1="69.5078" x2="78.5" y2="69.5078" stroke="#FFAC30" stroke-linecap="round"/>
</svg>
