<svg width="77" height="94" viewBox="0 0 77 94" fill="none" xmlns="http://www.w3.org/2000/svg">
<path d="M37 1H7C3.68629 1 1 3.68629 1 7V65C1 68.3137 3.68629 71 7 71H45C48.3137 71 51 68.3137 51 65V23" stroke="#FFAC30" stroke-linejoin="round"/>
<path d="M26 71L26 87C26 90.3137 28.6863 93 32 93H70C73.3137 93 76 90.3137 76 87V46" stroke="#FFAC30" stroke-linejoin="round"/>
<path d="M37 15H52L37 1V15Z" fill="#FFAC30" stroke="#FFAC30" stroke-linejoin="round"/>
<path d="M61 37H76L61 23V37Z" fill="#FFAC30" stroke="#FFAC30" stroke-linejoin="round"/>
<line x1="61" y1="23.5" x2="51" y2="23.5" stroke="#FFAC30"/>
<line x1="41" y1="59.5" x2="11" y2="59.5" stroke="#FFAC30"/>
<line x1="41" y1="51.5" x2="11" y2="51.5" stroke="#FFAC30"/>
<line x1="41" y1="42.5" x2="11" y2="42.5" stroke="#FFAC30"/>
</svg>
