<svg width="76" height="87" viewBox="0 0 76 87" fill="none" xmlns="http://www.w3.org/2000/svg">
<path d="M9.24756 27H6.74756C3.43385 27 0.747559 24.3137 0.747559 21V7C0.747559 3.68629 3.43385 1 6.74756 1H60.7476C64.0613 1 66.7476 3.68629 66.7476 7V21C66.7476 24.3137 64.0613 27 60.7476 27H34.2476" stroke="#FFAC30"/>
<rect x="46.2476" y="49.5" width="37" height="18" rx="5.5" transform="rotate(90 46.2476 49.5)" stroke="#FFAC30"/>
<path d="M9.74756 1.5V43C9.74756 46.866 12.8816 50 16.7476 50V50C20.6136 50 23.7476 46.866 23.7476 43V23.5" stroke="#FFAC30"/>
<path d="M33.7476 1.5V34C33.7476 36.7614 31.509 39 28.7476 39V39C25.9861 39 23.7476 36.7614 23.7476 34V20.9691" stroke="#FFAC30"/>
<path d="M66.2476 14H74.7476C74.7476 17.3333 74.7476 24.9 74.7476 28.5C74.7476 33 72.2476 34 67.2476 35.5C62.2476 37 46.7476 41.5 43.2476 42.5C39.7476 43.5 37.2476 45 37.2476 49.5" stroke="#FFAC30"/>
<rect x="27.7476" y="57" width="19" height="8" fill="#FFAC30"/>
</svg>
