<svg width="77" height="86" viewBox="0 0 77 86" fill="none" xmlns="http://www.w3.org/2000/svg">
<path d="M7.74756 30.8926V77.3926C7.74756 80.7063 10.4338 83.3926 13.7476 83.3926H55.2476" stroke="#FFAC30" stroke-linecap="round"/>
<path d="M0.747559 35.9937L37.7476 7.99365L75.5493 35.9937" stroke="#FFAC30" stroke-linecap="round" stroke-linejoin="round"/>
<circle cx="37.2476" cy="50.8926" r="17" stroke="#FFAC30"/>
<path fill-rule="evenodd" clip-rule="evenodd" d="M37.2476 62.3926C43.5988 62.3926 48.7476 57.2439 48.7476 50.8926C48.7476 44.5413 43.5988 39.3926 37.2476 39.3926C30.8963 39.3926 25.7476 44.5413 25.7476 50.8926C25.7476 57.2439 30.8963 62.3926 37.2476 62.3926ZM43.5909 47.2561C43.7916 47.0665 43.8007 46.75 43.6111 46.5493C43.4215 46.3485 43.105 46.3395 42.9042 46.5291L34.777 54.2048L31.5909 51.1957C31.3901 51.0061 31.0737 51.0152 30.8841 51.2159C30.6944 51.4167 30.7035 51.7331 30.9042 51.9228L34.777 55.5803L43.5909 47.2561Z" fill="#FFAC30"/>
<path d="M52.1116 60.0997L67.9872 75.9753C69.5493 77.5374 69.5493 80.0701 67.9872 81.6322C66.4251 83.1943 63.8924 83.1943 62.3303 81.6322L46.4547 65.7565L52.1116 60.0997Z" stroke="#FFAC30"/>
<line x1="67.2476" y1="29.8926" x2="67.2476" y2="67.8926" stroke="#FFAC30" stroke-linecap="round"/>
</svg>
