<?xml version="1.0" encoding="utf-8"?><svg viewBox="0 0 502.66 502.66" xmlns="http://www.w3.org/2000/svg" xmlns:xlink="http://www.w3.org/1999/xlink"><style>:root>svg{display:none}:root>svg:target{display:block}</style><svg viewBox="0 0 121 23" id="arrow" xmlns="http://www.w3.org/2000/svg"><path d="M104 1l16 10.5L104 22M0 11.5h100"/></svg><svg viewBox="0 0 35 35" id="close" xmlns="http://www.w3.org/2000/svg"><path d="M34.026 33.44L1.293.707m0 33.051L34.026 1.025"/></svg><svg viewBox="0 0 12 21" id="fb" xmlns="http://www.w3.org/2000/svg"><path d="M10.648 11.75h-2.93v8.75H3.814v-8.75H.647V8.117h3.164V5.383c0-1.042.196-1.927.586-2.656a3.84 3.84 0 011.641-1.641C6.77.696 7.602.5 8.54.5c.417 0 .86.026 1.328.078.469.026.833.065 1.094.117l.39.04V3.82H9.79c-.73 0-1.263.196-1.601.586-.313.365-.47.82-.47 1.367v2.344h3.477l-.547 3.633z" fill-opacity=".5"/></svg><svg viewBox="0 0 502.664 502.664" id="icon" xmlns="http://www.w3.org/2000/svg"><path d="M153.821 358.226L0 274.337v-46.463l153.821-83.414v54.574L46.636 250.523l107.185 53.431v54.272zm26.273 29.358L282.103 115.08h32.227L212.084 387.584h-31.99zm168.749-29.358v-54.272l107.164-52.999-107.164-52.59v-53.927l153.821 83.522v46.183l-153.821 84.083z"/></svg><svg viewBox="0 0 18 19" id="inst" xmlns="http://www.w3.org/2000/svg"><path d="M5.836 6.336c.885-.885 1.953-1.328 3.203-1.328 1.25 0 2.305.443 3.164 1.328.886.86 1.328 1.914 1.328 3.164 0 1.25-.443 2.318-1.328 3.203-.86.86-1.914 1.29-3.164 1.29-1.25 0-2.318-.43-3.203-1.29-.86-.885-1.29-1.953-1.29-3.203 0-1.25.43-2.305 1.29-3.164zm1.133 5.234c.573.573 1.263.86 2.07.86a2.82 2.82 0 002.07-.86c.573-.573.86-1.263.86-2.07 0-.807-.287-1.497-.86-2.07a2.822 2.822 0 00-2.07-.86c-.807 0-1.497.287-2.07.86a2.822 2.822 0 00-.86 2.07c0 .807.287 1.497.86 2.07zm7.46-7.46a.892.892 0 01.313.702c0 .287-.104.534-.312.743a.892.892 0 01-.703.312c-.287 0-.534-.104-.743-.312a1.014 1.014 0 01-.312-.742c0-.287.104-.521.312-.704.209-.208.456-.312.743-.312.286 0 .52.104.703.312zm3.321 1.796c.026.703.04 1.901.04 3.594 0 1.693-.014 2.89-.04 3.594-.078 1.588-.56 2.825-1.445 3.71-.86.86-2.084 1.316-3.672 1.368-.703.052-1.901.078-3.594.078-1.693 0-2.89-.026-3.594-.078-1.588-.078-2.812-.547-3.672-1.406a3.77 3.77 0 01-.82-1.094 6.413 6.413 0 01-.469-1.211 7.04 7.04 0 01-.117-1.367C.315 12.39.29 11.193.29 9.5c0-1.693.026-2.904.078-3.633.078-1.562.547-2.773 1.406-3.633C2.633 1.35 3.857.867 5.445.79 6.148.763 7.346.75 9.04.75c1.693 0 2.89.013 3.594.04 1.588.077 2.812.559 3.672 1.444.885.86 1.367 2.084 1.445 3.672zm-1.875 8.75a4.26 4.26 0 00.195-.781c.052-.338.091-.73.117-1.172.026-.469.04-.846.04-1.133V7.43c0-.287-.014-.651-.04-1.094-.026-.469-.065-.86-.117-1.172a4.236 4.236 0 00-.195-.82 2.82 2.82 0 00-1.68-1.68 4.233 4.233 0 00-.82-.195 11.053 11.053 0 00-1.172-.117c-.443-.026-.807-.04-1.094-.04H6.97c-.287 0-.664.014-1.133.04a12.7 12.7 0 00-1.172.117 4.255 4.255 0 00-.781.195 2.82 2.82 0 00-1.68 1.68 4.234 4.234 0 00-.195.82 11.08 11.08 0 00-.117 1.172c-.026.443-.04.807-.04 1.094v4.687c.027.39.053.73.079 1.016a10.348 10.348 0 00.273 1.523c.339.807.899 1.367 1.68 1.68.208.078.469.143.781.195.339.052.73.091 1.172.117.469.026.833.04 1.094.04h4.179c.287 0 .651-.014 1.094-.04.469-.026.86-.065 1.172-.117.338-.052.612-.117.82-.195.808-.339 1.367-.898 1.68-1.68z" fill-opacity=".5"/></svg><svg viewBox="0 0 291 47" id="line-descr" xmlns="http://www.w3.org/2000/svg"><circle cx="4.5" cy="4.5" r="4.5" transform="rotate(90 4.5 4.5)"/><path d="M9 4.5h210m.163.067l71.035 41.012"/></svg><svg viewBox="0 0 18 15" id="tg" xmlns="http://www.w3.org/2000/svg"><path d="M17.75 1.367L15.094 13.79c-.209.886-.69 1.12-1.446.703l-4.023-2.969-1.953 1.875c-.26.26-.534.391-.82.391l.312-4.102 7.461-6.718c.182-.183.182-.287 0-.313-.156-.052-.325-.013-.508.117l-9.219 5.82-3.984-1.25c-.443-.13-.651-.325-.625-.585.026-.26.3-.482.82-.664L16.617.078c.39-.13.703-.078.938.156.234.209.3.586.195 1.133z" fill-opacity=".5"/></svg><svg viewBox="0 0 22 15" id="youtube" xmlns="http://www.w3.org/2000/svg"><path d="M21.234 2.344c.078.312.144.703.196 1.172.078.468.13.937.156 1.406.026.443.039.86.039 1.25.026.39.04.716.04.976V7.5c0 2.344-.144 4.075-.43 5.195-.13.443-.365.834-.704 1.172a2.707 2.707 0 01-1.21.703c-.495.13-1.433.235-2.813.313-1.38.052-2.643.091-3.79.117H11c-4.453 0-7.227-.143-8.32-.43-1.016-.286-1.654-.911-1.914-1.875-.13-.495-.235-1.172-.313-2.03-.052-.887-.091-1.63-.117-2.228V7.5c0-2.318.143-4.036.43-5.156.13-.469.364-.873.703-1.211A2.708 2.708 0 012.679.43C3.175.3 4.113.208 5.493.156A112.79 112.79 0 019.282 0H11c4.453 0 7.227.143 8.32.43.47.13.873.364 1.211.703a2.7 2.7 0 01.703 1.21zm-12.422 8.36L14.399 7.5 8.813 4.336v6.367z" fill-opacity=".5"/></svg></svg>