<svg width="691" height="385" viewBox="0 0 691 385" fill="none" xmlns="http://www.w3.org/2000/svg">
<line x1="25.128" y1="0.777925" x2="194.313" y2="98.4572" stroke="white"/>
<line x1="532.004" y1="292.99" x2="690.089" y2="384.26" stroke="white"/>
<path d="M14.7891 195.336L17.7578 189.625H19.4609L15.5391 196.758V201H14.0391V196.758L10.1172 189.625H11.8359L14.7891 195.336ZM37.6853 195.68C37.6853 196.794 37.4978 197.768 37.1228 198.601C36.7478 199.43 36.2166 200.062 35.5291 200.5C34.8416 200.937 34.0395 201.156 33.1228 201.156C32.227 201.156 31.4327 200.937 30.74 200.5C30.0473 200.057 29.5082 199.43 29.1228 198.617C28.7426 197.799 28.5473 196.854 28.5369 195.781V194.961C28.5369 193.867 28.727 192.901 29.1072 192.062C29.4874 191.224 30.0239 190.583 30.7166 190.141C31.4145 189.693 32.2114 189.469 33.1072 189.469C34.0186 189.469 34.8207 189.69 35.5134 190.133C36.2114 190.57 36.7478 191.208 37.1228 192.047C37.4978 192.88 37.6853 193.851 37.6853 194.961V195.68ZM36.1931 194.945C36.1931 193.596 35.9223 192.562 35.3806 191.844C34.839 191.12 34.0811 190.758 33.1072 190.758C32.1593 190.758 31.4119 191.12 30.865 191.844C30.3233 192.562 30.0447 193.562 30.0291 194.844V195.68C30.0291 196.987 30.3025 198.016 30.8494 198.766C31.4015 199.51 32.1593 199.883 33.1228 199.883C34.0916 199.883 34.8416 199.531 35.3728 198.828C35.9041 198.12 36.1775 197.107 36.1931 195.789V194.945ZM56.1831 189.625V197.359C56.1779 198.432 55.8394 199.31 55.1675 199.992C54.5008 200.674 53.5946 201.057 52.4487 201.141L52.0503 201.156C50.8055 201.156 49.8133 200.82 49.0737 200.148C48.3342 199.476 47.9592 198.552 47.9487 197.375V189.625H49.4331V197.328C49.4331 198.151 49.6597 198.792 50.1128 199.25C50.5659 199.703 51.2118 199.93 52.0503 199.93C52.8993 199.93 53.5477 199.703 53.9956 199.25C54.4487 198.797 54.6753 198.159 54.6753 197.336V189.625H56.1831ZM70.9622 196.398H68.2903V201H66.7825V189.625H70.5481C71.8294 189.625 72.8138 189.917 73.5013 190.5C74.194 191.083 74.5403 191.932 74.5403 193.047C74.5403 193.755 74.3476 194.372 73.9622 194.898C73.582 195.424 73.0507 195.818 72.3684 196.078L75.0403 200.906V201H73.4309L70.9622 196.398ZM68.2903 195.172H70.595C71.3398 195.172 71.9309 194.979 72.3684 194.594C72.8111 194.208 73.0325 193.693 73.0325 193.047C73.0325 192.344 72.8216 191.805 72.3997 191.43C71.983 191.055 71.3789 190.864 70.5872 190.859H68.2903V195.172ZM98.5984 196.547V201H97.0984V189.625H101.294C102.539 189.625 103.512 189.943 104.216 190.578C104.924 191.213 105.278 192.055 105.278 193.101C105.278 194.206 104.932 195.057 104.239 195.656C103.552 196.25 102.565 196.547 101.278 196.547H98.5984ZM98.5984 195.32H101.294C102.096 195.32 102.71 195.133 103.137 194.758C103.565 194.377 103.778 193.831 103.778 193.117C103.778 192.44 103.565 191.898 103.137 191.492C102.71 191.086 102.124 190.875 101.38 190.859H98.5984V195.32ZM121.862 195.742H116.932V199.773H122.659V201H115.432V189.625H122.581V190.859H116.932V194.516H121.862V195.742ZM136.938 196.398H134.266V201H132.758V189.625H136.524C137.805 189.625 138.789 189.917 139.477 190.5C140.17 191.083 140.516 191.932 140.516 193.047C140.516 193.755 140.323 194.372 139.938 194.898C139.558 195.424 139.026 195.818 138.344 196.078L141.016 200.906V201H139.407L136.938 196.398ZM134.266 195.172H136.571C137.315 195.172 137.907 194.979 138.344 194.594C138.787 194.208 139.008 193.693 139.008 193.047C139.008 192.344 138.797 191.805 138.375 191.43C137.959 191.055 137.354 190.864 136.563 190.859H134.266V195.172ZM154.217 195.93C152.93 195.56 151.993 195.107 151.404 194.57C150.821 194.029 150.529 193.362 150.529 192.57C150.529 191.674 150.886 190.935 151.6 190.351C152.318 189.763 153.251 189.469 154.397 189.469C155.178 189.469 155.873 189.62 156.482 189.922C157.097 190.224 157.571 190.641 157.904 191.172C158.243 191.703 158.412 192.284 158.412 192.914H156.904C156.904 192.226 156.686 191.687 156.248 191.297C155.811 190.901 155.193 190.703 154.397 190.703C153.657 190.703 153.079 190.867 152.662 191.195C152.251 191.518 152.045 191.969 152.045 192.547C152.045 193.01 152.24 193.404 152.631 193.726C153.027 194.044 153.696 194.336 154.639 194.601C155.587 194.867 156.326 195.161 156.857 195.484C157.394 195.802 157.79 196.174 158.045 196.601C158.305 197.029 158.436 197.531 158.436 198.109C158.436 199.031 158.076 199.771 157.357 200.328C156.639 200.88 155.678 201.156 154.475 201.156C153.693 201.156 152.964 201.008 152.287 200.711C151.61 200.409 151.087 199.997 150.717 199.476C150.352 198.956 150.17 198.364 150.17 197.703H151.678C151.678 198.391 151.93 198.935 152.436 199.336C152.946 199.732 153.626 199.93 154.475 199.93C155.266 199.93 155.873 199.768 156.295 199.445C156.717 199.122 156.928 198.682 156.928 198.125C156.928 197.568 156.732 197.138 156.342 196.836C155.951 196.529 155.243 196.226 154.217 195.93ZM177.355 195.68C177.355 196.794 177.168 197.768 176.793 198.601C176.418 199.43 175.887 200.062 175.199 200.5C174.512 200.937 173.709 201.156 172.793 201.156C171.897 201.156 171.103 200.937 170.41 200.5C169.717 200.057 169.178 199.43 168.793 198.617C168.413 197.799 168.217 196.854 168.207 195.781V194.961C168.207 193.867 168.397 192.901 168.777 192.062C169.157 191.224 169.694 190.583 170.387 190.141C171.084 189.693 171.881 189.469 172.777 189.469C173.689 189.469 174.491 189.69 175.183 190.133C175.881 190.57 176.418 191.208 176.793 192.047C177.168 192.88 177.355 193.851 177.355 194.961V195.68ZM175.863 194.945C175.863 193.596 175.592 192.562 175.051 191.844C174.509 191.12 173.751 190.758 172.777 190.758C171.829 190.758 171.082 191.12 170.535 191.844C169.993 192.562 169.715 193.562 169.699 194.844V195.68C169.699 196.987 169.973 198.016 170.519 198.766C171.071 199.51 171.829 199.883 172.793 199.883C173.762 199.883 174.512 199.531 175.043 198.828C175.574 198.12 175.848 197.107 175.863 195.789V194.945ZM196.587 201H195.08L189.353 192.234V201H187.845V189.625H189.353L195.095 198.43V189.625H196.587V201ZM213.913 198.031H209.148L208.077 201H206.531L210.874 189.625H212.187L216.538 201H214.999L213.913 198.031ZM209.601 196.797H213.468L211.531 191.476L209.601 196.797ZM227.818 199.773H233.208V201H226.31V189.625H227.818V199.773Z" fill="white"/>
<mask id="mask0_844_14" style="mask-type:alpha" maskUnits="userSpaceOnUse" x="283" y="149" width="375" height="147">
<path d="M283.5 150H657.5V295.5H535.5L283.5 150Z" fill="#C4C4C4"/>
</mask>
<g mask="url(#mask0_844_14)">
<path d="M270.031 283H260.422V254.219H213.453V244.609H260.422V215.781H270.031V283ZM208.672 283H199.062V215.781H208.672V283ZM366.406 249.391C366.406 254.047 365.672 258.422 364.203 262.516C362.734 266.609 360.641 270.172 357.922 273.203C355.234 276.234 352 278.625 348.219 280.375C344.438 282.125 340.234 283 335.609 283H313.25C308.594 283 304.359 282.125 300.547 280.375C296.734 278.625 293.469 276.234 290.75 273.203C288.062 270.172 285.984 266.609 284.516 262.516C283.047 258.422 282.312 254.047 282.312 249.391C282.312 244.766 283.047 240.422 284.516 236.359C285.984 232.266 288.062 228.703 290.75 225.672C293.469 222.609 296.734 220.203 300.547 218.453C304.359 216.672 308.594 215.781 313.25 215.781H335.609C340.234 215.781 344.438 216.672 348.219 218.453C352 220.203 355.234 222.609 357.922 225.672C360.641 228.703 362.734 232.266 364.203 236.359C365.672 240.422 366.406 244.766 366.406 249.391ZM356.797 249.391C356.797 246.078 356.312 242.969 355.344 240.062C354.375 237.156 352.969 234.625 351.125 232.469C349.312 230.281 347.094 228.562 344.469 227.312C341.875 226.031 338.922 225.391 335.609 225.391H313.25C309.938 225.391 306.953 226.031 304.297 227.312C301.672 228.562 299.438 230.281 297.594 232.469C295.781 234.625 294.375 237.156 293.375 240.062C292.406 242.969 291.922 246.078 291.922 249.391C291.922 252.703 292.406 255.828 293.375 258.766C294.375 261.672 295.781 264.219 297.594 266.406C299.438 268.562 301.672 270.266 304.297 271.516C306.953 272.766 309.938 273.391 313.25 273.391H335.609C338.922 273.391 341.875 272.766 344.469 271.516C347.094 270.266 349.312 268.562 351.125 266.406C352.969 264.219 354.375 261.672 355.344 258.766C356.312 255.828 356.797 252.703 356.797 249.391ZM450.688 215.781L450.594 249.391C450.594 252.516 450.188 255.516 449.375 258.391C448.594 261.234 447.469 263.906 446 266.406C444.562 268.875 442.812 271.141 440.75 273.203C438.719 275.234 436.453 276.984 433.953 278.453C431.484 279.891 428.828 281.016 425.984 281.828C423.141 282.609 420.172 283 417.078 283H410C406.906 283 403.922 282.609 401.047 281.828C398.203 281.016 395.531 279.875 393.031 278.406C390.562 276.938 388.312 275.188 386.281 273.156C384.25 271.094 382.5 268.828 381.031 266.359C379.594 263.859 378.469 261.188 377.656 258.344C376.875 255.469 376.484 252.484 376.484 249.391V215.781H386.094V249.391C386.094 252.703 386.719 255.828 387.969 258.766C389.219 261.672 390.922 264.219 393.078 266.406C395.266 268.562 397.812 270.266 400.719 271.516C403.625 272.766 406.719 273.391 410 273.391H417.078C420.391 273.391 423.5 272.766 426.406 271.516C429.312 270.266 431.844 268.562 434 266.406C436.156 264.219 437.859 261.672 439.109 258.766C440.359 255.828 440.984 252.703 440.984 249.391V215.781H450.594H450.688ZM538.766 263.781C538.766 266.469 538.266 268.984 537.266 271.328C536.266 273.641 534.891 275.672 533.141 277.422C531.422 279.141 529.391 280.5 527.047 281.5C524.734 282.5 522.25 283 519.594 283H461.188V273.391H519.594C520.938 273.391 522.188 273.141 523.344 272.641C524.5 272.141 525.5 271.453 526.344 270.578C527.219 269.703 527.906 268.688 528.406 267.531C528.906 266.344 529.156 265.094 529.156 263.781C529.156 262.469 528.906 261.234 528.406 260.078C527.906 258.922 527.219 257.906 526.344 257.031C525.5 256.156 524.5 255.469 523.344 254.969C522.188 254.469 520.938 254.219 519.594 254.219H480.406C477.781 254.219 475.297 253.719 472.953 252.719C470.609 251.719 468.562 250.359 466.812 248.641C465.094 246.891 463.719 244.844 462.688 242.5C461.688 240.156 461.188 237.656 461.188 235C461.188 232.375 461.688 229.891 462.688 227.547C463.719 225.203 465.094 223.172 466.812 221.453C468.562 219.703 470.609 218.328 472.953 217.328C475.297 216.297 477.781 215.781 480.406 215.781H533.984V225.391H480.406C479.094 225.391 477.844 225.641 476.656 226.141C475.5 226.641 474.484 227.328 473.609 228.203C472.734 229.078 472.047 230.109 471.547 231.297C471.047 232.453 470.797 233.688 470.797 235C470.797 236.312 471.047 237.562 471.547 238.75C472.047 239.906 472.734 240.922 473.609 241.797C474.484 242.672 475.5 243.359 476.656 243.859C477.844 244.359 479.094 244.609 480.406 244.609H519.594C522.25 244.609 524.734 245.125 527.047 246.156C529.391 247.156 531.422 248.531 533.141 250.281C534.891 252 536.266 254.031 537.266 256.375C538.266 258.688 538.766 261.156 538.766 263.781ZM619.578 283H550.062V215.781H619.578V225.391H559.672V273.391H619.578V283ZM611.422 254.219H564.453V244.609H611.422V254.219Z" fill="white"/>
</g>
<mask id="mask1_844_14" style="mask-type:alpha" maskUnits="userSpaceOnUse" x="185" y="187" width="393" height="147">
<path d="M577.5 333.5L185 333.5V188H325L577.5 333.5Z" fill="#C4C4C4"/>
</mask>
<g mask="url(#mask1_844_14)">
<path d="M270.031 283H260.422V254.219H213.453V244.609H260.422V215.781H270.031V283ZM208.672 283H199.062V215.781H208.672V283ZM366.406 249.391C366.406 254.047 365.672 258.422 364.203 262.516C362.734 266.609 360.641 270.172 357.922 273.203C355.234 276.234 352 278.625 348.219 280.375C344.437 282.125 340.234 283 335.609 283H313.25C308.594 283 304.359 282.125 300.547 280.375C296.734 278.625 293.469 276.234 290.75 273.203C288.062 270.172 285.984 266.609 284.516 262.516C283.047 258.422 282.312 254.047 282.312 249.391C282.312 244.766 283.047 240.422 284.516 236.359C285.984 232.266 288.062 228.703 290.75 225.672C293.469 222.609 296.734 220.203 300.547 218.453C304.359 216.672 308.594 215.781 313.25 215.781H335.609C340.234 215.781 344.437 216.672 348.219 218.453C352 220.203 355.234 222.609 357.922 225.672C360.641 228.703 362.734 232.266 364.203 236.359C365.672 240.422 366.406 244.766 366.406 249.391ZM356.797 249.391C356.797 246.078 356.312 242.969 355.344 240.062C354.375 237.156 352.969 234.625 351.125 232.469C349.312 230.281 347.094 228.562 344.469 227.312C341.875 226.031 338.922 225.391 335.609 225.391H313.25C309.937 225.391 306.953 226.031 304.297 227.312C301.672 228.562 299.437 230.281 297.594 232.469C295.781 234.625 294.375 237.156 293.375 240.062C292.406 242.969 291.922 246.078 291.922 249.391C291.922 252.703 292.406 255.828 293.375 258.766C294.375 261.672 295.781 264.219 297.594 266.406C299.437 268.562 301.672 270.266 304.297 271.516C306.953 272.766 309.937 273.391 313.25 273.391H335.609C338.922 273.391 341.875 272.766 344.469 271.516C347.094 270.266 349.312 268.562 351.125 266.406C352.969 264.219 354.375 261.672 355.344 258.766C356.312 255.828 356.797 252.703 356.797 249.391ZM450.687 215.781L450.594 249.391C450.594 252.516 450.187 255.516 449.375 258.391C448.594 261.234 447.469 263.906 446 266.406C444.562 268.875 442.812 271.141 440.75 273.203C438.719 275.234 436.453 276.984 433.953 278.453C431.484 279.891 428.828 281.016 425.984 281.828C423.141 282.609 420.172 283 417.078 283H410C406.906 283 403.922 282.609 401.047 281.828C398.203 281.016 395.531 279.875 393.031 278.406C390.562 276.938 388.312 275.188 386.281 273.156C384.25 271.094 382.5 268.828 381.031 266.359C379.594 263.859 378.469 261.188 377.656 258.344C376.875 255.469 376.484 252.484 376.484 249.391V215.781H386.094V249.391C386.094 252.703 386.719 255.828 387.969 258.766C389.219 261.672 390.922 264.219 393.078 266.406C395.266 268.562 397.812 270.266 400.719 271.516C403.625 272.766 406.719 273.391 410 273.391H417.078C420.391 273.391 423.5 272.766 426.406 271.516C429.312 270.266 431.844 268.562 434 266.406C436.156 264.219 437.859 261.672 439.109 258.766C440.359 255.828 440.984 252.703 440.984 249.391V215.781H450.594H450.687ZM538.766 263.781C538.766 266.469 538.266 268.984 537.266 271.328C536.266 273.641 534.891 275.672 533.141 277.422C531.422 279.141 529.391 280.5 527.047 281.5C524.734 282.5 522.25 283 519.594 283H461.187V273.391H519.594C520.937 273.391 522.187 273.141 523.344 272.641C524.5 272.141 525.5 271.453 526.344 270.578C527.219 269.703 527.906 268.688 528.406 267.531C528.906 266.344 529.156 265.094 529.156 263.781C529.156 262.469 528.906 261.234 528.406 260.078C527.906 258.922 527.219 257.906 526.344 257.031C525.5 256.156 524.5 255.469 523.344 254.969C522.187 254.469 520.937 254.219 519.594 254.219H480.406C477.781 254.219 475.297 253.719 472.953 252.719C470.609 251.719 468.562 250.359 466.812 248.641C465.094 246.891 463.719 244.844 462.687 242.5C461.687 240.156 461.187 237.656 461.187 235C461.187 232.375 461.687 229.891 462.687 227.547C463.719 225.203 465.094 223.172 466.812 221.453C468.562 219.703 470.609 218.328 472.953 217.328C475.297 216.297 477.781 215.781 480.406 215.781H533.984V225.391H480.406C479.094 225.391 477.844 225.641 476.656 226.141C475.5 226.641 474.484 227.328 473.609 228.203C472.734 229.078 472.047 230.109 471.547 231.297C471.047 232.453 470.797 233.688 470.797 235C470.797 236.312 471.047 237.562 471.547 238.75C472.047 239.906 472.734 240.922 473.609 241.797C474.484 242.672 475.5 243.359 476.656 243.859C477.844 244.359 479.094 244.609 480.406 244.609H519.594C522.25 244.609 524.734 245.125 527.047 246.156C529.391 247.156 531.422 248.531 533.141 250.281C534.891 252 536.266 254.031 537.266 256.375C538.266 258.688 538.766 261.156 538.766 263.781ZM619.578 283H550.062V215.781H619.578V225.391H559.672V273.391H619.578V283ZM611.422 254.219H564.453V244.609H611.422V254.219Z" fill="white"/>
</g>
<mask id="mask2_844_14" style="mask-type:alpha" maskUnits="userSpaceOnUse" x="0" y="84" width="399" height="147">
<path d="M398.5 230.5L0 230.5V84.9999H146L398.5 230.5Z" fill="#C4C4C4"/>
</mask>
<g mask="url(#mask2_844_14)">
<path d="M91.2812 141.391C91.2812 146.047 90.5312 150.422 89.0312 154.516C87.5625 158.609 85.4688 162.172 82.75 165.203C80.0312 168.234 76.7656 170.625 72.9531 172.375C69.1719 174.125 64.9688 175 60.3438 175H26.4531V165.391H60.3438C63.6562 165.391 66.625 164.766 69.25 163.516C71.9062 162.266 74.1406 160.562 75.9531 158.406C77.7969 156.219 79.2031 153.672 80.1719 150.766C81.1719 147.828 81.6719 144.703 81.6719 141.391C81.6719 138.078 81.1719 134.969 80.1719 132.062C79.2031 129.156 77.7969 126.625 75.9531 124.469C74.1406 122.281 71.9062 120.562 69.25 119.312C66.625 118.031 63.6562 117.391 60.3438 117.391H21.6719V175H12.0625V107.781H60.3438C64.9688 107.781 69.1719 108.672 72.9531 110.453C76.7656 112.203 80.0312 114.609 82.75 117.672C85.4688 120.703 87.5625 124.266 89.0312 128.359C90.5312 132.422 91.2812 136.766 91.2812 141.391ZM181.141 175H168.156L148 155.781H118.562V146.312H157.141C159.141 146.312 161.016 145.937 162.766 145.187C164.516 144.406 166.031 143.359 167.312 142.047C168.625 140.734 169.656 139.203 170.406 137.453C171.156 135.672 171.531 133.781 171.531 131.781C171.531 129.781 171.156 127.906 170.406 126.156C169.656 124.406 168.625 122.891 167.312 121.609C166.031 120.297 164.516 119.266 162.766 118.516C161.016 117.766 159.141 117.391 157.141 117.391H113.172V175H103.562V107.781H157.141C160.453 107.781 163.562 108.422 166.469 109.703C169.375 110.953 171.906 112.672 174.062 114.859C176.25 117.016 177.969 119.547 179.219 122.453C180.5 125.359 181.141 128.469 181.141 131.781C181.141 134.781 180.625 137.625 179.594 140.312C178.562 142.969 177.141 145.359 175.328 147.484C173.516 149.578 171.375 151.328 168.906 152.734C166.469 154.109 163.828 155.031 160.984 155.5L181.141 175ZM262.984 175H193.469V107.781H262.984V117.391H203.078V165.391H262.984V175ZM254.828 146.219H207.859V136.609H254.828V146.219ZM351.344 175H341.734V155.781H288.109V146.219H341.734V117.391H307.281C304 117.391 300.906 118.031 298 119.312C295.094 120.562 292.562 122.281 290.406 124.469C288.25 126.625 286.531 129.156 285.25 132.062C284 134.969 283.375 138.078 283.375 141.391V175H273.766V141.391C273.766 138.297 274.156 135.328 274.938 132.484C275.75 129.609 276.875 126.937 278.312 124.469C279.781 121.969 281.531 119.703 283.562 117.672C285.625 115.609 287.891 113.844 290.359 112.375C292.859 110.906 295.531 109.781 298.375 109C301.219 108.187 304.188 107.781 307.281 107.781H351.344V175ZM415.844 175H406.234V141.391C406.234 138.078 405.609 134.969 404.359 132.062C403.109 129.156 401.391 126.625 399.203 124.469C397.047 122.281 394.5 120.562 391.562 119.312C388.656 118.031 385.547 117.391 382.234 117.391H377.078V175H367.469V107.781H382.234C385.297 107.781 388.234 108.187 391.047 109C393.891 109.781 396.547 110.891 399.016 112.328C401.484 113.766 403.734 115.484 405.766 117.484C407.797 119.484 409.562 121.703 411.062 124.141C412.531 121.703 414.281 119.484 416.312 117.484C418.344 115.484 420.594 113.766 423.062 112.328C425.531 110.891 428.172 109.781 430.984 109C433.828 108.187 436.781 107.781 439.844 107.781H454.656V175H445.047V117.391H439.844C436.531 117.391 433.422 118.031 430.516 119.312C427.609 120.562 425.062 122.281 422.875 124.469C420.719 126.625 419 129.156 417.719 132.062C416.469 134.969 415.844 138.078 415.844 141.391V175Z" fill="white"/>
</g>
<mask id="mask3_844_14" style="mask-type:alpha" maskUnits="userSpaceOnUse" x="147" y="70" width="367" height="147">
<path d="M147 70.9999H514V216.5H398.5L147 70.9999Z" fill="#C4C4C4"/>
</mask>
<g mask="url(#mask3_844_14)">
<path d="M91.2812 141.391C91.2812 146.047 90.5312 150.422 89.0312 154.516C87.5625 158.609 85.4688 162.172 82.75 165.203C80.0312 168.234 76.7656 170.625 72.9531 172.375C69.1719 174.125 64.9688 175 60.3438 175H26.4531V165.391H60.3438C63.6562 165.391 66.625 164.766 69.25 163.516C71.9062 162.266 74.1406 160.562 75.9531 158.406C77.7969 156.219 79.2031 153.672 80.1719 150.766C81.1719 147.828 81.6719 144.703 81.6719 141.391C81.6719 138.078 81.1719 134.969 80.1719 132.062C79.2031 129.156 77.7969 126.625 75.9531 124.469C74.1406 122.281 71.9062 120.562 69.25 119.312C66.625 118.031 63.6562 117.391 60.3438 117.391H21.6719V175H12.0625V107.781H60.3438C64.9688 107.781 69.1719 108.672 72.9531 110.453C76.7656 112.203 80.0312 114.609 82.75 117.672C85.4688 120.703 87.5625 124.266 89.0312 128.359C90.5312 132.422 91.2812 136.766 91.2812 141.391ZM181.141 175H168.156L148 155.781H118.562V146.312H157.141C159.141 146.312 161.016 145.937 162.766 145.187C164.516 144.406 166.031 143.359 167.312 142.047C168.625 140.734 169.656 139.203 170.406 137.453C171.156 135.672 171.531 133.781 171.531 131.781C171.531 129.781 171.156 127.906 170.406 126.156C169.656 124.406 168.625 122.891 167.312 121.609C166.031 120.297 164.516 119.266 162.766 118.516C161.016 117.766 159.141 117.391 157.141 117.391H113.172V175H103.562V107.781H157.141C160.453 107.781 163.562 108.422 166.469 109.703C169.375 110.953 171.906 112.672 174.062 114.859C176.25 117.016 177.969 119.547 179.219 122.453C180.5 125.359 181.141 128.469 181.141 131.781C181.141 134.781 180.625 137.625 179.594 140.312C178.562 142.969 177.141 145.359 175.328 147.484C173.516 149.578 171.375 151.328 168.906 152.734C166.469 154.109 163.828 155.031 160.984 155.5L181.141 175ZM262.984 175H193.469V107.781H262.984V117.391H203.078V165.391H262.984V175ZM254.828 146.219H207.859V136.609H254.828V146.219ZM351.344 175H341.734V155.781H288.109V146.219H341.734V117.391H307.281C304 117.391 300.906 118.031 298 119.312C295.094 120.562 292.562 122.281 290.406 124.469C288.25 126.625 286.531 129.156 285.25 132.062C284 134.969 283.375 138.078 283.375 141.391V175H273.766V141.391C273.766 138.297 274.156 135.328 274.938 132.484C275.75 129.609 276.875 126.937 278.312 124.469C279.781 121.969 281.531 119.703 283.562 117.672C285.625 115.609 287.891 113.844 290.359 112.375C292.859 110.906 295.531 109.781 298.375 109C301.219 108.187 304.188 107.781 307.281 107.781H351.344V175ZM415.844 175H406.234V141.391C406.234 138.078 405.609 134.969 404.359 132.062C403.109 129.156 401.391 126.625 399.203 124.469C397.047 122.281 394.5 120.562 391.562 119.312C388.656 118.031 385.547 117.391 382.234 117.391H377.078V175H367.469V107.781H382.234C385.297 107.781 388.234 108.187 391.047 109C393.891 109.781 396.547 110.891 399.016 112.328C401.484 113.766 403.734 115.484 405.766 117.484C407.797 119.484 409.562 121.703 411.062 124.141C412.531 121.703 414.281 119.484 416.312 117.484C418.344 115.484 420.594 113.766 423.062 112.328C425.531 110.891 428.172 109.781 430.984 109C433.828 108.187 436.781 107.781 439.844 107.781H454.656V175H445.047V117.391H439.844C436.531 117.391 433.422 118.031 430.516 119.312C427.609 120.562 425.062 122.281 422.875 124.469C420.719 126.625 419 129.156 417.719 132.062C416.469 134.969 415.844 138.078 415.844 141.391V175Z" fill="white"/>
</g>
</svg>
