<svg width="103" height="65" fill="none" xmlns="http://www.w3.org/2000/svg"><g clip-path="url(#clip0)" fill="#A9AFC3"><path d="M95.91 43.28A21.51 21.51 0 0174.48 63.5h-66V43.28H7V65h67.5a23 23 0 0023-21.72h-1.59z"/><path d="M66.89 48.75h1.32v9.94h-1.45l-2.09-7.18v7.18h-1.32v-9.94h1.51l2 7 .03-7zm-5.03 2.91h-1.44v-1.32a.53.53 0 00-.1-.37.57.57 0 00-.38-.09h-.81a.57.57 0 00-.38.09.53.53 0 00-.1.37v6.78a.53.53 0 00.1.37.57.57 0 00.38.09h.81a.57.57 0 00.38-.09.53.53 0 00.1-.37v-2.43h-.8v-1.11h2.24v3.71c0 .94-.49 1.41-1.48 1.41h-1.69c-1 0-1.48-.47-1.48-1.41v-7.14c0-.93.49-1.4 1.48-1.4h1.69c1 0 1.48.47 1.48 1.4v1.51zm-7.78-2.91h1.43v9.94h-1.43v-9.94zm-2.99 8.32v-2.43a.37.37 0 00-.46-.46h-1.18A1.26 1.26 0 0148 52.77v-2.62c0-.93.49-1.4 1.47-1.4H51c1 0 1.47.47 1.47 1.4v1.46h-1.4v-1.24A.53.53 0 0051 50a.6.6 0 00-.39-.09h-.66a.57.57 0 00-.38.09.48.48 0 00-.1.37v2.21a.48.48 0 00.1.37.57.57 0 00.38.09h1.16c1 0 1.46.46 1.46 1.39v2.86c0 .93-.5 1.4-1.5 1.4h-1.55c-1 0-1.48-.47-1.48-1.4v-1.46h1.44v1.24a.53.53 0 00.1.37.57.57 0 00.38.09h.67a.37.37 0 00.46-.46zm-6.86.46h2.87v1.16h-4.31v-9.94H47v1.16h-2.77V53h2.29v1.16h-2.29v3.37zm-7.95-8.78h3.46c1 0 1.48.47 1.48 1.4v7.14c0 .93-.49 1.4-1.48 1.4h-3.46v-9.94zm3.49 8.35v-6.76a.53.53 0 00-.09-.37.57.57 0 00-.38-.09h-1.57v7.68h1.57a.57.57 0 00.38-.09.52.52 0 00.09-.37zM10.44 39.19a.09.09 0 00.06.096.09.09 0 00.04.004 1.12 1.12 0 00.47-.21c.266-.16.523-.333.77-.52l.91-.71.92-.78c.3-.25.57-.49.8-.7l.55-.49.36.38.39.43c-.26.23-.56.52-.92.85-.36.33-.73.68-1.14 1-.41.32-.82.71-1.26 1.07-.44.36-.85.66-1.26.94-.377.25-.772.474-1.18.67a2.24 2.24 0 01-1 .26 1.9 1.9 0 01-.63-.11 2.06 2.06 0 01-.63-.31 1.87 1.87 0 01-.47-.46 1 1 0 01-.15-.6v-.3a2.808 2.808 0 010-.48c0-.2.07-.43.13-.71.06-.28.16-.63.29-1-.35.37-.76.75-1.23 1.16-.47.41-1 .78-1.48 1.14-.48.36-1 .68-1.56 1-.464.26-.949.482-1.45.66h-.23a.89.89 0 01-.42-.16 2.36 2.36 0 01-.51-.42 2.59 2.59 0 01-.44-.59 1.4 1.4 0 01-.17-.68c0-.06.03-.27.09-.63.104-.472.259-.93.46-1.37.29-.655.64-1.282 1.05-1.87a11.999 11.999 0 011.9-2.13c.423-.36.867-.693 1.33-1 .413-.28.873-.56 1.38-.84a8 8 0 011.63-.68.11.11 0 00.06 0h.07c.156.053.306.12.45.2l.53.28c.17.1.32.2.46.3.098.07.186.155.26.25v.05c-.48.237-.942.511-1.38.82-.42.32-.8.61-1.13.88-.33.27-.73.65-1.06 1a8.889 8.889 0 00-1.6 2A3.12 3.12 0 004.06 38c0 .18.07.27.22.27a1.28 1.28 0 00.56-.18c.267-.146.525-.31.77-.49.29-.21.6-.45.94-.73L7.62 36c.35-.266.684-.553 1-.86.291-.276.568-.566.83-.87a7.23 7.23 0 00.73-1c.15.123.285.264.4.42.14.2.28.41.41.64.121.22.228.447.32.68.077.157.124.326.14.5-.22.436-.406.887-.56 1.35-.122.351-.226.708-.31 1.07-.058.26-.098.524-.12.79-.01.19-.02.36-.02.47z"/><path d="M16.29 41.76a1.53 1.53 0 01-.65-.18 4.291 4.291 0 01-.74-.49 5.653 5.653 0 01-.74-.73 4.511 4.511 0 01-.59-.88 1 1 0 01-.13-.4 4.235 4.235 0 010-.57c0-.614.095-1.224.28-1.81a7.92 7.92 0 01.73-1.7 9.13 9.13 0 011.18-1.54 8.44 8.44 0 011.5-1.25 7.411 7.411 0 011.73-.82 6 6 0 011.87-.3.8.8 0 01.39.15c.188.118.365.252.53.4.19.17.38.36.58.57.188.207.365.424.53.65.151.196.282.407.39.63.09.17.141.358.15.55a1.4 1.4 0 01-.49.65c-.31.258-.644.482-1 .67-.374.21-.77.382-1.18.51a3.41 3.41 0 01-1.08.21c-.18 0-.27 0-.27-.16a1 1 0 01.24-.51l.53-.75c.194-.258.371-.529.53-.81a1.42 1.42 0 00.24-.69.35.35 0 00-.07-.23.22.22 0 00-.2-.1 1.2 1.2 0 00-.73.32c-.285.25-.54.532-.76.84-.27.38-.514.777-.73 1.19a14.31 14.31 0 00-.61 1.39c-.16.469-.294.946-.4 1.43a6.394 6.394 0 00-.16 1.3.53.53 0 00.21.48c.193.104.411.153.63.14a6 6 0 002.06-.36A10.726 10.726 0 0022 38.6c.605-.379 1.183-.8 1.73-1.26.55-.46 1.07-.93 1.56-1.39.128.146.268.28.42.4.14.102.27.215.39.34a25.881 25.881 0 01-2.09 2 14.999 14.999 0 01-2.32 1.61c-.81.46-1.669.83-2.56 1.1a9.62 9.62 0 01-2.84.36z"/><path d="M34.2 39.19c0 .07 0 .1.1.1a1.11 1.11 0 00.47-.21c.262-.16.516-.333.76-.52.29-.21.59-.45.91-.71l.93-.78c.3-.25.56-.49.8-.7l.55-.49.36.38.38.43-.91.85c-.35.33-.73.68-1.14 1-.41.32-.83.71-1.26 1.07-.43.36-.86.66-1.27.94a9.002 9.002 0 01-1.17.67 2.24 2.24 0 01-1 .26c-.212 0-.421-.037-.62-.11a2.06 2.06 0 01-.63-.31 1.72 1.72 0 01-.47-.46.999.999 0 01-.19-.61v-.3a2.808 2.808 0 010-.48 6.9 6.9 0 01.13-.71c.06-.28.16-.63.28-1-.382.408-.786.795-1.21 1.16-.47.4-1 .78-1.49 1.14-.5.363-1.021.697-1.56 1a8.588 8.588 0 01-1.45.66h-.22a.849.849 0 01-.42-.16 2.4 2.4 0 01-.52-.42 2.89 2.89 0 01-.43-.59 1.4 1.4 0 01-.18-.67c0-.06.03-.27.09-.63.105-.47.256-.929.45-1.37a11.28 11.28 0 011.06-1.87 11.66 11.66 0 011.9-2.13A13.63 13.63 0 0130 31.73a8.007 8.007 0 011.63-.68h.13c.156.053.306.12.45.2l.52.28c.16.088.314.189.46.3a.89.89 0 01.26.25v.05c-.467.247-.915.528-1.34.84-.43.32-.8.61-1.13.88-.33.27-.73.65-1.06 1a8.609 8.609 0 00-1.6 2 3 3 0 00-.51 1.15c0 .18.08.27.23.27a1.31 1.31 0 00.56-.18c.266-.148.523-.312.77-.49.28-.21.6-.45.94-.73l1.07-.87c.333-.268.65-.555.95-.86.291-.276.568-.566.83-.87a7.14 7.14 0 00.72-1H34c.147.124.278.265.39.42.154.204.294.418.42.64.12.23.23.46.32.68.077.157.124.326.14.5-.222.436-.413.887-.57 1.35-.13.41-.23.76-.3 1.07-.063.26-.103.524-.12.79-.07.19-.08.36-.08.47zM8.54 21.72A21.52 21.52 0 0130 1.5h66v20.22h1.5V0H30A23 23 0 007 21.72h1.54z"/><path d="M48.16 38.83c0 .26.09.4.26.4.25-.016.494-.08.72-.19a7.35 7.35 0 00.88-.5c.3-.21.62-.44.93-.69.31-.25.62-.5.9-.75s.53-.47.75-.68c.22-.21.4-.38.52-.51.11.1.24.22.38.37s.29.28.4.41l-.93.92c-.35.34-.72.68-1.12 1-.4.32-.81.69-1.24 1-.43.31-.85.63-1.27.89a9.55 9.55 0 01-1.24.62 3.07 3.07 0 01-1.14.24 1.45 1.45 0 01-.7-.26 5.146 5.146 0 01-.79-.64 5.104 5.104 0 01-.64-.8 1.44 1.44 0 01-.26-.76 13.57 13.57 0 01.09-1.52c-.47.42-.93.83-1.38 1.21-.45.38-.89.73-1.34 1.07-.45.34-.91.63-1.38.91-.475.285-.974.53-1.49.73-.13.053-.27.084-.41.09a.82.82 0 01-.42-.16 2.532 2.532 0 01-.49-.4 2.88 2.88 0 01-.41-.56 1.15 1.15 0 01-.18-.59c.013-.493.098-.981.25-1.45a8.82 8.82 0 01.71-1.65A13.21 13.21 0 0139.26 35c.462-.58.974-1.118 1.53-1.61A13.2 13.2 0 0142.68 32c.69-.42 1.43-.756 2.2-1a2 2 0 01.57.19l.65.34c.38-1.08.82-2.17 1.31-3.27.49-1.1 1-2.14 1.57-3.15.57-1.01 1.13-2 1.74-2.84a23.815 23.815 0 011.8-2.27c.53-.622 1.13-1.179 1.79-1.66a4.24 4.24 0 011.69-.83c.26.01.512.089.73.23.266.16.514.348.74.56.221.203.422.428.6.67.133.178.235.378.3.59a4.94 4.94 0 01-.37 1.69 14.06 14.06 0 01-1 2.09 24.73 24.73 0 01-1.52 2.33c-.58.82-1.22 1.65-1.89 2.49-.67.84-1.39 1.67-2.13 2.51-.74.84-1.5 1.64-2.25 2.42-.31 1.08-.56 2.11-.75 3.08-.18.876-.28 1.766-.3 2.66zm-7.08-.54a3.18 3.18 0 001.55-.74 20.575 20.575 0 002.33-2c.1-.49.21-1 .35-1.48.14-.48.29-1 .46-1.53-.624.445-1.215.932-1.77 1.46a20.912 20.912 0 00-1.56 1.57c-.413.447-.79.925-1.13 1.43-.22.294-.364.637-.42 1 0 .2.11.29.19.29zm15-18.86a.999.999 0 00-.66.4c-.323.34-.614.708-.87 1.1-.32.47-.66 1-1 1.67-.34.67-.73 1.35-1.1 2.11-.37.76-.73 1.57-1.1 2.42-.37.85-.72 1.73-1 2.6.79-1 1.54-1.94 2.26-2.92.72-.98 1.31-1.91 1.85-2.81a20.05 20.05 0 001.28-2.41 4.69 4.69 0 00.47-1.81v-.24c-.01-.06-.04-.11-.09-.11h-.04z"/><path d="M64.12 36.69c-.86.86-1.779 1.658-2.75 2.39a16.003 16.003 0 01-2.46 1.56c-.712.364-1.464.646-2.24.84a9 9 0 01-2.09.25 1.91 1.91 0 01-.95-.32 4.69 4.69 0 01-1-.77 5.5 5.5 0 01-.76-.94 1.71 1.71 0 01-.3-.84 7.52 7.52 0 01.43-2.38A7.86 7.86 0 0154.24 33a9 9 0 011.57-1.11 7.637 7.637 0 011.63-.66 5.52 5.52 0 011.49-.23c.354.002.7.103 1 .29a4.25 4.25 0 011.52 1.56c.15.237.236.51.25.79a1.8 1.8 0 01-.45 1.1 6.76 6.76 0 01-1.28 1.15 16.93 16.93 0 01-2 1.19 44.03 44.03 0 01-2.55 1.23c-.015.25-.015.5 0 .75a.84.84 0 00.21.66c.24.144.521.207.8.18a5.649 5.649 0 002-.35 10.004 10.004 0 001.78-.91c.58-.378 1.132-.8 1.65-1.26l1.57-1.45.69.76zm-5.58-4a1.06 1.06 0 00-.69.34c-.29.263-.545.562-.76.89a8.998 8.998 0 00-.73 1.28 10.91 10.91 0 00-.6 1.5c.39-.26.77-.53 1.15-.81a8.007 8.007 0 001-.9c.28-.3.52-.637.71-1a2.05 2.05 0 00.27-1 .44.44 0 00-.08-.25.312.312 0 00-.27-.01v-.04z"/><path d="M67.63 32.93a40.81 40.81 0 00-.75 2.06c.67-.79 1.22-1.43 1.66-1.9.44-.47.8-.85 1.09-1.11a4.78 4.78 0 01.72-.56c.167-.09.34-.167.52-.23.172.02.339.075.49.16.25.113.494.24.73.38.26.16.5.32.73.48.18.117.347.25.5.4a.34.34 0 010 .37c-.13.34-.25.68-.37 1-.12.32-.25.69-.36 1a119.58 119.58 0 011.77-2c.473-.52.873-.847 1.2-.98.212-.2.447-.375.7-.52a1.12 1.12 0 01.4-.13c.219.026.43.098.62.21.288.15.566.32.83.51.26.183.504.387.73.61a.94.94 0 01.31.56c.003.04.003.08 0 .12.006.06.006.12 0 .18-.08.26-.19.58-.32.94s-.27.73-.42 1.11c-.15.38-.3.77-.44 1.16-.14.39-.28.75-.4 1.09-.12.34-.21.63-.29.88a2.49 2.49 0 00-.11.56c0 .06 0 .09.1.09.186-.026.364-.094.52-.2.23-.14.5-.32.8-.54.3-.22.62-.47.94-.73.32-.26.65-.53 1-.79l.81-.7.56-.48.34.37.37.41c-.23.23-.52.52-.87.85-.35.33-.73.67-1.13 1-.4.33-.83.7-1.27 1-.41.331-.838.642-1.28.93-.365.253-.75.477-1.15.67a2.24 2.24 0 01-.92.25 1.38 1.38 0 01-.6-.17 3.29 3.29 0 01-.7-.41 2.71 2.71 0 01-.57-.55.93.93 0 01-.24-.58c.09-.43.22-.93.38-1.47.16-.54.33-1.12.52-1.69.19-.57.39-1.15.6-1.71.21-.56.4-1.07.59-1.55-.21.25-.49.56-.84.92-.424.45-.821.924-1.19 1.42a20.777 20.777 0 00-1.42 2.18 24.258 24.258 0 00-1.65 3.2.41.41 0 01-.45.31 1.78 1.78 0 01-.47-.07 3.328 3.328 0 01-.59-.22c-.22-.107-.43-.23-.63-.37a3.425 3.425 0 01-.61-.54c.025-.226.066-.45.12-.67.08-.38.19-.86.34-1.44.15-.58.34-1.23.55-2 .21-.77.45-1.46.71-2.22l-1 1.06a18.337 18.337 0 00-1.22 1.55c-.43.61-.87 1.31-1.33 2.12a22.36 22.36 0 00-1.28 2.72.41.41 0 01-.44.33 1.591 1.591 0 01-.62-.15 4.433 4.433 0 01-.69-.39c-.24-.17-.48-.35-.72-.55a7.5 7.5 0 01-.64-.6c.025-.158.058-.315.1-.47.06-.3.14-.67.25-1.12.11-.45.23-1 .38-1.53s.33-1.19.53-1.82c.2-.63.43-1.28.67-1.94.24-.66.5-1.3.78-1.91.44.21.93.47 1.48.78a8.346 8.346 0 011.54 1.07z"/><path d="M82.78 41.46a1.381 1.381 0 01-.6-.17 3.295 3.295 0 01-.7-.41 2.71 2.71 0 01-.57-.55.93.93 0 01-.24-.58c.11-.47.25-1 .43-1.6a54.896 54.896 0 011.23-3.67c.23-.6.43-1.13.61-1.59.18-.46.35-.84.49-1.13.14-.29.22-.43.27-.43.167.044.326.115.47.21.277.15.544.317.8.5.27.185.524.392.76.62a.86.86 0 01.33.56c.003.04.003.08 0 .12v.18c-.09.26-.2.58-.33.94s-.27.73-.42 1.11c-.15.38-.3.77-.44 1.16-.14.39-.28.75-.4 1.09-.12.34-.21.63-.29.88a2.49 2.49 0 00-.11.56c0 .06 0 .09.1.09.186-.026.364-.094.52-.2.23-.14.5-.32.8-.54.3-.22.62-.47.94-.73.32-.26.65-.53.95-.79l.81-.7.56-.48.34.37.37.41c-.23.23-.52.52-.87.85-.35.33-.73.67-1.13 1-.4.33-.83.7-1.27 1-.41.331-.838.642-1.28.93-.365.253-.75.477-1.15.67a2.24 2.24 0 01-.98.32zm6.27-15s0 .14-.12.31c-.12.17-.15.35-.24.57-.09.22-.2.44-.33.68-.13.24-.24.46-.35.66a4.76 4.76 0 01-.34.5c-.1.13-.19.2-.25.2a2.202 2.202 0 01-.69-.18 4.934 4.934 0 01-.77-.36 6.79 6.79 0 01-.64-.38c-.17-.13-.26-.22-.26-.27a2.64 2.64 0 01.19-.87c.129-.34.276-.675.44-1 .15-.3.323-.588.52-.86.17-.24.31-.37.4-.37.244.016.481.08.7.19.276.122.543.262.8.42.232.14.456.294.67.46.147.167.237.28.27.34v-.04z"/><path d="M97.45 39.19a.09.09 0 00.06.096.09.09 0 00.04.004 1.11 1.11 0 00.47-.21 8.77 8.77 0 00.77-.52l.91-.71.92-.78c.3-.25.57-.49.8-.7l.55-.49.36.38.39.43c-.26.23-.56.52-.92.85-.36.33-.73.68-1.14 1-.41.32-.82.71-1.26 1.07-.44.36-.85.66-1.27.94a9.002 9.002 0 01-1.17.67 2.24 2.24 0 01-1 .26 1.9 1.9 0 01-.63-.11 2.06 2.06 0 01-.63-.31 1.72 1.72 0 01-.47-.46.999.999 0 01-.19-.61v-.3a2.808 2.808 0 010-.48 6.9 6.9 0 01.13-.71c.06-.28.16-.63.29-1-.35.37-.76.75-1.23 1.16-.47.41-1 .78-1.48 1.14-.505.361-1.03.695-1.57 1a8.588 8.588 0 01-1.45.66h-.22a.89.89 0 01-.42-.16 2.355 2.355 0 01-.51-.42 2.591 2.591 0 01-.44-.59 1.4 1.4 0 01-.18-.67c0-.06.03-.27.09-.63.104-.472.259-.93.46-1.37a11.15 11.15 0 011-1.87 11.998 11.998 0 011.9-2.13 13.63 13.63 0 012.71-1.89 8.004 8.004 0 011.63-.68h.13c.156.053.306.12.45.2l.53.28c.156.09.306.19.45.3.103.068.194.153.27.25v.05a10.2 10.2 0 00-1.28.87c-.43.32-.8.61-1.13.88-.33.27-.73.65-1.06 1a8.886 8.886 0 00-1.6 2c-.22.34-.37.72-.44 1.12 0 .18.07.27.22.27a1.28 1.28 0 00.56-.18c.266-.148.523-.312.77-.49.29-.21.6-.45.94-.73l1.07-.87c.35-.266.684-.553 1-.86.291-.276.568-.566.83-.87a7.23 7.23 0 00.73-1c.15.123.285.264.4.42.14.2.28.41.41.64.13.23.23.46.32.68.077.157.124.326.14.5a8.89 8.89 0 00-.56 1.35c-.122.35-.226.708-.31 1.07a5.87 5.87 0 00-.12.79c-.01.19-.02.36-.02.47zM69.36 12.17v4h-1.42V6.25h3.25c1 0 1.47.47 1.47 1.4v3.11a1.208 1.208 0 01-1.06 1.38l1.57 4.05h-1.54l-1.49-4-.78-.02zm0-4.76V11h1.4a.57.57 0 00.38-.09.53.53 0 00.1-.37V7.87a.53.53 0 00-.1-.37.57.57 0 00-.38-.09h-1.4zm-6.25-1.16h1.76c1 0 1.48.47 1.48 1.4v7.14c0 .93-.49 1.4-1.48 1.4h-1.76c-1 0-1.49-.47-1.49-1.4V7.65c0-.93.5-1.4 1.49-1.4zm1.81 8.32v-6.7a.53.53 0 00-.09-.37.59.59 0 00-.38-.09h-.92a.55.55 0 00-.38.09.54.54 0 00-.08.37v6.7a.54.54 0 00.08.37.55.55 0 00.38.09h.92a.59.59 0 00.38-.09.53.53 0 00.09-.37zM58.5 6.25h1.42v9.94H58.5V6.25zm-4.99 5.92v4h-1.42V6.25h3.25c1 0 1.47.47 1.47 1.4v3.11a1.212 1.212 0 01-1.06 1.38l1.57 4.05h-1.54l-1.49-4-.78-.02zm0-4.76V11h1.4a.57.57 0 00.38-.09.53.53 0 00.1-.37V7.87a.53.53 0 00-.1-.37.57.57 0 00-.38-.09h-1.4zM48.09 15H51v1.16h-4.36V6.25h4.21v1.16h-2.76v3.06h2.28v1.16h-2.28V15zm-2.35-8.75v1.16h-1.67v8.78h-1.42V7.41H41V6.25h4.74zm-6.98 0h1.32v9.94h-1.45L36.54 9v7.18h-1.32V6.25h1.51l2 7 .03-7zm-6.76 0h1.42v9.94H32V6.25z"/></g><defs><clipPath id="clip0"><path fill="#fff" d="M0 0h102.72v65H0z"/></clipPath></defs></svg>