<svg width="118" height="48" fill="none" xmlns="http://www.w3.org/2000/svg"><g clip-path="url(#clip0)" fill="#A9AFC3"><path d="M25.46 40.27c0 .15.05.22.14.22a.899.899 0 00.41-.11c.172-.076.337-.17.49-.28.17-.11.35-.24.53-.38.18-.14.34-.28.5-.42l.42-.38.3-.29c.06.06.13.12.21.21l.22.23-.52.51-.63.59c-.22.2-.45.39-.69.58-.23.177-.47.34-.72.49a4.234 4.234 0 01-.7.36 1.66 1.66 0 01-.64.13.799.799 0 01-.39-.15 2.4 2.4 0 01-.44-.36 1.87 1.87 0 01-.36-.45.83.83 0 01-.15-.42 8.368 8.368 0 010-.85l-.77.67c-.25.21-.5.42-.75.6s-.51.36-.78.52a4.632 4.632 0 01-.84.4.598.598 0 01-.23.06.45.45 0 01-.23-.09 1.487 1.487 0 01-.28-.23 1.19 1.19 0 01-.23-.31.65.65 0 01-.1-.33 2.88 2.88 0 01.14-.82c.098-.324.233-.636.4-.93.188-.333.402-.65.64-.95.258-.326.546-.628.86-.9.329-.286.684-.54 1.06-.76.391-.23.807-.414 1.24-.55.111.021.219.059.32.11l.36.19a25.25 25.25 0 011.62-3.61c.31-.57.64-1.1 1-1.59a12.63 12.63 0 011-1.32c.3-.344.635-.656 1-.93.277-.213.598-.364.94-.44a.851.851 0 01.41.13 2.31 2.31 0 01.75.69c.075.101.135.212.18.33a2.692 2.692 0 01-.21.95 8.242 8.242 0 01-.56 1.18c-.24.41-.53.85-.86 1.31-.33.46-.68.92-1.06 1.39-.38.47-.78.94-1.2 1.41-.42.47-.84.93-1.26 1.37a16.008 16.008 0 00-.42 1.73c-.089.492-.13.99-.12 1.49zm-4-.3c.324-.055.625-.2.87-.42.467-.333.905-.704 1.31-1.11.06-.27.12-.55.2-.83.08-.28.16-.57.26-.86a10.484 10.484 0 00-1.88 1.68 6.282 6.282 0 00-.62.81c-.128.17-.21.37-.24.58.01.1.05.18.12.18l-.02-.03zm8.45-10.6a.59.59 0 00-.37.22 5.607 5.607 0 00-.49.62c-.18.27-.37.58-.57.94-.2.36-.41.76-.62 1.19-.21.43-.41.88-.62 1.36-.21.48-.4 1-.59 1.46.45-.55.87-1.1 1.27-1.64.4-.54.77-1.08 1.08-1.52.27-.433.51-.884.72-1.35.152-.313.24-.653.26-1v-.13c.02-.12.02-.15-.05-.15h-.02z"/><path d="M34.43 39.07a15.61 15.61 0 01-1.55 1.34 8.39 8.39 0 01-1.38.87 6.2 6.2 0 01-1.26.48 5.34 5.34 0 01-1.17.14 1.08 1.08 0 01-.54-.18 3.15 3.15 0 01-.55-.43 3.37 3.37 0 01-.42-.53 1 1 0 01-.17-.47 4.334 4.334 0 01.2-1.34c.126-.389.304-.76.53-1.1a4.23 4.23 0 01.76-.87 4.69 4.69 0 01.88-.62c.286-.161.592-.286.91-.37.272-.084.555-.128.84-.13.19.007.377.062.54.16a2.274 2.274 0 01.86.88 1 1 0 01.14.44 1 1 0 01-.26.62 3.52 3.52 0 01-.71.64 9.672 9.672 0 01-1.12.68c-.43.23-.91.46-1.43.69-.01.137-.01.274 0 .41a.481.481 0 00.12.38.78.78 0 00.45.1 3.17 3.17 0 001.11-.2 4.996 4.996 0 001-.51c.33-.21.641-.447.93-.71l.88-.81.41.44zm-3.14-2.23a.64.64 0 00-.39.19 3.38 3.38 0 00-.43.51 5.143 5.143 0 00-.41.71 6.31 6.31 0 00-.33.84c.22-.14.43-.29.64-.45.2-.154.391-.32.57-.5.152-.165.286-.346.4-.54.095-.168.146-.357.15-.55a.25.25 0 000-.15.18.18 0 00-.2-.06z"/><path d="M34.29 38.35c.183-.17.357-.35.52-.54.182-.195.346-.406.49-.63.156-.225.28-.471.37-.73.024-.146.06-.29.11-.43.06-.146.134-.287.22-.42.051-.108.111-.212.18-.31.06-.08.11-.12.16-.12.111.07.218.147.32.23l.43.37.38.36a.854.854 0 01.16.2c-.069.24-.102.49-.1.74.001.218.018.435.05.65 0 .22.07.44.11.68.043.278.063.559.06.84-.008.22-.042.438-.1.65a1.69 1.69 0 01-.32.66c.313-.18.614-.38.9-.6l.79-.62.78-.7.4.44-.63.59c-.23.2-.47.41-.72.61s-.49.39-.75.58c-.26.19-.51.34-.76.49-.23.133-.47.247-.72.34a1.998 1.998 0 01-.65.12 1.62 1.62 0 01-.57-.12 3.99 3.99 0 01-.58-.31 2.337 2.337 0 01-.48-.37.88.88 0 01-.25-.33.265.265 0 010-.07l.08-.13.1-.11h.08a.72.72 0 01.21.08c.172.067.356.094.54.08a.6.6 0 00.35-.1.76.76 0 00.24-.29c.074-.127.124-.266.15-.41.01-.163.01-.327 0-.49a5.58 5.58 0 000-.72c0-.24 0-.46-.08-.68-.1.11-.21.24-.34.37l-.4.39-.4.37-.36.33-.43-.44.46-.5z"/><path d="M40.31 41.75a.781.781 0 01-.34-.1 2.007 2.007 0 01-.39-.23 1.57 1.57 0 01-.32-.31.51.51 0 01-.13-.32c.06-.267.14-.567.24-.9.1-.34.21-.69.32-1 .11-.31.24-.69.37-1 .13-.31.24-.64.35-.9.11-.26.19-.47.27-.63.08-.16.13-.24.15-.24.095.025.185.062.27.11.14.08.29.17.45.28.146.109.287.226.42.35.1.08.167.194.19.32v.17l-.18.52c-.08.2-.15.41-.24.63l-.25.65-.22.61c-.06.19-.12.36-.16.5a1.24 1.24 0 00-.06.31s0 .05.05.05a.712.712 0 00.29-.11 3.35 3.35 0 00.45-.31l.53-.4c.19-.15.37-.3.53-.45l.46-.39.31-.27.2.21.21.23-.49.47-.64.58-.71.59c-.25.19-.49.37-.72.52a4.008 4.008 0 01-.65.37 1.19 1.19 0 01-.56.09zm3.53-8.41l-.07.18-.14.32c-.05.12-.11.25-.18.38-.07.13-.13.26-.2.37-.056.098-.12.192-.19.28-.05.07-.1.11-.14.11a1.592 1.592 0 01-.39-.1 3.363 3.363 0 01-.43-.2 2.847 2.847 0 01-.36-.22c-.1-.07-.14-.12-.14-.15a1.51 1.51 0 01.1-.48c.073-.197.156-.391.25-.58.086-.17.182-.333.29-.49.1-.13.17-.2.23-.2a1 1 0 01.39.1l.45.24c.131.075.255.162.37.26.11.09.16.15.16.18z"/><path d="M50.93 39.07c-.51.52-1 1-1.54 1.44-.54.44-1 .84-1.53 1.22-.09.27-.19.55-.3.83-.11.28-.23.57-.35.85-.17.392-.37.77-.6 1.13-.221.346-.462.68-.72 1-.245.29-.51.564-.79.82a5.94 5.94 0 01-.77.63c-.212.156-.44.29-.68.4a1.27 1.27 0 01-.54.14.69.69 0 01-.36-.13 2.298 2.298 0 01-.38-.33 1.997 1.997 0 01-.32-.44 1 1 0 01-.12-.45 1.56 1.56 0 01.31-.91c.252-.338.544-.643.87-.91.42-.355.857-.689 1.31-1L46 42.24c.13-.34.28-.74.44-1.21.16-.47.36-1 .58-1.72a7.334 7.334 0 01-.75.88 6.95 6.95 0 01-.88.76c-.279.215-.58.4-.9.55a2 2 0 01-.82.21.57.57 0 01-.26-.09 1.696 1.696 0 01-.31-.25 1.905 1.905 0 01-.27-.35.999.999 0 01-.11-.44c.01-.242.058-.482.14-.71.113-.302.254-.594.42-.87a7.479 7.479 0 011.53-1.85 6.78 6.78 0 011.06-.76c.384-.22.794-.392 1.22-.51a1 1 0 01.28.07l.35.17.3.19c.09.06.13.1.13.11-.14.08-.31.2-.52.34-.21.14-.44.32-.68.51-.48.378-.935.79-1.36 1.23-.174.19-.33.394-.47.61a1 1 0 00-.17.52.23.23 0 000 .14.12.12 0 00.12.06 1 1 0 00.5-.16 3.31 3.31 0 00.57-.4c.2-.17.39-.36.59-.56l.56-.61c.17-.2.33-.38.46-.55.13-.17.25-.32.32-.42a.51.51 0 01.19.17c.09.119.166.246.23.38.08.13.148.267.2.41.047.09.077.189.09.29v.06c-.06.21-.15.5-.25.88s-.23.8-.38 1.29c.38-.31.76-.62 1.14-1 .38-.38.77-.68 1.15-1.06l.49.52zm-8 7.27a1 1 0 00.51-.27c.254-.212.492-.442.71-.69.25-.29.49-.6.73-.94.225-.318.426-.652.6-1-.38.28-.74.54-1.06.79a7.62 7.62 0 00-.82.71 4.163 4.163 0 00-.54.67c-.116.197-.182.42-.19.65 0 0 .07.08.13.08h-.07z"/><path d="M53 37l-.21.58a8.966 8.966 0 00-.21.6c.37-.43.69-.78 1-1 .218-.226.449-.44.69-.64.137-.123.288-.23.45-.32a.832.832 0 01.27-.08c.122.015.241.052.35.11.163.086.32.182.47.29.147.104.285.22.41.35a.51.51 0 01.17.31c.004.02.004.04 0 .06a.519.519 0 010 .11c-.05.15-.11.32-.19.52l-.23.63c-.09.22-.17.43-.25.65-.08.22-.16.42-.22.61s-.12.36-.16.5a.998.998 0 00-.07.31s0 .05.06.05a.76.76 0 00.29-.11c.155-.096.305-.2.45-.31l.53-.4.53-.45.46-.39.31-.27.2.21.2.23c-.13.13-.29.29-.49.47l-.64.58-.71.59c-.24.19-.48.37-.71.52-.208.143-.43.267-.66.37a1.19 1.19 0 01-.5.15.78.78 0 01-.34-.1 1.802 1.802 0 01-.4-.23 1.572 1.572 0 01-.32-.31.53.53 0 01-.14-.32c.06-.25.13-.52.22-.83.09-.31.19-.63.3-1l.33-1c.12-.32.23-.61.34-.88-.107.14-.267.32-.48.54a9.005 9.005 0 00-.72.85c-.305.405-.59.825-.85 1.26-.33.56-.62 1.14-.87 1.74a1.495 1.495 0 01-.1.19.18.18 0 01-.17.08.82.82 0 01-.34-.09 2.556 2.556 0 01-.39-.22 3.905 3.905 0 01-.4-.31 2.36 2.36 0 01-.36-.34c.007-.101.024-.202.05-.3 0-.17.07-.38.13-.63s.14-.54.23-.86c.09-.32.19-.66.3-1 .11-.34.24-.72.37-1.09.13-.37.28-.73.43-1.07.25.11.53.26.83.43.276.192.531.413.76.66zm9.21 1.35c.183-.17.357-.35.52-.54.182-.195.346-.406.49-.63.15-.228.27-.473.36-.73.024-.146.06-.29.11-.43a4.01 4.01 0 01.17-.42c.051-.108.111-.212.18-.31.06-.08.12-.12.16-.12.113.067.22.144.32.23l.43.37.38.36a.758.758 0 01.17.2c-.072.24-.109.49-.11.74.005.218.025.435.06.65 0 .22.06.44.1.68.043.278.063.559.06.84a2.79 2.79 0 01-.09.65c-.056.243-.17.47-.33.66.315-.177.616-.377.9-.6.3-.22.56-.43.79-.62l.79-.7.4.44-.64.59c-.23.2-.46.41-.71.61l-.75.58c-.26.18-.51.34-.76.49a5.77 5.77 0 01-.72.34 1.997 1.997 0 01-.65.12 1.62 1.62 0 01-.57-.12 4.15 4.15 0 01-.59-.31 3.004 3.004 0 01-.48-.37.74.74 0 01-.24-.33.13.13 0 010-.07l.08-.13.1-.11h.07a.74.74 0 01.22.08c.168.068.35.096.53.08a.56.56 0 00.35-.1.89.89 0 00.25-.29 1.53 1.53 0 00.14-.41 2.539 2.539 0 000-.49v-.72c0-.23 0-.46-.08-.68l-.35.37-.39.39-.4.37-.36.33-.43-.44.52-.5z"/><path d="M68.52 41.75a.879.879 0 01-.39-.14 2.614 2.614 0 01-.48-.34 3.075 3.075 0 01-.4-.41.69.69 0 01-.17-.37 3.74 3.74 0 01.15-.84c.1-.39.22-.83.38-1.33.16-.5.35-1 .55-1.59.2-.59.41-1.11.62-1.65h-1.26a.41.41 0 010-.16c.03-.072.063-.142.1-.21a.859.859 0 01.13-.2.35.35 0 01.15-.13h1.15l.48-1.12c.15-.34.29-.63.41-.87l.09-.21a.742.742 0 01.14-.22c.073-.09.157-.17.25-.24.131-.095.272-.175.42-.24.13-.07.29-.14.48-.22l.58-.26.5-.16c.102-.04.21-.064.32-.07h.09v.05c0 .06-.1.19-.2.39l-.35.74c-.14.3-.29.64-.46 1-.17.36-.35.79-.52 1.21l2.13-.08c.06 0 .08 0 .06.11a1.344 1.344 0 01-.14.25c-.067.101-.14.198-.22.29a2.583 2.583 0 01-.22.23H70.9c-.21.52-.42 1-.61 1.57-.19.57-.37 1-.53 1.5-.16.5-.28.91-.37 1.31a4.67 4.67 0 00-.14 1s0 .05.06.05a.76.76 0 00.29-.11c.154-.086.3-.183.44-.29l.52-.39c.19-.14.36-.28.53-.42l.45-.39.3-.26.2.21.21.23-.49.47-.64.58-.71.59c-.25.19-.49.37-.72.52-.21.141-.43.265-.66.37a1.19 1.19 0 01-.51.25z"/><path d="M76.47 40.47a.05.05 0 00.013.047.05.05 0 00.047.013.739.739 0 00.3-.12c.13-.07.28-.17.46-.29l.54-.4c.19-.15.37-.29.54-.44l.47-.38.32-.27.19.21.21.23-.5.47c-.2.18-.41.38-.65.57-.24.19-.48.4-.73.59-.25.19-.5.37-.73.52-.216.136-.44.26-.67.37-.163.08-.34.127-.52.14a.818.818 0 01-.34-.09c-.123-.07-.24-.15-.35-.24a1.397 1.397 0 01-.27-.33.59.59 0 01-.11-.34 2.61 2.61 0 01.1-.54c.07-.27.16-.58.26-.94-.24.349-.5.682-.78 1-.26.28-.49.51-.71.71l-.56.44-.35.26-.17.07h-.18a.998.998 0 01-.38-.1 1.895 1.895 0 01-.37-.26 1.38 1.38 0 01-.3-.34.64.64 0 01-.12-.35c.02-.22.064-.438.13-.65.09-.31.2-.67.35-1.09.15-.42.31-.89.51-1.42l.63-1.64c.16.034.317.081.47.14l.57.24c.19.09.35.18.49.26.14.08.2.13.2.16s-.06.14-.14.3l-.26.55c-.09.22-.2.45-.31.71-.11.26-.21.49-.3.72-.09.23-.17.44-.23.63a1.61 1.61 0 00-.09.41s.15-.06.31-.19c.214-.182.411-.383.59-.6.24-.28.5-.63.8-1.06.34-.498.65-1.016.93-1.55l.25-.7a.1.1 0 01.11-.08.812.812 0 01.27.12l.45.28c.147.094.287.197.42.31a.9.9 0 01.21.22v.09a.808.808 0 010 .11c-.06.16-.13.35-.2.57-.07.22-.16.44-.24.68l-.24.71-.21.66c-.06.2-.11.38-.15.54-.007.12 0 .241.02.36z"/><path d="M84.46 40.27c0 .15.05.22.14.22a.899.899 0 00.41-.11c.172-.076.337-.17.49-.28.184-.117.36-.244.53-.38.18-.14.34-.28.5-.42l.43-.38.29-.29c.06.06.13.12.21.21.08.09.16.16.23.23l-.53.51-.63.59c-.22.2-.45.39-.69.58-.23.177-.47.34-.72.49-.22.14-.45.26-.69.36-.203.083-.42.127-.64.13a.799.799 0 01-.4-.15 2.4 2.4 0 01-.44-.36 2.534 2.534 0 01-.36-.45.83.83 0 01-.15-.42 8.368 8.368 0 010-.85l-.77.67c-.25.21-.5.42-.75.6s-.51.36-.78.52a4.632 4.632 0 01-.84.4.598.598 0 01-.23.06.449.449 0 01-.23-.09 1.487 1.487 0 01-.28-.23 1.466 1.466 0 01-.23-.31.65.65 0 01-.1-.33 2.88 2.88 0 01.14-.82 5.21 5.21 0 01.4-.93c.191-.33.405-.648.64-.95.258-.326.546-.628.86-.9.33-.284.685-.538 1.06-.76.391-.23.807-.414 1.24-.55.111.021.219.059.32.11l.36.19a25.25 25.25 0 011.62-3.61c.31-.57.64-1.1 1-1.59.3-.464.635-.905 1-1.32.3-.344.635-.656 1-.93.279-.212.599-.361.94-.44a.921.921 0 01.42.13c.145.091.283.195.41.31.123.114.234.242.33.38.079.099.14.21.18.33a2.692 2.692 0 01-.21.95c-.151.41-.338.804-.56 1.18-.24.41-.53.85-.86 1.31-.33.46-.68.92-1.06 1.39-.38.47-.78.94-1.2 1.41-.42.47-.84.93-1.26 1.37a16.008 16.008 0 00-.42 1.73c-.089.492-.13.99-.12 1.49zm-4-.3c.324-.055.625-.2.87-.42.467-.333.905-.704 1.31-1.11.06-.27.12-.55.2-.83.08-.28.16-.57.26-.86a10.484 10.484 0 00-1.88 1.68 6.282 6.282 0 00-.62.81c-.128.17-.21.37-.24.58.01.1.05.18.12.18l-.02-.03zm8.45-10.6a.59.59 0 00-.37.22 5.596 5.596 0 00-.49.62c-.18.27-.37.58-.57.94-.2.36-.41.76-.62 1.19-.21.43-.41.88-.62 1.36-.21.48-.4 1-.59 1.46.45-.55.87-1.1 1.27-1.64.4-.54.77-1.08 1.08-1.52.27-.433.51-.884.72-1.35a2.67 2.67 0 00.27-1v-.13c0-.05.01-.15-.06-.15h-.02z"/><path d="M87.83 41.75a.781.781 0 01-.34-.1 1.543 1.543 0 01-.39-.23 1.352 1.352 0 01-.32-.31.53.53 0 01-.14-.32c.06-.267.14-.567.24-.9.1-.34.21-.69.33-1 .12-.31.24-.69.36-1l.35-.9c.1-.26.2-.47.27-.63.07-.16.13-.24.15-.24.095.023.186.06.27.11.14.08.29.17.45.28.15.104.29.22.42.35a.48.48 0 01.19.32c.004.02.004.04 0 .06a.519.519 0 010 .11c0 .15-.11.32-.19.52l-.23.63-.25.65c-.09.22-.16.42-.22.61s-.12.36-.17.5a1.24 1.24 0 00-.06.31s0 .05.06.05a.761.761 0 00.29-.11c.155-.096.305-.199.45-.31l.53-.4.53-.45.46-.39.31-.27c0 .06.12.12.19.21l.21.23c-.13.13-.29.29-.49.47l-.64.58-.71.59c-.25.19-.48.37-.72.52-.204.145-.421.27-.65.37a1.19 1.19 0 01-.54.09zm3.52-8.41a.842.842 0 01-.06.18c0 .09-.09.19-.14.32-.05.13-.12.25-.18.38l-.2.37-.19.28c-.06.07-.11.11-.14.11a1.403 1.403 0 01-.39-.1 3.512 3.512 0 01-.44-.2 2.14 2.14 0 01-.35-.22c-.1-.067-.15-.117-.15-.15.011-.165.048-.327.11-.48.069-.2.152-.393.25-.58a3.17 3.17 0 01.29-.49c.09-.13.17-.2.22-.2a.928.928 0 01.39.1c.156.068.306.148.45.24a3.1 3.1 0 01.38.26c.1.093.15.153.15.18z"/><path d="M92.14 40.35c0 .18.06.27.19.27a1 1 0 00.55-.33 6.15 6.15 0 00.7-.82 1.257 1.257 0 010-.18v-.13a4.005 4.005 0 010-.43c.042-.191.109-.377.2-.55.08-.16.16-.32.26-.48l.3-.44c.123-.156.256-.303.4-.44l.24.29.29.37.26.35.14.23c-.003.26-.05.517-.14.76a4.08 4.08 0 01-.37.76 2.35 2.35 0 001-.27 3.52 3.52 0 001-.77l.21.22.21.23c-.226.24-.474.457-.74.65a3.299 3.299 0 01-.72.41 3.215 3.215 0 01-.73.22 3.938 3.938 0 01-.77.07c-.4.413-.859.767-1.36 1.05a3.85 3.85 0 01-.71.3c-.22.068-.45.105-.68.11a1.19 1.19 0 01-.55-.16 2.491 2.491 0 01-.52-.4 2.54 2.54 0 01-.38-.5 1.001 1.001 0 01-.15-.47c0-.456.061-.91.18-1.35.11-.46.296-.9.55-1.3a4.12 4.12 0 012.42-1.7h.2a.48.48 0 01.26.09c.095.059.183.13.26.21.073.071.14.148.2.23a.27.27 0 01.08.15s0 .06-.13.11c-.11.065-.213.138-.31.22a4.883 4.883 0 00-.47.46 7.1 7.1 0 00-.58.79c-.28.398-.5.837-.65 1.3a3.364 3.364 0 00-.14.87zM65.54 29.2H49a.58.58 0 01-.57-.57.57.57 0 01.57-.56h16.54a.561.561 0 01.403.963.57.57 0 01-.403.167zM69.11.34v21.9h-4.73V.34h4.73zM53.44 13.27v9H48.7V.34h8.43c2.8 0 4.2 1.49 4.2 4.47v2.53c0 1.81-.64 3-1.93 3.46a2.6 2.6 0 011.69 2.77v8.67h-4.74V14c0-.46-.21-.68-.64-.68l-2.27-.05zm0-9.72V10H56a.59.59 0 00.45-.2.66.66 0 00.19-.48v-5a.64.64 0 00-.19-.47.57.57 0 00-.45-.3h-2.56zm-15.67 9.72v9H33V.34h8.43c2.8 0 4.2 1.49 4.2 4.47v2.53c0 1.81-.64 3-1.93 3.46a2.6 2.6 0 011.69 2.77v8.67h-4.71V14c0-.46-.21-.68-.64-.68l-2.27-.05zm0-9.72V10h2.51a.59.59 0 00.45-.2.66.66 0 00.19-.48v-5a.64.64 0 00-.19-.47.57.57 0 00-.45-.21l-2.51-.09zM4.74 13.64v8.6H0V.34h4.74v9.17H8.5V.34h4.73v21.9H8.5v-8.6H4.74zm112.33 8.6h-4.74V4.06a.67.67 0 00-.18-.47.598.598 0 00-.46-.21h-1.83a.57.57 0 00-.45.21.646.646 0 00-.19.47v18.18h-4.74V4.47c0-2.98 1.4-4.47 4.2-4.47h4.2c2.793 0 4.19 1.49 4.19 4.47v17.77zM101 4.47v13.64c0 2.98-1.4 4.47-4.2 4.47h-4.5c-2.8 0-4.19-1.49-4.19-4.47V4.47c0-3 1.39-4.47 4.19-4.47h4.5c2.8 0 4.2 1.49 4.2 4.47zm-4.71 14.18V3.89a.67.67 0 00-.388-.621.59.59 0 00-.252-.049h-2.13a.58.58 0 00-.46.2.68.68 0 00-.19.47v14.76a.68.68 0 00.19.47.59.59 0 00.46.21h2.13a.6.6 0 00.46-.21.67.67 0 00.18-.47zM84.78 6.09h-4.5V4.37a.72.72 0 00-.18-.48.63.63 0 00-.46-.2h-1.86a.61.61 0 00-.46.2.73.73 0 00-.19.48v3.89a.68.68 0 00.19.47.59.59 0 00.46.21h3c2.813.04 4.22 1.527 4.22 4.46v4.71c0 2.98-1.4 4.47-4.2 4.47h-4c-2.8 0-4.2-1.49-4.2-4.47v-2.27h4.5v2.44a.68.68 0 00.19.47.58.58 0 00.46.2h2.1a.56.56 0 00.45-.2.641.641 0 00.19-.47V14a.68.68 0 00-.19-.48.59.59 0 00-.45-.2h-3c-2.8 0-4.2-1.49-4.2-4.47V4.47C72.637 1.49 74.03 0 76.83 0h3.76c2.787 0 4.183 1.49 4.19 4.47v1.62zM25.32 0c2.787 0 4.183 1.49 4.19 4.47v17.77h-4.73v-7.35h-3.42v7.35h-4.74V4.47c0-2.98 1.4-4.47 4.2-4.47h4.5zm-4 11.24h3.42V3.89a.68.68 0 00-.19-.47.58.58 0 00-.46-.2H22a.59.59 0 00-.46.2.67.67 0 00-.18.47l-.04 7.35z"/></g><defs><clipPath id="clip0"><path fill="#fff" d="M0 0h117.07v47.53H0z"/></clipPath></defs></svg>