<svg width="96" height="96" fill="none" xmlns="http://www.w3.org/2000/svg"><g clip-path="url(#clip0)" fill="#A9AFC3"><path d="M49.33 93.65a.41.41 0 00-.4.4v1.39a.4.4 0 00.43.36.41.41 0 00.41-.4v-1.39a.379.379 0 00-.44-.36zm-3.13-.08a.39.39 0 00-.42.36l-.05.9a.41.41 0 00.4.4.4.4 0 00.43-.36v-.9a.4.4 0 00-.36-.4zm9.06-2.34a.39.39 0 00-.32.43l.61 4a.429.429 0 00.84-.13l-.68-3.94a.402.402 0 00-.45-.36zm-11.54-.1a.361.361 0 00-.42.31l-.25 2.16a.41.41 0 00.36.43.389.389 0 00.45-.34l.2-2.16a.38.38 0 00-.34-.4zm8.49-.27a.36.36 0 00-.34.39l.13 1.88a.42.42 0 00.586.316.371.371 0 00.214-.366l-.19-1.87a.4.4 0 00-.4-.35zm13.13-.15a.41.41 0 00-.52-.21.379.379 0 00-.24.49l.32.84a.42.42 0 00.78-.28l-.34-.84zm-28.17-.32a.37.37 0 00-.47.26l-1.05 3.86a.43.43 0 00.83.21l1-3.87a.37.37 0 00-.31-.46zm-6.42-.17a.4.4 0 00-.52.19l-.55 1.28a.388.388 0 00.24.51.42.42 0 00.54-.2l.54-1.3a.372.372 0 00-.25-.48zM46.36 90a.371.371 0 00-.39.35l-.1 1.9a.371.371 0 00.37.39.38.38 0 00.41-.35l.07-1.9a.39.39 0 00-.36-.39zm21.87-.56a.388.388 0 00-.53-.16.38.38 0 00-.2.51l.59 1.27a.39.39 0 00.54.16.41.41 0 00.21-.53l-.61-1.25zm-6.69-.2a.4.4 0 00-.24.49l.7 2.07a.371.371 0 00.5.22.392.392 0 00.26-.49L62 89.47a.37.37 0 00-.46-.23zM27.4 89l-.42.81a.42.42 0 00.75.36l.4-.81a.382.382 0 00-.2-.51.39.39 0 00-.53.15zm7.14-.21a.36.36 0 00-.48.22l-.61 1.78a.39.39 0 00.25.49.38.38 0 00.5-.22l.58-1.79a.38.38 0 00-.24-.48zm6.37-.79a.38.38 0 00-.42.32l-.57 2.93a.39.39 0 00.77.12l.51-3a.35.35 0 00-.29-.37zm8.35 2.91a.39.39 0 00.37-.4l-.07-2.21a.36.36 0 00-.37-.36.39.39 0 00-.35.4v2.21a.36.36 0 00.42.36zm8.47-3.35a.38.38 0 00-.26.46l.67 2.91a.39.39 0 00.71.093.4.4 0 00.05-.293l-.73-2.89a.37.37 0 00-.44-.28zm6.98 1.6L64 87.4a.39.39 0 00-.49-.22.369.369 0 00-.21.48l.7 1.77a.381.381 0 00.5.21.36.36 0 00.21-.48zm-20.56-2.23a.341.341 0 00-.38.32L43.46 90a.39.39 0 00.33.43.371.371 0 00.41-.34l.26-2.75a.36.36 0 00-.31-.41zm11.21 2.59L55 87.19a.37.37 0 00-.41-.32.36.36 0 00-.28.43l.36 2.34a.37.37 0 00.42.31.36.36 0 00.27-.43zm-17.07-3.41a.38.38 0 00-.44.28l-.62 2.28a.38.38 0 00.27.46.371.371 0 00.45-.27l.58-2.3a.37.37 0 00-.24-.45zm-8.76-.45a.38.38 0 00-.51.17l-.86 1.69a.36.36 0 00.18.5.378.378 0 00.52-.16l.84-1.71a.37.37 0 00-.17-.49zm-3.37.03l-1.1 1.87a.392.392 0 00.16.53.37.37 0 00.53-.12l1.07-1.88a.39.39 0 00-.427-.572.38.38 0 00-.233.172zm43.55-.02a.37.37 0 00-.51-.12.39.39 0 00-.15.52l.95 1.65a.37.37 0 00.53.12.4.4 0 00.16-.53l-.98-1.64zm-8.15 2.41l-.88-2.61a.341.341 0 00-.44-.24.39.39 0 00-.21.48l.83 2.63a.35.35 0 00.46.23.4.4 0 00.24-.49zm-29.09-2.93l-.87 2a.36.36 0 00.21.49.38.38 0 00.49-.22l.84-2a.348.348 0 00-.19-.47.39.39 0 00-.48.2zm16.71 2.13a.37.37 0 00.33-.39L49.45 85a.35.35 0 00-.34-.36.38.38 0 00-.32.4v1.93a.35.35 0 00.39.31zm23.51-2.49a.39.39 0 00-.53-.11.362.362 0 00-.13.51l2.17 3.36a.42.42 0 00.57.1.39.39 0 00.15-.54l-2.23-3.32zm-26.09-.23a.35.35 0 00-.34.35l-.2 3.75a.36.36 0 00.72 0l.13-3.66a.352.352 0 00-.164-.395.351.351 0 00-.146-.045zm5.83 4.71L52 84.83a.37.37 0 00-.36-.36.34.34 0 00-.29.39l.37 4.45a.39.39 0 00.4.35.34.34 0 00.31-.39zm-8.02-4.83a.34.34 0 00-.36.33l-.12 1.07a.38.38 0 00.29.43.35.35 0 00.37-.35l.11-1.08a.35.35 0 00-.29-.4zm10.31 1.35l-.23-1.35a.36.36 0 00-.38-.32.36.36 0 00-.27.42l.21 1.35a.36.36 0 00.4.32.35.35 0 00.27-.42zm5.51-1.66l-.34-1a.34.34 0 00-.42-.25.38.38 0 00-.19.47l.32 1a.341.341 0 00.43.24.37.37 0 00.2-.46zm10-3.01a.38.38 0 00-.5-.13.34.34 0 00-.1.49l1.29 2a.38.38 0 00.52.12.35.35 0 00.11-.51l-1.32-1.97zm3.19-.74a.38.38 0 00-.52-.09.38.38 0 00-.07.52l1.81 2.38a.38.38 0 00.54.06.369.369 0 00.08-.53l-1.84-2.34zm4.16-.11a.39.39 0 00-.54 0 .378.378 0 000 .54l1.44 1.63a.39.39 0 00.55 0 .41.41 0 000-.56l-1.45-1.61zm3.54-.2a.37.37 0 00-.54 0 .42.42 0 000 .56l.64.64a.382.382 0 00.55 0 .42.42 0 000-.57l-.65-.63zm-11.76.36a.34.34 0 00.08-.49l-.76-1.14a.38.38 0 00-.49-.14.34.34 0 00-.07.48l.74 1.15a.39.39 0 00.5.14zM66.05 80a.38.38 0 00-.1.5l2.16 3.9a.35.35 0 00.5.14.39.39 0 00.13-.52l-2.23-3.86a.34.34 0 00-.46-.16zm-.32 4.3a.358.358 0 00-.48-.18.37.37 0 00-.16.49l.93 2a.379.379 0 00.73-.007.38.38 0 00-.05-.313l-.97-1.99zM41.65 84a.37.37 0 00-.39.32L40.74 87a.35.35 0 00.28.43.37.37 0 00.41-.32l.47-2.72a.33.33 0 00-.25-.39zm16.2 2.54l-.67-2.67a.35.35 0 00-.41-.28.35.35 0 00-.22.44l.62 2.69a.359.359 0 00.43.28.38.38 0 00.25-.46zM39 83.41a.37.37 0 00-.41.29l-.36 1.3a.35.35 0 00.23.45.36.36 0 00.42-.28l.33-1.32a.35.35 0 00-.21-.44zm-2.41-.7a.35.35 0 00-.42.24l-1.47 4.22a.38.38 0 00.372.502.349.349 0 00.318-.252l1.39-4.24a.37.37 0 00-.19-.47zm-16.16-.39l-2.53 3.1a.391.391 0 00.1.58.43.43 0 00.58 0l2.47-3.14a.368.368 0 00-.08-.53.39.39 0 00-.54-.01zm42.93 3.49L62 82.34a.37.37 0 00-.44-.24.34.34 0 00-.17.46l1.34 3.5a.38.38 0 00.47.23.36.36 0 00.16-.48zm-35.82-.99l1.36-2.41a.35.35 0 00-.11-.5.35.35 0 00-.48.14l-1.4 2.38a.378.378 0 00-.027.457A.38.38 0 0027 85a.36.36 0 00.54-.18zm6.13-.72l.73-1.79a.34.34 0 00-.16-.46.38.38 0 00-.45.22L33 83.85a.352.352 0 00.17.48.39.39 0 00.5-.23zm-8.32-2.45a.35.35 0 00-.5.09l-1.71 2.44a.41.41 0 00.1.55.37.37 0 00.53-.09l1.67-2.47a.39.39 0 00-.09-.52zm38.46-.56a.36.36 0 00-.13.48l.82 1.76a.352.352 0 00.333.221.35.35 0 00.137-.031.36.36 0 00.14-.49l-.84-1.74a.36.36 0 00-.46-.2zm-33.36 3.53l1.65-3.37a.36.36 0 00-.13-.48.37.37 0 00-.46.2L29.8 84.3a.374.374 0 00.046.41.37.37 0 00.114.09.38.38 0 00.49-.18zm-1.32-3.29a.338.338 0 00.47-.15l.54-.94a.38.38 0 00-.09-.5.349.349 0 00-.47.16l-.55.93a.362.362 0 000 .4.36.36 0 00.1.1zm-9.85-1.1a.37.37 0 000-.53.39.39 0 00-.54 0l-1.28 1.37a.38.38 0 000 .55.39.39 0 00.55 0l1.27-1.39zm-4.6-.82l-1 1a.42.42 0 000 .57.4.4 0 00.56 0l1-1a.4.4 0 000-.56.38.38 0 00-.56-.01zm9.06-.6a.39.39 0 00-.52.09l-1.49 1.83a.35.35 0 00.06.52.39.39 0 00.53-.07l1.47-1.86a.37.37 0 00-.05-.51zm2.44 2.25l1.54-2.28a.39.39 0 000-.51.35.35 0 00-.48.12l-1.57 2.25a.38.38 0 00.06.52.34.34 0 00.45-.1zm57.09-3.3a.41.41 0 00-.56 0 .38.38 0 000 .55l1 .92a.41.41 0 00.56-.07.37.37 0 000-.55l-1-.85zm-4.71-.17a.36.36 0 00-.52 0 .4.4 0 000 .54l1.34 1.34a.351.351 0 00.53 0 .39.39 0 000-.55l-1.35-1.33zm-3.83-.43a.35.35 0 00-.52.47L76 79.7a.37.37 0 00.53 0 .38.38 0 000-.53l-1.8-2.01zM72 79.75a.37.37 0 00.51.08.34.34 0 000-.5l-1.7-2.17a.36.36 0 00-.49-.1.34.34 0 000 .49l1.68 2.2zM12.61 77l-.7.57a.41.41 0 000 .57.4.4 0 00.56.07l.7-.58a.41.41 0 00-.52-.63h-.04zm11.55 1.29a.38.38 0 00.51-.09l.84-1.07a.34.34 0 000-.49.36.36 0 00-.49.1l-.87 1.06a.342.342 0 00.01.49zm-6.42-.7l1.6-1.54a.38.38 0 000-.52.35.35 0 00-.51 0L17.24 77a.39.39 0 000 .54.37.37 0 00.5.05zm56.03-.96a.36.36 0 000-.51l-.73-.8a.33.33 0 10-.49.44l.72.81a.36.36 0 00.5.06zm-53.18 2.16l3-3.31a.35.35 0 000-.49.36.36 0 00-.5.05l-3.04 3.26a.37.37 0 000 .52.38.38 0 00.54-.03zm-5.2-4.01L13.91 76a.4.4 0 00-.05.55.4.4 0 00.55.06l1.45-1.22a.37.37 0 000-.52.35.35 0 00-.47-.09zm65.21.72l-1.7-1.42a.37.37 0 00-.598.117.36.36 0 00.078.393l1.67 1.46a.39.39 0 00.54 0 .37.37 0 00.01-.55zm2.46-1.81a.39.39 0 00-.53.08.39.39 0 00.07.53l1.5 1.14a.381.381 0 00.54-.09.382.382 0 00.041-.434.379.379 0 00-.101-.116l-1.52-1.11zm2.35-2.03a.38.38 0 00-.52.13.39.39 0 00.11.53l3.35 2.2a.4.4 0 00.54-.16.42.42 0 00-.1-.57l-3.38-2.13zm-6.58-3.77a.36.36 0 00.15.48l1.14.75a.34.34 0 00.49-.08.37.37 0 00-.14-.5l-1.16-.73a.34.34 0 00-.48.08zm7.77 1.55a.4.4 0 00.53-.15.41.41 0 00-.16-.53l-2.64-1.4a.35.35 0 00-.49.15.36.36 0 00.16.49l2.6 1.44zm-2.8 1.64a.39.39 0 00-.13-.52l-2-1.26a.35.35 0 00-.5.1.39.39 0 00.14.5l2 1.3a.36.36 0 00.49-.12zm-2.23 1.98a.37.37 0 00-.08-.52l-3.6-2.63a.329.329 0 00-.505.028.33.33 0 00.115.492l3.55 2.7a.38.38 0 00.52-.07zm-4.21.61a.36.36 0 00.51 0 .351.351 0 00-.05-.5l-1.48-1.24a.36.36 0 00-.5 0 .339.339 0 00.06.49l1.46 1.25zm-.01 3.26a.39.39 0 000-.53l-2.7-2.6a.33.33 0 00-.48 0 .39.39 0 000 .51l2.65 2.65a.35.35 0 00.53-.03zm-64.51-3.45l-1.77 1.26a.389.389 0 00-.06.55.4.4 0 00.55.1l1.74-1.29a.37.37 0 00.07-.53.38.38 0 00-.53-.09zm7.01 1.59a.361.361 0 00.51 0l1.39-1.34a.38.38 0 00.06-.5.35.35 0 00-.5 0l-1.41 1.33a.37.37 0 00-.05.51zm.15-3.22a.33.33 0 00.07-.48.318.318 0 00-.372-.08.318.318 0 00-.108.08l-2.87 2.33a.39.39 0 00-.08.53.39.39 0 00.53 0L20 71.85zm-6 1.3a.37.37 0 00.52.08l2.22-1.65a.359.359 0 00.1-.5.38.38 0 00-.52 0L14 72.63a.36.36 0 000 .52zm3.83-2.41l.87-.65a.35.35 0 00.11-.48.37.37 0 00-.5 0l-.88.63a.35.35 0 00-.11.49.37.37 0 00.51.01zm-4.19-.8a.36.36 0 00.13-.5.38.38 0 00-.51-.12l-2.55 1.55a.39.39 0 00.4.66l2.53-1.59zM9 68.06l-3.57 1.81a.4.4 0 00-.15.55.39.39 0 00.52.21l3.53-1.87a.39.39 0 00-.043-.712.38.38 0 00-.287.012zm8.25-.77a.341.341 0 00-.48-.08l-2.36 1.42a.37.37 0 00-.14.5.35.35 0 00.5.1l2.33-1.46a.351.351 0 00.15-.48zm-4.31-1.22l-2.11 1.06a.39.39 0 00-.18.51.358.358 0 00.5.16l2.09-1.1a.38.38 0 00.18-.49.34.34 0 00-.48-.14zm75.16-.49a.4.4 0 00-.547.342.37.37 0 00.217.358l2 .9a.4.4 0 00.52-.21.37.37 0 00-.17-.52l-2.02-.87zm-7.85-.02a.34.34 0 00.16.46l2.41 1.33a.349.349 0 00.556-.258.35.35 0 00-.226-.352l-2.43-1.3a.34.34 0 00-.47.12zM7 66.47l1.72-.76a.37.37 0 00.18-.5.4.4 0 00-.5-.19l-1.74.73a.369.369 0 00-.17.51.39.39 0 00.51.21zm7-.57a.34.34 0 00.48.13l1.21-.64a.36.36 0 00.19-.46.328.328 0 00-.344-.169.33.33 0 00-.126.049l-1.22.61a.37.37 0 00-.19.48zm78.06-1.66l-.85-.3a.38.38 0 00-.49.24.4.4 0 00.21.52l.84.32a.4.4 0 00.5-.25.41.41 0 00-.21-.53zm-8.32-.18a.341.341 0 00.19.46l2.51 1.15a.38.38 0 00.537-.32.36.36 0 00-.217-.35l-2.53-1.1a.38.38 0 00-.49.16zm-78.36-.73a.39.39 0 00-.49-.25l-1.33.45a.4.4 0 00-.21.52.41.41 0 00.5.27l1.31-.48a.39.39 0 00.22-.51zm76.28.16l1 .45a.37.37 0 00.49-.15.35.35 0 00-.19-.46l-1-.43a.38.38 0 00-.49.14.36.36 0 00.19.45zm5.94-.07l1.77.68a.39.39 0 00.479-.533.4.4 0 00-.21-.207l-1.78-.65a.37.37 0 00-.48.22.39.39 0 00.22.49zm-72.79-.75a.38.38 0 00-.48-.15l-4.12 1.74a.36.36 0 00-.19.48.4.4 0 00.51.18l4.08-1.81a.33.33 0 00.2-.44zm-4.04-1.23a.37.37 0 00-.48-.21l-2.1.71a.38.38 0 00.26.71l2.08-.75a.38.38 0 00.24-.46zm82.81-.11L92.24 61a.372.372 0 00-.46.28.4.4 0 00.25.5l1.34.41a.37.37 0 00.46-.29.422.422 0 00-.25-.57zm-7.33.79l-3.52-1.28a.332.332 0 00-.401.05.33.33 0 00.181.56L86 62.8a.37.37 0 00.48-.21.38.38 0 00-.23-.47zm-74.38-.71l1.81-.66a.351.351 0 00.25-.43.38.38 0 00-.47-.18l-1.83.63a.359.359 0 00-.24.45.37.37 0 00.48.19zm-7.4-1.08A.38.38 0 004 60l-.87.23a.4.4 0 00-.26.5.4.4 0 00.47.31l.86-.25a.4.4 0 00.27-.46zm84.67.12a.38.38 0 00-.26-.47l-2.13-.61a.353.353 0 00-.383.107.35.35 0 00-.067.123.39.39 0 00.27.46l2.12.65a.36.36 0 00.45-.26zm-83.32-.08l1.82-.52a.39.39 0 00.27-.46.37.37 0 00-.45-.27l-1.83.49a.4.4 0 00-.208.615.38.38 0 00.398.145zm77.27-1.72a.37.37 0 00.28.42l1.85.57a.329.329 0 00.44-.23.37.37 0 00-.27-.44l-1.86-.53a.34.34 0 00-.44.21zm-69.91-.72a.36.36 0 00-.45-.21l-3.62 1a.38.38 0 00-.27.45.36.36 0 00.45.25l3.6-1a.38.38 0 00.29-.49zm77.06.14l1.84.43a.4.4 0 00.46-.31.371.371 0 00-.27-.47l-1.84-.39a.38.38 0 00-.46.29.37.37 0 00.27.45zm-87.05-.25a.41.41 0 00.47.31l2.12-.47a.35.35 0 00.27-.45.4.4 0 00-.45-.3l-2.13.43a.38.38 0 00-.28.48zM7 56.62a.35.35 0 00-.28.44.39.39 0 00.46.29l2.69-.6a.34.34 0 00.28-.41.38.38 0 00-.44-.26L7 56.62zm81.8.74a.349.349 0 00-.27-.44L84.16 56a.37.37 0 00-.45.23.36.36 0 00.29.4l4.34 1a.38.38 0 00.46-.27zm-77.52-.91l1.06-.24a.34.34 0 00.29-.39.38.38 0 00-.44-.24l-1.07.22a.33.33 0 00-.29.4.38.38 0 00.45.25zm84.39-1.38l-4-.56a.38.38 0 00-.43.32.4.4 0 00.31.45l4 .63a.4.4 0 00.44-.36.41.41 0 00-.32-.48zm-5.99-.85l-2.35-.34a.36.36 0 00-.42.29.362.362 0 00.32.4l2.33.38a.38.38 0 00.426-.455.36.36 0 00-.306-.275zm-3.75-.54l-1.36-.19a.33.33 0 10-.1.64l1.35.22a.36.36 0 00.43-.28.36.36 0 00-.32-.39zm-81.5.41a.38.38 0 00.43.33L7.81 54a.36.36 0 00.32-.4.38.38 0 00-.43-.31l-3 .36a.37.37 0 00-.27.44zm7.76-1.03a.37.37 0 00-.43-.27L9 53.12a.36.36 0 00-.32.4.38.38 0 00.43.3l2.72-.39a.35.35 0 00.36-.37zm80.09-1.42a.4.4 0 00-.36-.42l-3-.2a.37.37 0 00-.39.34.38.38 0 00.36.39l3 .25a.371.371 0 00.39-.36zM88 51.31a.38.38 0 00-.36-.38l-2.75-.18a.35.35 0 00-.39.3.37.37 0 00.36.35l2.75.24a.36.36 0 00.39-.33zm-83.26-.55a.37.37 0 00-.39-.37l-4 .19A.41.41 0 000 51a.4.4 0 00.4.4l4-.26a.39.39 0 00.34-.38zm1.7.24l2.36-.15a.39.39 0 00.36-.37.36.36 0 00-.4-.33l-2.36.11a.38.38 0 00-.36.39.37.37 0 00.4.35zm3.78-.22l1.36-.09a.329.329 0 00.356-.465.33.33 0 00-.356-.185l-1.37.07a.37.37 0 00-.36.36.35.35 0 00.37.31zM85 47.92a.33.33 0 00-.36.33.331.331 0 00.36.32h1.08a.38.38 0 00.4-.33.39.39 0 00-.4-.34l-1.08.02zm5.63.33a.39.39 0 00-.39-.37h-2.76a.34.34 0 00-.36.35.35.35 0 00.36.35h2.76a.39.39 0 00.39-.33zm3.63 0a.42.42 0 00-.39-.41H91.7a.37.37 0 00-.36.39.36.36 0 00.36.38h2.17a.41.41 0 00.39-.36zm-82.41-.41a.33.33 0 00-.36-.33L7 47.42a.37.37 0 00-.39.36.35.35 0 00.35.37h4.47a.38.38 0 00.42-.31zm-9.05-.1a.37.37 0 00.36.4H5a.4.4 0 00.4-.38.36.36 0 00-.36-.38H3.16a.41.41 0 00-.36.36zm64.86 16.8h5.68v2.29h-8.53V47.19h8.31v2.3h-5.46v6h4.52v2.29h-4.52v6.76zM51.1 66.83h-2.48V47.19h3.1l3.36 12.18 3.36-12.18h3.1v19.64h-2.47V52.47l-2.7 10.1H53.8L51.1 52.5v14.33zm-7.34 0L43 62.29h-4.17l-.72 4.54h-2.83l3.49-19.64h4.11l3.73 19.64h-2.85zM39.18 60h3.41l-1.78-10.36L39.18 60zm-8.51-12.81h2.61v19.64h-2.86l-4.14-14.18v14.18h-2.6V47.19h3l4 13.78-.01-13.78zM89 45.79a.348.348 0 00-.39-.33l-3.74.25a.36.36 0 00-.36.35.35.35 0 00.39.3l3.74-.19a.37.37 0 00.36-.38zm3.59-.21a.38.38 0 00-.39-.37l-1.89.13a.38.38 0 00-.36.4.38.38 0 00.39.35l1.9-.1a.382.382 0 00.35-.41zm2.57-.15a.38.38 0 00-.39-.39l-.9.06a.41.41 0 000 .81h.9a.391.391 0 00.39-.48zM11.62 45l-1.93-.2a.35.35 0 00-.39.31.37.37 0 00.36.37l1.93.14a.35.35 0 00.39-.3.37.37 0 00-.36-.32zM6 45.23l2.21.15a.351.351 0 00.39-.32.38.38 0 00-.36-.39l-2.2-.19a.36.36 0 00-.4.34.4.4 0 00.36.41zm-4.84-.35l1.39.1a.381.381 0 00.4-.37.41.41 0 00-.36-.44l-1.39-.12a.37.37 0 00-.39.38.4.4 0 00.35.45zm85.36-1.95l-1.92.26a.34.34 0 00-.32.37.36.36 0 00.156.22.36.36 0 00.264.05l1.92-.23a.34.34 0 00.32-.38.361.361 0 00-.42-.29zm1.4-.2a.36.36 0 00-.32.4.39.39 0 00.43.31l2.2-.27a.36.36 0 00.31-.42.38.38 0 00-.43-.32l-2.19.3zm-75.64.1a.35.35 0 00-.32-.37l-3.7-.59a.37.37 0 00-.43.3.36.36 0 00.32.41l3.71.52a.36.36 0 00.42-.27zm80.99-.43a.41.41 0 00.43.36l1.39-.17a.387.387 0 00.31-.307.392.392 0 000-.153.41.41 0 00-.44-.37l-1.38.24a.38.38 0 00-.31.4zM4.69 41.3a.39.39 0 00-.43.34.39.39 0 00.31.44l1.88.26a.375.375 0 10.12-.74l-1.88-.3zM2 41.72l.89.13a.4.4 0 00.43-.35A.39.39 0 003 41l-.89-.14a.4.4 0 00-.43.36.39.39 0 00.32.5zm10.34-1.44l-1.06-.23a.37.37 0 00-.45.25.332.332 0 00.29.4l1.07.22a.39.39 0 00.44-.24.35.35 0 00-.29-.4zM89 40.06a.36.36 0 00-.44-.29l-4.37.91a.38.38 0 00-.31.4.35.35 0 00.42.25l4.38-.84a.39.39 0 00.32-.43zm-79.1-.32l-2.69-.59a.377.377 0 00-.397.145.38.38 0 00-.063.135.35.35 0 00.28.44l2.71.55a.38.38 0 00.44-.26.351.351 0 00-.28-.42zm82.88-.43a.381.381 0 00-.45-.32l-1.84.38a.4.4 0 00-.25.588.37.37 0 00.38.172l1.85-.36a.4.4 0 00.31-.46zm-89.12-.94a.41.41 0 00-.47.31.37.37 0 00.28.47l2.13.43a.39.39 0 00.45-.29.37.37 0 00-.27-.46l-2.12-.46zm81.4.15a.38.38 0 00.28-.43.36.36 0 00-.45-.23l-1.32.37a.37.37 0 00-.28.42.36.36 0 00.45.22l1.32-.35zm3.48-1.69l-2.28.65a.37.37 0 00-.28.43.35.35 0 00.45.24l2.29-.6a.38.38 0 00.208-.59.36.36 0 00-.388-.13zM13.32 38a.37.37 0 00-.28-.42l-2.63-.8A.35.35 0 0010 37a.39.39 0 00.27.45l2.65.75a.34.34 0 00.4-.2zm-7.5-2.24a.4.4 0 00.26.49l2.92.81a.349.349 0 00.45-.24.39.39 0 00-.27-.46l-2.86-.87a.361.361 0 00-.5.27zm84.42.99a.38.38 0 00.46.28l3.87-1a.41.41 0 00.26-.51.39.39 0 00-.47-.31l-3.85 1.08a.4.4 0 00-.27.46zm-7.76-.7a.35.35 0 00.46.18l2.61-.9a.351.351 0 00.23-.45.358.358 0 00-.48-.2l-2.58.94a.34.34 0 00-.24.43zm-68.27-.65A.36.36 0 0014 35l-1.27-.5a.342.342 0 00-.24.64l1.29.47a.35.35 0 00.43-.21zm75.15-2.21l-2.8 1a.36.36 0 00-.23.46.38.38 0 00.48.22l2.82-1a.39.39 0 00.22-.49.39.39 0 00-.49-.19zm-80.45.6l2.22.82a.36.36 0 00.47-.2.37.37 0 00-.23-.46l-2.21-.86a.372.372 0 00-.25.7zm73.73-1.23l-1 .45a.36.36 0 00-.21.45.38.38 0 00.49.14l1-.44a.33.33 0 00.19-.45.36.36 0 00-.47-.15zm-13.15-1.03c1.76 0 2.64.94 2.64 2.81v8.16c0 1.87-.88 2.81-2.64 2.81H64V31.53h5.49zm-.34 11.31V34a.44.44 0 00-.12-.3.372.372 0 00-.28-.13H67v9.72h1.75a.368.368 0 00.28-.13.44.44 0 00.12-.32zM36.9 39.67v5.64h-3V31.53h5.31c1.76 0 2.64.94 2.64 2.81v1.6a2.05 2.05 0 01-1.22 2.17 1.66 1.66 0 011.07 1.75v5.45h-3v-5.22a.37.37 0 00-.41-.42H36.9zm0-6.12v4h1.58a.37.37 0 00.29-.13.4.4 0 00.11-.3V34a.411.411 0 00-.4-.43l-1.58-.02zm-6.41 4.22A2.12 2.12 0 0131.88 40v2.5c0 1.87-.88 2.81-2.64 2.81h-5.48V31.53h5.31c1.76 0 2.64.94 2.64 2.81v1.26a2.06 2.06 0 01-1.22 2.17zm-2.17-4.22h-1.58v3.69h1.58a.37.37 0 00.29-.13.408.408 0 00.12-.3V34a.44.44 0 00-.12-.3.41.41 0 00-.29-.15zm.58 9.29v-3.09a.44.44 0 00-.12-.3.4.4 0 00-.29-.12h-1.75v3.94h1.75a.409.409 0 00.29-.13.44.44 0 00.12-.3zM62 45.31h-3V33.87a.43.43 0 00-.11-.3.4.4 0 00-.29-.12h-1.12a.4.4 0 00-.29.12.43.43 0 00-.11.3v11.44h-3V34.13c0-1.88.88-2.81 2.64-2.81h2.65c1.76 0 2.64.93 2.64 2.81L62 45.31zM49.26 31.32c1.76 0 2.64.93 2.64 2.81v11.18h-3v-4.62h-2.13v4.62h-3V34.13c0-1.88.88-2.81 2.65-2.81h2.84zm-2.49 7.07h2.15v-4.62a.41.41 0 00-.12-.3.36.36 0 00-.29-.13h-1.34a.37.37 0 00-.29.13.4.4 0 00-.11.3v4.62zM7 33.08a.39.39 0 00.49-.23.4.4 0 00-.22-.5L3.52 30.9a.41.41 0 00-.5.27.4.4 0 00.21.53L7 33.08zm7.69.14a.36.36 0 00.48-.13.338.338 0 00-.2-.45l-4-1.9a.38.38 0 00-.5.17.37.37 0 00.19.49l4.03 1.82zM14.08 30l1.7.91a.35.35 0 00.48-.11.33.33 0 00-.16-.46l-1.69-.94a.37.37 0 00-.5.11.37.37 0 00.17.49zm73.69.22a.37.37 0 00-.18.5.4.4 0 00.51.2l2-.87a.379.379 0 00.17-.52.4.4 0 00-.52-.21l-1.98.9zm-78.43.19a.37.37 0 00-.17-.5l-1.71-.8a.39.39 0 00-.51.2.38.38 0 00.17.52l1.72.77a.39.39 0 00.5-.19zm71.71-2.59l-1.64 1a.341.341 0 00-.15.47.35.35 0 00.49.09l1.65-1a.357.357 0 00.177-.214c.014-.045.02-.093.014-.14a.359.359 0 00-.04-.136.36.36 0 00-.5-.07zm-.54 3.67a.34.34 0 00.47.12l3.34-1.7a.39.39 0 00.18-.5.351.351 0 00-.49-.15L80.7 31a.37.37 0 00-.19.49zm6.43-.49a.37.37 0 00-.5-.18L83.93 32a.349.349 0 00-.19.47.38.38 0 00.49.16l2.53-1.1a.36.36 0 00.18-.53zm-76.06-2.69l1.95 1.05a.362.362 0 00.399-.033.36.36 0 00.122-.377.352.352 0 00-.171-.21l-1.94-1.08a.39.39 0 00-.52.14.37.37 0 00.16.51zm76.82-.56a.37.37 0 00-.51-.18l-1.67.89a.39.39 0 00-.17.51.359.359 0 00.49.16l1.69-.86a.39.39 0 00.17-.52zm.81-.43a.379.379 0 00.51.19l.81-.41a.4.4 0 00.15-.54.37.37 0 00-.51-.2l-.8.42a.42.42 0 00-.16.54zm-71.08-1.03l.88.63a.36.36 0 00.5 0 .35.35 0 00-.11-.48l-.87-.64a.36.36 0 00-.51 0 .351.351 0 00.11.49zm-3.52.48l3.17 2a.34.34 0 00.49-.08.36.36 0 00-.15-.48l-3.14-2a.349.349 0 00-.5.1.39.39 0 00.13.46zM6.56 26l1.23.65a.39.39 0 00.52-.18.38.38 0 00-.12-.47L7 25.27a.423.423 0 00-.41.74L6.56 26zm5.9-.14a.359.359 0 00.51-.12.39.39 0 00-.12-.52l-1.59-1a.38.38 0 00-.52.14.39.39 0 00.11.53l1.61.97zm63.92-.66a.35.35 0 00.49 0l1.06-.85a.358.358 0 00.09-.51.349.349 0 00-.51 0l-1 .87a.37.37 0 00-.13.49zm1.51 2.01a.37.37 0 00.5.05l3.66-2.56a.36.36 0 00.09-.51.39.39 0 00-.53-.07L78 26.74a.332.332 0 00-.16.345.33.33 0 00.05.125zm4.22.36a.37.37 0 00.51.1l1.9-1.13a.37.37 0 00.12-.52.368.368 0 00-.51-.13l-1.88 1.18a.37.37 0 00-.14.5zm5.41-2.83l1.2-.72a.43.43 0 00-.44-.72l-1.18.7a.41.41 0 00.42.7v.04zm-71.25.73a.37.37 0 00.52-.06.362.362 0 000-.4.358.358 0 00-.1-.1l-2.22-1.64a.368.368 0 00-.52.08.36.36 0 00.08.52l2.24 1.6zM9.44 24a.39.39 0 00.53-.14.41.41 0 00-.11-.55l-.75-.49a.381.381 0 00-.54.15.4.4 0 00.1.55l.77.48zm10.56.67a.36.36 0 00.5 0 .34.34 0 00-.06-.49l-2.08-1.8a.37.37 0 00-.52 0 .34.34 0 000 .5L20 24.67zm64.71-2.8L83.19 23a.38.38 0 00.172.682.4.4 0 00.288-.062l1.54-1.08a.38.38 0 00.07-.54.4.4 0 00-.55-.13zm-6.17 1.56a.338.338 0 00.5.05L80.89 22a.38.38 0 00-.053-.625.371.371 0 00-.417.045l-1.81 1.52a.35.35 0 00-.07.49zm-56.18-.77a.38.38 0 000-.5l-1-1a.35.35 0 00-.51 0 .37.37 0 000 .51l1 .95a.339.339 0 00.51.04zm-9.52.34a.38.38 0 00.53-.09.37.37 0 00-.07-.53l-1.74-1.29a.41.41 0 00-.49.65L12.84 23zm63.75-2.24l-2 1.91a.38.38 0 000 .51.35.35 0 00.49 0l2-1.88a.37.37 0 000-.52.33.33 0 00-.49-.02zM14.57 19.6a.36.36 0 000 .53l2.29 1.92a.39.39 0 00.53 0 .36.36 0 000-.51l-2.26-2a.38.38 0 00-.56.06zm5.3 1.09a.35.35 0 00.51 0 .37.37 0 000-.51l-1.69-1.68a.36.36 0 00-.53 0 .39.39 0 000 .54l1.71 1.65zm6.28-1.32a.36.36 0 000-.5L25 17.33a.359.359 0 00-.5-.1.35.35 0 00-.05.51l1.19 1.52a.36.36 0 00.51.11zm-5.41-1.8l3 3.32a.35.35 0 00.49.07.38.38 0 000-.51l-2.92-3.37a.37.37 0 00-.52 0 .38.38 0 00-.05.49zm53.47 1.29a.37.37 0 000 .52.36.36 0 00.51-.05l1.86-2a.38.38 0 00-.121-.613.37.37 0 00-.409.083l-1.84 2.06zm-3.32.94a.37.37 0 00.5-.1l2.36-2.9a.35.35 0 00-.06-.51.37.37 0 00-.52.08l-2.31 2.95a.33.33 0 00.03.48zm2.88.07a.349.349 0 00-.5.05l-.72.82a.33.33 0 10.49.43l.73-.79a.36.36 0 000-.51zm3.75.49a.36.36 0 00.51 0l2.18-2a.39.39 0 00-.121-.633.37.37 0 00-.409.083l-2.14 2.08a.38.38 0 00-.02.47zm4.96.35l3.12-2.51a.42.42 0 000-.58.4.4 0 00-.56-.09L82 20.1a.39.39 0 000 .53.36.36 0 00.48.08zm-52.9-4.11a.34.34 0 00.47.15.36.36 0 00.09-.49l-.54-1a.35.35 0 00-.47-.15.361.361 0 00-.1.5l.55.99zm-7.27-2.25a.36.36 0 00-.07.52l1.36 1.75a.38.38 0 00.51.09.37.37 0 00.06-.52l-1.33-1.77a.39.39 0 00-.53-.07zm-5.6 3.26a.38.38 0 00.53 0 .41.41 0 000-.55l-2.82-2.83a.38.38 0 00-.56 0 .42.42 0 000 .58l2.85 2.8zm2.73-1.49a.38.38 0 00.53 0 .39.39 0 000-.54l-1.23-1.42a.37.37 0 00-.54 0 .391.391 0 00-.05.55l1.29 1.41zm8.87-1.67a.35.35 0 00.48.14.37.37 0 00.11-.51l-1.36-2.4a.35.35 0 00-.5-.13.38.38 0 00-.13.52l1.4 2.38zm-.13 3.44a.35.35 0 00.07-.49l-2-3.14a.4.4 0 00-.52-.13.361.361 0 00-.1.5l2.1 3.11a.38.38 0 00.45.15zM77 16.24a.378.378 0 00.54 0l1.47-1.6a.4.4 0 000-.55.381.381 0 00-.55 0L77 15.7a.382.382 0 000 .54zm-12-2.18l-.6 1.22a.36.36 0 00.13.48.36.36 0 00.46-.19l.62-1.22a.341.341 0 00-.13-.48.37.37 0 00-.48.19zm5.78 1.48a.348.348 0 00.5-.09l1.28-1.81a.4.4 0 00-.09-.54.37.37 0 00-.52.09L70.71 15a.39.39 0 00.07.54zm-36.72-2.68l.51 1.27a.37.37 0 00.44.24.35.35 0 00.17-.46l-.48-1.28a.38.38 0 00-.46-.24.35.35 0 00-.18.47zM31 12.3a.361.361 0 00-.15.49l1.21 2.47a.37.37 0 00.46.2.36.36 0 00.13-.48l-1.17-2.5a.362.362 0 00-.342-.213.36.36 0 00-.138.033zm28.6-.16l-.32 1a.37.37 0 00.19.47.33.33 0 00.42-.24l.34-1a.359.359 0 00-.2-.47.34.34 0 00-.43.24zm2.49 2.46a.37.37 0 00.45-.23l1.07-2.54a.34.34 0 00-.18-.47.38.38 0 00-.47.23l-1 2.56a.32.32 0 00.13.45zm-37.45-1.39a.38.38 0 00.52.12.35.35 0 00.12-.5l-1-1.59a.38.38 0 00-.54-.11.362.362 0 00-.12.51l1.02 1.57zm41.66-.12L67.38 11a.36.36 0 00-.17-.49.368.368 0 00-.5.17l-1 2.12a.36.36 0 00.15.49.39.39 0 00.44-.2zm3.11-.61a.37.37 0 00-.5.14l-2.25 3.85a.38.38 0 00.09.5.36.36 0 00.47-.16L69.53 13a.372.372 0 00-.12-.52zm-.06 5.71l1.12-1.58a.39.39 0 00-.07-.52.33.33 0 00-.48.1l-1.09 1.6a.39.39 0 000 .51.33.33 0 00.52-.11zM74.23 15a.37.37 0 00.06.52.4.4 0 00.54-.07L76 14a.37.37 0 00-.07-.53.391.391 0 00-.55.06L74.23 15zm2.85-2.3l.57-.7a.371.371 0 00-.1-.54.4.4 0 00-.56 0l-.56.71a.38.38 0 00.09.54.41.41 0 00.56-.01zm-56.99-.58a.4.4 0 00.55.05.39.39 0 00.1-.54l-.84-1.12a.41.41 0 00-.57 0 .39.39 0 00-.1.55l.86 1.06zm19.91.31l-.43-1.89a.34.34 0 00-.42-.27.358.358 0 00-.24.45l.46 1.87a.35.35 0 00.4.29.37.37 0 00.23-.45zm4.22-2.2a.37.37 0 00-.29.42l.12 1.08a.33.33 0 00.36.32.34.34 0 00.29-.39l-.11-1.08a.35.35 0 00-.37-.35zm10.7 2.27a.38.38 0 00.39-.32l.37-1.9a.34.34 0 00-.27-.42.36.36 0 00-.4.32l-.34 1.9a.35.35 0 00.25.42zM50 9.83a.36.36 0 00-.36.36v1.36a.36.36 0 00.31.4.37.37 0 00.34-.36l.08-1.37a.368.368 0 00-.37-.39zm-27.36.43a.42.42 0 00.55.1.38.38 0 00.14-.53l-.49-.75a.4.4 0 00-.56-.1.37.37 0 00-.14.53l.5.75zM34 11.77a.36.36 0 00.19-.47l-.84-2.21a.38.38 0 00-.49-.23.37.37 0 00-.21.48l.88 2.2a.39.39 0 00.47.23zm23.36 1.29a.35.35 0 00.41-.28l1-3.62a.361.361 0 10-.7-.18l-.91 3.64a.35.35 0 00.2.44zM35.58 9L37 13.26a.331.331 0 00.41.24.342.342 0 00.21-.44l-1.3-4.27a.38.38 0 00-.599-.204.392.392 0 00-.141.414zm11.53-.6a.38.38 0 00-.34.4l.1 2.75a.35.35 0 00.34.36.36.36 0 00.31-.39l-.05-2.76a.35.35 0 00-.36-.36zm-16.85 3.19a.362.362 0 10.65-.32l-1.26-2.7a.39.39 0 00-.7.34l1.31 2.68zm-4.1-.78a.38.38 0 00.52.13.39.39 0 00.14-.53l-1.07-1.89a.37.37 0 00-.53-.11.38.38 0 00-.16.53l1.1 1.87zM41.52 8a.37.37 0 00-.3.43l.65 3.69a.348.348 0 00.244.305c.044.014.09.019.136.015a.35.35 0 00.26-.42l-.58-3.7a.362.362 0 00-.41-.32zm18.72 3.27a.35.35 0 00.44-.24l.88-2.62a.39.39 0 00-.382-.502.35.35 0 00-.318.252L60 10.79a.39.39 0 00.24.48zm3.89-.67l1.17-2.75a.36.36 0 00-.22-.48.39.39 0 00-.51.21l-1.12 2.77a.36.36 0 00.2.47.38.38 0 00.48-.22zM53 6.94a.36.36 0 00-.41.32l-.47 4.43a.39.39 0 00.28.43.34.34 0 00.37-.32l.55-4.43a.39.39 0 00-.32-.43zM39 9.62a.39.39 0 00.26-.46L38.78 7a.359.359 0 00-.45-.27.38.38 0 00-.27.46l.53 2.15a.36.36 0 00.41.28zm16.54-.42a.38.38 0 00.46-.31l.42-2.18a.351.351 0 00-.3-.42.39.39 0 00-.44.31l-.39 2.18a.35.35 0 00.25.42zM43.46 6.5l.31 2.75a.34.34 0 00.38.32.36.36 0 00.31-.4l-.26-2.75a.38.38 0 00-.41-.35.4.4 0 00-.33.43zm6.75-.45a.36.36 0 00-.39.35l-.09 2.37a.38.38 0 00.34.39.36.36 0 00.36-.36l.14-2.36a.37.37 0 00-.36-.39zm9.19-.84a.4.4 0 00-.48.27l-.46 1.84a.38.38 0 10.73.19l.49-1.83a.39.39 0 00-.28-.47zm8.92 3.95l1.83-3.56a.391.391 0 00-.21-.52.43.43 0 00-.56.15l-1.76 3.59a.36.36 0 00.18.5.39.39 0 00.52-.16zM70 11.45a.369.369 0 00.52-.12l1-1.61a.39.39 0 00-.15-.53.37.37 0 00-.53.11l-1 1.63a.39.39 0 00.16.52zm4.57-.67l.8-1.14a.41.41 0 00-.12-.56.38.38 0 00-.55.06l-.78 1.15a.4.4 0 00.11.55.37.37 0 00.54-.06zm-39.12-3.4a.37.37 0 00.26-.46l-.54-1.8a.41.41 0 00-.5-.26.42.42 0 00-.27.5l.6 1.79a.36.36 0 00.45.23zm26.09-.13A.37.37 0 0062 7l.71-2a.41.41 0 00-.26-.5.38.38 0 00-.5.22l-.65 2.04a.39.39 0 00.24.49zM40.6 4.82l.33 1.87a.38.38 0 00.43.31.37.37 0 00.31-.42l-.29-1.88a.4.4 0 00-.45-.31.39.39 0 00-.33.43zm6.5 3a.39.39 0 00.35-.39l-.06-3a.36.36 0 00-.4-.35.38.38 0 00-.37.39l.1 3a.37.37 0 00.38.35zm-15.21-.38a.39.39 0 00.5.21.37.37 0 00.23-.48L31.2 3.43a.4.4 0 00-.53-.2.38.38 0 00-.27.49l1.49 3.72zm21.59-4.31a.37.37 0 00-.44.31l-.2 1.88a.4.4 0 00.34.43.37.37 0 00.42-.32l.23-1.87a.4.4 0 00-.35-.43zm6.15 1.19a.38.38 0 00.48-.26l.24-.87a.399.399 0 00-.35-.47.39.39 0 00-.49.26l-.22.88a.382.382 0 00.34.46zM43.72 5.37a.38.38 0 00.34-.4l-.2-2.17a.4.4 0 00-.45-.34.42.42 0 00-.36.44l.25 2.15a.36.36 0 00.42.32zm-6.5-1.57a.379.379 0 00.48.26.4.4 0 00.3-.47l-.3-1.36a.42.42 0 00-.81.21l.33 1.36zm3.56-.32a.38.38 0 00.34-.43L41 2.16a.42.42 0 00-.82.13l.16.89a.39.39 0 00.44.3zm15.8.11a.41.41 0 00.47-.31l.27-1.37a.38.38 0 00-.32-.43.41.41 0 00-.48.3l-.24 1.38a.371.371 0 00.3.43zM50.49 0a.41.41 0 00-.44.35l-.15 4a.39.39 0 00.78 0l.22-4a.4.4 0 00-.41-.35z"/></g><defs><clipPath id="clip0"><path fill="#fff" d="M0 0h95.98v95.93H0z"/></clipPath></defs></svg>