<svg width="125" height="77" fill="none" xmlns="http://www.w3.org/2000/svg"><g clip-path="url(#clip0)" fill="#A9AFC3"><path d="M97.49 50.29L74.55 73.22a6 6 0 01-8.53 0L43.08 50.29H41l24 24a7.528 7.528 0 0010.66 0l24-24h-2.17z"/><path d="M81.27 50.29L58.33 73.22a6 6 0 01-8.53 0L26.86 50.29h-2.12l24 24a7.52 7.52 0 0010.65 0l24-24h-2.12z"/><path d="M65.35 62.39v-1.14h.84v1.14h-.84zm-2.66-6.34h1a.722.722 0 01.81.81v4.73a.71.71 0 01-.81.8h-1a.71.71 0 01-.8-.8v-4.73a.71.71 0 01.8-.81zm1.15 5.43V57a.39.39 0 00-.06-.26s-.12-.05-.25-.05h-.64a.39.39 0 00-.25.05.39.39 0 00-.06.26v4.51a.39.39 0 00.06.26.47.47 0 00.25 0h.64a.44.44 0 00.25 0 .39.39 0 00.06-.29zM61 57.93h-.7V57c0-.13 0-.22-.07-.26-.07-.04-.12-.05-.25-.05h-.56c-.14 0-.22 0-.26.05a.39.39 0 00-.06.26v4.52a.36.36 0 00.06.25.38.38 0 00.26.06H60a.36.36 0 00.25-.06s.07-.12.07-.25v-1H61v1.08a.71.71 0 01-.81.8h-1a.71.71 0 01-.8-.8v-4.74a.71.71 0 01.8-.81h1a.722.722 0 01.81.81v1.07zm51.44-27.66v15.79H109V30.27h3.44zm-8.98 0c2 0 3 1.073 3 3.22v9.35c0 2.147-1 3.22-3 3.22h-6.27V30.27h6.27zm-.39 13V33.08a.459.459 0 00-.13-.34.432.432 0 00-.33-.15h-2v11.13h2a.43.43 0 00.33-.15.481.481 0 00.13-.34v.04zm-11.64-13h3.42v12.81c0 2.147-1 3.22-3 3.22h-3c-2 0-3-1.073-3-3.22V30.27h3.42v13.11a.48.48 0 00.13.34.451.451 0 00.33.14H91a.45.45 0 00.33-.14.48.48 0 00.13-.34l-.03-13.11zm-15.74 2.9v-2.9h8.54v2.9h-2.56v12.89h-3.41V33.17h-2.57zm-40.09-2.9v15.79h-3.41V30.27h3.41zM15.25 43.23H19v2.83h-7.2V30.27H19v2.78h-3.75v3.71h3.54v2.69h-3.54v3.78zM6.27 30.27c2 0 3 1.073 3 3.22v9.35c0 2.147-1 3.22-3 3.22H0V30.27h6.27zm-.39 13V33.08a.47.47 0 00-.13-.34.431.431 0 00-.33-.15h-2v11.13h2a.43.43 0 00.33-.15.48.48 0 00.13-.34v.04zm68.3-8.85h-3.24v-1.25a.51.51 0 00-.14-.34.449.449 0 00-.33-.14h-1.34a.45.45 0 00-.33.14.5.5 0 00-.13.34V36a.469.469 0 00.13.34.43.43 0 00.33.15h2.2c2 0 3 1.11 3 3.22v3.39c0 2.147-1 3.22-3 3.22h-2.88c-2 0-3-1.073-3-3.22v-1.65h3.25v1.75a.49.49 0 00.13.35.449.449 0 00.33.14h1.51a.45.45 0 00.33-.14.5.5 0 00.14-.35v-3.09a.52.52 0 00-.14-.35.449.449 0 00-.33-.14h-2.22c-2 0-3-1.08-3-3.22v-3.15c0-2.147 1-3.22 3-3.22h2.71c2 0 3 1.073 3 3.22l.02 1.17zM58.2 46.06h-3.42V33a.51.51 0 00-.13-.35.449.449 0 00-.33-.14H53a.45.45 0 00-.33.14.51.51 0 00-.13.35v13.1h-3.42V33.25c0-2.147 1-3.22 3-3.22h3c2 0 3 1.073 3 3.22l.08 12.81zm-15.45-6.27v-2.52h4.52v5.81c0 2.147-1 3.22-3 3.22h-3.1c-2 0-3-1.073-3-3.22v-9.83c0-2.147 1-3.22 3-3.22h3.07c2 0 3 1.073 3 3.22v1.49H44v-1.91a.48.48 0 00-.28-.447.42.42 0 00-.18-.033H42a.42.42 0 00-.33.14.48.48 0 00-.13.34v10.64a.47.47 0 00.13.34.43.43 0 00.33.19h1.54a.429.429 0 00.33-.15.47.47 0 00.13-.34v-3.72h-1.25zm81.53-6.54v9.83c0 2.147-1 3.22-3 3.22H118c-2 0-3-1.073-3-3.22v-9.83c0-2.167 1-3.25 3-3.25h3.24c2.027 0 3.04 1.083 3.04 3.25zm-3.42 10.22V32.83a.481.481 0 00-.279-.447.42.42 0 00-.181-.033h-1.54a.42.42 0 00-.33.14.481.481 0 00-.13.34v10.64a.459.459 0 00.13.34.43.43 0 00.33.15h1.54a.431.431 0 00.33-.15.467.467 0 00.13-.34zm-91.09-9.05h-3.25v-1.25a.5.5 0 00-.13-.34.45.45 0 00-.33-.14h-1.34a.45.45 0 00-.33.14.5.5 0 00-.13.34V36a.47.47 0 00.13.34.43.43 0 00.33.15h2.2c2 0 3 1.11 3 3.22v3.39c0 2.147-1 3.22-3 3.22H24c-2 0-3-1.073-3-3.22v-1.65h3.25v1.75a.49.49 0 00.13.35.45.45 0 00.33.14h1.51a.45.45 0 00.33-.14.5.5 0 00.14-.35v-3.09a.52.52 0 00-.14-.35.45.45 0 00-.33-.14H24c-2 0-3-1.08-3-3.22v-3.15c0-2.167 1-3.25 3-3.25h2.7c2 0 3 1.073 3 3.22l.07 1.2zm13.31-8.22L66 3.27a6 6 0 018.53 0L97.49 26.2h2.12l-24-24A7.53 7.53 0 0065 2.21l-24 24 2.08-.01z"/><path d="M26.86 26.2L49.8 3.27a6 6 0 018.53 0L81.27 26.2h2.12l-24-24a7.52 7.52 0 00-10.65 0l-24 24h2.12z"/><path d="M66.44 15.22h.64v6.34h-.76L65 16.65v4.91h-.64v-6.34h.82L66.44 20v-4.78zM61.86 21h1.74v.6h-2.45v-6.38h2.38v.61h-1.67V18h1.36v.6h-1.36V21zm-4.59-5.78h2a.71.71 0 01.8.81v1.82c0 .32-.12.48-.37.5a.421.421 0 01.37.47v1.94a.71.71 0 01-.8.8h-2v-6.34zm2.11 2.49v-1.57a.39.39 0 00-.06-.26.41.41 0 00-.26-.05H58V18h1.09a.39.39 0 00.26-.06.38.38 0 00.03-.23zm0 2.94v-1.71a.38.38 0 00-.06-.25.39.39 0 00-.26-.06H58V21h1.09a.49.49 0 00.26-.05.39.39 0 00.03-.3z"/></g><defs><clipPath id="clip0"><path fill="#fff" d="M0 0h124.28v76.49H0z"/></clipPath></defs></svg>