<svg width="67" height="91" fill="none" xmlns="http://www.w3.org/2000/svg"><g clip-path="url(#clip0)" fill="#A9AFC3"><path d="M49.86 69.49h3v20.78h-3V69.49zm-13.86 0h7.24c2.06 0 3.09.973 3.09 2.92v14.94c0 1.953-1.03 2.927-3.09 2.92H36V69.49zM43.29 87V72.81a1.09 1.09 0 00-.2-.78 1.25 1.25 0 00-.8-.18H39v16.07h3.29c.28.03.563-.038.8-.19a1.09 1.09 0 00.2-.73zM29.54 69.49h3v17.86c0 1.953-1.04 2.927-3.12 2.92h-3.66c-2.08 0-3.12-.973-3.12-2.92V69.49h3v17.4a1.11 1.11 0 00.2.78c.239.148.52.212.8.18h1.89c.283.037.57-.027.81-.18a1.18 1.18 0 00.18-.78l.02-17.4zm-8.69 0v2.42h-3.49v18.36h-3V71.91h-3.47v-2.42h9.96zm38.67 0h3.69c2.05 0 3.08 1 3.08 2.92v14.94c0 2-1 2.92-3.08 2.92h-3.69c-2.08 0-3.12-.973-3.12-2.92V72.41c0-1.953 1.04-2.927 3.12-2.92zm3.78 17.4v-14a1.1 1.1 0 00-.19-.78 1.26 1.26 0 00-.8-.19h-1.93a.76.76 0 00-1 1v14a.76.76 0 001 1h1.93c.28.03.56-.033.8-.18a1.12 1.12 0 00.19-.85zm-56.86 0v-5.08a1.16 1.16 0 00-.18-.81 1.17 1.17 0 00-.78-.19H3c-2 0-3-1-3-3v-5.4c0-1.953 1.03-2.927 3.09-2.92h3.25c2.06 0 3.09.973 3.09 2.92v3.06h-3v-2.59a1.09 1.09 0 00-.2-.78 1.26 1.26 0 00-.8-.19H4a1.24 1.24 0 00-.8.19 1.09 1.09 0 00-.2.78v4.61a1.09 1.09 0 00.2.78c.239.148.52.212.8.18h2.44c2 0 3.05 1 3.05 2.93v6c0 1.953-1.04 2.927-3.12 2.92H3.15c-2.06 0-3.08-1-3.08-2.92v-3h3v2.59a1.06 1.06 0 00.2.78c.235.149.514.213.79.18h1.4c.273.033.549-.03.78-.18a1.18 1.18 0 00.2-.86zm50.62-23.75h3v1h-4.23V53.12H60v1.05h-2.94v3.73h2.39V59h-2.39v4.14zm-2.3-10.02v1.05H53v10h-1.23v-10H50v-1.05h4.76zm-4.95 1.05h-3.09v3.91h2.38v1.05h-2.38v5.06h-1.23V53.12h4.32v1.05zM43 64.19l-.46-2.81h-2.23l-.41 2.81h-1.23l1.73-11.07h1.94l1.9 11.07H43zm-2.56-3.86h1.94l-1-6.36-.94 6.36zM16.9 53.12H18v11.07h-1.32l-2.29-8.58v8.58h-1.12V53.12h1.42l2.21 8.27v-8.27zm-6.11 11.07l-.46-2.81H8.09l-.41 2.81H6.45l1.72-11.07h1.95L12 64.19h-1.21zm-2.56-3.86h1.94L9.14 54l-.91 6.33zM4 53.12h1.2v11.07H4v-5H1.59v5H.36V53.12h1.23v5H4v-5zm57.44 0H65a1.24 1.24 0 011.4 1.4v8.26a1.239 1.239 0 01-1.4 1.41h-3.56V53.12zm3.68 9.47v-7.87a.69.69 0 00-.1-.46.75.75 0 00-.45-.09h-1.9v9h1.9A.67.67 0 0065 63c.09 0 .12-.18.12-.41zM20 53.12h3.51a1.24 1.24 0 011.4 1.4v8.26a1.24 1.24 0 01-1.4 1.41H20V53.12zm3.68 9.47v-7.87a.69.69 0 00-.1-.46.75.75 0 00-.45-.09h-1.9v9h1.9a.67.67 0 00.45-.1c.05-.07.08-.25.08-.48h.02zm10.43-3.03v4.63H32.9V53.12h3.22a1.24 1.24 0 011.41 1.4v3.63c0 .85-.37 1.31-1.1 1.39l1.67 4.65h-1.32l-1.62-4.63h-1.05zm0-5.39v4.34h1.66c.24 0 .39 0 .45-.1s.1-.21.1-.45v-3.24a.69.69 0 00-.1-.46.71.71 0 00-.45-.09h-1.66zm-2.9 2.22H30v-1.67a.69.69 0 00-.1-.46.77.77 0 00-.45-.09h-1a.71.71 0 00-.45.09.69.69 0 00-.1.46v7.88a.67.67 0 00.1.45.63.63 0 00.45.11h1a.68.68 0 00.45-.11.67.67 0 00.1-.45v-1.67h1.23v1.87a1.25 1.25 0 01-1.41 1.41h-1.74a1.25 1.25 0 01-1.41-1.41v-8.28a1.24 1.24 0 011.41-1.4h1.72a1.24 1.24 0 011.41 1.4v1.87zm12.34-21.83V31.5a.71.71 0 00-.11-.47.67.67 0 00-.47-.11h-1.48a1.59 1.59 0 01-1.82-1.78v-3.3c0-1.18.62-1.76 1.86-1.76h2c1.24 0 1.86.58 1.86 1.76v1.84h-1.86v-1.56a.65.65 0 00-.12-.47.7.7 0 00-.48-.11h-.84a.7.7 0 00-.48.11.65.65 0 00-.12.47v2.78a.66.66 0 00.12.47.76.76 0 00.48.11h1.46c1.22 0 1.84.58 1.84 1.76v3.6c0 1.17-.63 1.76-1.88 1.76h-1.94c-1.24 0-1.86-.59-1.86-1.76V33h1.82v1.56a.66.66 0 00.12.47.76.76 0 00.48.11H43a.46.46 0 00.58-.58h-.03zM25.05 6.15h1.8v12.52h-1.8v-5.5h-2.66v5.5h-1.8V6.15h1.8v5.56h2.66V6.15z"/><path d="M12.08 37.35a.75.75 0 01-.75-.75V0h36.59a.75.75 0 110 1.5H12.83v35.1a.76.76 0 01-.75.75zM55.3 44H18.7a.75.75 0 110-1.5h35.1V7.38a.75.75 0 011.5 0V44zm-43.22 0a.71.71 0 01-.53-.22.74.74 0 010-1.06L54 .22a.75.75 0 011.06 1.06L12.61 43.75a.74.74 0 01-.53.25z"/></g><defs><clipPath id="clip0"><path fill="#fff" d="M0 0h66.35v90.27H0z"/></clipPath></defs></svg>