<svg width="68" height="42" fill="none" xmlns="http://www.w3.org/2000/svg"><path d="M0 21.39c0 6.39 4.635 12.15 12.915 12.15 3.87 0 7.65-1.485 9.945-3.825l-2.835-5.445c-1.665 1.44-4.095 2.79-6.345 2.79-3.915 0-5.805-3.015-5.805-5.76 0-2.745 1.845-5.535 5.535-5.535 2.025 0 4.095.945 5.445 2.25l3.285-5.22c-2.295-2.475-5.985-3.51-9.225-3.51C4.59 9.285 0 15.18 0 21.39zM26.134 33h7.785v-9c0-4.23 2.07-6.975 6.39-6.975.54 0 1.305.045 1.575.135V9.51a5.54 5.54 0 00-.9-.09c-3.465 0-6.39 2.61-7.38 5.76h-.09s.09-.675.09-1.44V9.825h-7.47V33z" fill="#fff"/><rect x="49.695" y="1" width="17" height="40" rx="8.5" stroke="#fff" stroke-width="2"/><circle cx="58.195" cy="31.5" r="5.5" fill="#DD4242"/></svg>