<svg width="149" height="117" fill="none" xmlns="http://www.w3.org/2000/svg"><path d="M23.14 38.45c0 6.5-.452 13.676-1 19.988m0 0c-.844 9.737-1.918 17.423-1.918 17.423s-2.675 18.644-7.565 17.353c-4.89-1.291-1.31-13.963 2.688-23.192 1.278-2.948 3.69-7.174 6.796-11.584zm0 0c6.617-9.39 16.386-19.615 25.073-20.11M39.6 59.474c-.267-2.232-.923-3.9-2.2-4.409C25.232 50.22 7.415 70.042 1 79.574m38.6-20.101c.514 4.293-.413 10.673-1.122 14.895-1.078 6.417-2.669 13.076-7.426 15.322-4.757 2.247-3.854-8.905-.58-15.806 1.657-3.49 5.145-9.405 9.128-14.411zm0 0c3.895-4.894 8.263-8.918 11.855-8.956 1.252-.013 1.705 1.75 1.712 4.293m0 0c-3.512 4.56-6.848 10.74-8.14 14.278-2.183 5.98-3.962 15.087-.768 14.845 3.194-.242 5.377-7.628 6.347-12.107.656-3.028 2.577-11.715 2.561-17.016zm0 0c2.423-3.145 4.929-5.52 6.907-5.725 1.954-.204 2.918 2.448 3.29 5.912m0 0c.55 5.124-.194 12.025-.945 14.091-1.26 3.464-2.649 10.668-6.476 11.697s-1.94-8.475 0-13.076c1.113-2.639 4.165-8.15 7.421-12.712zm0 0c2.42-3.39 4.955-6.253 6.891-7.022 2.108-.837 3.534 1.19 4.348 4.256m0 0c.941 3.54 1.068 8.464.49 11.967-1.078 6.538-4.46 14.2-7.628 13.681-3.167-.518-1.536-9.201 1.051-13.68 1.08-1.868 3.394-6.828 6.087-11.968zm0 0c3.768-7.192 8.277-14.739 11.177-14.668 3.392.083-1.223 24.387-5.043 42.099m0 0a841.643 841.643 0 01-3.932 17.346l-.003.011c-1.712 7.145-4.697 19.602-10.064 18.957-5.37-.646-.607-12.914 4.73-21.995 2.868-4.88 5.976-9.646 9.269-14.32zm0 0C100.418 51.725 126.706 27.092 148 1M6.109 104.175c12.652-4.174 25.109-8.852 37.945-12.473 5.507-1.553 11.11-2.719 16.628-4.22" stroke="#fff" stroke-linecap="round" stroke-linejoin="round"/><circle cx="104.5" cy="81.5" r="1.5" fill="#fff"/></svg>