<svg width="32" height="21" fill="none" xmlns="http://www.w3.org/2000/svg"><path d="M13.18 9.49c.663-.333 1.165-.705 1.509-1.107.611-.723.913-1.683.913-2.872 0-1.157-.302-2.146-.905-2.976C13.69 1.185 11.985.493 9.574.457H.024v19.492H8.93a13.92 13.92 0 002.792-.262c.86-.177 1.603-.503 2.232-.979a5.406 5.406 0 001.4-1.533c.587-.915.88-1.952.88-3.108 0-1.119-.257-2.072-.769-2.856-.517-.783-1.277-1.357-2.284-1.72zM3.964 3.843h4.301c.946 0 1.725.102 2.337.304.707.294 1.06.892 1.06 1.803 0 .817-.269 1.389-.803 1.71-.537.323-1.235.484-2.09.484H3.964v-4.3zm6.801 12.382c-.475.23-1.145.344-2.002.344H3.964V11.37H8.83c.847.006 1.507.118 1.978.328.84.38 1.258 1.075 1.258 2.093 0 1.199-.432 2.006-1.3 2.434zM28.926 1.366h-8.468v2.426h8.468V1.366zm2.943 9.575c-.176-1.129-.564-2.122-1.168-2.98-.661-.97-1.5-1.682-2.522-2.132-1.017-.452-2.162-.677-3.438-.675-2.14 0-3.879.67-5.224 1.998-1.341 1.333-2.013 3.25-2.013 5.748 0 2.664.742 4.589 2.233 5.77 1.485 1.183 3.2 1.773 5.146 1.773 2.357 0 4.19-.702 5.498-2.1.838-.884 1.312-1.753 1.416-2.607h-3.902c-.226.422-.488.752-.787.991-.544.44-1.251.66-2.119.66-.825 0-1.525-.182-2.108-.544-.964-.58-1.467-1.594-1.531-3.04h10.646c.016-1.245-.024-2.202-.127-2.862zm-10.423.374c.14-.937.48-1.68 1.019-2.23.54-.548 1.303-.824 2.28-.826.902 0 1.655.258 2.269.776.605.521.947 1.279 1.017 2.28h-6.585z" fill="#FAFFBF"/></svg>