<svg width="27" height="27" fill="none" xmlns="http://www.w3.org/2000/svg"><path d="M18.043 0H8.202A8.202 8.202 0 000 8.202v9.841a8.202 8.202 0 008.202 8.202h9.841a8.203 8.203 0 008.202-8.202V8.202A8.202 8.202 0 0018.043 0zm5.741 18.043a5.747 5.747 0 01-5.74 5.741H8.201a5.747 5.747 0 01-5.742-5.74V8.201A5.747 5.747 0 018.202 2.46h9.841a5.747 5.747 0 015.741 5.742v9.841z" fill="#FAFFBF"/><path d="M13.123 6.561a6.561 6.561 0 100 13.123 6.561 6.561 0 000-13.123zm0 10.662a4.106 4.106 0 01-4.101-4.1c0-2.263 1.84-4.101 4.1-4.101s4.101 1.838 4.101 4.1c0 2.26-1.84 4.101-4.1 4.101zm7.053-10.28a.874.874 0 100-1.748.874.874 0 000 1.748z" fill="#FAFFBF"/></svg>