<svg width="31" height="30" fill="none" xmlns="http://www.w3.org/2000/svg"><path d="M15.744.016h-.008C7.47.016.748 6.74.748 15.008c0 3.28 1.057 6.32 2.854 8.787l-1.868 5.57 5.762-1.842A14.863 14.863 0 0015.744 30c8.266 0 14.988-6.726 14.988-14.992C30.732 6.742 24.01.016 15.744.016zm8.724 21.17c-.362 1.022-1.798 1.869-2.943 2.116-.783.167-1.806.3-5.25-1.128-4.406-1.825-7.244-6.302-7.465-6.593-.212-.29-1.78-2.37-1.78-4.522 0-2.15 1.092-3.198 1.533-3.648.361-.37.96-.538 1.533-.538.185 0 .352.01.502.017.44.019.661.045.952.74.362.871 1.242 3.023 1.347 3.244.107.221.214.52.064.811-.14.3-.264.433-.485.688-.222.255-.431.45-.653.724-.202.238-.43.492-.176.933.255.43 1.136 1.868 2.433 3.022 1.673 1.49 3.03 1.966 3.515 2.169.362.15.793.114 1.057-.167.336-.362.75-.961 1.172-1.552.3-.423.678-.476 1.075-.326.405.14 2.547 1.2 2.988 1.419.44.221.73.326.837.512.105.185.105 1.056-.256 2.08z" fill="#DFDFDF"/></svg>