<svg width="126" height="156" fill="none" xmlns="http://www.w3.org/2000/svg"><path opacity=".2" d="M122.74 143.021H0s56.6 27.31 122.74 0z" fill="#231F20"/><path d="M4.8 48.821a14.87 14.87 0 017.07-10.09 3.33 3.33 0 011.76-.58c1.39.06 1.41 1.27.81 2-.73 1-1.83 1.71-2.64 2.62a16.23 16.23 0 00-3.67 6.27c-1.05 3.76.16 8.4 3.63 10.18.77.4.93 3.74.94 4.47a6.72 6.72 0 01-4.41-2.37 14.2 14.2 0 01-3.49-12.5z" fill="#131E32"/><path d="M12.56 30.891c-8 5.56 3.8 15.11 8.74 8.11 2.07-3 0-7 3.87-9.08-2.22-1.61-5.27-1.33-8-.77a12.512 12.512 0 00-4.43 1.59l-.18.15z" fill="#131E32"/><path opacity=".1" d="M12.75 35.121a9.49 9.49 0 004.9 1.09h.32a12.57 12.57 0 004.45-.8 7.56 7.56 0 01-1.12 3.59c-4.15 5.88-13.13.09-11.17-5.21a9.508 9.508 0 002.62 1.33z" fill="#231F20"/><path d="M109.041 1.471a1.766 1.766 0 01.59-1.34 1.158 1.158 0 011.27.13c.343.292.617.658.799 1.07a17.3 17.3 0 011.181 12.86l-7.74.36c2.9-3.59 3.35-8.5 3.9-13.08z" fill="#29477A"/><path d="M85.65 11.331a10.983 10.983 0 00-.65-1 9.21 9.21 0 00-5.85-3.63 10.77 10.77 0 00.11 3.92 9.14 9.14 0 001.6 3.7 9.43 9.43 0 002.48 2.4 8.11 8.11 0 004.07.71 19.844 19.844 0 00-.67-3.67 13.381 13.381 0 00-1.09-2.43z" fill="#58BBE0"/><path d="M90.45 2.002a1.75 1.75 0 00-.59-1.33 1.18 1.18 0 00-1.27.12 3.08 3.08 0 00-.8 1.08 17.27 17.27 0 00-1.18 12.85l7.74.36c-2.9-3.59-3.35-8.5-3.9-13.08z" fill="#29477A"/><path opacity=".1" d="M113.601 9.771a17.035 17.035 0 01-.72 4.42l-7.74.36a12.805 12.805 0 001.72-2.85 26.568 26.568 0 006.74-1.93zm-21.561.91a13.76 13.76 0 002.31 4.36l-7.74-.36a17.09 17.09 0 01-.68-6.2 35.612 35.612 0 006.11 2.2z" fill="#231F20"/><path d="M32.02 113.562l14 8.64-7.9 14.3.85 6.56h-4.45l-4-11.52 1.5-17.98z" fill="#3B7E96"/><path opacity=".1" d="M42.51 127.381l.13.06c-3.78-1.67-7.6-3.27-11.36-5l.74-8.91 14 8.64-3 5.41-.51-.2z" fill="#231F20"/><path d="M39.39 146.451h-3.74l-1.15-3.34h4.45l.44 3.34z" fill="#060D0F" opacity=".3"/><path d="M41.08 112.472l26.84 10.87c.07 4.86-.85 10.14-4.43 13.43-3.58 3.29-9.35 3.69-13.74 1.52-4.39-2.17-7.43-6.55-8.73-11.27a30.47 30.47 0 01.06-14.55z" fill="#295769"/><path opacity=".2" d="M56.82 132.212a111.408 111.408 0 01-15.21-3.39c-.23-.6-.42-1.2-.59-1.8a30.47 30.47 0 01.06-14.55l26.84 10.87a22.503 22.503 0 01-1.68 9.58c-3.146-.1-6.286-.337-9.42-.71z" fill="#231F20"/><path d="M108.64 114.411s-7.86 14.37-8.87 28.39l-3.57.12.27-23.71 12.17-4.8z" fill="#3B7E96"/><path opacity=".1" d="M100.19 129.791c-.58.35-1.17.67-1.78 1-.61.33-1.39.52-2.08.76l.14-12.3 12.17-4.8a89.98 89.98 0 00-5.69 13.45 13.703 13.703 0 00-2.76 1.89z" fill="#231F20"/><path opacity=".05" d="M63.35 64.122c-.77-.17-1.54-.38-2.3-.61-.39-.21-.77-.44-1.15-.67-.38-.23-.77-.76-1.14-1.15-.61-1-1.18-2-1.71-3-.14-.41-.26-.83-.39-1.24 1.6-.1 3.2-.21 4.8-.33a9.529 9.529 0 003.14-.62 7.822 7.822 0 002.22-1.66c.07 1.11.11 2.22.12 3.32.01 1.1-.09 2-.17 3-.08 1-.43 2-.69 3-.91.02-1.79.01-2.73-.04z" fill="#231F20"/><path d="M14.44 81.982c4.94-1 9.42-5.15 11.67-9.55 2.47 3.32 7.8 3.49 11.13 1 3.33-2.49 4.8-6.82 4.77-10.95a21.574 21.574 0 00-.47-4.44c6.67-.19 13.27-.41 19.92-.93a9.531 9.531 0 003.14-.62 8.712 8.712 0 002.44-1.88 62.905 62.905 0 008.45-10.52c1.112.421 2.276.69 3.46.8 3.92.34 9.43-.08 11.3-4.22 2.41-5.34-2.45-10.45-7.44-13.23a37.368 37.368 0 001-13.15l29.08-.69a206.91 206.91 0 017.72 22c-6 2.12-9.89 9.23-9.64 16.51.14 4.08 1.52 8.41 4.84 10.78-6.6-1.18-13 4.87-13.74 11.54-1.16 10.49 9.32 21.61 19.24 24.31a45.736 45.736 0 01-4.7 10.07c-15 23.33-50.37 24.38-73.48 15.15-11.28-4.51-21.49-12.64-26.47-23.72a63.874 63.874 0 01-4-13.94c-.26-1.36-.48-2.75-.67-4.15a9.875 9.875 0 002.45-.17z" fill="#58BBE0"/><path d="M81.601 111.192a22.591 22.591 0 01-14.35 4.73c-9.93-.17-18.48-7.22-23.23-15.55-4.2-7.37-7.72-20.79 4.93-21.31a14.41 14.41 0 0113.78 9.27c8.64-3.78 20.13.85 22.81 10.16a11.542 11.542 0 01-3.94 12.7zM11.04 58.962c0-.13 27.62-.8 30.13-.88h.37c.31 1.46.468 2.948.47 4.44 0 4.13-1.45 8.49-4.77 10.95-3.32 2.46-8.66 2.29-11.13-1-2.25 4.4-6.73 8.5-11.67 9.55a9.866 9.866 0 01-2.47.21c-1.06-7.65-.98-15.75-.93-23.27zm91 15.5c.75-6.67 7.14-12.72 13.74-11.54-3.32-2.37-4.7-6.7-4.84-10.78-.25-7.28 3.67-14.39 9.64-16.51a141.007 141.007 0 014.09 19c2 14.14 1.44 28.77-2.83 42.39-.18.57-.36 1.13-.56 1.7-9.92-2.65-20.4-13.77-19.24-24.26zM90.291 40.681c-1.87 4.14-7.38 4.56-11.3 4.22a13.188 13.188 0 01-3.46-.8 55.678 55.678 0 007.32-16.65c4.95 2.8 9.81 7.91 7.44 13.23z" fill="#131E32"/><path opacity=".05" d="M17.47 92.202a79.076 79.076 0 0013.2 11.36c4.79 3.45 10.21 5.71 15.69 7.84 15.07 5.84 33.64 4.56 47.09-4.53 28.841-19.49 26.891-63.5 15.221-92.06-.14-.35-.29-.71-.43-1.07l4.62-.11c5.42 13.21 9.83 26.91 11.81 41 1.98 14.09 1.44 28.77-2.83 42.39a48.615 48.615 0 01-5.26 11.77c-15 23.33-50.37 24.38-73.48 15.15-11.28-4.51-21.49-12.64-26.47-23.72a63.858 63.858 0 01-4-13.94v-.07c1.51 2.09 3.16 4.08 4.84 5.99z" fill="#231F20"/><path d="M99.68 146.422h-3.53v-3.5l3.57-.12c-.03 1.22-.07 2.43-.04 3.62z" fill="#060D0F" opacity=".3"/><path opacity=".05" d="M115.591 110.301c-15.48 21.91-49.87 22.73-72.49 13.69-9.64-3.85-18.49-10.35-24-19.08 0 0 14.42 17.82 46.43 17.82s50.06-12.43 50.06-12.43z" fill="#231F20"/><path d="M113.29 10.051c.2-.35.42-.69.65-1a9.258 9.258 0 015.85-3.64 10.82 10.82 0 01-.1 3.93 9.629 9.629 0 01-4.09 6.1 8 8 0 01-4.06.71c.102-1.242.327-2.471.67-3.67.276-.845.638-1.659 1.08-2.43zm-14.51 2.5a10.575 10.575 0 012.45-4.55 13.55 13.55 0 01-.37 4.16 12.624 12.624 0 013.67-4.12 26.008 26.008 0 01-3.11 6.73l-3.9.1a11.86 11.86 0 01-2.1-6.92l3.36 4.6z" fill="#58BBE0"/><path opacity=".2" d="M66.55 55.122l.49-.48a62.9 62.9 0 008.45-10.52c1.113.421 2.277.69 3.46.8 3.92.34 9.43-.08 11.3-4.22 2.41-5.34-2.45-10.45-7.44-13.23a37.37 37.37 0 001-13.15l19.741-.47c.237.716.407 1.452.51 2.2 1 7.47.92 15.33-1.76 22.46a31.122 31.122 0 01-1.8 3.93 28.402 28.402 0 01-25.14 14.5 23.191 23.191 0 01-8.43-1.67c-.15-.04-.26-.1-.38-.15zm-44.02 3.45c8.19-.22 16.39-.38 24.58-.67 18.46-.66 21-.32 24.38.94 11.51 4.27 24.09 18.3 20.75 31.24-3.52 13.61-22.6 18.16-34.58 17.29-17.34-1.26-33.48-14.89-36.49-31.65a35.241 35.241 0 011.36-17.15z" fill="#EC87C3"/><path opacity=".1" d="M61.7 74.752c1.18-3.47 5.49-5.92 8.56-7.54l.16-.08a8.58 8.58 0 01-2.91-5.62l.69.19a58.002 58.002 0 009.36 1.55 45.9 45.9 0 0016.08-1.44 40.815 40.815 0 004.1-1.34 14.94 14.94 0 01-5.75 9.21c2.63 1.65 5.19 3.77 6.1 6.44a23.72 23.72 0 01-7.76-4.06 16 16 0 013.66 7.58 26.87 26.87 0 01-6.42-5.93c-.14-.17-.61-.84-1.17-1.68-.35.06-.71.12-1.07.16a21.58 21.58 0 01-12-2.89c-.9 1.44-2 3-2.2 3.29a23.643 23.643 0 01-3.39 3.54 23.006 23.006 0 01-2.38 1.78 14.32 14.32 0 013.29-6.81 21.202 21.202 0 01-6.95 3.65z" fill="#231F20"/><path d="M20.76 146.962h-3l-.56-4c1.21.16 2.41.29 3.6.4l-.04 3.6z" fill="#060D0F" opacity=".3"/><path d="M19.8 102.252l15.67 13.65-14.71 16.12v11.31a92.1 92.1 0 01-3.6-.4l-1.52-11.3 4.16-29.38z" fill="#58BBE0"/><path d="M58.29 136.161a15.795 15.795 0 002.18-1.079c.09-.06 2.81 5.879 2.63 6.699a.792.792 0 01-.63.611c-1 .15-2.5-2.401-3-3.051a33.433 33.433 0 00-2.11-2.84c.35-.11.67-.22.93-.34zm-4.16.18a15.14 15.14 0 002.42.28c.1 0-.84 6.46-1.43 7a.77.77 0 01-.86.18c-.94-.43-.8-3.37-.86-4.2a33.174 33.174 0 00-.23-3.52l.96.26zm-4.94-1.66a15.18 15.18 0 002.21 1c.1 0-2.83 5.87-3.58 6.25a.789.789 0 01-.87-.1c-.75-.71.3-3.45.5-4.26.359-1.123.66-2.265.9-3.42.27.192.551.369.84.53z" fill="#295769"/><path d="M88.58 146.561h-3.52l-.33-3.28 3.84-.05c-.02 1.12-.02 2.23.01 3.33z" fill="#060D0F" opacity=".3"/><path d="M92.21 114.411a161.136 161.136 0 00-3.64 28.82l-3.84.05-2.34-24.07 9.82-4.8z" fill="#58BBE0"/><path class="cow-right__bottom" d="M66.77 56.312c2-1.32 6.17-.24 8.17-.14 1.51.09 3.32-.28 4.2 1.14.88 1.42.32 3.74-.35 5-2 3.75-8.56 4.34-11.42 1.31-1.36-1.45-2.48-4.79-1.28-6.63.178-.27.41-.501.68-.68z" fill="#29477A"/><path class="cow-right__trava-right" d="M84.18 67.931a26.932 26.932 0 01-3.77-3.93c-.44-.57-4.23-6.13-3.81-6.43 1.39-1 3.31-.34 4.81.45 3.41 1.8 8.21 4.52 9.52 8.38a23.54 23.54 0 01-7.76-4.06 16 16 0 013.66 7.58 25.813 25.813 0 01-2.65-1.99z" fill="#131E32"/><path class="cow-right__trava-left" d="M60.61 66.412a23.64 23.64 0 003.39-3.54c.4-.51 3.8-5.51 3.42-5.78-1.24-.87-3-.3-4.32.41-3.07 1.61-7.38 4.06-8.56 7.54a21.222 21.222 0 007-3.66 14.36 14.36 0 00-3.29 6.82 24.646 24.646 0 002.36-1.79z" fill="#131E32"/><path class="cow-right__top" d="M60.64 40.742a42.809 42.809 0 0012.31 1.48 44.67 44.67 0 0012.5-1.5 17.17 17.17 0 01-.13 11.47 15 15 0 01-9.54 9.24 12 12 0 01-12.47-3.67c-2.24-2.79-2.91-6.53-3-10.11-.09-2.309.02-4.62.33-6.91z" fill="#29477A"/><path opacity=".05" d="M61.58 54.682a35 35 0 0011.88 2.22 27.273 27.273 0 0010.38-1.76 14.5 14.5 0 01-8.06 6.28 12 12 0 01-12.47-3.67 11.474 11.474 0 01-1.75-3.08l.02.01z" fill="#231F20"/><path class="cow-right__top" d="M83.63 44.071c.84.82 1.12 3.05-.36 3.64a1.46 1.46 0 01-1.78-.94 2.561 2.561 0 01.35-2.14c.64-1.04 1.31-1.03 1.79-.56zm-21.01-.649a4.15 4.15 0 01.79 2.38c.06 1.39-1.51 1.47-2.15.34-.38-.66-.39-2.83.7-3a.78.78 0 01.66.28z" fill="#191B1F"/><path opacity=".05" d="M114.19 12.042a8.19 8.19 0 011.27-1.77 8.637 8.637 0 014.42-2.26c0 .43-.1.87-.18 1.31a9.628 9.628 0 01-4.09 6.1 6.3 6.3 0 01-2.7.69c.157-1.427.592-2.81 1.28-4.07z" fill="#231F20"/><path d="M103.861 18.932c1 .2 1.48 1.72 1.25 2.88-.23 1.16-1.54 2.52-2.5 2.25s-1.35-1.92-1-3.13c.31-1.03 1.31-2.19 2.25-2zm-14.371-2.87c1 .19 1.48 1.72 1.25 2.87-.23 1.15-1.55 2.52-2.5 2.25s-1.36-1.92-1-3.12c.3-1.04 1.3-2.2 2.25-2z" fill="#131E32"/><path class="cow-right__top" opacity=".1" d="M69.53 44.532c-3.92.67-8.91 2.58-5.23 6.69a10.7 10.7 0 005.53 3.11 15.92 15.92 0 007.36.14c2.14-.55 4.11-2 4.13-4.44 0-4.72-5.11-5.81-8.88-5.79-.975.027-1.948.124-2.91.29z" fill="#58BBE0"/></svg>