<svg width="183" height="94" fill="none" xmlns="http://www.w3.org/2000/svg"><path d="M169.379 26.23a23.81 23.81 0 01-14.6-5.24c-8.65-7.09-8.64-17.74-8.55-19.8l3.33.15c-.08 1.78-.09 11 7.33 17.07a20.4 20.4 0 0012.54 4.49l-.05 3.33z" fill="#004A68"/><path d="M166.87 29.32a7.457 7.457 0 006.08 1.81 8.308 8.308 0 005.88-4.2l3.32 2.44c1-5.33-2-10.28-6.38-11.54-4.75-1.38-10.51 1.81-11.12 5.87a6.713 6.713 0 002.22 5.62z" fill="#116C9C"/><path opacity=".1" d="M168.869 25.5a13.625 13.625 0 01-4.26-1.35 6.867 6.867 0 002.26 5.2 7.457 7.457 0 006.08 1.81 8.317 8.317 0 005.88-4.2l3.32 2.44a10.875 10.875 0 00-.63-6.14 23.18 23.18 0 01-12.65 2.24z" fill="#231F20"/><path d="M50.25 55.5s9.1 16.64 10.26 32.86l4.14.14-.32-27.44-14.08-5.56z" fill="#004A68"/><path d="M60.62 92.59h4.08l-.05-4.05-4.14-.14c.1 1.4.14 2.8.11 4.19z" fill="#060D0F" opacity=".3"/><path d="M126.799 54.81l-15.39 10 10.42 16.55-.38 7.59 5.15.06 3.56-13.33-3.36-20.87z" fill="#004A68"/><path d="M100.269 84.19a17.375 17.375 0 01-2.52-1.25c-.1-.06-3.25 6.81-3 7.76a.9.9 0 00.73.7c1.18.18 2.89-2.77 3.47-3.53a39.557 39.557 0 012.44-3.28c-.42-.09-.78-.26-1.12-.4zm4.851.22a17.53 17.53 0 01-2.801.31c-.12 0 1 7.48 1.65 8.17a.914.914 0 001 .2c1.08-.5.92-3.9 1-4.85.013-1.364.1-2.725.26-4.08-.38.09-.719.18-1.109.25zm5.72-1.91a16.43 16.43 0 01-2.561 1.18c-.12 0 3.27 6.8 4.14 7.24a.912.912 0 001-.13c.87-.81-.349-4-.579-4.92a38.761 38.761 0 01-1-4c-.33.23-.68.42-1 .63z" fill="#295769"/><path d="M120.22 56.78L89.15 69.36c-.07 5.62 1 11.74 5.14 15.54 4.14 3.8 10.82 4.27 15.9 1.76s8.6-7.58 10.1-13 1.15-11.34-.07-16.88z" fill="#295769"/><path opacity=".2" d="M89.15 69.36c0 4.22.53 8.72 2.58 12.31a49.998 49.998 0 0027.199-4.37 22.038 22.038 0 001.361-3.69c1.5-5.46 1.149-11.29-.071-16.83l-31.07 12.58z" fill="#231F20"/><path d="M147.139 28.17a17.698 17.698 0 01-4.33-12.39 17.64 17.64 0 01-22.18-6.9 17 17 0 01-2.42-8.63l-51.3-.17a13.91 13.91 0 01-6.1 9c-6 3.59-13.22.37-14 0-.86 7.16-6.62 12.53-13.21 12.82a13.2 13.2 0 01-4.51-.62l-6.3 20.13a114.561 114.561 0 0024.35 20.71c12 7.62 30.21 19.33 53.42 16.23 5-.67 24.32-3.21 38.33-19.58a54.765 54.765 0 0012.38-27.37 16.376 16.376 0 01-4.13-3.23z" fill="#116C9C"/><path d="M98.35 59.55c11.719-2.44 19.269-14 18.719-24.33-.33-6.28-3.9-16.52-11.36-17.15-5-.41-10.25 3.54-13.21 9.71-5.84-3.58-12.6-3.94-17-.8-6.68 4.76-5.06 15.5-2.1 21.34 4.43 8.75 15.3 13.25 24.95 11.23zM149.349.35l-31.14-.1a17 17 0 002.42 8.63 17.641 17.641 0 0022.18 6.9 17.698 17.698 0 004.33 12.39 16.378 16.378 0 004.12 3.26 73.93 73.93 0 00-1.91-31.08zM33.59 21.93c6.59-.29 12.35-5.66 13.21-12.82.79.37 8.05 3.59 14 0a13.91 13.91 0 006.1-9L35.76 0l-6.69 21.34a13.2 13.2 0 004.52.59z" fill="#58BBE0"/><path opacity=".05" d="M152.099 19.33c-.16-.25-.29-.47-.4-.65a67.375 67.375 0 01-25.27 32.76c-4.41 3-17.53 11.63-35.57 11.23-29.52-.64-47.17-24.95-49.31-28-1.44 0-2.89-.07-4.35-.22-3.28-.47-6.24-.94-9.36-1.41-.782-.116-1.57-.19-2.36-.22l-2.7 8.63a114.563 114.563 0 0024.35 20.71c12 7.62 30.21 19.33 53.42 16.23 5-.67 24.32-3.21 38.33-19.58a54.748 54.748 0 0012.38-27.37c.636-4.004.918-8.057.84-12.11z" fill="#231F20"/><path opacity=".1" d="M90.24 69.85a109.81 109.81 0 01-54.83-16.21 112.05 112.05 0 0011.72 8.51c12 7.62 30.21 19.33 53.419 16.23 4.86-.65 23.3-3.08 37.2-18.31a109.147 109.147 0 01-47.51 9.78z" fill="#231F20"/><path d="M121.25 92.88h4.32l1-3.87-5.15-.06-.17 3.93zm-50.26.31h4.08l.37-3.8h-4.45c.03 1.24.03 2.53 0 3.8z" fill="#060D0F" opacity=".3"/><path d="M66.79 56.14a183.232 183.232 0 014.199 33.2h4.45l2.71-27.69-11.36-5.51z" fill="#116C9C"/><path opacity=".05" d="M66.79 56.14a183.232 183.232 0 014.199 33.2h4.45l2.71-27.69-11.36-5.51z" fill="#231F20"/><path d="M146.069 92.88h3.52l.15-4.66a144 144 0 01-4.12.45l.45 4.21z" fill="#060D0F" opacity=".3"/><path d="M143.51 35.32L125.22 57.5l19 18.64 1.36 12.5a144 144 0 004.12-.45l.4-12.49c-2.193-13.466-4.39-26.926-6.59-40.38z" fill="#116C9C"/><path opacity=".05" d="M143.51 35.32L125.22 57.5l19 18.64 1.36 12.5a144 144 0 004.12-.45l.4-12.49c-2.193-13.466-4.39-26.926-6.59-40.38z" fill="#231F20"/><path d="M128.439 36.27c12-11.78 13.93-27.15 14-35.94l-24.19-.08-51.3-.17L43.41 0c.53 7.46 3.6 28 21.42 40.48 18.76 13.21 46.68 12.44 63.61-4.21z" fill="#fff" opacity=".15"/><path d="M21.29 82.15l12.78-4.75a7.09 7.09 0 01-3.121 8.64 7.17 7.17 0 01-9.66-3.89z" fill="#29477A"/><path d="M31.77 79.58l10.37 3.86a6.71 6.71 0 00-2.37-3.94 6.84 6.84 0 00-4.78-1.44 9.093 9.093 0 002.2-.47 9.55 9.55 0 004.2-3.05c-1.73.38-3.47.78-5.24 1.2-1.49.36-3 .72-4.43 1.09l.05 2.75zm-6.5 2.17l-7.41 8.23a6.67 6.67 0 013.85-8.09 8.86 8.86 0 01-2.17.6 9.52 9.52 0 01-5.13-.76 415 415 0 015.2-1.36l4.43-1.09 1.23 2.47z" fill="#131E32"/><path d="M13.75 31.75L.25 25.19a9.2 9.2 0 0013.31 10.23l.19-3.67z" fill="#1271A3"/><path d="M16.33 12.97A17.7 17.7 0 0011 28.36l6.62 2.1-1.29-17.49zm26.81.69a19.229 19.229 0 013.58 9.07 18.82 18.82 0 01-.5 7l-6.79 1.47 3.71-17.54z" fill="#29477A"/><path opacity=".1" d="M10.89 24.2a17.998 17.998 0 00.11 4.16l6.62 2.1c-.13-1.83-.27-3.67-.4-5.51a6.08 6.08 0 01-.61 0c-1.91-.26-3.83-.45-5.72-.75zm28.54 6.97l6.79-1.47c.52-1.982.716-4.035.58-6.08-2 .32-4 .56-5.93.74l-1.44 6.81z" fill="#231F20"/><path d="M45.35 33.87l13.51-6.56A9.21 9.21 0 0145.51 37.5l-.16-3.63z" fill="#1271A3"/><path opacity=".3" d="M60.42 37.3l-10.07 4.89a13.25 13.25 0 00-3.51-4.77 12.57 12.57 0 00-7.79-2.32 27.11 27.11 0 00-16 5.55l-.24.79a114.558 114.558 0 0024.35 20.71c1.62 1 3.35 2.12 5.19 3.25a34.9 34.9 0 00.27-16.87 8.998 8.998 0 004.16-1.59 9.3 9.3 0 003.64-9.64z" fill="#231F20"/><path d="M27.74 63a13.58 13.58 0 0112.95-5c.24-.58.49-1.17.73-1.76a147.64 147.64 0 008.13-26.86L10.67 28.3c.06.8.13 1.61.19 2.42a16.22 16.22 0 016.21 4.16c.84.9 5.91 6.4 4 13.46a13.75 13.75 0 01-8.56 9.16c.267 5.72.473 11.343.62 16.87l12.78 1A13.33 13.33 0 0127.74 63z" fill="#1271A3"/><path d="M21.09 48.32c1.89-7.06-3.18-12.56-4-13.46a16.22 16.22 0 00-6.21-4.16c.52 6.58.97 13.297 1.35 20.15.12 2.23.23 4.44.34 6.65a13.75 13.75 0 008.52-9.18zm19.6 9.66a13.579 13.579 0 00-12.95 5 13.33 13.33 0 00-1.79 12.41l5.65.46a149.653 149.653 0 009.09-17.87z" fill="#50ACC6"/><path d="M10.67 28.28c.6 7.334 1.113 14.857 1.54 22.57.44 8 .773 15.84 1 23.52l9.16.75c2.41-5.83 4.76-12.22 6.93-19.14a233.322 233.322 0 006.7-27l-25.33-.7z" fill="#fff" opacity=".15"/><path d="M9.18 66.09a82.401 82.401 0 0029.7-.39c.65 7.47-3.31 14.27-9.5 16.76-7 2.8-13.3-1.22-13.57-1.4a15.42 15.42 0 01-6.63-14.97z" fill="#29477A"/><path opacity=".1" d="M11.39 76.5a14.72 14.72 0 004.42 4.54c.27.18 6.61 4.2 13.57 1.4a15 15 0 007.89-7.62 34.25 34.25 0 01-25.88 1.68z" fill="#231F20"/><path opacity=".1" d="M29.35 71.24a8.6 8.6 0 01-9.68 6 8.41 8.41 0 01-6.25-6.78 11.79 11.79 0 017.12-2.78 12.118 12.118 0 018.81 3.56z" fill="#58BBE0"/><path d="M12.51 67.58c0 1.63.07 3.26.11 4.89a2.55 2.55 0 01-2.06-2.83 2.41 2.41 0 011.95-2.06zm19.92.72c0 1.63.08 3.25.11 4.88a2.56 2.56 0 01-2.06-2.83 2.42 2.42 0 011.95-2.05z" fill="#191B1F"/><path d="M27.74 30.3c-2.44.36-5.06-1.44-6.27-3.76a7.57 7.57 0 010-6.56l3.57 6.18c.42-1.84.83-3.67 1.25-5.5.68 2 1.35 4 2 6 1.48-2 3-4 4.43-6.08 1.12 5.05-1.78 9.25-4.98 9.72z" fill="#1271A3"/><path d="M27.74 30.3c-2.44.36-5.06-1.44-6.27-3.76a7.57 7.57 0 010-6.56l3.57 6.18c.42-1.84.83-3.67 1.25-5.5.68 2 1.35 4 2 6 1.48-2 3-4 4.43-6.08 1.12 5.05-1.78 9.25-4.98 9.72z" fill="#fff" opacity=".15"/><path d="M14.51 46.15l24.31-.29a12.91 12.91 0 00-24.31.29z" fill="#fff" opacity=".2"/><path d="M15.51 47h-.23c-1.38-.19-2.48-2.13-2.44-4.33h1.09c0 1.84.87 3.14 1.5 3.22a1.392 1.392 0 001-.38 4.41 4.41 0 001.38-3.13l1.09.07a5.48 5.48 0 01-1.78 3.9 2.52 2.52 0 01-1.61.65zm18.24.5h-.24c-1.37-.16-2.81-1.86-2.77-4.32h1.1c0 1.86.999 3.14 1.799 3.23a2.09 2.09 0 001.4-.56 4.14 4.14 0 001.41-3l1.09.07a5.199 5.199 0 01-1.81 3.73 3.18 3.18 0 01-1.98.85z" fill="#1D1D16"/></svg>