<svg width="14" height="24" viewBox="0 0 14 24" fill="none" xmlns="http://www.w3.org/2000/svg">
<path d="M6 22.9911C6 23.5434 5.55228 23.9912 4.99999 23.9911L0.999997 23.9911C0.447714 23.9911 2.70065e-06 23.5434 2.7268e-06 22.9911L3.76736e-06 1.00887C3.7935e-06 0.456587 0.447717 0.00887128 1 0.00886917L5 0.00885391C5.55228 0.00885181 6 0.456568 6 1.00885L6 22.9911Z" fill="white"/>
<path d="M14 22.9823C14 23.5346 13.5523 23.9823 13 23.9823L9 23.9823C8.44771 23.9823 8 23.5346 8 22.9823L8 1.00002C8 0.447737 8.44772 2.11616e-05 9 1.90567e-05L13 3.81135e-06C13.5523 1.7064e-06 14 0.447718 14 1L14 22.9823Z" fill="white"/>
</svg>
