<svg width="42" height="30" viewBox="0 0 42 30" fill="none" xmlns="http://www.w3.org/2000/svg">
<path d="M41.3695 29.8283C41.5582 29.7303 41.7469 29.5422 41.8454 29.3461C42.0095 29.0273 42.0095 28.9128 41.9931 20.812C41.9684 12.6621 41.9684 12.5967 41.7961 12.376C41.7059 12.2534 41.5254 12.0736 41.4023 11.9837C41.1808 11.8202 41.0659 11.812 37.6608 11.7875L34.1409 11.7629L34.1163 6.31063C34.0917 0.866486 34.0917 0.858312 33.9112 0.572208C33.5583 0.00817513 33.5255 7.40862e-07 30.8589 9.73985e-07L28.4713 1.18272e-06L28.1513 0.294279C27.8313 0.580383 27.7985 0.662127 25.7636 6.7357L23.7124 12.891L23.7288 21.0327C23.7534 29.109 23.7534 29.1744 23.9257 29.3951C24.016 29.5177 24.1965 29.6976 24.3196 29.7875C24.5411 29.9591 24.6067 29.9591 32.8035 29.9755C40.9018 29.9918 41.0741 29.9918 41.3695 29.8283Z" fill="#FF7425"/>
<path d="M17.5176 29.8858C17.854 29.7386 18.1986 29.3217 18.2561 28.9948C18.2807 28.8476 18.2889 25.1038 18.2807 20.6651C18.2561 12.6623 18.2561 12.5969 18.0838 12.3762C17.9935 12.2536 17.813 12.0738 17.6899 11.9839C17.4684 11.8204 17.3535 11.8122 13.8992 11.7877L10.3383 11.7632L10.3219 6.21274L10.2972 0.654159L9.98545 0.351707L9.68187 0.0410802L7.2614 0.0165572C4.57838 -0.00796569 4.49633 0.00838309 4.18454 0.515195C4.09428 0.662334 3.11789 3.4825 2.01022 6.78495L1.11827e-06 12.8013L1.82718e-06 20.9103C2.52394e-06 28.8803 2.53681e-06 29.0275 0.164103 29.3463C0.270768 29.5588 0.443072 29.7305 0.656401 29.8367C0.976395 30.0002 1.11588 30.0002 9.12393 30.0002C15.7125 29.992 17.3207 29.9757 17.5176 29.8858Z" fill="#FF7425"/>
</svg>
