<svg width="74" height="70" viewBox="0 0 74 70" fill="none" xmlns="http://www.w3.org/2000/svg">
<path d="M69.8673 45.2735C74.0262 49.4324 74.0262 56.1907 69.8673 60.3496C65.7084 64.5085 58.9502 64.5085 54.7913 60.3496C50.6324 56.1907 43.8741 56.1907 39.7152 60.3496C35.5563 64.5085 28.7981 64.5085 24.6392 60.3496C20.4803 56.1907 20.4803 49.4324 24.6392 45.2735C28.7981 41.1146 35.5563 41.1146 39.7152 45.2735C43.8741 49.4324 50.6324 49.4324 54.7913 45.2735C58.9502 41.1146 65.7084 41.1146 69.8673 45.2735Z" stroke="white" stroke-opacity="0.15" stroke-miterlimit="10"/>
<path d="M21.9199 8.88325C23.4395 3.20475 29.278 -0.154293 34.9565 1.36531C40.635 2.88491 43.9941 8.72322 42.4745 14.4017C40.9549 20.0802 44.314 25.9189 49.9925 27.4385C55.671 28.9581 59.0302 34.7964 57.5106 40.4749C55.991 46.1535 50.1525 49.5125 44.474 47.9929C38.7955 46.4733 35.4364 40.635 36.956 34.9565C38.4756 29.278 35.1164 23.4397 29.4379 21.9201C23.7994 20.4005 20.4003 14.5618 21.9199 8.88325Z" stroke="white" stroke-opacity="0.15" stroke-miterlimit="10"/>
<path d="M14.4019 68.5876C8.72336 70.1072 2.8849 66.7482 1.3653 61.0697C-0.154298 55.3912 3.20481 49.5529 8.88332 48.0333C14.5618 46.5137 17.9209 40.675 16.4013 34.9965C14.8817 29.3179 18.2408 23.4796 23.9194 21.96C29.5979 20.4404 35.4363 23.7995 36.9559 29.478C38.4755 35.1565 35.1164 40.9952 29.4379 42.5148C23.7594 44.0344 20.4003 49.8727 21.9199 55.5512C23.4795 61.2297 20.0804 67.068 14.4019 68.5876Z" stroke="white" stroke-opacity="0.15" stroke-miterlimit="10"/>
</svg>
