<svg width="368" height="77" fill="none" xmlns="http://www.w3.org/2000/svg"><path d="M2 67.7l8.916-51.662L322.977 2 367 48.608v6.738L3.672 75 2 67.7z" stroke="#177BD3" stroke-width="2"/><mask id="mask0_190_4293" style="mask-type:alpha" maskUnits="userSpaceOnUse" x="2" y="2" width="365" height="73"><path d="M2 67.7l8.916-51.662L322.977 2 367 48.608v6.738L3.672 75 2 67.7z" fill="#C4C4C4"/></mask><g mask="url(#mask0_190_4293)" stroke="#fff" stroke-opacity=".3" stroke-width="2"><path d="M-430 334.904l1156.144-667.5M-558 113.202l1156.144-667.5M-302 556.607l1156.144-667.5M-622 2.35L534.144-665.148M-366 445.756l1156.144-667.5M-494 224.054l1156.144-667.5M-238 667.459L918.144-.041M-398 390.33l1156.144-667.5M-526 168.628l1156.144-667.5M-270 612.033l1156.144-667.5M-590 57.776l1156.144-667.5M-334 501.182l1156.144-667.5M-462 279.479l1156.144-667.5M-206 722.884l1156.144-667.5M-414 362.617l1156.144-667.5M-542 140.915l1156.144-667.5M-286 584.32L870.144-83.18M-606 30.064L550.144-637.438M-350 473.469l1156.144-667.5M-478 251.767l1156.144-667.5M-222 695.171l1156.144-667.5M-382 418.043l1156.144-667.5M-510 196.341l1156.144-667.5M-254 639.746l1156.144-667.5M-574 85.49L582.144-582.012M-318 528.895l1156.144-667.5M-446 307.192l1156.144-667.5M-422 348.761l1156.144-667.5M-550 127.059l1156.144-667.5M-294 570.464l1156.144-667.5M-614 16.207l1156.144-667.5M-358 459.612l1156.144-667.5M-486 237.91l1156.144-667.5M-230 681.314l1156.144-667.5M-390 404.187l1156.144-667.5M-518 182.484l1156.144-667.5M-262 625.89L894.144-41.61M-582 71.633l1156.144-667.5M-326 515.038l1156.144-667.5M-454 293.336l1156.144-667.5M-198 736.74L958.144 69.24M-406 376.474l1156.144-667.5M-534 154.771l1156.144-667.5M-278 598.177l1156.144-667.5M-598 43.92l1156.144-667.5M-342 487.325l1156.144-667.5M-470 265.623l1156.144-667.5M-214 709.027l1156.144-667.5M-374 431.899l1156.144-667.5M-502 210.197l1156.144-667.5M-246 653.603l1156.144-667.5M-566 99.346l1156.144-667.5M-310 542.751l1156.144-667.5M-438 321.049l1156.144-667.5"/></g></svg>