<svg width="519" height="421" fill="none" xmlns="http://www.w3.org/2000/svg"><mask id="mask0_110_5989" style="mask-type:alpha" maskUnits="userSpaceOnUse" x="1" y="1" width="518" height="419"><path d="M292.948 419L159.481 261.02l1.675-42.984-39.091-41.309-30.714 3.349L5.909 79.594 4.792 45.542 2 41.635V36.61l61.987-21.77-.558-7.816L76.83 2l13.961 2.233 12.844 10.606 46.351 8.932 146.87 120.578 11.727-2.233 16.754 1.117 13.961 21.213-1.117 9.49-5.026 1.116L518 325.775l-6.701 4.466-.559 2.233-2.233 2.233-2.793 49.124-8.376 3.908-1.676-2.233-59.753 6.699-6.701 1.674h-9.494l-30.156 4.466-12.844 2.792-49.701 7.257v3.907L292.948 419z" fill="#C4C4C4" stroke="#000"/></mask><g mask="url(#mask0_110_5989)" stroke="#fff" stroke-opacity=".3" stroke-width="2"><path d="M-696 240.5L460.144-427M-440 683.905l1156.144-667.5M-568 462.202l1156.144-667.5M-312 905.607l1156.144-667.5M-632 351.352l1156.144-667.5M-376 794.756l1156.144-667.5M-504 573.054l1156.144-667.5M-248 1016.46L908.144 348.959M-664 295.926l1156.144-667.5M-408 739.331l1156.144-667.5M-536 517.628l1156.144-667.5M-280 961.033l1156.144-667.5M-600 406.777l1156.144-667.5M-344 850.182l1156.144-667.5M-472 628.479l1156.144-667.5M-216 1071.88L940.144 404.385M-680 268.213l1156.144-667.5M-424 711.618l1156.144-667.5M-552 489.915l1156.144-667.5M-296 933.32l1156.144-667.5M-616 379.064l1156.144-667.5M-360 822.469l1156.144-667.5M-488 600.767l1156.144-667.5M-232 1044.17L924.144 376.672M-648 323.639l1156.144-667.5M-392 767.043l1156.144-667.5M-520 545.341l1156.144-667.5M-264 988.746l1156.144-667.5M-584 434.489l1156.144-667.5M-328 877.895l1156.144-667.5M-456 656.192l1156.144-667.5M-688 254.356l1156.144-667.5M-432 697.762l1156.144-667.5M-560 476.059l1156.144-667.5M-304 919.464l1156.144-667.5M-624 365.208l1156.144-667.5M-368 808.612l1156.144-667.5M-496 586.91L660.144-80.59M-240 1030.32L916.144 362.815M-656 309.782l1156.144-667.5M-400 753.188l1156.144-667.5M-528 531.484l1156.144-667.5M-272 974.89l1156.144-667.5M-592 420.633l1156.144-667.5M-336 864.038l1156.144-667.5M-464 642.336l1156.144-667.5M-208 1085.74L948.144 418.241M-672 282.069l1156.144-667.5M-416 725.475l1156.144-667.5M-544 503.771l1156.144-667.5M-288 947.177l1156.144-667.5M-608 392.921l1156.144-667.5M-352 836.325l1156.144-667.5M-480 614.623l1156.144-667.5M-224 1058.03L932.144 390.528M-640 337.495l1156.144-667.5M-384 780.899l1156.144-667.5M-512 559.197l1156.144-667.5M-256 1002.6L900.144 335.103M-576 448.346l1156.144-667.5M-320 891.751l1156.144-667.5M-448 670.049L708.144 2.549"/></g><path d="M291.948 419L158.481 261.02l1.675-42.984-39.091-41.309-30.714 3.349L4.909 79.594 3.792 45.542 1 41.635V36.61l61.987-21.77-.558-7.816L75.83 2l13.961 2.233 12.844 10.606 46.351 8.932 146.87 120.578 11.727-2.233 16.754 1.117 13.961 21.213-1.117 9.49-5.026 1.116L517 325.775l-6.701 4.466-.559 2.233-2.233 2.233-2.793 49.124-8.376 3.908-1.676-2.233-59.753 6.699-6.701 1.674h-9.494l-30.156 4.466-12.844 2.792-49.701 7.257v3.907L291.948 419z" stroke="#177BD3" stroke-width="2"/></svg>