<svg width="28" height="28" fill="none" xmlns="http://www.w3.org/2000/svg"><path fill-rule="evenodd" clip-rule="evenodd" d="M22 7H6a1 1 0 00-1 1v15a1 1 0 001 1h16a1 1 0 001-1V8a1 1 0 00-1-1zM6 6a2 2 0 00-2 2v15a2 2 0 002 2h16a2 2 0 002-2V8a2 2 0 00-2-2H6z" fill="#363D4D"/><path d="M4 8a2 2 0 012-2h16a2 2 0 012 2v2H4V8z" fill="#363D4D"/><path d="M8 4a1 1 0 012 0v3H8V4zm0 10a1 1 0 112 0v1H8v-1zm0 5a1 1 0 112 0v1H8v-1zm5-5a1 1 0 112 0v1h-2v-1zm0 5a1 1 0 112 0v1h-2v-1zm5-5a1 1 0 112 0v1h-2v-1zm0 5a1 1 0 112 0v1h-2v-1zm0-15a1 1 0 112 0v3h-2V4z" fill="#363D4D"/></svg>