<svg width="28" height="19" fill="none" xmlns="http://www.w3.org/2000/svg"><path d="M.49 3.666C-.086 3.022.37 2 1.235 2h18.53c.865 0 1.322 1.022.746 1.666l-5.362 6a1 1 0 01-.746.334H6.598a1 1 0 01-.746-.334l-5.362-6z" fill="#363D4D"/><path fill-rule="evenodd" clip-rule="evenodd" d="M16 11.3a.3.3 0 00-.3-.3H9.724a.3.3 0 00-.212.512l5.976 5.976a.3.3 0 00.512-.212V11.3zm-1 4.286V12h-3.586L15 15.586zM23.124 2.17A.5.5 0 0123.5 2h3a.5.5 0 010 1h-2.773l-6.85 7.83a.5.5 0 01-.753-.66l7-8zM5.5 17a2.5 2.5 0 100-5 2.5 2.5 0 000 5zm0 1a3.5 3.5 0 100-7 3.5 3.5 0 000 7z" fill="#363D4D"/><path d="M7 14.5a1.5 1.5 0 11-3 0 1.5 1.5 0 013 0z" fill="#363D4D"/></svg>