<svg width="28" height="28" fill="none" xmlns="http://www.w3.org/2000/svg"><path fill-rule="evenodd" clip-rule="evenodd" d="M6.73 15.348A10.07 10.07 0 006.593 17v10h10c5.523 0 10-4.477 10-10a9.994 9.994 0 00-.597-3.412 10.005 10.005 0 00-2.306-3.633L6.729 15.348zM16.593 26a9 9 0 008.683-11.374c-.501.169-1.43.375-2.686.375-1.6 0-4.092-.5-5.092-1-.097.225-.209.514-.334.836-.521 1.34-1.268 3.26-2.074 3.664-.669.334-1.069-.277-1.435-.837-.327-.498-.626-.956-1.065-.663-1.16.773-.825 1.845-.614 2.522.063.2.114.364.114.478l.501 5-.063.031a8.95 8.95 0 004.065.968zm3.502-7.001a1.5 1.5 0 100-3 1.5 1.5 0 000 3z" fill="#363D4D"/><path d="M.303 14.63a1 1 0 01.65-1.256l25.493-8.106a1 1 0 11.606 1.906L1.559 15.28a1 1 0 01-1.256-.65z" fill="#363D4D"/><path fill-rule="evenodd" clip-rule="evenodd" d="M13.983 3.079L9.874 4.385a6 6 0 00-3.94 7.406L21.477 6.85a6 6 0 00-7.493-3.77zm8.446 3.467a7 7 0 00-8.75-4.42L9.572 3.432a7 7 0 00-4.55 8.792l.262.823L22.733 7.5l-.261-.824a6.819 6.819 0 00-.043-.129z" fill="#363D4D"/></svg>