<svg xmlns="http://www.w3.org/2000/svg" width="32pt" height="32pt" viewBox="0 0 32 32"><g id="surface1"><path d="M31.594 15.988l-1.922-1.93a1.383 1.383 0 00-.988-.417l-1.543-.004a1.798 1.798 0 01-1.782-1.793v-4.13a.47.47 0 00-.468-.468.47.47 0 00-.47.469v3.37l-1.304-.651a.47.47 0 01-.258-.418c-.004-.274.004-2.454 0-2.704 0-.773-.629-1.406-1.406-1.406h-5.125a1.41 1.41 0 00-1.406 1.407v2.703c0 .175-.098.34-.258.418l-1.305.652v-3.5c0-.754.121-1.496.36-2.211l.133-.406H23.93c.101.304.12.347.23.71a.47.47 0 00.578.325.472.472 0 00.325-.578c-.208-.684-1.09-3.29-1.317-3.996A1.717 1.717 0 0022.113.25h-6.445c-.742 0-1.398.473-1.633 1.18-.172.52-1.07 3.226-1.207 3.648a7.916 7.916 0 00-.406 2.508v4.258a1.847 1.847 0 01-1.844 1.844h-.637v-.465a1.41 1.41 0 00-1.406-1.407H6.348c-.778 0-1.407.633-1.407 1.407v.468H3.566c-.343 0-.675.125-.933.356L.578 15.87A1.715 1.715 0 000 17.156v4.02c0 .258.21.469.469.469a.47.47 0 00.469-.47v-1.613h6.164c-.016.016-.7.301-.758.325-.52.222-.856.73-.856 1.297v7.753H.938v-5.562a.47.47 0 00-.47-.469.47.47 0 00-.468.469v6.969c0 .773.629 1.406 1.406 1.406h29.188A1.41 1.41 0 0032 30.344V16.98c0-.375-.145-.726-.406-.992zm-.532 1.532v1.25H29.48v-1.25zM16.328 6.844h5.125a.47.47 0 01.469.468v1.145a1.735 1.735 0 00-.828-.207h-4.407c-.3 0-.582.074-.828.207V7.312a.47.47 0 01.47-.468zm-.293-2.813l.313-.937h5.086l.312.937zm-1.11-2.308a.781.781 0 01.743-.536h6.445a.78.78 0 01.742.536l.766 2.308h-.887l-.472-1.426a.656.656 0 00-.625-.449h-5.492a.647.647 0 00-.622.45l-.472 1.425h-.89zm-9.046 11.5c0-.258.207-.47.469-.47h2.187a.47.47 0 01.469.47v.464l-3.125.004zm-4.68 3.347l2.059-1.824a.474.474 0 01.308-.117h2.727l.984 1.91a.956.956 0 01.07.211H1.052a.808.808 0 01.148-.18zm-.262 1.117h6.426v.938H.937zm0 12.657v-.469h4.551v.469a.47.47 0 01-.468.468H1.406a.47.47 0 01-.468-.468zm5.407.468c.05-.148.082-.304.082-.468v-.469h1.992a.468.468 0 100-.938H6.426v-7.753c0-.192.11-.36.285-.434l.734-.313c.52-.218.856-.726.856-1.292v-2.25c0-.27-.067-.543-.192-.786l-.761-1.48 3.23-.004a2.785 2.785 0 002.766-2.484l1.738-.868a1.4 1.4 0 00.777-1.257.83.83 0 01.829-.829h4.406a.83.83 0 01.828.829 1.4 1.4 0 00.777 1.257l1.738.868a2.74 2.74 0 002.7 2.433l1.539.004a.46.46 0 01.332.14l1.851 1.864h-1.535a.784.784 0 00-.781.781v1.563c0 .433.352.781.781.781h1.738v9.23h-5.507a9.308 9.308 0 002.261-3.847h.88c.777 0 1.406-.633 1.406-1.406v-1.625c0-.778-.63-1.407-1.407-1.407h-.664c-.836-4.285-4.617-7.527-9.14-7.527-5.133 0-9.313 4.176-9.313 9.313a9.274 9.274 0 002.652 6.5h-1.609a.47.47 0 00-.469.468.47.47 0 00.47.469h2.671c.477.36.988.672 1.527.938zm4.172-8.375c0-4.617 3.757-8.375 8.375-8.375 4.617 0 8.375 3.758 8.375 8.376 0 4.617-3.758 8.375-8.375 8.375-4.618 0-8.375-3.758-8.375-8.375zm17.648-.847h.531a.47.47 0 01.47.469v1.625a.47.47 0 01-.47.468h-.652a9.182 9.182 0 00.121-2.562zm2.43 9.223H22.96a9.53 9.53 0 001.527-.938h6.575v.469a.47.47 0 01-.47.468zm0 0"/><path d="M22.898 28.703a7.446 7.446 0 002.696-3.039.47.47 0 00-.219-.629.474.474 0 00-.625.219 6.54 6.54 0 01-5.86 3.683 6.508 6.508 0 01-6.5-6.5c0-3.585 2.919-6.5 6.5-6.5a6.505 6.505 0 016.442 7.376.468.468 0 00.402.527.468.468 0 00.528-.402 7.74 7.74 0 00.066-1c0-4.102-3.336-7.438-7.437-7.438-4.102 0-7.438 3.336-7.438 7.438 0 4.101 3.336 7.437 7.438 7.437a7.42 7.42 0 004.007-1.172zm0 0"/><path d="M15.297 22.438a3.6 3.6 0 003.594 3.593 3.6 3.6 0 003.593-3.593 3.6 3.6 0 00-3.593-3.594 3.6 3.6 0 00-3.594 3.593zm6.25 0a2.659 2.659 0 01-2.656 2.656 2.659 2.659 0 01-2.657-2.657 2.659 2.659 0 012.657-2.656 2.659 2.659 0 012.656 2.657zm0 0"/><path d="M17.172 22.438a1.719 1.719 0 103.437 0 1.719 1.719 0 00-3.437 0zm2.5 0c0 .43-.352.78-.781.78a.784.784 0 01-.782-.78c0-.43.352-.782.782-.782.43 0 .78.352.78.782zm-2.125-11.375h2.687a.47.47 0 00.47-.47.47.47 0 00-.47-.468h-2.687a.47.47 0 00-.469.469.47.47 0 00.469.469zm0 0"/></g></svg>